<svg width="28" height="28" viewBox="0 0 28 28" fill="none" xmlns="http://www.w3.org/2000/svg">
<g clip-path="url(#clip0_466_24810)">
<mask id="mask0_466_24810" style="mask-type:alpha" maskUnits="userSpaceOnUse" x="2" y="5" width="21" height="17">
<path fill-rule="evenodd" clip-rule="evenodd" d="M5.36345 8.21614C6.14421 6.98751 7.04574 5.82249 8.46615 5.37508C9.79715 4.95584 11.0978 5.46736 12.3384 6.01913C13.8188 6.67758 15.1458 7.41054 16.0107 8.73058C18.4454 12.4467 24.5627 16.5824 21.555 20.0868C18.6254 23.5002 13.5468 17.9095 9.27864 16.5745C6.97881 15.8551 3.82413 16.3384 2.83762 14.2323C1.89003 12.2094 4.12436 10.166 5.36345 8.21614Z" fill="#FCEA60"/>
</mask>
<g mask="url(#mask0_466_24810)">
<rect x="0.152344" y="6.80383" width="22.1992" height="22.1992" transform="rotate(-14.5168 0.152344 6.80383)" fill="#FCEA60"/>
</g>
</g>
<path d="M16.6058 21.982V21.8178C16.6058 20.4118 17.1249 19.0623 18.0674 18.0181C19.1129 16.8577 19.689 15.3598 19.689 13.8004C19.689 12.0676 18.9646 10.3934 17.7019 9.20663C16.4207 8.00283 14.7441 7.40042 12.9824 7.50971C9.73177 7.7118 7.14063 10.4256 7.08393 13.688C7.05684 15.2811 7.62669 16.8127 8.68839 18.0013C9.64044 19.0641 10.1647 20.3878 10.1647 21.7289V21.9826C10.1647 22.4439 10.5411 22.8191 11.0035 22.8191H15.7675C16.2299 22.8188 16.6062 22.4435 16.6062 21.9822L16.6058 21.982ZM11.7438 13.29H11.0783C10.9029 13.29 10.7369 13.2133 10.623 13.0795C10.5188 12.9571 10.4734 12.8053 10.4954 12.6515C10.4956 12.6503 10.496 12.6486 10.4965 12.6473C10.4982 12.6413 10.4994 12.6351 10.5005 12.6287C10.552 12.3376 10.7912 12.0984 11.0827 12.0465C11.0885 12.0454 11.0942 12.0442 11.1 12.0429C11.1019 12.0427 11.1043 12.0421 11.1061 12.0416C11.2602 12.02 11.4111 12.0652 11.5333 12.1694C11.6672 12.2832 11.7439 12.4491 11.7439 12.6246L11.7435 13.29L11.7438 13.29ZM14.5021 22.2936H12.2686V13.8149H14.5021V22.2936ZM16.0811 21.9819C16.0811 22.1538 15.9402 22.2936 15.7672 22.2936H15.0269V13.8149H15.6925C16.0218 13.8149 16.3334 13.6708 16.5471 13.4199C16.7522 13.1791 16.8413 12.8648 16.7921 12.5578C16.7904 12.5479 16.7884 12.5381 16.7855 12.5284C16.6923 12.023 16.2927 11.6237 15.7873 11.5311C15.7781 11.5285 15.769 11.5263 15.7594 11.525C15.4532 11.4756 15.1383 11.5646 14.8974 11.7696C14.6463 11.9834 14.5024 12.295 14.5024 12.6247V13.2899H12.2689V12.6247C12.2689 12.2953 12.1249 11.9836 11.8739 11.7696C11.633 11.5644 11.3178 11.4754 11.0119 11.525C11.0024 11.5267 10.993 11.5287 10.9841 11.5311C10.4781 11.6237 10.0781 12.0237 9.98534 12.5297C9.98278 12.5388 9.98058 12.5483 9.9793 12.5577C9.92987 12.8647 10.0188 13.1788 10.2242 13.4197C10.438 13.6709 10.7496 13.8147 11.0789 13.8147H11.7445L11.7441 22.2935H11.0038C10.8308 22.2935 10.6899 22.1536 10.6899 21.9817V21.728C10.6899 20.2577 10.1178 18.8094 9.07958 17.6505C8.10644 16.5611 7.58402 15.1569 7.60891 13.6965C7.66089 10.7059 10.0355 8.21832 13.0154 8.03274C13.1406 8.02487 13.2652 8.02121 13.3894 8.02121C14.8675 8.02121 16.2598 8.5702 17.3431 9.58832C18.5178 10.6923 19.1647 12.1879 19.1647 13.7997C19.1647 15.2288 18.6368 16.6021 17.6783 17.666C16.6486 18.8068 16.0817 20.2807 16.0817 21.8173V21.9815L16.0811 21.9819ZM15.0269 13.2899V12.6247C15.0269 12.4494 15.1036 12.2833 15.2374 12.1695C15.3597 12.0649 15.5103 12.0199 15.6652 12.0419C15.6669 12.0421 15.6683 12.0424 15.67 12.043C15.676 12.0446 15.6821 12.0459 15.6883 12.047C15.9793 12.0984 16.2186 12.3377 16.27 12.6291C16.2713 12.6359 16.2726 12.6428 16.2744 12.6496C16.2746 12.6507 16.275 12.6516 16.2751 12.6527C16.2967 12.8063 16.2515 12.9577 16.1474 13.08C16.0335 13.2136 15.8677 13.2905 15.6923 13.2905L15.0269 13.2901L15.0269 13.2899Z" fill="black"/>
<path d="M15.5693 24.8535H11.2002C10.8366 24.8535 10.541 25.1493 10.541 25.5127V25.6306C10.541 25.9941 10.8368 26.2897 11.2002 26.2897H15.5693C15.9329 26.2897 16.2285 25.9939 16.2285 25.6306L16.2287 25.5127C16.2287 25.1493 15.933 24.8535 15.5693 24.8535H15.5693ZM15.7037 25.6306C15.7037 25.7045 15.6433 25.7649 15.5693 25.7649H11.2002C11.1262 25.7649 11.0658 25.7045 11.0658 25.6306V25.5127C11.0658 25.4387 11.1262 25.3783 11.2002 25.3783H15.5693C15.6433 25.3783 15.7037 25.4387 15.7037 25.5127V25.6306Z" fill="black"/>
<path d="M16.2287 23.7843C16.2287 23.4208 15.9328 23.1252 15.5695 23.1252L11.2002 23.125C10.8366 23.125 10.541 23.4208 10.541 23.7842V23.902C10.541 24.2656 10.8368 24.5612 11.2002 24.5612H15.5693C15.9329 24.5612 16.2285 24.2654 16.2285 23.902L16.2287 23.7843ZM15.7037 23.9019C15.7037 23.9758 15.6433 24.0362 15.5693 24.0362H11.2002C11.1262 24.0362 11.0658 23.9758 11.0658 23.9019V23.784C11.0658 23.71 11.1262 23.6496 11.2002 23.6496H15.5693C15.6433 23.6496 15.7037 23.71 15.7037 23.784V23.9019Z" fill="black"/>
<path d="M13.6481 6.09009V3.02813C13.6481 2.88333 13.5305 2.76562 13.3856 2.76562C13.2408 2.76562 13.123 2.88315 13.123 3.02813V6.09009C13.123 6.23488 13.2406 6.35259 13.3856 6.35259C13.5303 6.35259 13.6481 6.23507 13.6481 6.09009Z" fill="black"/>
<path d="M20.6945 3.73913C20.5918 3.63644 20.4259 3.63644 20.3234 3.73913L18.1581 5.90448C18.0554 6.00717 18.0554 6.17302 18.1581 6.27553C18.2093 6.32679 18.2765 6.35242 18.3437 6.35242C18.4109 6.35242 18.4781 6.32679 18.5293 6.27553L20.6947 4.11018C20.7972 4.00785 20.7972 3.84182 20.6945 3.73913H20.6945Z" fill="black"/>
<path d="M8.61343 6.27547C8.71612 6.17278 8.71612 6.00693 8.61343 5.90442L6.44807 3.73907C6.34538 3.63637 6.17953 3.63637 6.07702 3.73907C5.97433 3.84176 5.97433 4.00761 6.07702 4.11012L8.24237 6.27547C8.29363 6.32673 8.36081 6.35236 8.42799 6.35236C8.49499 6.35236 8.56217 6.32691 8.61342 6.27547H8.61343Z" fill="black"/>
<defs>
<clipPath id="clip0_466_24810">
<rect width="22.1992" height="22.1992" fill="white" transform="translate(0 6.33008) rotate(-14.5168)"/>
</clipPath>
</defs>
</svg>
