<?xml version="1.0" encoding="utf-8"?>
<!-- Generator: Adobe Illustrator 21.0.0, SVG Export Plug-In . SVG Version: 6.00 Build 0)  -->
<svg version="1.1" id="Layer_1" xmlns="http://www.w3.org/2000/svg" xmlns:xlink="http://www.w3.org/1999/xlink" x="0px" y="0px"
	 viewBox="0 0 66.5 49.7" style="enable-background:new 0 0 66.5 49.7;" xml:space="preserve">
<style type="text/css">
	.st0{fill:#F7F9FE;}
	.st1{fill:#A0A0A0;}
	.st2{fill-rule:evenodd;clip-rule:evenodd;fill:#38717C;}
	.st3{fill-rule:evenodd;clip-rule:evenodd;fill:#FFFFFF;stroke:#C6C6C6;stroke-width:0.75;stroke-miterlimit:10;}
	.st4{fill:#E88053;}
	.st5{fill:#FFFFFF;fill-opacity:0;}
	.st6{opacity:0.357;fill:#FFFFFF;fill-opacity:0.3;enable-background:new    ;}
	.st7{opacity:0.9;fill:#FFFFFF;enable-background:new    ;}
	.st8{fill:#FFFFFF;fill-opacity:0.3;}
	.st9{fill:#FFFFFF;}
	.st10{enable-background:new    ;}
	.st11{opacity:0.6341;}
	.st12{fill:#262626;}
	.st13{clip-path:url(#SVGID_4_);fill-rule:evenodd;clip-rule:evenodd;fill:#FFFFFF;}
	.st14{clip-path:url(#SVGID_6_);}
	.st15{clip-path:url(#SVGID_8_);fill:#FFFFFF;}
	.st16{fill:#6B6B6B;}
	.st17{fill:#F86E57;}
	.st18{clip-path:url(#SVGID_12_);fill-rule:evenodd;clip-rule:evenodd;fill:#FFFFFF;}
	.st19{clip-path:url(#SVGID_14_);}
	.st20{clip-path:url(#SVGID_16_);fill:#FFFFFF;}
	.st21{clip-path:url(#SVGID_20_);fill-rule:evenodd;clip-rule:evenodd;fill:#FFFFFF;}
	.st22{clip-path:url(#SVGID_22_);}
	.st23{clip-path:url(#SVGID_24_);fill:#FFFFFF;}
	.st24{clip-path:url(#SVGID_28_);fill-rule:evenodd;clip-rule:evenodd;fill:#FFFFFF;}
	.st25{clip-path:url(#SVGID_30_);}
	.st26{clip-path:url(#SVGID_32_);fill:#FFFFFF;}
	.st27{clip-path:url(#SVGID_36_);fill-rule:evenodd;clip-rule:evenodd;fill:#FFFFFF;}
	.st28{clip-path:url(#SVGID_38_);}
	.st29{clip-path:url(#SVGID_40_);fill:#FFFFFF;}
	.st30{clip-path:url(#SVGID_44_);fill-rule:evenodd;clip-rule:evenodd;fill:#FFFFFF;}
	.st31{clip-path:url(#SVGID_46_);}
	.st32{clip-path:url(#SVGID_48_);fill:#FFFFFF;}
	.st33{clip-path:url(#SVGID_52_);fill-rule:evenodd;clip-rule:evenodd;fill:#FFFFFF;}
	.st34{clip-path:url(#SVGID_54_);}
	.st35{clip-path:url(#SVGID_56_);fill:#FFFFFF;}
	.st36{fill-rule:evenodd;clip-rule:evenodd;fill:#444141;}
	.st37{fill-rule:evenodd;clip-rule:evenodd;fill:#E88053;}
	.st38{clip-path:url(#SVGID_60_);fill-rule:evenodd;clip-rule:evenodd;fill:#FFFFFF;}
	.st39{clip-path:url(#SVGID_62_);}
	.st40{clip-path:url(#SVGID_64_);fill:#FFFFFF;}
	.st41{fill-rule:evenodd;clip-rule:evenodd;fill:#F7F9FE;}
	.st42{fill:#EEB830;}
	.st43{fill:#38717C;}
	.st44{fill:#F29E6E;}
	.st45{fill:#F7F9FE;stroke:#E88053;stroke-width:4;stroke-miterlimit:10;}
	.st46{fill:none;stroke:#E88053;stroke-miterlimit:10;}
	.st47{fill:#97999C;}
	.st48{fill:#636467;}
	.st49{fill:#F19623;}
	.st50{fill:#FBC40C;}
	.st51{fill:#EA7025;}
	.st52{fill:#4D5252;}
	.st53{fill:#027382;}
	.st54{fill:#0C6BC2;}
	.st55{clip-path:url(#SVGID_68_);fill:#027382;}
	.st56{fill:none;stroke:#F1F2F2;stroke-width:1.04;stroke-linecap:round;stroke-miterlimit:10;}
	.st57{fill:#C3DAED;}
	.st58{fill:#7A94D3;}
	.st59{fill:#F7B58E;}
	.st60{fill:#634087;}
	.st61{fill:#F39F85;}
	.st62{fill:#2B3D82;}
	.st63{filter:url(#Adobe_OpacityMaskFilter);}
	.st64{mask:url(#mask-7_1_);fill:#2B3D82;}
	.st65{filter:url(#Adobe_OpacityMaskFilter_1_);}
	.st66{mask:url(#mask-9_1_);fill:url(#Fill-169_3_);}
	.st67{filter:url(#Adobe_OpacityMaskFilter_2_);}
	.st68{mask:url(#mask-12_2_);fill:#634087;}
	.st69{fill:#213268;}
	.st70{fill:#465DA5;}
	.st71{filter:url(#Adobe_OpacityMaskFilter_3_);}
	.st72{mask:url(#mask-14_2_);fill:#8B588E;}
	.st73{fill:#01888B;}
	.st74{filter:url(#Adobe_OpacityMaskFilter_4_);}
	.st75{mask:url(#mask-16_2_);fill:#01888B;}
	.st76{filter:url(#Adobe_OpacityMaskFilter_5_);}
	.st77{mask:url(#mask-18_2_);fill:#63C0C4;}
	.st78{fill:#FFBB99;}
	.st79{fill:#57C4C4;}
	.st80{filter:url(#Adobe_OpacityMaskFilter_6_);}
	.st81{mask:url(#mask-20_2_);fill:url(#Fill-267_3_);}
	.st82{clip-path:url(#SVGID_70_);fill:#027382;}
	.st83{filter:url(#Adobe_OpacityMaskFilter_7_);}
	.st84{mask:url(#mask-7_2_);fill:#2B3D82;}
	.st85{filter:url(#Adobe_OpacityMaskFilter_8_);}
	.st86{mask:url(#mask-9_2_);fill:url(#Fill-169_4_);}
	.st87{filter:url(#Adobe_OpacityMaskFilter_9_);}
	.st88{mask:url(#mask-12_1_);fill:#634087;}
	.st89{filter:url(#Adobe_OpacityMaskFilter_10_);}
	.st90{mask:url(#mask-14_1_);fill:#8B588E;}
	.st91{filter:url(#Adobe_OpacityMaskFilter_11_);}
	.st92{mask:url(#mask-16_1_);fill:#01888B;}
	.st93{filter:url(#Adobe_OpacityMaskFilter_12_);}
	.st94{mask:url(#mask-18_1_);fill:#63C0C4;}
	.st95{filter:url(#Adobe_OpacityMaskFilter_13_);}
	.st96{mask:url(#mask-20_1_);fill:url(#Fill-267_4_);}
	.st97{clip-path:url(#SVGID_72_);fill:#38717C;}
	.st98{opacity:0.1;}
	.st99{fill:#2D2D2D;}
	.st100{fill:#A7A9AC;}
	.st101{fill:#BCBEC0;}
	.st102{fill:#44448C;}
	.st103{fill:#77BC4A;}
	.st104{opacity:5.000000e-02;fill:#262223;}
	.st105{fill:#F7C39F;}
	.st106{fill:none;stroke:#D84439;stroke-width:0.9952;stroke-linecap:round;stroke-miterlimit:10;}
	.st107{fill:#FB7A68;}
	.st108{fill:#D84439;}
	.st109{fill:#4F4A97;}
	.st110{fill:#F4633B;}
	.st111{opacity:0.1;fill:#262223;}
	.st112{opacity:0.1;fill:#9E6A43;}
	.st113{fill:#434342;}
	.st114{fill:#D6D9DB;}
	.st115{fill:#FCCA97;}
	.st116{opacity:0.5;fill:#D89C73;}
	.st117{opacity:5.000000e-02;}
	.st118{fill:#EDE674;}
	.st119{fill:#38281A;}
	.st120{fill:#D89C73;}
	.st121{fill:#473522;}
	.st122{fill:#E6B289;}
	.st123{fill:#BD6A9E;}
	.st124{fill:#3C3C3B;}
	.st125{fill:#E18B09;}
	.st126{fill:#E6E7E8;}
	.st127{fill:#8FD2EF;}
	.st128{fill:#88CBE2;}
	.st129{fill:#5E443F;}
	.st130{fill:#FFB380;}
	.st131{fill:#F2A672;}
	.st132{fill:#A4DFFF;}
	.st133{fill:#1559AA;}
	.st134{opacity:0.1;fill:#BA6536;}
	.st135{fill:#D89832;}
	.st136{opacity:7.000000e-02;}
	.st137{fill:#2A2A2B;}
	.st138{fill:#323233;}
	.st139{fill:#DBDDD9;}
	.st140{fill:#E84D4D;}
	.st141{fill:#F4BE8E;}
	.st142{fill:#D1D3D4;}
	.st143{fill:#2A1B40;}
	.st144{opacity:0.5;fill:#EFB378;}
	.st145{fill:#7F583D;}
	.st146{fill:#005274;}
	.st147{fill:#F96767;}
	.st148{clip-path:url(#SVGID_74_);fill:#38717C;}
	.st149{fill-rule:evenodd;clip-rule:evenodd;fill:none;stroke:#C6C6C6;stroke-width:0.5;stroke-miterlimit:10;}
</style>
<g>
	<g>
		<path class="st9" d="M17.5,32.7L17.5,32.7l5-11l2.4,5.3l0,0c1.5,3.3,4.8,5.4,8.4,5.4c1.1,0,2.3-0.2,3.3-0.6c0,0,0.1,0,0.1,0l0.1,0
			c0,0,0.1,0,0.1,0c2.1-0.9,3.8-2.5,4.8-4.6l2.4-5.4l4.4,9.9l0.5,1.2h0l0,0h17.5L51.9,0H36.2l-2.9,6.5L30.4,0h0l0,0H14.6L0,32.7
			L17.5,32.7L17.5,32.7z M15,28.8L15,28.8l-9,0L17.1,3.9h10.7l0,0h0L30,8.8l0,0l3.2,7.3l5.4-12.2h10.7l11.1,24.9h-9L44,12l-5.9,13.3
			c-0.6,1.2-1.5,2.2-2.8,2.7l-0.2,0.1c-0.6,0.2-1.3,0.4-1.9,0.4c-2.1,0-4-1.2-4.8-3.1l-5.9-13.3L15,28.8L15,28.8z"/>
		<path class="st9" d="M56.7,38.5c-1.1-1.4-2.8-2.2-4.7-2.2c-2.3,0-4.3,1.3-5.4,3.2v-3.6c0-1.6-1.3-2.9-2.9-2.9
			c-1.3,0-2.4,0.8-2.8,2c-0.5-1-1.5-1.8-2.8-1.8c-1.7,0-3,1.3-3,2.9v0.2c0,0.6,0.2,1.1,0.5,1.6c-0.2,0.4-0.4,0.9-0.4,1.4v0.2
			c-0.8-1.9-2.6-3.2-4.9-3.2c-1.1,0-2,0.3-2.9,0.8c-0.8-0.5-1.8-0.8-2.8-0.8c-0.8,0-1.4,0.1-2.1,0.4c-0.4-0.2-0.8-0.3-1.3-0.3
			c-1.2,0-2.2,0.7-2.7,1.8c-0.2-0.3-0.5-0.6-0.9-0.8l-0.1,0c-1.2-0.6-2.5-1-3.8-1c-1.4,0-2.6,0.4-3.6,1.2c-1,0.9-1.6,2.1-1.6,3.5v0
			c0,0.9,0.3,1.8,0.8,2.5c-0.7,0.5-1.2,1.4-1.2,2.3c0,0.9,0.4,1.8,1.2,2.3c1.3,0.9,3,1.5,4.6,1.5c1.4,0,2.7-0.5,3.7-1.3
			c0.3-0.3,0.6-0.5,0.8-0.8c0.4,1.2,1.5,2,2.8,2c1.5,0,2.8-1.2,2.9-2.7c0.1,1.5,1.4,2.7,2.9,2.7c1.5,0,2.7-1.1,2.9-2.6
			c0.2,1.5,1.4,2.6,2.9,2.6c1.2,0,2.2-0.7,2.7-1.8c0.4,1,1.5,1.8,2.7,1.8c1.3,0,2.4-0.8,2.8-2c0.4,1.2,1.5,2,2.8,2
			c1.6,0,2.9-1.3,2.9-2.9v-0.2c0.3,0.4,0.6,0.9,0.9,1.2c1.2,1.3,2.9,2,4.7,2c1.9,0,3.4-0.6,4.7-1.9c0.6-0.5,0.9-1.3,0.9-2.1
			c0-0.4-0.1-0.8-0.2-1.1c0.4-0.5,0.6-1.1,0.6-1.8C58.2,41.3,57.7,39.7,56.7,38.5z M38.2,35.4c0.4,0,0.8,0.4,0.9,0.8
			c0,0.1,0,0.2-0.1,0.3c-0.3-0.1-0.5-0.1-0.8-0.1c-0.3,0-0.5,0-0.8,0.1c0-0.1-0.1-0.2-0.1-0.3C37.4,35.8,37.8,35.4,38.2,35.4z"/>
	</g>
	<g>
		<g>
			<polygon class="st9" points="15.9,2 3.1,30.8 16.3,30.8 22.5,16.8 25.5,23.7 32.1,8.8 29.1,2 			"/>
			<path class="st9" d="M37.4,2L26.7,26.2c1.1,2.5,3.7,4.2,6.6,4.2c2.9,0,5.4-1.7,6.6-4.2l4.2-9.4l6.2,13.9h13.2L50.6,2H37.4z"/>
			<polygon class="st47" points="37.4,1.9 33.2,11.3 39.9,26.2 50.6,1.9 			"/>
			<polygon class="st48" points="50.6,1.9 37.4,1.9 50.3,30.8 63.5,30.8 			"/>
			<polygon class="st49" points="29.1,1.9 15.8,1.9 26.6,26.2 33.2,11.3 			"/>
			<polygon class="st50" points="15.8,1.9 3,30.8 16.2,30.8 29.1,1.9 			"/>
			<path class="st51" d="M33.2,11.3l-6.6,14.9c1.2,2.5,3.7,4.2,6.6,4.2c2.9,0,5.5-1.7,6.6-4.2L33.2,11.3z"/>
		</g>
		<g>
			<g>
				<g>
					<g>
						<g>
							<path class="st52" d="M14.1,47.8c-1.2,0-2.5-0.4-3.4-1.1c-0.2-0.1-0.4-0.4-0.4-0.7c0-0.5,0.4-0.9,0.9-0.9
								c0.2,0,0.4,0.1,0.5,0.2c0.8,0.6,1.7,0.8,2.5,0.8c0.7,0,1.4-0.3,1.4-1v0c0-0.5-0.7-0.8-1.9-1.2c-1.2-0.3-3-0.9-3-2.7v0
								c0-1.6,1.3-2.7,3.2-2.7c0.9,0,2,0.3,2.9,0.8c0.3,0.2,0.5,0.5,0.5,0.8c0,0.5-0.4,0.9-0.9,0.9c-0.2,0-0.3-0.1-0.4-0.1l0,0
								c-0.7-0.4-1.4-0.6-2-0.6c-0.8,0-1.3,0.4-1.3,0.9v0c0,0.6,0.9,0.8,1.9,1.1l0,0c1.1,0.3,3,0.9,3,2.7v0
								C17.4,46.6,16,47.8,14.1,47.8z"/>
						</g>
						<g>
							<path class="st52" d="M32.9,47.7c-0.5,0-1-0.4-1-1v-4.4c0-1.4-0.7-2.2-1.9-2.2c-1.2,0-2,0.9-2,2.3v4.3c0,0.5-0.4,1-1,1
								c-0.5,0-0.9-0.4-0.9-1v-4.4c0-1.4-0.7-2.2-1.9-2.2c-1.2,0-2,1-2,2.3v4.3c0,0.6-0.4,1-1,1c-0.5,0-1-0.4-1-1v-7.3
								c0-0.5,0.4-1,0.9-1c0.5,0,0.9,0.4,1,0.9c0.5-0.5,1.3-1,2.4-1c1.2,0,2.1,0.5,2.7,1.4c0.8-0.9,1.7-1.4,2.9-1.4
								c2.1,0,3.5,1.5,3.5,3.7v4.7C33.8,47.2,33.4,47.7,32.9,47.7z"/>
						</g>
						<g>
							<path class="st52" d="M38.2,47.7c-0.5,0-1-0.4-1-1v-7.3c0-0.5,0.4-1,1-1c0.5,0,1,0.4,1,1v7.3C39.2,47.3,38.7,47.7,38.2,47.7z
								 M38.2,37.4c-0.6,0-1.1-0.4-1.1-1v-0.2c0-0.6,0.5-1,1.1-1c0.6,0,1.1,0.4,1.1,1v0.2C39.3,36.9,38.8,37.4,38.2,37.4z"/>
						</g>
						<g>
							<path class="st52" d="M43.7,47.7c-0.5,0-1-0.4-1-1V35.9c0-0.5,0.4-1,0.9-1c0.5,0,1,0.4,1,1v10.8
								C44.7,47.2,44.3,47.7,43.7,47.7z"/>
						</g>
						<path class="st52" d="M56.3,42.9c0-2.3-1.5-4.6-4.3-4.6c-2.5,0-4.4,2.1-4.4,4.7v0c0,2.7,2,4.7,4.5,4.7c1.4,0,2.4-0.4,3.4-1.4
							c0.2-0.2,0.3-0.4,0.3-0.7c0-0.5-0.4-0.9-0.9-0.9c-0.2,0-0.4,0.1-0.6,0.2c-0.7,0.6-1.4,0.9-2.2,0.9c-1.3,0-2.3-0.9-2.6-2.2h5.7
							C55.9,43.8,56.3,43.4,56.3,42.9z M49.6,42.2c0.3-1.3,1.2-2.2,2.4-2.2c1.4,0,2.1,1.1,2.3,2.2H49.6z"/>
					</g>
				</g>
			</g>
		</g>
	</g>
</g>
</svg>
