<svg width="17" height="17" viewBox="0 0 17 17" fill="none" xmlns="http://www.w3.org/2000/svg">
<path d="M8.50306 0.738281C4.22232 0.738281 0.742188 4.21842 0.742188 8.49915C0.742188 12.7799 4.22232 16.26 8.50306 16.26C12.7838 16.26 16.2639 12.7799 16.2639 8.49915C16.2639 4.21842 12.7838 0.738281 8.50306 0.738281ZM11.8688 7.1267L8.33967 11.3257C8.19265 11.5055 7.98022 11.6035 7.75148 11.6035C7.52274 11.6035 7.3103 11.5055 7.16329 11.3257L5.13735 8.90765C4.85961 8.5809 4.90861 8.10702 5.23536 7.82927C5.56211 7.55152 6.03599 7.60053 6.31375 7.92728L7.75146 9.64287L10.6924 6.14639C10.9702 5.81965 11.4441 5.78694 11.7708 6.04838C12.0975 6.32612 12.1466 6.80002 11.8688 7.12676L11.8688 7.1267Z" fill="#FA9D1C"/>
</svg>
