<svg width="72" height="72" viewBox="0 0 72 72" fill="none" xmlns="http://www.w3.org/2000/svg">
<g filter="url(#filter0_d_382_22886)">
<rect x="16" y="8" width="40" height="40" rx="13.9103" fill="#506698"/>
<path fill-rule="evenodd" clip-rule="evenodd" d="M40.1101 23.8364C40.1365 23.7774 40.1489 23.7131 40.1463 23.6485H40.168C40.0748 21.4248 38.2388 19.6699 36.0055 19.6699C33.7722 19.6699 31.9361 21.4248 31.8429 23.6485C31.832 23.7107 31.832 23.7743 31.8429 23.8364H31.7781C30.7102 23.8364 29.5687 24.5414 29.2372 26.4365L28.5891 31.5987C28.0589 35.3889 30.0106 36.3364 32.5588 36.3364H39.4671C42.008 36.3364 43.9008 34.9644 43.4294 31.5987L42.7887 26.4365C42.3983 24.5944 41.2936 23.8364 40.2404 23.8364H40.1101ZM38.9123 23.8364C38.8892 23.7764 38.8769 23.7128 38.8761 23.6485C38.8761 22.0506 37.5762 20.7552 35.9728 20.7552C34.3694 20.7552 33.0696 22.0506 33.0696 23.6485C33.0805 23.7107 33.0806 23.7743 33.0696 23.8364H38.9123ZM33.5818 28.1266C33.175 28.1266 32.8453 27.7872 32.8453 27.3685C32.8453 26.9499 33.175 26.6105 33.5818 26.6105C33.9885 26.6105 34.3183 26.9499 34.3183 27.3685C34.3183 27.7872 33.9885 28.1266 33.5818 28.1266ZM37.6696 27.3685C37.6696 27.7872 37.9994 28.1266 38.4061 28.1266C38.8129 28.1266 39.1426 27.7872 39.1426 27.3685C39.1426 26.9499 38.8129 26.6105 38.4061 26.6105C37.9994 26.6105 37.6696 26.9499 37.6696 27.3685Z" fill="white"/>
</g>
<defs>
<filter id="filter0_d_382_22886" x="0.615384" y="0.307692" width="70.7692" height="70.7692" filterUnits="userSpaceOnUse" color-interpolation-filters="sRGB">
<feFlood flood-opacity="0" result="BackgroundImageFix"/>
<feColorMatrix in="SourceAlpha" type="matrix" values="0 0 0 0 0 0 0 0 0 0 0 0 0 0 0 0 0 0 127 0" result="hardAlpha"/>
<feOffset dy="7.69231"/>
<feGaussianBlur stdDeviation="7.69231"/>
<feComposite in2="hardAlpha" operator="out"/>
<feColorMatrix type="matrix" values="0 0 0 0 0 0 0 0 0 0 0 0 0 0 0 0 0 0 0.1 0"/>
<feBlend mode="normal" in2="BackgroundImageFix" result="effect1_dropShadow_382_22886"/>
<feBlend mode="normal" in="SourceGraphic" in2="effect1_dropShadow_382_22886" result="shape"/>
</filter>
</defs>
</svg>
