<svg width="72" height="72" viewBox="0 0 72 72" fill="none" xmlns="http://www.w3.org/2000/svg">
<rect width="72" height="72" fill="#E5E5E5"/>
<g id="Frame 37451" clip-path="url(#clip0_381_16618)">
<rect width="37466" height="25129" transform="translate(-5230 -1440)" fill="#EAF0FF"/>
<g id="Frame 37320" clip-path="url(#clip1_381_16618)">
<rect width="360" height="780" transform="translate(-72 -201)" fill="white"/>
<g id="new_debit" clip-path="url(#clip2_381_16618)">
<path id="Vector" opacity="0.1" d="M58.6858 0H13.3142C5.96096 0 0 5.96096 0 13.3142V58.6826C0 66.0358 5.96096 71.9968 13.3142 71.9968H58.6858C66.039 71.9968 72 66.0358 72 58.6826V13.3142C72 5.96096 66.039 0 58.6858 0Z" fill="#FA9D1C"/>
<path id="Shape" d="M43.7562 28.0509C43.7498 28.3987 43.8475 28.7405 44.0368 29.0324C44.226 29.3243 44.4982 29.5529 44.8183 29.689C45.1385 29.8251 45.492 29.8623 45.8335 29.796C46.175 29.7297 46.4889 29.5629 46.7349 29.3169C46.9808 29.0709 47.1477 28.757 47.214 28.4155C47.2803 28.074 47.243 27.7205 47.107 27.4004C46.9709 27.0802 46.7422 26.808 46.4504 26.6188C46.1585 26.4295 45.8167 26.3318 45.4689 26.3382C45.0172 26.3465 44.5864 26.5296 44.267 26.849C43.9476 27.1684 43.7644 27.5993 43.7562 28.0509ZM46.0506 28.0509C46.0506 28.166 46.0165 28.2784 45.9526 28.3741C45.8886 28.4698 45.7978 28.5443 45.6915 28.5883C45.5852 28.6324 45.4683 28.6439 45.3554 28.6214C45.2426 28.599 45.1389 28.5436 45.0576 28.4622C44.9762 28.3809 44.9208 28.2772 44.8984 28.1644C44.8759 28.0516 44.8875 27.9346 44.9315 27.8283C44.9755 27.722 45.0501 27.6312 45.1457 27.5673C45.2414 27.5034 45.3539 27.4692 45.4689 27.4692C45.6232 27.4692 45.7711 27.5305 45.8802 27.6396C45.9893 27.7487 46.0506 27.8967 46.0506 28.0509V28.0509Z" fill="#FA9D1C"/>
<g id="Group 36697">
<path id="Shape_2" d="M57.6518 22.5885L39.167 16.6747C39.0179 16.6423 38.8637 16.6423 38.7146 16.6747L20.2299 22.5885C20.0879 22.6459 19.9661 22.7441 19.8799 22.8706C19.7936 22.9971 19.7467 23.1463 19.7451 23.2994V26.2725C19.7449 26.4642 19.8188 26.6485 19.9513 26.787C20.0837 26.9255 20.2646 27.0074 20.4561 27.0158H22.6859V30.7967H24.1724V27.0158H27.1132V30.7967H28.5997V27.0158H31.5728V30.7967H33.027V27.0158H36.0001V30.7967H37.4866V27.0158H40.4273V30.7967H41.9139V27.0158H44.8546V30.7967H46.3412V27.0158H49.3142V41.9134H47.8277V43.3677H56.7146V46.3407H47.8277V47.8273H57.4256C57.5232 47.8273 57.6198 47.808 57.71 47.7707C57.8002 47.7333 57.8821 47.6786 57.9511 47.6096C58.0201 47.5405 58.0749 47.4586 58.1122 47.3684C58.1496 47.2783 58.1688 47.1816 58.1688 47.084V42.6244C58.1689 42.5282 58.1495 42.4331 58.1118 42.3446C58.074 42.2562 58.0188 42.1763 57.9493 42.1099C57.8798 42.0434 57.7976 41.9918 57.7076 41.958C57.6175 41.9242 57.5216 41.9091 57.4256 41.9134H55.2281V27.0158H57.4256C57.5232 27.0158 57.6198 26.9965 57.71 26.9592C57.8002 26.9218 57.8821 26.8671 57.9511 26.7981C58.0201 26.7291 58.0749 26.6471 58.1122 26.5569C58.1496 26.4668 58.1688 26.3701 58.1688 26.2725V23.2994C58.1694 23.1413 58.1196 22.9872 58.0267 22.8593C57.9337 22.7315 57.8024 22.6366 57.6518 22.5885V22.5885ZM53.7415 41.9134H50.8008V27.0158H53.7415V41.9134ZM56.7146 25.5292H21.1993V23.8488L38.9408 18.1612L56.7146 23.8488V25.5292Z" fill="#FA9D1C"/>
<path id="Shape_3" d="M14.5418 58.9116H45.5974C45.695 58.9116 45.7917 58.8923 45.8818 58.855C45.972 58.8176 46.054 58.7629 46.123 58.6939C46.192 58.6249 46.2467 58.5429 46.2841 58.4527C46.3215 58.3626 46.3407 58.2659 46.3407 58.1683V33.0265C46.3407 32.9289 46.3215 32.8322 46.2841 32.742C46.2467 32.6519 46.192 32.5699 46.123 32.5009C46.054 32.4319 45.972 32.3771 45.8818 32.3398C45.7917 32.3024 45.695 32.2832 45.5974 32.2832H14.5418C14.4456 32.2831 14.3505 32.3025 14.262 32.3402C14.1736 32.378 14.0937 32.4332 14.0273 32.5027C13.9608 32.5722 13.9091 32.6544 13.8754 32.7445C13.8416 32.8345 13.8264 32.9304 13.8308 33.0265V58.1683C13.8264 58.2644 13.8416 58.3603 13.8754 58.4503C13.9091 58.5403 13.9608 58.6226 14.0273 58.692C14.0937 58.7615 14.1736 58.8168 14.262 58.8545C14.3505 58.8923 14.4456 58.9117 14.5418 58.9116V58.9116ZM27.1127 44.4663C26.6541 44.0484 26.2877 43.5394 26.037 42.9718C25.7864 42.4042 25.6569 41.7906 25.6569 41.1701C25.6569 40.5496 25.7864 39.936 26.037 39.3684C26.2877 38.8008 26.6541 38.2918 27.1127 37.8739V44.4663ZM24.1719 41.1701C24.1773 42.0072 24.3584 42.8338 24.7036 43.5965C25.0487 44.3592 25.5502 45.0408 26.1755 45.5974H20.391C20.2491 45.0884 19.9782 44.6246 19.6045 44.251C19.2309 43.8773 18.7671 43.6064 18.2581 43.4645V38.8433C18.7715 38.7104 19.2401 38.4425 19.6151 38.0675C19.9901 37.6925 20.258 37.2239 20.391 36.7105H26.1755C25.5477 37.272 25.045 37.9591 24.6998 38.7274C24.3547 39.4956 24.1748 40.3279 24.1719 41.1701V41.1701ZM15.285 52.9977H27.1127V54.452H15.285V52.9977ZM27.1127 51.5112H15.285V50.0247H27.1127V51.5112ZM15.285 55.9385H27.1127V57.425H15.285V55.9385ZM28.5992 57.425V50.0247H31.5723V57.425H28.5992ZM33.0265 37.8739C33.4942 38.2863 33.8687 38.7935 34.1252 39.3618C34.3818 39.9302 34.5145 40.5466 34.5145 41.1701C34.5145 41.7936 34.3818 42.41 34.1252 42.9784C33.8687 43.5467 33.4942 44.0539 33.0265 44.4663V37.8739ZM35.9996 41.1701C35.9988 40.3244 35.8167 39.4887 35.4655 38.7194C35.1143 37.9501 34.6021 37.265 33.9637 36.7105H39.7805C39.9135 37.2239 40.1814 37.6925 40.5564 38.0675C40.9314 38.4425 41.4 38.7104 41.9134 38.8433V43.4645C41.4044 43.6064 40.9406 43.8773 40.567 44.251C40.1933 44.6246 39.9224 45.0884 39.7805 45.5974H33.9637C34.5981 45.0464 35.1078 44.3666 35.4588 43.6032C35.8099 42.8398 35.9942 42.0103 35.9996 41.1701V41.1701ZM44.8541 50.0247V51.5112H33.0265V50.0247H44.8541ZM33.0265 52.9977H44.8541V54.452H33.0265V52.9977ZM33.0265 57.425V55.9385H44.8541V57.425H33.0265ZM44.8541 48.5381H33.0265V47.0839H40.4269C40.624 47.0839 40.813 47.0056 40.9524 46.8662C41.0918 46.7268 41.1701 46.5378 41.1701 46.3407C41.1784 45.949 41.3376 45.5757 41.6146 45.2986C41.8917 45.0216 42.265 44.8624 42.6567 44.8541C42.8538 44.8541 43.0428 44.7758 43.1822 44.6364C43.3216 44.497 43.3999 44.308 43.3999 44.1109V38.197C43.3999 37.9999 43.3216 37.8108 43.1822 37.6715C43.0428 37.5321 42.8538 37.4538 42.6567 37.4538C42.2624 37.4538 41.8843 37.2971 41.6055 37.0184C41.3267 36.7396 41.1701 36.3615 41.1701 35.9672C41.1702 35.8711 41.1508 35.7759 41.1131 35.6875C41.0754 35.599 41.0201 35.5192 40.9506 35.4527C40.8811 35.3863 40.7989 35.3346 40.7089 35.3008C40.6188 35.2671 40.5229 35.2519 40.4269 35.2563H33.0265V33.7697H44.8541V48.5381ZM31.5723 33.7697V48.5381H28.5992V33.7697H31.5723ZM15.285 33.7697H27.1127V35.2563H19.7446C19.6486 35.2519 19.5527 35.2671 19.4626 35.3008C19.3726 35.3346 19.2904 35.3863 19.2209 35.4527C19.1514 35.5192 19.0961 35.599 19.0584 35.6875C19.0207 35.7759 19.0013 35.8711 19.0014 35.9672C19.0014 36.3615 18.8448 36.7396 18.566 37.0184C18.2872 37.2971 17.9091 37.4538 17.5148 37.4538C17.3177 37.4538 17.1287 37.5321 16.9893 37.6715C16.8499 37.8108 16.7716 37.9999 16.7716 38.197V44.1109C16.7716 44.308 16.8499 44.497 16.9893 44.6364C17.1287 44.7758 17.3177 44.8541 17.5148 44.8541C17.9065 44.8624 18.2798 45.0216 18.5568 45.2986C18.8339 45.5757 18.9931 45.949 19.0014 46.3407C19.0014 46.5378 19.0797 46.7268 19.2191 46.8662C19.3585 47.0056 19.5475 47.0839 19.7446 47.0839H27.1127V48.5381H15.285V33.7697Z" fill="#FA9D1C"/>
</g>
<path id="Path" d="M20.4561 40.4277H21.9426V41.9143H20.4561V40.4277Z" fill="#FA9D1C"/>
<path id="Path_2" d="M38.2295 40.4277H39.6837V41.9143H38.2295V40.4277Z" fill="#FA9D1C"/>
</g>
</g>
</g>
<defs>
<clipPath id="clip0_381_16618">
<rect width="37466" height="25129" fill="white" transform="translate(-5230 -1440)"/>
</clipPath>
<clipPath id="clip1_381_16618">
<rect width="360" height="780" fill="white" transform="translate(-72 -201)"/>
</clipPath>
<clipPath id="clip2_381_16618">
<rect width="72" height="72" fill="white"/>
</clipPath>
</defs>
</svg>
