<svg width="512" height="512" xmlns="http://www.w3.org/2000/svg">

 <g>
  <title>background</title>
  <rect fill="none" id="canvas_background" height="506.123" width="506.123" y="-1" x="-1"/>
 </g>
 <g>
  <title>Layer 1</title>
  <path id="svg_1" fill="#415A6B" d="m361.6,126.933c0,65.067 -50.133,157.867 -112,157.867s-113.067,-92.8 -113.067,-157.867c0,-93.866 50.134,-126.933 112,-126.933c62.934,0 113.067,33.067 113.067,126.933z"/>
  <g id="svg_2">
   <path id="svg_3" fill="#FFD15C" d="m266.667,66.133c-20.267,28.8 -52.267,50.133 -97.067,50.133c-4.267,0 -8.533,0 -12.8,-1.067c-6.4,17.067 -9.6,36.267 -9.6,55.467c0,73.6 45.867,133.333 101.333,133.333s101.333,-59.733 101.333,-133.333c0,-27.733 -6.4,-54.4 -18.133,-75.733c-26.666,-3.2 -49.066,-13.866 -65.066,-28.8z"/>
   <path id="svg_4" fill="#FFD15C" d="m369.067,179.2c-3.2,22.4 -14.933,38.4 -26.667,35.2c-11.733,-2.133 -18.133,-22.4 -14.933,-44.8s14.933,-38.4 26.667,-35.2c11.733,2.133 18.133,22.4 14.933,44.8z"/>
   <path id="svg_5" fill="#FFD15C" d="m129.067,179.2c3.2,22.4 14.933,38.4 26.667,35.2s18.133,-22.4 14.933,-44.8s-14.934,-38.4 -26.667,-35.2c-11.733,2.133 -18.133,22.4 -14.933,44.8z"/>
  </g>
  <g id="svg_6">
   <path id="svg_7" fill="#415A6B" d="m164.267,323.2l84.266,188.8l-248.533,0c0,-115.2 68.267,-170.667 164.267,-188.8z"/>
   <path id="svg_8" fill="#415A6B" d="m498.133,512l-249.6,0l84.267,-188.8c97.067,18.133 165.333,73.6 165.333,188.8z"/>
  </g>
  <path id="svg_9" fill="#F3F3F3" d="m248.533,315.733c-29.867,0 -58.667,2.133 -84.267,7.467l84.267,188.8l84.267,-188.8c-25.6,-5.333 -54.4,-7.467 -84.267,-7.467z"/>
  <g id="svg_10">
   <polygon id="svg_11" fill="#ff7f00" points="263.467,370.133 281.6,349.867 248.533,315.733 216.533,349.867 234.667,370.133  "/>
   <polygon id="svg_12" fill="#ff7f00" points="218.667,443.733 248.533,512 279.467,443.733 263.467,370.133 234.667,370.133  "/>
  </g>
  <circle id="svg_13" fill="#F3705A" r="109.867" cy="402.133" cx="402.133"/>
  <path id="svg_14" fill="#F3F3F3" d="m476.8,402.133c0,10.667 -8.533,19.2 -18.133,19.2l-37.333,0l0,37.333c0,10.667 -8.533,18.133 -18.133,18.133c-10.667,0 -18.133,-8.533 -18.133,-18.133l0,-37.333l-37.333,0c-10.667,0 -18.133,-8.533 -18.133,-19.2c0,-10.667 8.533,-18.133 18.133,-18.133l37.333,0l0,-37.333c0,-10.667 8.533,-19.2 18.133,-19.2c10.667,0 18.133,8.533 18.133,19.2l0,37.333l37.333,0c9.6,-1.067 18.133,7.467 18.133,18.133z"/>
  <g id="svg_15"/>
  <g id="svg_16"/>
  <g id="svg_17"/>
  <g id="svg_18"/>
  <g id="svg_19"/>
  <g id="svg_20"/>
  <g id="svg_21"/>
  <g id="svg_22"/>
  <g id="svg_23"/>
  <g id="svg_24"/>
  <g id="svg_25"/>
  <g id="svg_26"/>
  <g id="svg_27"/>
  <g id="svg_28"/>
  <g id="svg_29"/>
 </g>
</svg>