<svg height="480pt" viewBox="-24 0 480 480" width="480pt" xmlns="http://www.w3.org/2000/svg"><path d="m8 432h176v8c0 17.601562 14.398438 32 32 32h-168c-22.398438 0-40-17.601562-40-40zm0 0" fill="#b4b4b5"/><path d="m24 432v-408c0-8.800781 7.199219-16 16-16h192c8.800781 0 16 7.199219 16 16v416c0 17.601562-14.398438 32-32 32s-32-14.398438-32-32v-8zm0 0" fill="#e9e9e9"/><path d="m216 312c0 44.183594-35.816406 80-80 80s-80-35.816406-80-80 35.816406-80 80-80 80 35.816406 80 80zm0 0" fill="#f4b12a"/><g fill="#bfbfbf"><path d="m104 32h64v16h-64zm0 0"/><path d="m56 64h112v16h-112zm0 0"/><path d="m184 64h32v16h-32zm0 0"/><path d="m56 96h112v16h-112zm0 0"/><path d="m184 96h32v16h-32zm0 0"/><path d="m56 128h112v16h-112zm0 0"/><path d="m184 128h32v16h-32zm0 0"/><path d="m56 160h112v16h-112zm0 0"/><path d="m184 160h32v16h-32zm0 0"/><path d="m56 192h112v16h-112zm0 0"/><path d="m184 192h32v16h-32zm0 0"/></g><path d="m272 72h152v336h-152zm0 0" fill="#2f5989"/><path d="m272 112h120v64h-120" fill="#54c162"/><path d="m280 208h40v32h-40zm0 0" fill="#183956"/><path d="m352 208h40v32h-40zm0 0" fill="#183956"/><path d="m280 272h40v32h-40zm0 0" fill="#183956"/><path d="m352 272h40v32h-40zm0 0" fill="#183956"/><path d="m280 336h40v32h-40zm0 0" fill="#183956"/><path d="m352 336h40v32h-40zm0 0" fill="#183956"/><path d="m160 288v-8c0-8.800781-7.199219-16-16-16v-8h-16v8c-8.800781 0-16 7.199219-16 16v24c0 8.800781 7.199219 16 16 16h16v24h-16v-8h-16v8c0 8.800781 7.199219 16 16 16v8h16v-8c8.800781 0 16-7.199219 16-16v-24c0-8.800781-7.199219-16-16-16h-16v-24h16v8zm0 0" fill="#d38d1c"/><path d="m128 360v8h16v-8c8.800781 0 16-7.199219 16-16v-24c0-8.800781-7.199219-16-16-16h-16v-24h16v8h16v-8c0-8.800781-7.199219-16-16-16v-8h-16v8c-8.800781 0-16 7.199219-16 16v24c0 8.800781 7.199219 16 16 16h16v24h-16v-8h-16v8c0 8.800781 7.199219 16 16 16zm0 0"/><path d="m136 400c48.800781 0 88-39.199219 88-88s-39.199219-88-88-88-88 39.199219-88 88 39.199219 88 88 88zm0-160c40 0 72 32 72 72s-32 72-72 72-72-32-72-72 32-72 72-72zm0 0"/><path d="m104 32h64v16h-64zm0 0"/><path d="m232 0h-192c-13.601562 0-24 10.398438-24 24v384h16v-384c0-4.800781 3.199219-8 8-8h192c4.800781 0 8 3.199219 8 8v416c0 13.601562-10.398438 24-24 24s-24-10.398438-24-24v-16h-192v8c0 26.398438 21.601562 48 48 48h168c22.398438 0 40-17.601562 40-40v-416c0-13.601562-10.398438-24-24-24zm-184 464c-14.398438 0-27.199219-9.601562-31.199219-24h159.199219c0 8.800781 3.199219 16.800781 8 24zm0 0"/><path d="m56 64h112v16h-112zm0 0"/><path d="m184 64h32v16h-32zm0 0"/><path d="m56 96h112v16h-112zm0 0"/><path d="m184 96h32v16h-32zm0 0"/><path d="m56 128h112v16h-112zm0 0"/><path d="m184 128h32v16h-32zm0 0"/><path d="m56 160h112v16h-112zm0 0"/><path d="m184 160h32v16h-32zm0 0"/><path d="m56 192h112v16h-112zm0 0"/><path d="m184 192h32v16h-32zm0 0"/><path d="m272 64v16h144v320h-144v16h160v-352zm0 0"/><path d="m400 104h-128v16h112v48h-112v16h128zm0 0"/><path d="m328 200h-56v48h56zm-16 32h-24v-16h24zm0 0"/><path d="m400 200h-56v48h56zm-16 32h-24v-16h24zm0 0"/><path d="m328 264h-56v48h56zm-16 32h-24v-16h24zm0 0"/><path d="m400 264h-56v48h56zm-16 32h-24v-16h24zm0 0"/><path d="m328 328h-56v48h56zm-16 32h-24v-16h24zm0 0"/><path d="m344 376h56v-48h-56zm16-32h24v16h-24zm0 0"/></svg>