<svg width="512" height="512" xmlns="http://www.w3.org/2000/svg">
 <g>
  <title>background</title>
  <rect x="-1" y="-1" width="514" height="514" id="canvas_background" fill="none"/>
 </g>

 <g>
  <title>Layer 1</title>
  <path d="m512,402.282c0,16.716 -13.55,30.267 -30.265,30.267l-451.47,0c-16.715,0 -30.265,-13.553 -30.265,-30.267l0,-292.565c0,-16.715 13.55,-30.266 30.265,-30.266l451.469,0c16.716,0 30.265,13.551 30.265,30.266l0.001,292.565l0,0z" fill="#5b5b5b" id="svg_1" stroke="#0099DF"/>
  <path d="m21.517,402.282l0,-292.565c0,-16.715 13.552,-30.266 30.267,-30.266l-21.52,0c-16.714,0 -30.264,13.552 -30.264,30.266l0,292.565c0,16.716 13.55,30.267 30.265,30.267l21.52,0c-16.715,0 -30.268,-13.553 -30.268,-30.267z" fill="#202121" opacity="0.15" id="svg_2"/>
  <path d="m383.687,317.570973c0,-18.028 8.304,-34.115 21.296,-44.649c-9.872,-8.005 -22.455,-12.806 -36.156,-12.806c-31.731,0 -57.45,25.722 -57.45,57.454c0,31.731 25.719,57.451 57.45,57.451c13.703,0 26.284,-4.798 36.156,-12.806c-12.992,-10.531 -21.296,-26.617 -21.296,-44.644z" fill="#EA001B" id="svg_3"/>
  <path d="m441.14,260.116973c-13.703,0 -26.28,4.801 -36.156,12.806c12.994,10.534 21.298,26.621 21.298,44.649c0,18.027 -8.304,34.113 -21.298,44.645c9.876,8.007 22.455,12.806 36.156,12.806c31.733,0 57.452,-25.72 57.452,-57.451c0,-31.733 -25.721,-57.455 -57.452,-57.455z" fill="#F79F1A" id="svg_4"/>
  <path d="m426.281,317.570973c0,-18.028 -8.304,-34.115 -21.298,-44.649c-12.991,10.534 -21.296,26.621 -21.296,44.649c0,18.027 8.304,34.113 21.296,44.645c12.993,-10.532 21.298,-26.618 21.298,-44.645z" fill="#FF5F01" id="svg_5"/>
  <path d="m165.843,283.772028c0,4.037 -3.276,7.308 -7.308,7.308l-90.683,0c-4.037,0 -7.308,-3.271 -7.308,-7.308l0,-70.667c0,-4.037 3.272,-7.307 7.308,-7.307l90.683,0c4.033,0 7.308,3.27 7.308,7.307l0,70.667l0,0z" fill="#FFC715" id="svg_6"/>
  <g id="svg_7">
   <path d="m166.843,331.106l-106.3,0c-4.611,0 -8.348,-3.738 -8.348,-8.348c0,-4.611 3.736,-8.348 8.348,-8.348l106.3,0c4.611,0 8.348,3.736 8.348,8.348c0,4.61 -3.737,8.348 -8.348,8.348z" fill="#d1d1d1" id="svg_8"/>
   <path d="m260.055797,365.919l-192.725584,0c-8.359903,0 -15.135213,-3.736 -15.135213,-8.348c0,-4.611 6.773497,-8.348 15.135213,-8.348l192.725584,0c8.359903,0 15.135213,3.736 15.135213,8.348c0,4.611 -6.775311,8.348 -15.135213,8.348z" fill="#d1d1d1" id="svg_9" stroke="null"/>
  </g>
  <g id="svg_10">
   <polygon points="88.89299774169922,291.08101654052734 105.58899688720703,291.08101654052734 105.58899688720703,282.73302459716797 105.58899688720703,214.14502716064453 105.58899688720703,205.7970199584961 88.89299774169922,205.7970199584961 88.89299774169922,214.14502716064453 88.89299774169922,225.8750228881836 68.89099884033203,225.8750228881836 60.542999267578125,225.8750228881836 60.542999267578125,242.5710220336914 68.89099884033203,242.5710220336914 88.89299774169922,242.5710220336914 88.89299774169922,254.3070297241211 68.89099884033203,254.3070297241211 60.542999267578125,254.3070297241211 60.542999267578125,271.0020217895508 68.89099884033203,271.0020217895508 88.89299774169922,271.0020217895508 88.89299774169922,282.73302459716797 " fill="#FFA617" id="svg_11"/>
   <path d="m157.496,242.571028l8.348,0l0,-16.696l-8.348,0l-15.92,0l0,-11.73l0,-8.348l-16.696,0l0,8.348l0,48.509c0,4.61 3.736,8.348 8.348,8.348l24.268,0l8.348,0l0,-16.696l-8.348,0l-15.92,0l0,-11.735l15.92,0z" fill="#FFA617" id="svg_12"/>
  </g>
  <path d="m75.92,283.772028l0,-70.667c0,-4.037 3.271,-7.307 7.308,-7.307l-15.376,0c-4.037,0 -7.308,3.27 -7.308,7.307l0,70.667c0,4.037 3.272,7.308 7.308,7.308l15.377,0c-4.038,0.001 -7.309,-3.271 -7.309,-7.308z" fill="#202121" opacity="0.15" id="svg_13"/>
  <g id="svg_14"/>
  <g id="svg_15"/>
  <g id="svg_16"/>
  <g id="svg_17"/>
  <g id="svg_18"/>
  <g id="svg_19"/>
  <g id="svg_20"/>
  <g id="svg_21"/>
  <g id="svg_22"/>
  <g id="svg_23"/>
  <g id="svg_24"/>
  <g id="svg_25"/>
  <g id="svg_26"/>
  <g id="svg_27"/>
  <g id="svg_28"/>
  <path fill="#00bf00" stroke-width="null" d="m319.557318,362.892615l43.832447,-43.832447l46.562529,46.562147l46.562529,-46.562147l43.832859,43.832447l-46.562541,46.562529l46.562541,46.562529l-43.832859,43.832859l-46.562529,-46.562541l-46.562529,46.562541l-43.832447,-43.832859l46.562147,-46.562529l-46.562147,-46.562529z" id="svg_29" transform="rotate(45 409.95251464843767,409.45535278320307) " stroke="#00bf00"/>
  <ellipse fill="#d6d9db" stroke="#bfbfbf" stroke-width="null" cx="406.601074" cy="156.6875" id="svg_31" rx="55.5" ry="55.5"/>
  <text fill="#161616" stroke-width="0" stroke-opacity="null" x="305.072125" y="169.350323" id="svg_30" font-size="84" font-family="Helvetica, Arial, sans-serif" text-anchor="start" xml:space="preserve" font-weight="bold" transform="matrix(1.4643165479592568,0,0,1.4216151242004715,-85.22939624300923,-41.97553127008894) " stroke="#0099DF">C</text>
 </g>
</svg>