<svg width="512" height="512" xmlns="http://www.w3.org/2000/svg">

 <g>
  <title>background</title>
  <rect fill="none" id="canvas_background" height="402" width="582" y="-1" x="-1"/>
 </g>
 <g>
  <title>Layer 1</title>
  <path id="svg_1" fill="#eaea88" d="m332.8,443.733l0,-59.733l-324.267,0l0,59.733c0,32.99 26.743,59.733 59.733,59.733l0,0l324.267,0c-32.99,0.001 -59.733,-26.743 -59.733,-59.733l0,0z"/>
  <path id="svg_2" fill="#ffffaa" d="m187.733,8.533c-32.99,0 -59.733,26.744 -59.733,59.734l0,315.733l204.8,0l0,59.733c0,32.99 26.743,59.733 59.733,59.733s59.733,-26.743 59.733,-59.733l0,0l0,-375.466c0,-32.99 26.743,-59.733 59.733,-59.733l-324.266,0l0,-0.001z"/>
  <path id="svg_3" d="m187.733,0c-37.683,0.043 -68.224,30.583 -68.267,68.267l0,307.2l-110.933,0c-4.71,0 -8.533,3.823 -8.533,8.533l0,59.733c0.043,37.684 30.583,68.224 68.267,68.267l332.8,0l0,-0.529c34.108,-4.343 59.691,-33.348 59.733,-67.738l0,-375.466c0.034,-28.262 22.938,-51.166 51.2,-51.2l0,-17.067l-324.267,0zm-119.466,494.933c-28.262,-0.034 -51.166,-22.938 -51.2,-51.2l0,-51.2l307.2,0l0,51.2c-0.009,19.601 8.431,38.263 23.159,51.2l-279.159,0zm375.466,-426.666l0,375.467c0,28.279 -22.921,51.2 -51.2,51.2s-51.2,-22.921 -51.2,-51.2l0,-59.734c0,-4.71 -3.823,-8.533 -8.533,-8.533l-196.267,0l0,-307.2c0.034,-28.262 22.938,-51.166 51.2,-51.2l279.262,0c-14.771,12.919 -23.253,31.582 -23.262,51.2z"/>
  <rect id="svg_4" height="17.067" width="170.667" y="34.133" x="204.8"/>
  <rect id="svg_5" height="17.067" width="273.067" y="68.267" x="153.6"/>
  <rect id="svg_6" height="17.067" width="85.333" y="119.467" x="170.667"/>
  <rect id="svg_7" height="17.067" width="68.267" y="153.6" x="170.667"/>
  <rect id="svg_8" height="17.067" width="102.4" y="187.733" x="170.667"/>
  <rect id="svg_9" height="17.067" width="51.2" y="221.867" x="170.667"/>
  <rect id="svg_10" height="17.067" width="85.333" y="256" x="170.667"/>
  <rect id="svg_11" height="17.067" width="34.133" y="119.467" x="375.467"/>
  <rect id="svg_12" height="17.067" width="34.133" y="153.6" x="375.467"/>
  <rect id="svg_13" height="17.067" width="34.133" y="187.733" x="375.467"/>
  <rect id="svg_14" height="17.067" width="34.133" y="221.867" x="375.467"/>
  <rect id="svg_15" height="17.067" width="34.133" y="256" x="375.467"/>
  <rect id="svg_17" height="17.067" width="136.533" y="341.333" x="170.667"/>
  <rect id="svg_18" height="17.067" width="136.533" y="307.2" x="170.667"/>
  <g id="svg_19"/>
  <g id="svg_20"/>
  <g id="svg_21"/>
  <g id="svg_22"/>
  <g id="svg_23"/>
  <g id="svg_24"/>
  <g id="svg_25"/>
  <g id="svg_26"/>
  <g id="svg_27"/>
  <g id="svg_28"/>
  <g id="svg_29"/>
  <g id="svg_30"/>
  <g id="svg_31"/>
  <g id="svg_32"/>
  <g id="svg_33"/>
  <text stroke="null" transform="matrix(3.1058549107723987,0,0,5.045190739448205,-850.3384306049962,-1444.4494382008556) " font-weight="bold" xml:space="preserve" text-anchor="start" font-family="Helvetica, Arial, sans-serif" font-size="24" id="svg_34" y="360.550078" x="382.948092" fill-opacity="null" stroke-opacity="null" stroke-width="0" fill="#000000">Rp</text>
 </g>
</svg>