<svg width="48" height="48" viewBox="0 0 48 48" fill="none" xmlns="http://www.w3.org/2000/svg">
<rect width="48" height="48" rx="14" fill="#FF881B"/>
<path fill-rule="evenodd" clip-rule="evenodd" d="M15.81 14H24.191C27.28 14 29 15.78 29 18.83V29.16C29 32.26 27.28 34 24.191 34H15.81C12.77 34 11 32.26 11 29.16V18.83C11 15.78 12.77 14 15.81 14ZM16.0808 18.6604V18.6504H19.0698C19.5008 18.6504 19.8508 19.0004 19.8508 19.4294C19.8508 19.8704 19.5008 20.2204 19.0698 20.2204H16.0808C15.6498 20.2204 15.3008 19.8704 15.3008 19.4404C15.3008 19.0104 15.6498 18.6604 16.0808 18.6604ZM16.0808 24.7407H23.9208C24.3508 24.7407 24.7008 24.3907 24.7008 23.9607C24.7008 23.5307 24.3508 23.1797 23.9208 23.1797H16.0808C15.6498 23.1797 15.3008 23.5307 15.3008 23.9607C15.3008 24.3907 15.6498 24.7407 16.0808 24.7407ZM16.0809 29.3104H23.9209C24.3199 29.2704 24.6209 28.9294 24.6209 28.5304C24.6209 28.1204 24.3199 27.7804 23.9209 27.7404H16.0809C15.7809 27.7104 15.4909 27.8504 15.3309 28.1104C15.1709 28.3604 15.1709 28.6904 15.3309 28.9504C15.4909 29.2004 15.7809 29.3504 16.0809 29.3104Z" fill="white"/>
<path d="M36.0426 21.9314L36.0426 21.9298C36.0256 20.9791 35.2456 20.2097 34.2977 20.217L32.5737 20.2303C31.6132 20.2378 30.8454 21.0191 30.8547 21.9795L30.8548 21.9814L30.8701 22.8746C30.8701 22.875 30.8701 22.8753 30.8701 22.8757C30.8733 23.1457 31.0996 23.3677 31.3697 23.3656L31.3705 23.3656L31.3678 23.1156L31.3705 23.3656L31.3706 23.3656L31.3709 23.3656L31.372 23.3656L31.3765 23.3655L31.3942 23.3653L31.461 23.3646L31.7002 23.3621C31.8983 23.3601 32.1628 23.3574 32.4289 23.3549C32.6949 23.3525 32.9622 23.3502 33.1658 23.3489C33.2676 23.3483 33.3531 23.3479 33.4144 23.3479C33.4452 23.3479 33.4692 23.348 33.4859 23.3481C33.4914 23.3482 33.4955 23.3482 33.4983 23.3483L33.4989 23.3484L33.5112 23.3488C33.6058 23.3522 33.6982 23.388 33.7711 23.4597C33.9158 23.6018 33.9207 23.8347 33.7765 23.9814C33.7127 24.0464 33.6238 24.0812 33.5424 24.0822C33.5424 24.0822 33.5423 24.0822 33.5423 24.0822L31.3315 24.1059L31.3334 24.3559L31.3308 24.1059L31.331 24.1059C31.0869 24.1081 30.8841 24.3146 30.8865 24.5588L30.948 30.8845C30.9528 31.3858 31.1476 31.8639 31.5008 32.2262C31.5009 32.2263 31.5011 32.2264 31.5012 32.2266L33.0479 33.8253L33.0478 33.8253L33.0523 33.8297C33.1761 33.9514 33.3435 34.0398 33.5425 34.0383C33.7285 34.0368 33.9041 33.9624 34.0358 33.8284L35.5789 32.2582C35.941 31.8897 36.1403 31.3943 36.1428 30.8735L36.1428 30.8735L36.1428 30.8695L36.0426 21.9314Z" fill="white" stroke="#FF881B" stroke-width="0.5"/>
</svg>
