<svg width="48" height="48" viewBox="0 0 48 48" fill="none" xmlns="http://www.w3.org/2000/svg">
<rect opacity="0.2" width="48" height="48" rx="14" fill="#FA9D1C"/>
<path fill-rule="evenodd" clip-rule="evenodd" d="M12.3334 23.9992C12.3334 17.5604 17.5601 12.3325 24.0001 12.3325C30.4518 12.3325 35.6668 17.5604 35.6668 23.9992C35.6668 30.4404 30.4518 35.6659 24.0001 35.6659C17.5601 35.6659 12.3334 30.4404 12.3334 23.9992ZM22.9734 19.5775C22.9734 19.0187 23.4401 18.5509 24.0001 18.5509C24.5601 18.5509 25.0151 19.0187 25.0151 19.5775V24.7342C25.0151 25.2954 24.5601 25.7492 24.0001 25.7492C23.4401 25.7492 22.9734 25.2954 22.9734 24.7342V19.5775ZM24.0118 29.4604C23.4401 29.4604 22.9851 28.9937 22.9851 28.4337C22.9851 27.8737 23.4401 27.4187 24.0001 27.4187C24.5718 27.4187 25.0268 27.8737 25.0268 28.4337C25.0268 28.9937 24.5718 29.4604 24.0118 29.4604Z" fill="#FA9D1C"/>
</svg>
