<svg width="48" height="48" viewBox="0 0 48 48" fill="none" xmlns="http://www.w3.org/2000/svg">
<rect opacity="0.2" width="48" height="48" rx="14" fill="#FA9D1C"/>
<path fill-rule="evenodd" clip-rule="evenodd" d="M30.0431 15.145C30.0431 13.5933 31.3031 12.3333 32.8548 12.3333C34.4065 12.3333 35.6665 13.5933 35.6665 15.145C35.6665 16.6967 34.4065 17.9567 32.8548 17.9567C31.3031 17.9567 30.0431 16.6967 30.0431 15.145ZM25.5513 27.2192L28.923 22.8687L28.8763 22.892C29.063 22.6354 29.098 22.3087 28.9697 22.017C28.8425 21.7254 28.5613 21.527 28.2592 21.5037C27.943 21.4687 27.6292 21.6087 27.4413 21.8654L24.6192 25.517L21.3863 22.9737C21.188 22.822 20.9547 22.7625 20.7213 22.787C20.4892 22.822 20.2792 22.9492 20.138 23.1359L16.6858 27.6287L16.6147 27.7337C16.4163 28.1059 16.5097 28.5842 16.8597 28.842C17.023 28.947 17.198 29.017 17.3963 29.017C17.6658 29.0287 17.9213 28.8875 18.0847 28.667L21.013 24.8975L24.338 27.3954L24.443 27.4642C24.8163 27.6625 25.283 27.5704 25.5513 27.2192ZM28.0247 14.4104C27.978 14.702 27.9547 14.9937 27.9547 15.2854C27.9547 17.9104 30.078 20.0325 32.6913 20.0325C32.983 20.0325 33.263 19.9987 33.5547 19.952V29.3659C33.5547 33.322 31.2213 35.667 27.2547 35.667H18.6342C14.6663 35.667 12.333 33.322 12.333 29.3659V20.7337C12.333 16.767 14.6663 14.4104 18.6342 14.4104H28.0247Z" fill="#FA9D1C"/>
</svg>
