<svg width="48" height="48" viewBox="0 0 48 48" fill="none" xmlns="http://www.w3.org/2000/svg">
<rect width="48" height="48" rx="14" fill="#FF881B"/>
<path d="M34.6094 27.5043L29.2526 33.4102C28.5484 34.209 27.5173 34.6446 26.4107 34.6446H18.3629L16.9796 36L12 31.3285L15.5712 27.9156C17.055 26.5118 19.2431 26.0277 21.2047 26.6812L21.9843 26.9475H26.813C27.668 26.9475 28.3471 27.6252 28.322 28.4481C28.297 29.2469 27.5675 29.8762 26.7376 29.8762H23.8455C23.5185 29.8762 23.2671 30.1424 23.2671 30.4328C23.2671 30.7475 23.5437 30.9895 23.8455 30.9895H26.7629C28.2466 30.9895 29.479 29.8519 29.5294 28.4723V28.4482L32.2205 25.5437C32.7989 24.9144 33.7797 24.8175 34.4588 25.3259C35.1124 25.8825 35.1878 26.8751 34.6094 27.5043Z" fill="white"/>
<rect x="17" y="12" width="13" height="13" rx="6.5" fill="white"/>
<path fill-rule="evenodd" clip-rule="evenodd" d="M25.1324 17.1249C25.1324 17.9803 24.4466 18.6661 23.5906 18.6661C22.7349 18.6661 22.0488 17.9803 22.0488 17.1249C22.0488 16.2696 22.7349 15.584 23.5906 15.584C24.4466 15.584 25.1324 16.2696 25.1324 17.1249ZM23.5896 21.4089C22.3264 21.4089 21.2598 21.2036 21.2598 20.4114C21.2598 19.6189 22.3331 19.4209 23.5896 19.4209C24.8532 19.4209 25.9195 19.6262 25.9195 20.4184C25.9195 21.2108 24.8462 21.4089 23.5896 21.4089Z" fill="#FF881B"/>
</svg>
