<svg width="72" height="72" viewBox="0 0 72 72" fill="none" xmlns="http://www.w3.org/2000/svg">
<path opacity="0.1" d="M58.6858 0H13.3142C5.96096 0 0 5.96096 0 13.3142V58.6826C0 66.0358 5.96096 71.9967 13.3142 71.9967H58.6858C66.039 71.9967 72 66.0358 72 58.6826V13.3142C72 5.96096 66.039 0 58.6858 0Z" fill="#FA9D1C"/>
<path d="M53.5475 19.3252H18.4523C17.1466 19.3422 15.9007 19.8751 14.9865 20.8075C14.0722 21.7399 13.564 22.9961 13.5726 24.3019V44.9841C13.564 46.2899 14.0722 47.5461 14.9865 48.4784C15.9007 49.4108 17.1466 49.9437 18.4523 49.9607H53.5475C54.8532 49.9437 56.0992 49.4108 57.0134 48.4784C57.9276 47.5461 58.4359 46.2899 58.4272 44.9841V24.3019C58.4359 22.9961 57.9276 21.7399 57.0134 20.8075C56.0992 19.8751 54.8532 19.3422 53.5475 19.3252ZM15.964 33.0272H56.0358V44.9841C56.0445 45.6557 55.7882 46.3037 55.3225 46.7876C54.8567 47.2715 54.219 47.5524 53.5475 47.5694H18.4523C18.1185 47.5652 17.7889 47.4948 17.4825 47.3622C17.1762 47.2296 16.8992 47.0374 16.6677 46.7969C16.4362 46.5564 16.2548 46.2723 16.134 45.9611C16.0132 45.6499 15.9554 45.3178 15.964 44.9841V33.0272ZM56.0358 24.9805H15.964V24.3019C15.9554 23.9697 16.0134 23.6392 16.1345 23.3298C16.2557 23.0204 16.4376 22.7384 16.6696 22.5004C16.9015 22.2625 17.1787 22.0734 17.4849 21.9443C17.7911 21.8152 18.12 21.7488 18.4523 21.7489H53.5475C53.8785 21.7531 54.2055 21.8225 54.5097 21.9531C54.8139 22.0837 55.0894 22.2729 55.3205 22.51C55.5515 22.747 55.7336 23.0273 55.8564 23.3348C55.9791 23.6422 56.0401 23.9708 56.0358 24.3019V24.9805ZM15.964 27.3719H56.0358V30.6035H15.964V27.3719Z" fill="#FA9D1C"/>
<path d="M20.2943 40.5565H31.3787C31.6662 40.5094 31.9275 40.3617 32.1161 40.1397C32.3047 39.9177 32.4082 39.636 32.4082 39.3447C32.4082 39.0534 32.3047 38.7716 32.1161 38.5497C31.9275 38.3277 31.6662 38.1799 31.3787 38.1328H20.2943C20.0069 38.1799 19.7456 38.3277 19.557 38.5497C19.3684 38.7716 19.2649 39.0534 19.2649 39.3447C19.2649 39.636 19.3684 39.9177 19.557 40.1397C19.7456 40.3617 20.0069 40.5094 20.2943 40.5565Z" fill="#FA9D1C"/>
<path d="M20.2944 44.3054H31.3788C31.6959 44.3054 32 44.1795 32.2243 43.9552C32.4485 43.731 32.5745 43.4269 32.5745 43.1098C32.5663 42.7952 32.4377 42.4958 32.2152 42.2733C31.9927 42.0508 31.6933 41.9222 31.3788 41.9141H20.2944C19.983 41.9225 19.6871 42.0522 19.4698 42.2755C19.2525 42.4988 19.131 42.7982 19.1311 43.1098C19.1267 43.2652 19.1536 43.42 19.2102 43.5649C19.2667 43.7098 19.3517 43.8419 19.4602 43.9534C19.5686 44.0648 19.6983 44.1534 19.8416 44.2139C19.9849 44.2744 20.1389 44.3055 20.2944 44.3054Z" fill="#FA9D1C"/>
<path d="M47.9891 44.305H49.8311C50.2328 44.305 50.6304 44.2254 51.0011 44.0707C51.3718 43.916 51.7081 43.6894 51.9906 43.4039C52.2731 43.1184 52.4962 42.7797 52.6469 42.4074C52.7977 42.0351 52.8731 41.6366 52.8688 41.235V39.3606C52.8731 38.9575 52.7979 38.5574 52.6476 38.1833C52.4972 37.8092 52.2746 37.4684 51.9925 37.1803C51.7105 36.8922 51.3744 36.6625 51.0035 36.5043C50.6327 36.3461 50.2343 36.2625 49.8311 36.2583H47.9891C47.1776 36.2752 46.405 36.6095 45.8371 37.1895C45.2692 37.7695 44.9512 38.5489 44.9514 39.3606V41.235C44.9514 42.0436 45.2704 42.8196 45.8391 43.3945C46.4079 43.9693 47.1805 44.2965 47.9891 44.305ZM47.3428 39.3606C47.3384 39.2731 47.3519 39.1856 47.3824 39.1034C47.4129 39.0212 47.4598 38.9461 47.5203 38.8826C47.5807 38.8191 47.6535 38.7686 47.7341 38.7341C47.8147 38.6996 47.9015 38.6819 47.9891 38.682H49.8311C50.0111 38.682 50.1837 38.7535 50.311 38.8808C50.4383 39.008 50.5098 39.1807 50.5098 39.3606V41.235C50.5098 41.4149 50.4383 41.5876 50.311 41.7148C50.1837 41.8421 50.0111 41.9136 49.8311 41.9136H47.9891C47.8148 41.9053 47.6504 41.8301 47.53 41.7038C47.4096 41.5774 47.3426 41.4095 47.3428 41.235V39.3606Z" fill="#FA9D1C"/>
</svg>
