<svg width="72" height="72" viewBox="0 0 72 72" fill="none" xmlns="http://www.w3.org/2000/svg">
<path opacity="0.1" d="M58.6858 0H13.3142C5.96096 0 0 5.96096 0 13.3142V58.6826C0 66.0358 5.96096 71.9968 13.3142 71.9968H58.6858C66.039 71.9968 72 66.0358 72 58.6826V13.3142C72 5.96096 66.039 0 58.6858 0Z" fill="#FA9D1C"/>
<path d="M43.7559 28.0504C43.7495 28.3983 43.8472 28.74 44.0365 29.0319C44.2258 29.3238 44.498 29.5524 44.8181 29.6885C45.1383 29.8246 45.4918 29.8618 45.8333 29.7955C46.1748 29.7292 46.4886 29.5624 46.7346 29.3164C46.9806 29.0704 47.1475 28.7565 47.2138 28.4151C47.2801 28.0736 47.2428 27.72 47.1067 27.3999C46.9706 27.0797 46.742 26.8076 46.4501 26.6183C46.1582 26.429 45.8165 26.3313 45.4687 26.3377C45.017 26.346 44.5862 26.5291 44.2667 26.8485C43.9473 27.1679 43.7642 27.5988 43.7559 28.0504ZM46.0503 28.0504C46.0503 28.1655 46.0162 28.278 45.9523 28.3736C45.8884 28.4693 45.7975 28.5438 45.6913 28.5879C45.585 28.6319 45.468 28.6434 45.3552 28.621C45.2423 28.5985 45.1387 28.5431 45.0573 28.4618C44.976 28.3804 44.9206 28.2768 44.8981 28.1639C44.8757 28.0511 44.8872 27.9341 44.9312 27.8278C44.9753 27.7216 45.0498 27.6307 45.1455 27.5668C45.2411 27.5029 45.3536 27.4688 45.4687 27.4688C45.6229 27.4688 45.7709 27.53 45.88 27.6391C45.9891 27.7482 46.0503 27.8962 46.0503 28.0504Z" fill="#FA9D1C"/>
<path d="M57.6518 22.589L39.167 16.6751C39.018 16.6428 38.8637 16.6428 38.7146 16.6751L20.2299 22.589C20.0879 22.6464 19.9661 22.7445 19.8799 22.8711C19.7936 22.9976 19.7467 23.1468 19.7451 23.2999V26.273C19.7449 26.4646 19.8188 26.649 19.9513 26.7875C20.0837 26.926 20.2646 27.0079 20.4561 27.0163H22.6859V30.7972H24.1724V27.0163H27.1132V30.7972H28.5997V27.0163H31.5728V30.7972H33.027V27.0163H36.0001V30.7972H37.4866V27.0163H40.4273V30.7972H41.9139V27.0163H44.8546V30.7972H46.3412V27.0163H49.3142V41.9139H47.8277V43.3681H56.7146V46.3412H47.8277V47.8278H57.4256C57.5232 47.8278 57.6198 47.8085 57.71 47.7712C57.8002 47.7338 57.8821 47.6791 57.9511 47.6101C58.0201 47.541 58.0749 47.4591 58.1122 47.3689C58.1496 47.2787 58.1688 47.1821 58.1688 47.0845V42.6249C58.1689 42.5287 58.1495 42.4336 58.1118 42.3451C58.0741 42.2567 58.0188 42.1768 57.9493 42.1104C57.8798 42.0439 57.7976 41.9922 57.7076 41.9585C57.6175 41.9247 57.5216 41.9096 57.4256 41.9139H55.2281V27.0163H57.4256C57.5232 27.0163 57.6198 26.997 57.71 26.9597C57.8002 26.9223 57.8821 26.8676 57.9511 26.7986C58.0201 26.7295 58.0749 26.6476 58.1122 26.5574C58.1496 26.4673 58.1688 26.3706 58.1688 26.273V23.2999C58.1694 23.1418 58.1196 22.9877 58.0267 22.8598C57.9337 22.732 57.8024 22.6371 57.6518 22.589ZM53.7415 41.9139H50.8008V27.0163H53.7415V41.9139ZM56.7146 25.5297H21.1993V23.8493L38.9408 18.1617L56.7146 23.8493V25.5297Z" fill="#FA9D1C"/>
<path d="M14.5418 58.9121H45.5974C45.695 58.9121 45.7917 58.8928 45.8818 58.8555C45.972 58.8181 46.054 58.7634 46.123 58.6944C46.192 58.6253 46.2467 58.5434 46.2841 58.4532C46.3215 58.3631 46.3407 58.2664 46.3407 58.1688V33.027C46.3407 32.9294 46.3215 32.8327 46.2841 32.7425C46.2467 32.6523 46.192 32.5704 46.123 32.5014C46.054 32.4324 45.972 32.3776 45.8818 32.3403C45.7917 32.3029 45.695 32.2837 45.5974 32.2837H14.5418C14.4456 32.2836 14.3505 32.303 14.262 32.3407C14.1736 32.3785 14.0937 32.4337 14.0273 32.5032C13.9608 32.5727 13.9091 32.6549 13.8754 32.745C13.8416 32.835 13.8264 32.9309 13.8308 33.027V58.1688C13.8264 58.2648 13.8416 58.3608 13.8754 58.4508C13.9091 58.5408 13.9608 58.6231 14.0273 58.6925C14.0937 58.762 14.1736 58.8173 14.262 58.855C14.3505 58.8928 14.4456 58.9122 14.5418 58.9121ZM27.1127 44.4668C26.6541 44.0489 26.2877 43.5399 26.037 42.9723C25.7864 42.4047 25.6569 41.7911 25.6569 41.1706C25.6569 40.5501 25.7864 39.9365 26.037 39.3689C26.2877 38.8013 26.6541 38.2923 27.1127 37.8744V44.4668ZM24.1719 41.1706C24.1773 42.0077 24.3584 42.8343 24.7036 43.597C25.0487 44.3596 25.5502 45.0413 26.1755 45.5979H20.391C20.2491 45.0889 19.9782 44.6251 19.6045 44.2514C19.2309 43.8778 18.7671 43.6069 18.2581 43.465V38.8438C18.7715 38.7109 19.2401 38.443 19.6151 38.068C19.9901 37.6929 20.258 37.2244 20.391 36.711H26.1755C25.5477 37.2725 25.045 37.9596 24.6998 38.7279C24.3547 39.4961 24.1748 40.3284 24.1719 41.1706ZM15.285 52.9982H27.1127V54.4525H15.285V52.9982ZM27.1127 51.5117H15.285V50.0252H27.1127V51.5117ZM15.285 55.939H27.1127V57.4255H15.285V55.939ZM28.5992 57.4255V50.0252H31.5723V57.4255H28.5992ZM33.0265 37.8744C33.4942 38.2868 33.8687 38.794 34.1252 39.3623C34.3818 39.9306 34.5145 40.547 34.5145 41.1706C34.5145 41.7941 34.3818 42.4105 34.1252 42.9788C33.8687 43.5472 33.4942 44.0544 33.0265 44.4668V37.8744ZM35.9996 41.1706C35.9988 40.3249 35.8167 39.4892 35.4655 38.7199C35.1143 37.9506 34.6021 37.2655 33.9637 36.711H39.7805C39.9135 37.2244 40.1814 37.6929 40.5564 38.068C40.9314 38.443 41.4 38.7109 41.9134 38.8438V43.465C41.4044 43.6069 40.9406 43.8778 40.567 44.2514C40.1933 44.6251 39.9224 45.0889 39.7805 45.5979H33.9637C34.5981 45.0469 35.1078 44.3671 35.4588 43.6037C35.8099 42.8403 35.9942 42.0108 35.9996 41.1706ZM44.8541 50.0252V51.5117H33.0265V50.0252H44.8541ZM33.0265 52.9982H44.8541V54.4525H33.0265V52.9982ZM33.0265 57.4255V55.939H44.8541V57.4255H33.0265ZM44.8541 48.5386H33.0265V47.0844H40.4269C40.624 47.0844 40.813 47.0061 40.9524 46.8667C41.0918 46.7273 41.1701 46.5383 41.1701 46.3411C41.1784 45.9495 41.3376 45.5761 41.6146 45.2991C41.8917 45.0221 42.265 44.8629 42.6567 44.8546C42.8538 44.8546 43.0428 44.7763 43.1822 44.6369C43.3216 44.4975 43.3999 44.3085 43.3999 44.1113V38.1975C43.3999 38.0004 43.3216 37.8113 43.1822 37.6719C43.0428 37.5326 42.8538 37.4542 42.6567 37.4542C42.2624 37.4542 41.8843 37.2976 41.6055 37.0189C41.3267 36.7401 41.1701 36.362 41.1701 35.9677C41.1702 35.8716 41.1508 35.7764 41.1131 35.688C41.0754 35.5995 41.0201 35.5197 40.9506 35.4532C40.8811 35.3868 40.7989 35.3351 40.7089 35.3013C40.6188 35.2675 40.5229 35.2524 40.4269 35.2568H33.0265V33.7702H44.8541V48.5386ZM31.5723 33.7702V48.5386H28.5992V33.7702H31.5723ZM15.285 33.7702H27.1127V35.2568H19.7446C19.6486 35.2524 19.5527 35.2675 19.4626 35.3013C19.3726 35.3351 19.2904 35.3868 19.2209 35.4532C19.1514 35.5197 19.0961 35.5995 19.0584 35.688C19.0207 35.7764 19.0013 35.8716 19.0014 35.9677C19.0014 36.362 18.8448 36.7401 18.566 37.0189C18.2872 37.2976 17.9091 37.4542 17.5148 37.4542C17.3177 37.4542 17.1287 37.5326 16.9893 37.6719C16.8499 37.8113 16.7716 38.0004 16.7716 38.1975V44.1113C16.7716 44.3085 16.8499 44.4975 16.9893 44.6369C17.1287 44.7763 17.3177 44.8546 17.5148 44.8546C17.9065 44.8629 18.2798 45.0221 18.5568 45.2991C18.8339 45.5761 18.9931 45.9495 19.0014 46.3411C19.0014 46.5383 19.0797 46.7273 19.2191 46.8667C19.3585 47.0061 19.5475 47.0844 19.7446 47.0844H27.1127V48.5386H15.285V33.7702Z" fill="#FA9D1C"/>
<path d="M20.4561 40.4273H21.9426V41.9138H20.4561V40.4273Z" fill="#FA9D1C"/>
<path d="M38.2297 40.4273H39.684V41.9138H38.2297V40.4273Z" fill="#FA9D1C"/>
</svg>
