<svg width="72" height="72" viewBox="0 0 72 72" fill="none" xmlns="http://www.w3.org/2000/svg">
<path opacity="0.1" d="M58.6858 0H13.3142C5.96096 0 0 5.96096 0 13.3142V58.6826C0 66.0358 5.96096 71.9968 13.3142 71.9968H58.6858C66.039 71.9968 72 66.0358 72 58.6826V13.3142C72 5.96096 66.039 0 58.6858 0Z" fill="#FA9D1C"/>
<path d="M20.359 41.849H30.7324C30.8588 41.8737 30.9891 41.8701 31.1139 41.8385C31.2387 41.8068 31.3549 41.748 31.4543 41.6661C31.5537 41.5843 31.6337 41.4814 31.6887 41.365C31.7436 41.2486 31.7721 41.1214 31.7721 40.9927C31.7721 40.8639 31.7436 40.7367 31.6887 40.6203C31.6337 40.5039 31.5537 40.401 31.4543 40.3192C31.3549 40.2373 31.2387 40.1785 31.1139 40.1468C30.9891 40.1152 30.8588 40.1116 30.7324 40.1363H20.359C20.2326 40.1116 20.1024 40.1152 19.9776 40.1468C19.8528 40.1785 19.7365 40.2373 19.6371 40.3192C19.5377 40.401 19.4577 40.5039 19.4028 40.6203C19.3478 40.7367 19.3193 40.8639 19.3193 40.9927C19.3193 41.1214 19.3478 41.2486 19.4028 41.365C19.4577 41.4814 19.5377 41.5843 19.6371 41.6661C19.7365 41.748 19.8528 41.8068 19.9776 41.8385C20.1024 41.8701 20.2326 41.8737 20.359 41.849Z" fill="#FA9D1C"/>
<path d="M33.3178 41.8813C33.7997 41.8813 34.1904 41.4906 34.1904 41.0088C34.1904 40.5269 33.7997 40.1362 33.3178 40.1362C32.836 40.1362 32.4453 40.5269 32.4453 41.0088C32.4453 41.4906 32.836 41.8813 33.3178 41.8813Z" fill="#FA9D1C"/>
<path d="M30.9264 44.4345H20.553C20.3215 44.4345 20.0996 44.5264 19.936 44.69C19.7723 44.8537 19.6804 45.0756 19.6804 45.307C19.6804 45.5384 19.7723 45.7604 19.936 45.924C20.0996 46.0876 20.3215 46.1795 20.553 46.1795H30.9264C31.1578 46.1795 31.3797 46.0876 31.5434 45.924C31.707 45.7604 31.7989 45.5384 31.7989 45.307C31.7989 45.0756 31.707 44.8537 31.5434 44.69C31.3797 44.5264 31.1578 44.4345 30.9264 44.4345Z" fill="#FA9D1C"/>
<path d="M55.6805 41.849V47.1488C55.672 47.8631 55.3822 48.5453 54.8741 49.0474C54.3659 49.5495 53.6803 49.8311 52.9659 49.831H18.7756C18.0642 49.831 17.382 49.5484 16.879 49.0454C16.376 48.5424 16.0934 47.8602 16.0934 47.1488V35.4504H42.851V33.6407H16.0934V30.0536H42.851V28.2439H16.0934V27.3391C16.0934 26.6277 16.376 25.9455 16.879 25.4425C17.382 24.9395 18.0642 24.6569 18.7756 24.6569H42.851V22.8472H18.7756C17.5869 22.8556 16.4493 23.3316 15.6087 24.1722C14.7681 25.0127 14.2922 26.1504 14.2837 27.3391V47.1488C14.2922 48.3375 14.7681 49.4751 15.6087 50.3157C16.4493 51.1563 17.5869 51.6322 18.7756 51.6407H52.9659C54.1573 51.6407 55.2998 51.1675 56.1422 50.3251C56.9846 49.4827 57.4578 48.3401 57.4578 47.1488V41.849H55.6805Z" fill="#FA9D1C"/>
<path d="M48.8294 23.9462H58.2011C58.3014 23.9463 58.4008 23.926 58.4932 23.8867C58.5855 23.8473 58.6689 23.7896 58.7384 23.7172C58.8078 23.6447 58.8619 23.5589 58.8973 23.4649C58.9327 23.371 58.9487 23.2709 58.9443 23.1706C58.9443 22.9734 58.866 22.7844 58.7266 22.645C58.5872 22.5056 58.3982 22.4273 58.2011 22.4273H48.8294C48.6323 22.4273 48.4432 22.5056 48.3038 22.645C48.1645 22.7844 48.0862 22.9734 48.0862 23.1706C48.0818 23.2709 48.0978 23.371 48.1332 23.4649C48.1686 23.5589 48.2226 23.6447 48.2921 23.7172C48.3615 23.7896 48.445 23.8473 48.5373 23.8867C48.6297 23.926 48.729 23.9463 48.8294 23.9462Z" fill="#FA9D1C"/>
<path d="M48.8294 26.9837H58.2011C58.3014 26.9838 58.4008 26.9636 58.4932 26.9242C58.5855 26.8848 58.6689 26.8272 58.7384 26.7547C58.8078 26.6822 58.8619 26.5964 58.8973 26.5025C58.9327 26.4085 58.9487 26.3084 58.9443 26.2081C58.9443 26.011 58.866 25.8219 58.7266 25.6825C58.5872 25.5432 58.3982 25.4648 58.2011 25.4648H48.8294C48.6323 25.4648 48.4432 25.5432 48.3038 25.6825C48.1645 25.8219 48.0862 26.011 48.0862 26.2081C48.0818 26.3084 48.0978 26.4085 48.1332 26.5025C48.1686 26.5964 48.2226 26.6822 48.2921 26.7547C48.3615 26.8272 48.445 26.8848 48.5373 26.9242C48.6297 26.9636 48.729 26.9838 48.8294 26.9837Z" fill="#FA9D1C"/>
<path d="M61.2387 17.6445H42.754C42.6536 17.6444 42.5542 17.6647 42.4619 17.704C42.3695 17.7434 42.2861 17.8011 42.2166 17.8735C42.1472 17.946 42.0931 18.0318 42.0577 18.1257C42.0223 18.2197 42.0063 18.3198 42.0107 18.4201V42.8187C42.0106 42.9541 42.0474 43.087 42.1172 43.2029C42.1871 43.3189 42.2873 43.4137 42.4071 43.4769C42.5268 43.5401 42.6615 43.5693 42.7967 43.5616C42.9319 43.5538 43.0624 43.5092 43.1741 43.4327L45.0807 42.2047L46.9551 43.4327C47.0788 43.5174 47.2252 43.5628 47.3752 43.5628C47.5251 43.5628 47.6716 43.5174 47.7953 43.4327L49.6696 42.2047L51.5762 43.4327C51.6999 43.5174 51.8464 43.5628 51.9963 43.5628C52.1463 43.5628 52.2928 43.5174 52.4165 43.4327L54.2908 42.2047L56.1974 43.4327C56.3211 43.5174 56.4676 43.5628 56.6175 43.5628C56.7675 43.5628 56.9139 43.5174 57.0376 43.4327L58.912 42.2047L60.754 43.4004C60.8938 43.5052 61.0639 43.5619 61.2387 43.5619C61.4358 43.5619 61.6249 43.4836 61.7643 43.3442C61.9037 43.2049 61.982 43.0158 61.982 42.8187V18.4201C61.9864 18.3198 61.9704 18.2197 61.935 18.1257C61.8996 18.0318 61.8455 17.946 61.7761 17.8735C61.7066 17.8011 61.6232 17.7434 61.5308 17.704C61.4385 17.6647 61.3391 17.6444 61.2387 17.6445ZM60.4631 41.3968L59.3321 40.6535C59.2051 40.5734 59.0569 40.5337 58.907 40.5394C58.757 40.5452 58.6123 40.5962 58.4919 40.6858L56.6175 41.9138L54.7109 40.6535C54.584 40.5734 54.4357 40.5337 54.2858 40.5394C54.1358 40.5452 53.9911 40.5962 53.8707 40.6858L51.9963 41.9138L50.0897 40.6535C49.9628 40.5734 49.8146 40.5337 49.6646 40.5394C49.5146 40.5452 49.3699 40.5962 49.2495 40.6858L47.3752 41.9138L45.4685 40.6535C45.3416 40.5734 45.1934 40.5337 45.0434 40.5394C44.8934 40.5452 44.7487 40.5962 44.6283 40.6858L43.5296 41.3968V19.1634H60.4631V41.3968Z" fill="#FA9D1C"/>
<path d="M45.7916 23.9463C45.8934 23.9463 45.9943 23.9263 46.0884 23.8873C46.1825 23.8483 46.268 23.7912 46.34 23.7192C46.412 23.6471 46.4691 23.5616 46.5081 23.4675C46.5471 23.3734 46.5672 23.2726 46.5672 23.1707C46.5673 23.0703 46.547 22.971 46.5077 22.8786C46.4683 22.7863 46.4106 22.7029 46.3382 22.6334C46.2657 22.5639 46.1799 22.5099 46.0859 22.4745C45.992 22.4391 45.8919 22.4231 45.7916 22.4275C45.694 22.4275 45.5973 22.4467 45.5071 22.484C45.417 22.5214 45.335 22.5761 45.266 22.6452C45.197 22.7142 45.1422 22.7961 45.1049 22.8863C45.0675 22.9765 45.0483 23.0731 45.0483 23.1707C45.0439 23.271 45.0599 23.3712 45.0953 23.4651C45.1307 23.559 45.1848 23.6448 45.2542 23.7173C45.3237 23.7898 45.4071 23.8475 45.4995 23.8868C45.5918 23.9262 45.6912 23.9464 45.7916 23.9463Z" fill="#FA9D1C"/>
<path d="M45.7916 26.9839C45.8934 26.9839 45.9943 26.9638 46.0884 26.9248C46.1825 26.8858 46.268 26.8287 46.34 26.7567C46.412 26.6847 46.4691 26.5992 46.5081 26.5051C46.5471 26.411 46.5672 26.3101 46.5672 26.2083C46.5673 26.1079 46.547 26.0085 46.5077 25.9162C46.4683 25.8238 46.4106 25.7404 46.3382 25.6709C46.2657 25.6015 46.1799 25.5474 46.0859 25.512C45.992 25.4766 45.8919 25.4606 45.7916 25.465C45.694 25.465 45.5973 25.4842 45.5071 25.5216C45.417 25.5589 45.335 25.6137 45.266 25.6827C45.197 25.7517 45.1422 25.8337 45.1049 25.9238C45.0675 26.014 45.0483 26.1107 45.0483 26.2083C45.0439 26.3086 45.0599 26.4087 45.0953 26.5026C45.1307 26.5966 45.1848 26.6824 45.2542 26.7549C45.3237 26.8273 45.4071 26.885 45.4995 26.9243C45.5918 26.9637 45.6912 26.9839 45.7916 26.9839Z" fill="#FA9D1C"/>
<path d="M49.8636 30.4741C51.2532 30.4741 51.9318 31.2497 51.9318 32.2515C51.9441 32.6247 51.8293 32.991 51.6062 33.2904C51.3831 33.5898 51.0649 33.8046 50.7038 33.8996L51.9641 36.0971H50.219L49.1203 33.9966H48.9587V36.0971H47.3752V30.4741H49.8636ZM49.7343 31.7668H48.9587V32.9301H49.7343C50.1544 32.9301 50.3483 32.7362 50.3483 32.3484C50.3536 32.2679 50.3411 32.1871 50.3117 32.1119C50.2823 32.0367 50.2366 31.9689 50.178 31.9134C50.1193 31.8578 50.0492 31.8159 49.9725 31.7905C49.8958 31.7652 49.8145 31.7571 49.7343 31.7668Z" fill="#FA9D1C"/>
<path d="M55.5187 31.5404C56.5851 31.5404 57.4253 32.4129 57.4253 33.8348C57.4253 35.2567 56.5851 36.1292 55.5187 36.1292C55.2615 36.1472 55.0044 36.0932 54.7761 35.9734C54.5478 35.8535 54.3574 35.6725 54.2261 35.4506V38.2298H52.6426V31.605H54.2261V32.219C54.3626 32.002 54.554 31.8249 54.781 31.7057C55.0081 31.5865 55.2625 31.5295 55.5187 31.5404ZM55.034 32.93C54.9207 32.934 54.8094 32.9609 54.7069 33.009C54.6043 33.0571 54.5125 33.1255 54.437 33.21C54.3615 33.2946 54.3039 33.3935 54.2677 33.5009C54.2314 33.6082 54.2173 33.7218 54.2261 33.8348C54.2126 33.9503 54.2232 34.0674 54.2573 34.1786C54.2915 34.2898 54.3483 34.3927 54.4242 34.4808C54.5002 34.5689 54.5936 34.6402 54.6985 34.6904C54.8035 34.7405 54.9177 34.7683 55.034 34.772C55.4864 34.772 55.8419 34.4488 55.8419 33.8348C55.8556 33.7209 55.845 33.6053 55.8106 33.4958C55.7762 33.3863 55.7189 33.2854 55.6424 33.1998C55.566 33.1142 55.4722 33.0458 55.3673 32.9993C55.2624 32.9528 55.1487 32.9291 55.034 32.93Z" fill="#FA9D1C"/>
<path d="M49.8636 30.4741C51.2532 30.4741 51.9318 31.2497 51.9318 32.2515C51.9441 32.6247 51.8293 32.991 51.6062 33.2904C51.3831 33.5898 51.0649 33.8046 50.7038 33.8996L51.9641 36.0971H50.219L49.1203 33.9966H48.9587V36.0971H47.3752V30.4741H49.8636ZM49.7343 31.7668H48.9587V32.9301H49.7343C50.1544 32.9301 50.3483 32.7362 50.3483 32.3484C50.3536 32.2679 50.3411 32.1871 50.3117 32.1119C50.2823 32.0367 50.2366 31.9689 50.178 31.9134C50.1193 31.8578 50.0492 31.8159 49.9725 31.7905C49.8958 31.7652 49.8145 31.7571 49.7343 31.7668Z" fill="#FA9D1C"/>
<path d="M55.5187 31.5404C56.5851 31.5404 57.4253 32.4129 57.4253 33.8348C57.4253 35.2567 56.5851 36.1292 55.5187 36.1292C55.2615 36.1472 55.0044 36.0932 54.7761 35.9734C54.5478 35.8535 54.3574 35.6725 54.2261 35.4506V38.2298H52.6426V31.605H54.2261V32.219C54.3626 32.002 54.554 31.8249 54.781 31.7057C55.0081 31.5865 55.2625 31.5295 55.5187 31.5404ZM55.034 32.93C54.9207 32.934 54.8094 32.9609 54.7069 33.009C54.6043 33.0571 54.5125 33.1255 54.437 33.21C54.3615 33.2946 54.3039 33.3935 54.2677 33.5009C54.2314 33.6082 54.2173 33.7218 54.2261 33.8348C54.2126 33.9503 54.2232 34.0674 54.2573 34.1786C54.2915 34.2898 54.3483 34.3927 54.4242 34.4808C54.5002 34.5689 54.5936 34.6402 54.6985 34.6904C54.8035 34.7405 54.9177 34.7683 55.034 34.772C55.4864 34.772 55.8419 34.4488 55.8419 33.8348C55.8556 33.7209 55.845 33.6053 55.8106 33.4958C55.7762 33.3863 55.7189 33.2854 55.6424 33.1998C55.566 33.1142 55.4722 33.0458 55.3673 32.9993C55.2624 32.9528 55.1487 32.9291 55.034 32.93Z" fill="#FA9D1C"/>
</svg>
