<svg width="16" height="16" viewBox="0 0 16 16" fill="none" xmlns="http://www.w3.org/2000/svg">
<path d="M16 8C16 12.4192 12.4184 16 8 16C3.5816 16 0 12.4192 0 8C0 3.5824 3.5816 0 8 0C12.4184 0 16 3.5824 16 8Z" fill="url(#paint0_linear_3_543)"/>
<path d="M10.8591 11.0516C10.7543 11.0516 10.6487 11.0244 10.5519 10.9676L7.41114 9.09397C7.23034 8.98517 7.11914 8.78917 7.11914 8.57797V4.54037C7.11914 4.20917 7.38794 3.94037 7.71914 3.94037C8.05034 3.94037 8.31914 4.20917 8.31914 4.54037V8.23717L11.1671 9.93557C11.4511 10.106 11.5447 10.474 11.3751 10.7588C11.2623 10.9468 11.0631 11.0516 10.8591 11.0516Z" fill="white"/>
<defs>
<linearGradient id="paint0_linear_3_543" x1="8" y1="-4.76838e-09" x2="8.16" y2="21.36" gradientUnits="userSpaceOnUse">
<stop stop-color="#FFE70D"/>
<stop offset="0.55706" stop-color="#FFD605" stop-opacity="0.82"/>
<stop offset="1" stop-color="#FFCA06" stop-opacity="0"/>
</linearGradient>
</defs>
</svg>
