<?xml version="1.0" encoding="utf-8"?>
<!-- Generator: Adobe Illustrator 19.0.0, SVG Export Plug-In . SVG Version: 6.00 Build 0)  -->
<svg version="1.1" id="f3dcb34a-a6b1-4b8a-999a-8833d70ceb4d"
	 xmlns="http://www.w3.org/2000/svg" xmlns:xlink="http://www.w3.org/1999/xlink" x="0px" y="0px" viewBox="-3.6 3.8 94.2 94.2"
	 style="enable-background:new -3.6 3.8 94.2 94.2;" xml:space="preserve">
<style type="text/css">
	.st0{fill:#F29E6E;}
	.st1{fill:#FFFFFF;}
	.st2{fill:#308599;}
</style>
<title>UI msmile</title>
<g>
	<path class="st0" d="M77.1,4L16.8,23.4c-0.9,0.2-1.5,1.1-1.2,2.1c0,0,0,0.1,0,0.1l10.2,31.6c0.3,0.9,1.3,1.4,2.2,1.1L88.4,39
		c0.9-0.3,1.4-1.3,1.1-2.2L79.3,5.1C79,4.2,78,3.7,77.1,4z"/>
	<path class="st1" d="M52.8,44.9c-7.8-0.1-14.1-6.5-14-14.3s6.5-14.1,14.3-14c2.2,0,4.3,0.5,6.2,1.5c3.4,1.7,5.9,4.7,7,8.3l0,0
		c1.2,3.6,0.9,7.5-0.8,10.9c-1.7,3.4-4.8,5.9-8.4,7C55.7,44.7,54.3,44.9,52.8,44.9z M52.8,19.3c-1.2,0-2.4,0.1-3.5,0.5
		c-6,1.9-9.3,8.4-7.3,14.3c1.9,6,8.4,9.3,14.3,7.3l0,0c5.9-1.9,9.2-8.3,7.3-14.2c0,0,0-0.1,0-0.1c-0.9-2.9-2.9-5.3-5.6-6.7
		C56.4,19.7,54.6,19.3,52.8,19.3z"/>
	<path class="st1" d="M47.4,26.2l1.7-0.3h1.3c0.4,0.1,0.8,0.4,1.1,0.8c0.3,0.3,0.6,0.7,0.7,1.2c0.3,0.6,0.3,1.3,0.2,1.9
		c-0.2,0.5-0.5,1-0.9,1.4l2.8,2.7c0,0.1,0.1,0.1,0.1,0.2v0.2l-0.2,0.2l-1.9,0.6h-0.4l-0.3-0.2l-2.4-2.4l-1.3,0.4l1,2.9v0.3
		c-0.1,0.1-0.1,0.2-0.2,0.2l-1.8,0.6h-0.3l-0.2-0.2l-2.9-8.8v-0.3l0.2-0.2L47.4,26.2z M47.2,30.8l1.6-0.5l0.8-0.5
		c0.2-0.2,0.3-0.6,0.1-0.9c-0.1-0.3-0.3-0.6-0.6-0.7h-1l-1.5,0.5L47.2,30.8z"/>
	<path class="st1" d="M60,32.7h-1.3l-0.4-0.2H58l0.9,2.8v0.3c-0.1,0.1-0.1,0.2-0.2,0.2L57,36.4h-0.3l-0.2-0.3l-3-8.8
		c0-0.1,0-0.2,0.1-0.3c0-0.1,0.1-0.2,0.2-0.2l0,0l1.6-0.5h0.3c0.1,0,0.2,0.1,0.2,0.2v0v0.3c0.1-0.1,0.1-0.2,0.2-0.4s0.1-0.2,0.2-0.3
		c0.1-0.2,0.3-0.3,0.5-0.4l0.7-0.3c0.4-0.2,0.8-0.2,1.2-0.2l1.1,0.2c0.4,0.2,0.7,0.5,1,0.8c0.4,0.4,0.6,0.8,0.8,1.3l0.2,0.5
		c0,0.2,0.1,0.4,0.1,0.6c0.2,0.4,0.2,0.9,0.2,1.4c0,0.4-0.1,0.8-0.3,1.2c-0.2,0.3-0.5,0.6-0.8,0.9l-1.1,0.6 M59.5,29.2l-0.3-0.8
		c-0.1-0.3-0.3-0.5-0.6-0.7c-0.3-0.2-0.7-0.2-1,0l-0.5,0.2l-0.3,0.4c0,0.1-0.1,0.3-0.1,0.4v0.5c0.1,0.1,0.1,0.3,0.2,0.4
		c0,0.2,0.1,0.4,0.2,0.5c0,0.1,0.1,0.2,0.2,0.3l0.3,0.3l0.5,0.2h0.5c0.5-0.2,0.7-0.4,0.8-0.7C59.5,29.9,59.5,29.6,59.5,29.2"/>
	<path class="st2" d="M80.8,89.9c0.1,2.9-2.3,5.3-5.2,5.4c0,0,0,0,0,0H2.2C-0.7,95.2-3,92.9-3,90V46.2c-0.1-2.9,2.3-5.3,5.2-5.4
		c0,0,0,0,0,0h73.3c2.9,0.1,5.3,2.5,5.3,5.4V89.9z"/>
	<path class="st1" d="M80,95.1h1.3c0.3,0,0.6,0,0.8-0.2c0.2-0.1,0.3-0.4,0.3-0.6c0-0.4-0.1-0.6-0.3-0.7l-0.8-0.2H80V95.1z"/>
	<path class="st1" d="M89.8,97.1v-0.6c0-0.2-0.1-0.5-0.2-0.7c-0.2-0.2-0.5-0.3-0.8-0.3h-0.4c-0.2,0-0.3,0.1-0.4,0.2v0.2
		c-0.1,0.1-0.1,0.3-0.1,0.4c-0.1,0.1-0.1,0.2-0.1,0.4v0.4c0.1,0.1,0.1,0.2,0.1,0.3l0.2,0.3l0.3,0.2h0.4c0.4,0,0.7-0.1,0.8-0.3
		c0.2-0.2,0.3-0.4,0.3-0.7"/>
	<circle class="st1" cx="52.6" cy="67.9" r="4.4"/>
	<path class="st0" d="M52.8,71.7c-2-0.1-3.7-1.8-3.6-3.8c0.1-2,1.8-3.7,3.8-3.6c2,0.1,3.6,1.7,3.6,3.7C56.5,70,54.9,71.7,52.8,71.7
		 M50.2,59c0,0-6.7,0.4-6.7,9.1s7.5,9,7.5,9h30.6c1,0,1.9-0.9,1.9-1.9l0,0V60.9c0-1.1-0.8-1.9-1.9-2L50.2,59z"/>
</g>
</svg>
