<svg width="36" height="36" viewBox="0 0 36 36" fill="none" xmlns="http://www.w3.org/2000/svg">
<rect width="36" height="36" rx="10" fill="#F1F3F9"/>
<path fill-rule="evenodd" clip-rule="evenodd" d="M23.5247 14.162C23.7841 14.162 24 14.3773 24 14.6513V14.9046C24 15.172 23.7841 15.394 23.5247 15.394H12.4759C12.2159 15.394 12 15.172 12 14.9046V14.6513C12 14.3773 12.2159 14.162 12.4759 14.162H14.4197C14.8146 14.162 15.1582 13.8813 15.247 13.4853L15.3488 13.0307C15.507 12.4113 16.0277 12 16.6235 12H19.3765C19.9659 12 20.4923 12.4113 20.6447 12.998L20.7536 13.4847C20.8418 13.8813 21.1854 14.162 21.5809 14.162H23.5247ZM22.5371 23.4227C22.74 21.5313 23.0953 17.038 23.0953 16.9927C23.1083 16.8554 23.0635 16.7254 22.9747 16.6207C22.8794 16.5227 22.7588 16.4647 22.6259 16.4647H13.3789C13.2453 16.4647 13.1182 16.5227 13.03 16.6207C12.9406 16.7254 12.8965 16.8554 12.903 16.9927C12.9042 17.001 12.9169 17.1593 12.9382 17.4239C13.0329 18.5994 13.2966 21.8734 13.467 23.4227C13.5876 24.564 14.3365 25.2813 15.4212 25.3073C16.2583 25.3266 17.1206 25.3333 18.0024 25.3333C18.8329 25.3333 19.6765 25.3266 20.5395 25.3073C21.6618 25.288 22.41 24.5833 22.5371 23.4227Z" fill="#797979"/>
</svg>
