<svg id="8629f965-b188-4dc4-bf29-160170bbc509" data-name="Layer 1" xmlns="http://www.w3.org/2000/svg" xmlns:xlink="http://www.w3.org/1999/xlink" viewBox="0 0 144.5 144.4"><defs><style>.c9567bf0-961e-44f0-89e1-57babe80d99b{fill:none;}.\33 d807599-156e-462d-a37d-f58b49c87668{fill:#fff;}.\35 3633893-57ad-4a76-8150-dc722519b7c6{fill:#308599;}.\35 c5ea8c1-c8f8-4188-a1a2-f28c446b5dca{fill:#f8d792;}.\39 226d463-0723-4de9-a36d-db3186194ecf{fill:#eeb82e;}.\33 59e0921-b1fa-4cc8-b46f-67e6f1694ec5{opacity:0.15;}.\31 42370d7-402d-4b9a-addb-efbfd33bf4c6{clip-path:url(#c24185b7-38b7-4c9d-8900-072c9a46ef4d);}.\32 cf39b99-47ef-48c5-a267-3beaccd8382a{fill:#595f5f;}.c93e8177-b15c-465e-bc2d-04417f2784dc{clip-path:url(#b74ab541-4a04-423f-bbe5-ea1f58fced67);}</style><clipPath id="c24185b7-38b7-4c9d-8900-072c9a46ef4d"><rect class="c9567bf0-961e-44f0-89e1-57babe80d99b" x="101.4" y="24.9" width="7.2" height="8.01"/></clipPath><clipPath id="b74ab541-4a04-423f-bbe5-ea1f58fced67"><rect class="c9567bf0-961e-44f0-89e1-57babe80d99b" x="55.4" y="24.9" width="7.2" height="8.01"/></clipPath></defs><title>UI msmile</title><path class="3d807599-156e-462d-a37d-f58b49c87668" d="M144.5,72.2A72.3,72.3,0,1,1,72.2,0a72.3,72.3,0,0,1,72.3,72.2"/><path class="53633893-57ad-4a76-8150-dc722519b7c6" d="M92.7,109.8H30.3a6.5,6.5,0,0,1-6.5-6.5V16.7H99.2v86.6a6.5,6.5,0,0,1-6.5,6.5"/><path class="5c5ea8c1-c8f8-4188-a1a2-f28c446b5dca" d="M114.6,124.4H49.5a6.8,6.8,0,0,1-6.9-6.8V27h78.9v90.6a6.8,6.8,0,0,1-6.9,6.8"/><rect class="9226d463-0723-4de9-a36d-db3186194ecf" x="42.6" y="27" width="78.8" height="22.01"/><g class="359e0921-b1fa-4cc8-b46f-67e6f1694ec5"><g class="142370d7-402d-4b9a-addb-efbfd33bf4c6"><path class="2cf39b99-47ef-48c5-a267-3beaccd8382a" d="M107.2,32.9h-4.4a1.4,1.4,0,0,1-1.4-1.4V26.3a1.5,1.5,0,0,1,1.4-1.4h4.4a1.4,1.4,0,0,1,1.4,1.4v5.2a1.4,1.4,0,0,1-1.4,1.4"/></g></g><g class="359e0921-b1fa-4cc8-b46f-67e6f1694ec5"><g class="c93e8177-b15c-465e-bc2d-04417f2784dc"><path class="2cf39b99-47ef-48c5-a267-3beaccd8382a" d="M61.2,32.9H56.8a1.4,1.4,0,0,1-1.4-1.4V26.3a1.5,1.5,0,0,1,1.4-1.4h4.4a1.4,1.4,0,0,1,1.4,1.4v5.2a1.4,1.4,0,0,1-1.4,1.4"/></g></g><path class="53633893-57ad-4a76-8150-dc722519b7c6" d="M107.2,32.5h-4.4a1.5,1.5,0,0,1-1.4-1.4V25.9a1.4,1.4,0,0,1,1.4-1.4h4.4a1.4,1.4,0,0,1,1.4,1.4v5.2a1.4,1.4,0,0,1-1.4,1.4"/><path class="53633893-57ad-4a76-8150-dc722519b7c6" d="M61.2,32.5H56.8a1.5,1.5,0,0,1-1.4-1.4V25.9a1.4,1.4,0,0,1,1.4-1.4h4.4a1.4,1.4,0,0,1,1.4,1.4v5.2a1.4,1.4,0,0,1-1.4,1.4"/><path class="53633893-57ad-4a76-8150-dc722519b7c6" d="M83.6,54.3a24.6,24.6,0,0,0-11.8,46.1l-.3,10.1,11.6-7.1h.5a24.6,24.6,0,1,0,0-49.1"/><rect class="3d807599-156e-462d-a37d-f58b49c87668" x="80.5" y="72.9" width="6.3" height="20.24"/><path class="3d807599-156e-462d-a37d-f58b49c87668" d="M83.6,70.5a3.2,3.2,0,0,1-3.3-3.2,3.1,3.1,0,0,1,3.3-3.2A3.2,3.2,0,0,1,87,67.3a3.3,3.3,0,0,1-3.4,3.2"/></svg>