<svg width="20" height="20" viewBox="0 0 20 20" fill="none" xmlns="http://www.w3.org/2000/svg">
<path d="M9.99996 1.66666C5.39996 1.66666 1.66663 5.39999 1.66663 9.99999C1.66663 14.6 5.39996 18.3333 9.99996 18.3333C14.6 18.3333 18.3333 14.6 18.3333 9.99999C18.3333 5.39999 14.6 1.66666 9.99996 1.66666ZM10.7583 15.125C10.7001 15.1821 10.6263 15.2208 10.5463 15.2364C10.4662 15.252 10.3834 15.2438 10.3079 15.2128C10.2325 15.1817 10.1679 15.1292 10.122 15.0617C10.0762 14.9943 10.0511 14.9149 10.05 14.8333V14.1667H9.99996C8.93329 14.1667 7.86663 13.7583 7.04996 12.95C6.48415 12.3828 6.09366 11.6647 5.92519 10.8814C5.75672 10.0982 5.8174 9.28299 6.09996 8.53332C6.25829 8.10832 6.81663 7.99999 7.13329 8.32499C7.31663 8.50832 7.35829 8.77499 7.27496 9.00832C6.89163 10.0417 7.10829 11.2417 7.94163 12.075C8.52496 12.6583 9.29163 12.9333 10.0583 12.9167V12.1333C10.0583 11.7583 10.5083 11.575 10.7666 11.8417L12.1166 13.1917C12.2833 13.3583 12.2833 13.6167 12.1166 13.7833L10.7583 15.125ZM12.8666 11.6833C12.7805 11.5947 12.7214 11.4833 12.6963 11.3623C12.6712 11.2412 12.6812 11.1156 12.725 11C13.1083 9.96666 12.8916 8.76666 12.0583 7.93332C11.475 7.34999 10.7083 7.06666 9.94996 7.08332V7.86666C9.94996 8.24166 9.49996 8.42499 9.24163 8.15832L7.88329 6.81666C7.71663 6.64999 7.71663 6.39166 7.88329 6.22499L9.23329 4.87499C9.29153 4.81789 9.36525 4.77914 9.4453 4.76354C9.52536 4.74793 9.60823 4.75617 9.68365 4.78723C9.75906 4.81828 9.82371 4.87079 9.86957 4.93823C9.91542 5.00568 9.94048 5.0851 9.94163 5.16666V5.84166C11.025 5.82499 12.1166 6.21666 12.9416 7.04999C13.5074 7.61718 13.8979 8.33532 14.0664 9.11856C14.2349 9.9018 14.1742 10.717 13.8916 11.4667C13.7333 11.9 13.1833 12.0083 12.8666 11.6833V11.6833Z" fill="#50B74A"/>
</svg>
