<svg width="107" height="107" viewBox="0 0 107 107" fill="none" xmlns="http://www.w3.org/2000/svg">
<path d="M1.67015 77.0178C2.11598 85.7115 8.46911 88.9438 12.2587 90.8386L52.8295 91.8417H89.9451C95.1837 89.9469 100.199 84.2626 100.199 73.3396C100.199 60.6334 90.8368 60.1876 88.942 57.8469C87.0472 55.5063 91.7285 38.2303 81.2514 32.1001C70.7743 25.9698 57.9566 31.7657 49.9316 32.2115C41.9066 32.6573 39.9004 28.3105 35.7764 25.524C31.6524 22.7376 23.7389 19.3938 13.3733 25.1896C3.00765 30.9855 8.02327 46.0323 8.35765 54.0573C8.69202 62.0823 1.0014 64.3115 1.67015 77.0178Z" fill="#D3E9FE"/>
<path d="M42.6875 86.1574V39.1219L47.8146 33.549H83.9271V86.2688L42.6875 86.1574Z" fill="white"/>
<path d="M56.3484 40.5543H70.7266V38.1022H56.3484V40.5543Z" fill="#BCBCBD"/>
<path d="M51.2214 45.8966H75.7422V44.0018H51.2214V45.8966Z" fill="#BCBCBD"/>
<path d="M51.2214 49.3898H75.7422V47.495H51.2214V49.3898Z" fill="#BCBCBD"/>
<path d="M51.2214 52.9946H75.7422V51.0998H51.2214V52.9946Z" fill="#BCBCBD"/>
<path d="M51.2214 56.4878H75.7422V54.593H51.2214V56.4878Z" fill="#BCBCBD"/>
<path d="M51.2214 59.981H75.7422V58.0862H51.2214V59.981Z" fill="#BCBCBD"/>
<path d="M51.2214 63.5857H75.7422V61.6909H51.2214V63.5857Z" fill="#BCBCBD"/>
<path d="M51.2214 67.079H75.7422V65.1842H51.2214V67.079Z" fill="#BCBCBD"/>
<path d="M51.2214 70.5723H75.7422V68.6775H51.2214V70.5723Z" fill="#BCBCBD"/>
<path d="M42.6875 39.1219L47.926 38.899L47.8146 33.549L42.6875 39.1219Z" fill="#9FBFD1"/>
<path d="M31.2076 69.4386L31.0961 70.7761L29.6471 88.7209L29.4242 91.6188H5.68359V70.8875L16.9409 58.7386H21.1763L31.2076 69.4386Z" fill="white"/>
<path d="M21.0656 77.9094H11.7031V91.5073H21.0656V77.9094Z" fill="#32191C"/>
<path d="M21.0669 77.9094H17.2773V91.5073H21.0669V77.9094Z" fill="#9B462F"/>
<path d="M22.5161 77.9094H18.7266V91.5073H22.5161V77.9094Z" fill="#6D2F21"/>
<path d="M47.7049 69.6615C47.7049 69.6615 47.7049 91.173 47.7049 91.6188C47.7049 91.9532 39.457 91.8417 33.9956 91.7303C31.432 91.7303 29.4258 91.6188 29.4258 91.6188V70.8875L31.0977 70.7761L47.7049 69.6615Z" fill="#D6D08C"/>
<path d="M37.5625 80.3615V91.7302H53.0552V79.2469L37.5625 80.3615Z" fill="#BCB35E"/>
<path d="M45.5849 70.999C45.362 70.999 45.0276 70.999 44.8047 70.999C43.5786 70.999 42.3526 70.999 41.0151 70.999C40.7922 70.999 40.4578 70.999 40.2349 70.999C38.4516 70.999 36.7797 70.999 35.1078 70.999C34.8849 70.999 34.662 70.999 34.4391 70.999C31.5411 70.999 29.4234 70.999 29.4234 70.999L25.0766 66.6521L24.5193 65.9834L19.5036 60.9678L16.3828 57.8469H21.3984H22.2901H26.637H27.5286H32.0984H32.7672H37.1141C37.1141 57.8469 38.4516 59.1844 40.3464 61.0792C40.5693 61.3021 40.7922 61.525 41.0151 61.748C42.4641 63.0855 44.0245 64.6459 45.4734 66.0948C45.6964 66.3178 45.8078 66.4292 46.0307 66.6521C48.3714 68.9928 50.3776 70.8875 50.4891 70.999C50.6005 70.999 48.4828 70.999 45.5849 70.999Z" fill="#29666E"/>
<path d="M16.3857 57.8469L3.90234 70.8875H5.79714L17.8346 58.85L16.3857 57.8469Z" fill="#1B555A"/>
<path d="M35.2211 70.999C34.9982 70.999 34.7753 70.999 34.5523 70.999C34.4409 70.8875 34.3294 70.7761 34.218 70.7761C33.6607 70.2188 33.1034 69.773 32.5461 69.2157C31.6544 68.324 30.7628 67.5438 29.9826 66.6521C29.7596 66.4292 29.5367 66.2063 29.4253 66.0948C28.5336 65.2032 27.6419 64.2 26.6388 63.3084C26.0815 62.7511 25.6357 62.3053 25.0784 61.748C24.8555 61.525 24.6326 61.3021 24.4096 61.0792C23.4065 60.0761 22.4034 59.073 21.5117 57.9584H22.4034C23.1836 58.6271 23.8523 59.4073 24.6326 60.0761C24.9669 60.4105 25.3013 60.7448 25.6357 61.0792C25.8586 61.3021 26.0815 61.525 26.3044 61.748C27.7534 63.1969 29.0909 64.6459 30.5398 66.0948C30.7628 66.3177 30.8742 66.5407 31.0971 66.6521C31.8773 67.4323 32.6576 68.2125 33.3263 68.9928C33.7721 69.55 34.3294 70.1073 34.7753 70.6646C34.8867 70.6646 35.1096 70.7761 35.2211 70.999Z" fill="#1B555A"/>
<path d="M41.0148 70.999C40.7919 70.999 40.4576 70.999 40.2346 70.999C40.0117 70.7761 39.7888 70.5532 39.5659 70.3303C39.0086 69.773 38.4513 69.2157 37.894 68.6584C37.2253 67.9896 36.4451 67.2094 35.7763 66.5407C35.5534 66.3178 35.3305 66.0948 35.219 65.9834C34.1044 64.9803 33.1013 63.8657 31.9867 62.8626C31.5409 62.4167 31.0951 62.0823 30.6492 61.6365C30.4263 61.4136 30.2034 61.1907 29.869 60.9678C29.5346 60.6334 29.0888 60.1876 28.7544 59.8532C28.1971 59.2959 27.7513 58.8501 27.194 58.2928C26.9711 58.0698 26.8596 57.9584 26.6367 57.7355H27.5284C27.6398 57.8469 27.7513 57.9584 27.9742 58.0698C28.5315 58.6271 29.2003 59.1844 29.7576 59.7417C30.2034 60.0761 30.5378 60.5219 30.9836 60.8563C31.2065 61.0792 31.4294 61.3021 31.7638 61.5251C33.2128 62.8626 34.6617 64.3115 36.1107 65.649C36.2221 65.7605 36.2221 65.7605 36.3336 65.8719C36.5565 66.0948 36.7794 66.2063 36.8909 66.4292C37.5596 67.098 38.3398 67.8782 39.0086 68.5469C39.4544 68.9928 39.9003 69.5501 40.3461 69.9959C40.569 70.4417 40.7919 70.7761 41.0148 70.999Z" fill="#1B555A"/>
<path d="M45.5859 70.999C45.363 70.999 45.0286 70.999 44.8057 70.999C44.5828 70.7761 44.4714 70.6646 44.2484 70.4417C43.6911 69.773 43.0224 69.2157 42.4651 68.5469C41.7964 67.8782 41.1276 67.2094 40.4589 66.5407C40.2359 66.3178 40.1245 66.2063 39.9016 65.9834C38.6755 64.7573 37.4495 63.4198 36.3349 62.1938C36.112 61.9709 36.0005 61.748 35.7776 61.6365C35.5547 61.4136 35.3318 61.1907 35.1089 60.9678C34.5516 60.299 33.8828 59.6303 33.3255 59.073C32.9911 58.6271 32.5453 58.2928 32.2109 57.8469H32.8797C33.3255 58.2928 33.7714 58.7386 34.1057 59.073C34.7745 59.7417 35.3318 60.299 36.0005 60.9678C36.2234 61.1907 36.4464 61.4136 36.6693 61.6365C37.8953 62.974 39.1214 64.2 40.4589 65.5375C40.5703 65.649 40.7932 65.8719 40.9047 65.9834C41.1276 66.2063 41.2391 66.3178 41.462 66.5407C42.1307 67.2094 42.7995 67.9896 43.4682 68.6584C44.137 69.4386 44.8057 70.2188 45.5859 70.999Z" fill="#1B555A"/>
<path d="M41.0154 61.6365C40.1237 61.6365 39.232 61.6365 38.3404 61.6365C37.7831 61.6365 37.1143 61.6365 36.557 61.6365C36.2227 61.6365 35.9997 61.6365 35.6654 61.6365C34.3279 61.6365 32.9904 61.6365 31.6529 61.6365C31.3185 61.6365 30.9841 61.6365 30.6497 61.6365C29.7581 61.6365 28.8664 61.6365 27.9747 61.6365C27.4174 61.6365 26.7487 61.6365 26.1914 61.6365C25.7456 61.6365 25.4112 61.6365 24.9654 61.6365C24.1852 61.6365 23.5164 61.6365 22.7362 61.6365C21.8445 61.6365 21.0643 61.6365 20.1727 61.6365L19.5039 60.9677C19.8383 60.9677 20.2841 60.9677 20.6185 60.9677C21.6216 60.9677 22.5133 60.9677 23.5164 60.9677C23.8508 60.9677 24.0737 60.9677 24.4081 60.9677C24.8539 60.9677 25.1883 60.9677 25.6341 60.9677C27.0831 60.9677 28.532 60.9677 29.981 60.9677C30.3154 60.9677 30.6497 60.9677 30.9841 60.9677C31.9872 60.9677 32.9904 60.9677 33.9935 60.9677C34.3279 60.9677 34.7737 60.9677 35.1081 60.9677C35.4424 60.9677 35.6654 60.9677 35.9997 60.9677C37.1143 60.9677 38.2289 60.9677 39.232 60.9677C39.6779 60.9677 40.0122 60.9677 40.4581 60.9677C40.681 61.1906 40.9039 61.4135 41.0154 61.6365Z" fill="#1B555A"/>
<path d="M46.1425 66.5406C46.031 66.5406 45.8081 66.5406 45.6966 66.5406C44.6935 66.5406 43.6904 66.5406 42.5758 66.5406C42.1299 66.5406 41.7956 66.5406 41.3497 66.5406C41.0154 66.5406 40.7924 66.5406 40.4581 66.5406C39.232 66.5406 38.1174 66.5406 36.8914 66.5406C36.557 66.5406 36.2227 66.5406 35.8883 66.5406C34.4393 66.5406 32.9904 66.5406 31.6529 66.5406C31.5414 66.5406 31.3185 66.5406 31.207 66.5406C30.8727 66.5406 30.4268 66.5406 30.0924 66.5406C28.7549 66.5406 27.5289 66.5406 26.1914 66.5406C25.857 66.5406 25.6341 66.5406 25.2997 66.5406L24.5195 65.9833C25.1883 65.9833 25.857 65.9833 26.5258 65.9833C27.4174 65.9833 28.4206 65.9833 29.3122 65.9833C29.6466 65.9833 30.0924 65.9833 30.4268 65.9833C31.9872 65.9833 33.5477 65.9833 35.1081 65.9833C35.4424 65.9833 35.7768 65.9833 36.1112 65.9833C36.557 65.9833 37.0029 65.9833 37.5602 65.9833C38.3404 65.9833 39.0091 65.9833 39.7893 65.9833C40.1237 65.9833 40.3466 65.9833 40.681 65.9833C41.4612 65.9833 42.2414 65.9833 43.0216 65.9833C43.8018 65.9833 44.582 65.9833 45.3622 65.9833C45.6966 66.2063 45.9195 66.3177 46.1425 66.5406Z" fill="#1B555A"/>
<path d="M11.4805 70.6646H22.5148L16.8305 64.9802L11.4805 70.6646Z" fill="#32191C"/>
<path d="M13.0396 77.9094H9.25V91.5073H13.0396V77.9094Z" fill="#9B462F"/>
<path d="M14.3794 77.9094H10.5898V91.5073H14.3794V77.9094Z" fill="#6D2F21"/>
<path d="M22.5138 77.1292H12.3711V78.6896H22.5138V77.1292Z" fill="#1B555A"/>
<path d="M19.3927 77.1292H9.25V78.6896H19.3927V77.1292Z" fill="#29666E"/>
<path d="M56.3966 80.3615H37.5602L35.331 78.6896L34.7737 78.1323L32.5445 76.4604L31.8758 76.0146L29.5352 74.1198H34.8852H35.331L39.1206 74.0084H39.5664H43.4674H43.9133H47.5914L50.3779 76.0146L50.9352 76.349L53.3872 78.2438L53.9445 78.5782L56.3966 80.3615Z" fill="#29666E"/>
<path d="M53.9461 78.5782C52.7201 78.6896 51.494 78.6896 50.268 78.6896C50.0451 78.6896 49.8221 78.6896 49.5992 78.6896C49.3763 78.6896 49.2648 78.6896 49.0419 78.6896C47.8159 78.6896 46.4784 78.6896 45.2523 78.6896C45.0294 78.6896 44.918 78.6896 44.6951 78.6896C43.5805 78.6896 42.4659 78.6896 41.3513 78.6896C41.2398 78.6896 41.0169 78.6896 40.9055 78.6896C40.6826 78.6896 40.5711 78.6896 40.3482 78.6896C39.2336 78.6896 38.0076 78.6896 36.893 78.6896C36.4471 78.6896 35.8898 78.6896 35.444 78.6896L34.8867 78.2438C34.9982 78.2438 34.9982 78.2438 35.1096 78.2438C36.0013 78.2438 36.7815 78.2438 37.6732 78.2438C38.4534 78.2438 39.1221 78.2438 39.9023 78.2438H40.4596C41.7971 78.2438 43.0232 78.2438 44.3607 78.2438H44.5836C45.1409 78.2438 45.8096 78.2438 46.3669 78.2438C47.0357 78.2438 47.8159 78.2438 48.4846 78.2438C48.7076 78.2438 48.819 78.2438 49.0419 78.2438C49.7107 78.2438 50.268 78.2438 50.9367 78.2438C51.8284 78.2438 52.7201 78.2438 53.5003 78.2438L53.9461 78.5782Z" fill="#1B555A"/>
<path d="M50.9362 76.349C49.7102 76.4605 48.4841 76.4605 47.2581 76.4605C47.1466 76.4605 47.0352 76.4605 46.9237 76.4605C46.8122 76.4605 46.5893 76.4605 46.4779 76.4605C45.1404 76.4605 43.9143 76.4605 42.5768 76.4605C42.4654 76.4605 42.2424 76.4605 42.131 76.4605C40.7935 76.4605 39.5674 76.4605 38.2299 76.4605C38.1185 76.4605 37.8956 76.4605 37.7841 76.4605C36.4466 76.4605 35.1091 76.4605 33.8831 76.4605C33.4372 76.4605 33.1029 76.4605 32.657 76.4605L31.9883 76.0146C32.8799 76.0146 33.6602 76.0146 34.5518 76.0146C35.4435 76.0146 36.3352 76.0146 37.2268 76.0146C37.4497 76.0146 37.5612 76.0146 37.7841 76.0146C39.1216 76.0146 40.3477 76.0146 41.6852 76.0146C41.9081 76.0146 42.0195 76.0146 42.2424 76.0146C42.6883 76.0146 43.1341 76.0146 43.5799 76.0146C44.3602 76.0146 45.2518 76.0146 46.032 76.0146C46.2549 76.0146 46.3664 76.0146 46.5893 76.0146C47.0352 76.0146 47.5924 76.0146 48.0383 76.0146C48.9299 76.0146 49.7102 76.0146 50.6018 76.0146L50.9362 76.349Z" fill="#1B555A"/>
<path d="M42.6888 80.3615H42.243C41.9086 80.1386 41.6857 79.9157 41.3513 79.5813C41.0169 79.2469 40.6826 78.9125 40.2367 78.5782C40.0138 78.3553 39.9023 78.2438 39.6794 78.0209C39.568 77.9094 39.568 77.9094 39.4565 77.798C38.8992 77.2407 38.2305 76.7948 37.6732 76.2375L37.5617 76.1261C37.4503 76.0146 37.2273 75.9032 37.1159 75.6803C36.3357 75.0115 35.5555 74.4542 34.8867 73.7855H35.3326C35.6669 74.0084 36.0013 74.2313 36.2242 74.4542C36.6701 74.7886 37.1159 75.2344 37.5617 75.5688C37.7846 75.7917 38.0076 75.9032 38.119 76.1261C38.6763 76.6834 39.3451 77.1292 39.9023 77.6865C40.0138 77.798 40.0138 77.798 40.1253 77.9094C40.3482 78.1323 40.5711 78.2438 40.6826 78.4667C41.0169 78.8011 41.4628 79.024 41.7971 79.3584C42.243 79.8042 42.4659 80.1386 42.6888 80.3615Z" fill="#1B555A"/>
<path d="M47.0346 80.3615H46.5888C46.2544 80.1386 46.0315 79.9157 45.6971 79.5813C45.3628 79.2469 45.0284 78.9125 44.5826 78.5782C44.3596 78.3553 44.2482 78.2438 44.0253 78.0209C43.9138 77.9094 43.9138 77.9094 43.8023 77.798C43.2451 77.2407 42.5763 76.7948 42.019 76.2375L41.9076 76.1261C41.7961 76.0146 41.5732 75.9032 41.4617 75.6803C40.6815 75.0115 39.9013 74.4542 39.1211 73.7855H39.5669C39.9013 74.0084 40.2357 74.2313 40.5701 74.5657C41.0159 74.9 41.4617 75.3459 41.9076 75.6803C42.1305 75.9032 42.3534 76.0146 42.4648 76.2375C43.0221 76.7948 43.6909 77.2407 44.2482 77.798C44.3596 77.9094 44.3596 77.9094 44.4711 78.0209C44.694 78.2438 44.9169 78.3553 45.0284 78.5782C45.3628 78.9125 45.8086 79.1355 46.143 79.4698C46.5888 79.8042 46.8117 80.1386 47.0346 80.3615Z" fill="#1B555A"/>
<path d="M51.4917 80.3615H51.0458C50.7115 80.1386 50.4885 79.9157 50.1542 79.5813C49.8198 79.2469 49.4854 78.9125 49.0396 78.5782C48.8167 78.3552 48.7052 78.2438 48.4823 78.1323C48.3708 78.0209 48.3708 78.0209 48.2594 77.9094C47.7021 77.3521 47.0333 76.9063 46.476 76.349L46.3646 76.2375C46.2531 76.1261 46.0302 76.0146 45.9188 75.7917C45.1385 75.1229 44.3583 74.5657 43.5781 73.8969H44.024C44.3583 74.1198 44.6927 74.4542 45.0271 74.6771C45.4729 75.0115 45.9188 75.4573 46.3646 75.7917C46.5875 75.9032 46.8104 76.1261 46.9219 76.2375C47.4792 76.7948 48.1479 77.2407 48.7052 77.798C48.8167 77.9094 48.8167 77.9094 48.9281 78.0209C49.151 78.1323 49.374 78.3552 49.4854 78.4667C49.8198 78.8011 50.2656 79.1354 50.6 79.3584C50.9344 79.8042 51.1573 80.1386 51.4917 80.3615Z" fill="#1B555A"/>
<path d="M44.693 83.4823H40.0117V88.275H44.693V83.4823Z" fill="#9B462F"/>
<path d="M44.1349 84.1511H40.6797V87.6063H44.1349V84.1511Z" fill="#32191C"/>
<path d="M44.4693 86.0459C44.4693 85.7115 43.912 85.7115 43.6891 85.7115C43.3547 85.7115 42.9089 85.7115 42.5745 85.7115C42.2401 85.7115 41.7943 85.7115 41.4599 85.7115C41.1255 85.7115 40.5682 85.7115 40.3453 85.9344C40.2339 86.0459 40.2339 86.1573 40.3453 86.2688C40.5682 86.4917 41.1255 86.4917 41.4599 86.4917C41.7943 86.4917 42.2401 86.4917 42.5745 86.4917C42.9089 86.4917 43.3547 86.4917 43.6891 86.4917C43.912 86.3802 44.4693 86.3802 44.4693 86.0459Z" fill="#9B462F"/>
<path d="M42.7999 85.9344C42.7999 85.6 42.7999 85.2656 42.7999 84.9312C42.7999 84.5969 42.7999 84.151 42.6884 83.8167C42.5769 83.5937 42.354 83.5937 42.2426 83.8167C42.1311 84.151 42.1311 84.4854 42.1311 84.9312C42.1311 85.2656 42.1311 85.6 42.1311 85.9344C42.1311 86.6031 42.0197 87.3833 42.354 88.0521C42.354 88.1635 42.5769 88.1635 42.5769 88.0521C42.9113 87.3833 42.7999 86.6031 42.7999 85.9344Z" fill="#9B462F"/>
<path d="M50.9352 83.4823H46.2539V88.275H50.9352V83.4823Z" fill="#9B462F"/>
<path d="M50.3771 84.1511H46.9219V87.6063H50.3771V84.1511Z" fill="#32191C"/>
<path d="M50.7115 86.0459C50.7115 85.7115 50.1542 85.7115 49.9312 85.7115C49.5969 85.7115 49.151 85.7115 48.8167 85.7115C48.4823 85.7115 48.0365 85.7115 47.7021 85.7115C47.3677 85.7115 46.8104 85.7115 46.5875 85.9344C46.476 86.0459 46.476 86.1573 46.5875 86.2688C46.8104 86.4917 47.3677 86.4917 47.7021 86.4917C48.0365 86.4917 48.4823 86.4917 48.8167 86.4917C49.151 86.4917 49.5969 86.4917 49.9312 86.4917C50.1542 86.3802 50.7115 86.3802 50.7115 86.0459Z" fill="#9B462F"/>
<path d="M49.1514 85.9344C49.1514 85.6 49.1514 85.2656 49.1514 84.9312C49.1514 84.5969 49.1514 84.151 49.04 83.8167C48.9285 83.5937 48.7056 83.5937 48.5941 83.8167C48.4827 84.151 48.4827 84.4854 48.4827 84.9312C48.4827 85.2656 48.4827 85.6 48.4827 85.9344C48.4827 86.6031 48.3712 87.3833 48.7056 88.0521C48.7056 88.1635 48.9285 88.1635 48.9285 88.0521C49.1514 87.3833 49.1514 86.6031 49.1514 85.9344Z" fill="#9B462F"/>
<path d="M32.7702 88.0521C32.5473 87.6063 31.99 87.2719 31.4327 87.4948C31.6556 86.9375 31.4327 86.2688 30.9869 85.9344C30.4296 85.6 29.9837 85.7115 29.4265 85.9344C29.6494 85.3771 29.5379 84.8198 29.2035 84.374C28.8692 83.9281 28.3119 83.7052 27.7546 83.8167C27.1973 83.9281 26.64 84.2625 26.3056 84.4854C26.0827 83.8167 25.5254 83.3708 24.8567 83.3708C24.1879 83.3708 23.5192 83.7052 23.1848 84.2625C22.8504 84.8198 22.9619 85.4886 23.0733 86.1573C22.4046 86.2688 21.8473 86.6031 21.5129 87.1604C21.1785 87.7177 21.1785 88.3865 21.4015 89.0552L32.8817 89.724C32.8817 89.1667 32.9931 88.6094 32.7702 88.0521Z" fill="#8BC53F"/>
<path d="M33.9945 88.7208V91.6187C31.431 91.6187 29.4247 91.5073 29.4247 91.5073H20.2852L20.3966 88.7208H33.9945Z" fill="#29666E"/>
<path d="M12.485 88.0521C12.2621 87.6063 11.7048 87.2719 11.1475 87.4948C11.3705 86.9375 11.1475 86.2688 10.7017 85.9344C10.1444 85.6 9.69859 85.7115 9.1413 85.9344C9.36421 85.3771 9.25275 84.8198 8.91838 84.374C8.584 83.9281 8.02671 83.7052 7.46942 83.8167C6.91213 83.9281 6.35484 84.2625 6.02046 84.4854C5.79755 83.8167 5.24025 83.3708 4.5715 83.3708C3.90275 83.3708 3.234 83.7052 2.89963 84.2625C2.56525 84.8198 2.67671 85.4886 2.78817 86.1573C2.11942 86.2688 1.56213 86.6031 1.22776 87.1604C0.89338 87.7177 0.89338 88.3865 1.1163 89.0552L12.5965 89.724C12.5965 89.1667 12.708 88.6094 12.485 88.0521Z" fill="#8BC53F"/>
<path d="M13.7094 88.7208V91.6187C11.1458 91.6187 9.13958 91.5073 9.13958 91.5073H0L0.111458 88.7208H13.7094Z" fill="#29666E"/>
<path d="M84.2625 38.1188L75.2344 65.4261L76.2375 65.5375L84.8198 38.2302L84.2625 38.1188Z" fill="#251115"/>
<path d="M106.999 47.1469C106.999 47.1469 103.655 45.1406 97.0794 45.5865H96.968C96.8565 45.3636 96.6336 45.1406 96.4107 44.9177C94.5159 43.1344 88.6086 40.7938 83.8159 41.1281C83.7044 41.1281 83.7044 41.1281 83.593 41.1281C83.4815 41.0167 83.3701 40.9052 83.2586 40.7938C80.8065 38.3417 75.4565 36.5584 70.1065 37.0042C69.9951 37.0042 69.9951 37.0042 69.8836 37.0042C69.7721 36.8927 69.7721 36.8927 69.6607 36.7813C64.9794 32.2115 60.8555 32.3229 60.8555 32.3229C64.868 28.8677 69.5492 26.8615 74.0076 25.8584C79.5805 24.5209 84.7076 24.6323 87.2711 24.7438C87.3826 24.7438 87.3826 24.7438 87.494 24.7438C87.8284 24.7438 88.0513 24.7438 88.3857 24.8552H88.4971C88.6086 24.8552 88.8315 24.8552 88.8315 24.8552C88.943 24.8552 89.0544 24.8552 89.0544 24.8552C89.0544 24.8552 89.0544 24.8552 89.1659 24.9667C89.2773 25.0781 89.6117 25.3011 90.0576 25.6354C90.169 25.7469 90.3919 25.8584 90.5034 25.9698C92.844 27.7531 97.6367 31.4313 101.092 35.1094C102.318 36.4469 103.321 38.0073 104.213 39.4563C106.33 43.4688 106.999 47.1469 106.999 47.1469Z" fill="#29666E"/>
<path d="M106.999 47.1469C106.999 47.1469 103.655 45.1406 97.0794 45.5865H96.968C96.8565 45.3635 96.6336 45.1406 96.4107 44.9177C94.5159 43.1344 88.6086 40.7938 83.8159 41.1281C83.7044 41.1281 83.7044 41.1281 83.593 41.1281C83.4815 41.0167 83.3701 40.9052 83.2586 40.7938C80.8065 38.3417 75.4565 36.5583 70.1065 37.0042C69.9951 37.0042 69.9951 37.0042 69.8836 37.0042C69.7721 36.8927 69.7721 36.8927 69.6607 36.7813C64.9794 32.2115 60.8555 32.3229 60.8555 32.3229C64.868 28.8677 69.5492 26.8615 74.0076 25.8583C78.5773 31.0969 88.943 39.2333 104.101 39.4563C106.33 43.4688 106.999 47.1469 106.999 47.1469Z" fill="#1B555A"/>
<path d="M88.4984 24.9667C88.2755 25.0781 87.9411 25.1896 87.7182 25.3011C86.7151 25.6354 85.8234 26.0813 84.9318 26.4156C81.588 27.8646 78.4672 29.7594 75.6807 31.9886C74.2318 33.1031 72.8943 34.3292 71.6682 35.5552C71.2224 36.0011 70.7766 36.5584 70.2193 37.0042C70.1078 37.0042 70.1078 37.0042 69.9964 37.0042C69.8849 36.8927 69.8849 36.8927 69.7734 36.7813C70.4422 36.1125 71.1109 35.3323 71.7797 34.775C74.3432 32.2115 77.3526 29.9823 80.4734 28.0875C82.0339 27.1959 83.7057 26.3042 85.3776 25.6354C86.0464 25.3011 86.7151 25.0781 87.4953 24.8552C87.9411 24.8552 88.2755 24.9667 88.4984 24.9667C88.4984 24.8552 88.4984 24.8552 88.4984 24.9667Z" fill="#1B555A"/>
<path d="M88.944 24.9667C88.944 25.0781 88.944 25.1896 88.8325 25.3011C88.7211 25.6354 88.6096 25.9698 88.4982 26.4156C88.2753 27.1958 88.0523 27.8646 87.8294 28.6448C87.0492 31.3198 86.1575 33.8833 85.3773 36.5583C84.9315 37.8958 84.5971 39.1219 84.1513 40.4594C84.0398 40.6823 83.9284 41.0167 83.9284 41.2396C83.8169 41.2396 83.8169 41.2396 83.7055 41.2396C83.594 41.1281 83.4826 41.0167 83.3711 40.9052C83.4826 40.4594 83.594 40.125 83.7055 39.6792C84.4857 37.0042 85.3773 34.4406 86.1576 31.7656C86.6034 30.4281 87.0492 29.0906 87.495 27.7531C87.718 27.0844 87.9409 26.4156 88.1638 25.8583C88.2753 25.6354 88.3867 25.3011 88.3867 25.0781C88.6096 24.9667 88.8326 24.9667 88.944 24.9667Z" fill="#1B555A"/>
<path d="M96.8547 42.6886C96.9661 43.5802 97.0776 44.4719 97.0776 45.2521C97.0776 45.3636 97.0776 45.475 97.0776 45.475H96.9661C96.8547 45.2521 96.6318 45.0292 96.4089 44.8063C96.2974 43.9146 96.1859 43.0229 96.0745 42.2427C95.5172 38.7875 94.5141 35.4438 93.1766 32.3229C92.5078 30.7625 91.7276 29.2021 90.8359 27.6417C90.3901 26.8615 89.9443 26.1927 89.4984 25.4125C89.387 25.1896 89.2755 25.0781 89.1641 24.8552C89.387 24.9667 89.8328 25.3011 90.5016 25.8584C90.9474 26.4156 91.3932 27.0844 91.7276 27.7531C93.5109 30.7625 94.8484 33.9948 95.8516 37.3386C96.2974 39.2333 96.6318 41.0167 96.8547 42.6886Z" fill="#1B555A"/>
<path d="M90.2786 24.7437C90.3901 25.0781 90.2786 25.4125 90.0557 25.7469L87.4922 24.8552C87.6036 24.2979 87.938 23.8521 88.6068 23.7406C89.387 23.5177 90.1672 23.9635 90.2786 24.7437Z" fill="#251115"/>
<path d="M88.4967 24.2979C88.3852 24.1865 90.3915 19.0594 90.3915 19.0594L91.2831 19.3938C91.2831 19.3938 89.8342 24.7438 89.7227 24.7438C89.7227 24.5208 88.4967 24.2979 88.4967 24.2979Z" fill="#251115"/>
<path d="M75.6796 62.1938L77.5744 62.7511C77.5744 62.7511 75.2338 70.4417 74.4536 71.7792C73.7849 73.1167 72.7817 73.5625 71.1098 73.4511C69.438 73.3396 68.5463 72.1136 68.6578 70.6646C68.7692 69.2157 69.5494 66.7636 69.8838 66.6521C70.2182 66.5407 71.4442 66.7636 71.2213 67.5438C70.9984 68.4355 70.4411 70.2188 70.5526 70.7761C70.664 71.3334 71.1099 72.3365 72.2244 71.7792C73.339 71.2219 75.6796 62.1938 75.6796 62.1938Z" fill="#1B555A"/>
<path d="M52.833 62.6396L42.133 65.7604C40.5726 72.225 39.5695 79.4698 42.3559 83.3708C45.1424 87.2719 49.0435 90.2813 52.833 91.8417C52.833 75.7917 52.833 62.6396 52.833 62.6396Z" fill="#8BC53F"/>
<path d="M52.832 62.6396L63.532 65.8719C65.0924 72.3365 66.0956 79.5813 63.3091 83.4823C60.5227 87.3833 56.6216 90.3927 52.832 91.9531C52.832 75.7917 52.832 62.6396 52.832 62.6396Z" fill="#5E871D"/>
<path d="M44.1387 67.3208C44.1387 67.3208 42.021 75.6802 43.5814 80.25C45.1418 84.7083 48.9314 87.6062 52.8325 89.1667C52.8325 77.9094 52.8325 65.3146 52.8325 65.3146L44.1387 67.3208Z" fill="#B2E069"/>
<path d="M61.4164 67.3208C61.4164 67.3208 63.5341 75.6802 61.9737 80.25C60.4133 84.7083 56.6237 87.6062 52.7227 89.1667C52.7227 77.9094 52.7227 65.3146 52.7227 65.3146L61.4164 67.3208Z" fill="#8BC53F"/>
<path d="M57.8479 74.4542H47.5938V77.3521H57.8479V74.4542Z" fill="white"/>
<path d="M54.168 81.0446V70.7904H51.2701V81.0446H54.168Z" fill="white"/>
<path d="M32.6597 35.5552C27.6441 34.3292 25.192 38.899 25.192 38.899C25.192 38.899 22.7399 34.2177 17.7243 35.5552C12.7087 36.7813 12.8201 43.2458 14.1576 46.1438C15.4951 49.0417 22.8514 54.949 25.192 55.1719C27.6441 54.8375 34.8889 49.0417 36.2264 46.1438C37.5639 43.2458 37.6753 36.8927 32.6597 35.5552Z" fill="#F44A56"/>
<path d="M38.5659 45.5865C38.4544 45.475 38.343 45.3636 38.1201 45.3636C36.6711 45.2521 35.2221 45.3636 33.6617 45.3636C32.5471 45.3636 31.544 45.475 30.4294 45.3636C30.2065 45.3636 29.9836 45.3636 29.7607 45.2521C29.6492 45.1406 29.5378 44.9177 29.5378 44.6948C29.4263 44.3604 29.3148 44.0261 29.2034 43.6917C29.0919 43.3573 28.9805 43.0229 28.869 42.8C28.7576 42.5771 28.6461 42.2427 28.5346 41.9083C28.4232 41.4625 27.7544 41.4625 27.7544 41.9083L27.4201 44.6948C27.4201 45.1406 27.3086 45.5865 27.3086 46.1438C27.3086 46.2552 27.3086 46.4781 27.3086 46.5896C26.6398 45.5865 26.194 44.3604 25.8596 43.2459C25.7482 42.8 25.0794 43.0229 25.0794 43.3573C24.7451 44.9177 24.5221 46.5896 24.0763 48.15C23.1846 46.2552 22.5159 44.4719 21.9586 42.4656C21.8471 42.1313 21.2898 41.9084 21.0669 42.3542C20.844 42.9115 20.6211 43.5802 20.3982 44.1375C20.1753 44.5833 20.0638 45.2521 19.5065 45.475C19.2836 45.5865 18.9492 45.5865 18.7263 45.5865C18.2805 45.5865 17.7232 45.5865 17.2773 45.5865C16.8315 45.5865 16.4971 45.5865 16.0513 45.5865C14.7138 45.5865 13.3763 45.5865 11.9273 45.5865C11.2586 45.5865 11.2586 46.4781 11.9273 46.5896C13.2648 46.7011 14.7138 46.7011 16.0513 46.7011C16.6086 46.7011 17.0544 46.7011 17.6117 46.7011C18.2805 46.7011 18.8378 46.7011 19.5065 46.7011C19.7294 46.7011 19.9523 46.7011 20.0638 46.5896C20.3982 46.4781 20.6211 46.1438 20.7326 45.8094C20.9555 45.475 21.1784 45.0292 21.2898 44.5834C21.4013 44.3604 21.5128 44.1375 21.6242 43.9146C22.293 45.9209 23.0732 47.8156 23.9648 49.7104C24.1878 50.1563 24.7451 50.0448 24.7451 49.599C25.0794 48.0386 25.4138 46.5896 25.6367 45.0292C26.0826 46.0323 26.5284 46.924 27.1971 47.8156C27.3086 48.0386 27.7544 48.0386 27.8659 47.8156C28.3117 47.0354 28.3117 46.0323 28.4232 45.1406C28.5346 44.5834 28.5346 44.1375 28.6461 43.5802C28.7576 43.8031 28.7576 44.0261 28.869 44.249C28.9805 44.4719 28.9805 44.8063 29.0919 45.0292C29.2034 45.2521 29.0919 45.475 29.2034 45.8094C29.3148 46.0323 29.5378 46.2552 29.7607 46.3667C30.0951 46.4781 30.4294 46.4781 30.7638 46.4781C31.8784 46.2552 32.8815 46.3667 33.9961 46.3667C35.4451 46.3667 36.894 46.3667 38.343 46.3667C38.4544 46.3667 38.6773 46.3667 38.7888 46.1438C38.7888 46.1438 38.7888 46.1438 38.7888 46.0323C38.6773 45.8094 38.6773 45.6979 38.5659 45.5865Z" fill="white"/>
<path d="M76.9066 20.0626C76.4608 19.8396 73.7858 22.2917 75.7921 22.9605C77.6869 23.5178 77.4639 20.2855 76.9066 20.0626Z" fill="#D3E9FE"/>
<path d="M95.2973 22.4031C94.8514 22.1802 92.1764 24.6323 94.1827 25.301C95.966 25.9698 95.7431 22.7375 95.2973 22.4031Z" fill="#D3E9FE"/>
<path d="M86.6035 14.824C86.2691 14.6011 84.1514 16.4959 85.7118 17.0532C87.1608 17.6104 86.9379 15.0469 86.6035 14.824Z" fill="#D3E9FE"/>
<path d="M93.1777 31.3198C92.8433 31.0969 90.7256 32.9917 92.286 33.549C93.735 34.1063 93.5121 31.5428 93.1777 31.3198Z" fill="#D3E9FE"/>
<path d="M101.314 26.0812C100.98 25.8583 98.8623 27.7531 100.423 28.3104C101.872 28.8677 101.76 26.3042 101.314 26.0812Z" fill="#D3E9FE"/>
<path d="M86.0474 92.2875C91.8337 92.2875 96.5245 87.5968 96.5245 81.8105C96.5245 76.0241 91.8337 71.3334 86.0474 71.3334C80.2611 71.3334 75.5703 76.0241 75.5703 81.8105C75.5703 87.5968 80.2611 92.2875 86.0474 92.2875Z" fill="#F44A56"/>
<path d="M86.0482 89.6125C90.3571 89.6125 93.8503 86.1194 93.8503 81.8104C93.8503 77.5015 90.3571 74.0084 86.0482 74.0084C81.7392 74.0084 78.2461 77.5015 78.2461 81.8104C78.2461 86.1194 81.7392 89.6125 86.0482 89.6125Z" fill="white"/>
<path d="M89.8385 76.7948C88.3896 78.6896 84.6 82.4792 80.9219 87.049C84.8229 85.2657 89.6156 79.9157 91.2875 77.9094C91.6219 77.575 91.6219 76.9063 91.176 76.5719C90.7302 76.349 90.1729 76.349 89.8385 76.7948Z" fill="#F44A56"/>
<path d="M81.0334 78.1323C82.9282 79.5813 87.498 83.5938 91.2876 86.8261C89.9501 82.5906 84.1542 78.3552 82.2594 76.6834C81.9251 76.349 81.2563 76.349 80.9219 76.7948C80.5876 77.2406 80.5876 77.7979 81.0334 78.1323Z" fill="#F44A56"/>
</svg>
