<svg width="158" height="120" viewBox="0 0 158 120" fill="none" xmlns="http://www.w3.org/2000/svg">
<path d="M131.501 17.1H130.801V8.70001H131.501C132.001 8.70001 132.401 9.10001 132.401 9.60001V16.1C132.501 16.7 132.001 17.1 131.501 17.1Z" fill="#505154"/>
<path d="M131.501 27.1H130.801V18.7H131.501C132.001 18.7 132.401 19.1 132.401 19.6V26.1C132.501 26.7 132.001 27.1 131.501 27.1Z" fill="#505154"/>
<path d="M98.5992 20.8H99.2992V12.4H98.5992C98.0992 12.4 97.6992 12.8 97.6992 13.3V19.8C97.6992 20.4 98.0992 20.8 98.5992 20.8Z" fill="#505154"/>
<path d="M128.099 65.2H102.099C100.199 65.2 98.6992 63.7 98.6992 61.8V3.4C98.6992 1.5 100.199 0 102.099 0H128.099C129.999 0 131.499 1.5 131.499 3.4V61.8C131.499 63.7 129.999 65.2 128.099 65.2Z" fill="#D3E9FE"/>
<path d="M128.099 65.2H102.099C100.199 65.2 98.6992 63.7 98.6992 61.8V3.4C98.6992 1.5 100.199 0 102.099 0H128.099C129.999 0 131.499 1.5 131.499 3.4V61.8C131.499 63.7 129.999 65.2 128.099 65.2Z" fill="#A1A1A1"/>
<path d="M102.001 1.59998C101.101 1.59998 100.301 2.39998 100.301 3.29998V61.6C100.301 62.6 101.101 63.3 102.001 63.3H128.101C129.001 63.3 129.801 62.5 129.801 61.6V3.29998C129.801 2.29998 129.001 1.59998 128.101 1.59998H102.001Z" fill="white"/>
<path d="M119.501 5.89998H110.701C110.201 5.89998 109.801 5.49998 109.801 4.99998C109.801 4.49998 110.201 4.09998 110.701 4.09998H119.501C120.001 4.09998 120.401 4.49998 120.401 4.99998C120.401 5.49998 120.001 5.89998 119.501 5.89998Z" fill="#858783"/>
<path d="M114.801 16.2H112.201L109.801 21.9H112.301L113.501 19.1L114.801 16.2Z" fill="#FFC20E"/>
<path d="M118.799 16.3H116.199L117.499 19.3L118.699 22.1H121.199L118.799 16.3Z" fill="#505154"/>
<path d="M116.598 20.8C116.598 20.7 116.598 20.7 116.598 20.6C116.598 20.5 116.498 20.3 116.498 20.2C116.398 20 116.298 19.7 116.198 19.5L115.498 18L114.798 19.5C114.698 19.7 114.598 19.9 114.498 20.2C114.398 20.3 114.398 20.4 114.398 20.6C114.398 20.6 114.398 20.6 114.398 20.7C114.398 20.7 114.398 20.7 114.398 20.8C114.398 20.8 114.398 20.8 114.398 20.9C114.398 20.9 114.398 20.9 114.398 21V21.1L114.498 21.3L114.598 21.4C114.598 21.4 114.598 21.4 114.698 21.4C114.698 21.4 114.698 21.4 114.798 21.4C114.798 21.4 114.798 21.4 114.898 21.4C114.898 21.4 114.898 21.4 114.998 21.4C114.998 21.4 114.998 21.4 115.098 21.4C115.098 21.4 115.098 21.4 115.198 21.4C115.198 21.4 115.198 21.4 115.298 21.4H115.398H115.498H115.598H115.698H115.798H115.898H115.998H116.098C116.098 21.4 116.098 21.4 116.198 21.4C116.198 21.4 116.198 21.4 116.298 21.4C116.298 21.4 116.298 21.4 116.398 21.4C116.398 21.4 116.398 21.4 116.498 21.4C116.498 21.4 116.498 21.4 116.598 21.4C116.598 21.4 116.598 21.4 116.598 21.3C116.598 21.3 116.598 21.3 116.598 21.2L116.698 21.1V21C116.698 21 116.698 21 116.698 20.9C116.598 20.9 116.598 20.8 116.598 20.8Z" fill="#E05826"/>
<path d="M114.8 16.3L113.5 19.2L114.1 20.6L114.3 21.2V21.1C114.3 21.1 114.3 21.1 114.3 21C114.3 21 114.3 21 114.3 20.9C114.3 20.9 114.3 20.9 114.3 20.8C114.3 20.8 114.3 20.8 114.3 20.7C114.3 20.6 114.4 20.4 114.4 20.3C114.5 20.1 114.6 19.9 114.7 19.6L115.4 18L114.8 16.3Z" fill="#F89A59"/>
<path d="M116.2 16.3L117.5 19.2L116.9 20.5L116.6 21.1C116.6 21.1 116.6 21 116.6 20.9C116.6 20.9 116.6 20.9 116.6 20.8C116.6 20.8 116.6 20.8 116.6 20.7C116.6 20.7 116.6 20.7 116.6 20.6C116.6 20.6 116.6 20.6 116.6 20.5C116.6 20.4 116.5 20.2 116.5 20.1C116.4 19.9 116.3 19.6 116.2 19.4L115.5 17.8L116.2 16.3Z" fill="#848689"/>
<path d="M112.098 25.3C111.898 25.3 111.698 25.2 111.598 25.1C111.498 25 111.398 24.9 111.398 24.7H111.698C111.698 24.8 111.798 24.8 111.798 24.9C111.898 25 111.898 25 112.098 25C112.198 25 112.298 25 112.298 24.9C112.298 24.9 112.398 24.8 112.398 24.7C112.398 24.6 112.398 24.6 112.298 24.5C112.198 24.5 112.098 24.4 111.998 24.4C111.898 24.4 111.798 24.4 111.698 24.3C111.598 24.3 111.498 24.2 111.498 24.2C111.398 24.1 111.398 24.1 111.398 24C111.398 23.9 111.498 23.7 111.598 23.6C111.698 23.5 111.898 23.5 112.098 23.5C112.298 23.5 112.398 23.5 112.498 23.6C112.598 23.7 112.698 23.8 112.698 24H112.398C112.398 23.9 112.398 23.9 112.298 23.8C112.198 23.8 112.198 23.7 112.098 23.7C111.998 23.7 111.898 23.7 111.898 23.8L111.798 23.9C111.798 24 111.798 24 111.898 24C111.998 24 112.098 24.1 112.198 24.1C112.298 24.1 112.398 24.2 112.498 24.2C112.598 24.2 112.698 24.3 112.698 24.3C112.798 24.4 112.798 24.5 112.798 24.6C112.798 24.8 112.698 24.9 112.598 25C112.398 25.2 112.298 25.3 112.098 25.3ZM113.098 25.2V23.6H113.398V23.8C113.498 23.7 113.498 23.7 113.598 23.6C113.698 23.6 113.798 23.5 113.898 23.5C114.198 23.5 114.298 23.6 114.398 23.8C114.498 23.7 114.498 23.6 114.598 23.6C114.698 23.5 114.798 23.5 114.898 23.5C115.098 23.5 115.298 23.6 115.398 23.7C115.498 23.8 115.598 24 115.598 24.3V25.2H115.298V24.3C115.298 24 115.198 23.8 114.898 23.8C114.798 23.8 114.698 23.8 114.598 23.9C114.498 24 114.498 24.1 114.498 24.3V25.1H114.198V24.2C114.198 23.9 114.098 23.7 113.798 23.7C113.698 23.7 113.598 23.7 113.498 23.8C113.398 23.9 113.398 24 113.398 24.2V25L113.098 25.2ZM116.398 23.3C116.298 23.3 116.298 23.3 116.198 23.2C116.198 23.2 116.098 23.1 116.098 23C116.098 22.9 116.098 22.9 116.198 22.8C116.198 22.8 116.298 22.7 116.398 22.7C116.498 22.7 116.498 22.7 116.598 22.8C116.598 22.8 116.698 22.9 116.698 23C116.698 23.1 116.698 23.1 116.598 23.2C116.498 23.3 116.398 23.3 116.398 23.3ZM116.198 25.3V23.7H116.498V25.3H116.198ZM116.998 25.3V22.9H117.298V25.3H116.998ZM118.598 25.3C118.398 25.3 118.298 25.3 118.198 25.2C118.098 25.1 117.998 25 117.898 24.9C117.798 24.8 117.798 24.6 117.798 24.5C117.798 24.3 117.798 24.2 117.898 24C117.998 23.9 118.098 23.8 118.198 23.7C118.298 23.6 118.498 23.6 118.598 23.6C118.798 23.6 118.898 23.6 118.998 23.7C119.098 23.8 119.198 23.9 119.298 24C119.398 24.1 119.398 24.3 119.398 24.4C119.398 24.4 119.398 24.4 119.398 24.5V24.6H118.198C118.198 24.8 118.298 24.9 118.298 25C118.398 25.1 118.498 25.1 118.598 25.1C118.698 25.1 118.798 25.1 118.798 25C118.898 25 118.898 24.9 118.998 24.8H119.298C119.298 25 119.198 25.1 118.998 25.2C118.898 25.3 118.798 25.3 118.598 25.3ZM118.598 23.9C118.498 23.9 118.398 23.9 118.298 24C118.198 24.1 118.198 24.2 118.098 24.3H118.998C118.998 24.2 118.998 24.1 118.898 24C118.798 23.9 118.698 23.9 118.598 23.9Z" fill="#636466"/>
<path d="M125.401 31.6V44C125.401 44.4 125.101 44.7 124.701 44.7H105.001C104.601 44.7 104.301 44.4 104.301 44V31.6C104.301 31.2 104.601 30.9 105.001 30.9H124.801C125.101 30.9 125.401 31.2 125.401 31.6Z" fill="#231F20"/>
<path d="M125.399 40.7V43.1C124.999 43.2 124.299 43.2 123.599 43.1C121.999 42.9 120.399 40.9 119.899 39.2C119.399 37.5 119.099 35.9 120.299 33.7C121.399 31.8 122.699 31.4 122.799 31.4C122.799 31.4 121.199 33.8 122.499 37.2C123.099 39.2 124.399 40.2 125.399 40.7Z" fill="#D6D5D5"/>
<path d="M117.402 34.7C117.402 34.7 118.302 33.2 120.302 33.8C122.202 31.9 122.802 31.5 122.802 31.5C122.802 31.5 121.002 31 119.602 32.4C118.102 33.6 117.402 34.7 117.402 34.7Z" fill="#BCBCBD"/>
<path d="M119.501 32.3C119.701 32.2 118.801 32.9 118.901 34.3C119.001 35.8 120.101 41.2 118.501 43C115.801 41.9 115.801 39.5 115.801 39.5C115.801 39.5 116.401 38.7001 116.401 37.9001C116.401 37.1001 116.201 35.8001 116.701 34.9001C117.201 34.4001 119.401 32.5 119.501 32.3Z" fill="#F9F9F8"/>
<path d="M113.399 33.1C113.399 33.1 114.699 33.4 115.399 34.6C115.999 35.7 116.899 39.1 117.099 39.9C117.299 40.6 117.999 42.5 118.599 43.1C118.399 43.4 117.899 43.8 117.499 43.9C116.999 43.9 115.999 43.5 115.399 42.8C114.899 42.2 114.099 41.1 113.499 39.4C112.899 37.7 111.899 33.6 111.199 33C111.899 32.7 113.399 33.1 113.399 33.1Z" fill="#D6D5D5"/>
<path d="M105.902 32.5C105.902 32.5 107.102 31.6 109.002 31.7C109.902 31.8 111.402 32.4 113.402 33.1C111.802 32.9 110.602 33.2 109.402 34.2C107.102 33.1 105.902 32.5 105.902 32.5Z" fill="#BCBCBD"/>
<path d="M111.401 44.7H106.001C107.101 44 108.401 42.6 108.701 40.5C109.301 36.9 107.701 33.8 105.801 32.5C105.801 32.5 108.601 33.2 109.801 33.9C109.801 33.9 109.801 33.9 109.901 33.9C111.201 34.9 112.701 36.7 112.901 40.2C113.001 42 112.201 43.6 111.401 44.7Z" fill="#D6D5D5"/>
<path d="M122.502 33.9001L122.402 34.2001L122.302 33.9001H122.102V34.5001H122.302V34.2001C122.302 34.2001 122.402 34.3001 122.402 34.4001C122.402 34.4001 122.402 34.4001 122.502 34.4001C122.502 34.4001 122.502 34.4001 122.602 34.4001L122.702 34.2001V34.5001H122.902V33.9001H122.502Z" fill="white"/>
<path d="M122.703 34.5001V33.9001H123.103V34.0001H122.803V34.1001H123.003V34.2001H122.803V34.3001H123.103V34.4001L122.703 34.5001Z" fill="white"/>
<path d="M123.703 34.4001C123.603 34.5001 123.603 34.5001 123.503 34.5001C123.403 34.5001 123.403 34.5001 123.303 34.4001C123.203 34.3001 123.203 34.2001 123.203 34.1001C123.203 34.0001 123.203 33.9001 123.303 33.8001C123.303 33.8001 123.403 33.7001 123.503 33.7001C123.703 33.7001 123.703 33.8001 123.703 33.9001H123.503C123.503 33.9001 123.503 33.8001 123.403 33.8001H123.303C123.303 33.8001 123.303 33.8001 123.303 34.0001C123.303 34.1001 123.303 34.1001 123.303 34.2001C123.303 34.2001 123.303 34.2001 123.403 34.2001H123.503C123.503 34.2001 123.503 34.2001 123.503 34.1001H123.403V34.0001H123.603V34.1001C123.803 34.3001 123.703 34.4001 123.703 34.4001Z" fill="white"/>
<path d="M124.101 33.9001H124.001L123.801 34.5001H124.001V34.4001H124.201V34.5001H124.401L124.101 33.9001ZM124.001 34.3001L124.101 34.1001L124.201 34.3001H124.001Z" fill="white"/>
<path d="M120.001 34.5001H119.801V33.9001H120.001C120.101 33.9001 120.201 34.0001 120.201 34.1001C120.201 34.2001 120.201 34.2001 120.101 34.2001C120.201 34.2001 120.201 34.3001 120.201 34.4001C120.201 34.4001 120.101 34.5001 120.001 34.5001ZM120.001 33.9001H119.801V34.1001H120.001C120.101 34.1001 120.101 34.1001 120.101 34.0001L120.001 33.9001ZM120.001 34.2001H119.801V34.4001H120.001C120.101 34.4001 120.101 34.4001 120.101 34.3001C120.101 34.2001 120.101 34.2001 120.001 34.2001Z" fill="white"/>
<path d="M120.702 34.5001L120.602 34.4001H120.302L120.202 34.5001H120.102L120.302 33.9001H120.402L120.702 34.5001ZM120.502 34.0001L120.402 34.3001H120.602L120.502 34.0001Z" fill="white"/>
<path d="M121.201 34.5001L120.901 34.0001V34.5001H120.801V33.9001H120.901L121.201 34.4001V33.9001H121.301L121.201 34.5001Z" fill="white"/>
<path d="M121.802 34.5001L121.602 34.2001L121.502 34.4001V34.6001H121.402V34.0001H121.502V34.4001L121.802 34.0001H121.902L121.702 34.2001L121.802 34.5001Z" fill="white"/>
<path d="M121.802 31.8H121.102L120.402 33.4001H121.102L121.402 32.6L121.802 31.8Z" fill="#FFC20E"/>
<path d="M122.899 31.8H122.199L122.599 32.6L122.899 33.4001H123.599L122.899 31.8Z" fill="#505154"/>
<path d="M122.302 33.1C122.302 33 122.302 33.0001 122.202 32.9001C122.202 32.8001 122.102 32.8001 122.102 32.7001L121.902 32.3L121.702 32.7001C121.702 32.8001 121.602 32.8001 121.602 32.9001V33V33.1H122.302C122.302 33.2 122.302 33.2 122.302 33.1Z" fill="#E05826"/>
<path d="M121.802 31.8L121.402 32.6L121.602 33L121.702 33.2001V33.1C121.702 33 121.802 33.0001 121.802 32.9001L122.002 32.5L121.802 31.8Z" fill="#F89A59"/>
<path d="M122.2 31.8L122.6 32.6L122.4 33L122.3 33.2001V33.1C122.3 33 122.2 33.0001 122.2 32.9001L122 32.5L122.2 31.8Z" fill="#848689"/>
<path d="M109.602 40.3H106.102V39.5H109.602V40.3Z" fill="white"/>
<path d="M111.1 43.4H106V42.6H111.1V43.4Z" fill="white"/>
<path d="M107.802 41.1H106.102V40.7H107.802V41.1Z" fill="white"/>
<path d="M107.202 41.6H106.102V41.3H107.202V41.6Z" fill="white"/>
<path d="M106.902 42.2001H106.102V41.8H106.902V42.2001Z" fill="white"/>
<path d="M114.301 40.3H110.801V39.5H114.301V40.3Z" fill="white"/>
<path d="M119 39.5H115.5V40.4H119V39.5Z" fill="white"/>
<path d="M123.699 39.5H120.199V40.4H123.699V39.5Z" fill="white"/>
<path d="M123.3 42H123.4C123.4 42.1 123.5 42.3 123.5 42.4C123.5 42.6 123.6 42.9 123.6 43.1C123.6 43.2 123.6 43.2 123.6 43.3C123.5 43.3 123.4 43.3 123.3 43.3C123.3 43.2 123.3 43.2 123.3 43.1C123.2 43.1 123 43.1 122.9 43.1C122.9 43.2 122.9 43.2 122.8 43.3C122.7 43.3 122.6 43.3 122.5 43.3C122.6 43 122.7 42.8 122.8 42.5C122.8 42.4 122.9 42.3 122.9 42.2C122.9 42.1 123 42.1 123 42.1C123.2 42 123.2 42 123.3 42ZM123.2 42.4C123.1 42.6 123.1 42.7 123 42.8C123.1 42.8 123.2 42.8 123.2 42.8C123.2 42.7 123.2 42.6 123.1 42.5C123.2 42.4 123.2 42.4 123.2 42.4Z" fill="white"/>
<path d="M120.502 42.9C120.502 42.8 120.502 42.8 120.602 42.7C120.702 42.5 120.802 42.3 120.802 42.1C120.802 42.1 120.802 42.1 120.802 42C120.902 42 121.002 42 121.102 42C121.102 42.1 121.002 42.2 121.002 42.3C120.902 42.5 120.902 42.6 120.802 42.8C120.702 42.9 120.702 43.1 120.602 43.2C120.502 43.2 120.402 43.2 120.302 43.2C120.202 42.9 120.202 42.7 120.102 42.4C120.102 42.3 120.102 42.3 120.002 42.2C120.002 42.2 120.002 42.1 119.902 42.1C119.802 42.1 119.702 42 119.602 42C119.802 42 120.002 42 120.102 42C120.202 42 120.302 42.1 120.302 42.1C120.302 42.2 120.402 42.4 120.402 42.5C120.402 42.7 120.402 42.8 120.502 42.9C120.502 42.8 120.502 42.8 120.502 42.9Z" fill="white"/>
<path d="M122.003 43.3C121.903 43.3 121.803 43.3 121.703 43.3V43.2V43.1C121.803 43.1 121.803 43.2 121.903 43.2C122.003 43.2 122.003 43.2 122.103 43.2C122.103 43.2 122.103 43.2 122.203 43.2C122.303 43.2 122.303 43.1 122.203 43C122.203 43 122.103 43 122.103 42.9C122.103 42.9 122.003 42.9 122.003 42.8L121.903 42.7C121.803 42.6 121.803 42.5 121.803 42.4C121.803 42.3 121.903 42.2 122.003 42.2C122.103 42.1 122.203 42.1 122.303 42.1C122.403 42.1 122.403 42.1 122.503 42.1C122.603 42.1 122.703 42.1 122.803 42.2C122.803 42.3 122.803 42.4 122.703 42.4C122.603 42.4 122.503 42.3 122.403 42.3H122.303C122.303 42.3 122.203 42.4 122.303 42.4C122.303 42.4 122.403 42.4 122.403 42.5C122.503 42.5 122.503 42.6 122.603 42.6C122.703 42.6 122.703 42.7 122.703 42.8C122.703 42.9 122.703 43 122.703 43.1C122.703 43.2 122.603 43.3 122.503 43.3C122.203 43.3 122.103 43.3 122.003 43.3Z" fill="white"/>
<path d="M121.2 43.3C121.1 43.3 121.1 43.3 121 43.3C121.1 43 121.1 42.8 121.2 42.5C121.2 42.3 121.3 42.2 121.3 42C121.4 42 121.5 42 121.6 42C121.5 42.3 121.5 42.6 121.4 42.9C121.4 43 121.3 43.1 121.3 43.3H121.2Z" fill="white"/>
<path d="M113.199 41.6H112.199V41.3H113.199V41.6Z" fill="white"/>
<path d="M115.498 41.2H113.598V41.9H115.498V41.2Z" fill="white"/>
<path d="M112.899 42.2H112.199V41.8H112.899V42.2Z" fill="white"/>
<path fill-rule="evenodd" clip-rule="evenodd" d="M111.298 37.4C111.298 37.7 111.198 38 111.098 38.3L110.998 38.4C110.898 38.4 110.898 38.3 110.898 38.3C111.098 38 111.098 37.7 111.098 37.3C111.098 37.1 110.998 36.9 110.898 36.7C110.898 36.7 110.898 36.7 110.898 36.6C110.898 36.5 110.898 36.5 110.898 36.5H110.998C111.098 36.6 111.098 36.8 111.198 36.9C111.198 37 111.298 37.2 111.298 37.4Z" fill="#231F20"/>
<path fill-rule="evenodd" clip-rule="evenodd" d="M110.9 37.5C110.9 37.7 110.8 37.9 110.7 38.1C110.7 38.1 110.7 38.2 110.6 38.2H110.5V38.1V38C110.6 37.9 110.6 37.7 110.6 37.6C110.6 37.3 110.6 37.1 110.5 36.9C110.5 36.8 110.5 36.8 110.5 36.8H110.6C110.6 36.9 110.7 36.9 110.7 37C110.8 37 110.9 37.2 110.9 37.5Z" fill="#231F20"/>
<path fill-rule="evenodd" clip-rule="evenodd" d="M110.198 36.8C110.298 37 110.398 37.1 110.398 37.2C110.498 37.5 110.398 37.7 110.298 38C110.298 38 110.298 38.1 110.198 38.1C110.098 38.1 110.098 38 110.098 38C110.198 37.7 110.198 37.5 110.098 37.2C110.098 36.9 110.098 36.8 110.198 36.8Z" fill="#231F20"/>
<path fill-rule="evenodd" clip-rule="evenodd" d="M109.999 37.4C109.999 37.5 109.999 37.6 109.899 37.8C109.899 37.8 109.799 37.9 109.799 37.8C109.799 37.8 109.699 37.8 109.699 37.7V37.6C109.699 37.5 109.799 37.5 109.799 37.4C109.799 37.3 109.799 37.2 109.699 37.1C109.699 37.1 109.699 37.1 109.699 37V36.9H109.799C109.899 37 109.899 37.1 109.899 37.1C109.999 37.3 109.999 37.4 109.999 37.4Z" fill="#231F20"/>
<path fill-rule="evenodd" clip-rule="evenodd" d="M109.1 36.6V38.2C109.1 38.4 108.9 38.6 108.7 38.6H106.4C106.2 38.6 106 38.4 106 38.2V36.6C106 36.4 106.2 36.2 106.4 36.2H108.7C108.9 36.2 109.1 36.4 109.1 36.6Z" fill="#FBC800"/>
<path fill-rule="evenodd" clip-rule="evenodd" d="M107.202 36.2V36.6C107.202 36.7 107.202 36.8 107.202 37C107.202 37.1 107.202 37.1 107.202 37.2C107.202 37.3 107.202 37.4 107.202 37.4C107.202 37.5 107.202 37.7 107.202 37.8C107.202 37.9 107.202 37.9 107.202 38C107.202 38.2 107.202 38.5 107.202 38.7H107.102C107.102 38.5 107.102 38.2 107.102 38C107.102 37.9 107.102 37.9 107.102 37.8C107.102 37.7 107.102 37.5 107.102 37.4C107.102 37.3 107.102 37.3 107.102 37.2C107.102 37.1 107.102 37.1 107.102 37C107.102 36.9 107.102 36.7 107.102 36.6C107.102 36.5 107.102 36.4 107.102 36.2H107.202Z" fill="#F99900"/>
<path fill-rule="evenodd" clip-rule="evenodd" d="M108.1 38.6H108C108 38.4 108 38.1 108 37.9C108 37.8 108 37.8 108 37.7C108 37.6 108 37.5 108 37.4C108 37.3 108 37.2 108 37.1C108 37 108 37 108 36.9C108 36.8 108 36.7 108 36.5C108 36.4 108 36.3 108 36.1H108.1V36.2C108.1 36.3 108.1 36.4 108.1 36.6C108.1 36.7 108.1 36.8 108.1 36.9V37.1C108.1 37.2 108.1 37.3 108.1 37.4C108.1 37.5 108.1 37.6 108.1 37.7C108.1 37.8 108.1 37.8 108.1 37.9C108.1 38.1 108.1 38.4 108.1 38.6Z" fill="#F99900"/>
<path d="M107.202 37.0001C107.202 37.1001 107.202 37.1001 107.202 37.2001H106.102V37.0001H107.202Z" fill="#F99900"/>
<path d="M107.202 37.7C107.202 37.8 107.202 37.8 107.202 37.9H106.102V37.7H107.202Z" fill="#F99900"/>
<path d="M109.098 37.0001V37.2001H107.898C107.898 37.1001 107.898 37.1001 107.898 37.0001H109.098Z" fill="#F99900"/>
<path d="M109.098 37.7V37.9H107.898C107.898 37.8 107.898 37.8 107.898 37.7H109.098Z" fill="#F99900"/>
<path d="M105.599 52.5C106.372 52.5 106.999 51.8284 106.999 51C106.999 50.1716 106.372 49.5 105.599 49.5C104.826 49.5 104.199 50.1716 104.199 51C104.199 51.8284 104.826 52.5 105.599 52.5Z" fill="#A1A1A1"/>
<path d="M105.79 49.4814L105.772 50.7678H105.569L105.552 49.4814H105.79ZM105.671 51.2852C105.628 51.2852 105.591 51.2697 105.56 51.2388C105.529 51.208 105.513 51.171 105.513 51.1279C105.513 51.0847 105.529 51.0478 105.56 51.0169C105.591 50.986 105.628 50.9706 105.671 50.9706C105.714 50.9706 105.751 50.986 105.782 51.0169C105.813 51.0478 105.828 51.0847 105.828 51.1279C105.828 51.1564 105.821 51.1826 105.806 51.2065C105.792 51.2304 105.773 51.2496 105.749 51.2642C105.726 51.2782 105.7 51.2852 105.671 51.2852Z" fill="black"/>
<path d="M125.2 47H108V54.7H125.2V47Z" fill="#D3E9FE"/>
<path d="M111.898 48.5H108.898V53.5H111.898V48.5Z" fill="#9FBFD1"/>
<path d="M118.301 50.2H112.801V51.4H118.301V50.2Z" fill="#505154"/>
<path d="M123.901 52.3H112.801V53.5H123.901V52.3Z" fill="#505154"/>
<path d="M117.701 93.4C116.401 89.4 113.501 86 109.701 84.2C106.701 82.8 103.201 82.2 100.701 80.1C97.701 77.6 96.801 73.4 94.801 70C91.001 63.4 82.501 59.9 75.101 61.9C71.501 62.9 68.201 65 64.601 65.4C60.701 65.9 56.901 64.5 53.101 63.6C49.301 62.7 45.101 62.2 41.801 64.3C38.101 66.7 36.801 71.5 36.301 75.9C35.801 80.3 35.701 85 33.201 88.7C30.801 92.3 27.201 95.2 27.601 100C27.801 102.5 29.201 104.9 31.301 106.3C32.901 107.4 34.901 108 35.901 109.6C36.701 110.9 36.701 112.5 36.701 113.9C36.601 115.4 36.501 116.9 37.001 118.3C37.201 118.9 37.601 119.4 38.001 119.8H108.901C109.101 119.7 109.301 119.5 109.501 119.3C110.901 117.8 111.001 115.6 111.601 113.6C112.601 110.6 115.001 108.2 116.501 105.4C118.501 101.8 119.001 97.4 117.701 93.4Z" fill="#D3E9FE"/>
<path d="M113.198 100.2C113.998 100.6 113.298 101.5 113.298 101.5C113.298 101.5 114.898 101.2 114.798 102C114.698 102.8 112.998 103.6 110.898 103.4C111.098 102.3 112.298 99.8 113.198 100.2Z" fill="#F44A56"/>
<path d="M111.098 103.4C110.498 103.6 109.998 103.9 109.398 104.2C108.898 104.5 108.298 104.8 107.798 105.2C106.798 105.9 105.798 106.6 104.798 107.4C103.798 108.2 102.898 109 101.998 109.9C101.098 110.8 100.298 111.7 99.4983 112.6C98.6983 113.5 97.8983 114.5 97.2983 115.6C97.1983 115.7 97.0983 115.9 97.0983 116C96.9983 116.2 97.2983 116.4 97.3983 116.2C98.0983 115.2 98.8983 114.2 99.5983 113.3C100.398 112.4 101.198 111.4 102.098 110.6C102.998 109.7 103.898 108.9 104.798 108.1C105.698 107.3 106.698 106.6 107.698 105.9C108.198 105.5 108.698 105.2 109.198 104.9C109.498 104.7 109.698 104.6 109.998 104.4C110.298 104.2 110.498 104.1 110.798 103.9C110.898 103.8 110.998 103.7 111.198 103.6C111.198 103.5 111.098 103.4 111.098 103.4Z" fill="#29666E"/>
<path d="M104.698 107.7C104.698 107.7 104.398 103.1 105.998 102.6C107.598 102 105.098 107.2 104.698 107.7Z" fill="#29666E"/>
<path d="M106.199 106.5C106.199 106.5 110.599 105 110.899 106.3C111.299 107.6 106.199 106.5 106.199 106.5Z" fill="#29666E"/>
<path d="M114.097 103.1C113.897 102.6 112.997 102.4 111.497 102.8C111.697 102.4 111.797 101.9 111.897 101.5C111.897 101.2 111.597 101 111.397 101.2C110.897 101.5 110.597 102.3 110.397 103.2C110.297 103.4 110.297 103.6 110.297 103.8C110.497 103.8 110.897 103.9 111.197 103.9C113.097 103.9 114.297 103.7 114.097 103.1Z" fill="#29666E"/>
<path d="M97.7995 91.9C98.6995 91.8 98.4995 93 98.4995 93C98.4995 93 99.7995 91.9 100.099 92.7C100.399 93.5 99.2995 95 97.3995 95.9C96.8995 94.7 96.7995 92 97.7995 91.9Z" fill="#F44A56"/>
<path d="M97.4984 95.7C97.0984 96.2 96.7984 96.7 96.3984 97.2C96.0984 97.7 95.7984 98.3 95.4984 98.8C94.8984 99.9 94.3984 101 93.9984 102.2C93.4984 103.3 93.0984 104.5 92.7984 105.7C92.4984 106.9 92.1984 108.1 91.8984 109.3C91.6984 110.5 91.4984 111.7 91.3984 113C91.3984 113.2 91.3984 113.3 91.3984 113.5C91.3984 113.7 91.6984 113.7 91.6984 113.5C91.7984 112.3 91.9984 111.1 92.1984 109.9C92.3984 108.7 92.6984 107.5 92.9984 106.3C93.2984 105.1 93.6984 104 94.0984 102.8C94.4984 101.7 94.9984 100.5 95.5984 99.4C95.8984 98.8 96.1984 98.3 96.3984 97.8C96.4984 97.5 96.6984 97.3 96.7984 97C96.8984 96.7 97.0984 96.5 97.1984 96.2C97.2984 96.1 97.2984 95.9 97.3984 95.8C97.5984 95.7 97.4984 95.7 97.4984 95.7Z" fill="#29666E"/>
<path d="M94 102.6C94 102.6 91.5 98.8 92.6 97.5C93.7 96.2 94.1 102 94 102.6Z" fill="#29666E"/>
<path d="M94.7969 100.8C94.7969 100.8 97.8969 97.3 98.7969 98.3C99.6969 99.3 94.7969 100.8 94.7969 100.8Z" fill="#29666E"/>
<path d="M99.8983 93.9C99.4983 93.6 98.5983 93.8 97.4983 94.9C97.4983 94.4 97.3983 94 97.1983 93.6C97.0983 93.3 96.6983 93.3 96.5983 93.6C96.2983 94.1 96.4983 95 96.6983 95.8C96.7983 96 96.7983 96.2 96.8983 96.4C97.0983 96.3 97.4983 96.2 97.6983 96C99.4983 95.2 100.398 94.3 99.8983 93.9Z" fill="#29666E"/>
<path d="M92.3984 120H95.3984C95.3984 120 101.598 119.6 108.298 115.8C116.298 111.3 119.698 104.8 119.698 104.8C119.598 104.8 119.498 104.8 119.298 104.8C104.798 104 92.3984 120 92.3984 120Z" fill="#B2E069"/>
<path d="M92.3984 120H93.4984C102.198 113.3 119.598 104.8 119.598 104.8C119.498 104.8 119.398 104.8 119.198 104.8C104.798 104 92.3984 120 92.3984 120Z" fill="#8BC53F"/>
<path d="M99.4984 113.7C99.0984 114.4 98.7984 115.1 98.3984 115.7C97.9984 116.3 97.5984 117 97.0984 117.6C96.9984 117.7 96.8984 117.6 96.8984 117.5C97.1984 116.8 97.6984 116.1 98.0984 115.5C98.4984 114.8 98.8984 114.2 99.3984 113.6C99.3984 113.5 99.5984 113.6 99.4984 113.7Z" fill="#5E871D"/>
<path d="M98.5998 116.6C98.6998 116.6 98.7998 116.7 98.8998 116.8C98.9998 116.9 99.0998 116.9 99.1998 117C99.3998 117.1 99.5998 117.3 99.7998 117.4C100.2 117.6 100.6 117.9 101 118C101.1 118 101 118.2 101 118.1C100.5 118 100.1 117.8 99.6998 117.6C99.4998 117.5 99.2998 117.4 99.0998 117.2C98.9998 117.1 98.8998 117.1 98.7998 117C98.6998 116.9 98.5998 116.9 98.5998 116.8C98.3998 116.7 98.4998 116.6 98.5998 116.6Z" fill="#5E871D"/>
<path d="M102.3 111.7C102.4 111.6 102.5 111.7 102.4 111.8C102.1 112.4 101.8 113 101.5 113.6C101.4 113.9 101.2 114.2 101.1 114.5C101 114.8 100.9 115.1 100.7 115.4C100.6 115.6 100.4 115.4 100.5 115.3C100.6 115 100.7 114.7 100.8 114.3C100.9 114 101.1 113.7 101.2 113.4C101.5 112.8 101.9 112.3 102.3 111.7Z" fill="#5E871D"/>
<path d="M102.098 114.4C102.298 114.6 102.498 114.8 102.698 115C102.898 115.2 103.098 115.4 103.198 115.5C103.398 115.7 103.598 115.9 103.898 116C104.198 116.2 104.398 116.4 104.698 116.6C104.798 116.6 104.698 116.8 104.598 116.8C104.298 116.7 104.098 116.5 103.798 116.4C103.598 116.2 103.398 116.1 103.098 115.9C102.898 115.7 102.698 115.5 102.498 115.3C102.298 115.1 102.098 114.9 101.898 114.6C101.898 114.5 101.998 114.4 102.098 114.4Z" fill="#5E871D"/>
<path d="M105.598 109.1C104.998 110.3 104.598 111.7 104.398 113C104.398 113.2 104.098 113.1 104.098 112.9C104.398 111.5 104.898 110.2 105.498 109C105.498 109 105.598 109 105.598 109.1Z" fill="#5E871D"/>
<path d="M105.497 112.2C105.697 112.3 105.797 112.4 105.897 112.5C105.997 112.6 106.197 112.7 106.297 112.8C106.597 113 106.897 113.2 107.197 113.4C107.797 113.8 108.397 114.1 108.997 114.4C109.097 114.4 108.997 114.6 108.897 114.6C108.197 114.4 107.597 114.1 106.997 113.7C106.697 113.5 106.397 113.3 106.097 113.1C105.797 112.9 105.497 112.7 105.297 112.4C105.297 112.3 105.397 112.1 105.497 112.2Z" fill="#5E871D"/>
<path d="M109.699 107C109.799 106.9 109.899 107 109.799 107.1C109.399 107.7 109.099 108.3 108.799 108.9C108.499 109.5 108.199 110.2 107.999 110.9C107.899 111.1 107.699 111 107.699 110.8C107.899 110.1 108.199 109.5 108.499 108.8C108.899 108.2 109.299 107.6 109.699 107Z" fill="#5E871D"/>
<path d="M109.399 110.2C109.799 110.5 110.199 110.8 110.699 111C111.099 111.3 111.599 111.6 111.999 111.9C112.099 111.9 111.999 112.1 111.899 112C111.499 111.8 110.999 111.5 110.599 111.2C110.199 110.9 109.699 110.7 109.299 110.4C109.199 110.3 109.299 110.1 109.399 110.2Z" fill="#5E871D"/>
<path d="M113.1 105.9C113.2 105.8 113.3 105.9 113.2 106C112.9 106.5 112.7 106.9 112.4 107.4C112.3 107.6 112.2 107.9 112 108.1C111.9 108.3 111.8 108.6 111.7 108.8C111.6 108.9 111.4 108.9 111.5 108.7C111.6 108.4 111.7 108.2 111.8 108C111.9 107.7 112 107.5 112.2 107.3C112.5 106.8 112.8 106.4 113.1 105.9Z" fill="#5E871D"/>
<path d="M112.399 108.4C113.199 108.9 113.999 109.4 114.799 109.7C114.899 109.7 114.799 109.9 114.699 109.9C113.799 109.6 112.999 109.2 112.199 108.6C112.199 108.5 112.299 108.3 112.399 108.4Z" fill="#5E871D"/>
<path d="M93.1992 120H93.9992C94.2992 119.8 94.5992 119.6 94.8992 119.4C97.0992 118 100.799 115.6 101.099 115.4C101.399 115.2 101.599 115 101.899 114.9C102.399 114.5 107.899 111.3 110.199 110.1C111.399 109.5 112.499 108.8 113.599 108.2C113.899 108.1 116.899 106.4 117.299 106.2C117.099 106.3 113.099 107.9 112.599 108.1C111.399 108.7 110.299 109.3 109.199 110C106.799 111.4 104.699 112.4 102.599 113.8C102.099 114.2 101.499 114.5 100.999 114.9C100.699 115.1 97.1992 117.2 94.5992 119.1C93.9992 119.4 93.4992 119.8 93.1992 120Z" fill="#5E871D"/>
<path d="M90.1992 120H91.1992H91.4992H91.7992H92.5992C92.5992 120 98.3992 115.4 102.699 107.6C107.899 98.2 107.399 90.4 107.399 90.4C92.4992 99.9 90.1992 120 90.1992 120Z" fill="#B2E069"/>
<path d="M90.1992 120H91.4992C95.3992 111.1 107.399 90.4 107.399 90.4C92.4992 99.9 90.1992 120 90.1992 120Z" fill="#8BC53F"/>
<path d="M91.1992 120H91.4992H91.7992C92.9992 117.3 95.2992 112.6 95.4992 112.3C95.6992 112 95.7992 111.6 95.9992 111.3C96.2992 110.6 99.6992 104.1 101.199 101.5C101.999 100.2 102.699 98.8 103.499 97.5C103.699 97.2 105.699 93.6 105.899 93.2C105.799 93.3 102.799 97.5 102.399 98.2C101.599 99.5 100.899 100.8 100.199 102.1C98.6992 104.9 97.2992 107.2 95.9992 109.9C95.6992 110.6 95.3992 111.2 95.0992 111.9C94.7992 112.4 92.5992 116.6 91.1992 120Z" fill="#5E871D"/>
<path d="M92.8991 112C92.8991 112.8 92.9991 113.6 92.8991 114.5C92.8991 115.3 92.8991 116.2 92.7991 117C92.7991 117.1 92.5991 117.2 92.5991 117C92.4991 116.2 92.5991 115.3 92.5991 114.5C92.5991 113.7 92.6991 112.9 92.6991 112C92.7991 111.9 92.8991 111.9 92.8991 112Z" fill="#5E871D"/>
<path d="M93.6977 115C93.7977 114.9 93.9977 115 94.0977 115C94.1977 115 94.3977 115 94.4977 115C94.7977 115 94.9977 114.9 95.2977 114.9C95.7977 114.8 96.2977 114.7 96.7977 114.5C96.8977 114.5 96.8977 114.6 96.7977 114.6C96.2977 114.8 95.7977 115 95.1977 115.1C94.8977 115.2 94.6977 115.2 94.3977 115.2C94.2977 115.2 94.0977 115.2 93.9977 115.2C93.8977 115.2 93.6977 115.2 93.5977 115.2C93.5977 115.2 93.5977 115.1 93.6977 115Z" fill="#5E871D"/>
<path d="M94.5008 108.4C94.5008 108.3 94.6008 108.3 94.7008 108.4C94.7008 109.1 94.7008 109.8 94.8008 110.5C94.8008 110.8 94.9008 111.2 94.9008 111.5C95.0008 111.8 95.1008 112.2 95.1008 112.5C95.1008 112.7 94.9008 112.7 94.8008 112.6C94.7008 112.3 94.6008 111.9 94.6008 111.6C94.5008 111.3 94.5008 110.9 94.5008 110.5C94.4008 109.9 94.4008 109.1 94.5008 108.4Z" fill="#5E871D"/>
<path d="M95.8992 110.7C96.1992 110.7 96.4992 110.8 96.7992 110.8C97.0992 110.8 97.3992 110.8 97.5992 110.9C97.8992 110.9 98.1992 110.9 98.4992 110.9C98.8992 110.9 99.1992 110.9 99.5992 110.8C99.6992 110.8 99.6992 111 99.5992 111C99.2992 111.1 98.8992 111.2 98.5992 111.2C98.2992 111.2 97.9992 111.2 97.6992 111.3C97.3992 111.3 97.0992 111.3 96.7992 111.3C96.4992 111.3 96.0992 111.3 95.7992 111.2C95.6992 111 95.7992 110.7 95.8992 110.7Z" fill="#5E871D"/>
<path d="M96.2 104C96.4 105.4 96.7 106.8 97.2 108.1C97.3 108.3 96.9 108.4 96.8 108.2C96.3 106.9 96 105.5 96 104C96 103.9 96.2 103.9 96.2 104Z" fill="#5E871D"/>
<path d="M97.8992 106.5C98.0992 106.5 98.2992 106.5 98.4992 106.5C98.6992 106.5 98.8992 106.5 99.0992 106.5C99.4992 106.5 99.8992 106.5 100.299 106.4C101.099 106.3 101.899 106.1 102.599 105.9C102.699 105.9 102.799 106 102.599 106.1C101.799 106.4 100.999 106.6 100.199 106.7C99.7992 106.8 99.3992 106.8 98.9992 106.8C98.5992 106.8 98.1992 106.9 97.7992 106.8C97.6992 106.7 97.7992 106.5 97.8992 106.5Z" fill="#5E871D"/>
<path d="M99.0008 99.3C99.0008 99.2 99.2008 99.2 99.2008 99.3C99.2008 100 99.2008 100.8 99.3008 101.5C99.4008 102.2 99.5008 103 99.7008 103.7C99.7008 103.9 99.4008 104 99.4008 103.8C99.2008 103.1 99.1008 102.4 99.0008 101.6C98.9008 100.8 98.9008 100.1 99.0008 99.3Z" fill="#5E871D"/>
<path d="M100.599 102.1C101.199 102 101.699 102 102.299 101.9C102.899 101.8 103.499 101.8 103.999 101.7C104.099 101.7 104.099 101.8 103.999 101.9C103.399 102 102.799 102.1 102.299 102.2C101.699 102.3 101.099 102.4 100.599 102.5C100.399 102.4 100.399 102.1 100.599 102.1Z" fill="#5E871D"/>
<path d="M101.7 96C101.7 95.9 101.9 95.9 101.9 96C101.9 96.6 101.9 97.1 102 97.7C102 98 102 98.3 102.1 98.5C102.1 98.8 102.2 99.0001 102.2 99.3001C102.2 99.5001 102 99.5001 101.9 99.4001C101.8 99.1001 101.8 98.9 101.8 98.6C101.8 98.3 101.7 98 101.7 97.7C101.6 97.2 101.6 96.6 101.7 96Z" fill="#5E871D"/>
<path d="M102.4 98.5C103.4 98.4 104.5 98.2 105.5 97.9C105.6 97.9 105.7 98.1 105.5 98.1C104.5 98.5 103.4 98.7 102.4 98.8C102.2 98.8 102.2 98.5 102.4 98.5Z" fill="#5E871D"/>
<path d="M31.999 100.2C31.199 100.6 31.899 101.5 31.899 101.5C31.899 101.5 30.299 101.2 30.399 102C30.499 102.8 32.199 103.6 34.299 103.4C34.099 102.3 32.899 99.8 31.999 100.2Z" fill="#F44A56"/>
<path d="M34.2 103.4C34.8 103.6 35.3 103.9 35.9 104.2C36.4 104.5 37 104.8 37.5 105.2C38.5 105.9 39.5 106.6 40.5 107.4C41.5 108.2 42.4 109 43.3 109.9C44.2 110.8 45 111.7 45.8 112.6C46.6 113.5 47.4 114.5 48 115.6C48.1 115.7 48.2 115.9 48.2 116C48.3 116.2 48 116.4 47.9 116.2C47.2 115.2 46.4 114.2 45.7 113.3C44.9 112.4 44.1 111.4 43.2 110.6C42.3 109.7 41.4 108.9 40.5 108.1C39.6 107.3 38.6 106.6 37.6 105.9C37.1 105.5 36.6 105.2 36.1 104.9C35.8 104.7 35.6 104.6 35.3 104.4C35 104.2 34.8 104.1 34.5 103.9C34.4 103.8 34.3 103.7 34.1 103.6C34 103.5 34.1 103.4 34.2 103.4Z" fill="#29666E"/>
<path d="M40.4983 107.7C40.4983 107.7 40.7983 103.1 39.1983 102.6C37.6983 102 40.1983 107.2 40.4983 107.7Z" fill="#29666E"/>
<path d="M38.9997 106.5C38.9997 106.5 34.5997 105 34.2997 106.3C33.8997 107.6 38.9997 106.5 38.9997 106.5Z" fill="#29666E"/>
<path d="M31.1981 103.1C31.3981 102.6 32.2981 102.4 33.7981 102.8C33.5981 102.4 33.4981 101.9 33.3981 101.5C33.3981 101.2 33.6981 101 33.8981 101.2C34.3981 101.5 34.6981 102.3 34.8981 103.2C34.9981 103.4 34.9981 103.6 34.9981 103.8C34.7981 103.8 34.3981 103.9 34.0981 103.9C32.0981 103.9 30.8981 103.7 31.1981 103.1Z" fill="#29666E"/>
<path d="M47.3998 91.9C46.4998 91.8 46.6998 93 46.6998 93C46.6998 93 45.3998 91.9 45.0998 92.7C44.7998 93.5 45.8998 95 47.7998 95.9C48.2998 94.7 48.3998 92 47.3998 91.9Z" fill="#F44A56"/>
<path d="M47.7008 95.7C48.1008 96.2 48.4008 96.7 48.8008 97.2C49.1008 97.7 49.4008 98.3 49.7008 98.8C50.3008 99.9 50.8008 101 51.2008 102.2C51.7008 103.3 52.1008 104.5 52.4008 105.7C52.7008 106.9 53.0008 108.1 53.3008 109.3C53.5008 110.5 53.7008 111.7 53.8008 113C53.8008 113.2 53.8008 113.3 53.8008 113.5C53.8008 113.7 53.5008 113.7 53.5008 113.5C53.4008 112.3 53.2008 111.1 53.0008 109.9C52.8008 108.7 52.5008 107.5 52.2008 106.3C51.9008 105.1 51.5008 104 51.1008 102.8C50.7008 101.7 50.2008 100.5 49.6008 99.4C49.3008 98.8 49.0008 98.3 48.8008 97.8C48.7008 97.5 48.5008 97.3 48.4008 97C48.3008 96.7 48.1008 96.5 48.0008 96.2C47.9008 96.1 47.9008 95.9 47.8008 95.8C47.6008 95.7 47.7008 95.7 47.7008 95.7Z" fill="#29666E"/>
<path d="M51.1984 102.6C51.1984 102.6 53.6984 98.8 52.5984 97.5C51.4984 96.2 51.0984 102 51.1984 102.6Z" fill="#29666E"/>
<path d="M50.3994 100.8C50.3994 100.8 47.2994 97.3 46.3994 98.3C45.4994 99.2 50.3994 100.8 50.3994 100.8Z" fill="#29666E"/>
<path d="M45.301 93.9C45.701 93.6 46.601 93.8 47.701 94.9C47.701 94.4 47.801 94 48.001 93.6C48.101 93.3 48.501 93.3 48.601 93.6C48.901 94.1 48.701 95 48.501 95.8C48.401 96 48.401 96.2 48.301 96.4C48.101 96.3 47.701 96.2 47.501 96C45.701 95.2 44.801 94.3 45.301 93.9Z" fill="#29666E"/>
<path d="M52.8 120H49.8C49.8 120 43.6 119.6 36.9 115.8C28.9 111.3 25.5 104.8 25.5 104.8C25.6 104.8 25.7 104.8 25.9 104.8C40.4 104 52.8 120 52.8 120Z" fill="#B2E069"/>
<path d="M52.8016 120H51.7016C43.0016 113.3 25.6016 104.8 25.6016 104.8C25.7016 104.8 25.8016 104.8 26.0016 104.8C40.4016 104 52.8016 120 52.8016 120Z" fill="#8BC53F"/>
<path d="M45.6992 113.7C46.0992 114.4 46.3992 115.1 46.7992 115.7C47.1992 116.3 47.5992 117 48.0992 117.6C48.1992 117.7 48.2992 117.6 48.2992 117.5C47.9992 116.8 47.4992 116.1 47.0992 115.5C46.6992 114.8 46.2992 114.2 45.7992 113.6C45.7992 113.5 45.6992 113.6 45.6992 113.7Z" fill="#5E871D"/>
<path d="M46.6007 116.6C46.5007 116.6 46.4007 116.7 46.3007 116.8C46.2007 116.9 46.1007 116.9 46.0007 117C45.8007 117.1 45.6007 117.3 45.4007 117.4C45.0007 117.6 44.6007 117.9 44.2007 118C44.1007 118 44.2007 118.2 44.2007 118.1C44.7007 118 45.1007 117.8 45.5007 117.6C45.7007 117.5 45.9007 117.4 46.1007 117.2C46.2007 117.1 46.3007 117.1 46.4007 117C46.5007 116.9 46.6007 116.9 46.6007 116.8C46.8007 116.7 46.7007 116.6 46.6007 116.6Z" fill="#5E871D"/>
<path d="M42.8992 111.7C42.7992 111.6 42.6992 111.7 42.7992 111.8C43.0992 112.4 43.3992 113 43.6992 113.6C43.7992 113.9 43.9992 114.2 44.0992 114.5C44.1992 114.8 44.2992 115.1 44.4992 115.4C44.5992 115.6 44.7992 115.4 44.6992 115.3C44.5992 115 44.4992 114.7 44.3992 114.3C44.2992 114 44.0992 113.7 43.9992 113.4C43.6992 112.8 43.2992 112.3 42.8992 111.7Z" fill="#5E871D"/>
<path d="M43.0985 114.4C42.8985 114.6 42.6985 114.8 42.4985 115C42.2985 115.2 42.0985 115.4 41.9985 115.5C41.7985 115.7 41.5985 115.9 41.2985 116C40.9985 116.2 40.7985 116.4 40.4985 116.6C40.3985 116.6 40.4985 116.8 40.5985 116.8C40.8985 116.7 41.0985 116.5 41.3985 116.4C41.5985 116.2 41.7985 116.1 42.0985 115.9C42.2985 115.7 42.4985 115.5 42.6985 115.3C42.8985 115.1 43.0985 114.9 43.2985 114.6C43.3985 114.5 43.1985 114.4 43.0985 114.4Z" fill="#5E871D"/>
<path d="M39.7016 109.1C40.3016 110.3 40.7016 111.7 40.9016 113C40.9016 113.2 41.2016 113.1 41.2016 112.9C40.9016 111.5 40.4016 110.2 39.8016 109C39.7016 109 39.6016 109 39.7016 109.1Z" fill="#5E871D"/>
<path d="M39.7016 112.2C39.5016 112.3 39.4016 112.4 39.3016 112.5C39.2016 112.6 39.0016 112.7 38.9016 112.8C38.6016 113 38.3016 113.2 38.0016 113.4C37.4016 113.8 36.8016 114.1 36.2016 114.4C36.1016 114.4 36.2016 114.6 36.3016 114.6C37.0016 114.4 37.6016 114.1 38.2016 113.7C38.5016 113.5 38.8016 113.3 39.1016 113.1C39.4016 112.9 39.7016 112.7 39.9016 112.4C39.9016 112.3 39.8016 112.1 39.7016 112.2Z" fill="#5E871D"/>
<path d="M35.5008 107C35.4008 106.9 35.3008 107 35.4008 107.1C35.8008 107.7 36.1008 108.3 36.4008 108.9C36.7008 109.5 37.0008 110.2 37.2008 110.9C37.3008 111.1 37.5008 111 37.5008 110.8C37.3008 110.1 37.0008 109.5 36.7008 108.8C36.3008 108.2 35.9008 107.6 35.5008 107Z" fill="#5E871D"/>
<path d="M35.8016 110.2C35.4016 110.5 35.0016 110.8 34.5016 111C34.1016 111.3 33.6016 111.6 33.2016 111.9C33.1016 111.9 33.2016 112.1 33.3016 112C33.7016 111.8 34.2016 111.5 34.6016 111.2C35.0016 110.9 35.5016 110.7 35.9016 110.4C36.0016 110.3 35.9016 110.1 35.8016 110.2Z" fill="#5E871D"/>
<path d="M32.0985 105.9C31.9985 105.8 31.8985 105.9 31.9985 106C32.2985 106.5 32.4985 106.9 32.7985 107.4C32.8985 107.6 32.9985 107.9 33.1985 108.1C33.2985 108.3 33.3985 108.6 33.4985 108.8C33.5985 108.9 33.7985 108.9 33.6985 108.7C33.5985 108.4 33.4985 108.2 33.3985 108C33.2985 107.7 33.1985 107.5 32.9985 107.3C32.6985 106.8 32.3985 106.4 32.0985 105.9Z" fill="#5E871D"/>
<path d="M32.8008 108.4C32.0008 108.9 31.2008 109.4 30.4008 109.7C30.3008 109.7 30.4008 109.9 30.5008 109.9C31.4008 109.6 32.2008 109.2 33.0008 108.6C33.0008 108.5 32.9008 108.3 32.8008 108.4Z" fill="#5E871D"/>
<path d="M51.9984 120H51.1984C50.8984 119.8 50.5984 119.6 50.2984 119.4C48.0984 118 44.3984 115.6 44.0984 115.4C43.7984 115.2 43.5984 115 43.2984 114.9C42.7984 114.5 37.2984 111.3 34.9984 110.1C33.7984 109.5 32.6984 108.8 31.5984 108.2C31.2984 108.1 28.2984 106.4 27.8984 106.2C28.0984 106.3 32.0984 107.9 32.5984 108.1C33.7984 108.7 34.8984 109.3 35.9984 110C38.3984 111.4 40.4984 112.4 42.5984 113.8C43.0984 114.2 43.6984 114.5 44.1984 114.9C44.4984 115.1 47.9984 117.2 50.5984 119.1C51.2984 119.4 51.6984 119.8 51.9984 120Z" fill="#5E871D"/>
<path d="M54.9982 120H53.9982H53.6982H53.3982H52.5982C52.5982 120 46.7982 115.4 42.4982 107.6C37.2982 98.2 37.7982 90.4 37.7982 90.4C52.6982 99.9 54.9982 120 54.9982 120Z" fill="#B2E069"/>
<path d="M54.9969 120H53.6969C49.7969 111.1 37.7969 90.4 37.7969 90.4C52.6969 99.9 54.9969 120 54.9969 120Z" fill="#8BC53F"/>
<path d="M53.9969 120H53.6969H53.3969C52.1969 117.3 49.8969 112.6 49.6969 112.3C49.4969 112 49.3969 111.6 49.1969 111.3C48.8969 110.6 45.4969 104.1 43.9969 101.5C43.1969 100.2 42.4969 98.8 41.6969 97.5C41.4969 97.2 39.4969 93.6 39.2969 93.2C39.3969 93.3 42.3969 97.5 42.7969 98.2C43.5969 99.5 44.2969 100.8 44.9969 102.1C46.4969 104.9 47.8969 107.2 49.1969 109.9C49.4969 110.6 49.7969 111.2 50.0969 111.9C50.3969 112.4 52.5969 116.6 53.9969 120Z" fill="#5E871D"/>
<path d="M52.2984 112C52.2984 112.8 52.1984 113.6 52.2984 114.5C52.2984 115.3 52.2984 116.2 52.3984 117C52.3984 117.1 52.5983 117.2 52.5983 117C52.6983 116.2 52.5983 115.3 52.5983 114.5C52.5983 113.7 52.4984 112.9 52.4984 112C52.3984 111.9 52.2984 111.9 52.2984 112Z" fill="#5E871D"/>
<path d="M51.4992 115C51.3992 114.9 51.1992 115 51.0992 115C50.9992 115 50.7992 115 50.6992 115C50.3992 115 50.1992 114.9 49.8992 114.9C49.3992 114.8 48.8992 114.7 48.3992 114.5C48.2992 114.5 48.2992 114.6 48.3992 114.6C48.8992 114.8 49.3992 115 49.9992 115.1C50.2992 115.2 50.4992 115.2 50.7992 115.2C50.8992 115.2 51.0992 115.2 51.1992 115.2C51.2992 115.2 51.4992 115.2 51.5992 115.2C51.5992 115.2 51.5992 115.1 51.4992 115Z" fill="#5E871D"/>
<path d="M50.6977 108.4C50.6977 108.3 50.5977 108.3 50.4977 108.4C50.4977 109.1 50.4977 109.8 50.3977 110.5C50.3977 110.8 50.2977 111.2 50.2977 111.5C50.1977 111.8 50.0977 112.2 50.0977 112.5C50.0977 112.7 50.2977 112.7 50.3977 112.6C50.4977 112.3 50.5977 111.9 50.5977 111.6C50.6977 111.3 50.6977 110.9 50.6977 110.5C50.7977 109.9 50.7977 109.1 50.6977 108.4Z" fill="#5E871D"/>
<path d="M49.2984 110.7C48.9984 110.7 48.6984 110.8 48.3984 110.8C48.0984 110.8 47.7984 110.8 47.5984 110.9C47.2984 110.9 46.9984 110.9 46.6984 110.9C46.2984 110.9 45.9984 110.9 45.5984 110.8C45.4984 110.8 45.4984 111 45.5984 111C45.8984 111.1 46.2984 111.2 46.5984 111.2C46.8984 111.2 47.1984 111.2 47.4984 111.3C47.7984 111.3 48.0984 111.3 48.3984 111.3C48.6984 111.3 49.0984 111.3 49.3984 111.2C49.4984 111 49.3984 110.7 49.2984 110.7Z" fill="#5E871D"/>
<path d="M48.9964 104C48.7964 105.4 48.4964 106.8 47.9964 108.1C47.8964 108.3 48.2964 108.4 48.3964 108.2C48.8964 106.9 49.1964 105.5 49.1964 104C49.1964 103.9 49.0964 103.9 48.9964 104Z" fill="#5E871D"/>
<path d="M47.2998 106.5C47.0998 106.5 46.8998 106.5 46.6998 106.5C46.4998 106.5 46.2998 106.5 46.0998 106.5C45.6998 106.5 45.2998 106.5 44.8998 106.4C44.0998 106.3 43.2998 106.1 42.5998 105.9C42.4998 105.9 42.3998 106 42.5998 106.1C43.3998 106.4 44.1998 106.6 44.9998 106.7C45.3998 106.8 45.7998 106.8 46.1998 106.8C46.5998 106.8 46.9998 106.9 47.3998 106.8C47.4998 106.7 47.3998 106.5 47.2998 106.5Z" fill="#5E871D"/>
<path d="M46.2 99.3C46.2 99.2 46 99.2 46 99.3C46 100 46 100.8 45.9 101.5C45.8 102.2 45.7 103 45.5 103.7C45.5 103.9 45.8 104 45.8 103.8C46 103.1 46.1 102.4 46.2 101.6C46.3 100.8 46.3 100.1 46.2 99.3Z" fill="#5E871D"/>
<path d="M44.6977 102.1C44.0977 102 43.5977 102 42.9977 101.9C42.3977 101.8 41.7977 101.8 41.2977 101.7C41.1977 101.7 41.1977 101.8 41.2977 101.9C41.8977 102 42.4977 102.1 42.9977 102.2C43.5977 102.3 44.1977 102.4 44.6977 102.5C44.7977 102.4 44.8977 102.1 44.6977 102.1Z" fill="#5E871D"/>
<path d="M43.5 96C43.5 95.9 43.3 95.9 43.3 96C43.3 96.6 43.3 97.1 43.2 97.7C43.2 98 43.2 98.3 43.1 98.5C43.1 98.8 43 99.0001 43 99.3001C43 99.5001 43.2 99.5001 43.3 99.4001C43.4 99.1001 43.4 98.9 43.4 98.6C43.4 98.3 43.5 98 43.5 97.7C43.6 97.2 43.6 96.6 43.5 96Z" fill="#5E871D"/>
<path d="M42.7975 98.5C41.7975 98.4 40.6975 98.2 39.6975 97.9C39.5975 97.9 39.4975 98.1 39.6975 98.1C40.6975 98.5 41.7975 98.7 42.7975 98.8C42.9975 98.8 42.9975 98.5 42.7975 98.5Z" fill="#5E871D"/>
<path d="M93.5984 82.6L92.7984 94.8L91.1984 120H75.7984L75.6984 98.2L72.2984 98.3L70.3984 120L53.3984 119.9L54.4984 95.9L55.0984 83C57.2984 81.5 60.1984 80.5 63.4984 80C70.3984 79 78.6984 79.8 84.8984 80.8C89.9984 81.7 93.5984 82.6 93.5984 82.6Z" fill="#1D1D1E"/>
<path d="M75.0008 81.8C74.9008 81.5 74.4008 81.5 74.3008 81.8C74.1008 82.5 74.1008 83.2 74.1008 84C74.1008 84.7 74.1008 85.4 74.0008 86.1C74.0008 87.5 73.9008 89 73.9008 90.4C73.9008 91.8 73.8008 93.2 73.8008 94.7C73.8008 95.4 73.8008 96.1 73.8008 96.7C73.8008 97 73.8008 97.3 73.8008 97.7C73.8008 98 73.8008 98.3 74.0008 98.5C74.1008 98.6 74.2008 98.6 74.3008 98.5C74.8008 98.2 74.6008 97.2 74.7008 96.7C74.7008 96 74.8008 95.3 74.8008 94.6C74.9008 93.2 74.9008 91.8 74.9008 90.4C74.9008 89 75.0008 87.7 75.0008 86.3C75.0008 85.6 75.0008 84.9 75.0008 84.3C75.2008 83.4 75.2008 82.6 75.0008 81.8Z" fill="#111112"/>
<path d="M77.9998 82.3C77.9998 82.1 77.8998 82 77.6998 82C77.6998 82 77.6998 82 77.5998 82C77.5998 82 77.5998 82 77.4998 82C77.1998 82.4 77.0998 82.3 77.0998 82.7C77.0998 82.8 77.0998 82.9 77.0998 83C77.0998 83.3 77.0998 83.6 76.9998 83.9C76.9998 84.5 76.8998 85.1 76.8998 85.7C76.7998 86.9 76.7998 88 76.6998 89.2C76.5998 90.9 76.3998 93.6 74.2998 94C73.6998 94.1 73.8998 95.1 74.4998 94.9C76.6998 94.4 77.4998 92.1 77.5998 90.1C77.6998 88.8 77.7998 87.6 77.7998 86.3C77.7998 85.7 77.8998 85.1 77.8998 84.4C77.9998 83.7 78.0998 83 77.9998 82.3Z" fill="#111112"/>
<path d="M93.6008 82.6L92.8008 94.8C85.8008 92.1 84.9008 84.5 84.8008 80.9C90.0008 81.7 93.6008 82.6 93.6008 82.6Z" fill="#111112"/>
<path d="M61.4 91C59.6 94.2 56.7 95.4 54.5 95.9L55.1 83C57.3 81.5 60.2 80.5 63.5 80C63.6 82.8 63.3 87.4 61.4 91Z" fill="#111112"/>
<path d="M98.1984 64.5C97.0984 64.1 95.8984 62.8 94.6984 61.2C92.5984 58.4 90.8984 54.8 90.6984 54.7C90.4984 54.6 89.2984 46.4 89.1984 40.6C89.0984 37.7 89.3984 35.4 90.0984 34.9C90.0984 34.9 93.2984 36.5 95.7984 40.4C98.1984 44.3 106.698 58.2 107.098 60.2C107.498 62.3 101.198 65.6 98.1984 64.5Z" fill="#29666E"/>
<path d="M95.0008 57.2C94.9008 58.7 94.8008 60.1 94.8008 61.2C92.7008 58.4 91.0008 54.8 90.8008 54.7C90.6008 54.6 89.4008 46.4 89.3008 40.6C89.8008 40.3 90.2008 40 90.3008 40C90.6008 39.8 92.9008 39.5 92.9008 39.5C92.8008 39.8 95.6008 47.2 95.0008 57.2Z" fill="#1B555A"/>
<path d="M93.6989 63.9C93.6989 63.9 94.2989 67.8 96.5989 69.2C98.8989 70.6 101.999 70.2 104.299 69.7C106.599 69.1 107.499 65.8 107.499 65.2C108.799 64.4 108.899 62.5 108.699 61.6C108.499 60.7 106.399 58.1 104.499 57.4C102.599 56.6 97.4989 56.3 96.3989 56.9C95.1989 57.4 93.2989 60.5 93.6989 63.9Z" fill="#3A8084"/>
<path d="M93.0991 84.4H54.9991C54.4991 84.4 53.5991 84.2 52.4991 82C51.3991 79.9 54.8991 77.1 54.8991 77.1C54.8991 77.1 55.0991 49 55.4991 36.8C55.4991 35.4 56.2991 34.1 57.4991 33.4C60.7991 31.5 66.1991 29.1 66.1991 29.1C70.4991 27.7 83.4991 31.6 89.9991 34.9C91.8991 35.9 93.1991 37.8 93.1991 40C93.4991 49.7 92.8991 76.8 92.8991 76.8C92.8991 76.8 94.1991 78.3 94.7991 81C95.4991 83.6 93.9991 84.4 93.0991 84.4Z" fill="#29666E"/>
<path d="M75.7016 46.8C75.7016 53.2 75.6016 59.6 75.6016 66C75.6016 69.2 75.5016 72.4 75.5016 75.6C75.5016 77.2 75.5016 78.8 75.4016 80.4C75.4016 81.7 75.3016 83.1 75.2016 84.4H75.0016C74.9016 82.9 74.8016 81.3 74.8016 79.8C74.8016 78 74.8016 76.3 74.7016 74.5C74.6016 68 74.6016 61.6 74.6016 55.1C74.6016 51.9 74.5016 48.8 74.5016 45.6C74.5016 44 74.5016 42.5 74.5016 40.9C74.5016 39.3 74.4016 37.6 74.6016 36.1C74.7016 35.6 75.4016 35.5 75.5016 36.1C75.6016 37 75.6016 37.9 75.6016 38.8C75.6016 39.7 75.6016 40.6 75.6016 41.5C75.7016 43.2 75.7016 45 75.7016 46.8Z" fill="#1B555A"/>
<path d="M84.6016 46.8C84.6016 46.8 87.4016 52.8 88.1016 54.4C88.9016 56 92.1016 65 96.4016 67.5C100.702 70 102.602 69 104.102 68.2C105.602 67.4 106.702 64.9 105.402 62.2C104.102 59.6 97.1016 53.8 96.9016 53.7C96.7016 53.6 92.3016 49.3 91.4016 48C90.5016 46.7 88.9016 43.7 88.9016 43.5C88.8016 43.4 84.6016 46.8 84.6016 46.8Z" fill="#FBC09A"/>
<path d="M82.1992 42.8C82.1992 42.8 82.7992 45.4 83.7992 46.4C84.7992 47.4 85.7992 47.7 86.5992 47.6C87.3992 47.5 88.5992 46.1 88.5992 46C88.5992 45.9 87.6992 40.3 87.2992 40.1C86.8992 40 82.2992 40.9 82.2992 40.9L82.1992 42.8Z" fill="#EEA77F"/>
<path d="M86.5995 29.4C86.7995 29.2 86.9995 29.4 87.2995 30.4C87.4995 31.4 87.6995 32.7 87.8995 33.3C88.0995 33.9 88.6995 36 88.6995 36.6C87.6995 37.3 86.9995 37 86.9995 37C86.9995 37 86.7995 35.5 86.4995 34.1C86.1995 32.8 85.9995 30.2 86.5995 29.4Z" fill="#EEA77F"/>
<path d="M56.5008 41.4C56.5008 41.4 61.5008 47.8 58.7008 68.3C51.0008 63.4 56.5008 41.4 56.5008 41.4Z" fill="#1B555A"/>
<path d="M57.5995 33.5C57.5995 33.5 51.5995 36.1 49.7995 40.1C48.4995 42.9 44.1995 67.9 49.1995 71.3C56.6995 71.5 57.9995 67.4 58.3995 64.8C58.6995 62.3 57.5995 33.5 57.5995 33.5Z" fill="#29666E"/>
<path d="M59.3017 73C59.1017 73.3 58.8017 73.6 58.5017 73.8C57.6017 74.4 56.8017 74.4 56.8017 74.4C56.8017 74.4 56.8017 74.5 56.7017 74.7C56.5017 75.1 56.0017 75.9 54.7017 75.9C52.9017 75.9 49.1017 73.2 47.9017 70.3C46.7017 67.4 49.2017 63.8 50.1017 62.8C50.4017 62.4 50.7017 62.2 51.1017 62C51.7017 61.7 52.3017 61.6 52.3017 61.6C52.3017 61.6 53.6017 60 54.6017 59.9C55.6017 59.8 57.1017 60.6 57.1017 60.6C57.1017 60.6 59.3017 67.1 59.5017 67.4C59.6017 67.6 60.3017 71.6 59.3017 73Z" fill="#3A8084"/>
<path d="M76.7984 27.2C76.8984 27.4 79.0984 29.2 79.6984 30.2C80.2984 31.2 80.2984 35.1 80.0984 35C79.8984 34.9 78.3984 33.2 78.3984 33.2C78.3984 33.2 79.0984 34.9 78.2984 35.7C77.4984 36.5 74.8984 37.5 74.8984 37.5C74.8984 37.5 77.0984 33 77.2984 31.8C77.4984 30.5 76.5984 31.1 76.3984 30.2C76.1984 29.3 76.7984 27.2 76.7984 27.2Z" fill="#3A8084"/>
<path d="M81.5993 20.2C81.5993 20.2 82.0993 20.4 82.6993 20.1C83.2993 19.7 84.1993 19.1 84.3993 17.3C84.5993 15.5 84.1993 14.9 82.6993 15.2C81.0993 15.6 80.4993 20.2 81.5993 20.2Z" fill="#EEA77F"/>
<path d="M82.0981 16.7C82.0981 16.7 83.1981 15.7 83.3981 14.1C83.5981 12.5 84.1981 10.3 82.5981 8.7C82.2981 6.2 81.4981 4.2 76.2981 4.1C71.2981 3.9 69.1981 5.3 67.5981 6.6C66.0981 7.8 65.3981 13.7 66.2981 16.5C67.2981 19.3 73.2981 19.2 73.3981 19.1C73.4981 19.1 79.6981 18.5 79.7981 18.4C79.8981 18.3 82.0981 16.7 82.0981 16.7Z" fill="#32191C"/>
<path d="M77.8001 31.8C77.3001 32.9 76.3001 35 75.1001 37.6C74.8001 36.7 70.9001 33.6 69.0001 32.3C67.1001 31 67.2001 28.7 67.2001 28.7C67.2001 28.7 68.0001 27 68.4001 25.9C68.6001 25.5 68.6001 24.6 68.6001 23.6C68.6001 21.7 68.4001 19.3 68.4001 19.3L77.4001 25.6C77.4001 25.6 77.2001 27.2 77.2001 28.5C77.2001 29.2 77.1001 29.8 77.2001 29.9C77.3001 30.1 77.4001 30.3 77.7001 30.5C77.9001 30.8 78.0001 31.3 77.8001 31.8Z" fill="#EEA77F"/>
<path d="M77.3008 25.5C77.3008 25.5 77.1008 27.1 77.1008 28.4C76.0008 28.3 74.5008 28.1 72.5008 27.5C70.4008 26.8 69.2008 24.9 68.5008 23.5C68.5008 21.6 68.3008 19.2 68.3008 19.2L77.3008 25.5Z" fill="#F37E57"/>
<path d="M82.5986 15.4C82.5986 15.4 82.1986 19.1 81.8986 20.5C81.5986 22.9 80.1987 26.4 78.2987 26.7C75.7987 27.1 72.0986 25.8 70.6986 24.5C69.3986 23.3 68.1986 20.7 67.9986 19.5C67.8986 18.3 68.9986 17 68.5986 15C70.0986 14 70.6986 12.8 70.6986 11.8C70.6986 10.8 71.1986 10.4 71.6986 10.3C72.1986 10.2 80.2986 9.79998 80.8986 10.2C81.4986 10.6 81.1986 12.3 81.4986 12.9C81.8986 13.5 82.5986 14.3 82.5986 15.4Z" fill="#FBC09A"/>
<path d="M72.1992 17.1C72.1992 17.1 72.6992 16.6 73.6992 16.7C74.5992 16.8 74.9992 17.3 74.9992 17.3C74.9992 17.3 74.6992 16.2 73.5992 16.2C72.5992 16.1 72.1992 17.1 72.1992 17.1Z" fill="#32191C"/>
<path d="M81.3 17.1C81.3 17.1 80.8 16.6 79.8 16.7C78.9 16.8 78.5 17.3 78.5 17.3C78.5 17.3 78.8 16.2 79.9 16.2C80.9 16.1 81.3 17.1 81.3 17.1Z" fill="#32191C"/>
<path d="M73.6008 17.9C74.0426 17.9 74.4008 17.5418 74.4008 17.1C74.4008 16.6582 74.0426 16.3 73.6008 16.3C73.1589 16.3 72.8008 16.6582 72.8008 17.1C72.8008 17.5418 73.1589 17.9 73.6008 17.9Z" fill="#32191C"/>
<path d="M79.9016 17.9C80.3434 17.9 80.7016 17.5418 80.7016 17.1C80.7016 16.6582 80.3434 16.3 79.9016 16.3C79.4597 16.3 79.1016 16.6582 79.1016 17.1C79.1016 17.5418 79.4597 17.9 79.9016 17.9Z" fill="#32191C"/>
<path d="M77.7984 15.3C77.7984 15.2 76.8984 16.6 76.8984 17.9C76.8984 19.2 77.4984 20 77.4984 20L75.8984 19.9C75.8984 19.9 77.1984 20.5 78.1984 20.4C77.5984 19.1 77.0984 17.1 77.7984 15.3Z" fill="#F37E57"/>
<path d="M71.6016 14.9C71.6016 14.9 72.4016 14.7 73.9016 15C75.4016 15.2 75.7016 15.1 76.1016 14.9C76.4016 14.7 76.4016 14.3 76.4016 14.3C76.4016 14.3 76.0016 14.5 75.2016 14.3C74.4016 14.1 72.7016 13.6 71.6016 14.9Z" fill="#32191C"/>
<path d="M78.1992 15.2C78.1992 15.2 78.3992 14.6 78.4992 14.5C79.2992 14.1 80.2992 13.6 80.7992 13.6C81.2992 13.6 81.9992 14.5 81.9992 14.5C81.9992 14.5 81.0992 14.2 80.1992 14.4C79.1992 14.7 78.1992 15.2 78.1992 15.2Z" fill="#32191C"/>
<path d="M75.6016 22.9C75.6016 22.9 76.5016 21.1 78.1016 22.4C76.7016 22.4 75.6016 22.9 75.6016 22.9Z" fill="#F37E57"/>
<path d="M71.5 18.8C71.5 18.8 73.4 18.7 74.8 19.7C74 18.4 72.6 18.3 71.5 18.8Z" fill="#EEA77F"/>
<path d="M81.8008 18.9C81.8008 18.9 80.1008 18.7 78.8008 19.6C79.6008 18.4 80.8008 18.3 81.8008 18.9Z" fill="#EEA77F"/>
<path d="M68.7 17.4C68.7 17.4 67.4 14.5 66.6 14C65.8 13.5 65 14.5 64.9 15C64.8 15.5 64.9 17.4 65.6 18.5C66.3 19.6 67.7 20.2 68.5 19.9C69.3 19.5 68.7 17.4 68.7 17.4Z" fill="#FBC09A"/>
<path d="M65.7017 16.7C65.7017 16.7 65.4018 15.5 65.8018 15C66.2018 14.5 66.6018 14.8 66.9018 15.1C67.9018 16.3 68.0017 17.3 68.0017 17.3C68.0017 17.3 66.8018 15.2 66.3018 15.1C65.7018 15 65.6017 16.3 65.7017 16.7Z" fill="#F37E57"/>
<path d="M67.3012 16C67.3012 16 66.6012 16.8 66.7012 17.1C66.8012 17.4 67.5012 17.8 67.7012 18C67.9012 18.2 67.8012 18.6 67.6012 18.5C67.4012 18.4 67.0012 18.2 66.7012 17.7C66.9012 18.4 67.4012 18.9 67.8012 18.7C68.2012 18.5 68.1012 17.9 67.8012 17.7C67.5012 17.5 66.9012 17.2 66.9012 17C66.9012 16.8 67.4012 16.3 67.4012 16.3L67.3012 16Z" fill="#F37E57"/>
<path d="M75.0015 37.6C75.0015 37.6 73.6015 34.2 72.5015 33.2C71.4015 32.2 68.0015 29.5 67.7015 28.7C67.4015 27.9 68.3015 25.7 68.3015 25.7C68.3015 25.7 65.4015 28.7 65.7015 30.1C65.9015 31.5 67.2015 35.1 67.2015 35.1C67.2015 35.1 69.0015 33.2 70.2015 33.2C69.4015 34.8 69.6015 35.7 70.4015 36C71.1015 36.3 73.6015 37.1 75.0015 37.6Z" fill="#3A8084"/>
<path d="M64.5 49.9C64.5 49.9 67.4 42.5 68.4 41.1C69.2 40 74 38.1 74.3 38.2C74.6 38.3 74.8 39.9 71.5 41.3C68.4 42.5 64.5 49.9 64.5 49.9Z" fill="#F37E57"/>
<path d="M80.1983 41C79.6983 41.7 72.6983 42.4 72.6983 42.4C72.6983 42.4 75.0983 42.5 75.3983 42.6C75.5983 42.7 76.2983 43.6 75.6983 44.1C75.8983 44.3 76.6983 45.3 75.9983 46.3C75.8983 46.4 75.8983 46.5 75.7983 46.5C76.2983 47.9 74.7983 49.4 74.4983 50C74.1983 50.5 73.4983 50.5 71.5983 49.7C70.8983 52.3 68.9983 53 68.9983 53C68.9983 53 65.0983 61.6 64.1983 63.8C63.2983 66 59.8983 71.9 57.0983 72.3C54.2983 72.8 51.2983 69.7 51.1983 66.7C51.0983 63.7 53.4983 61.3 55.0983 60.2C56.6983 59.2 63.7983 50.5 64.3983 49.8C65.0983 49 67.5983 42.1 68.4983 41.6C69.3983 41.1 75.8983 40.2 75.8983 40.2C78.8983 39.9 80.6983 40.3 80.1983 41Z" fill="#FBC09A"/>
<path d="M72.1016 47.7C71.9016 47.9 71.8016 48.2 71.7016 48.5C71.6016 48.8 71.4016 49.1 71.2016 49.4C70.9016 50 70.7016 50.6 70.4016 51.1C69.8016 52.2 69.0016 53.3 67.8016 53.5C67.7016 53.5 67.7016 53.6 67.8016 53.6C69.1016 53.5 70.2016 52.9 70.9016 51.8C71.3016 51.2 71.5016 50.6 71.8016 50C71.9016 49.7 72.0016 49.3 72.1016 49C72.2016 48.6 72.4016 48.3 72.5016 47.9C72.5016 47.6 72.2016 47.5 72.1016 47.7Z" fill="#F37E57"/>
<path d="M74.9006 47.8C74.0006 47.8 73.0006 47.9 72.1006 47.8C71.8006 47.8 71.8006 48.3 72.2006 48.2C73.1006 48 74.0006 48.1 74.9006 47.9C75.0006 48 75.0006 47.8 74.9006 47.8Z" fill="#F37E57"/>
<path d="M73.7001 49C73.6001 48.8 73.4001 48.6 73.3001 48.4C73.2001 48.2 73.1001 48 72.9001 47.8C72.8001 47.6 72.5001 47.9 72.7001 48C72.8001 48.2 73.0001 48.3 73.2001 48.5C73.3001 48.7 73.5001 48.8 73.6001 49C73.6001 49.2 73.7001 49.1 73.7001 49Z" fill="#F37E57"/>
<path d="M75.8009 46.6C75.4009 46.5 74.4009 46.2 73.8009 46.1C73.0009 46 72.2009 45.9 71.4009 45.9C71.3009 45.9 72.4009 45.5 73.6009 45.7C74.3009 45.8 75.4009 45.8 75.9009 46.4C75.9009 46.5 75.9009 46.5 75.8009 46.6Z" fill="#F37E57"/>
<path d="M75.6988 44C75.3988 43.8 74.8988 43.8 74.4988 43.7C74.0988 43.6 73.6988 43.6 73.2988 43.6C72.4988 43.6 70.7988 43.9 70.8988 43.9C71.6988 43.9 72.4988 44 73.2988 44.1C73.6988 44.1 73.9988 44.2 74.3988 44.2C74.7988 44.3 75.0988 44.4 75.4988 44.4C75.7988 44.4 75.8988 44.1 75.6988 44Z" fill="#F37E57"/>
<path d="M75.6019 42.7C75.1019 42.2 74.1019 42.2 73.5019 42.1C72.7019 42 71.9019 42.1 71.1019 42.3C71.0019 42.3 72.7019 42.5 73.4019 42.6C73.8019 42.6 74.2019 42.7 74.5019 42.8C74.8019 42.9 75.1019 43 75.4019 42.9C75.6019 42.9 75.7019 42.8 75.6019 42.7Z" fill="#F37E57"/>
<path d="M52.1981 61.6C52.1981 61.6 50.1981 63.9 49.8981 66.9C49.6981 65 50.3981 63 50.9981 61.9C51.5981 61.6 52.1981 61.6 52.1981 61.6Z" fill="#1B555A"/>
<path d="M58.4018 73.8C57.5018 74.4 56.7018 74.4 56.7018 74.4C56.7018 74.4 52.9018 73.5 53.1018 74.4C53.8018 75 54.9018 74.8 55.6018 74.7C55.7018 74.7 53.7018 75.5 52.5018 74.6C52.3018 74.5 52.2018 74.2 52.5018 74C53.7018 73.3 55.1018 73.5 56.7018 73.9C57.2018 74 57.8018 73.7 58.4018 73.8Z" fill="#1B555A"/>
<path d="M78.9984 27.7C78.9984 27.7 77.2984 27.4 76.9984 29.2C76.6984 31 75.8984 42.4 75.8984 43.5C75.8984 44.6 76.3984 44.8 76.9984 44.7C77.5984 44.7 83.3984 44.7 84.4984 44.5C85.5984 44.3 85.6984 43.8 85.8984 43C85.9984 42.2 86.8984 29.6 86.8984 29.2C86.8984 28.8 86.8984 27.9 85.3984 27.9C83.7984 27.7 78.9984 27.7 78.9984 27.7Z" fill="#9FBFD1"/>
<path d="M79.2016 28.3C78.4016 28.3 77.7016 28.7 77.7016 29.4C77.7016 30.1 76.6016 42.7 76.6016 43.1C76.6016 43.6 76.9016 43.8 77.5016 43.8C78.1016 43.8 84.0016 43.7 84.5016 43.7C85.0016 43.7 85.3016 43.2 85.4016 42.4C85.5016 41.7 86.3016 29.9 86.4016 29.4C86.5016 28.6 86.1016 28.2 84.8016 28.2C83.6016 28.2 79.2016 28.3 79.2016 28.3Z" fill="#D3E9FE"/>
<path d="M83.3984 28.9C82.7984 28.9 82.6984 29.1 82.5984 29.5C82.4984 29.9 82.3984 31.9 82.3984 32C82.3984 32.1 82.5984 32.4 82.8984 32.5C83.2984 32.5 85.1984 32.6 85.3984 32.5C85.5984 32.4 85.6984 32.2 85.7984 31.7C85.8984 31.2 85.8984 29.8 85.8984 29.5C85.8984 29.2 85.5984 29.1 84.9984 29C84.4984 28.9 83.3984 28.9 83.3984 28.9Z" fill="#9FBFD1"/>
<path d="M83.9016 30.5C83.9016 30.8 83.7016 31.1 83.3016 31.2C82.9016 31.3 82.7016 31 82.6016 30.6C82.6016 30.3 82.8016 30 83.2016 29.9C83.6016 29.9 83.9016 30.2 83.9016 30.5Z" fill="#32191C"/>
<path d="M85.4016 29.8C85.4016 30.1 85.2016 30.4 84.8016 30.5C84.4016 30.6 84.2016 30.3 84.1016 29.9C84.1016 29.6 84.3016 29.3 84.7016 29.2C85.1016 29.2 85.4016 29.4 85.4016 29.8Z" fill="#32191C"/>
<path d="M84.7992 32C85.1306 32 85.3992 31.7314 85.3992 31.4C85.3992 31.0686 85.1306 30.8 84.7992 30.8C84.4679 30.8 84.1992 31.0686 84.1992 31.4C84.1992 31.7314 84.4679 32 84.7992 32Z" fill="#32191C"/>
<path d="M87.4992 47.2C87.0992 47.2 86.6992 47 85.9992 46.1C85.2992 45.2 86.2992 41.7 85.9992 41.4C85.6992 41.1 84.8992 40.7 83.0992 41.4C82.4992 41.7 81.7992 41.9 81.6992 41.2C81.6992 41.1 81.5992 41.1 81.5992 41C81.4992 40.7 81.5992 40.4 81.5992 40.4C81.5992 40.4 81.4992 40.4 81.3992 40.3C81.2992 40.2 81.1992 40 81.2992 39.7C81.4992 39 82.7992 37.1 83.2992 36.9C83.7992 36.7 84.7992 36.4 86.0992 36.3C87.3992 36.2 87.9992 35.5 88.3992 36C88.3992 36 89.0992 38 89.0992 39.5C89.0992 41.9 88.6992 43.7 89.1992 45.7C89.5992 46.6 87.8992 47.2 87.4992 47.2Z" fill="#FBC09A"/>
<path d="M87.5984 37.4C87.5984 37.4 86.6984 38.1 86.3984 38.1C86.0984 38.1 84.0984 38.2 83.5984 38.4C83.0984 38.6 81.5984 40.3 81.5984 40.3C81.5984 40.3 81.4984 40.3 81.3984 40.2C81.8984 39.6 82.9984 38 83.3984 37.9C83.8984 37.7 84.9984 37.8 85.8984 37.9C86.6984 37.8 87.5984 37.4 87.5984 37.4Z" fill="#F37E57"/>
<path d="M87.4992 39.4C87.4992 39.4 86.6992 39.6 86.2992 39.7C85.7992 39.7 84.4992 39.6 83.9992 39.8C83.3992 40 81.7992 41.1 81.7992 41.1C81.7992 41 81.6992 41 81.6992 40.9C82.1992 40.4 83.3992 39.5 83.7992 39.4C84.1992 39.3 85.5992 39.3 86.0992 39.4C86.3992 39.4 87.4992 39.4 87.4992 39.4Z" fill="#F37E57"/>
<path d="M85.1992 40.9C85.1992 40.9 86.1992 41.4 86.8992 42.2C86.5992 41.3 85.9992 40.9 85.1992 40.9Z" fill="#F37E57"/>
<path d="M107.502 65.2C107.502 65.2 107.502 64.3 107.102 63.3C106.702 62.3 105.302 61.6 105.102 59.4C105.802 60.4 106.402 60.4 106.902 60.7C107.402 60.9 108.102 61.8 108.102 62.8C107.502 61.7 107.002 61.1 106.202 60.9C107.002 62.1 107.302 62.3 107.702 63.1C107.902 63.9 107.502 65.2 107.502 65.2Z" fill="#1B555A"/>
<path d="M64.1992 74.9C64.1992 74.9 74.8992 69.3 88.6992 73.3C81.8992 69.3 72.5992 69 64.1992 74.9Z" fill="#1B555A"/>
<path d="M71.8984 63C71.8984 63 75.3984 63.2 79.1984 61.5C82.9984 59.8 84.1984 57 84.1984 57C84.1984 57 78.4984 61.8 71.8984 63Z" fill="#1B555A"/>
<path d="M66.3006 98.5C65.9006 98.7 81.3006 98.5 81.3006 98.5C81.3006 98.5 75.3006 93.9 66.3006 98.5Z" fill="#111112"/>
<path d="M59.3019 28.1H36.4019C36.4019 28.1 37.0019 27.5 38.1019 26.1C35.6019 24.6 35.7019 21.4 37.2019 19.6C38.7019 17.8 41.9019 18.7 41.9019 18.7C41.9019 18.7 40.7019 13.9 44.1019 12.7C47.0019 11.6 50.4019 13.1 50.0019 18.4C53.8019 16.2 56.7019 18.2 56.5019 22.5C62.1019 22.4 59.3019 28.1 59.3019 28.1Z" fill="#E8F3FC"/>
<path d="M57.4037 28.1H39.3037L41.4037 26.5C41.4037 26.5 37.7037 24 39.4037 21.8C41.1037 19.6 43.8037 21.3 43.8037 21.3C43.8037 21.3 43.8037 17.8 46.1037 17.2C48.4037 16.7 48.4037 19.1 48.4037 20.7C50.5037 19.2 54.1037 20.3 54.2037 24C56.6037 23.6 58.3037 25.2 57.4037 28.1Z" fill="#D3E9FE"/>
<path d="M118.601 79H103.801C103.801 79 104.201 78.6 104.901 77.7C103.301 76.8 103.301 74.6 104.301 73.5C105.301 72.3 107.401 72.9 107.401 72.9C107.401 72.9 106.601 69.8 108.801 69C110.701 68.3 112.801 69.3 112.601 72.7C115.001 71.3 117.001 72.6 116.801 75.3C120.301 75.3 118.601 79 118.601 79Z" fill="#E8F3FC"/>
<path d="M117.303 79H105.603L107.003 78C107.003 78 104.603 76.4 105.703 75C106.803 73.6 108.503 74.7 108.503 74.7C108.503 74.7 108.503 72.4 110.003 72.1C111.503 71.8 111.503 73.3 111.503 74.4C112.903 73.4 115.203 74.1 115.203 76.5C116.803 76.2 117.903 77.2 117.303 79Z" fill="#D3E9FE"/>
</svg>
