<svg width="84" height="84" viewBox="0 0 84 84" fill="none" xmlns="http://www.w3.org/2000/svg">
<circle cx="42" cy="42" r="42" fill="#F1F3F9"/>
<path fill-rule="evenodd" clip-rule="evenodd" d="M42.25 16C27.7528 16 16 27.7528 16 42.25C16 56.7472 27.7528 68.5 42.25 68.5C56.7472 68.5 68.5 56.7472 68.5 42.25C68.5 27.7528 56.7472 16 42.25 16ZM53.6282 37.8114C53.8377 37.5719 53.9972 37.2929 54.0973 36.9909C54.1974 36.6888 54.2361 36.3698 54.2111 36.0526C54.1861 35.7354 54.0979 35.4263 53.9517 35.1437C53.8055 34.8611 53.6043 34.6105 53.3598 34.4068C53.1154 34.2031 52.8327 34.0504 52.5283 33.9575C52.2239 33.8647 51.9041 33.8337 51.5876 33.8663C51.271 33.8989 50.9642 33.9945 50.6852 34.1474C50.4061 34.3004 50.1605 34.5076 49.9627 34.7568L39.7014 47.0681L34.3917 41.756C33.9416 41.3213 33.3388 41.0808 32.7131 41.0862C32.0874 41.0917 31.4889 41.3426 31.0465 41.7851C30.604 42.2275 30.353 42.8261 30.3476 43.4518C30.3422 44.0775 30.5827 44.6803 31.0174 45.1303L38.1765 52.2894C38.411 52.5238 38.6917 52.7067 39.0008 52.8265C39.3098 52.9463 39.6405 53.0005 39.9717 52.9854C40.3028 52.9704 40.6272 52.8865 40.9242 52.7391C41.2211 52.5918 41.4841 52.3842 41.6964 52.1295L53.6282 37.8114Z" fill="#FA9D1C"/>
<rect x="32.8164" y="28.7295" width="21" height="27" fill="#FA9D1C"/>
<path d="M50.3942 43.0083V31.2538C50.3942 30.433 49.72 29.7295 48.8699 29.7295H31.3407C30.5199 29.7295 29.8164 30.4037 29.8164 31.2538V54.499C29.8164 55.0266 30.1388 55.525 30.6372 55.7008C30.7837 55.7595 30.9303 55.7888 31.0769 55.7888C31.4286 55.7888 31.7804 55.6422 32.0442 55.3491L35.2686 51.6263H41.7468C42.3917 55.0266 45.3816 57.5769 48.9578 57.5769C53.003 57.5769 56.3154 54.2645 56.3154 50.2193C56.3447 46.6431 53.7651 43.6532 50.3942 43.0083ZM34.184 34.0678C34.184 34.0385 34.2134 34.0092 34.2427 34.0092H45.9972C46.0265 34.0092 46.0558 34.0385 46.0558 34.0678V35.9439C46.0558 35.9732 46.0265 36.0025 45.9972 36.0025H34.2427C34.2134 36.0025 34.184 35.9732 34.184 35.9439V34.0678ZM34.184 39.7252C34.184 39.6959 34.2134 39.6666 34.2427 39.6666H45.9972C46.0265 39.6666 46.0558 39.6959 46.0558 39.7252V41.6013C46.0558 41.6306 46.0265 41.6599 45.9972 41.6599H34.2427C34.2134 41.6599 34.184 41.6306 34.184 41.6013V39.7252ZM34.2427 47.3466C34.2134 47.3466 34.184 47.3173 34.184 47.288V45.412C34.184 45.3826 34.2134 45.3533 34.2427 45.3533H43.5349C43.0073 45.9396 42.5676 46.6138 42.2451 47.3466H34.2427ZM48.9871 55.525C46.0558 55.525 43.6815 53.1506 43.6815 50.2193C43.6815 47.288 46.0558 44.9136 48.9871 44.9136C51.9184 44.9136 54.2928 47.288 54.2928 50.2193C54.2928 53.1506 51.9184 55.525 48.9871 55.525Z" fill="white"/>
<path d="M50.3942 48.0504L48.313 50.4247L47.3457 49.4574C46.9353 49.047 46.2904 49.047 45.9093 49.4574C45.499 49.8678 45.499 50.5126 45.9093 50.8937L47.6388 52.6232C47.844 52.8284 48.0785 52.9163 48.3716 52.9163H48.401C48.6941 52.9163 48.9579 52.7697 49.1338 52.5646L51.9478 49.3694C52.3289 48.9297 52.2703 48.2849 51.8599 47.9331C51.4202 47.5813 50.7753 47.6107 50.3942 48.0504Z" fill="white"/>
</svg>
