<svg width="16" height="16" viewBox="0 0 16 16" fill="none" xmlns="http://www.w3.org/2000/svg">
<g id="Iconly/Bulk/Info Circle">
<path id="Fill 1" d="M14.6668 7.99968C14.6668 11.6823 11.6822 14.6663 8.00016 14.6663C4.31816 14.6663 1.3335 11.6823 1.3335 7.99968C1.3335 4.31834 4.31816 1.33301 8.00016 1.33301C11.6822 1.33301 14.6668 4.31834 14.6668 7.99968Z" fill="#F37022"/>
<path id="Combined Shape" fill-rule="evenodd" clip-rule="evenodd" d="M7.41704 5.47396C7.41704 5.15262 7.67771 4.89062 7.99704 4.89062C8.32571 4.89062 8.58704 5.15262 8.58704 5.47396C8.58704 5.79529 8.32571 6.05729 8.00371 6.05729C7.68038 6.05729 7.41704 5.79529 7.41704 5.47396ZM8.58024 10.5871C8.58024 10.9085 8.31824 11.1705 7.99691 11.1705C7.67557 11.1705 7.41357 10.9085 7.41357 10.5871V7.64046C7.41357 7.31913 7.67557 7.05713 7.99691 7.05713C8.31824 7.05713 8.58024 7.31913 8.58024 7.64046V10.5871Z" fill="white"/>
</g>
</svg>
