<svg width="47" height="46" viewBox="0 0 47 46" fill="none" xmlns="http://www.w3.org/2000/svg">
<path opacity="0.1" d="M37.8257 0H8.83832C4.14042 0 0.332031 3.80839 0.332031 8.50628V37.4916C0.332031 42.1895 4.14042 45.9979 8.83832 45.9979H37.8257C42.5236 45.9979 46.332 42.1895 46.332 37.4916V8.50628C46.332 3.80839 42.5236 0 37.8257 0Z" fill="#FA9D1C"/>
<path fill-rule="evenodd" clip-rule="evenodd" d="M33.0193 22.8047C32.9874 27.1777 32.0169 31.0666 30.0933 34.7048C29.7909 35.2801 29.3934 35.6411 28.7117 35.5924C27.9015 35.5339 27.3467 34.7412 27.5876 33.9341C27.6522 33.7152 27.7624 33.5055 27.8719 33.301C29.9254 29.4418 30.7082 25.3005 30.3244 20.9419C30.0842 18.2257 29.3402 15.6356 28.0786 13.218C27.9463 12.965 27.8232 12.7088 27.7077 12.4474C27.3923 11.7338 27.6043 10.9578 28.2002 10.6204C28.8173 10.2685 29.5659 10.4813 29.9626 11.1767C30.8625 12.7575 31.5427 14.4371 32.0481 16.1919C32.6925 18.4248 32.9874 20.7132 33.0193 22.8047Z" fill="#FA9D1C"/>
<path fill-rule="evenodd" clip-rule="evenodd" d="M27.732 23.9956C27.7054 26.3402 26.9363 29.3787 25.4042 32.2104C25.1784 32.6322 24.8851 32.9963 24.3911 33.0761C23.8842 33.1582 23.4304 33.013 23.112 32.5692C22.7981 32.1291 22.8019 31.642 23.0048 31.1632C23.1698 30.7854 23.3909 30.4298 23.5642 30.0551C24.3972 28.2805 24.9018 26.4215 25.0766 24.4501C25.3601 21.2452 24.7346 18.253 23.2518 15.4312C23.1576 15.2465 23.0649 15.061 22.9889 14.8688C22.7122 14.1665 22.9501 13.4506 23.5558 13.1284C24.1813 12.7978 24.8851 12.9779 25.256 13.6566C25.6914 14.4477 26.098 15.2609 26.4317 16.103C27.3209 18.3427 27.745 20.682 27.732 23.9956Z" fill="#FA9D1C"/>
<path fill-rule="evenodd" clip-rule="evenodd" d="M19.5175 15.4669C20.0335 15.4828 20.4226 15.8195 20.697 16.3287C21.3468 17.5417 21.8803 18.801 22.1509 20.1659C22.828 23.5647 22.3614 26.7749 20.681 29.7921C20.4089 30.2785 20.0525 30.5871 19.4757 30.5871C18.5629 30.5871 17.9549 29.7959 18.2171 28.9014C18.2832 28.6787 18.4101 28.4773 18.5188 28.2713C20.3307 24.7974 20.3565 21.3234 18.5317 17.8434C18.436 17.661 18.3212 17.4854 18.2498 17.2939C17.9291 16.4131 18.5431 15.4737 19.5175 15.4669Z" fill="#FA9D1C"/>
<path fill-rule="evenodd" clip-rule="evenodd" d="M17.5237 23.0646C17.5259 24.7434 17.0046 26.233 16.0941 27.6003C15.7551 28.1072 15.2885 28.3139 14.7162 28.2121C14.1591 28.1156 13.8605 27.7097 13.7047 27.1694C13.5717 26.7141 13.7814 26.363 13.9995 26.0111C14.4388 25.3013 14.7595 24.558 14.8713 23.7091C15.0293 22.4931 14.7671 21.3926 14.1645 20.359C14.0345 20.1386 13.8848 19.9228 13.7883 19.6849C13.5519 19.102 13.7457 18.4218 14.2161 18.0934C14.7892 17.6929 15.4686 17.7416 15.9246 18.2895C16.6816 19.1992 17.1224 20.2769 17.3397 21.4428C17.4393 21.9755 17.4636 22.5235 17.5237 23.0646Z" fill="#FA9D1C"/>
</svg>
