<?xml version="1.0" encoding="utf-8"?>
<!-- Generator: Adobe Illustrator 21.0.0, SVG Export Plug-In . SVG Version: 6.00 Build 0)  -->
<svg version="1.1" id="Layer_1" xmlns="http://www.w3.org/2000/svg" xmlns:xlink="http://www.w3.org/1999/xlink" x="0px" y="0px"
	 viewBox="0 0 216.3 141.2" style="enable-background:new 0 0 216.3 141.2;" xml:space="preserve">
<style type="text/css">
	.st0{fill:#F7F9FE;}
	.st1{fill:#A0A0A0;}
	.st2{fill-rule:evenodd;clip-rule:evenodd;fill:#38717C;}
	.st3{fill-rule:evenodd;clip-rule:evenodd;fill:#FFFFFF;stroke:#C6C6C6;stroke-width:0.75;stroke-miterlimit:10;}
	.st4{fill:#E88053;}
	.st5{fill:#FFFFFF;fill-opacity:0;}
	.st6{opacity:0.357;fill:#FFFFFF;fill-opacity:0.3;enable-background:new    ;}
	.st7{opacity:0.9;fill:#FFFFFF;enable-background:new    ;}
	.st8{fill:#FFFFFF;fill-opacity:0.3;}
	.st9{fill:#FFFFFF;}
	.st10{enable-background:new    ;}
	.st11{opacity:0.6341;}
	.st12{fill:#262626;}
	.st13{clip-path:url(#SVGID_4_);fill-rule:evenodd;clip-rule:evenodd;fill:#FFFFFF;}
	.st14{clip-path:url(#SVGID_6_);}
	.st15{clip-path:url(#SVGID_8_);fill:#FFFFFF;}
	.st16{fill:#6B6B6B;}
	.st17{fill:#F86E57;}
	.st18{clip-path:url(#SVGID_12_);fill-rule:evenodd;clip-rule:evenodd;fill:#FFFFFF;}
	.st19{clip-path:url(#SVGID_14_);}
	.st20{clip-path:url(#SVGID_16_);fill:#FFFFFF;}
	.st21{clip-path:url(#SVGID_20_);fill-rule:evenodd;clip-rule:evenodd;fill:#FFFFFF;}
	.st22{clip-path:url(#SVGID_22_);}
	.st23{clip-path:url(#SVGID_24_);fill:#FFFFFF;}
	.st24{clip-path:url(#SVGID_28_);fill-rule:evenodd;clip-rule:evenodd;fill:#FFFFFF;}
	.st25{clip-path:url(#SVGID_30_);}
	.st26{clip-path:url(#SVGID_32_);fill:#FFFFFF;}
	.st27{clip-path:url(#SVGID_36_);fill-rule:evenodd;clip-rule:evenodd;fill:#FFFFFF;}
	.st28{clip-path:url(#SVGID_38_);}
	.st29{clip-path:url(#SVGID_40_);fill:#FFFFFF;}
	.st30{clip-path:url(#SVGID_44_);fill-rule:evenodd;clip-rule:evenodd;fill:#FFFFFF;}
	.st31{clip-path:url(#SVGID_46_);}
	.st32{clip-path:url(#SVGID_48_);fill:#FFFFFF;}
	.st33{clip-path:url(#SVGID_52_);fill-rule:evenodd;clip-rule:evenodd;fill:#FFFFFF;}
	.st34{clip-path:url(#SVGID_54_);}
	.st35{clip-path:url(#SVGID_56_);fill:#FFFFFF;}
	.st36{fill-rule:evenodd;clip-rule:evenodd;fill:#444141;}
	.st37{fill-rule:evenodd;clip-rule:evenodd;fill:#E88053;}
	.st38{clip-path:url(#SVGID_60_);fill-rule:evenodd;clip-rule:evenodd;fill:#FFFFFF;}
	.st39{clip-path:url(#SVGID_62_);}
	.st40{clip-path:url(#SVGID_64_);fill:#FFFFFF;}
	.st41{fill-rule:evenodd;clip-rule:evenodd;fill:#F7F9FE;}
	.st42{fill:#EEB830;}
	.st43{fill:#38717C;}
	.st44{fill:#F29E6E;}
	.st45{fill:#F7F9FE;stroke:#E88053;stroke-width:4;stroke-miterlimit:10;}
	.st46{fill:none;stroke:#E88053;stroke-miterlimit:10;}
	.st47{fill:#97999C;}
	.st48{fill:#636467;}
	.st49{fill:#F19623;}
	.st50{fill:#FBC40C;}
	.st51{fill:#EA7025;}
	.st52{fill:#4D5252;}
	.st53{fill:#027382;}
	.st54{fill:#0C6BC2;}
	.st55{clip-path:url(#SVGID_68_);fill:#027382;}
	.st56{fill:none;stroke:#F1F2F2;stroke-width:1.04;stroke-linecap:round;stroke-miterlimit:10;}
	.st57{fill:#C3DAED;}
	.st58{fill:#7A94D3;}
	.st59{fill:#F7B58E;}
	.st60{fill:#634087;}
	.st61{fill:#F39F85;}
	.st62{fill:#2B3D82;}
	.st63{filter:url(#Adobe_OpacityMaskFilter);}
	.st64{mask:url(#mask-7_1_);fill:#2B3D82;}
	.st65{filter:url(#Adobe_OpacityMaskFilter_1_);}
	.st66{mask:url(#mask-9_1_);fill:url(#Fill-169_3_);}
	.st67{filter:url(#Adobe_OpacityMaskFilter_2_);}
	.st68{mask:url(#mask-12_2_);fill:#634087;}
	.st69{fill:#213268;}
	.st70{fill:#465DA5;}
	.st71{filter:url(#Adobe_OpacityMaskFilter_3_);}
	.st72{mask:url(#mask-14_2_);fill:#8B588E;}
	.st73{fill:#01888B;}
	.st74{filter:url(#Adobe_OpacityMaskFilter_4_);}
	.st75{mask:url(#mask-16_2_);fill:#01888B;}
	.st76{filter:url(#Adobe_OpacityMaskFilter_5_);}
	.st77{mask:url(#mask-18_2_);fill:#63C0C4;}
	.st78{fill:#FFBB99;}
	.st79{fill:#57C4C4;}
	.st80{filter:url(#Adobe_OpacityMaskFilter_6_);}
	.st81{mask:url(#mask-20_2_);fill:url(#Fill-267_3_);}
	.st82{clip-path:url(#SVGID_70_);fill:#027382;}
	.st83{filter:url(#Adobe_OpacityMaskFilter_7_);}
	.st84{mask:url(#mask-7_2_);fill:#2B3D82;}
	.st85{filter:url(#Adobe_OpacityMaskFilter_8_);}
	.st86{mask:url(#mask-9_2_);fill:url(#Fill-169_4_);}
	.st87{filter:url(#Adobe_OpacityMaskFilter_9_);}
	.st88{mask:url(#mask-12_1_);fill:#634087;}
	.st89{filter:url(#Adobe_OpacityMaskFilter_10_);}
	.st90{mask:url(#mask-14_1_);fill:#8B588E;}
	.st91{filter:url(#Adobe_OpacityMaskFilter_11_);}
	.st92{mask:url(#mask-16_1_);fill:#01888B;}
	.st93{filter:url(#Adobe_OpacityMaskFilter_12_);}
	.st94{mask:url(#mask-18_1_);fill:#63C0C4;}
	.st95{filter:url(#Adobe_OpacityMaskFilter_13_);}
	.st96{mask:url(#mask-20_1_);fill:url(#Fill-267_4_);}
	.st97{clip-path:url(#SVGID_72_);fill:#38717C;}
	.st98{opacity:0.1;}
	.st99{fill:#2D2D2D;}
	.st100{fill:#A7A9AC;}
	.st101{fill:#BCBEC0;}
	.st102{fill:#44448C;}
	.st103{fill:#77BC4A;}
	.st104{opacity:5.000000e-02;fill:#262223;}
	.st105{fill:#F7C39F;}
	.st106{fill:none;stroke:#D84439;stroke-width:0.9952;stroke-linecap:round;stroke-miterlimit:10;}
	.st107{fill:#FB7A68;}
	.st108{fill:#D84439;}
	.st109{fill:#4F4A97;}
	.st110{fill:#F4633B;}
	.st111{opacity:0.1;fill:#262223;}
	.st112{opacity:0.1;fill:#9E6A43;}
	.st113{fill:#434342;}
	.st114{fill:#D6D9DB;}
	.st115{fill:#FCCA97;}
	.st116{opacity:0.5;fill:#D89C73;}
	.st117{opacity:5.000000e-02;}
	.st118{fill:#EDE674;}
	.st119{fill:#38281A;}
	.st120{fill:#D89C73;}
	.st121{fill:#473522;}
	.st122{fill:#E6B289;}
	.st123{fill:#BD6A9E;}
	.st124{fill:#3C3C3B;}
	.st125{fill:#E18B09;}
	.st126{fill:#E6E7E8;}
	.st127{fill:#8FD2EF;}
	.st128{fill:#88CBE2;}
	.st129{fill:#5E443F;}
	.st130{fill:#FFB380;}
	.st131{fill:#F2A672;}
	.st132{fill:#A4DFFF;}
	.st133{fill:#1559AA;}
	.st134{opacity:0.1;fill:#BA6536;}
	.st135{fill:#D89832;}
	.st136{opacity:7.000000e-02;}
	.st137{fill:#2A2A2B;}
	.st138{fill:#323233;}
	.st139{fill:#DBDDD9;}
	.st140{fill:#E84D4D;}
	.st141{fill:#F4BE8E;}
	.st142{fill:#D1D3D4;}
	.st143{fill:#2A1B40;}
	.st144{opacity:0.5;fill:#EFB378;}
	.st145{fill:#7F583D;}
	.st146{fill:#005274;}
	.st147{fill:#F96767;}
	.st148{clip-path:url(#SVGID_74_);fill:#38717C;}
	.st149{fill-rule:evenodd;clip-rule:evenodd;fill:none;stroke:#C6C6C6;stroke-width:0.5;stroke-miterlimit:10;}
</style>
<g>
	<g>
		<g>
			<defs>
				<path id="SVGID_73_" d="M10.4,110.7C10.4,55,55.5,9.9,111.1,9.9S211.9,55,211.9,110.7H10.4z"/>
			</defs>
			<clipPath id="SVGID_2_">
				<use xlink:href="#SVGID_73_"  style="overflow:visible;"/>
			</clipPath>
			<rect y="-18.4" style="clip-path:url(#SVGID_2_);fill:#38717C;" width="216.3" height="166.4"/>
		</g>
		<g>
			<path class="st98" d="M149.9,125.3c0,1.2-9.8,6-42.1,6s-41.3-4.5-41.3-5.7c0-0.6,19-2.4,41.4-2.5
				C131.3,123,149.9,124.7,149.9,125.3z"/>
			<g>
				<path class="st56" d="M80.3,38.3h-9.4c-0.1-1.1-1-2.1-2.1-2.1c-0.6,0-1.2,0.3-1.6,0.7c-0.5-0.9-1.5-1.5-2.6-1.5
					c-0.1,0-0.3,0-0.4,0c-0.3-2.5-2.5-4.4-5.1-4.4c-0.4,0-0.7,0-1.1,0.1c-0.8-1.4-2.3-2.4-4-2.4c-2,0-3.7,1.3-4.3,3.1
					c-0.4-0.2-0.9-0.3-1.4-0.3c-2.1,0-3.7,1.7-3.7,3.7c0,0.2,0,0.4,0.1,0.6c-0.1,0-0.2,0-0.3,0c-1.5,0-2.7,1-3.1,2.4H29.9"/>
				<line class="st56" x1="39.2" y1="40.5" x2="52.5" y2="40.5"/>
				<line class="st56" x1="48.6" y1="42.2" x2="50.5" y2="42.2"/>
				<line class="st56" x1="60.7" y1="42.2" x2="74.3" y2="42.2"/>
			</g>
			<g>
				<path class="st56" d="M165.9,34.3h-4.8c-0.4-0.3-0.9-0.5-1.4-0.5c0,0,0,0,0,0l-0.5,0l0.1-0.5c0-0.2,0.1-0.4,0.1-0.6
					c0-2.2-1.8-4.1-4.1-4.1c-1.6,0-3,0.9-3.7,2.3l-0.2,0.4l-0.4-0.2c-0.5-0.3-1-0.4-1.6-0.4c-1.6,0-3,1.2-3.2,2.8l-0.1,0.5l-0.5-0.2
					c-0.3-0.1-0.5-0.2-0.8-0.2c-0.6,0-1.1,0.2-1.5,0.6h-13.7"/>
				<line class="st56" x1="137.2" y1="35.5" x2="149.2" y2="35.5"/>
				<line class="st56" x1="155.4" y1="37" x2="160.5" y2="37"/>
				<line class="st56" x1="145.7" y1="38.1" x2="156" y2="38.1"/>
			</g>
			<g>
				<path class="st56" d="M190.9,47.8h-5.1c-0.3-0.6-0.9-1-1.6-1c0.3-0.4,0.4-0.9,0.4-1.4c0-1.4-1.2-2.6-2.6-2.6
					c-0.9,0-1.7,0.4-2.1,1.1c-0.1-0.1-0.2-0.1-0.2-0.1c-1.5-0.8-3.5-0.3-4.3,1.3c-0.3,0.6-0.4,1.2-0.4,1.8h0c-0.7,0-1.3,0.4-1.6,0.9
					h-14.2"/>
				<line class="st56" x1="168.1" y1="50.2" x2="176.5" y2="50.2"/>
				<line class="st56" x1="181.5" y1="50.2" x2="183.1" y2="50.2"/>
			</g>
			<g>
				<path class="st56" d="M39.5,110.7l-1.6-19.4l6.3-6.9c0.1,0,0.2,0,0.4,0C52.6,84.4,59,78,59,70c0-5.6-3.2-10.5-7.9-12.9
					c-1.8-8-9-14-17.6-14c-10,0-18,8.1-18,18c0,4.4,1.6,8.4,4.2,11.5c-0.3,0.7-0.4,1.5-0.4,2.3c0,3.8,3,6.8,6.8,6.8
					c0.4,0,0.7-0.1,1.1-0.1l7.4,8.4l-1.2,20.6H11 M34.5,85.1l-6.5-3.7c1.4-0.4,2.6-1.3,3.5-2.4c0.7,0.1,1.3,0.1,2,0.1
					c0.5,0.6,1,1.1,1.5,1.6L34.5,85.1z M37.9,87.3l-0.6-4.9c1.7,1,3.6,1.6,5.6,1.9L37.9,87.3z"/>
				<path class="st56" d="M56.2,110.7l-0.6-6.9l2.3-2.4c0,0,0.1,0,0.1,0c2.8,0,5.1-2.3,5.1-5.1c0-2-1.2-3.7-2.8-4.6
					c-0.7-2.9-3.2-5-6.3-5c-3.6,0-6.4,2.9-6.4,6.4c0,0.8,0.1,1.5,0.4,2.2c-1.1,0.6-1.8,1.8-1.8,3.1c0,2,1.6,3.6,3.6,3.6
					c1,0,1.8-0.4,2.5-1l2.1,2.4l-0.4,7.4H39.5 M54.4,101.5l-1.8-1c0.3-0.3,0.5-0.7,0.6-1.2c0.2,0,0.5,0,0.8,0.1
					c0.2,0.2,0.4,0.4,0.6,0.6L54.4,101.5z M55.6,102.3l-0.2-1.7c0.6,0.4,1.3,0.6,2,0.7L55.6,102.3z"/>
				<path class="st56" d="M63.4,110.7h-7.2 M206.8,110.7h-28.5l-1.2-14.1l3.6-3.9c1.1,0.6,2.3,1,3.7,1c4,0,7.2-3.2,7.2-7.2
					c0-3.3-2.2-6-5.1-6.9c0.6-1.4,0.9-3,0.9-4.6c0-6.4-5.2-11.6-11.6-11.6c-6.2,0-11.3,4.9-11.5,11.1c-3.9,0.8-6.8,4.2-6.8,8.4
					c0,4.7,3.8,8.6,8.6,8.6c1.4,0,2.8-0.4,4-1l4.6,5.2l-0.8,15h-24.3 M174.7,92.1l-3.8-2.1c1.3-0.9,2.4-2.1,3-3.6
					c0.5,0.1,0.9,0.1,1.4,0.2L174.7,92.1z M177.2,93.7l-0.9-7.2c0.3,0,0.6,0,0.9-0.1c0,2.3,1.1,4.3,2.7,5.6L177.2,93.7z"/>
			</g>
		</g>
		<g>
			<path class="st99" d="M89.3,123.7c-4.4,0-5.3-4-5.3-7.3V37.2c0-4,3.3-7.3,7.3-7.3H125c4,0,7.3,3.3,7.3,7.3v79.2
				c0,4-3.3,7.3-7.3,7.3H89.3z"/>
			<g>
				<path class="st9" d="M128,114c1.5,0,2.7-1.2,2.7-2.7V42.3c0-1.5-1.2-2.7-2.7-2.7H88.3c-1.5,0-2.7,1.2-2.7,2.7v68.9
					c0,1.5,1.2,2.7,2.7,2.7H128z"/>
				<path class="st100" d="M88.3,39.8H128c1.4,0,2.5,1.1,2.5,2.5v68.9c0,1.4-1.1,2.5-2.5,2.5H88.3c-1.4,0-2.5-1.1-2.5-2.5V90.7V56.6
					V42.3C85.8,40.9,86.9,39.8,88.3,39.8L88.3,39.8z M88.3,39.4c-1.6,0-2.9,1.3-2.9,2.9v14.3v34.1v20.6c0,1.6,1.3,2.9,2.9,2.9H128
					c1.6,0,2.9-1.3,2.9-2.9V42.3c0-1.6-1.3-2.9-2.9-2.9H88.3L88.3,39.4z"/>
			</g>
			<path class="st101" d="M103.4,33.8h9.5c0.2,0,0.4,0.2,0.4,0.5c0,0.3-0.2,0.5-0.4,0.5h-9.5c-0.2,0-0.4-0.2-0.4-0.5
				C103.1,34,103.2,33.8,103.4,33.8z"/>
		</g>
		<g>
			<path class="st102" d="M92,114.1l2.9-1.4c0,0,1.7-2.4,1.4-4.1l-2.1-3.1l-4.7,0.4l-2,6.3c0.3,0.8,0.9,1.4,1.6,1.8
				C90,114.5,91.1,114.5,92,114.1z"/>
			<path class="st103" d="M90.5,97.1l-0.9,0.2c-1.1,0.2-1.9,0.5-2.5,0.8c-0.8,0.4-1,0.9-1.2,1.8c-0.2,1.4-0.5,3.9,0.3,6.9l2-2.1
				l0.8,2.6c0,0-1.4,3.5-1.4,4.6c1.9-2.4,8.4-3.6,8.4-3.6l-0.6-1.8l0.2-0.6l1.4-0.3c0.8-3,0.1-7.1-0.8-7.8c-1-0.8-3.4-0.8-3.4-0.8
				L90.5,97.1z"/>
			<polygon class="st104" points="88.4,105.2 89,107.2 91.6,107.5 			"/>
			<path class="st104" d="M95.3,101.1c-0.3,2.4-0.3,4.4-0.3,4.4l-0.8,0.7C94.7,104.9,95.3,101.1,95.3,101.1z"/>
			<path class="st105" d="M95,105.5c0,0-0.9,0.4-1.6,0.7c-1.9,0.9-4.2,2.3-4.2,2.3l-1.6,1.4c-0.1,0.1-0.2,0.2-0.2,0.3
				c0,0.2-0.1,0.7-0.2,1c0,0.3,0,0.5,0.2,0.7l0.1,0.1l2.2-2.1c0,0,0.1-0.7,0.7-0.8c1.4-0.3,4.1-1.2,5.8-1.9c0.6-0.5,0.8-1.8,0.8-1.8
				L95,105.5z"/>
			<path class="st106" d="M89.5,108.3c0,0.9,0.5,1.2,0.5,1.2"/>
			<path class="st102" d="M87.5,112.2c-0.4-2.5,5.7-4.8,7.5-4.9c1.8-0.1,7.8,10.6,7.8,10.6l-1.4,0.9c0,0-6.2-5.3-6.6-7.7
				C92.2,112.2,87.5,112.2,87.5,112.2z"/>
			<path class="st104" d="M88.1,104.8c0,0,0.5-2.2,0.4-3.6c-0.1-1.5-1-2.1-1-2.1s0.4,1.2,0.5,2.1C88.1,102.2,88.1,104.8,88.1,104.8z
				"/>
			<g>
				<g>
					<path class="st108" d="M92.9,130.4c0.1,0.1,0.3,0.1,0.4,0c0.3-0.2,0.9-0.7,0.9-0.9c0.1-0.3-0.4-3-0.4-3
						c-0.1-0.6,0.1-0.7-0.5-0.7l0,0c-0.6,0-0.8,0.5-0.9,1.1c0,0-0.5,2.2-0.5,2.4C92,129.5,92.6,130.1,92.9,130.4z"/>
					<path class="st105" d="M92.2,129l0.5-2.8l0-3.2l1.6,0l-0.5,3.4l0.2,2.8l0,0C93.5,129.3,92.9,129.2,92.2,129L92.2,129z"/>
				</g>
				<path class="st109" d="M94.4,123c0,0,1.6-5.3,1.6-7.3c0.1-2-0.7-5.2-1.7-5.3l0,0c-1.1-0.1-2,1.7-1.9,2.8l0.3,9.7L94.4,123z"/>
			</g>
			<path class="st110" d="M93.7,89.7c-0.4-0.7-1.1-1.9-2.4-1.6c-7.5-1.1-3,10.9-3,10.9l4.3-3.6C94.3,94.1,94.8,91.6,93.7,89.7z"/>
			<path class="st111" d="M91.5,90.2c-5.4-0.7-3.2,8.8-3.2,8.8S91.4,92.2,91.5,90.2z"/>
			<path class="st105" d="M93.1,96.2l-0.2-1.5l-2.3-0.2l-0.4,1.9c0,0.1-0.1,0.2-0.1,0.3L89.5,98c1.2,1.4,3.5,1.2,4.5-0.5l0.1-0.1
				C93.5,97.2,93.2,96.8,93.1,96.2z"/>
			<path class="st112" d="M91.2,97.2c-0.4-0.1-0.7-0.3-1.1-0.6c0-0.1,0.1-0.1,0.1-0.2l0.4-1.9l2.3,0.2l0.1,1.3
				c-0.3,0.5-0.8,0.9-1.2,1.1c-0.1,0-0.2,0.1-0.3,0.1C91.5,97.2,91.3,97.3,91.2,97.2z"/>
			<path class="st111" d="M93.7,89.7c-0.4-0.7-1.1-1.9-2.4-1.6c-0.1,1.4,1.3,7.3,1.3,7.3C94.3,94.1,94.8,91.6,93.7,89.7z"/>
			<path class="st105" d="M91.6,96.6L91.6,96.6c0.1,0,0.3,0,0.4-0.1c0.1-0.1,0.2-0.1,0.2-0.2c0.6-0.5,1.1-1.5,1.2-2.4
				c0-0.3,0-0.5-0.1-0.8l-0.3-0.7c0-0.4,0-0.9-0.3-1.2l-1.3-1l-1.8,2.4c-0.1,0.1-0.2,0.3-0.3,0.5c-0.2,0.5-0.7,1.3-0.4,1.8l0,0.1
				C89.6,95.9,90.5,96.5,91.6,96.6z"/>
			<g>
				<path class="st9" d="M93.4,101.5l-2,0.4c-0.1,0-0.1,0-0.2-0.1l-0.7-3.8c0-0.1,0-0.1,0.1-0.2l2-0.4c0.1,0,0.1,0,0.2,0.1l0.7,3.8
					C93.5,101.4,93.5,101.5,93.4,101.5z"/>
				<path class="st113" d="M93.5,101.8l-2,0.4c-0.1,0-0.1,0-0.2-0.1l-0.7-3.8c0-0.1,0-0.1,0.1-0.2l2-0.4c0.1,0,0.1,0,0.2,0.1
					l0.7,3.8C93.6,101.7,93.5,101.8,93.5,101.8z"/>
				<path class="st105" d="M93.6,100.2c-0.1-0.1-0.1-0.2-0.1-0.3c0.1-0.2,0-0.4-0.3-0.3c-0.3,0.2-0.4,0.4-0.5,0.2
					c0.4-0.2,0.6-0.5,0.6-0.6c0-0.3-0.3-0.2-0.3-0.2s-1.3,1.1-1.6,1.1c-0.4,0-0.5-0.7-0.5-0.7c0-0.1-0.1-0.3-0.1-0.4
					c-0.2-0.3-0.3-0.3-0.5-0.2c-0.1,0,0.1,0.6,0.1,0.8l0.1,1.1c0,0,0.1,0.7,0.1,1.2c0,0.1-3.2,2.6-4.1,3.6c-0.9,1-0.1,2.3,0.5,2.3
					c0.2,0,1.3-0.9,1.9-1.5c1.3-1.4,1.5-2.2,3-3.7c0.3-0.2,0.9-0.7,1.3-1c0.3-0.2,0.6-0.7,0.5-0.8c-0.1-0.1-0.1-0.1-0.1-0.2
					C93.6,100.4,93.6,100.3,93.6,100.2z"/>
				
					<ellipse transform="matrix(0.984 -0.1781 0.1781 0.984 -16.0852 17.7889)" class="st114" cx="91.1" cy="98.5" rx="0.2" ry="0.2"/>
			</g>
			<path class="st108" d="M103,120.8c-0.4,0.6-0.1,1.4,0.2,1.7c0.3,0.3,0.8-0.3,2.5,1.6c0.6,0,2.1-1,2.3-1.3
				c0.2-0.3-1.4-0.4-1.4-0.4L103,120.8z"/>
			<path class="st105" d="M102.8,118l1.4,2.1l2.3,2.4l0,0c-0.1,0.3-0.4,0.6-0.7,0.8l0,0c-0.2,0.1-0.3,0.1-0.5,0
				c-0.4-0.3-1.4-1-2-1.3c-0.2-0.1-0.4-0.4-0.4-0.6c0-0.2,0-0.4-0.1-0.6c-0.2-0.4-1.4-1.8-1.4-1.8L102.8,118z"/>
			<path class="st108" d="M103.1,122.5L103.1,122.5c0.4,0.3,0.8,0.7,1.2,1.1l0.5,0.5l0.2-0.2l-1.1-1.6L103.1,122.5z"/>
		</g>
		<g>
			<g>
				<path class="st9" d="M144.7,123h2.7l1.1,2l1.1,0.2h0.4v0.2h-1.6c-0.2,0-0.4-0.1-0.5-0.3l0,0c-0.6-1.1-1.8-1.8-3-1.8h0V123z"/>
				<path class="st115" d="M135.2,97.3l3.7-2.9l4.4,1c0,0,1.5,8.2,1.4,11c0,0.4,0,0.9,0.1,1.3c0,0.3,0.1,0.7-0.1,1.2
					c-0.1,0.5,1.4,10.7,2.1,12.4c0.2,0.6,1.7,2.9,1.7,2.9l0.8,0.1c0.2,0,0.3,0.2,0.3,0.3c0,0.2-0.1,0.4-0.4,0.4h-0.8
					c-0.3,0-0.6-0.1-0.8-0.4l-0.6-0.7c-0.5-0.7-1.3-1.1-2.2-1.2c-0.2-0.1-0.4-0.4-0.4-0.7c0-0.3,0.1-0.6,0.3-0.8c0,0,0-0.1,0.1-0.1
					c0.2-0.5,0.2-1.1-0.1-1.6c-0.7-1.4-2.4-5.2-2.8-6.8c-0.3-1.2,0.1-2.5-0.4-4c-0.3-1.5-1.4-5.4-1.9-8.4l-0.6,5.8
					c-0.1,0.9-0.2,2.6-0.4,3.4c-0.2,0.8,0.2,3.7,0,5.7c-0.3,2.7-0.5,6.5-0.4,7.7c0.1,0.6,0.3,2.2,0.3,2.2l-0.2,0.4H137l-0.2-0.2
					c-0.1-0.1-0.1-0.3-0.1-0.4c0,0,0.3-1.3,0.4-2.1c0-3.3-1.1-7.9-1.1-9.4c0-0.9,0-2.4,0.2-3.6c0.1-0.3,0.1-0.8,0-1.1
					C135.3,104.8,135.2,97.3,135.2,97.3z"/>
				<path class="st116" d="M141.8,109.4c0.3,1.3,0,2.5,0.3,3.6c0.4,1.6,2,5.4,2.8,6.8c0.1,0.1,0.1,0.3,0.2,0.5
					c-0.4-2.7-1.7-4.1-2.6-7.6c-0.3-1-0.2-1.6-0.2-3.1c0-0.4-2.3-13-2.3-13s-1.6,13.1-1.7,13.4c-0.1,0.4,0.4,2.7,0.2,4.8
					c-0.6,6.2,0,8.8,0,8.4c-0.1-1.2,0.1-5.1,0.4-7.7c0.2-2-0.2-4.9,0-5.7c0.2-0.8,0.3-2.6,0.4-3.4l0.6-5.8c0.4,3,1.6,6.9,1.9,8.4
					C141.8,109.1,141.8,109.3,141.8,109.4z"/>
				<path class="st9" d="M138.6,126.1H137c-0.1,0-0.3-0.1-0.3-0.3l0,0h2.1l0,0C138.8,126,138.7,126.1,138.6,126.1z"/>
				<path class="st117" d="M138.7,125.4l-0.2,0.4H137l-0.1-0.1c-0.1-0.1,0-0.4,0.1-0.4l0.9-0.2c0.2,0,0.3,0,0.5,0.1L138.7,125.4z"/>
				<path class="st9" d="M136.8,124.8C136.8,124.8,136.8,124.8,136.8,124.8c0.3-0.2,1.4-0.7,1.8-0.9c0,0,0.1-0.1,0.1-0.1
					c0,0,0-0.1-0.1-0.1c0,0-1-0.2-1.4-0.7c0,0-0.1-0.1-0.1,0c0,0-0.1,0.1,0,0.1c0.3,0.4,0.9,0.6,1.2,0.7c-0.4,0.2-1.3,0.6-1.5,0.8
					C136.7,124.7,136.7,124.7,136.8,124.8C136.7,124.8,136.8,124.8,136.8,124.8z"/>
				<path class="st9" d="M138.7,125.9L138.7,125.9C138.8,125.9,138.8,125.9,138.7,125.9c0.1-0.1,0.1-0.6-0.2-0.9
					c-0.2-0.2-0.5-0.3-0.8-0.2c-0.3,0-0.6,0.1-0.8,0.3c-0.3,0.3-0.2,0.7-0.2,0.7c0,0,0,0.1,0.1,0.1c0,0,0.1,0,0.1-0.1
					c0,0,0-0.3,0.2-0.6c0.1-0.2,0.4-0.3,0.7-0.3c0.3,0,0.5,0.1,0.7,0.2C138.6,125.4,138.6,125.8,138.7,125.9
					C138.6,125.9,138.7,125.9,138.7,125.9z"/>
			</g>
			<path class="st115" d="M149.2,84.2l-0.3-1.8l0.2-1.9l0,0c0.3,0.1,0.5,0.3,0.5,0.6l0.1,0.8l0.6,0.1l2.5-1.9c0.1-0.1,0.2-0.1,0.2,0
				l0,0c0.2,0.1,0.2,0.3,0,0.4l-1.2,0.9l0.3-0.2c0.2-0.1,0.4,0,0.4,0.2l0,0c0,0.1,0,0.2-0.1,0.3l-0.3,0.2l0,0.1c0,0.2,0,0.4-0.2,0.4
				l-0.2,0.1l0,0c0.1,0.2,0,0.4-0.2,0.5l-0.1,0.1l0,0c-0.2,0.6-0.7,1.1-1.3,1.4l-0.2,0.1L149.2,84.2z"/>
			<polygon class="st115" points="147.4,86.6 149.1,83.9 150.5,84.3 148.8,87.6 			"/>
			<path class="st118" d="M141.7,80.1c0,0,2.4-0.1,3,2.2l1.9,4.8l1.6-2l1.4,1.4l-2.2,3.3c-0.8,0.7-1.6,0.7-2.3,0l-1.3-2.2l-0.4,0.7
				l0,0c-0.2,2.6-0.1,5.1,0.3,7.8l1.6,9.4c0,0-5,1.2-10.5,0.2c-0.7-4.4,0.1-11.4,0.6-12.7c0.1-0.4,0.3-0.7,0.4-1
				c0.5-1.3,0.5-2.7,0.1-4l-1-3.2l-0.6-2.7c0,0,1-1,2.5-1.5C138.5,80,141.7,80.1,141.7,80.1z"/>
			<path class="st117" d="M135.5,84.7l-0.3,8.1c0,0,0.2,0.5,1,0.9c0.8,0.3,1.6-0.3,1.6-1.1c0-5.9-1.1-11.4-0.8-11.7
				c0.3-0.3,0.2,6.3,1.8,7.6c0.3,2,0.5,4.2,0.6,6.4c0.6,3.9,0.1,5.8-0.1,6.7c-0.1,0.5-0.5,0.8-1,0.9c-0.9,0.1-2.6,0.2-3.6-0.5
				c-0.7-0.4-1.4-0.9-1.8-1.9c-0.3-1,1.5-5.1,1.5-6.2C134.7,89.5,134.7,86.3,135.5,84.7z"/>
			<path class="st9" d="M135.5,84.7l-0.3,8.8c0,0,1,2.5,2.8,2c0.1-6.4-1.4-14.4-1.1-14.8c0.4-0.4,1.7,7.1,2,14.1
				c1,7.2-0.5,7.2-0.5,7.2s-4.3,1.3-5.7-2.1c-0.3-1,1.5-5.1,1.5-6.2C134.7,89.5,134.7,86.3,135.5,84.7z"/>
			<path class="st117" d="M133,98.5c0.3-1,0.7-2.4,1.1-3.4c0.3-0.2,0.6-0.3,1-0.2c0.5,0.1,1,0.2,1.4,0.2c0.4,0.3,1,0.5,1.6,0.4
				c0-0.1,0-0.1,0-0.2l0,0c0,0,1.5,2.4,1,3.7C136.5,100.3,133.4,98.8,133,98.5z"/>
			<path class="st9" d="M138.1,94.9c0,0,1.2,2.7,0.8,4c-3.5,1.1-5.8-1-5.8-1s0-4,2.1-3.6C137.1,94.6,138.1,94.9,138.1,94.9z"/>
			<path class="st115" d="M134.4,92l2.6,2.2c0.3,0,0.9-0.1,1.1,0c0,0.4,0.1,1,0.5,1.3l0.7,0.4c0.4,0.2,0.4,0.2,0.4,0.5l-1.1-0.5
				l-0.5-0.3l0.5,0.5l0.6,0.3c0.1,0.1,0.1,0.2,0.1,0.3l-0.1,0.2c-0.1,0-0.2,0.1-0.2,0.1l-0.9-0.1l-1-0.5c0,0-0.3-0.1-1.1-1.3l-2.7-2
				L134.4,92z"/>
			<path class="st118" d="M133.5,84.5c-0.2,1-1.8,6.4-1.8,6.4c-0.2,0.5,0,1.1,0.4,1.5l1.6,1.3l1.1-1.4l-1.2-1.2c0,0,1-2.2,1.7-3.5
				c1-2.1,1.9-3.8,1.7-5.5l0,0l-1-0.6C134.7,81.4,133.8,82.6,133.5,84.5z"/>
			<path class="st119" d="M140.3,71.2c0,0,2.8-1.3,3.9,1.6c1,2.5-0.9,7.7-3.4,7.4C137.1,79.8,140.3,71.2,140.3,71.2z"/>
			<path class="st115" d="M141.1,78l-0.1,2l0.7,0.1c0,0,0.7,1.5,0.8,2.4c0.1,1-2.9,1.5-4-1.7c-1-3.2,1-4.1,1-4.1L141.1,78z"/>
			<path class="st120" d="M139.6,76.7l1.6,1.3l-0.1,1.8c0,0,0,0,0,0l-2.4-1.4l0-0.5C139.1,77.1,139.6,76.7,139.6,76.7z"/>
			<path class="st115" d="M143.3,74.5c-0.2,0.6,0.4,1.5,0.2,2.1c-0.1,0.3-0.7,1.5-1.1,2.2c-0.2,0.3-0.5,0.6-0.8,0.6l0,0
				c-0.2,0-0.4,0-0.6-0.2l-2.3-1.4l0.3-4l3.7-1.4l0.5,0.5c0.3,0.3,0.4,0.8,0.4,1.2L143.3,74.5z"/>
			<path class="st121" d="M142.6,72.3c0,0-0.5,1.4-1.8,1.8c-1,0.3-1,1.8-1.8,1.6c-0.3,2.2,0.6,3.1,0,5.1c-0.6,2.1-0.1,4.3-0.1,4.3
				s-3.2-1.8-3.4-6.8c-0.1-3.5,0.5-4.8,1.6-6.1c1-1.2,2.8-1.5,3.9-1.2C141.8,71.3,142.1,71.5,142.6,72.3z"/>
			<path class="st122" d="M139.1,75.9c-0.1-0.2-0.2-0.4-0.4-0.4c-0.1,0-0.2,0-0.3,0c-0.4,0.2,0,1.3,0.6,1.4
				C139.4,76.9,139.2,76.2,139.1,75.9z"/>
			<ellipse transform="matrix(0.961 -0.2764 0.2764 0.961 -15.8287 41.3669)" class="st9" cx="138.8" cy="76.8" rx="0.3" ry="0.3"/>
			<g>
				<g>
					<path class="st120" d="M142.8,75.2C142.8,75.2,142.8,75.2,142.8,75.2C142.8,75.2,142.8,75.2,142.8,75.2z"/>
				</g>
			</g>
			<path class="st123" d="M152,79.7C152,79.7,152.1,79.7,152,79.7L152,79.7L152,79.7c0.2,0.1,0.2,0.3,0.2,0.4l-1,3.1
				c-0.1,0.3-0.4,0.5-0.6,0.4l-1.1-0.1c-0.3,0-0.4-0.2-0.4-0.2l0.2-0.3l1-3c0.1-0.3,0.4-0.5,0.6-0.4l0.9,0l0.1-0.1l0,0L152,79.7z"/>
			<path class="st124" d="M151.7,79.6l-1.1-0.1c-0.3,0-0.5,0.2-0.6,0.4l-1,3.1c-0.1,0.3,0.1,0.5,0.3,0.5l1.1,0.1
				c0.3,0,0.5-0.2,0.6-0.4l1-3.1C152.1,79.8,152,79.6,151.7,79.6z"/>
			<polygon class="st9" points="150.8,83 149,83 150,80 151.8,80.1 			"/>
			<path class="st122" d="M151.8,81.4l-0.4,0.2c-0.2,0.1-0.3,0.4-0.3,0.6l0,0l-0.2,0.1c-0.1,0-0.1,0.1-0.1,0.2l0,0
				c0,0.1,0.2,0.2,0.3,0.2l0.7-0.2L151.8,81.4z"/>
			<path class="st117" d="M144.5,88.6L144.5,88.6l-0.5-0.9l0,0c0.4-0.9,0.5-1.9,0.3-2.9l-0.3-1.2l0.4,1
				C145,85.8,145,87.3,144.5,88.6z"/>
			<g>
				<path class="st9" d="M145.5,125.4h-0.3v-1c0-0.4-0.1-0.7-0.4-1l-0.1-0.1l0.4-0.2l0.9,0.2l-0.1,0.1c-0.3,0.3-0.4,0.6-0.4,1V125.4
					z"/>
				<path class="st9" d="M148.2,125.3C148.2,125.3,148.2,125.2,148.2,125.3l0.6-1c0,0,0-0.1,0-0.1c0,0,0,0-0.1,0l-1.3,0l0.5-1.2
					c0,0,0-0.1,0-0.1c0,0-0.1,0-0.1,0l-1.4,0.7l-0.2-1.3c0,0,0,0,0-0.1l-1.2-0.9c0,0-0.1,0-0.1,0c0,0,0,0.1,0,0.1l1.2,0.9l0.2,1.4
					c0,0,0,0.1,0,0.1c0,0,0.1,0,0.1,0l1.3-0.6l-0.4,1.2c0,0,0,0.1,0,0.1c0,0,0,0,0.1,0l1.2,0l-0.5,0.9
					C148.1,125.2,148.1,125.2,148.2,125.3C148.1,125.3,148.1,125.3,148.2,125.3z"/>
				<path class="st9" d="M144.9,123.1C145,123.1,145,123.1,144.9,123.1l1.3-0.9l1-0.2c0,0,0.1-0.1,0.1-0.1c0,0-0.1-0.1-0.1-0.1
					l-1,0.2c0,0,0,0,0,0l-1.2,0.9C144.9,123,144.8,123,144.9,123.1C144.9,123.1,144.9,123.1,144.9,123.1z"/>
			</g>
			<path class="st117" d="M138.8,88.5c0,0,1.8-0.3,2.6-0.4c0.8-0.1,1.6,0.2,1.5,0.3C142.7,88.4,141.1,88.9,138.8,88.5z"/>
		</g>
		<g>
			<g>
				<g id="XMLID_5_">
					<path class="st125" d="M79.3,118.7L79.3,118.7c0.5,0.2,1,0.6,1.4,1l0.2,0.3c0.1,0.1,0.1,0.2,0,0.3c-0.2,0.3-3.4,3.1-4,3.9
						c-0.6,0.7-1.7,1.4-2.1,0.9c2-3.2,2.4-4.4,2.4-4.4L79.3,118.7z"/>
					<path class="st126" d="M76.6,124c0.6-0.7,3.5-3.4,4.2-4.2l0.2,0.3c0.1,0.1,0.1,0.2,0,0.3c-0.2,0.3-3.4,3.1-4,3.9
						c-0.5,0.7-1.6,1.1-2.1,0.8C75.5,125,76.1,124.5,76.6,124z"/>
					<path class="st127" d="M68,110.8l9,10.2c0,0,0.9,0.2,2-0.6c1.1-0.8,1.3-1.5,1.3-1.5l-6.9-9.4l-1.9-1.9L68,110.8z"/>
					<path class="st128" d="M70.2,107.9c0,0,9.9,9.5,8.7,12.6c1.1-0.8,1.3-1.5,1.3-1.5l-6.9-9.4l-1.9-1.9L70.2,107.9z"/>
					<path id="XMLID_28_" class="st129" d="M76.9,68.2c-0.3,0.1-1,0-1.2-0.2c-0.6-0.4-2,0-2.5,1.2c-0.2,0.3-0.2,0.8-0.2,1.2
						c0.1,0.9,0.6,1.8,1.3,2.4c1.9,1.7,1.8,3.9,3.2,4c2.2,0.1,4.1-2.4,4-5C81.5,68.2,78.4,67.6,76.9,68.2z"/>
					<path id="XMLID_27_" class="st130" d="M80.5,74.1l-3,1.4l-0.1,1.3c0,0.7-0.2,1-0.8,1.3c0,0-3,2.1-1.4,3.3c2.3,1.6,6.2-3,6.2-3
						C80.5,76.2,80.5,74.1,80.5,74.1z"/>
					<path class="st131" d="M72.2,82.8l-1.5,7.2l-1,4.1l-0.3,1.1l0.1,1.2l1-1.4c0,0,2.6-8.6,2.6-8.8c0-0.2,0.7-3.7,0.7-3.7
						L72.2,82.8z"/>
					<path class="st127" d="M71,93.4L70.5,95l-1,1.4l0.2,1.3l-2.1,6.2c-0.4,1.3-0.7,2.5-0.9,3.8l0,0c-0.1,1,0.2,1.9,0.9,2.6l0.4,0.4
						l2.9,0.2l0.3-2.7l6.1-13.2L71,93.4z"/>
					<path class="st128" d="M73.5,97.9l-2.9,9.1c-0.2,0.5,0,1.1,0.3,1.5l0.3,0.3l6.1-13.7L73.5,97.9z"/>
					<path class="st126" d="M72,122.1c0.1,0.8-3.1,2.4-4.3,3.2c-0.2,0.1-0.6,0.9,1.9,0.8c1.4-0.1,3.8-1.3,3.9-1.4
						c0.5-0.6,0.1-1.7,0.1-1.7L72,122.1z"/>
					<path class="st125" d="M71.7,121.7c0.1,0.8-1.9,2.5-3.6,3.4c-0.5,0.3-0.5,0.3-0.3,0.5c0.2,0.1,1,0.3,2.1,0.1
						c1.7-0.3,1.8-0.7,3.6-1.4c0.7-0.3-0.2-1.9,0.2-2.5S71.7,121.7,71.7,121.7z"/>
					<path class="st132" d="M72.1,93.8l-0.2,3c0,0.6,0.2,1.1,0.6,1.5l0,0c0.3,0.2,0.4,0.6,0.4,0.9l-0.3,10.4c0,0-1.5,12.1-1.9,13.3
						c0.8,0.8,3,0.4,3,0.4l1.7-5.9c0.4-1.6,1-3.3,1-5l0-1.8l1.5-5.4c0.3-1.2,0.7-2.5,0.9-3.7l0.1-1.4c0-0.3,0.1-0.5,0.2-0.7l0,0
						c0.4-0.7,0.6-1.5,0.7-2.3l0.2-2.2L72.1,93.8z"/>
					<path class="st127" d="M75.8,110.4c1.8-5.7,1.8-11.2,1.8-11.2s-3.4-0.6-3-3.7l5.4-0.6l0.1,0L80,97.1c-0.1,0.8-0.3,1.6-0.7,2.3
						c-0.1,0.2-0.2,0.5-0.2,0.7l-0.1,1.4c-0.1,1.2-0.5,2.6-0.9,3.7l-1.5,5.4l0,1.8c0,1.6-0.6,3.4-1,5l-1.7,5.9
						C73.8,123.3,76.3,115.6,75.8,110.4z"/>
					<path class="st128" d="M77.8,96c-0.1,1-0.1,2.5-0.1,2.5s-2-0.1-2.3-2C75.2,94.6,77.8,96,77.8,96z"/>
					<path id="XMLID_26_" class="st133" d="M81.5,78.3c0,0-3.1,2.3-4.8,2c-0.8-0.2-0.9-1.7-0.1-2.2c-0.1,0-3.2,0.9-3.6,1.6
						c-0.4,0.8-0.9,2.2-0.9,3.1c0.1,0,0.5,0.3,0.5,0.3c-0.2,0.9-0.5,5.1-0.6,5.7c-0.6,2.5-1.5,5.8-1.6,6.1c0.3,0.5,3.4,3.3,9.4,3.1
						c0.1,0,0.2-0.1,0.2-0.2c0.5-2.5,0.5-4.5,1-6.1c0.6-2.1,1.6-3.6,1.6-3.6l0.8-1.4c1.2-2.5,1.2-3.6,0.7-5.5
						C83.7,79.5,81.5,78.3,81.5,78.3z"/>
					<path class="st134" d="M78.7,77.8c-0.4,0.2-1.8,0.5-2.2,0.1l0,0c0,0,0,0,0,0c0.1,0,0.2-0.1,0.2-0.1c0.5-0.3,0.6-0.4,0.7-1
						l0.1-1.3l2.5-0.9C80,74.6,80.5,77,78.7,77.8z"/>
					<path id="XMLID_25_" class="st130" d="M79.4,73.2c-0.3-1.6-1-1.1-1.5-1.6c-1-1.3-2,0.3-3.6,0.9c0,0.1,0.5,2.4,0.6,2.8
						c0.8,2.3,0.7,2.6,2.3,2.2c1.6-0.4,2.6-1.3,2.9-2.4c0.1-0.3,0.4-1.5,0.4-1.5C80.3,73.6,79.5,73.8,79.4,73.2z"/>
					<path class="st129" d="M79.4,73.2c0,0,0.3,1.3-0.4,2.2c-0.7,0.9-1.7,0.4-2.3,0.2c-0.6-0.2-1.6,0.1-1.6,0.1s0.3,2.1,0.9,2.5
						c0.5,0.4,2.2-0.5,3-1.1c0.8-0.6,1.3-2.1,1-3.4C79.7,72.5,79.4,73.2,79.4,73.2z"/>
					<path class="st130" d="M75.3,76.4l0.9-0.2c0.1,0,0.2,0,0.3,0.2c0,0.1,0,0.4-0.1,0.4l-0.9,0.6c0,0-0.1-0.5-0.1-0.5
						C75.4,76.7,75.3,76.5,75.3,76.4C75.3,76.4,75.3,76.4,75.3,76.4z"/>
					<path id="XMLID_24_" class="st130" d="M80.1,72.4c-0.2,0.2-0.1,2.1,0.2,2.1c0.6,0,0.8-0.9,0.9-1.5
						C81.2,72.1,80.4,72.1,80.1,72.4z"/>
					<path id="XMLID_23_" class="st130" d="M77.3,88.6l2.1-3.7c0.8,0.8,3.1,1.7,3.9,1.8c0,0-4.3,5.2-5.1,4.9c-0.8-0.2-1.3,0-2.5-0.2
						c-1.2-0.3-4.7-2.6-4.7-2.6l0.4-1.6L77.3,88.6z"/>
					<g id="XMLID_17_">
						<path id="XMLID_22_" class="st124" d="M67.6,82.8l3.9,1.8c0.1,0,0.1,0.2,0.1,0.3l-0.6,1.2l-4.3-2l0.6-1.2
							C67.4,82.8,67.5,82.7,67.6,82.8z"/>
						<path id="XMLID_21_" class="st9" d="M67.6,83.1c0-0.1,0.1-0.1,0.2-0.1l3.4,1.6c0.1,0,0.1,0.1,0.1,0.2l-0.4,0.8
							c0,0.1-0.1,0.1-0.2,0.1l-3.4-1.6c-0.1,0-0.1-0.1-0.1-0.2L67.6,83.1z"/>
						<path id="XMLID_20_" class="st101" d="M66.8,84.1c0-0.1,0.1-0.1,0.2-0.1l4.1,1.9c0.1,0,0.1,0.1,0.1,0.2L71,86.3
							c0,0.1-0.1,0.1-0.2,0.1l-4.1-1.9c-0.1,0-0.1-0.1-0.1-0.2L66.8,84.1z"/>
						<path id="XMLID_19_" class="st9" d="M67.1,84.3l0.4,0.2c0,0,0.1,0.1,0,0.1c0,0-0.1,0.1-0.1,0l-0.4-0.2c0,0-0.1-0.1,0-0.1
							C67,84.3,67.1,84.3,67.1,84.3z"/>
						<path id="XMLID_18_" class="st9" d="M68,84.7l0.9,0.4c0,0,0.1,0.1,0,0.1c0,0-0.1,0.1-0.1,0L68,84.8c0,0-0.1-0.1,0-0.1
							C67.9,84.7,68,84.7,68,84.7z"/>
					</g>
					<path id="XMLID_6_" class="st130" d="M67.7,84.9L70,86c0.2,0.1,0.4,0,0.5-0.2c0.1-0.1,0.1-0.3,0-0.4l-0.2-0.6
						c-0.1-0.5,0-0.7,0.4-0.8l0.9,1.8l0,2.1l-0.1,1.1l-1.3-0.4c-0.9-0.3-1.7-1.1-1.7-1.1c-0.4-0.2-0.3-0.7-0.3-0.7
						c0-0.1-0.1-0.3-0.1-0.4l0-0.2c0-0.1,0-0.2,0.1-0.3c0,0-0.7-0.4-0.8-0.5C67.4,85,67.7,84.9,67.7,84.9z"/>
				</g>
			</g>
		</g>
		<g>
			<g>
				<path class="st135" d="M122.4,110.7l-4.3,0.8l-4.4-0.7c0,0-1.6,0.2-3.5,0.9l-0.5,0.2l2.1,4.1c0,0,3.9-1.5,6.3-1.5
					c2.4,0,6.3,1.5,6.3,1.5l1.6-4.4l0,0C124.1,110.9,122.4,110.7,122.4,110.7z"/>
				<path class="st136" d="M120.2,111.3l-2.1,0.2l-2-0.2c-1.1-0.1-1.4-0.6-2.4-0.6c1.3,1.2,2.7,1.5,3.8,2.6c0.4,0.4,1,0.4,1.3,0
					c1.1-1.2,1.8-1.1,3.6-2.6C121.5,110.7,121.1,111.2,120.2,111.3z"/>
				<g>
					<path class="st137" d="M118.2,112.5c-2.7,0-4.5-1.7-4.5-1.7s1.8,1,4.5,1c2.7,0,4.2-1,4.2-1S120.8,112.5,118.2,112.5z"/>
					<path class="st138" d="M118.2,111.7c0.3,0,0.6,0,0.9,0v0.7c0,0.1-0.1,0.2-0.2,0.2h-1.4c-0.1,0-0.2-0.1-0.2-0.2v-0.7
						C117.5,111.7,117.8,111.7,118.2,111.7z"/>
					<path class="st139" d="M117.4,111.7v0.5c0,0.1,0,0.1,0.1,0.1h1.2c0.1,0,0.1,0,0.1-0.1v-0.5l0.2,0v0.7c0,0.1-0.1,0.2-0.2,0.2
						h-1.4c-0.1,0-0.2-0.1-0.2-0.2v-0.7L117.4,111.7z"/>
					<path class="st115" d="M125.4,110.6c-1.2,0.4-2.1-0.7-2.1-0.7s-0.9-3.2-0.8-4c0.8-0.1,2.5-0.1,2.9-0.7
						C126,107.7,125.4,109.2,125.4,110.6z"/>
					<path class="st117" d="M124.8,110.5c-0.6-0.2-1.5-0.6-1.5-0.6s-0.3-0.7-0.4-1.4C124.1,108.8,125.4,110.2,124.8,110.5z"/>
					<path class="st140" d="M111.2,105.3c0-0.6-0.1-2.6,0-3.7c0.1-1.5,3.1-4.2,6.9-4.2c3.3,0,6.8,1.9,7,3.9c0.1,1,0.3,3.1,0.3,3.7
						c-0.6,0.8-2.1,1.1-2.8,1c-0.2,0.3-0.5,3.5-0.3,4.6c-1.4,1-2.8,1.3-4.3,1.3c-2.6,0-3-0.4-4.4-1.3c0.2-1,0.1-4.4,0-4.6
						C113.5,106.3,111.3,106.9,111.2,105.3z"/>
					<path class="st117" d="M120.7,108.7l-0.3-0.6c0-0.1,0-0.3-0.1-0.3c-0.1,0-0.3,0-0.4,0.2v-0.4v-0.1c0-0.1-0.2-0.2-0.5-0.2h-1.8
						c-0.2,0-0.5,0.1-0.5,0.2v0.1v0.4c0,0-0.2,1.3,0.1,1.6c0.4,0.1,1.4,0.1,1.4,0.2c0,0,1.3,1,2.5,1.7c0.4-0.2,0.8-0.4,1.3-0.7
						c0-0.2-0.1-0.6-0.1-1l-0.5-0.3C121.2,109,120.7,108.7,120.7,108.7z"/>
					<path class="st115" d="M119.7,109c1.2,0.4,2.8-0.3,4.1,0c1.5,0.4,1.1,0.7,1.6,1.2c0.4,0.4,0,1.4-1.9,1.4c-1.9,0-3-0.8-4.5-1.5
						C117.4,109.5,117.5,107.8,119.7,109z"/>
					<path class="st141" d="M111.9,111.1c1.3,0.2,2.1-1.2,2.1-1.2s-0.3-3.2-0.4-3.9c-0.8,0.1-2-0.2-2.5-0.8
						C111.2,108,111.7,109.8,111.9,111.1z"/>
					<path class="st117" d="M112.4,110.1c-0.1,0.4,0.2,0.7,0.9,0.6l0,0c0.1,0,0.1-0.1,0.2-0.1c0,0,0,0,0,0c0.1,0,0.1-0.1,0.2-0.1
						l0,0c0,0,0.1-0.1,0.1-0.1c0,0,0,0,0,0c0.2-0.2,0.3-0.3,0.3-0.3l0,0l0,0c0,0,0,0,0,0s-0.1-1.4-0.3-2.6
						C113.1,108,112.5,109.5,112.4,110.1z"/>
					<path class="st141" d="M116.4,106.9c-0.8,0.9-2.5,0.8-3.4,1.8c-1,1.2-1,1.5-1.1,2.2c-0.1,0.6,0.9,1,2.5,0
						c1.5-1,2.4-2.5,3.3-3.9C118.6,105.7,117.6,104.7,116.4,106.9z"/>
					<path class="st141" d="M115.8,107.7c0.5-0.7,0.7-1.6,1-1.9c0.2-0.3,1.3-0.6,1.7-0.6c0.2,0,0.3,0.1,0.4,0.2l0.9,1.1l-3.1,1.9
						C116.7,108.4,115.3,108.4,115.8,107.7z"/>
					<g>
						<g>
							<path class="st142" d="M117.8,105.5h1.8c0.2,0,0.5,0.2,0.5,0.4v3c0,0.2-0.2,0.4-0.5,0.4h-2c-0.2,0-0.3-0.2-0.3-0.4v-1.2v-0.9
								v-0.9C117.3,105.7,117.5,105.5,117.8,105.5z"/>
						</g>
						<g>
							<path class="st9" d="M117.8,105.9h1.8c0.2,0,0.5,0.2,0.5,0.4v2.7c0,0.2-0.2,0.4-0.5,0.4h-2c-0.2,0-0.3-0.2-0.3-0.4v-1v-0.8
								v-0.8C117.3,106.1,117.5,105.9,117.8,105.9z"/>
						</g>
						<ellipse class="st143" cx="117.9" cy="106.2" rx="0.2" ry="0.1"/>
						<path class="st115" d="M116.6,106.5c0.1,0,0.2,0,0.4,0.1c0.5,0.2,2.4,1.3,2.8,1.3c0.4,0,0.3-0.6,0.3-0.6c0-0.2,0-0.3,0.1-0.5
							c0.1-0.3,0.3-0.4,0.4-0.3c0.2,0,0.1,0.4,0.1,0.6l0.3,1.2l-0.5,1.6l-1.5,0.3c0-0.1-0.9-0.2-1.4-0.5c-0.3-0.2-0.5-0.5-0.4-0.6
							c0.1-0.1,0-0.2,0-0.3c-0.1-0.1-0.1-0.3,0-0.4c0-0.1,0.1-0.2,0-0.3c-0.1-0.2,0-0.5,0.2-0.5c0.4,0.1,0.6,0.4,0.5,0.1
							c-0.3-0.2-1.4-0.8-1.5-1C116.4,106.6,116.4,106.5,116.6,106.5z"/>
					</g>
				</g>
				<path class="st115" d="M120.8,100.2h-5.1c-0.4,0-0.6-0.3-0.6-0.6v-0.6c0-0.4,0.1-0.4,0.5-0.4l5.6,0c0.2,0,0.3,0.1,0.3,0.3v0.8
					C121.4,99.9,121.2,100.2,120.8,100.2z"/>
				<path class="st115" d="M120.3,101.6l-1.2,0.9c-0.5,0.3-1.2,0.3-1.7,0l-1.1-0.9c-0.2-0.2-0.3-0.4-0.4-0.6l-0.3-1.7
					c-0.2-1.6,1-4.1,2.7-4.1h0c1.6,0,2.9,2.5,2.7,4.1l-0.3,1.8C120.6,101.2,120.5,101.4,120.3,101.6z"/>
				<path class="st144" d="M116.9,97.6c0,0,1.3,0.9,3.9,1c0.4-0.3-0.4-2.2-0.4-2.2L116.9,97.6z"/>
				<path class="st145" d="M121,95.2c-0.3-0.8-1.4-1.4-2.7-1.4h0c-0.9,0-1.7,0-2.7,0.8c-1.1,1-0.4,2.9-0.4,2.9l0.4,1.2
					c0,0.1,0.1,0.1,0.1,0c0.1-0.5,0-0.8,0-0.8s0.9-0.5,1.2-0.7c0.9,0.2,2.3,0.4,3.2,0.4h0.5c0,0,0.1,0.5,0.2,1c0,0.1,0.2,0.1,0.2,0
					l0.3-1.2c1.3-0.4,1.1-1.5,1.1-1.5S121.3,95.8,121,95.2z"/>
				<g>
					<path class="st146" d="M121.6,123l-0.5,1.7c-0.1,0.2,0,0.5,0.2,0.7l1.9,1.4c0.7,0.5,1.5,0.9,2.4,1.2l0,0c0.4,0.1,0.7,0,1-0.2
						l0,0c0.3-0.3,0.3-0.8,0-1.1l-2.2-2.3L121.6,123z"/>
					<path class="st9" d="M125.8,127.5L125.8,127.5c-0.9-0.2-1.7-0.6-2.4-1.2l-2.2-1.7l0,0.1c-0.1,0.2,0,0.5,0.2,0.7l1.9,1.4
						c0.7,0.5,1.5,0.9,2.4,1.2l0,0c0.4,0.1,0.7,0,1-0.2c0.2-0.2,0.3-0.4,0.3-0.6C126.9,127.1,126.7,127.6,125.8,127.5z"/>
					<path class="st135" d="M125.9,111.6c-0.8-0.2-1.5,0.2-1.7,1l-0.4,1.4l-2.5,9.4l0.9,0.9l2.8,0.1l2.5-9.4l0.1-0.4
						C128,113.3,127.2,111.9,125.9,111.6L125.9,111.6z"/>
					<polygon class="st136" points="123.8,114 121.3,123.4 122.2,124.3 					"/>
				</g>
				<g>
					<path class="st146" d="M114.5,123l0.5,1.7c0.1,0.2,0,0.5-0.2,0.7l-1.9,1.4c-0.7,0.5-1.5,0.9-2.4,1.2l0,0c-0.4,0.1-0.7,0-1-0.2
						l0,0c-0.3-0.3-0.3-0.8,0-1.1l2.3-2.3L114.5,123z"/>
					<path class="st9" d="M110.3,127.5L110.3,127.5c0.9-0.2,1.7-0.6,2.4-1.2l2.2-1.7l0,0.1c0.1,0.2,0,0.5-0.2,0.7l-1.9,1.4
						c-0.7,0.5-1.5,0.9-2.4,1.2l0,0c-0.4,0.1-0.7,0-1-0.2c-0.2-0.2-0.3-0.4-0.3-0.6C109.2,127.2,109.4,127.7,110.3,127.5z"/>
					<path class="st135" d="M110.2,111.6c0.8-0.2,1.5,0.2,1.7,1l0.4,1.4l2.5,9.4l-0.9,0.9l-2.8,0.1l-2.5-9.4l-0.1-0.4
						C108.2,113.3,108.9,112,110.2,111.6L110.2,111.6z"/>
					<polygon class="st136" points="112.3,114.1 114.8,123.5 113.9,124.4 					"/>
				</g>
			</g>
		</g>
	</g>
	<path class="st147" d="M90.3,95l2.2-0.7C92.5,94.3,92.3,96.9,90.3,95z"/>
	<path class="st147" d="M117.2,100.5h2.4c0,0-0.4,1.2-1.2,1.2C117.6,101.8,117.2,100.9,117.2,100.5z"/>
	<path class="st147" d="M140.4,77.1h1.9c0,0-0.3,1-0.9,1C140.7,78.1,140.3,77.5,140.4,77.1z"/>
	<g>
		<g>
			<path class="st9" d="M99,72.4L99,72.4l2.9-6.3l1.4,3l0,0c0.9,1.9,2.7,3.1,4.8,3.1c0.7,0,1.3-0.1,1.9-0.3c0,0,0,0,0.1,0l0,0
				c0,0,0,0,0.1,0c1.2-0.5,2.2-1.5,2.7-2.7l1.4-3.1l2.5,5.7l0.3,0.7h0l0,0h10l-8.3-18.7h-9l-1.7,3.7l-1.6-3.7h0l0,0h-9L89,72.4
				L99,72.4L99,72.4z M97.5,70.1L97.5,70.1l-5.1,0l6.4-14.3h6.1l0,0h0l1.2,2.8l0,0l1.8,4.2l3.1-7h6.1l6.4,14.3h-5.1l-4.3-9.6
				l-3.4,7.6c-0.3,0.7-0.9,1.2-1.6,1.5l-0.1,0c-0.3,0.1-0.7,0.2-1.1,0.2c-1.2,0-2.3-0.7-2.8-1.8l-3.4-7.6L97.5,70.1L97.5,70.1z"/>
			<path class="st9" d="M121.4,75.7c-0.7-0.8-1.6-1.2-2.7-1.2c-1.3,0-2.5,0.7-3.1,1.8v-2.1c0-0.9-0.7-1.7-1.7-1.7
				c-0.7,0-1.4,0.5-1.6,1.1c-0.3-0.6-0.9-1-1.6-1c-1,0-1.7,0.7-1.7,1.7v0.1c0,0.3,0.1,0.6,0.3,0.9c-0.1,0.2-0.2,0.5-0.2,0.8v0.1
				c-0.5-1.1-1.5-1.8-2.8-1.8c-0.6,0-1.2,0.1-1.7,0.4c-0.5-0.3-1-0.4-1.6-0.4c-0.4,0-0.8,0.1-1.2,0.2c-0.2-0.1-0.5-0.2-0.7-0.2
				c-0.7,0-1.3,0.4-1.5,1c-0.1-0.2-0.3-0.3-0.5-0.5l0,0c-0.7-0.4-1.4-0.6-2.2-0.6c-0.8,0-1.5,0.3-2,0.7c-0.6,0.5-0.9,1.2-0.9,2v0
				c0,0.5,0.2,1,0.5,1.4c-0.4,0.3-0.7,0.8-0.7,1.3c0,0.5,0.3,1,0.7,1.3c0.8,0.5,1.7,0.8,2.6,0.8c0.8,0,1.6-0.3,2.1-0.7
				c0.2-0.1,0.3-0.3,0.4-0.5c0.2,0.7,0.8,1.2,1.6,1.2c0.9,0,1.6-0.7,1.7-1.5c0.1,0.9,0.8,1.5,1.7,1.5c0.9,0,1.6-0.6,1.7-1.5
				c0.1,0.8,0.8,1.5,1.7,1.5c0.7,0,1.3-0.4,1.5-1c0.3,0.6,0.8,1,1.5,1c0.8,0,1.4-0.5,1.6-1.2c0.2,0.7,0.8,1.2,1.6,1.2
				c0.9,0,1.7-0.7,1.7-1.7v-0.1c0.1,0.3,0.3,0.5,0.5,0.7c0.7,0.7,1.6,1.1,2.7,1.1c1.1,0,1.9-0.4,2.7-1.1c0.3-0.3,0.5-0.7,0.5-1.2
				c0-0.2,0-0.4-0.1-0.6c0.2-0.3,0.3-0.6,0.3-1C122.3,77.3,122,76.4,121.4,75.7z M110.8,73.9c0.3,0,0.5,0.2,0.5,0.5
				c0,0.1,0,0.1,0,0.2c-0.1,0-0.3-0.1-0.5-0.1c-0.2,0-0.3,0-0.4,0.1c0-0.1,0-0.1,0-0.2C110.4,74.1,110.6,73.9,110.8,73.9z"/>
		</g>
		<g>
			<g>
				<polygon class="st9" points="98.1,54.8 90.7,71.3 98.3,71.3 101.8,63.3 103.6,67.2 107.4,58.7 105.6,54.8 				"/>
				<path class="st9" d="M110.4,54.8l-6.2,13.8c0.7,1.4,2.1,2.4,3.8,2.4c1.7,0,3.1-1,3.8-2.4l2.4-5.4l3.5,8h7.6l-7.3-16.5H110.4z"/>
				<polygon class="st47" points="110.4,54.8 108,60.1 111.8,68.6 118,54.8 				"/>
				<polygon class="st48" points="118,54.8 110.4,54.8 117.7,71.3 125.3,71.3 				"/>
				<polygon class="st49" points="105.6,54.8 98,54.8 104.2,68.6 108,60.1 				"/>
				<polygon class="st50" points="98,54.8 90.7,71.3 98.3,71.3 105.6,54.8 				"/>
				<path class="st51" d="M108,60.1l-3.8,8.5c0.7,1.4,2.1,2.4,3.8,2.4c1.7,0,3.1-1,3.8-2.4L108,60.1z"/>
			</g>
			<g>
				<g>
					<g>
						<g>
							<g>
								<path class="st52" d="M97,81c-0.7,0-1.4-0.2-2-0.6c-0.1-0.1-0.2-0.2-0.2-0.4c0-0.3,0.2-0.5,0.5-0.5c0.1,0,0.2,0,0.3,0.1
									c0.5,0.3,0.9,0.5,1.4,0.5c0.4,0,0.8-0.2,0.8-0.6v0c0-0.3-0.4-0.5-1.1-0.7c-0.7-0.2-1.7-0.5-1.7-1.5v0c0-0.9,0.8-1.6,1.8-1.6
									c0.5,0,1.1,0.2,1.6,0.4c0.2,0.1,0.3,0.3,0.3,0.5c0,0.3-0.2,0.5-0.5,0.5c-0.1,0-0.2,0-0.2-0.1l0,0c-0.4-0.2-0.8-0.3-1.2-0.3
									c-0.4,0-0.8,0.2-0.8,0.5v0c0,0.3,0.5,0.5,1.1,0.7l0,0c0.6,0.2,1.7,0.5,1.7,1.6v0C98.9,80.3,98.2,81,97,81z"/>
							</g>
							<g>
								<path class="st52" d="M107.8,80.9c-0.3,0-0.6-0.2-0.6-0.6v-2.5c0-0.8-0.4-1.3-1.1-1.3c-0.7,0-1.1,0.5-1.1,1.3v2.5
									c0,0.3-0.2,0.6-0.6,0.6c-0.3,0-0.5-0.2-0.5-0.6v-2.5c0-0.8-0.4-1.3-1.1-1.3c-0.7,0-1.2,0.6-1.2,1.3v2.4
									c0,0.3-0.2,0.6-0.5,0.6c-0.3,0-0.6-0.2-0.6-0.6v-4.2c0-0.3,0.2-0.6,0.5-0.6c0.3,0,0.5,0.2,0.6,0.5c0.3-0.3,0.7-0.6,1.4-0.6
									c0.7,0,1.2,0.3,1.6,0.8c0.4-0.5,1-0.8,1.7-0.8c1.2,0,2,0.8,2,2.1v2.7C108.3,80.7,108.1,80.9,107.8,80.9z"/>
							</g>
							<g>
								<path class="st52" d="M110.8,80.9c-0.3,0-0.6-0.2-0.6-0.6v-4.2c0-0.3,0.2-0.6,0.5-0.6c0.3,0,0.6,0.2,0.6,0.6v4.2
									C111.4,80.7,111.1,80.9,110.8,80.9z M110.8,75c-0.3,0-0.6-0.3-0.6-0.6v-0.1c0-0.3,0.3-0.6,0.6-0.6c0.4,0,0.6,0.2,0.6,0.6
									v0.1C111.4,74.8,111.2,75,110.8,75z"/>
							</g>
							<g>
								<path class="st52" d="M114,80.9c-0.3,0-0.6-0.2-0.6-0.6v-6.2c0-0.3,0.2-0.6,0.5-0.6c0.3,0,0.6,0.2,0.6,0.6v6.2
									C114.5,80.7,114.3,80.9,114,80.9z"/>
							</g>
							<path class="st52" d="M121.2,78.2c0-1.3-0.8-2.6-2.4-2.6c-1.4,0-2.5,1.2-2.5,2.7v0c0,1.5,1.1,2.7,2.6,2.7
								c0.8,0,1.4-0.2,1.9-0.8c0.1-0.1,0.2-0.2,0.2-0.4c0-0.3-0.2-0.5-0.5-0.5c-0.1,0-0.2,0-0.3,0.1c-0.4,0.3-0.8,0.5-1.3,0.5
								c-0.8,0-1.3-0.5-1.5-1.3h3.3C121,78.7,121.2,78.5,121.2,78.2z M117.4,77.8c0.1-0.8,0.7-1.3,1.4-1.3c0.8,0,1.2,0.6,1.3,1.3
								H117.4z"/>
						</g>
					</g>
				</g>
			</g>
		</g>
	</g>
</g>
</svg>
