<svg width="48" height="48" viewBox="0 0 48 48" fill="none" xmlns="http://www.w3.org/2000/svg">
<rect width="48" height="48" rx="14" fill="#FF881B"/>
<path d="M18.2056 14.6316C17.4106 14.5427 16.5895 14.5427 15.7945 14.6316C15.1959 14.6985 14.7107 15.1697 14.6398 15.7758C14.5447 16.5891 14.5447 17.4108 14.6398 18.2241C14.7107 18.8302 15.1959 19.3014 15.7945 19.3683C16.5895 19.4572 17.4106 19.4572 18.2056 19.3683C18.8042 19.3014 19.2894 18.8302 19.3603 18.2241C19.4554 17.4108 19.4554 16.5891 19.3603 15.7758C19.2894 15.1697 18.8042 14.6985 18.2056 14.6316Z" fill="white"/>
<path d="M25.2056 14.6316C24.4106 14.5427 23.5895 14.5427 22.7945 14.6316C22.1959 14.6985 21.7107 15.1697 21.6398 15.7758C21.5447 16.5891 21.5447 17.4108 21.6398 18.2241C21.7107 18.8302 22.1959 19.3014 22.7945 19.3683C23.5895 19.4572 24.4106 19.4572 25.2056 19.3683C25.8042 19.3014 26.2894 18.8302 26.3603 18.2241C26.4554 17.4108 26.4554 16.5891 26.3603 15.7758C26.2894 15.1697 25.8042 14.6985 25.2056 14.6316Z" fill="white"/>
<path d="M32.2056 14.6316C31.4106 14.5427 30.5895 14.5427 29.7945 14.6316C29.1959 14.6985 28.7107 15.1697 28.6398 15.7758C28.5447 16.5891 28.5447 17.4108 28.6398 18.2241C28.7107 18.8302 29.1959 19.3014 29.7945 19.3683C30.5895 19.4572 31.4106 19.4572 32.2056 19.3683C32.8042 19.3014 33.2894 18.8302 33.3603 18.2241C33.4554 17.4108 33.4554 16.5891 33.3603 15.7758C33.2894 15.1697 32.8042 14.6985 32.2056 14.6316Z" fill="white"/>
<path d="M18.2056 21.6316C17.4106 21.5427 16.5895 21.5427 15.7945 21.6316C15.1959 21.6985 14.7107 22.1697 14.6398 22.7758C14.5447 23.5891 14.5447 24.4108 14.6398 25.2241C14.7107 25.8302 15.1959 26.3014 15.7945 26.3683C16.5895 26.4572 17.4106 26.4572 18.2056 26.3683C18.8042 26.3014 19.2894 25.8302 19.3603 25.2241C19.4554 24.4108 19.4554 23.5891 19.3603 22.7758C19.2894 22.1697 18.8042 21.6985 18.2056 21.6316Z" fill="white"/>
<path d="M25.2056 21.6316C24.4106 21.5427 23.5895 21.5427 22.7945 21.6316C22.1959 21.6985 21.7107 22.1697 21.6398 22.7758C21.5447 23.5891 21.5447 24.4108 21.6398 25.2241C21.7107 25.8302 22.1959 26.3014 22.7945 26.3683C23.5895 26.4572 24.4106 26.4572 25.2056 26.3683C25.8042 26.3014 26.2894 25.8302 26.3603 25.2241C26.4554 24.4108 26.4554 23.5891 26.3603 22.7758C26.2894 22.1697 25.8042 21.6985 25.2056 21.6316Z" fill="white"/>
<path d="M32.2056 21.6316C31.4106 21.5427 30.5895 21.5427 29.7945 21.6316C29.1959 21.6985 28.7107 22.1697 28.6398 22.7758C28.5447 23.5891 28.5447 24.4108 28.6398 25.2241C28.7107 25.8302 29.1959 26.3014 29.7945 26.3683C30.5895 26.4572 31.4106 26.4572 32.2056 26.3683C32.8042 26.3014 33.2894 25.8302 33.3603 25.2241C33.4554 24.4108 33.4554 23.5891 33.3603 22.7758C33.2894 22.1697 32.8042 21.6985 32.2056 21.6316Z" fill="white"/>
<path d="M18.2056 28.6316C17.4106 28.5427 16.5895 28.5427 15.7945 28.6316C15.1959 28.6985 14.7107 29.1697 14.6398 29.7758C14.5447 30.5891 14.5447 31.4108 14.6398 32.2241C14.7107 32.8302 15.1959 33.3014 15.7945 33.3683C16.5895 33.4572 17.4106 33.4572 18.2056 33.3683C18.8042 33.3014 19.2894 32.8302 19.3603 32.2241C19.4554 31.4108 19.4554 30.5891 19.3603 29.7758C19.2894 29.1697 18.8042 28.6985 18.2056 28.6316Z" fill="white"/>
<path d="M25.2056 28.6316C24.4106 28.5427 23.5895 28.5427 22.7945 28.6316C22.1959 28.6985 21.7107 29.1697 21.6398 29.7758C21.5447 30.5891 21.5447 31.4108 21.6398 32.2241C21.7107 32.8302 22.1959 33.3014 22.7945 33.3683C23.5895 33.4572 24.4106 33.4572 25.2056 33.3683C25.8042 33.3014 26.2894 32.8302 26.3603 32.2241C26.4554 31.4108 26.4554 30.5891 26.3603 29.7758C26.2894 29.1697 25.8042 28.6985 25.2056 28.6316Z" fill="white"/>
<path d="M32.2056 28.6316C31.4106 28.5427 30.5895 28.5427 29.7945 28.6316C29.1959 28.6985 28.7107 29.1697 28.6398 29.7758C28.5447 30.5891 28.5447 31.4108 28.6398 32.2241C28.7107 32.8302 29.1959 33.3014 29.7945 33.3683C30.5895 33.4572 31.4106 33.4572 32.2056 33.3683C32.8042 33.3014 33.2894 32.8302 33.3603 32.2241C33.4554 31.4108 33.4554 30.5891 33.3603 29.7758C33.2894 29.1697 32.8042 28.6985 32.2056 28.6316Z" fill="white"/>
</svg>
