<svg width="48" height="48" viewBox="0 0 48 48" fill="none" xmlns="http://www.w3.org/2000/svg">
<rect width="48" height="48" rx="14" fill="#50B74A"/>
<path d="M33.6 13H15.2C15.0945 13.0004 14.9895 13.0152 14.888 13.0439C14.6336 13.1125 14.4089 13.2629 14.2484 13.4718C14.0879 13.6807 14.0005 13.9366 14 14.2V23C14 23.3182 14.1264 23.6236 14.3514 23.8486C14.5764 24.0735 14.8818 24.2 15.2 24.2H26.8V23.4H16.8C16.5791 23.4 16.4 23.2209 16.4 23C16.4 22.6818 16.2735 22.3764 16.0485 22.1514C15.8235 21.9265 15.5182 21.8 15.2 21.8C14.9791 21.8 14.8 21.6209 14.8 21.4V15.8C14.8 15.5791 14.9791 15.4 15.2 15.4C15.5182 15.4 15.8236 15.2736 16.0485 15.0486C16.2735 14.8236 16.4 14.5182 16.4 14.2C16.4 13.9791 16.5791 13.8 16.8 13.8H32C32.106 13.8 32.2078 13.8422 32.2828 13.9172C32.3578 13.9922 32.4 14.094 32.4 14.2C32.4 14.5183 32.5264 14.8236 32.7514 15.0486C32.9764 15.2735 33.2818 15.4 33.6 15.4C33.706 15.4 33.8078 15.4422 33.8828 15.5172C33.9578 15.5922 34 15.6939 34 15.8V21.4C34 21.5061 33.9578 21.6079 33.8828 21.6829C33.8078 21.7579 33.706 21.8 33.6 21.8C33.2817 21.8 32.9764 21.9264 32.7514 22.1514C32.5264 22.3764 32.4 22.6818 32.4 23C32.4 23.1061 32.3578 23.2079 32.2828 23.2828C32.2078 23.3578 32.106 23.4 32 23.4H30.8V24.2H33.6C33.7055 24.1996 33.8105 24.1848 33.9119 24.1561C34.1664 24.0875 34.391 23.9371 34.5516 23.7282C34.7121 23.5193 34.7994 23.2634 34.8 23V14.2C34.8 13.8818 34.6735 13.5764 34.4485 13.3514C34.2235 13.1265 33.9182 13 33.6 13V13Z" fill="white"/>
<path d="M28.7437 20.2C28.7436 20.2 28.7436 20.2 28.7435 20.2C28.4352 20.2145 28.1441 20.3472 27.9311 20.5708C27.7181 20.7941 27.5994 21.0913 27.5997 21.4001V24.6001C27.5997 24.7061 27.5576 24.8079 27.4826 24.8829C27.4076 24.9579 27.3058 25.0001 27.1997 25.0001C26.2449 25.0001 25.3292 25.3793 24.6542 26.0545C23.979 26.7295 23.5997 27.6452 23.5997 28.6001C23.5997 28.821 23.4206 29.0001 23.1997 29.0001C22.9788 29.0001 22.7997 28.821 22.7997 28.6001C22.7958 27.4322 23.2597 26.3115 24.0878 25.4881V25.4881C24.254 25.322 24.1438 25.0001 23.9088 25.0001H20.5168C19.7895 25.0001 19.1999 25.5896 19.1999 26.3169V28.6001C19.1999 29.2367 19.4527 29.847 19.9027 30.2972C20.3529 30.7472 20.9633 31.0001 21.5999 31.0001H27.5999C28.2365 31.0001 28.8468 30.7472 29.297 30.2972C29.747 29.847 29.9999 29.2367 29.9999 28.6001V21.4919C30.0024 21.1298 29.8581 20.7821 29.5999 20.528C29.3751 20.3007 29.0632 20.1813 28.7439 20.2C28.7438 20.2 28.7438 20.2 28.7437 20.2V20.2Z" fill="white"/>
<path d="M30.8001 22.6001H31.6401C31.7185 22.2158 31.9081 21.863 32.1857 21.5857C32.463 21.3082 32.8158 21.1185 33.2001 21.0401V16.1601C32.8158 16.0817 32.463 15.8921 32.1857 15.6145C31.9082 15.3372 31.7185 14.9844 31.6401 14.6001H17.1601C17.0817 14.9844 16.8921 15.3372 16.6145 15.6145C16.3372 15.892 15.9844 16.0817 15.6001 16.1601V21.0401C15.9844 21.1185 16.3372 21.3081 16.6145 21.5857C16.892 21.863 17.0817 22.2158 17.1601 22.6001H26.8003V21.4001C26.7998 20.8858 26.9973 20.3912 27.3517 20.0188C27.7064 19.6463 28.1907 19.4247 28.7042 19.4001C29.2367 19.3774 29.7549 19.5758 30.1364 19.9481C30.5598 20.3501 30.7998 20.9081 30.8003 21.492L30.8001 22.6001ZM24.4001 21.8001C22.8562 21.8001 21.6001 20.364 21.6001 18.6001C21.6001 16.8362 22.8562 15.4001 24.4001 15.4001C25.944 15.4001 27.2001 16.8362 27.2001 18.6001C27.2001 20.364 25.944 21.8001 24.4001 21.8001Z" fill="white"/>
<path d="M27.2177 18.7391C27.2177 20.7562 25.8552 22.3913 24.1742 22.3913C22.4932 22.3913 21.1307 20.7562 21.1307 18.7391C21.1307 16.722 22.4932 15.0869 24.1742 15.0869C25.8552 15.0869 27.2177 16.722 27.2177 18.7391Z" fill="white"/>
<path d="M20.8 31.8H28.4C28.8418 31.8 29.2 32.2418 29.2 32.6001V34.2001C29.2 34.6418 28.8418 35.0001 28.4 35.0001H20.8C20.3582 35.0001 20 34.5583 20 34.2001V32.6001C20 32.1583 20.3582 31.8 20.8 31.8Z" fill="white"/>
<path d="M22.3111 20V17.2H23.3391C23.5631 17.2 23.7471 17.2387 23.8911 17.316C24.0377 17.3907 24.1471 17.4933 24.2191 17.624C24.2911 17.752 24.3271 17.8947 24.3271 18.052C24.3271 18.2227 24.2817 18.3787 24.1911 18.52C24.1031 18.6613 23.9644 18.764 23.7751 18.828L24.3551 20H23.7671L23.2471 18.896H22.8231V20H22.3111ZM22.8231 18.52H23.3071C23.4777 18.52 23.6031 18.4787 23.6831 18.396C23.7631 18.3133 23.8031 18.204 23.8031 18.068C23.8031 17.9347 23.7631 17.828 23.6831 17.748C23.6057 17.668 23.4791 17.628 23.3031 17.628H22.8231V18.52ZM24.8033 20V17.2H25.8393C26.0633 17.2 26.2486 17.2373 26.3953 17.312C26.5419 17.3867 26.6513 17.4893 26.7233 17.62C26.7953 17.7507 26.8313 17.8973 26.8313 18.06C26.8313 18.2147 26.7966 18.3573 26.7273 18.488C26.6579 18.616 26.5499 18.72 26.4033 18.8C26.2566 18.8773 26.0686 18.916 25.8393 18.916H25.3153V20H24.8033ZM25.3153 18.5H25.8073C25.9859 18.5 26.1139 18.4613 26.1913 18.384C26.2713 18.304 26.3113 18.196 26.3113 18.06C26.3113 17.9213 26.2713 17.8133 26.1913 17.736C26.1139 17.656 25.9859 17.616 25.8073 17.616H25.3153V18.5Z" fill="#50B74A"/>
</svg>
