<svg width="16" height="16" viewBox="0 0 16 16" fill="none" xmlns="http://www.w3.org/2000/svg">
<path fill-rule="evenodd" clip-rule="evenodd" d="M16 8C16 12.4152 12.416 16 8 16C3.576 16 3.25594e-07 12.4152 7.26611e-07 8C1.12777e-06 3.5832 3.576 -1.04544e-06 8 -6.73174e-07C12.416 -3.01582e-07 16 3.5832 16 8ZM8.70471 11.032C8.70471 11.4152 8.38471 11.736 8.00071 11.736C7.61671 11.736 7.30471 11.4152 7.30471 11.032L7.30471 7.49604C7.30471 7.11124 7.61671 6.80004 8.00071 6.80004C8.38471 6.80004 8.70471 7.11124 8.70471 7.49604L8.70471 11.032ZM7.99131 4.25516C8.38331 4.25516 8.69531 4.57516 8.69531 4.95916C8.69531 5.34316 8.38331 5.65516 7.99931 5.65516C7.60731 5.65516 7.29531 5.34316 7.29531 4.95916C7.29531 4.57516 7.60731 4.25516 7.99131 4.25516Z" fill="#FA9D1C"/>
</svg>
