<svg width="18" height="18" viewBox="0 0 18 18" fill="none" xmlns="http://www.w3.org/2000/svg">
<path d="M9.27456 0C4.52734 0 0.667969 3.94161 0.667969 8.78997C0.667969 13.6383 4.52734 17.5799 9.27456 17.5799C14.0218 17.5799 17.8811 13.6383 17.8811 8.78997C17.8811 3.94161 14.0218 0 9.27456 0ZM13.0071 7.23553L9.09336 11.9914C8.93032 12.1949 8.69474 12.3059 8.44107 12.3059C8.18741 12.3059 7.95183 12.1949 7.78879 11.9914L5.54208 9.25263C5.23407 8.88256 5.28842 8.34584 5.65077 8.03125C6.01312 7.71668 6.53864 7.77219 6.84667 8.14227L8.44106 10.0853L11.7025 6.12523C12.0105 5.75516 12.536 5.71812 12.8984 6.01422C13.2607 6.32879 13.3151 6.86553 13.0071 7.2356L13.0071 7.23553Z" fill="#FA9D1C"/>
</svg>
