<svg width="14" height="13" viewBox="0 0 14 13" fill="none" xmlns="http://www.w3.org/2000/svg">
<path d="M1.19415 1.37578L1.19593 1.36276L1.19608 1.36099C1.19615 1.3606 1.19623 1.36017 1.19632 1.35971C1.19793 1.35136 1.20204 1.33267 1.21074 1.30629C1.22808 1.25373 1.2635 1.17103 1.33407 1.07722C1.46493 0.903266 1.75224 0.644049 2.39241 0.5H8.32469H8.40202C8.85338 0.59329 9.17767 1.0066 9.17767 1.5124V6.62207C9.17767 6.70867 9.12818 6.82843 9.0437 6.91586C8.87866 7.06698 8.6999 7.22398 8.51611 7.38538C8.16833 7.69081 7.80257 8.01203 7.47784 8.33914C6.964 8.85677 6.48522 9.45052 6.18374 10.1864C6.00395 10.5915 5.87193 11.0337 5.78447 11.4697C5.77951 11.4944 5.77416 11.5201 5.76862 11.5466C5.73424 11.7113 5.69271 11.9103 5.69271 12.1403C5.69271 12.2858 5.66238 12.3678 5.62915 12.4119C5.60879 12.439 5.59522 12.4466 5.5904 12.449C5.58554 12.4514 5.57108 12.4578 5.53671 12.4578H5.51598L5.49532 12.4595C5.4267 12.4652 5.26323 12.4237 5.07155 12.2732C4.88953 12.1304 4.78259 11.9671 4.75311 11.8641C4.64599 11.32 4.64694 10.7383 4.75596 10.1948L4.75956 10.1769L4.76184 10.1587C4.79622 9.88451 4.8638 9.64616 4.96742 9.40325C5.00601 9.32047 5.05412 9.18246 5.09355 9.06454C5.14088 8.92296 5.19339 8.75566 5.23626 8.60657C5.36159 8.20378 5.09578 7.72351 4.60493 7.7163L1.26996 7.59755C1.23223 7.5821 1.18954 7.5643 1.14029 7.5401C1.03686 7.48928 0.913299 7.41415 0.803435 7.30288C0.611134 7.10812 0.381047 6.72602 0.570537 5.91883L0.58377 5.86246V5.83836L1.19415 1.37578Z" stroke="black"/>
<path d="M11.0758 0.581543L13.0046 6.93914H10.832V0.581543H11.0758Z" stroke="black"/>
</svg>
