<svg width="349" height="260" viewBox="0 0 349 260" fill="none" xmlns="http://www.w3.org/2000/svg">
<g filter="url(#filter0_d_134_761)">
<rect x="14" y="8" width="320" height="240" rx="26" fill="white"/>
</g>
<path d="M334.934 86.5205C331.353 86.5205 327.919 85.0982 325.388 82.5664C322.856 80.0347 321.434 76.6009 321.434 73.0205C321.434 69.4401 322.856 66.0063 325.388 63.4746C327.919 60.9428 331.353 59.5205 334.934 59.5205L334.934 73.0205L334.934 86.5205Z" fill="#FFF9F1"/>
<path d="M13.9336 86.5205C17.514 86.5205 20.9478 85.0982 23.4795 82.5664C26.0113 80.0347 27.4336 76.6009 27.4336 73.0205C27.4336 69.4401 26.0113 66.0063 23.4795 63.4746C20.9478 60.9428 17.514 59.5205 13.9336 59.5205L13.9336 73.0205L13.9336 86.5205Z" fill="#FFF9F1"/>
<defs>
<filter id="filter0_d_134_761" x="4" y="0" width="340" height="260" filterUnits="userSpaceOnUse" color-interpolation-filters="sRGB">
<feFlood flood-opacity="0" result="BackgroundImageFix"/>
<feColorMatrix in="SourceAlpha" type="matrix" values="0 0 0 0 0 0 0 0 0 0 0 0 0 0 0 0 0 0 127 0" result="hardAlpha"/>
<feOffset dy="2"/>
<feGaussianBlur stdDeviation="5"/>
<feComposite in2="hardAlpha" operator="out"/>
<feColorMatrix type="matrix" values="0 0 0 0 0 0 0 0 0 0 0 0 0 0 0 0 0 0 0.1 0"/>
<feBlend mode="normal" in2="BackgroundImageFix" result="effect1_dropShadow_134_761"/>
<feBlend mode="normal" in="SourceGraphic" in2="effect1_dropShadow_134_761" result="shape"/>
</filter>
</defs>
</svg>
