<svg width="142" height="16" viewBox="0 0 142 16" fill="none" xmlns="http://www.w3.org/2000/svg">
<path fill-rule="evenodd" clip-rule="evenodd" d="M7 1C3.13409 1 0 4.13409 0 8C0 11.8659 3.13409 15 7 15C10.8659 15 14 11.8659 14 8C14 4.13409 10.8659 1 7 1ZM10.0342 6.81636C10.0901 6.7525 10.1326 6.67811 10.1593 6.59756C10.186 6.51702 10.1963 6.43195 10.1896 6.34735C10.183 6.26276 10.1594 6.18036 10.1205 6.10499C10.0815 6.02962 10.0278 5.96281 9.96262 5.90849C9.89744 5.85417 9.82204 5.81343 9.74088 5.78868C9.65972 5.76392 9.57442 5.75565 9.49002 5.76434C9.40561 5.77304 9.32379 5.79853 9.24938 5.83931C9.17497 5.88009 9.10947 5.93535 9.05673 6.00182L6.32036 9.28482L4.90445 7.86827C4.78443 7.75235 4.62369 7.68821 4.45684 7.68966C4.28998 7.69111 4.13037 7.75804 4.01239 7.87602C3.8944 7.99401 3.82748 8.15362 3.82603 8.32047C3.82458 8.48732 3.88872 8.64807 4.00464 8.76809L5.91373 10.6772C5.97625 10.7397 6.05111 10.7884 6.13354 10.8204C6.21596 10.8524 6.30413 10.8668 6.39244 10.8628C6.48075 10.8588 6.56726 10.8364 6.64644 10.7971C6.72563 10.7578 6.79576 10.7024 6.85236 10.6345L10.0342 6.81636Z" fill="#50B74A"/>
<path d="M18.36 12L21.456 3.6H22.524L25.608 12H24.54L23.772 9.84H20.196L19.416 12H18.36ZM20.496 9.024H23.472L21.984 4.872L20.496 9.024ZM29.0768 12.144C28.3648 12.144 27.7728 11.964 27.3008 11.604C26.8288 11.244 26.5528 10.756 26.4728 10.14H27.5048C27.5688 10.452 27.7328 10.724 27.9968 10.956C28.2688 11.18 28.6328 11.292 29.0888 11.292C29.5128 11.292 29.8248 11.204 30.0248 11.028C30.2248 10.844 30.3248 10.628 30.3248 10.38C30.3248 10.02 30.1928 9.78 29.9288 9.66C29.6728 9.54 29.3088 9.432 28.8368 9.336C28.5168 9.272 28.1968 9.18 27.8768 9.06C27.5568 8.94 27.2888 8.772 27.0728 8.556C26.8568 8.332 26.7488 8.04 26.7488 7.68C26.7488 7.16 26.9408 6.736 27.3248 6.408C27.7168 6.072 28.2448 5.904 28.9088 5.904C29.5408 5.904 30.0568 6.064 30.4568 6.384C30.8648 6.696 31.1008 7.144 31.1648 7.728H30.1688C30.1288 7.424 29.9968 7.188 29.7728 7.02C29.5568 6.844 29.2648 6.756 28.8968 6.756C28.5368 6.756 28.2568 6.832 28.0568 6.984C27.8648 7.136 27.7688 7.336 27.7688 7.584C27.7688 7.824 27.8928 8.012 28.1408 8.148C28.3968 8.284 28.7408 8.4 29.1728 8.496C29.5408 8.576 29.8888 8.676 30.2168 8.796C30.5528 8.908 30.8248 9.08 31.0328 9.312C31.2488 9.536 31.3568 9.864 31.3568 10.296C31.3648 10.832 31.1608 11.276 30.7448 11.628C30.3368 11.972 29.7808 12.144 29.0768 12.144ZM34.9688 12.144C34.2648 12.144 33.7048 11.932 33.2888 11.508C32.8728 11.076 32.6648 10.416 32.6648 9.528V6.048H33.6728V9.42C33.6728 10.66 34.1808 11.28 35.1968 11.28C35.7168 11.28 36.1448 11.096 36.4808 10.728C36.8248 10.352 36.9968 9.82 36.9968 9.132V6.048H38.0048V12H37.0928L37.0208 10.932C36.8368 11.308 36.5608 11.604 36.1928 11.82C35.8328 12.036 35.4248 12.144 34.9688 12.144ZM39.6639 12V6.048H40.5759L40.6599 7.188C40.8439 6.796 41.1239 6.484 41.4999 6.252C41.8759 6.02 42.3399 5.904 42.8919 5.904V6.96H42.6159C42.2639 6.96 41.9399 7.024 41.6439 7.152C41.3479 7.272 41.1119 7.48 40.9359 7.776C40.7599 8.072 40.6719 8.48 40.6719 9V12H39.6639ZM46.0033 12.144C45.5073 12.144 45.0953 12.06 44.7673 11.892C44.4393 11.724 44.1953 11.5 44.0353 11.22C43.8753 10.94 43.7953 10.636 43.7953 10.308C43.7953 9.7 44.0273 9.232 44.4913 8.904C44.9553 8.576 45.5873 8.412 46.3873 8.412H47.9953V8.34C47.9953 7.82 47.8593 7.428 47.5873 7.164C47.3153 6.892 46.9513 6.756 46.4953 6.756C46.1033 6.756 45.7633 6.856 45.4753 7.056C45.1953 7.248 45.0193 7.532 44.9473 7.908H43.9153C43.9553 7.476 44.0993 7.112 44.3473 6.816C44.6033 6.52 44.9193 6.296 45.2953 6.144C45.6713 5.984 46.0713 5.904 46.4953 5.904C47.3273 5.904 47.9513 6.128 48.3673 6.576C48.7913 7.016 49.0033 7.604 49.0033 8.34V12H48.1033L48.0433 10.932C47.8753 11.268 47.6273 11.556 47.2993 11.796C46.9793 12.028 46.5473 12.144 46.0033 12.144ZM46.1593 11.292C46.5433 11.292 46.8713 11.192 47.1433 10.992C47.4233 10.792 47.6353 10.532 47.7793 10.212C47.9233 9.892 47.9953 9.556 47.9953 9.204V9.192H46.4713C45.8793 9.192 45.4593 9.296 45.2113 9.504C44.9713 9.704 44.8513 9.956 44.8513 10.26C44.8513 10.572 44.9633 10.824 45.1873 11.016C45.4193 11.2 45.7433 11.292 46.1593 11.292ZM50.5155 12V6.048H51.4275L51.4875 7.116C51.6795 6.74 51.9555 6.444 52.3155 6.228C52.6755 6.012 53.0835 5.904 53.5395 5.904C54.2435 5.904 54.8035 6.12 55.2195 6.552C55.6435 6.976 55.8555 7.632 55.8555 8.52V12H54.8475V8.628C54.8475 7.388 54.3355 6.768 53.3115 6.768C52.7995 6.768 52.3715 6.956 52.0275 7.332C51.6915 7.7 51.5235 8.228 51.5235 8.916V12H50.5155ZM59.6627 12.144C58.9507 12.144 58.3587 11.964 57.8867 11.604C57.4147 11.244 57.1387 10.756 57.0587 10.14H58.0907C58.1547 10.452 58.3187 10.724 58.5827 10.956C58.8547 11.18 59.2187 11.292 59.6747 11.292C60.0987 11.292 60.4107 11.204 60.6107 11.028C60.8107 10.844 60.9107 10.628 60.9107 10.38C60.9107 10.02 60.7787 9.78 60.5147 9.66C60.2587 9.54 59.8947 9.432 59.4227 9.336C59.1027 9.272 58.7827 9.18 58.4627 9.06C58.1427 8.94 57.8747 8.772 57.6587 8.556C57.4427 8.332 57.3347 8.04 57.3347 7.68C57.3347 7.16 57.5267 6.736 57.9107 6.408C58.3027 6.072 58.8307 5.904 59.4947 5.904C60.1267 5.904 60.6427 6.064 61.0427 6.384C61.4507 6.696 61.6867 7.144 61.7507 7.728H60.7547C60.7147 7.424 60.5827 7.188 60.3587 7.02C60.1427 6.844 59.8507 6.756 59.4827 6.756C59.1227 6.756 58.8427 6.832 58.6427 6.984C58.4507 7.136 58.3547 7.336 58.3547 7.584C58.3547 7.824 58.4787 8.012 58.7267 8.148C58.9827 8.284 59.3267 8.4 59.7587 8.496C60.1267 8.576 60.4747 8.676 60.8027 8.796C61.1387 8.908 61.4107 9.08 61.6187 9.312C61.8347 9.536 61.9427 9.864 61.9427 10.296C61.9507 10.832 61.7467 11.276 61.3307 11.628C60.9227 11.972 60.3667 12.144 59.6627 12.144ZM63.9947 4.728C63.7947 4.728 63.6267 4.664 63.4907 4.536C63.3627 4.4 63.2987 4.232 63.2987 4.032C63.2987 3.84 63.3627 3.68 63.4907 3.552C63.6267 3.424 63.7947 3.36 63.9947 3.36C64.1867 3.36 64.3507 3.424 64.4867 3.552C64.6227 3.68 64.6907 3.84 64.6907 4.032C64.6907 4.232 64.6227 4.4 64.4867 4.536C64.3507 4.664 64.1867 4.728 63.9947 4.728ZM63.4907 12V6.048H64.4987V12H63.4907ZM69.4896 12V3.6H72.0696C73.5496 3.6 74.6376 3.976 75.3336 4.728C76.0376 5.48 76.3896 6.512 76.3896 7.824C76.3896 9.112 76.0376 10.132 75.3336 10.884C74.6376 11.628 73.5496 12 72.0696 12H69.4896ZM70.4976 11.16H72.0456C72.8616 11.16 73.5096 11.028 73.9896 10.764C74.4776 10.492 74.8256 10.108 75.0336 9.612C75.2416 9.108 75.3456 8.512 75.3456 7.824C75.3456 7.12 75.2416 6.516 75.0336 6.012C74.8256 5.508 74.4776 5.12 73.9896 4.848C73.5096 4.576 72.8616 4.44 72.0456 4.44H70.4976V11.16ZM78.397 4.728C78.197 4.728 78.029 4.664 77.893 4.536C77.765 4.4 77.701 4.232 77.701 4.032C77.701 3.84 77.765 3.68 77.893 3.552C78.029 3.424 78.197 3.36 78.397 3.36C78.589 3.36 78.753 3.424 78.889 3.552C79.025 3.68 79.093 3.84 79.093 4.032C79.093 4.232 79.025 4.4 78.889 4.536C78.753 4.664 78.589 4.728 78.397 4.728ZM77.893 12V6.048H78.901V12H77.893ZM83.0081 12C82.4641 12 82.0361 11.868 81.7241 11.604C81.4121 11.34 81.2561 10.864 81.2561 10.176V6.9H80.2241V6.048H81.2561L81.3881 4.62H82.2641V6.048H84.0161V6.9H82.2641V10.176C82.2641 10.552 82.3401 10.808 82.4921 10.944C82.6441 11.072 82.9121 11.136 83.2961 11.136H83.9201V12H83.0081ZM87.2768 12.144C86.7808 12.144 86.3688 12.06 86.0408 11.892C85.7128 11.724 85.4688 11.5 85.3088 11.22C85.1488 10.94 85.0688 10.636 85.0688 10.308C85.0688 9.7 85.3008 9.232 85.7648 8.904C86.2288 8.576 86.8608 8.412 87.6608 8.412H89.2688V8.34C89.2688 7.82 89.1328 7.428 88.8608 7.164C88.5888 6.892 88.2248 6.756 87.7688 6.756C87.3768 6.756 87.0368 6.856 86.7488 7.056C86.4688 7.248 86.2928 7.532 86.2208 7.908H85.1888C85.2288 7.476 85.3728 7.112 85.6208 6.816C85.8768 6.52 86.1928 6.296 86.5688 6.144C86.9448 5.984 87.3448 5.904 87.7688 5.904C88.6008 5.904 89.2248 6.128 89.6408 6.576C90.0648 7.016 90.2768 7.604 90.2768 8.34V12H89.3768L89.3168 10.932C89.1488 11.268 88.9008 11.556 88.5728 11.796C88.2528 12.028 87.8208 12.144 87.2768 12.144ZM87.4328 11.292C87.8168 11.292 88.1448 11.192 88.4168 10.992C88.6968 10.792 88.9088 10.532 89.0528 10.212C89.1968 9.892 89.2688 9.556 89.2688 9.204V9.192H87.7448C87.1528 9.192 86.7328 9.296 86.4848 9.504C86.2448 9.704 86.1248 9.956 86.1248 10.26C86.1248 10.572 86.2368 10.824 86.4608 11.016C86.6928 11.2 87.0168 11.292 87.4328 11.292ZM91.7889 12V6.048H92.7009L92.7729 6.912C92.9649 6.592 93.2209 6.344 93.5409 6.168C93.8609 5.992 94.2209 5.904 94.6209 5.904C95.0929 5.904 95.4969 6 95.8329 6.192C96.1769 6.384 96.4409 6.676 96.6249 7.068C96.8329 6.708 97.1169 6.424 97.4769 6.216C97.8449 6.008 98.2409 5.904 98.6649 5.904C99.3769 5.904 99.9449 6.12 100.369 6.552C100.793 6.976 101.005 7.632 101.005 8.52V12H100.009V8.628C100.009 8.012 99.8849 7.548 99.6369 7.236C99.3889 6.924 99.0329 6.768 98.5689 6.768C98.0889 6.768 97.6889 6.956 97.3689 7.332C97.0569 7.7 96.9009 8.228 96.9009 8.916V12H95.8929V8.628C95.8929 8.012 95.7689 7.548 95.5209 7.236C95.2729 6.924 94.9169 6.768 94.4529 6.768C93.9809 6.768 93.5849 6.956 93.2649 7.332C92.9529 7.7 92.7969 8.228 92.7969 8.916V12H91.7889ZM105.703 12.144C105.215 12.144 104.779 12.044 104.395 11.844C104.019 11.644 103.731 11.364 103.531 11.004L103.435 12H102.523V3.36H103.531V7.032C103.723 6.744 103.995 6.484 104.347 6.252C104.707 6.02 105.163 5.904 105.715 5.904C106.307 5.904 106.823 6.04 107.263 6.312C107.703 6.584 108.043 6.956 108.283 7.428C108.531 7.9 108.655 8.436 108.655 9.036C108.655 9.636 108.531 10.172 108.283 10.644C108.043 11.108 107.699 11.476 107.251 11.748C106.811 12.012 106.295 12.144 105.703 12.144ZM105.595 11.268C105.995 11.268 106.347 11.176 106.651 10.992C106.955 10.8 107.195 10.536 107.371 10.2C107.547 9.864 107.635 9.472 107.635 9.024C107.635 8.576 107.547 8.184 107.371 7.848C107.195 7.512 106.955 7.252 106.651 7.068C106.347 6.876 105.995 6.78 105.595 6.78C105.195 6.78 104.843 6.876 104.539 7.068C104.235 7.252 103.995 7.512 103.819 7.848C103.643 8.184 103.555 8.576 103.555 9.024C103.555 9.472 103.643 9.864 103.819 10.2C103.995 10.536 104.235 10.8 104.539 10.992C104.843 11.176 105.195 11.268 105.595 11.268ZM112.038 12.144C111.542 12.144 111.13 12.06 110.802 11.892C110.474 11.724 110.23 11.5 110.07 11.22C109.91 10.94 109.83 10.636 109.83 10.308C109.83 9.7 110.062 9.232 110.526 8.904C110.99 8.576 111.622 8.412 112.422 8.412H114.03V8.34C114.03 7.82 113.894 7.428 113.622 7.164C113.35 6.892 112.986 6.756 112.53 6.756C112.138 6.756 111.798 6.856 111.51 7.056C111.23 7.248 111.054 7.532 110.982 7.908H109.95C109.99 7.476 110.134 7.112 110.382 6.816C110.638 6.52 110.954 6.296 111.33 6.144C111.706 5.984 112.106 5.904 112.53 5.904C113.362 5.904 113.986 6.128 114.402 6.576C114.826 7.016 115.038 7.604 115.038 8.34V12H114.138L114.078 10.932C113.91 11.268 113.662 11.556 113.334 11.796C113.014 12.028 112.582 12.144 112.038 12.144ZM112.194 11.292C112.578 11.292 112.906 11.192 113.178 10.992C113.458 10.792 113.67 10.532 113.814 10.212C113.958 9.892 114.03 9.556 114.03 9.204V9.192H112.506C111.914 9.192 111.494 9.296 111.246 9.504C111.006 9.704 110.886 9.956 110.886 10.26C110.886 10.572 110.998 10.824 111.222 11.016C111.454 11.2 111.778 11.292 112.194 11.292ZM116.551 12V3.36H117.559V7.068C117.759 6.7 118.043 6.416 118.411 6.216C118.779 6.008 119.179 5.904 119.611 5.904C120.299 5.904 120.851 6.12 121.267 6.552C121.683 6.976 121.891 7.632 121.891 8.52V12H120.895V8.628C120.895 7.388 120.395 6.768 119.395 6.768C118.875 6.768 118.439 6.956 118.087 7.332C117.735 7.7 117.559 8.228 117.559 8.916V12H116.551ZM123.418 12V3.36H124.426V8.556L126.862 6.048H128.098L125.458 8.736L128.434 12H127.15L124.426 8.916V12H123.418ZM131.398 12.144C130.902 12.144 130.49 12.06 130.162 11.892C129.834 11.724 129.59 11.5 129.43 11.22C129.27 10.94 129.19 10.636 129.19 10.308C129.19 9.7 129.422 9.232 129.886 8.904C130.35 8.576 130.982 8.412 131.782 8.412H133.39V8.34C133.39 7.82 133.254 7.428 132.982 7.164C132.71 6.892 132.346 6.756 131.89 6.756C131.498 6.756 131.158 6.856 130.87 7.056C130.59 7.248 130.414 7.532 130.342 7.908H129.31C129.35 7.476 129.494 7.112 129.742 6.816C129.998 6.52 130.314 6.296 130.69 6.144C131.066 5.984 131.466 5.904 131.89 5.904C132.722 5.904 133.346 6.128 133.762 6.576C134.186 7.016 134.398 7.604 134.398 8.34V12H133.498L133.438 10.932C133.27 11.268 133.022 11.556 132.694 11.796C132.374 12.028 131.942 12.144 131.398 12.144ZM131.554 11.292C131.938 11.292 132.266 11.192 132.538 10.992C132.818 10.792 133.03 10.532 133.174 10.212C133.318 9.892 133.39 9.556 133.39 9.204V9.192H131.866C131.274 9.192 130.854 9.296 130.606 9.504C130.366 9.704 130.246 9.956 130.246 10.26C130.246 10.572 130.358 10.824 130.582 11.016C130.814 11.2 131.138 11.292 131.554 11.292ZM135.91 12V6.048H136.822L136.882 7.116C137.074 6.74 137.35 6.444 137.71 6.228C138.07 6.012 138.478 5.904 138.934 5.904C139.638 5.904 140.198 6.12 140.614 6.552C141.038 6.976 141.25 7.632 141.25 8.52V12H140.242V8.628C140.242 7.388 139.73 6.768 138.706 6.768C138.194 6.768 137.766 6.956 137.422 7.332C137.086 7.7 136.918 8.228 136.918 8.916V12H135.91Z" fill="#222831"/>
</svg>
