<svg width="84" height="84" viewBox="0 0 84 84" fill="none" xmlns="http://www.w3.org/2000/svg">
<circle cx="42" cy="42" r="42" fill="#F1F3F9"/>
<ellipse cx="41" cy="45.5" rx="24" ry="23.5" fill="white"/>
<path fill-rule="evenodd" clip-rule="evenodd" d="M41.5833 17C26.9021 17 15 28.9021 15 43.5833C15 58.2646 26.9021 70.1667 41.5833 70.1667C56.2646 70.1667 68.1667 58.2646 68.1667 43.5833C68.1667 28.9021 56.2646 17 41.5833 17ZM50.5419 38.0419C50.9821 37.5861 51.2257 36.9757 51.2202 36.342C51.2147 35.7084 50.9605 35.1023 50.5125 34.6542C50.0644 34.2061 49.4583 33.952 48.8246 33.9465C48.191 33.9409 47.5805 34.1845 47.1247 34.6248L41.5833 40.1662L36.0419 34.6248C35.819 34.3939 35.5523 34.2098 35.2575 34.0832C34.9626 33.9565 34.6455 33.8898 34.3246 33.8871C34.0038 33.8843 33.6855 33.9454 33.3885 34.0669C33.0915 34.1884 32.8217 34.3679 32.5948 34.5948C32.3679 34.8217 32.1884 35.0915 32.0669 35.3885C31.9454 35.6855 31.8843 36.0038 31.8871 36.3246C31.8898 36.6455 31.9565 36.9626 32.0832 37.2575C32.2098 37.5523 32.3939 37.819 32.6248 38.0419L38.1662 43.5833L32.6248 49.1247C32.3939 49.3477 32.2098 49.6143 32.0832 49.9092C31.9565 50.204 31.8898 50.5211 31.8871 50.842C31.8843 51.1629 31.9454 51.4811 32.0669 51.7781C32.1884 52.0751 32.3679 52.345 32.5948 52.5719C32.8217 52.7988 33.0915 52.9782 33.3885 53.0997C33.6855 53.2212 34.0038 53.2824 34.3246 53.2796C34.6455 53.2768 34.9626 53.2101 35.2575 53.0835C35.5523 52.9568 35.819 52.7727 36.0419 52.5419L41.5833 47.0005L47.1247 52.5419C47.5805 52.9821 48.191 53.2257 48.8246 53.2202C49.4583 53.2147 50.0644 52.9605 50.5125 52.5125C50.9605 52.0644 51.2147 51.4583 51.2202 50.8246C51.2257 50.191 50.9821 49.5805 50.5419 49.1247L45.0005 43.5833L50.5419 38.0419Z" fill="#F94F29"/>
</svg>
