<svg width="218" height="205" viewBox="0 0 218 205" fill="none" xmlns="http://www.w3.org/2000/svg">
<g opacity="0.7">
<circle cx="124.582" cy="95.189" r="78.9371" fill="#FF881B" fill-opacity="0.2"/>
<path d="M202.964 85.9025C202.964 127.894 167.887 161.963 124.582 161.963C81.2766 161.963 46.1994 127.894 46.1994 85.9025C46.1994 43.9109 81.2766 9.84195 124.582 9.84195C167.887 9.84195 202.964 43.9109 202.964 85.9025Z" stroke="url(#paint0_linear_134_792)" stroke-opacity="0.6" stroke-width="1.10968"/>
<path d="M206.445 76.035C206.445 117.677 169.58 151.515 124 151.515C78.42 151.515 41.5548 117.677 41.5548 76.035C41.5548 34.3932 78.42 0.554839 124 0.554839C169.58 0.554839 206.445 34.3932 206.445 76.035Z" stroke="url(#paint1_linear_134_792)" stroke-opacity="0.6" stroke-width="1.10968"/>
</g>
<path d="M59.3 24.9004H33.9V72.2004H59.3V24.9004Z" fill="#D3E9FE"/>
<path d="M55.2 27.8003H37.7V29.4003H55.2V27.8003Z" fill="#505154"/>
<path d="M55.2 32.3003H37.7V33.9003H55.2V32.3003Z" fill="#505154"/>
<path d="M44.2 35.7002H37.7V37.3002H44.2V35.7002Z" fill="#505154"/>
<path d="M42.8 38.5005H37.7V40.1005H42.8V38.5005Z" fill="#505154"/>
<path d="M43 41.4004H37.7V43.0004H43V41.4004Z" fill="#505154"/>
<path d="M44.2 44.3003H37.7V45.9003H44.2V44.3003Z" fill="#505154"/>
<path d="M46 47.1006H37.7V48.7006H46V47.1006Z" fill="#505154"/>
<path d="M42.8 50.0005H37.7V51.6005H42.8V50.0005Z" fill="#505154"/>
<path d="M44.2 52.9004H37.7V54.5004H44.2V52.9004Z" fill="#505154"/>
<path d="M55.3 56.4004H37.7V57.5004H55.3V56.4004Z" fill="#505154"/>
<path d="M44.2 58.6006H37.7V60.2006H44.2V58.6006Z" fill="#505154"/>
<path d="M44.2 61.5005H37.7V63.1005H44.2V61.5005Z" fill="#505154"/>
<path d="M55.2 35.7002H50.1V37.3002H55.2V35.7002Z" fill="#505154"/>
<path d="M55.2 38.5005H50.1V40.1005H55.2V38.5005Z" fill="#505154"/>
<path d="M55.2 41.4004H50.1V43.0004H55.2V41.4004Z" fill="#505154"/>
<path d="M55.2 44.3003H50.1V45.9003H55.2V44.3003Z" fill="#505154"/>
<path d="M55.2 47.1006H50.1V48.7006H55.2V47.1006Z" fill="#505154"/>
<path d="M55.2 50.0005H50.1V51.6005H55.2V50.0005Z" fill="#505154"/>
<path d="M55.2 52.9004H50.1V54.5004H55.2V52.9004Z" fill="#505154"/>
<path d="M55.2 58.6006H50.1V60.2006H55.2V58.6006Z" fill="#505154"/>
<path d="M55.2 61.5005H50.1V63.1005H55.2V61.5005Z" fill="#505154"/>
<path d="M167 201.2L167.9 201.8L168.1 202L168.4 202.2L169.1 202.7C169.1 202.7 177.3 202.5 186 198.7C196.5 194.2 200.7 187.6 200.7 187.6C181.4 186.2 167 201.2 167 201.2Z" fill="#B2E069"/>
<path d="M167 201.2L168.2 202C177.2 197.1 200.8 187.5 200.8 187.5C181.4 186.2 167 201.2 167 201.2Z" fill="#8BC53F"/>
<path d="M168 201.8L168.2 202L168.5 202.2C171.2 200.7 176.2 198.3 176.6 198.2C176.9 198 177.3 197.8 177.6 197.7C178.3 197.3 185.4 194.1 188.4 192.9C189.9 192.3 191.4 191.6 192.9 191C193.3 190.9 197.3 189.2 197.7 189C197.5 189 192.2 190.7 191.5 190.9C190 191.5 188.5 192.1 187.1 192.8C184 194.2 181.3 195.2 178.5 196.6C177.8 197 177.1 197.3 176.4 197.7C175.9 197.8 171.4 199.9 168 201.8Z" fill="#5E871D"/>
<path d="M174.5 196.3C174 197 173.6 197.7 173.1 198.3C172.6 199 172.1 199.7 171.5 200.2C171.4 200.3 171.2 200.2 171.3 200.1C171.7 199.4 172.3 198.7 172.8 198.1C173.3 197.4 173.9 196.8 174.4 196.2C174.4 196.1 174.5 196.2 174.5 196.3Z" fill="#5E871D"/>
<path d="M173.4 199.3C173.5 199.3 173.7 199.4 173.8 199.5C173.9 199.6 174 199.6 174.2 199.7C174.5 199.8 174.7 200 175 200.1C175.5 200.3 176.1 200.6 176.6 200.7C176.7 200.7 176.7 200.9 176.6 200.8C176 200.7 175.4 200.5 174.8 200.3C174.5 200.2 174.3 200.1 174 199.9C173.9 199.8 173.7 199.8 173.6 199.7C173.5 199.6 173.3 199.6 173.3 199.5C173.1 199.3 173.2 199.2 173.4 199.3Z" fill="#5E871D"/>
<path d="M178.1 194.3C178.2 194.2 178.3 194.3 178.2 194.4C177.8 195 177.4 195.6 177.1 196.2C176.9 196.5 176.8 196.8 176.6 197.1C176.4 197.4 176.3 197.8 176.1 198.1C176 198.3 175.7 198.1 175.8 198C175.9 197.7 176.1 197.3 176.2 197C176.4 196.7 176.5 196.4 176.7 196.1C177.1 195.5 177.6 194.9 178.1 194.3Z" fill="#5E871D"/>
<path d="M178 197.1C178.3 197.3 178.5 197.5 178.8 197.7C179 197.9 179.3 198.1 179.5 198.3C179.8 198.5 180.1 198.7 180.4 198.8C180.7 199 181.1 199.2 181.5 199.4C181.6 199.5 181.5 199.6 181.4 199.6C181 199.5 180.7 199.3 180.4 199.2C180.1 199 179.8 198.9 179.5 198.7C179.2 198.5 178.9 198.3 178.6 198.1C178.3 197.9 178 197.7 177.8 197.4C177.6 197.2 177.8 197 178 197.1Z" fill="#5E871D"/>
<path d="M182.3 191.7C181.6 193 181.1 194.3 180.8 195.7C180.7 195.9 180.3 195.8 180.4 195.6C180.7 194.2 181.3 192.9 182.2 191.7C182.2 191.6 182.3 191.6 182.3 191.7Z" fill="#5E871D"/>
<path d="M182.4 194.8C182.6 194.9 182.8 195 183 195.1C183.2 195.2 183.4 195.3 183.5 195.4C183.9 195.6 184.3 195.8 184.7 196C185.5 196.4 186.3 196.7 187.1 197C187.2 197 187.2 197.2 187 197.2C186.1 197 185.2 196.7 184.4 196.3C184 196.1 183.6 195.9 183.2 195.7C182.8 195.5 182.4 195.3 182.2 195C182.1 194.9 182.3 194.8 182.4 194.8Z" fill="#5E871D"/>
<path d="M187.8 189.601C187.9 189.501 188 189.6 188 189.7C187.6 190.3 187.1 190.9 186.7 191.5C186.3 192.1 186 192.8 185.7 193.5C185.6 193.7 185.3 193.6 185.3 193.4C185.5 192.7 185.9 192 186.3 191.4C186.7 190.8 187.2 190.201 187.8 189.601Z" fill="#5E871D"/>
<path d="M187.5 192.8C188.1 193.1 188.6 193.4 189.2 193.7C189.8 194 190.4 194.3 190.9 194.6C191 194.7 190.9 194.8 190.8 194.7C190.2 194.4 189.6 194.2 189 193.9C188.4 193.6 187.8 193.4 187.2 193.1C187.1 193 187.3 192.7 187.5 192.8Z" fill="#5E871D"/>
<path d="M192.2 188.601C192.3 188.501 192.4 188.6 192.4 188.7C192.1 189.2 191.8 189.601 191.5 190.101C191.3 190.301 191.2 190.601 191.1 190.801C191 191.001 190.9 191.3 190.7 191.5C190.6 191.6 190.3 191.6 190.4 191.4C190.5 191.1 190.6 190.9 190.8 190.7C190.9 190.4 191.1 190.2 191.3 190C191.4 189.4 191.8 189.001 192.2 188.601Z" fill="#5E871D"/>
<path d="M191.4 191C192.4 191.5 193.5 192 194.7 192.4C194.9 192.5 194.8 192.6 194.6 192.6C193.4 192.3 192.3 191.9 191.3 191.3C191.1 191.1 191.2 190.9 191.4 191Z" fill="#5E871D"/>
<path d="M165 202.6H166.8H167.3H167.8H169.2C169.2 202.6 180.1 195.1 188.7 182.2C199 166.8 198.9 154 198.9 154C171.4 169.5 165 202.6 165 202.6Z" fill="#B2E069"/>
<path d="M165 202.6H167.3C175.2 188 198.9 154 198.9 154C171.4 169.5 165 202.6 165 202.6Z" fill="#8BC53F"/>
<path d="M166.9 202.6H167.4H167.9C170.3 198.1 175 190.5 175.3 190C175.6 189.5 175.9 188.9 176.2 188.4C176.8 187.3 183.7 176.5 186.6 172.3C188.1 170.1 189.5 167.9 191.1 165.8C191.5 165.3 195.5 159.4 195.9 158.8C195.7 159 189.9 165.9 189.1 166.9C187.5 169 186.2 171.2 184.7 173.3C181.6 177.9 178.9 181.8 176.3 186.1C175.7 187.2 175 188.3 174.4 189.4C174.1 190.1 169.8 197 166.9 202.6Z" fill="#5E871D"/>
<path d="M170.8 189.4C170.8 190.7 170.7 192.1 170.6 193.4C170.5 194.7 170.4 196.1 170.1 197.5C170.1 197.7 169.7 197.8 169.7 197.5C169.6 196.2 169.8 194.8 169.9 193.4C170 192 170.2 190.7 170.4 189.3C170.6 189.2 170.8 189.2 170.8 189.4Z" fill="#5E871D"/>
<path d="M171.9 194.4C172.1 194.3 172.4 194.3 172.6 194.3C172.8 194.3 173.1 194.3 173.3 194.3C173.8 194.3 174.2 194.2 174.7 194.2C175.6 194.1 176.6 193.9 177.5 193.6C177.7 193.5 177.7 193.8 177.6 193.8C176.7 194.2 175.7 194.5 174.7 194.6C174.2 194.7 173.7 194.8 173.3 194.8C173.1 194.8 172.8 194.8 172.6 194.8C172.4 194.8 172.1 194.8 171.9 194.8C171.7 194.7 171.7 194.5 171.9 194.4Z" fill="#5E871D"/>
<path d="M174 183.5C174 183.3 174.3 183.3 174.3 183.5C174.3 184.7 174.2 185.8 174.3 187C174.3 187.6 174.4 188.1 174.4 188.7C174.5 189.3 174.6 189.8 174.6 190.4C174.6 190.7 174.1 190.8 174 190.5C173.8 190 173.8 189.4 173.7 188.8C173.6 188.2 173.6 187.7 173.6 187.1C173.7 185.9 173.8 184.7 174 183.5Z" fill="#5E871D"/>
<path d="M176.3 187.4C176.8 187.4 177.4 187.5 177.9 187.6C178.4 187.6 178.9 187.7 179.4 187.7C180 187.7 180.5 187.7 181.1 187.7C181.7 187.7 182.4 187.6 183 187.6C183.2 187.6 183.2 187.9 183 187.9C182.4 188 181.8 188.2 181.2 188.2C180.6 188.3 180.1 188.3 179.5 188.3C178.9 188.3 178.4 188.3 177.8 188.3C177.2 188.3 176.6 188.2 176 188.1C175.9 187.8 176 187.4 176.3 187.4Z" fill="#5E871D"/>
<path d="M177.5 176.2C177.7 178.5 178.2 180.8 179 182.9C179.1 183.2 178.5 183.4 178.4 183.1C177.6 180.9 177.3 178.6 177.3 176.2C177.2 176.1 177.5 176.1 177.5 176.2Z" fill="#5E871D"/>
<path d="M180.4 180.4C180.8 180.3 181.1 180.4 181.5 180.4C181.8 180.4 182.2 180.4 182.5 180.4C183.2 180.4 183.9 180.3 184.6 180.2C186 180 187.4 179.8 188.8 179.4C189 179.3 189.1 179.6 188.9 179.7C187.5 180.2 186 180.5 184.5 180.8C183.8 180.9 183.1 181 182.3 181C181.6 181 180.8 181.1 180.2 180.9C180 180.7 180.1 180.4 180.4 180.4Z" fill="#5E871D"/>
<path d="M183.1 168.6C183.1 168.4 183.4 168.4 183.4 168.6C183.3 169.8 183.3 171 183.3 172.2C183.3 173.4 183.5 174.6 183.7 175.8C183.8 176.1 183.2 176.3 183.1 176C182.8 174.8 182.7 173.6 182.7 172.4C182.7 171.1 182.8 169.9 183.1 168.6Z" fill="#5E871D"/>
<path d="M185.5 173.1C186.5 173 187.6 172.9 188.6 172.8C189.7 172.7 190.7 172.6 191.8 172.5C192 172.5 192 172.7 191.8 172.8C190.8 173 189.7 173.1 188.7 173.2C187.7 173.3 186.6 173.5 185.6 173.6C185.2 173.7 185.2 173.2 185.5 173.1Z" fill="#5E871D"/>
<path d="M188.2 163.2C188.2 163 188.5 163 188.5 163.2C188.5 164.1 188.4 165 188.5 165.9C188.5 166.4 188.5 166.8 188.5 167.3C188.5 167.7 188.6 168.2 188.6 168.7C188.6 169 188.2 169.1 188.1 168.8C188 168.4 188 167.9 188 167.5C188 167 188 166.6 188 166.1C187.9 165.1 188 164.1 188.2 163.2Z" fill="#5E871D"/>
<path d="M189.2 167.2C191.1 167 193 166.7 194.8 166.2C195.1 166.1 195.1 166.5 194.8 166.5C193 167.1 191 167.5 189.1 167.7C188.9 167.7 188.8 167.2 189.2 167.2Z" fill="#5E871D"/>
<path d="M94.7 200.2L94 201L93.8 201.2L93.6 201.4L93 202C93 202 85.1 203.9 75.6 202.4C64.3 200.7 58.5 195.4 58.5 195.4C77 189.4 94.7 200.2 94.7 200.2Z" fill="#B2E069"/>
<path d="M94.7 200.2L93.7 201.2C83.8 198.8 58.4 195.5 58.4 195.5C77 189.4 94.7 200.2 94.7 200.2Z" fill="#8BC53F"/>
<path d="M94 201L93.8 201.2L93.6 201.4C90.6 200.6 85.1 199.6 84.8 199.6C84.4 199.5 84.1 199.4 83.7 199.3C82.9 199.1 75.2 197.8 72.1 197.4C70.5 197.2 68.9 196.9 67.3 196.7C66.9 196.7 62.6 196 62.1 196C62.3 196 67.8 196.2 68.6 196.3C70.2 196.5 71.8 196.7 73.3 197C76.7 197.5 79.6 197.9 82.6 198.5C83.4 198.7 84.1 198.8 84.9 199C85.3 199.2 90.2 200.1 94 201Z" fill="#5E871D"/>
<path d="M86.3 197.4C86.9 197.9 87.5 198.5 88.2 199C88.9 199.5 89.5 200.1 90.2 200.5C90.3 200.6 90.5 200.4 90.4 200.3C89.8 199.7 89.1 199.2 88.5 198.7C87.8 198.2 87.1 197.7 86.4 197.3C86.3 197.2 86.2 197.3 86.3 197.4Z" fill="#5E871D"/>
<path d="M88.1 200C88 200.1 87.9 200.2 87.8 200.3C87.7 200.4 87.6 200.5 87.5 200.6C87.3 200.8 87.1 201 86.9 201.2C86.5 201.6 86 201.9 85.5 202.2C85.4 202.3 85.5 202.4 85.6 202.3C86.2 202 86.7 201.7 87.2 201.3C87.4 201.1 87.7 200.9 87.9 200.7C88 200.6 88.1 200.5 88.2 200.4C88.3 200.3 88.4 200.2 88.5 200.1C88.4 200 88.3 199.9 88.1 200Z" fill="#5E871D"/>
<path d="M82.3 196.4C82.2 196.3 82.1 196.5 82.2 196.5C82.7 197 83.3 197.4 83.8 197.9C84 198.2 84.3 198.4 84.5 198.7C84.7 199 84.9 199.3 85.2 199.5C85.3 199.6 85.6 199.4 85.5 199.3C85.3 199 85.1 198.7 84.8 198.5C84.6 198.2 84.3 198 84.1 197.7C83.5 197.3 82.9 196.8 82.3 196.4Z" fill="#5E871D"/>
<path d="M83.1 199.1C82.9 199.3 82.7 199.6 82.5 199.9C82.3 200.1 82.1 200.4 81.9 200.6C81.7 200.9 81.4 201.1 81.2 201.4C80.9 201.7 80.6 202 80.3 202.2C80.2 202.3 80.3 202.4 80.4 202.3C80.7 202.1 81 201.9 81.3 201.6C81.6 201.4 81.8 201.1 82 200.9C82.2 200.7 82.5 200.4 82.7 200.1C82.9 199.8 83.2 199.5 83.3 199.2C83.5 199 83.2 198.9 83.1 199.1Z" fill="#5E871D"/>
<path d="M77.6 195C78.6 196 79.4 197.2 80.1 198.4C80.2 198.6 80.6 198.4 80.5 198.2C79.8 196.9 78.9 195.8 77.8 194.8C77.6 194.8 77.5 194.9 77.6 195Z" fill="#5E871D"/>
<path d="M78.2 198C78 198.1 77.9 198.3 77.7 198.5C77.6 198.7 77.4 198.8 77.3 199C77 199.3 76.7 199.6 76.3 199.9C75.6 200.5 74.9 201 74.2 201.5C74.1 201.6 74.2 201.7 74.3 201.6C75.1 201.1 75.9 200.6 76.6 200C77 199.7 77.3 199.4 77.6 199.1C77.9 198.8 78.3 198.5 78.4 198.1C78.6 198 78.4 197.9 78.2 198Z" fill="#5E871D"/>
<path d="M71.8 194.3C71.7 194.2 71.6 194.4 71.7 194.4C72.3 194.9 72.9 195.3 73.4 195.8C73.9 196.3 74.4 196.9 74.8 197.5C74.9 197.7 75.2 197.5 75.1 197.3C74.7 196.7 74.2 196.1 73.6 195.6C73.1 195.2 72.5 194.7 71.8 194.3Z" fill="#5E871D"/>
<path d="M72.8 197.4C72.3 197.8 71.8 198.3 71.4 198.7C70.9 199.1 70.4 199.6 69.9 200C69.8 200.1 69.9 200.2 70 200.1C70.5 199.7 71 199.3 71.5 198.9C72 198.5 72.5 198.1 73 197.6C73.2 197.4 73 197.2 72.8 197.4Z" fill="#5E871D"/>
<path d="M67.2 194.4C67.1 194.3 67 194.5 67.1 194.5C67.5 194.9 68 195.2 68.4 195.6C68.6 195.8 68.8 196 69 196.2C69.2 196.4 69.4 196.6 69.6 196.8C69.7 196.9 70 196.8 69.9 196.6C69.8 196.4 69.5 196.2 69.4 196C69.2 195.8 69 195.6 68.8 195.4C68.1 195.1 67.7 194.7 67.2 194.4Z" fill="#5E871D"/>
<path d="M68.6 196.6C67.7 197.4 66.8 198.1 65.8 198.7C65.7 198.8 65.8 198.9 65.9 198.9C67 198.3 67.9 197.6 68.8 196.8C68.9 196.6 68.7 196.4 68.6 196.6Z" fill="#5E871D"/>
<path d="M94 194.5L92.9 194.3H92.6H92.3L91.5 194.2C91.5 194.2 85.5 188.7 81.4 180.1C76.5 169.8 77.6 162 77.6 162C93 173.8 94 194.5 94 194.5Z" fill="#B2E069"/>
<path d="M94 194.5L92.6 194.3C89.1 184.7 77.6 161.9 77.6 161.9C93 173.8 94 194.5 94 194.5Z" fill="#8BC53F"/>
<path d="M92.8 194.301H92.5H92.2C91.2 191.401 88.9 186.301 88.8 186.001C88.7 185.601 88.5 185.301 88.4 184.901C88.1 184.201 84.9 177.001 83.5 174.201C82.8 172.701 82.1 171.301 81.4 169.801C81.2 169.401 79.3 165.501 79.1 165.101C79.2 165.201 82.1 170.001 82.5 170.701C83.3 172.101 83.9 173.601 84.6 175.001C86.1 178.101 87.4 180.701 88.6 183.601C88.9 184.301 89.2 185.101 89.4 185.801C89.5 186.001 91.6 190.601 92.8 194.301Z" fill="#5E871D"/>
<path d="M91.6 185.9C91.5 186.7 91.4 187.5 91.3 188.4C91.3 189.2 91.2 190.1 91.2 190.9C91.2 191 91.4 191.1 91.4 191C91.6 190.2 91.6 189.3 91.6 188.5C91.6 187.7 91.6 186.8 91.6 186C91.8 185.8 91.6 185.8 91.6 185.9Z" fill="#5E871D"/>
<path d="M90.5 188.8C90.4 188.7 90.2 188.7 90.1 188.7C90 188.7 89.8 188.6 89.7 188.6C89.4 188.5 89.1 188.5 88.9 188.4C88.3 188.2 87.8 188 87.3 187.8C87.2 187.8 87.1 187.9 87.2 187.9C87.7 188.2 88.3 188.5 88.9 188.7C89.2 188.8 89.5 188.9 89.8 188.9C89.9 188.9 90.1 189 90.2 189C90.3 189 90.5 189.1 90.6 189C90.6 189.1 90.6 188.9 90.5 188.8Z" fill="#5E871D"/>
<path d="M90.1 182.1C90.1 182 89.9 182 89.9 182.1C89.8 182.8 89.7 183.5 89.6 184.2C89.5 184.5 89.5 184.9 89.4 185.2C89.3 185.5 89.2 185.9 89.1 186.2C89.1 186.4 89.4 186.5 89.4 186.3C89.6 186 89.6 185.6 89.7 185.3C89.8 185 89.9 184.6 89.9 184.3C90.1 183.5 90.2 182.8 90.1 182.1Z" fill="#5E871D"/>
<path d="M88.4 184.201C88.1 184.201 87.7 184.201 87.4 184.201C87.1 184.201 86.8 184.201 86.5 184.101C86.2 184.101 85.8 184.001 85.5 183.901C85.1 183.801 84.7 183.701 84.3 183.601C84.2 183.601 84.2 183.701 84.3 183.801C84.7 183.901 85 184.101 85.4 184.101C85.7 184.201 86.1 184.201 86.4 184.301C86.7 184.401 87.1 184.401 87.4 184.401C87.8 184.401 88.2 184.501 88.5 184.401C88.6 184.501 88.6 184.201 88.4 184.201Z" fill="#5E871D"/>
<path d="M88.7 177.301C88.4 178.701 87.9 180.001 87.2 181.301C87.1 181.501 87.5 181.701 87.6 181.501C88.3 180.201 88.7 178.801 88.9 177.401C88.9 177.201 88.7 177.201 88.7 177.301Z" fill="#5E871D"/>
<path d="M86.6 179.601C86.4 179.501 86.2 179.501 86 179.501C85.8 179.501 85.6 179.401 85.4 179.401C85 179.301 84.5 179.201 84.1 179.101C83.3 178.901 82.4 178.601 81.6 178.201C81.5 178.101 81.4 178.301 81.5 178.401C82.3 178.801 83.2 179.201 84.1 179.401C84.5 179.501 85 179.601 85.4 179.701C85.8 179.801 86.3 179.901 86.7 179.801C86.7 179.801 86.7 179.601 86.6 179.601Z" fill="#5E871D"/>
<path d="M86 172.1C86 172 85.8 171.9 85.8 172.1C85.7 172.8 85.7 173.6 85.5 174.3C85.4 175 85.2 175.7 84.9 176.4C84.8 176.6 85.2 176.8 85.2 176.6C85.5 175.9 85.7 175.2 85.8 174.4C86 173.7 86 172.9 86 172.1Z" fill="#5E871D"/>
<path d="M84 174.7C83.4 174.5 82.8 174.4 82.1 174.2C81.5 174 80.8 173.9 80.2 173.7C80.1 173.7 80.1 173.8 80.2 173.9C80.8 174.1 81.4 174.3 82.1 174.4C82.7 174.6 83.4 174.8 84 174.9C84.2 175.1 84.3 174.8 84 174.7Z" fill="#5E871D"/>
<path d="M83.3 168.401C83.3 168.301 83.1 168.201 83.1 168.401C83 169.001 83 169.501 82.9 170.101C82.9 170.401 82.8 170.701 82.8 170.901C82.7 171.201 82.7 171.401 82.6 171.701C82.6 171.901 82.8 172.001 82.9 171.801C83 171.601 83.1 171.301 83.1 171.001C83.2 170.701 83.2 170.401 83.2 170.101C83.3 169.601 83.3 169.001 83.3 168.401Z" fill="#5E871D"/>
<path d="M82.3 170.801C81.2 170.501 80.1 170.101 79 169.701C78.9 169.601 78.8 169.801 78.9 169.901C80 170.501 81.1 170.901 82.3 171.101C82.5 171.101 82.5 170.801 82.3 170.801Z" fill="#5E871D"/>
<path d="M97 201.1L95.2 201.6L94.8 201.7L94.3 201.8L93 202.1C93 202.1 80.5 197.6 69 187.3C55.1 175 51.9 162.6 51.9 162.6C82.5 170.7 97 201.1 97 201.1Z" fill="#B2E069"/>
<path d="M97 201.1L94.8 201.7C83.5 189.6 51.9 162.7 51.9 162.7C82.5 170.7 97 201.1 97 201.1Z" fill="#8BC53F"/>
<path d="M95.3 201.5L94.9 201.6L94.4 201.7C91 198 84.4 191.8 84 191.4C83.6 191 83.1 190.5 82.7 190.1C81.8 189.2 72.5 180.5 68.6 177.2C66.6 175.5 64.7 173.7 62.6 172C62.1 171.6 56.7 166.9 56.2 166.5C56.4 166.7 63.8 171.8 64.8 172.7C66.8 174.3 68.7 176.1 70.6 177.8C74.7 181.5 78.4 184.5 82 188.1C82.9 189 83.8 189.9 84.6 190.8C85 191.3 91 196.9 95.3 201.5Z" fill="#5E871D"/>
<path d="M88.1 189.8C88.5 191.1 88.8 192.4 89.3 193.7C89.7 195 90.1 196.3 90.8 197.5C90.9 197.7 91.2 197.6 91.2 197.4C90.9 196.1 90.4 194.8 90 193.5C89.5 192.2 89 191 88.5 189.7C88.3 189.5 88 189.6 88.1 189.8Z" fill="#5E871D"/>
<path d="M88.3 194.9C88.1 194.9 87.8 195 87.6 195C87.4 195.1 87.1 195.1 86.9 195.1C86.4 195.2 86 195.3 85.5 195.3C84.6 195.4 83.6 195.5 82.7 195.4C82.5 195.4 82.5 195.6 82.7 195.6C83.7 195.7 84.7 195.8 85.7 195.7C86.2 195.7 86.7 195.6 87.1 195.5C87.3 195.5 87.6 195.4 87.8 195.4C88 195.4 88.3 195.3 88.4 195.2C88.6 195.2 88.5 194.9 88.3 194.9Z" fill="#5E871D"/>
<path d="M83.5 184.9C83.4 184.8 83.2 184.8 83.2 185C83.5 186.1 83.8 187.2 84.1 188.3C84.2 188.9 84.3 189.4 84.4 190C84.5 190.6 84.5 191.1 84.6 191.7C84.7 192 85.2 192 85.2 191.7C85.2 191.1 85.1 190.6 85 190C84.9 189.4 84.8 188.9 84.7 188.3C84.4 187.2 84 186 83.5 184.9Z" fill="#5E871D"/>
<path d="M82.2 189.2C81.7 189.3 81.2 189.6 80.7 189.8C80.2 190 79.8 190.1 79.3 190.3C78.8 190.5 78.2 190.6 77.6 190.7C77 190.8 76.3 191 75.7 191C75.5 191 75.6 191.3 75.8 191.3C76.4 191.3 77 191.2 77.6 191.1C78.2 191 78.7 190.9 79.2 190.8C79.7 190.7 80.3 190.5 80.8 190.4C81.4 190.2 82 190 82.4 189.7C82.8 189.6 82.5 189.2 82.2 189.2Z" fill="#5E871D"/>
<path d="M78.3 178.8C78.7 181.1 78.8 183.4 78.6 185.7C78.6 186.1 79.2 186.1 79.3 185.7C79.5 183.4 79.2 181.1 78.6 178.8C78.5 178.5 78.3 178.6 78.3 178.8Z" fill="#5E871D"/>
<path d="M76.6 183.5C76.2 183.5 75.9 183.6 75.6 183.7C75.3 183.8 74.9 183.9 74.6 183.9C73.9 184.1 73.2 184.2 72.5 184.3C71.1 184.5 69.7 184.6 68.2 184.6C68 184.6 68 184.9 68.2 184.9C69.7 185 71.2 185 72.7 184.8C73.4 184.7 74.1 184.6 74.9 184.5C75.6 184.4 76.3 184.2 76.9 183.9C77 183.8 76.8 183.5 76.6 183.5Z" fill="#5E871D"/>
<path d="M71 172.8C70.9 172.6 70.6 172.7 70.7 172.9C71.1 174 71.4 175.2 71.7 176.4C72 177.6 72.1 178.8 72.2 180C72.2 180.3 72.8 180.4 72.8 180C72.8 178.8 72.6 177.6 72.3 176.4C72 175.1 71.6 173.9 71 172.8Z" fill="#5E871D"/>
<path d="M69.7 177.8C68.7 177.9 67.6 178.1 66.6 178.3C65.5 178.4 64.5 178.6 63.5 178.8C63.3 178.8 63.4 179.1 63.6 179.1C64.7 179 65.7 178.9 66.8 178.7C67.8 178.6 68.9 178.5 69.9 178.3C70.2 178.2 70.1 177.8 69.7 177.8Z" fill="#5E871D"/>
<path d="M64.6 168.8C64.5 168.6 64.2 168.7 64.3 168.9C64.6 169.8 64.8 170.7 65 171.5C65.1 171.9 65.2 172.4 65.3 172.8C65.4 173.2 65.4 173.7 65.6 174.1C65.7 174.3 66.1 174.4 66.1 174.1C66.1 173.7 66 173.2 65.9 172.8C65.8 172.3 65.7 171.9 65.6 171.4C65.4 170.6 65 169.7 64.6 168.8Z" fill="#5E871D"/>
<path d="M64.7 173C62.8 173.3 60.9 173.4 59 173.4C58.7 173.4 58.8 173.7 59 173.7C60.9 173.9 62.9 173.7 64.8 173.4C65.1 173.4 65 172.9 64.7 173Z" fill="#5E871D"/>
<path d="M63.4 75.3002C60 75.0002 39.1 86.5002 39.3 87.7002C39.5 88.9002 42.3 88.4002 43.4 88.2002C44.6 88.0002 53.1 84.9002 53.1 84.9002C53.1 84.9002 55.3 91.6002 58.8 90.3002C60 92.4002 62.3 92.1002 62.3 92.1002C62.3 92.1002 63.5 94.2002 65.3 94.1002C67.1 94.0002 67.2 93.3002 67.2 93.3002C67.2 93.3002 72.2 96.5002 74.9 98.9002C78.7 117.7 87.5 138.4 89.7 141.7C91.8 145 96.6 150.9 99.7 150.6C102.9 150.3 109.9 150.8 111.9 143.8C113.9 136.8 103.3 125.4 102.7 124.3C102.1 123.2 87.6 98.5002 84.1 92.4002C80.6 86.2002 67.1 75.6002 63.4 75.3002Z" fill="#EEA77F"/>
<path d="M16.1 86.8004L17.6 83.4004L59.1 99.3004L57.3 105.3L16.1 86.8004Z" fill="#32191C"/>
<path d="M168.2 202.6C168.2 202.6 134.2 202.6 89.9 202.6C90.1 196.3 91 188.1 92.3 179.1C92.9 175 93.6 170.7 94.3 166.4C94.9 162.6 95.6 158.9 96.3 155.1C96.9 151.7 97.6 148.3 98.2 145C101.4 128.3 104.5 113.9 105.5 108.9C107.5 97.9001 112.5 96.6001 112.7 93.8001L120.4 77.3001C120.4 77.3001 128.6 72.0001 148.3 69.1001C157.2 78.7001 168.2 107.6 168.7 121.1C169 134.6 168.2 202.6 168.2 202.6Z" fill="#29666E"/>
<path d="M99.6 147.1C88.1 155.3 84.8 162.1 84.4 162.1C84 162.1 80.2 156.5 74.9 148.9C71.6 144.2 66.8 134.5 63.1 127.8C62.5 126.7 61.9 125.7 61.4 124.8C60.3 123 59.5 121.6 58.9 121C56.1 118.2 47.5 112.6 45.2 110.4C44.2 109.5 43.4 108.4 42.7 107.4C41.8 106.1 41.3 105.1 41.3 105.1C41.3 105.1 36.7 102.1 35.6 99.5003C35.5 99.2003 35.5 98.9003 35.4 98.6003C31.2 96.0003 29 93.8003 30.6 93.5003C31.7 93.3003 42.9 97.7003 45.9 98.5003C48.9 99.3003 57.9 101.9 58.1 101.4C58.3 100.9 57.4 99.7003 56.7 98.9003C56 98.1003 52.9 97.7003 51.4 97.0003C49.8 96.3003 47.6 95.5003 48.3 93.8003C51 93.7003 58.4 94.8003 61 95.6003C63.6 96.4003 64.3 97.4003 65.4 100.3C66.6 103.3 66.2 107.7 67.7 109.9C68.1 110.4 69.8 112.6 72.4 115.7C73 116.5 73.7 117.3 74.4 118.1C82.6 128 95.7 143.3 99.6 147.1Z" fill="#FBC09A"/>
<path d="M129.4 139.3C129 141.7 115.9 158.2 115.5 158.8C115.1 159.3 98.7 161.7 98 161.8C97.6 161.9 96.9 158.3 96.3 155.2C96.9 151.8 97.6 148.4 98.2 145.1C102 145.2 113.3 119.2 116.6 112C121.2 102.3 125.6 99.2002 125.6 99.2002C125.6 99.2002 129.8 136.9 129.4 139.3Z" fill="#1B555A"/>
<path d="M154.3 116.7C152.6 131 133.4 173.8 128.4 180.6C123.3 187.3 119.5 192.4 113.4 191.3C107.8 190.3 100.7 188.9 92.3 179C92.9 174.9 93.6 170.6 94.3 166.3C98.2 163.4 103.3 163.6 103.3 163.6C103.3 163.6 138.1 121.4 138.1 120.8C138.1 120.2 151.2 97.6001 151.2 97.6001C151.2 97.6001 156 102.4 154.3 116.7Z" fill="#1B555A"/>
<path d="M162.3 118C161.9 118.9 161.3 119.8 160.8 120.7C160.3 121.6 159.7 122.6 159.1 123.4C157.9 125.2 156.5 126.8 155.1 128.4C152.3 131.5 149.1 134.2 145.5 136.3C144.5 136.9 143.4 137.4 142.4 138C141.3 138.5 140 139 139.3 140.1C139.2 140.3 139.2 140.7 139.5 140.8C140.8 141.3 142 140.7 143.2 140.2C144.2 139.8 145.1 139.2 146.1 138.7C148 137.6 149.8 136.3 151.5 134.9C154.8 132.1 157.6 128.7 159.7 124.9C160.3 123.8 160.8 122.7 161.3 121.6C161.5 121 161.8 120.5 162 119.9C162.1 119.3 162.1 118.7 162.3 118Z" fill="#1B555A"/>
<path d="M119.2 97.3003C118.9 97.7003 118.5 98.1003 118.2 98.5003C117.9 99.0003 117.6 99.5003 117.3 100C116.7 101 116.1 102 115.7 103.1C114.8 105.2 114.1 107.4 113.5 109.6C113 111.9 112.5 114.1 112.3 116.4C112.1 118.7 112.3 121.1 112.6 123.4C112.8 124.7 113 125.9 113.3 127.2C113.6 128.2 113.9 129.8 115.2 129.9C115.3 129.9 115.3 129.9 115.4 129.8C116.1 129.4 116 128.3 115.8 127.6C115.7 127.1 115.5 126.5 115.4 126C115.2 125 115 123.9 114.8 122.9C114.5 120.8 114.4 118.8 114.4 116.7C114.4 114.6 114.5 112.5 114.8 110.4C115.1 108.3 115.7 106.3 116.4 104.3C116.8 103.1 117.2 101.9 117.8 100.7C118 100.2 118.3 99.7003 118.5 99.1003C118.9 98.6003 119 97.9003 119.2 97.3003C119.4 97.3003 119.3 97.2003 119.2 97.3003Z" fill="#1B555A"/>
<path d="M121.6 76.5C121.6 76.5 122.1 74.3 119.6 70.5C119.5 70.4 119.4 70.2 119.3 70.1C116.8 66.7 113.4 66.8 113.4 66.8L114.4 55L118.8 47C118.8 47 122.7 47.7 127.1 49C132.5 50.5 138.7 52.8 140.2 55.6C142.8 60.7 144.2 64.2 144.5 64.2C144.8 64.2 121.6 76.5 121.6 76.5Z" fill="#FBC09A"/>
<path d="M124.7 65.0004C123.3 67.0004 121.2 68.7004 119.3 70.0004C116.8 66.6004 113.4 66.7004 113.4 66.7004L114.4 54.9004L118.8 46.9004C118.8 46.9004 122.7 47.6004 127.1 48.9004C127.3 53.5004 127 61.9004 124.7 65.0004Z" fill="#F37E57"/>
<path d="M124.4 51.5002C124.4 51.5002 129.3 58.9002 130.6 59.0002C132 59.1002 130.5 56.5002 130.5 56.5002C130.5 56.5002 136 60.0002 136 59.0002C136 58.0002 134.2 56.5002 134.2 56.5002C134.2 56.5002 138.4 57.3002 140.7 57.0002C139.5 48.6002 140.1 43.1002 140.4 38.6002C141 30.7002 142.2 24.4002 137.1 20.5002C132.3 16.9002 131.3 16.9002 124.4 15.4002C117.2 14.0002 101.5 15.3002 95.7 21.4002C93.1 24.2002 92.6 28.2002 94.4 30.6002C91.8 34.8002 96.4 37.7002 97.5 39.3002C98.6 40.9002 99.3 43.5002 99.5 43.4002C99.7 43.5002 124.4 51.5002 124.4 51.5002Z" fill="#32191C"/>
<path d="M95.5 32.8003C95.5 32.8003 94.5 34.9003 95.4 38.3003C96.3 41.7003 97.3 43.0003 97.4 46.5003C97.5 50.0003 93.4 54.0003 93.9 55.3003C94.4 56.6003 97.8 57.3003 97.8 57.3003C97.8 57.3003 103.8 68.8003 106.5 69.5003C109.2 70.2003 113.8 68.9003 115.9 67.8003C118 66.6003 121.7 61.7003 122.9 59.6003C124.1 57.5003 125.7 51.7003 125.7 51.7003C125.7 51.7003 123.3 44.4003 121.8 43.5003C117.5 44.4003 115.6 39.6003 115.6 39.6003C115.6 39.6003 109.8 39.4003 105.1 38.8003C100.5 38.1003 96.7 35.2003 95.5 32.8003Z" fill="#FBC09A"/>
<path d="M104.8 45.3002C104.8 45.3002 103.7 44.8002 102.3 44.8002C100.9 44.9002 99.3 45.9002 99.3 45.9002C99.3 45.9002 99.8 43.7002 102.3 43.7002C104.2 43.7002 104.8 45.3002 104.8 45.3002Z" fill="#32191C"/>
<path d="M98 40.5001C98 40.5001 98.9 41.4001 100.2 41.3001C101.5 41.2001 105.3 41.1001 106.6 41.7001C105 40.0001 103.7 39.6001 102.3 39.5001C100.9 39.4001 98 40.5001 98 40.5001Z" fill="#32191C"/>
<path d="M102.2 47.5003C103.084 47.5003 103.8 46.784 103.8 45.9003C103.8 45.0166 103.084 44.3003 102.2 44.3003C101.316 44.3003 100.6 45.0166 100.6 45.9003C100.6 46.784 101.316 47.5003 102.2 47.5003Z" fill="#32191C"/>
<path d="M102.3 59.4001C102.3 59.4001 103.6 60.4001 106 59.5001C108.6 58.6001 108.5 55.6001 108.5 55.6001C108.5 55.6001 105.8 58.5001 102.3 59.4001Z" fill="#F37E57"/>
<path d="M96.8 55.6004C96.8 55.6004 97.8 54.9004 99.6 54.7004C99 53.8004 96.9 54.3004 96.8 55.6004Z" fill="#F37E57"/>
<path d="M121.6 46.9004C121.6 46.9004 121.6 36.7004 125 36.5004C128.3 36.2004 131.3 39.8004 130.8 44.0004C130.3 48.2004 127.8 52.3004 125 52.1004C121.8 51.8004 121.6 46.9004 121.6 46.9004Z" fill="#FBC09A"/>
<path d="M129.3 41.1001C129 40.3001 128.6 39.6001 128 39.0001C127.7 38.7001 127.2 38.3001 126.8 38.2001C126.3 38.0001 125.7 38.1001 125.3 38.5001C124.9 38.8001 124.6 39.2001 124.5 39.7001C124.3 40.2001 124.2 40.7001 124.1 41.2001C123.9 42.2001 123.8 43.3001 124.2 44.2001C124.4 44.7001 124.7 45.0001 125.1 45.3001C125.3 45.4001 125.5 45.6001 125.6 45.7001C125.7 45.8001 125.8 45.9001 125.8 46.0001V46.1001V46.2001V46.3001C125.8 46.3001 125.8 46.3001 125.8 46.4001C125.8 46.5001 125.8 46.5001 125.7 46.6001C125.6 46.7001 125.4 46.9001 125.3 46.9001C124.9 47.1001 124.4 47.3001 124.1 47.6001C123.8 47.9001 123.5 48.5001 123.8 48.9001C123.9 49.1001 124.1 49.2001 124.3 49.3001H124.4C124.5 49.3001 124.6 49.3001 124.7 49.3001C125.1 49.3001 125.5 49.2001 125.9 49.0001C126.3 48.8001 126.6 48.6001 126.9 48.2001C127 48.0001 127.1 47.9001 127.2 47.7001C127.2 47.6001 127.1 47.6001 127.1 47.6001C126.6 48.2001 126 48.7001 125.2 48.9001C125 48.9001 124.9 49.0001 124.7 48.9001C124.6 48.9001 124.5 48.9001 124.5 48.8001C124.4 48.8001 124.4 48.7001 124.4 48.6001C124.4 48.4001 124.4 48.3001 124.5 48.1001C124.5 48.1001 124.5 48.1001 124.5 48.0001C124.5 48.0001 124.5 47.9001 124.6 47.9001C124.6 47.9001 124.7 47.9001 124.7 47.8001C124.7 47.8001 124.8 47.7001 124.9 47.7001C125.2 47.5001 125.6 47.4001 126 47.1001C126.4 46.9001 126.7 46.5001 126.7 46.0001C126.7 45.5001 126.5 45.1001 126.2 44.8001C125.9 44.5001 125.5 44.3001 125.3 43.9001L125.2 43.8001C125.1 43.7001 125.1 43.6001 125.1 43.5001C125 43.3001 125 43.2001 124.9 43.0001C124.8 42.6001 124.8 42.2001 124.9 41.8001C125 41.3001 125.1 40.9001 125.2 40.4001C125.3 40.0001 125.4 39.6001 125.6 39.2001C125.7 39.0001 125.8 38.9001 125.9 38.8001L126 38.7001H126.1C126.1 38.7001 126.2 38.7001 126.2 38.6001C126.2 38.6001 126.2 38.6001 126.3 38.6001C126.4 38.6001 126.4 38.6001 126.5 38.6001C126.6 38.6001 126.6 38.6001 126.7 38.6001C126.9 38.7001 127 38.7001 127.2 38.9001C127.8 39.3001 128.3 40.0001 128.6 40.6001C129 41.3001 129.2 42.0001 129.3 42.8001C129.4 43.6001 129.3 44.3001 129.2 45.0001C129.2 45.2001 129.1 45.4001 129 45.6001C129 45.6001 129 45.7001 129.1 45.6001C129.3 45.2001 129.4 44.9001 129.5 44.5001C129.6 44.1001 129.7 43.7001 129.7 43.3001C129.6 42.7001 129.5 41.9001 129.3 41.1001Z" fill="#F37E57"/>
<path d="M127.5 44.4003C127.5 44.2003 127.4 44.0003 127.4 43.8003C127.3 43.4003 127.1 42.9003 126.8 42.6003C126.6 42.2003 126.3 41.9003 125.9 41.6003C125.5 41.3003 125.1 41.0003 124.7 40.9003C124.3 40.8003 124.1 41.5003 124.4 41.7003C124.5 41.7003 124.5 41.8003 124.6 41.8003C124.7 41.8003 124.8 41.9003 124.9 41.9003C124.9 41.9003 125 42.0003 125 41.9003C125.1 41.9003 125.1 42.0003 125.2 42.0003H125.3L125.4 42.1003C125.7 42.3003 126 42.6003 126.3 42.8003C126.6 43.1003 126.8 43.4003 127 43.8003C127.1 44.0003 127.2 44.2003 127.2 44.4003C127.3 44.6003 127.4 44.8003 127.4 45.0003C127.4 45.1003 127.5 45.1003 127.5 45.0003C127.5 44.8003 127.5 44.6003 127.5 44.4003Z" fill="#F37E57"/>
<path d="M112.6 93.9C112.6 93.9 116.2 88.2 120 87C123.4 85.9 121.6 78.9 121.9 77.8C126.6 82.4 129.9 85.1 129.9 85.1C129.9 85.1 148.6 69.3 148.1 69.2C147.6 69.1 144.3 62 144.3 62C144.3 62 119 75.1 118.6 76.4C118.2 77.7 119.1 80.9 117.6 83.2C117.3 83.8 111.4 87.8 112.6 93.9Z" fill="#3A8084"/>
<path d="M90.3 173.1C90.3 173.1 103.1 187.3 111.4 186.5C119.7 185.7 126.8 176.2 130.5 168.7C134.2 161.2 151 122.1 152.6 114.4C154.2 106.7 154.6 90.3 142.5 91.1C130.5 91.9 124.9 98.4 122.4 102.9C119.9 107.4 102.7 148.1 102.7 148.1C102.7 148.1 91.8 152.4 90.5 156.4C89.1 160.5 85.7 167.6 90.3 173.1Z" fill="#29666E"/>
<path d="M114.4 176.2C114.2 176 114 175.8 113.9 175.7C113.3 175.2 112.7 174.7 112.1 174.2C110.9 173.2 109.8 172 108.8 170.8C106.7 168.3 105 165.6 103.9 162.5C103.1 160.4 102.8 158.1 102.4 155.9C102.2 154.6 102.1 153.3 102.2 152C102.3 150.7 102.5 149.4 102.4 148.1C102.4 148 102.2 148 102.2 148.1C101.5 149 101.3 150.2 101.1 151.3C100.9 152.5 100.8 153.7 100.7 154.9C100.6 157.3 100.9 159.7 101.7 162.1C103 166.2 105.3 170 108.4 173.1C108.9 173.6 109.4 174 109.9 174.4C108.8 173.9 107.9 173.3 106.9 172.6C104.6 170.8 102.8 168.5 101.4 166C101.3 165.9 101.1 165.9 101.2 166.1C101.6 167.6 102.2 168.9 103.2 170.2C104.1 171.4 105.2 172.6 106.4 173.5C107.6 174.5 109 175.5 110.4 176.1C112 176.8 114.1 176.9 115.9 176.8C115.3 177 114.8 176.6 114.4 176.2Z" fill="#1B555A"/>
<path d="M101.4 147.1C100.4 147.6 99.5 148.4 98.7 149.1C97.9 149.9 97.2 150.7 96.5 151.5C95.1 153.3 94.1 155.3 93.4 157.5C92.7 159.9 92.4 162.4 92.7 164.9C92.8 165.9 92.9 167.3 93.5 168.2C94.2 169.3 95.4 169 96.1 168.1C97.7 166.2 99.2 164.1 99.4 161.5C99.4 161.4 99.3 161.4 99.3 161.5C98.5 163.2 97.7 165 96.4 166.5C96.1 166.8 95.7 167.3 95.3 167.4C94.8 167.6 94.7 167.2 94.6 166.8C94.4 165.8 94.3 164.8 94.3 163.8C94.2 159.9 95.4 156 97.7 152.8C98.3 152 99 151.2 99.7 150.4C100.5 149.7 101.3 149.1 102.1 148.4C102.7 147.9 102.2 146.7 101.4 147.1Z" fill="#1B555A"/>
<path d="M118.9 150.3C118.8 149.3 117.9 148.8 117.1 148.5C115 147.8 112.8 147.3 110.6 146.9C108.5 146.6 106.3 146.4 104.1 146.4C103.2 146.4 101.5 146.2 101.1 147.3C100.9 147.9 101.3 148.5 101.9 148.6C102.2 148.6 102.4 148.7 102.7 148.7C103 148.7 103.3 148.7 103.6 148.7C107.9 148.6 112.1 149.1 116.2 150.1C116.4 150.2 117.4 150.2 117.5 150.6C117.7 151.1 116.9 151.4 116.6 151.5C115.5 152 114.4 152.2 113.3 152.4C112.2 152.6 111 152.6 109.8 152.6C109.2 152.6 108.7 152.5 108.1 152.4C107.5 152.3 106.9 152.4 106.4 152.2C106.4 152.2 106.3 152.3 106.4 152.3C106.8 152.4 107.1 152.7 107.6 152.8C108.1 152.9 108.5 153 109 153.1C110 153.3 111 153.3 112 153.3C112.9 153.3 113.9 153.1 114.8 152.9C115.7 152.7 116.7 152.5 117.5 152.1C118.3 151.7 118.9 151.1 118.9 150.3Z" fill="#1B555A"/>
<path d="M102.2 147.3C102.2 147.3 102.1 149 101.8 150.6C101.8 150.8 94.1 156.8 92.6 161.2C91.1 165.6 91.7 173.7 92.9 175.6C88.7 175.6 87.8 174.5 86 172.9C84.2 171.4 84.4 167.2 84.4 167.2C84.4 167.2 83.7 167.3 82.9 167C82.4 166.8 81.8 166.4 81.2 165.7C79.9 163.9 79.7 160.5 80 159.5C80.3 158.4 87.1 150.9 89.9 148.4C94.3 144.6 97.3 143.9 99.7 144.3C102.1 144.8 102.2 147.3 102.2 147.3Z" fill="#3A8084"/>
<path d="M89.4 155.1C84.9 160.1 84.4 167.3 84.4 167.3C84.4 167.3 83.7 167.4 82.9 167.1C82.9 165 83 162.2 83.3 161.3C83.8 159.6 85.4 157.4 89.4 155.1Z" fill="#1B555A"/>
<path d="M89.8 158.6C89.8 158.6 91 154.3 93.9 151.5C96.8 148.6 101.4 148.6 101.2 148.6C101 148.5 92.6 153.4 89.8 158.6Z" fill="#1B555A"/>
<path d="M48.1 103.3C48.1 103.3 44 103.3 41.3 102.3C39.3 101.6 36.8 100.2 35.6 99.4C35.5 99.1 35.5 98.8 35.4 98.5C35.4 98.5 38.3 99.7 41.3 100.8C44.4 102.1 48.1 103.3 48.1 103.3Z" fill="#F37E57"/>
<path d="M48.9 109.3C46 108.8 44 108 42.6 107.4C41.7 106.1 41.2 105.1 41.2 105.1C41.3 105.1 47.9 108.8 48.9 109.3Z" fill="#F37E57"/>
<path d="M74.8 85.3003C73.9 85.2003 73.1 85.0003 72.2 84.9003C71.4 84.8003 70.6 84.7003 69.8 84.6003C68.2 84.3003 66.6 84.0003 65 83.6003C63.4 83.2003 61.8 82.8003 60.3 82.3003C58.8 81.8003 57.4 81.2003 55.9 80.9003C54.7 80.7003 52.9 80.4003 51.9 81.2003C51.5 81.6003 51.4 82.1003 51.6 82.6003C51.9 83.2003 52.6 83.5003 53.1 83.8003C56 85.5003 58.9 87.3003 61.8 89.0003C63.2 89.8003 64.7 90.7003 66.2 91.4003C67.7 92.0003 69.2 92.5003 70.9 92.2003C71.1 92.2003 71.1 91.9003 70.9 91.9003C69.6 91.4003 68.4 91.0003 67.1 90.5003C65.9 90.0003 64.7 89.4003 63.5 88.7003C60.9 87.2003 58.3 85.7003 55.8 84.2003C55.2 83.8003 54.5 83.5003 53.9 83.1003C53.6 82.9003 53.3 82.8003 53 82.6003C52.7 82.4003 52.2 82.2003 52.7 81.9003C53.2 81.6003 54.1 81.7003 54.6 81.9003C55.3 82.1003 56 82.4003 56.7 82.6003C59.4 83.6003 62.1 84.5003 65 85.1003C66.5 85.4003 68.1 85.6003 69.7 85.7003C70.5 85.8003 71.4 85.8003 72.2 85.9003C73.1 85.9003 73.9 85.8003 74.8 85.7003C75 85.6003 74.9 85.4003 74.8 85.3003Z" fill="#F37E57"/>
<path d="M61.6 88C61 88.3 60.5 88.9 59.9 89.3C59.3 89.6 58.6 89.9 58 90.1C57.9 90.2 57.9 90.4 58.1 90.4C58.9 90.4 59.6 90.2 60.3 89.8C60.9 89.5 61.7 89 62 88.3C62.1 88.1 61.9 87.8 61.6 88Z" fill="#F37E57"/>
<path d="M65.2 90.3001C64.6 90.6001 64 91.0001 63.3 91.2001C62.7 91.4001 62 91.5001 61.3 91.6001C61.1 91.6001 61.1 91.9001 61.3 91.9001C62.7 92.1001 64.4 91.7001 65.5 90.7001C65.7 90.5001 65.4 90.1001 65.2 90.3001Z" fill="#F37E57"/>
<path d="M68.5 91.5002C68 92.3002 67.4 93.0002 66.6 93.4002C66.5 93.4002 66.6 93.5002 66.6 93.5002C67.6 93.2002 68.4 92.6002 68.8 91.7002C68.9 91.5002 68.6 91.4002 68.5 91.5002Z" fill="#F37E57"/>
<path d="M54.1 83.7002C51.6 84.6002 49.1 85.7002 46.6 86.8002C45.4 87.3002 44.2 88.0002 42.9 88.2002C41.7 88.4002 40.6 88.1002 39.6 87.4002C39.4 87.3002 39.3 87.5002 39.4 87.6002C40 88.4002 41 88.8002 42 88.8002C43.4 88.9002 44.7 88.4002 45.9 87.9002C48.7 86.8002 51.6 85.6002 54.4 84.2002C54.6 84.1002 54.5 83.6002 54.1 83.7002Z" fill="#F37E57"/>
<path d="M66.6 82.6003C65.5 81.4003 63.8 80.7003 62.2 80.6003C61.3 80.5003 60.5 80.6003 59.7 80.8003C59.3 80.9003 58.8 81.0003 58.4 81.1003C58 81.2003 57.6 81.3003 57.3 81.7003C57.2 81.8003 57.2 82.1003 57.4 82.2003C58.1 82.4003 58.9 82.0003 59.6 81.8003C60.4 81.6003 61.2 81.5003 62 81.5003C63.6 81.5003 65.1 82.4003 66.7 82.7003C66.6 82.8003 66.6 82.7003 66.6 82.6003Z" fill="#F37E57"/>
<path d="M63.8 189.4C64.1 186.7 56.1 183.7 54.1 184.8C52.2 185.9 55.9 188.9 55.9 188.9C55.9 188.9 51.3 189.1 53 191.3C54.7 193.5 63.4 192.5 63.8 189.4Z" fill="#F44A56"/>
<path d="M72.1 166.8C74.6 165.6 72.6 157.2 70.6 156.2C68.6 155.2 68.2 160 68.2 160C68.2 160 65.5 156.3 64.6 158.9C63.7 161.5 69.3 168.2 72.1 166.8Z" fill="#F44A56"/>
<path d="M175.9 163.2C178.6 163.5 181.4 155.3 180.3 153.4C179.2 151.5 176.2 155.3 176.2 155.3C176.2 155.3 175.9 150.7 173.7 152.4C171.6 154.2 172.7 162.9 175.9 163.2Z" fill="#F44A56"/>
<path d="M192.7 184.2C193.7 185.8 199.2 184 199.8 182.6C200.4 181.2 197.1 181.2 197.1 181.2C197.1 181.2 199.5 179.1 197.6 178.7C195.8 178.2 191.6 182.4 192.7 184.2Z" fill="#F44A56"/>
<path d="M46.4 56.1001V73.3001C46.4 73.8001 46 74.3001 45.4 74.3001H17.2C16.7 74.3001 16.2 73.9001 16.2 73.3001V56.1001C16.2 55.6001 16.6 55.1001 17.2 55.1001H45.4C46 55.1001 46.4 55.6001 46.4 56.1001Z" fill="#231F20"/>
<path d="M46.4 68.8V72.2C45.8 72.3 44.9 72.4 43.8 72.3C41.6 72.1 39.2 69.3 38.5 66.9C37.8 64.5 37.4 62.3 39.1 59.2C40.6 56.5 42.6 56 42.6 56C42.6 56 40.4 59.4 42.1 64C43.1 66.7 45 68.1 46.4 68.8Z" fill="#D6D5D5"/>
<path d="M34.9 60.3999C34.9 60.3999 36.2 58.2999 39 59.0999C41.8 56.4999 42.5 55.8999 42.5 55.8999C42.5 55.8999 39.9 55.1999 37.9 57.0999C35.9 58.9999 34.9 60.3999 34.9 60.3999Z" fill="#BCBCBD"/>
<path d="M38 57.1999C38.2 56.9999 37 57.9999 37.1 59.9999C37.2 62.0999 38.8 69.5999 36.6 72.0999C32.8 70.4999 32.8 67.1999 32.8 67.1999C32.8 67.1999 33.6 65.9999 33.6 64.9999C33.6 63.8999 33.3 62.0999 34.1 60.7999C34.6 59.9999 37.8 57.3999 38 57.1999Z" fill="#F9F9F8"/>
<path d="M29.2 58.2999C29.2 58.2999 31.1 58.7999 32 60.3999C32.9 61.9999 34.2 66.6999 34.5 67.6999C34.8 68.6999 35.7 71.3999 36.6 72.0999C36.3 72.4999 35.7 73.0999 35 73.1999C34.3 73.2999 32.8 72.5999 32 71.6999C31.2 70.7999 30.2 69.2999 29.3 66.8999C28.4 64.4999 27.1 58.8999 26.1 57.9999C27.1 57.5999 29.2 58.2999 29.2 58.2999Z" fill="#D6D5D5"/>
<path d="M18.5 57.3999C18.5 57.3999 20.1 56.1999 22.9 56.2999C24.2 56.3999 26.3 57.2999 29.2 58.2999C26.8 57.9999 25.2 58.4999 23.4 59.7999C20.2 58.2999 18.5 57.3999 18.5 57.3999Z" fill="#BCBCBD"/>
<path d="M26.4 74.2999H18.7C20.2 73.2999 22.1 71.3999 22.6 68.4999C23.4 63.4999 21.2 59.1999 18.4 57.3999C18.4 57.3999 22.3 58.2999 24 59.2999C24 59.2999 24.1 59.2999 24.1 59.3999C26 60.8999 28.1 63.1999 28.4 68.1999C28.6 70.5999 27.6 72.7999 26.4 74.2999Z" fill="#D6D5D5"/>
<path d="M42.2 59.3003L42 59.7003L41.8 59.3003H41.6V60.2003H41.8V59.8003L41.9 60.0003C41.9 60.0003 41.9 60.0003 42 60.0003H42.1L42.2 59.8003V60.2003H42.4V59.3003H42.2Z" fill="white"/>
<path d="M42.6 60.2003V59.3003H43.2V59.5003H42.8V59.6003H43.1V59.8003H42.8V60.0003H43.2V60.2003H42.6Z" fill="white"/>
<path d="M43.9 60.1002C43.8 60.2002 43.7 60.2002 43.6 60.2002C43.5 60.2002 43.4 60.2002 43.3 60.1002C43.2 60.0002 43.2 59.9002 43.2 59.7002C43.2 59.6002 43.2 59.4002 43.3 59.3002C43.4 59.2002 43.4 59.2002 43.6 59.2002C43.8 59.2002 43.9 59.3002 44 59.5002H43.8C43.8 59.4002 43.7 59.4002 43.7 59.4002H43.6C43.6 59.4002 43.6 59.5002 43.6 59.6002C43.6 59.8002 43.6 59.8002 43.6 59.8002C43.6 59.8002 43.6 59.8002 43.7 59.8002H43.8V59.7002H43.7V59.5002H44.1V59.6002C44 59.9002 44 60.0002 43.9 60.1002Z" fill="white"/>
<path d="M44.6 59.3003H44.4L44.1 60.2003H44.3V60.1003H44.6V60.2003H44.8L44.6 59.3003ZM44.4 59.9003L44.5 59.6003L44.6 59.9003H44.4Z" fill="white"/>
<path d="M38.6 60.2003H38.2V59.3003H38.5C38.7 59.3003 38.8 59.4003 38.8 59.5003C38.8 59.6003 38.7 59.7003 38.7 59.7003C38.8 59.7003 38.8 59.8003 38.8 59.9003C38.9 60.1003 38.8 60.2003 38.6 60.2003ZM38.6 59.4003H38.4V59.7003H38.6C38.7 59.7003 38.8 59.7003 38.8 59.5003C38.8 59.4003 38.7 59.4003 38.6 59.4003ZM38.6 59.8003H38.4V60.1003H38.6C38.7 60.1003 38.8 60.0003 38.8 59.9003C38.8 59.8003 38.7 59.8003 38.6 59.8003Z" fill="white"/>
<path d="M39.6 60.2003L39.5 60.0003H39.1L39 60.2003H38.9L39.2 59.3003H39.3L39.6 60.2003ZM39.3 59.4003L39.1 59.9003H39.4L39.3 59.4003Z" fill="white"/>
<path d="M40.4 60.2003L39.9 59.5003V60.2003H39.8V59.3003H39.9L40.4 60.0003V59.3003H40.5L40.4 60.2003Z" fill="white"/>
<path d="M41.3 60.2002L41 59.7002L40.8 59.9002V60.1002H40.7V59.2002H40.8V59.7002L41.2 59.2002H41.3L41 59.5002L41.3 60.0002V60.2002Z" fill="white"/>
<path d="M41.2 56.5H40.1L39.1 58.7H40.1L40.6 57.6L41.2 56.5Z" fill="#FFC20E"/>
<path d="M42.8 56.5H41.7L42.2 57.6L42.7 58.7H43.7L42.8 56.5Z" fill="#505154"/>
<path d="M41.9 58.2001C41.9 58.1001 41.9 58.0001 41.8 58.0001C41.8 57.9001 41.7 57.8001 41.7 57.7001L41.4 57.1001L41.1 57.7001C41.1 57.8001 41 57.9001 41 58.0001C41 58.0001 41 58.1001 40.9 58.1001C40.9 58.1001 40.9 58.1001 40.9 58.2001V58.3001C41.9 58.3001 41.9 58.3001 41.9 58.2001C41.9 58.3001 41.9 58.3001 41.9 58.2001Z" fill="#E05826"/>
<path d="M41.2 56.5L40.7 57.6L40.9 58.1L41 58.3C41 58.2 41 58.2 41.1 58.2C41.1 58.1 41.2 58 41.2 57.9L41.5 57.3L41.2 56.5Z" fill="#F89A59"/>
<path d="M41.7 56.5L42.2 57.6L42 58.1L41.9 58.3C41.9 58.3 41.9 58.3 41.9 58.2C41.9 58.1 41.9 58.1 41.8 58.1C41.8 58 41.7 57.9 41.7 57.8L41.4 57.2L41.7 56.5Z" fill="#848689"/>
<path d="M23.8 68.3001H18.8V67.1001H23.8V68.3001Z" fill="white"/>
<path d="M25.9 72.6H18.7V71.5H25.9V72.6Z" fill="white"/>
<path d="M21.3 69.4003H18.8V68.8003H21.3V69.4003Z" fill="white"/>
<path d="M20.3 70.1001H18.8V69.6001H20.3V70.1001Z" fill="white"/>
<path d="M19.9 70.8999H18.8V70.3999H19.9V70.8999Z" fill="white"/>
<path d="M30.5 68.3001H25.5V67.1001H30.5V68.3001Z" fill="white"/>
<path d="M37.2 67.1001H32.2V68.3001H37.2V67.1001Z" fill="white"/>
<path d="M43.9 67.1001H38.9V68.3001H43.9V67.1001Z" fill="white"/>
<path d="M43.3 70.6001C43.4 70.6001 43.4 70.6001 43.5 70.6001C43.5 70.8001 43.6 71.0001 43.6 71.2001C43.7 71.5001 43.7 71.8001 43.8 72.2001C43.8 72.3001 43.8 72.3001 43.8 72.4001C43.7 72.4001 43.5 72.4001 43.4 72.4001C43.4 72.3001 43.4 72.3001 43.4 72.2001C43.2 72.2001 43 72.2001 42.8 72.2001C42.8 72.3001 42.7 72.3001 42.7 72.4001C42.5 72.4001 42.4 72.4001 42.2 72.4001C42.4 72.0001 42.5 71.6001 42.7 71.3001C42.8 71.1001 42.8 71.0001 42.9 70.8001C42.9 70.7001 43 70.7001 43.1 70.7001C43.2 70.6001 43.3 70.6001 43.3 70.6001ZM43.2 71.1001C43.1 71.3001 43 71.5001 43 71.7001C43.1 71.7001 43.2 71.7001 43.3 71.7001C43.3 71.5001 43.2 71.4001 43.2 71.2001C43.2 71.2001 43.2 71.2001 43.2 71.1001Z" fill="white"/>
<path d="M39.3 71.8002C39.3 71.7002 39.4 71.6002 39.4 71.6002C39.5 71.3002 39.6 71.0002 39.7 70.8002V70.7002C39.9 70.7002 40 70.7002 40.2 70.7002C40.1 70.9002 40.1 71.0002 40 71.2002C39.9 71.4002 39.8 71.7002 39.7 71.9002C39.6 72.1002 39.5 72.3002 39.5 72.4002C39.3 72.4002 39.2 72.4002 39 72.4002C38.9 72.0002 38.8 71.6002 38.7 71.3002C38.7 71.2002 38.7 71.1002 38.6 71.0002C38.6 70.9002 38.6 70.9002 38.5 70.9002C38.4 70.8002 38.2 70.8002 38.1 70.8002C38.1 70.8002 38.1 70.8002 38.1 70.7002C38.4 70.7002 38.6 70.7002 38.9 70.7002C39 70.7002 39.1 70.8002 39.1 70.9002C39.1 71.1002 39.2 71.3002 39.2 71.5002C39.3 71.5002 39.3 71.7002 39.3 71.8002Z" fill="white"/>
<path d="M41.5 72.4002C41.3 72.4002 41.2 72.4002 41 72.3002C41 72.2002 41 72.2002 41 72.1002C41 72.0002 41 72.0002 41 71.9002C41.1 71.9002 41.2 72.0002 41.3 72.0002C41.4 72.0002 41.5 72.0002 41.6 72.0002H41.7C41.8 71.9002 41.8 71.8002 41.7 71.8002L41.6 71.7002C41.5 71.7002 41.5 71.6002 41.4 71.6002C41.3 71.6002 41.3 71.5002 41.2 71.5002C41.1 71.4002 41.1 71.3002 41.1 71.1002C41.1 71.0002 41.2 70.8002 41.3 70.8002C41.4 70.7002 41.5 70.7002 41.7 70.7002C41.8 70.7002 41.9 70.7002 41.9 70.7002C42 70.7002 42.2 70.7002 42.3 70.8002C42.3 70.9002 42.2 71.0002 42.2 71.1002C42.1 71.0002 42 70.9002 41.8 71.0002C41.7 71.0002 41.7 71.0002 41.6 71.1002C41.5 71.1002 41.5 71.2002 41.6 71.3002C41.6 71.3002 41.7 71.4002 41.8 71.4002C41.9 71.4002 42 71.5002 42 71.5002C42.1 71.6002 42.2 71.6002 42.2 71.7002C42.2 71.8002 42.2 71.9002 42.2 72.1002C42.1 72.2002 42 72.3002 41.9 72.4002C41.7 72.4002 41.6 72.4002 41.5 72.4002Z" fill="white"/>
<path d="M40.4 72.4001C40.3 72.4001 40.3 72.4001 40.2 72.4001C40.3 72.0001 40.4 71.7001 40.4 71.3001C40.4 71.1001 40.5 70.9001 40.5 70.6001C40.6 70.6001 40.8 70.6001 40.9 70.6001C40.8 71.0001 40.7 71.4001 40.6 71.8001C40.6 72.0001 40.5 72.1001 40.5 72.3001C40.5 72.4001 40.4 72.4001 40.4 72.4001Z" fill="white"/>
<path d="M29 70.1001H27.5V69.6001H29V70.1001Z" fill="white"/>
<path d="M32.2 69.6001H29.5V70.5001H32.2V69.6001Z" fill="white"/>
<path d="M28.6 70.9004H27.5V70.4004H28.6V70.9004Z" fill="white"/>
<path fill-rule="evenodd" clip-rule="evenodd" d="M26.2 64.2003C26.2 64.7003 26.1 65.1003 25.9 65.5003C25.9 65.6003 25.8 65.6003 25.7 65.6003C25.6 65.6003 25.5 65.5003 25.6 65.4003C25.6 65.4003 25.6 65.4003 25.6 65.3003C25.8 64.9003 25.9 64.4003 25.9 63.9003C25.9 63.6003 25.8 63.3003 25.6 63.1003V63.0003C25.6 62.9003 25.6 62.8003 25.7 62.8003C25.8 62.8003 25.9 62.8003 25.9 62.9003C26 63.1003 26.1 63.3003 26.1 63.4003C26.2 63.7003 26.2 64.0003 26.2 64.2003Z" fill="#231F20"/>
<path fill-rule="evenodd" clip-rule="evenodd" d="M25.6 64.3005C25.6 64.6005 25.5 64.9005 25.3 65.2005L25.2 65.3005C25.1 65.3005 25.1 65.3005 25.1 65.2005C25.1 65.2005 25.1 65.1005 25.1 65.0005C25.1 65.0005 25.1 64.9005 25.2 64.9005C25.3 64.7005 25.4 64.5005 25.4 64.3005C25.4 63.9005 25.4 63.6005 25.2 63.3005C25.2 63.3005 25.2 63.3005 25.2 63.2005C25.2 63.1005 25.2 63.0005 25.3 63.0005C25.4 63.0005 25.5 63.0005 25.5 63.1005C25.5 63.2005 25.6 63.3005 25.6 63.4005C25.5 63.7005 25.6 64.0005 25.6 64.3005Z" fill="#231F20"/>
<path fill-rule="evenodd" clip-rule="evenodd" d="M24.7 63.4004C24.8 63.4004 24.8 63.4004 24.8 63.5004C24.9 63.6004 24.9 63.8004 25 63.9004C25.1 64.3004 25 64.6004 24.8 65.0004C24.8 65.1004 24.7 65.1004 24.7 65.1004C24.6 65.1004 24.5 65.0004 24.6 64.9004C24.6 64.9004 24.6 64.9004 24.6 64.8004C24.8 64.4004 24.8 64.0004 24.6 63.7004C24.6 63.7004 24.6 63.7004 24.6 63.6004C24.5 63.5004 24.6 63.4004 24.7 63.4004Z" fill="#231F20"/>
<path fill-rule="evenodd" clip-rule="evenodd" d="M24.4 64.2001C24.4 64.4001 24.3 64.5001 24.2 64.7001C24.2 64.8001 24.1 64.8001 24 64.8001C23.9 64.8001 23.9 64.7001 23.9 64.7001V64.6001C23.9 64.5001 24 64.4001 24 64.3001C24 64.2001 24 64.0001 23.9 63.9001C23.9 63.9001 23.9 63.9001 23.9 63.8001C23.9 63.7001 23.9 63.7001 23.9 63.6001C24 63.6001 24 63.6001 24.1 63.6001C24.2 63.7001 24.2 63.8001 24.3 63.9001C24.4 64.1001 24.4 64.2001 24.4 64.2001Z" fill="#231F20"/>
<path fill-rule="evenodd" clip-rule="evenodd" d="M23.1 63.1V65.3C23.1 65.6 22.9 65.9 22.5 65.9H19.2C18.9 65.9 18.6 65.7 18.6 65.3V63.1C18.6 62.8 18.8 62.5 19.2 62.5H22.5C22.9 62.5 23.1 62.8 23.1 63.1Z" fill="#FBC800"/>
<path fill-rule="evenodd" clip-rule="evenodd" d="M20.3 62.4999V62.9999C20.3 63.1999 20.3 63.2999 20.3 63.4999C20.3 63.5999 20.3 63.6999 20.3 63.6999C20.3 63.7999 20.3 63.8999 20.3 63.9999C20.3 64.1999 20.3 64.2999 20.3 64.4999C20.3 64.5999 20.3 64.6999 20.3 64.6999C20.3 64.9999 20.3 65.2999 20.3 65.6999H20.2C20.2 65.3999 20.2 65.0999 20.2 64.6999C20.2 64.5999 20.2 64.5999 20.2 64.4999C20.2 64.2999 20.2 64.0999 20.2 63.9999C20.2 63.8999 20.2 63.7999 20.2 63.6999C20.2 63.5999 20.2 63.4999 20.2 63.4999C20.2 63.2999 20.2 63.0999 20.2 62.8999C20.2 62.6999 20.2 62.5999 20.2 62.3999L20.3 62.4999Z" fill="#F99900"/>
<path fill-rule="evenodd" clip-rule="evenodd" d="M21.6 65.9001H21.4C21.4 65.6001 21.4 65.3001 21.4 64.9001C21.4 64.8001 21.4 64.8001 21.4 64.7001C21.4 64.5001 21.4 64.4001 21.4 64.2001C21.4 64.1001 21.4 64.0001 21.4 63.8001C21.4 63.7001 21.4 63.6001 21.4 63.6001C21.4 63.4001 21.4 63.3001 21.4 63.1001C21.4 62.9001 21.4 62.8001 21.4 62.6001H21.6V62.7001C21.6 62.9001 21.6 63.0001 21.6 63.2001C21.6 63.3001 21.6 63.5001 21.6 63.6001V63.8001C21.6 63.9001 21.6 64.1001 21.6 64.2001C21.6 64.3001 21.6 64.5001 21.6 64.6001C21.6 64.7001 21.6 64.7001 21.6 64.8001C21.6 65.2001 21.6 65.5001 21.6 65.9001Z" fill="#F99900"/>
<path d="M20.3 63.6001C20.3 63.7001 20.3 63.8001 20.3 63.8001H18.7V63.6001H20.3Z" fill="#F99900"/>
<path d="M20.3 64.6997C20.3 64.7997 20.3 64.8997 20.3 64.8997H18.7V64.6997H20.3Z" fill="#F99900"/>
<path d="M23.1 63.6001V63.8001H21.4C21.4 63.7001 21.4 63.6001 21.4 63.6001H23.1Z" fill="#F99900"/>
<path d="M23.1 64.6997V64.8997H21.4C21.4 64.7997 21.4 64.7997 21.4 64.6997H23.1Z" fill="#F99900"/>
<path d="M61.7 31.1002C65.9526 31.1002 69.4 27.6528 69.4 23.4002C69.4 19.1476 65.9526 15.7002 61.7 15.7002C57.4474 15.7002 54 19.1476 54 23.4002C54 27.6528 57.4474 31.1002 61.7 31.1002Z" fill="#FAAD18"/>
<path d="M61.7 30.0003C65.3451 30.0003 68.3 27.0454 68.3 23.4003C68.3 19.7552 65.3451 16.8003 61.7 16.8003C58.0549 16.8003 55.1 19.7552 55.1 23.4003C55.1 27.0454 58.0549 30.0003 61.7 30.0003Z" fill="#FDCD0D"/>
<path d="M61.7 29.1002C64.848 29.1002 67.4 26.5482 67.4 23.4002C67.4 20.2522 64.848 17.7002 61.7 17.7002C58.552 17.7002 56 20.2522 56 23.4002C56 26.5482 58.552 29.1002 61.7 29.1002Z" fill="#FAAD18"/>
<path d="M61.7 28.2001C64.351 28.2001 66.5 26.0511 66.5 23.4001C66.5 20.7491 64.351 18.6001 61.7 18.6001C59.049 18.6001 56.9 20.7491 56.9 23.4001C56.9 26.0511 59.049 28.2001 61.7 28.2001Z" fill="#FAAD18"/>
<path d="M60.4 25.1003L59.8 23.9003H59.5V25.1003H58.1V20.8003H60.1C60.6 20.8003 61 21.0003 61.3 21.3003C61.6 21.6003 61.8 22.0003 61.8 22.5003C61.8 22.7003 61.7 23.0003 61.6 23.2003C61.5 23.4003 61.3 23.6003 61.2 23.7003L62 25.2003H60.4V25.1003ZM59.5 22.0003V22.8003H59.9C60 22.8003 60.2 22.8003 60.2 22.7003C60.3 22.6003 60.3 22.5003 60.3 22.4003C60.3 22.3003 60.3 22.2003 60.2 22.1003C60.1 22.1003 60 22.0003 59.9 22.0003H59.5Z" fill="#FAAD18"/>
<path d="M64.4 21.7002C64.9 21.7002 65.3 21.9002 65.7 22.2002C66 22.5002 66.2 23.0002 66.2 23.5002C66.2 24.0002 66 24.5002 65.7 24.8002C65.4 25.1002 65 25.3002 64.4 25.3002C64.1 25.3002 63.9 25.2002 63.6 25.1002V26.4002H62.2V21.8002H63.2L63.4 22.0002C63.7 21.8002 64 21.7002 64.4 21.7002ZM64.2 24.1002C64.4 24.1002 64.5 24.0002 64.6 23.9002C64.7 23.8002 64.8 23.6002 64.8 23.4002C64.8 23.2002 64.7 23.1002 64.6 22.9002C64.5 22.8002 64.3 22.7002 64.2 22.7002C64 22.7002 63.9 22.8002 63.8 22.9002C63.7 23.0002 63.6 23.2002 63.6 23.4002C63.6 23.6002 63.7 23.7002 63.8 23.9002C63.9 24.0002 64 24.1002 64.2 24.1002Z" fill="#FAAD18"/>
<path d="M14 50.6001C21.732 50.6001 28 44.3321 28 36.6001C28 28.8681 21.732 22.6001 14 22.6001C6.26801 22.6001 0 28.8681 0 36.6001C0 44.3321 6.26801 50.6001 14 50.6001Z" fill="#F44A56"/>
<path d="M14 46.3004C19.3572 46.3004 23.7 41.9576 23.7 36.6004C23.7 31.2432 19.3572 26.9004 14 26.9004C8.64284 26.9004 4.3 31.2432 4.3 36.6004C4.3 41.9576 8.64284 46.3004 14 46.3004Z" fill="white"/>
<path d="M14 28.4004V37.4004H7.5" stroke="#252526" stroke-width="1.7544" stroke-miterlimit="10"/>
<path d="M13.9 39.3C14.9493 39.3 15.8 38.4493 15.8 37.4C15.8 36.3507 14.9493 35.5 13.9 35.5C12.8507 35.5 12 36.3507 12 37.4C12 38.4493 12.8507 39.3 13.9 39.3Z" fill="#252526"/>
<defs>
<linearGradient id="paint0_linear_134_792" x1="124.582" y1="9.28711" x2="124.582" y2="162.518" gradientUnits="userSpaceOnUse">
<stop stop-color="#FF881B"/>
<stop offset="0.682292" stop-color="white"/>
</linearGradient>
<linearGradient id="paint1_linear_134_792" x1="124" y1="0" x2="124" y2="152.07" gradientUnits="userSpaceOnUse">
<stop stop-color="#FF881B"/>
<stop offset="0.682292" stop-color="white"/>
</linearGradient>
</defs>
</svg>
