<svg width="129" height="109" viewBox="0 0 129 109" fill="none" xmlns="http://www.w3.org/2000/svg">
<path d="M87.3992 38.3L88.7992 36.9C89.4992 36.2 90.4992 36.3 91.1992 36.9L96.1992 42.1C96.7992 42.7 96.7992 43.7 96.2992 44.4L94.8992 46L95.8992 47.1L97.5992 45.6C98.9992 44.4 99.0992 42.3 97.7992 41L91.5992 35C90.6992 34.1 89.1992 34.1 88.2992 35.1L86.1992 37.4L87.3992 38.3Z" fill="#505154"/>
<path d="M41.8999 90.5C37.6999 89.8 33.0999 89.6 29.5999 87.1C26.9999 85.3 25.2999 82.3 24.8999 79.2C24.5999 76.1 25.5999 72.8 27.6999 70.5C29.5999 68.5 31.8999 66.9 33.7999 64.9C35.8999 62.7 36.7999 60 37.3999 57C37.9999 53.5 38.5999 49.5 41.4999 47.3C43.7999 45.6 46.7999 45.6 49.5999 46.1C52.3999 46.6 55.0999 47.4 57.8999 47.2C60.4999 47 62.9999 46 65.4999 45.4C68.0999 44.9 70.9999 45 72.8999 46.8C75.0999 48.9 75.0999 52.4 77.0999 54.7C79.4999 57.5 83.7999 57.4 87.3999 56.9C91.0999 56.4 95.1999 56 97.9999 58.4C100.2 60.3 100.8 63.5 100.5 66.3C100.2 69.2 99.0999 71.9 98.2999 74.7C97.4999 77.5 97.0999 80.5 98.0999 83.2C98.9999 85.5 100.9 87.4 101.8 89.7C103 92.9 101.9 96.7 99.4999 99.2C97.0999 101.7 93.5999 102.9 90.1999 103C86.7999 103.1 83.3999 102.1 80.2999 100.6C77.8999 99.5 75.4999 98 72.8999 97.7C70.1999 97.3 67.4999 98.7 64.8999 99.4C62.4999 100 60.0999 100.4 57.6999 99.9C53.9999 99.2 53.1999 96.6 50.7999 94.3C48.5999 92 45.0999 91 41.8999 90.5Z" fill="#D3E9FE"/>
<path d="M102.299 61.7C81.9992 43.6 71.6992 31.2 71.6992 31.2C71.6992 31.2 72.7992 30.8 74.6992 30.8C77.5992 30.8 82.3992 31.8 87.9992 36.8C94.9992 43.1 99.8992 49.8 101.699 55.9C102.299 57.9 102.499 59.8 102.299 61.7Z" fill="#A1A1A1"/>
<path d="M102.299 61.7C81.9992 43.6 71.6992 31.2 71.6992 31.2C71.6992 31.2 72.7992 30.8 74.6992 30.8L101.699 55.9C102.299 57.9 102.499 59.8 102.299 61.7Z" fill="#898484"/>
<path d="M53.8984 103.7V109H84.9984V102.3L53.8984 103.7Z" fill="#505154"/>
<path d="M90.5992 62L88.2992 89.1L86.8992 105.3H51.8992L50.1992 85L48.1992 62H90.5992Z" fill="#BCBCBD"/>
<path d="M88.2992 89.1L86.8992 105.3H51.8992L50.1992 85C60.8992 87.9 76.8992 90.4 88.2992 89.1Z" fill="#A1A1A1"/>
<path d="M55.2999 101.3C54.5999 101.3 53.9999 100.7 53.8999 100L51.1999 67.7C51.0999 66.8 51.8999 65.9 52.7999 65.9C53.6999 65.9 54.3999 66.6 54.3999 67.4L56.5999 99.8C56.6999 100.6 56.0999 101.3 55.2999 101.3Z" fill="#505154"/>
<path d="M60.9984 101.3C60.2984 101.3 59.6984 100.7 59.5984 100L57.8984 67.6C57.8984 66.7 58.5984 65.9 59.4984 65.9C60.3984 65.9 61.0984 66.6 61.0984 67.5L62.2984 99.9C62.3984 100.7 61.7984 101.3 60.9984 101.3Z" fill="#505154"/>
<path d="M66.7992 101.3C65.9992 101.3 65.3992 100.7 65.3992 99.9L64.6992 67.5C64.6992 66.6 65.3992 65.8 66.2992 65.8C67.1992 65.8 67.8992 66.5 67.8992 67.4L68.1992 99.8C68.0992 100.7 67.4992 101.3 66.7992 101.3Z" fill="#505154"/>
<path d="M72.5016 101.3C71.7016 101.3 71.1016 100.7 71.1016 99.9L71.4016 67.5C71.4016 66.6 72.1016 65.9 73.0016 65.9C73.9016 65.9 74.6016 66.6 74.6016 67.6L73.9016 100C73.9016 100.7 73.2016 101.3 72.5016 101.3Z" fill="#505154"/>
<path d="M78.2008 101.3C77.4008 101.3 76.8008 100.6 76.8008 99.9L78.0008 67.5C78.0008 66.6 78.8008 65.9 79.6008 65.9C80.5008 65.9 81.3008 66.7 81.2008 67.6L79.6008 100C79.6008 100.8 79.0008 101.3 78.2008 101.3Z" fill="#505154"/>
<path d="M84.0016 101.3C83.2016 101.3 82.6016 100.6 82.6016 99.8L84.8016 67.4C84.9016 66.5 85.6016 65.9 86.4016 65.9H86.7016C87.5016 65.9 88.1016 66.6 88.1016 67.4L85.4016 100C85.3016 100.8 84.7016 101.3 84.0016 101.3Z" fill="#505154"/>
<path d="M53.9003 107.1H36.3003C34.7003 107.1 33.7003 105.4 34.5003 104L36.8003 100.1L43.3003 88.9C44.1003 87.5 46.1003 87.5 46.9003 88.9L53.3003 100L55.6003 104.1C56.5003 105.4 55.5003 107.1 53.9003 107.1Z" fill="#F44A56"/>
<path d="M53.9003 107.1H36.3003C34.7003 107.1 33.7003 105.4 34.5003 104L36.8003 100.1C41.4003 101.6 48.2003 102.3 53.3003 100L55.6003 104.1C56.5003 105.4 55.5003 107.1 53.9003 107.1Z" fill="#D3293D"/>
<path d="M44.3 101.1L44 93.2C44 93.2 44 93.2 44 93.1C44 92.6 44.3 92.3 44.6 92.3H45.8C46.1 92.3 46.4 92.7 46.4 93.1C46.4 93.1 46.4 93.1 46.4 93.2L46.1 101.1C46.1 101.5 45.8 101.9 45.5 101.9H45C44.6 101.9 44.3 101.6 44.3 101.1ZM44.3 104.1V103.9C44.3 103.4 44.6 103.1 44.9 103.1H45.5C45.8 103.1 46.1 103.5 46.1 103.9V104.1C46.1 104.6 45.8 104.9 45.5 104.9H44.9C44.5 105 44.3 104.6 44.3 104.1Z" fill="white"/>
<path d="M44.0016 90.2L36.1016 103.9C35.6016 104.8 36.2016 105.8 37.2016 105.8H53.0016C54.0016 105.8 54.6016 104.7 54.1016 103.9L46.2016 90.2C45.7016 89.3 44.5016 89.3 44.0016 90.2Z" stroke="#FEBD0E" stroke-width="0.4111" stroke-miterlimit="10"/>
<path d="M68.6016 32.4L71.5016 29.8L104.102 62.2L101.502 65.1L68.6016 32.4Z" fill="#BCBCBD"/>
<path d="M64.4 9.2L58.2 44.5L27.5 39.5L34.9 0L61.1 4.9L64.4 9.2Z" fill="#E8F3FC"/>
<path d="M64.4 9.19999L60.5 8.39999L61.1 4.89999L64.4 9.19999Z" fill="#9FBFD1"/>
<path d="M58.9782 12.7856L39.1641 8.85873L38.8141 10.6244L58.6283 14.5512L58.9782 12.7856Z" fill="#505154"/>
<path d="M58.2907 15.7686L38.4766 11.8418L38.1266 13.6074L57.9408 17.5343L58.2907 15.7686Z" fill="#505154"/>
<path d="M57.6853 18.8692L37.8711 14.9423L37.5212 16.7079L57.3354 20.6348L57.6853 18.8692Z" fill="#505154"/>
<path d="M57.0954 21.8716L37.2812 17.9448L36.9313 19.7104L56.7455 23.6373L57.0954 21.8716Z" fill="#505154"/>
<path d="M56.49 24.9722L36.6758 21.0453L36.3259 22.8109L56.14 26.7378L56.49 24.9722Z" fill="#505154"/>
<path d="M55.8806 28.0728L36.0664 24.1459L35.7165 25.9115L55.5307 29.8384L55.8806 28.0728Z" fill="#505154"/>
<path d="M55.2946 31.0752L35.4805 27.1483L35.1305 28.9139L54.9447 32.8408L55.2946 31.0752Z" fill="#505154"/>
<path d="M54.6853 34.1758L34.8711 30.2489L34.5212 32.0145L54.3354 35.9414L54.6853 34.1758Z" fill="#505154"/>
</svg>
