<svg width="10" height="10" viewBox="0 0 10 10" fill="none" xmlns="http://www.w3.org/2000/svg">
<path d="M0.596032 0.67025C0.760118 0.506213 0.982638 0.414062 1.21466 0.414062C1.44668 0.414062 1.66919 0.506213 1.83328 0.67025L4.92728 3.76425L8.02128 0.67025C8.18631 0.510862 8.40733 0.422667 8.63676 0.424661C8.86618 0.426654 9.08564 0.518677 9.24787 0.680909C9.4101 0.843141 9.50213 1.0626 9.50412 1.29202C9.50611 1.52145 9.41792 1.74247 9.25853 1.9075L6.16453 5.0015L9.25853 8.0955C9.41792 8.26053 9.50611 8.48155 9.50412 8.71097C9.50213 8.9404 9.4101 9.15986 9.24787 9.32209C9.08564 9.48432 8.86618 9.57634 8.63676 9.57834C8.40733 9.58033 8.18631 9.49214 8.02128 9.33275L4.92728 6.23875L1.83328 9.33275C1.66825 9.49214 1.44723 9.58033 1.21781 9.57834C0.988384 9.57634 0.768923 9.48432 0.606691 9.32209C0.444459 9.15986 0.352436 8.9404 0.350442 8.71097C0.348448 8.48155 0.436643 8.26053 0.596032 8.0955L3.69003 5.0015L0.596032 1.9075C0.431995 1.74341 0.339844 1.52089 0.339844 1.28888C0.339844 1.05686 0.431995 0.834337 0.596032 0.67025V0.67025Z" fill="#636772"/>
</svg>
