<svg width="34" height="33" viewBox="0 0 34 33" fill="none" xmlns="http://www.w3.org/2000/svg">
<rect width="34" height="33" fill="#E5E5E5"/>
<g clip-path="url(#clip0_381_16618)">
<rect width="37466" height="25129" transform="translate(-22978 -1746)" fill="#EAF0FF"/>
<g clip-path="url(#clip1_381_16618)">
<rect width="360" height="780" transform="translate(-36.0742 -464)" fill="#F1F3F9"/>
<path fill-rule="evenodd" clip-rule="evenodd" d="M-36.0742 -179C-36.0742 -192.255 -25.3291 -203 -12.0742 -203H299.926C313.181 -203 323.926 -192.255 323.926 -179V-171.946H-36.0742V-179ZM-36.0742 569.999V590.947H-23.796C-20.3295 592.891 -16.3313 593.999 -12.0742 593.999H299.926C304.183 593.999 308.181 592.891 311.648 590.947H323.926V569.999V562.945V-171.945H-36.0742V562.945V569.999Z" fill="white"/>
<g clip-path="url(#clip2_381_16618)">
<rect x="-7.07422" y="-11" width="303" height="56" rx="8" fill="url(#paint0_linear_381_16618)"/>
<circle cx="17.4258" cy="16.5" r="16.5" fill="white"/>
<path d="M25.2995 17.7572C24.6007 17.7572 24.0321 17.1938 24.0321 16.5014C24.0321 15.809 24.6007 15.2456 25.2995 15.2456C25.4697 15.2456 25.6314 15.1789 25.7515 15.06C25.8706 14.9419 25.9379 14.78 25.9379 14.613L25.937 12.3341C25.937 10.4077 24.3547 8.83984 22.4105 8.83984H12.4414C10.4973 8.83984 8.91576 10.4077 8.91576 12.3341L8.91406 14.6864C8.91406 14.8534 8.98131 15.0145 9.10132 15.1334C9.22134 15.2523 9.38307 15.3189 9.55246 15.3189C10.2751 15.3189 10.8207 15.8267 10.8207 16.5014C10.8207 17.1938 10.2521 17.7572 9.55246 17.7572C9.20006 17.7572 8.91406 18.0406 8.91406 18.3898V20.6679C8.91406 22.5942 10.4964 24.1613 12.4405 24.1613H22.4122C24.3564 24.1613 25.9379 22.5942 25.9379 20.6679V18.3898C25.9379 18.0406 25.6519 17.7572 25.2995 17.7572Z" fill="#FA9D1C"/>
<circle cx="15.8537" cy="13.3566" r="1.57143" fill="white"/>
<circle cx="13.4962" cy="13.3566" r="1.57143" fill="white"/>
<rect x="21.2852" y="17.7656" width="5.30438" height="5.30438" fill="white"/>
<g clip-path="url(#clip3_381_16618)">
<path d="M28.3558 20.715C28.3558 21.9655 27.859 23.1648 26.9748 24.049C26.0906 24.9332 24.8913 25.43 23.6408 25.43C22.3903 25.43 21.191 24.9332 20.3068 24.049C19.4225 23.1648 18.9258 21.9655 18.9258 20.715C18.9258 19.4645 19.4225 18.2652 20.3068 17.381C21.191 16.4968 22.3903 16 23.6408 16C24.8913 16 26.0906 16.4968 26.9748 17.381C27.859 18.2652 28.3558 19.4645 28.3558 20.715V20.715ZM26.016 18.9292C25.9739 18.8872 25.9237 18.8542 25.8686 18.8321C25.8134 18.8099 25.7544 18.7992 25.6949 18.8004C25.6355 18.8016 25.577 18.8148 25.5227 18.8391C25.4685 18.8635 25.4198 18.8985 25.3794 18.9422L23.3325 21.5501L22.099 20.316C22.0152 20.2379 21.9044 20.1954 21.7898 20.1974C21.6753 20.1994 21.5661 20.2458 21.4851 20.3268C21.4041 20.4078 21.3577 20.5171 21.3557 20.6316C21.3537 20.7461 21.3962 20.8569 21.4742 20.9407L23.0337 22.5008C23.0757 22.5427 23.1258 22.5758 23.1808 22.598C23.2359 22.6201 23.2948 22.631 23.3542 22.6299C23.4135 22.6288 23.4721 22.6158 23.5263 22.5916C23.5805 22.5674 23.6292 22.5325 23.6697 22.489L26.0224 19.548C26.1027 19.4646 26.147 19.3531 26.1459 19.2374C26.1448 19.1217 26.0983 19.011 26.0166 18.9292H26.016Z" fill="#50B74A"/>
</g>
</g>
</g>
</g>
<defs>
<linearGradient id="paint0_linear_381_16618" x1="-7.07422" y1="17" x2="295.926" y2="17" gradientUnits="userSpaceOnUse">
<stop stop-color="#FFEEEE"/>
<stop offset="1" stop-color="#DDEFBB"/>
</linearGradient>
<clipPath id="clip0_381_16618">
<rect width="37466" height="25129" fill="white" transform="translate(-22978 -1746)"/>
</clipPath>
<clipPath id="clip1_381_16618">
<rect width="360" height="780" fill="white" transform="translate(-36.0742 -464)"/>
</clipPath>
<clipPath id="clip2_381_16618">
<rect width="303" height="56" fill="white" transform="translate(-7.07422 -11)"/>
</clipPath>
<clipPath id="clip3_381_16618">
<rect width="9.43" height="9.43" fill="white" transform="translate(18.9258 16)"/>
</clipPath>
</defs>
</svg>
