<svg width="64" height="64" viewBox="0 0 64 64" fill="none" xmlns="http://www.w3.org/2000/svg">
<circle cx="32" cy="32" r="32" fill="#F1F3F9"/>
<path fill-rule="evenodd" clip-rule="evenodd" d="M32 12C20.9545 12 12 20.9545 12 32C12 43.0455 20.9545 52 32 52C43.0455 52 52 43.0455 52 32C52 20.9545 43.0455 12 32 12ZM40.6691 28.6182C40.8287 28.4357 40.9502 28.2232 41.0265 27.993C41.1028 27.7629 41.1323 27.5198 41.1132 27.2782C41.0942 27.0365 41.027 26.801 40.9156 26.5857C40.8042 26.3703 40.6509 26.1795 40.4646 26.0243C40.2784 25.8691 40.063 25.7527 39.8311 25.6819C39.5992 25.6112 39.3555 25.5876 39.1143 25.6124C38.8732 25.6373 38.6394 25.7101 38.4268 25.8266C38.2142 25.9431 38.0271 26.101 37.8764 26.2909L30.0582 35.6709L26.0127 31.6236C25.6698 31.2924 25.2105 31.1092 24.7338 31.1133C24.2571 31.1175 23.8011 31.3087 23.464 31.6458C23.1269 31.9829 22.9356 32.4389 22.9315 32.9156C22.9274 33.3924 23.1106 33.8516 23.4418 34.1945L28.8964 39.6491C29.075 39.8276 29.2889 39.967 29.5244 40.0583C29.7599 40.1496 30.0118 40.1908 30.2641 40.1794C30.5164 40.1679 30.7636 40.104 30.9898 39.9917C31.2161 39.8795 31.4165 39.7213 31.5782 39.5273L40.6691 28.6182Z" fill="#309729"/>
</svg>
