<svg width="16" height="16" viewBox="0 0 16 16" fill="none" xmlns="http://www.w3.org/2000/svg">
<path d="M11.4341 8.64477C11.3624 8.59628 11.2726 8.58927 11.1952 8.62611L10.3001 9.04675L8.89698 8.30662H8.89686C8.8001 8.25432 8.68246 8.27369 8.60523 8.35463L7.7377 9.2732L6.64892 8.58096H6.64881C6.55911 8.52474 6.44607 8.5333 6.36469 8.60223L5.25323 9.54207L3.39494 8.1816H3.39505C3.31849 8.12478 3.21825 8.1186 3.13608 8.16555C3.05301 8.21072 3.00058 8.30105 3.00024 8.39982V14.7359C3.00069 14.8828 3.00024 15.1999 3.45276 15.1999H10.9677C11.5497 15.1999 11.5492 14.8067 11.5497 14.6598V8.86872C11.5497 8.77815 11.506 8.69388 11.4341 8.64502L11.4341 8.64477ZM9.7895 13.3362H5.01186C4.873 13.3362 4.76041 13.217 4.76041 13.0699C4.76041 12.9229 4.873 12.8037 5.01186 12.8037H9.7895C9.92836 12.8037 10.041 12.9229 10.041 13.0699C10.041 13.217 9.92836 13.3362 9.7895 13.3362ZM9.7895 11.7387H5.01186C4.873 11.7387 4.76041 11.6195 4.76041 11.4725C4.76041 11.3254 4.873 11.2062 5.01186 11.2062H9.7895C9.92836 11.2062 10.041 11.3254 10.041 11.4725C10.041 11.6195 9.92836 11.7387 9.7895 11.7387Z" fill="#FA9D1C"/>
<path d="M11.1112 0.799988H3.58194C3.00001 0.799988 3.00045 1.20078 3.00001 1.34769V6.80254C2.99944 6.8899 3.03997 6.97179 3.10811 7.02088L5.11974 8.49594C5.16173 8.5272 5.21179 8.54396 5.2631 8.54385C5.3199 8.54432 5.37513 8.52364 5.41902 8.48525L6.54045 7.53747L7.64932 8.24042L7.64943 8.2403C7.74844 8.30163 7.87406 8.28535 7.95612 8.20037L8.83374 7.27112L10.179 7.98201V7.98213C10.2462 8.01969 10.3264 8.02171 10.3952 7.98736L11.401 7.51609V7.51621C11.492 7.47283 11.5501 7.37679 11.5494 7.27124V1.36291C11.5494 0.799988 11.1112 0.799988 11.1112 0.799988ZM9.78927 5.08274H5.01164C4.87278 5.08274 4.76019 4.96352 4.76019 4.81649C4.76019 4.66947 4.87278 4.55025 5.01164 4.55025H9.78927C9.92813 4.55025 10.0407 4.66947 10.0407 4.81649C10.0407 4.96352 9.92813 5.08274 9.78927 5.08274ZM9.78927 3.48527H5.01164C4.87278 3.48527 4.76019 3.36605 4.76019 3.21902C4.76019 3.07199 4.87278 2.95277 5.01164 2.95277H9.78927C9.92813 2.95277 10.0407 3.07199 10.0407 3.21902C10.0407 3.36605 9.92813 3.48527 9.78927 3.48527Z" fill="#FA9D1C"/>
</svg>
