<svg width="114" height="36" viewBox="0 0 114 36" fill="none" xmlns="http://www.w3.org/2000/svg">
<rect opacity="0.3" width="114" height="36" rx="10" fill="#F1F3F9"/>
<path d="M12.1667 11.1667H26.25V18.75H28.4167V11.1667C28.4167 9.97175 27.4449 9 26.25 9H12.1667C10.9717 9 10 9.97175 10 11.1667V24.1667C10 25.3616 10.9717 26.3333 12.1667 26.3333H20.8333V24.1667H12.1667V11.1667Z" fill="white"/>
<path d="M16.5 17.6667L13.25 22H25.1667L20.8333 15.5L17.5833 19.8333L16.5 17.6667Z" fill="white"/>
<path d="M28.4167 20.9167H26.25V24.1667H23V26.3334H26.25V29.5834H28.4167V26.3334H31.6667V24.1667H28.4167V20.9167Z" fill="white"/>
<path d="M40.329 23.168C39.629 23.168 38.9943 23.0327 38.425 22.762C37.865 22.482 37.417 22.0573 37.081 21.488C36.7543 20.9187 36.591 20.1953 36.591 19.318V13.2H38.075V19.332C38.075 20.1907 38.2803 20.8207 38.691 21.222C39.1017 21.6233 39.657 21.824 40.357 21.824C41.0477 21.824 41.5983 21.6233 42.009 21.222C42.4197 20.8207 42.625 20.1907 42.625 19.332V13.2H44.109V19.318C44.109 20.1953 43.9363 20.9187 43.591 21.488C43.255 22.0573 42.7977 22.482 42.219 22.762C41.6497 23.0327 41.0197 23.168 40.329 23.168ZM45.9566 26.08V16.056H47.2866L47.4406 17.134C47.6646 16.8073 47.9726 16.518 48.3646 16.266C48.7566 16.014 49.2606 15.888 49.8766 15.888C50.5486 15.888 51.1412 16.0467 51.6546 16.364C52.1679 16.6813 52.5692 17.1153 52.8586 17.666C53.1572 18.2167 53.3066 18.842 53.3066 19.542C53.3066 20.242 53.1572 20.8673 52.8586 21.418C52.5692 21.9593 52.1679 22.3887 51.6546 22.706C51.1412 23.014 50.5439 23.168 49.8626 23.168C49.3212 23.168 48.8406 23.0607 48.4206 22.846C48.0099 22.6313 47.6832 22.328 47.4406 21.936V26.08H45.9566ZM49.6106 21.88C50.2452 21.88 50.7679 21.6653 51.1786 21.236C51.5892 20.7973 51.7946 20.228 51.7946 19.528C51.7946 19.0707 51.7012 18.6647 51.5146 18.31C51.3279 17.9553 51.0712 17.68 50.7446 17.484C50.4179 17.2787 50.0399 17.176 49.6106 17.176C48.9759 17.176 48.4532 17.3953 48.0426 17.834C47.6412 18.2727 47.4406 18.8373 47.4406 19.528C47.4406 20.228 47.6412 20.7973 48.0426 21.236C48.4532 21.6653 48.9759 21.88 49.6106 21.88ZM54.9116 23V12.92H56.3956V23H54.9116ZM61.5229 23.168C60.8602 23.168 60.2629 23.0187 59.7309 22.72C59.2082 22.412 58.7929 21.9873 58.4849 21.446C58.1769 20.8953 58.0229 20.256 58.0229 19.528C58.0229 18.8 58.1769 18.1653 58.4849 17.624C58.8022 17.0733 59.2269 16.6487 59.7589 16.35C60.2909 16.042 60.8836 15.888 61.5369 15.888C62.1996 15.888 62.7922 16.042 63.3149 16.35C63.8469 16.6487 64.2669 17.0733 64.5749 17.624C64.8922 18.1653 65.0509 18.8 65.0509 19.528C65.0509 20.256 64.8922 20.8953 64.5749 21.446C64.2669 21.9873 63.8469 22.412 63.3149 22.72C62.7829 23.0187 62.1856 23.168 61.5229 23.168ZM61.5229 21.894C61.8776 21.894 62.2042 21.8053 62.5029 21.628C62.8109 21.4507 63.0582 21.1893 63.2449 20.844C63.4316 20.4893 63.5249 20.0507 63.5249 19.528C63.5249 19.0053 63.4316 18.5713 63.2449 18.226C63.0676 17.8713 62.8249 17.6053 62.5169 17.428C62.2182 17.2507 61.8916 17.162 61.5369 17.162C61.1822 17.162 60.8509 17.2507 60.5429 17.428C60.2442 17.6053 60.0016 17.8713 59.8149 18.226C59.6282 18.5713 59.5349 19.0053 59.5349 19.528C59.5349 20.0507 59.6282 20.4893 59.8149 20.844C60.0016 21.1893 60.2442 21.4507 60.5429 21.628C60.8416 21.8053 61.1682 21.894 61.5229 21.894ZM69.0078 23.168C68.4198 23.168 67.9344 23.07 67.5518 22.874C67.1691 22.678 66.8844 22.4213 66.6978 22.104C66.5111 21.7773 66.4178 21.4227 66.4178 21.04C66.4178 20.368 66.6791 19.836 67.2018 19.444C67.7244 19.052 68.4711 18.856 69.4418 18.856H71.2618V18.73C71.2618 18.1887 71.1124 17.7827 70.8138 17.512C70.5244 17.2413 70.1464 17.106 69.6798 17.106C69.2691 17.106 68.9098 17.2087 68.6018 17.414C68.3031 17.61 68.1211 17.904 68.0558 18.296H66.5718C66.6184 17.792 66.7864 17.3627 67.0758 17.008C67.3744 16.644 67.7478 16.3687 68.1958 16.182C68.6531 15.986 69.1524 15.888 69.6938 15.888C70.6644 15.888 71.4158 16.1447 71.9478 16.658C72.4798 17.162 72.7458 17.8527 72.7458 18.73V23H71.4578L71.3318 21.81C71.1358 22.1927 70.8511 22.5147 70.4778 22.776C70.1044 23.0373 69.6144 23.168 69.0078 23.168ZM69.3018 21.964C69.7031 21.964 70.0391 21.8707 70.3098 21.684C70.5898 21.488 70.8044 21.2313 70.9538 20.914C71.1124 20.5967 71.2104 20.2467 71.2478 19.864H69.5958C69.0078 19.864 68.5878 19.9667 68.3358 20.172C68.0931 20.3773 67.9718 20.634 67.9718 20.942C67.9718 21.2593 68.0884 21.5113 68.3218 21.698C68.5644 21.8753 68.8911 21.964 69.3018 21.964ZM77.6401 23.168C76.9681 23.168 76.3754 23.0093 75.8621 22.692C75.3488 22.3747 74.9474 21.9407 74.6581 21.39C74.3688 20.8393 74.2241 20.214 74.2241 19.514C74.2241 18.814 74.3688 18.1933 74.6581 17.652C74.9474 17.1013 75.3488 16.672 75.8621 16.364C76.3848 16.0467 76.9821 15.888 77.6541 15.888C78.2048 15.888 78.6854 15.9953 79.0961 16.21C79.5161 16.4247 79.8428 16.728 80.0761 17.12V12.92H81.5601V23H80.2301L80.0761 21.922C79.8521 22.2487 79.5441 22.538 79.1521 22.79C78.7601 23.042 78.2561 23.168 77.6401 23.168ZM77.9061 21.88C78.5408 21.88 79.0588 21.6607 79.4601 21.222C79.8708 20.7833 80.0761 20.2187 80.0761 19.528C80.0761 18.828 79.8708 18.2633 79.4601 17.834C79.0588 17.3953 78.5408 17.176 77.9061 17.176C77.2714 17.176 76.7488 17.3953 76.3381 17.834C75.9274 18.2633 75.7221 18.828 75.7221 19.528C75.7221 19.9853 75.8154 20.3913 76.0021 20.746C76.1888 21.1007 76.4454 21.3807 76.7721 21.586C77.1081 21.782 77.4861 21.88 77.9061 21.88ZM91.5365 23.168C90.5658 23.168 89.7165 22.9533 88.9885 22.524C88.2605 22.0947 87.6912 21.502 87.2805 20.746C86.8698 19.9807 86.6645 19.0987 86.6645 18.1C86.6645 17.1013 86.8698 16.224 87.2805 15.468C87.6912 14.7027 88.2605 14.1053 88.9885 13.676C89.7165 13.2467 90.5658 13.032 91.5365 13.032C92.5072 13.032 93.3565 13.2467 94.0845 13.676C94.8125 14.1053 95.3772 14.7027 95.7785 15.468C96.1892 16.224 96.3945 17.1013 96.3945 18.1C96.3945 19.0613 96.2032 19.9153 95.8205 20.662C95.4472 21.4087 94.9245 21.9967 94.2525 22.426L96.6185 24.834H94.7425L92.9925 22.986C92.5352 23.1073 92.0498 23.168 91.5365 23.168ZM91.5365 21.838C92.2085 21.838 92.7918 21.6887 93.2865 21.39C93.7905 21.0913 94.1825 20.662 94.4625 20.102C94.7425 19.542 94.8825 18.8747 94.8825 18.1C94.8825 17.3253 94.7425 16.658 94.4625 16.098C94.1825 15.538 93.7905 15.1087 93.2865 14.81C92.7918 14.5113 92.2085 14.362 91.5365 14.362C90.8645 14.362 90.2765 14.5113 89.7725 14.81C89.2685 15.1087 88.8765 15.538 88.5965 16.098C88.3258 16.658 88.1905 17.3253 88.1905 18.1C88.1905 18.8747 88.3258 19.542 88.5965 20.102C88.8765 20.662 89.2685 21.0913 89.7725 21.39C90.2765 21.6887 90.8645 21.838 91.5365 21.838ZM98.0614 23V13.2H101.435C102.21 13.2 102.845 13.3307 103.339 13.592C103.843 13.8533 104.217 14.208 104.459 14.656C104.702 15.0947 104.823 15.5847 104.823 16.126C104.823 16.7327 104.66 17.2833 104.333 17.778C104.016 18.2727 103.517 18.6273 102.835 18.842L104.921 23H103.199L101.295 19.052H99.5454V23H98.0614ZM99.5454 17.932H101.351C102.023 17.932 102.513 17.7687 102.821 17.442C103.139 17.1153 103.297 16.6907 103.297 16.168C103.297 15.6453 103.143 15.23 102.835 14.922C102.527 14.6047 102.028 14.446 101.337 14.446H99.5454V17.932Z" fill="white"/>
</svg>
