<svg width="68" height="68" viewBox="0 0 68 68" fill="none" xmlns="http://www.w3.org/2000/svg">
<g opacity="0.1" filter="url(#filter0_d_1_13270)">
<rect x="8" y="4" width="52" height="52" rx="26" fill="url(#paint0_linear_1_13270)" shape-rendering="crispEdges"/>
</g>
<path fill-rule="evenodd" clip-rule="evenodd" d="M42.704 19.7957C42.768 19.9028 42.88 19.9793 43.024 19.9793C46.864 19.9793 50 22.9773 50 26.6483V35.734C50 39.405 46.864 42.403 43.024 42.403H24.976C21.12 42.403 18 39.405 18 35.734V26.6483C18 22.9773 21.12 19.9793 24.976 19.9793C25.104 19.9793 25.232 19.9181 25.28 19.7957L25.376 19.6122C25.4312 19.5011 25.4878 19.3869 25.5452 19.2711C25.9545 18.446 26.4074 17.5331 26.688 16.9966C27.424 15.6199 28.672 14.8551 30.224 14.8398H37.76C39.312 14.8551 40.576 15.6199 41.312 16.9966C41.564 17.4784 41.948 18.2546 42.3181 19.0027C42.3944 19.157 42.4701 19.3101 42.544 19.4592L42.704 19.7957ZM41.5371 25.6693C41.5371 26.4341 42.1771 27.0459 42.9771 27.0459C43.7771 27.0459 44.4331 26.4341 44.4331 25.6693C44.4331 24.9045 43.7771 24.2773 42.9771 24.2773C42.1771 24.2773 41.5371 24.9045 41.5371 25.6693ZM31.2318 28.0388C31.9838 27.3199 32.9598 26.9375 33.9998 26.9375C35.0398 26.9375 36.0158 27.3199 36.7518 28.0235C37.4878 28.7271 37.8878 29.6602 37.8878 30.6544C37.8718 32.704 36.1438 34.3713 33.9998 34.3713C32.9598 34.3713 31.9838 33.9889 31.2478 33.2853C30.5118 32.5817 30.1118 31.6486 30.1118 30.6544V30.6391C30.0958 29.6755 30.4958 28.7424 31.2318 28.0388ZM38.4332 34.9081C37.2972 35.9941 35.7292 36.6671 34.0012 36.6671C32.3212 36.6671 30.7532 36.04 29.5532 34.9081C28.3692 33.7609 27.7132 32.2619 27.7132 30.6558C27.6972 29.065 28.3532 27.566 29.5372 26.4189C30.7372 25.2717 32.3212 24.6445 34.0012 24.6445C35.6812 24.6445 37.2652 25.2717 38.4492 26.4036C39.6332 27.5507 40.2892 29.065 40.2892 30.6558C40.2732 32.3231 39.5692 33.8221 38.4332 34.9081Z" fill="#FA9D1C"/>
<defs>
<filter id="filter0_d_1_13270" x="0" y="0" width="68" height="68" filterUnits="userSpaceOnUse" color-interpolation-filters="sRGB">
<feFlood flood-opacity="0" result="BackgroundImageFix"/>
<feColorMatrix in="SourceAlpha" type="matrix" values="0 0 0 0 0 0 0 0 0 0 0 0 0 0 0 0 0 0 127 0" result="hardAlpha"/>
<feOffset dy="4"/>
<feGaussianBlur stdDeviation="4"/>
<feComposite in2="hardAlpha" operator="out"/>
<feColorMatrix type="matrix" values="0 0 0 0 0 0 0 0 0 0 0 0 0 0 0 0 0 0 0.25 0"/>
<feBlend mode="normal" in2="BackgroundImageFix" result="effect1_dropShadow_1_13270"/>
<feBlend mode="normal" in="SourceGraphic" in2="effect1_dropShadow_1_13270" result="shape"/>
</filter>
<linearGradient id="paint0_linear_1_13270" x1="34" y1="4" x2="34" y2="56" gradientUnits="userSpaceOnUse">
<stop stop-color="#6F6D6B"/>
<stop offset="1" stop-opacity="0"/>
</linearGradient>
</defs>
</svg>
