<svg width="28" height="28" viewBox="0 0 28 28" fill="none" xmlns="http://www.w3.org/2000/svg">
<rect x="6" y="7" width="16" height="13" fill="white"/>
<path fill-rule="evenodd" clip-rule="evenodd" d="M8.615 2H18.73C22.685 2 25.3333 4.77667 25.3333 8.90667V18.4395C25.3333 22.5578 22.685 25.3333 18.73 25.3333H8.615C4.66 25.3333 2 22.5578 2 18.4395V8.90667C2 4.77667 4.66 2 8.615 2ZM17.1782 17.1662C17.5749 16.7707 17.5749 16.129 17.1782 15.7324L15.1015 13.6557L17.1782 11.5779C17.5749 11.1824 17.5749 10.529 17.1782 10.1324C16.7815 9.73453 16.1399 9.73453 15.7315 10.1324L13.6665 12.2079L11.5899 10.1324C11.1815 9.73453 10.5399 9.73453 10.1432 10.1324C9.74654 10.529 9.74654 11.1824 10.1432 11.5779L12.2199 13.6557L10.1432 15.7207C9.74654 16.129 9.74654 16.7707 10.1432 17.1662C10.3415 17.3645 10.6099 17.4707 10.8665 17.4707C11.1349 17.4707 11.3915 17.3645 11.5899 17.1662L13.6665 15.1024L15.7432 17.1662C15.9415 17.3774 16.1982 17.4707 16.4549 17.4707C16.7232 17.4707 16.9799 17.3645 17.1782 17.1662Z" fill="#FA9D1C"/>
</svg>
