<svg width="367" height="269" viewBox="0 0 367 269" fill="none" xmlns="http://www.w3.org/2000/svg">
<path d="M0 20C0 8.95431 8.95431 0 20 0H347C358.046 0 367 8.9543 367 20V249C367 260.046 358.046 269 347 269H20C8.95431 269 0 260.046 0 249V20Z" fill="#DEE3F0" fill-opacity="0.23"/>
<rect x="16" y="50" width="300" height="36" rx="6" fill="white"/>
<mask id="mask0_1300_2853" style="mask-type:alpha" maskUnits="userSpaceOnUse" x="16" y="50" width="148" height="36">
<mask id="mask1_1300_2853" style="mask-type:alpha" maskUnits="userSpaceOnUse" x="16" y="50" width="148" height="36">
<rect x="16" y="50" width="147.613" height="36" rx="6" fill="white"/>
<rect x="16.5" y="50.5" width="146.613" height="35" rx="5.5" stroke="#C6CBDA" stroke-opacity="0.5"/>
</mask>
<g mask="url(#mask1_1300_2853)">
<rect x="16" y="50" width="148" height="36" rx="6" fill="white"/>
<rect x="16.5" y="50.5" width="147" height="35" rx="5.5" stroke="#C6CBDA" stroke-opacity="0.5"/>
</g>
</mask>
<g mask="url(#mask0_1300_2853)">
<path d="M82 45.4571C66.114 67.5567 29.2935 69.787 -6.50777 69.787C-42.309 69.787 -64 56.856 -64 33.468C-64 10.08 -34.9774 -8.87968 0.823852 -8.87968C36.6251 -8.87968 82 22.0691 82 45.4571ZM-40.784 33.468C-40.784 48.4798 -29.4871 63.5018 -6.50777 63.5018C16.4716 63.5018 46.8238 60.4689 46.8238 45.4571C46.8238 30.4453 23.8032 6.28673 0.823852 6.28673C-22.1555 6.28673 -40.784 18.4562 -40.784 33.468Z" fill="#FA9D1C" fill-opacity="0.1"/>
</g>
<circle cx="299" cy="61" r="5" fill="url(#paint0_linear_1300_2853)"/>
<circle cx="307" cy="69" r="3" fill="url(#paint1_linear_1300_2853)"/>
<path d="M36.4479 68.0007C38.2896 68.0007 39.7812 66.509 39.7812 64.6673C39.7812 62.8257 38.2896 61.334 36.4479 61.334C34.6062 61.334 33.1146 62.8257 33.1146 64.6673C33.1146 66.509 34.6062 68.0007 36.4479 68.0007ZM36.4479 63.0007C37.3646 63.0007 38.1146 63.7507 38.1146 64.6673C38.1146 65.584 37.3646 66.334 36.4479 66.334C35.5312 66.334 34.7812 65.584 34.7812 64.6673C34.7812 63.7507 35.5312 63.0007 36.4479 63.0007ZM36.4479 68.834C34.2229 68.834 29.7812 69.9507 29.7812 72.1673V73.834C29.7812 74.2923 30.1562 74.6673 30.6146 74.6673H42.2812C42.7396 74.6673 43.1146 74.2923 43.1146 73.834V72.1673C43.1146 69.9507 38.6729 68.834 36.4479 68.834ZM41.4479 73.0006H31.4479V72.1757C31.6146 71.5757 34.1979 70.5007 36.4479 70.5007C38.6979 70.5007 41.2812 71.5757 41.4479 72.1673V73.0006Z" fill="#FA9D1C"/>
<rect x="41.3391" y="57.175" width="12.8973" height="6.65" stroke="#FA9D1C" stroke-width="0.35"/>
<rect x="42.75" y="58.0264" width="7.94839" height="1.02667" rx="0.513333" fill="#FA9D1C"/>
<rect x="42.75" y="60.0801" width="4.23914" height="1.02667" rx="0.513333" fill="#FA9D1C"/>
<rect x="42.75" y="61.6201" width="4.23914" height="1.02667" rx="0.513333" fill="#FA9D1C"/>
<rect x="50.1719" y="59.5664" width="2.64946" height="3.08" fill="#FA9D1C"/>
<rect x="16" y="96" width="300" height="36" rx="6" fill="white"/>
<mask id="mask2_1300_2853" style="mask-type:alpha" maskUnits="userSpaceOnUse" x="16" y="96" width="148" height="36">
<mask id="mask3_1300_2853" style="mask-type:alpha" maskUnits="userSpaceOnUse" x="16" y="96" width="148" height="36">
<rect x="16" y="96" width="147.613" height="36" rx="6" fill="white"/>
<rect x="16.5" y="96.5" width="146.613" height="35" rx="5.5" stroke="#C6CBDA" stroke-opacity="0.5"/>
</mask>
<g mask="url(#mask3_1300_2853)">
<rect x="16" y="96" width="148" height="36" rx="6" fill="white"/>
<rect x="16.5" y="96.5" width="147" height="35" rx="5.5" stroke="#C6CBDA" stroke-opacity="0.5"/>
</g>
</mask>
<g mask="url(#mask2_1300_2853)">
<path d="M82 91.4571C66.114 113.557 29.2935 115.787 -6.50777 115.787C-42.309 115.787 -64 102.856 -64 79.468C-64 56.08 -34.9774 37.1203 0.823852 37.1203C36.6251 37.1203 82 68.0691 82 91.4571ZM-40.784 79.468C-40.784 94.4798 -29.4871 109.502 -6.50777 109.502C16.4716 109.502 46.8238 106.469 46.8238 91.4571C46.8238 76.4453 23.8032 52.2867 0.823852 52.2867C-22.1555 52.2867 -40.784 64.4562 -40.784 79.468Z" fill="#FA9D1C" fill-opacity="0.1"/>
</g>
<circle cx="299" cy="107" r="5" fill="url(#paint2_linear_1300_2853)"/>
<circle cx="307" cy="115" r="3" fill="url(#paint3_linear_1300_2853)"/>
<path d="M46.6719 107.333V117.333H36.6719V107.333H46.6719ZM46.6719 105.666H36.6719C35.7552 105.666 35.0052 106.416 35.0052 107.333V117.333C35.0052 118.249 35.7552 118.999 36.6719 118.999H46.6719C47.5885 118.999 48.3385 118.249 48.3385 117.333V107.333C48.3385 106.416 47.5885 105.666 46.6719 105.666ZM39.5885 113.724L40.9969 115.608L43.0635 113.024L45.8385 116.499H37.5052L39.5885 113.724ZM31.6719 108.999V120.666C31.6719 121.583 32.4219 122.333 33.3385 122.333H45.0052V120.666H33.3385V108.999H31.6719Z" fill="#FA9D1C"/>
<rect x="16" y="142" width="300" height="52" rx="6" fill="white"/>
<mask id="mask4_1300_2853" style="mask-type:alpha" maskUnits="userSpaceOnUse" x="16" y="142" width="148" height="36">
<mask id="mask5_1300_2853" style="mask-type:alpha" maskUnits="userSpaceOnUse" x="16" y="142" width="148" height="36">
<rect x="16" y="142" width="147.613" height="36" rx="6" fill="white"/>
<rect x="16.5" y="142.5" width="146.613" height="35" rx="5.5" stroke="#C6CBDA" stroke-opacity="0.5"/>
</mask>
<g mask="url(#mask5_1300_2853)">
<rect x="16" y="142" width="148" height="52" rx="6" fill="white"/>
<rect x="16.5" y="142.5" width="147" height="51" rx="5.5" stroke="#C6CBDA" stroke-opacity="0.5"/>
</g>
</mask>
<g mask="url(#mask4_1300_2853)">
<path d="M91 140.457C75.114 162.557 38.2935 164.787 2.49223 164.787C-33.309 164.787 -55 151.856 -55 128.468C-55 105.08 -25.9774 86.1201 9.82385 86.1201C45.6251 86.1201 91 117.069 91 140.457ZM-31.784 128.468C-31.784 143.48 -20.4871 158.502 2.49223 158.502C25.4716 158.502 55.8238 155.469 55.8238 140.457C55.8238 125.445 32.8032 101.287 9.82385 101.287C-13.1555 101.287 -31.784 113.456 -31.784 128.468Z" fill="#FA9D1C" fill-opacity="0.1"/>
</g>
<circle cx="299" cy="153" r="5" fill="url(#paint4_linear_1300_2853)"/>
<circle cx="307" cy="161" r="3" fill="url(#paint5_linear_1300_2853)"/>
<path opacity="0.3" d="M37.8875 161.434C40.0125 164.959 43.7458 164.659 43.8708 164.651L43.3958 163.609L39.3375 161.751L40.0458 161.426C39.7042 161.367 39.3625 161.334 39.0042 161.334C38.6208 161.334 38.2458 161.376 37.8875 161.434ZM35.7375 162.192C34.2995 163.008 33.2133 164.325 32.6875 165.892C34.1255 165.077 35.2117 163.759 35.7375 162.192V162.192Z" fill="#FA9D1C"/>
<path d="M45.5802 166.958C45.6385 167.299 45.6719 167.641 45.6719 167.999C45.6719 171.674 42.6802 174.666 39.0052 174.666C35.3302 174.666 32.3385 171.674 32.3385 167.999C32.3385 167.958 32.3469 167.916 32.3385 167.883C34.5052 167.066 36.2469 165.391 37.1219 163.258C39.9385 166.708 43.7635 166.366 44.6135 166.266L43.8719 164.658C43.7635 164.666 40.0219 164.974 37.8885 161.441C38.7302 161.308 39.3135 161.316 40.0469 161.433L41.8135 160.624L42.3469 160.383C41.2974 159.906 40.1577 159.662 39.0052 159.666C34.4052 159.666 30.6719 163.399 30.6719 167.999C30.6719 172.599 34.4052 176.333 39.0052 176.333C43.6052 176.333 47.3385 172.599 47.3385 167.999C47.3385 166.808 47.0885 165.683 46.6385 164.658L45.5802 166.958ZM35.7385 162.191C35.2127 163.758 34.1265 165.076 32.6885 165.891C33.2144 164.324 34.3005 163.006 35.7385 162.191V162.191Z" fill="#FA9D1C"/>
<path d="M36.4948 169.874C37.0701 169.874 37.5365 169.408 37.5365 168.833C37.5365 168.257 37.0701 167.791 36.4948 167.791C35.9195 167.791 35.4531 168.257 35.4531 168.833C35.4531 169.408 35.9195 169.874 36.4948 169.874Z" fill="#FA9D1C"/>
<path d="M41.4948 169.874C42.0701 169.874 42.5365 169.408 42.5365 168.833C42.5365 168.257 42.0701 167.791 41.4948 167.791C40.9195 167.791 40.4531 168.257 40.4531 168.833C40.4531 169.408 40.9195 169.874 41.4948 169.874Z" fill="#FA9D1C"/>
<path d="M46.1615 160.834L45.2448 158.834L44.3281 160.834L42.3281 161.751L44.3281 162.667L45.2448 164.667L46.1615 162.667L48.1615 161.751L46.1615 160.834Z" fill="#FA9D1C"/>
<rect x="16" y="204" width="300" height="49" rx="6" fill="white"/>
<mask id="mask6_1300_2853" style="mask-type:alpha" maskUnits="userSpaceOnUse" x="16" y="204" width="148" height="36">
<mask id="mask7_1300_2853" style="mask-type:alpha" maskUnits="userSpaceOnUse" x="16" y="204" width="148" height="36">
<rect x="16" y="204" width="147.613" height="36" rx="6" fill="white"/>
<rect x="16.5" y="204.5" width="146.613" height="35" rx="5.5" stroke="#C6CBDA" stroke-opacity="0.5"/>
</mask>
<g mask="url(#mask7_1300_2853)">
<rect x="16" y="204" width="148" height="36" rx="6" fill="white"/>
<rect x="16.5" y="204.5" width="147" height="35" rx="5.5" stroke="#C6CBDA" stroke-opacity="0.5"/>
</g>
</mask>
<g mask="url(#mask6_1300_2853)">
<path d="M82 199.457C66.114 221.557 29.2935 223.787 -6.50777 223.787C-42.309 223.787 -64 210.856 -64 187.468C-64 164.08 -34.9774 145.12 0.823852 145.12C36.6251 145.12 82 176.069 82 199.457ZM-40.784 187.468C-40.784 202.48 -29.4871 217.502 -6.50777 217.502C16.4716 217.502 46.8238 214.469 46.8238 199.457C46.8238 184.445 23.8032 160.287 0.823852 160.287C-22.1555 160.287 -40.784 172.456 -40.784 187.468Z" fill="#FA9D1C" fill-opacity="0.1"/>
</g>
<circle cx="299" cy="215" r="5" fill="url(#paint6_linear_1300_2853)"/>
<circle cx="307" cy="223" r="3" fill="url(#paint7_linear_1300_2853)"/>
<path d="M38.0525 232.167H41.9467M40 220.5V221.333M45.3033 222.697L44.7142 223.286M47.5 228H46.6667M33.3333 228H32.5M35.2858 223.286L34.6967 222.697M37.0533 230.947C36.4707 230.364 36.074 229.621 35.9133 228.813C35.7526 228.005 35.8352 227.167 36.1506 226.406C36.466 225.645 37.0001 224.994 37.6852 224.536C38.3704 224.078 39.176 223.834 40 223.834C40.824 223.834 41.6296 224.078 42.3148 224.536C42.9999 224.994 43.534 225.645 43.8494 226.406C44.1648 227.167 44.2474 228.005 44.0867 228.813C43.926 229.621 43.5293 230.364 42.9467 230.947L42.49 231.402C42.2289 231.664 42.0218 231.974 41.8806 232.315C41.7393 232.656 41.6666 233.022 41.6667 233.391V233.833C41.6667 234.275 41.4911 234.699 41.1785 235.012C40.8659 235.324 40.442 235.5 40 235.5C39.558 235.5 39.134 235.324 38.8215 235.012C38.5089 234.699 38.3333 234.275 38.3333 233.833V233.391C38.3333 232.645 38.0367 231.929 37.51 231.402L37.0533 230.947Z" stroke="#FA9D1C" stroke-width="2" stroke-linecap="round" stroke-linejoin="round"/>
<defs>
<linearGradient id="paint0_linear_1300_2853" x1="299" y1="60.0625" x2="299" y2="64.125" gradientUnits="userSpaceOnUse">
<stop stop-color="#FA9D1C" stop-opacity="0.82"/>
<stop offset="1" stop-color="#FFCA08"/>
</linearGradient>
<linearGradient id="paint1_linear_1300_2853" x1="307" y1="68.4375" x2="307" y2="70.875" gradientUnits="userSpaceOnUse">
<stop stop-color="#FA9D1C" stop-opacity="0.82"/>
<stop offset="1" stop-color="#FFCA08"/>
</linearGradient>
<linearGradient id="paint2_linear_1300_2853" x1="299" y1="106.062" x2="299" y2="110.125" gradientUnits="userSpaceOnUse">
<stop stop-color="#FA9D1C" stop-opacity="0.82"/>
<stop offset="1" stop-color="#FFCA08"/>
</linearGradient>
<linearGradient id="paint3_linear_1300_2853" x1="307" y1="114.437" x2="307" y2="116.875" gradientUnits="userSpaceOnUse">
<stop stop-color="#FA9D1C" stop-opacity="0.82"/>
<stop offset="1" stop-color="#FFCA08"/>
</linearGradient>
<linearGradient id="paint4_linear_1300_2853" x1="299" y1="152.062" x2="299" y2="156.125" gradientUnits="userSpaceOnUse">
<stop stop-color="#FA9D1C" stop-opacity="0.82"/>
<stop offset="1" stop-color="#FFCA08"/>
</linearGradient>
<linearGradient id="paint5_linear_1300_2853" x1="307" y1="160.437" x2="307" y2="162.875" gradientUnits="userSpaceOnUse">
<stop stop-color="#FA9D1C" stop-opacity="0.82"/>
<stop offset="1" stop-color="#FFCA08"/>
</linearGradient>
<linearGradient id="paint6_linear_1300_2853" x1="299" y1="214.062" x2="299" y2="218.125" gradientUnits="userSpaceOnUse">
<stop stop-color="#FA9D1C" stop-opacity="0.82"/>
<stop offset="1" stop-color="#FFCA08"/>
</linearGradient>
<linearGradient id="paint7_linear_1300_2853" x1="307" y1="222.437" x2="307" y2="224.875" gradientUnits="userSpaceOnUse">
<stop stop-color="#FA9D1C" stop-opacity="0.82"/>
<stop offset="1" stop-color="#FFCA08"/>
</linearGradient>
</defs>
</svg>
