<svg width="20" height="18" viewBox="0 0 20 18" fill="none" xmlns="http://www.w3.org/2000/svg">
<path fill-rule="evenodd" clip-rule="evenodd" d="M15.44 3.2364C15.48 3.30633 15.55 3.35627 15.64 3.35627C18.04 3.35627 20 5.3141 20 7.71143V13.6448C20 16.0422 18.04 18 15.64 18H4.36C1.95 18 0 16.0422 0 13.6448V7.71143C0 5.3141 1.95 3.35627 4.36 3.35627C4.44 3.35627 4.52 3.31632 4.55 3.2364L4.61 3.11654C4.64448 3.04397 4.67987 2.96943 4.71579 2.89376C4.97161 2.35492 5.25463 1.75879 5.43 1.40844C5.89 0.509434 6.67 0.0099889 7.64 0H12.35C13.32 0.0099889 14.11 0.509434 14.57 1.40844C14.7275 1.72308 14.9674 2.2299 15.1987 2.71839C15.2464 2.81921 15.2938 2.91924 15.34 3.01665L15.44 3.2364ZM14.7109 7.07224C14.7109 7.57168 15.1109 7.97124 15.6109 7.97124C16.1109 7.97124 16.5209 7.57168 16.5209 7.07224C16.5209 6.57279 16.1109 6.16325 15.6109 6.16325C15.1109 6.16325 14.7109 6.57279 14.7109 7.07224ZM8.2706 8.61959C8.7406 8.15011 9.3506 7.90039 10.0006 7.90039C10.6506 7.90039 11.2606 8.15011 11.7206 8.6096C12.1806 9.06909 12.4306 9.67841 12.4306 10.3277C12.4206 11.6662 11.3406 12.755 10.0006 12.755C9.3506 12.755 8.7406 12.5053 8.2806 12.0458C7.8206 11.5863 7.5706 10.977 7.5706 10.3277V10.3177C7.5606 9.6884 7.8106 9.07908 8.2706 8.61959ZM12.7705 13.1049C12.0605 13.8141 11.0805 14.2536 10.0005 14.2536C8.95049 14.2536 7.97049 13.8441 7.22049 13.1049C6.48049 12.3557 6.07049 11.3768 6.07049 10.328C6.06049 9.28914 6.47049 8.31022 7.21049 7.56106C7.96049 6.81189 8.95049 6.40234 10.0005 6.40234C11.0505 6.40234 12.0405 6.81189 12.7805 7.55107C13.5205 8.30024 13.9305 9.28914 13.9305 10.328C13.9205 11.4168 13.4805 12.3957 12.7705 13.1049Z" fill="#FA9D1C"/>
</svg>
