<svg width="159" height="231" viewBox="0 0 159 231" fill="none" xmlns="http://www.w3.org/2000/svg">
<path d="M1.46875 106.159L4.27427 105.951C40.3637 103.305 76.7544 106.058 111.58 114.068V114.068" stroke="#506698" stroke-opacity="0.2" stroke-width="0.225189" stroke-miterlimit="10"/>
<path d="M3.09375 95.9594H5.89927C42.1484 95.9057 78.092 101.253 111.886 111.728V111.728" stroke="#506698" stroke-opacity="0.2" stroke-width="0.225189" stroke-miterlimit="10"/>
<path d="M5.85155 85.918L8.65707 86.1171C44.7599 88.6595 79.9526 96.557 112.43 109.405V109.405" stroke="#506698" stroke-opacity="0.2" stroke-width="0.225189" stroke-miterlimit="10"/>
<path d="M9.73438 76.1162L12.4983 76.5146C48.1872 81.6281 82.3688 92.0137 113.289 107.139V107.139" stroke="#506698" stroke-opacity="0.2" stroke-width="0.225189" stroke-miterlimit="10"/>
<path d="M14.6953 66.6309L17.4073 67.2201C52.3598 74.8746 85.2193 87.6664 114.302 104.94V104.94" stroke="#506698" stroke-opacity="0.2" stroke-width="0.225189" stroke-miterlimit="10"/>
<path d="M20.7031 57.5342L23.3424 58.3641C57.2945 68.4886 88.5859 83.5799 115.613 102.864V102.864" stroke="#506698" stroke-opacity="0.2" stroke-width="0.225189" stroke-miterlimit="10"/>
<path d="M27.7031 48.9111L30.2385 49.907C62.9206 62.4214 92.3941 79.6941 117.147 100.839V100.839" stroke="#506698" stroke-opacity="0.2" stroke-width="0.225189" stroke-miterlimit="10"/>
<path d="M35.6562 40.8193L38.0669 41.9646C69.211 56.7698 96.6263 76.0828 118.908 98.9138V98.9138" stroke="#506698" stroke-opacity="0.2" stroke-width="0.225189" stroke-miterlimit="10"/>
<path d="M44.4688 33.3086L46.7443 34.6199C76.1033 51.5955 101.242 72.7942 120.872 97.1295V97.1295" stroke="#506698" stroke-opacity="0.2" stroke-width="0.225189" stroke-miterlimit="10"/>
<path d="M54.0859 26.5039L56.1641 27.9812C83.5012 46.9852 106.16 69.8956 122.977 95.5367V95.5367" stroke="#506698" stroke-opacity="0.2" stroke-width="0.225189" stroke-miterlimit="10"/>
<path d="M64.4453 20.3955L66.3676 22.0139C91.4587 42.9011 111.453 67.3423 125.325 94.0842V94.0842" stroke="#506698" stroke-opacity="0.2" stroke-width="0.225189" stroke-miterlimit="10"/>
<path d="M75.4375 15.0508L77.1935 16.8019C99.8385 39.4033 117.01 65.1783 127.828 92.8061V92.8061" stroke="#506698" stroke-opacity="0.2" stroke-width="0.225189" stroke-miterlimit="10"/>
<path d="M87 10.5107L88.5482 12.3864C108.566 36.5176 122.774 63.4187 130.444 91.7102V91.7102" stroke="#506698" stroke-opacity="0.2" stroke-width="0.225189" stroke-miterlimit="10"/>
<path d="M99.0078 6.81738L100.338 8.79259C117.568 34.2596 128.7 62.0699 133.162 90.7971" stroke="#506698" stroke-opacity="0.2" stroke-width="0.225189" stroke-miterlimit="10"/>
<path d="M111.383 4.00391L112.495 6.07041C126.794 32.6684 134.761 61.162 135.988 90.0916V90.0916" stroke="#506698" stroke-opacity="0.2" stroke-width="0.225189" stroke-miterlimit="10"/>
<path d="M124.023 2.08789L124.896 4.26228C136.156 31.7766 140.892 60.7267 138.862 89.628V89.628" stroke="#506698" stroke-opacity="0.2" stroke-width="0.225189" stroke-miterlimit="10"/>
<path d="M136.836 1.08289L137.459 3.26558C145.588 31.4776 147.057 60.6529 141.792 89.2952V89.2952" stroke="#506698" stroke-opacity="0.2" stroke-width="0.225189" stroke-miterlimit="10"/>
<path d="M149.717 1L150.091 3.22419C155.018 31.9029 153.206 61.0639 144.75 89.2123V89.2123" stroke="#506698" stroke-opacity="0.2" stroke-width="0.225189" stroke-miterlimit="10"/>
<path d="M162.533 1.83789L162.668 4.07868C164.355 32.9942 159.278 61.9075 147.695 89.3365V89.3365" stroke="#506698" stroke-opacity="0.2" stroke-width="0.225189" stroke-miterlimit="10"/>
<path d="M175.223 3.58984L175.098 5.83063C173.535 34.7442 165.233 63.1711 150.617 89.6526V89.6526" stroke="#506698" stroke-opacity="0.2" stroke-width="0.225189" stroke-miterlimit="10"/>
<path d="M187.665 6.24512L187.291 8.46931C182.484 37.1612 171.025 64.8863 153.5 90.2248V90.2248" stroke="#506698" stroke-opacity="0.2" stroke-width="0.225189" stroke-miterlimit="10"/>
<path d="M199.744 9.78027L199.12 11.963C191.117 40.1969 176.592 66.9912 156.289 90.9714V90.9714" stroke="#506698" stroke-opacity="0.2" stroke-width="0.225189" stroke-miterlimit="10"/>
<path d="M211.388 14.1621L210.526 16.295C199.383 43.8396 181.913 69.4847 159.008 91.9174V91.9174" stroke="#506698" stroke-opacity="0.2" stroke-width="0.225189" stroke-miterlimit="10"/>
<path d="M201.897 220.472L200.349 218.605C180.329 194.475 166.121 167.573 158.453 139.281V139.281" stroke="#506698" stroke-opacity="0.2" stroke-width="0.225189" stroke-miterlimit="10"/>
<path d="M189.889 224.191L188.559 222.216C171.323 196.742 160.191 168.923 155.734 140.187V140.187" stroke="#506698" stroke-opacity="0.2" stroke-width="0.225189" stroke-miterlimit="10"/>
<path d="M177.551 226.987L176.439 224.921C162.14 198.323 154.173 169.829 152.945 140.899V140.899" stroke="#506698" stroke-opacity="0.2" stroke-width="0.225189" stroke-miterlimit="10"/>
<path d="M164.86 228.904L163.987 226.771C152.723 199.255 147.987 170.302 150.022 141.397V141.397" stroke="#506698" stroke-opacity="0.2" stroke-width="0.225189" stroke-miterlimit="10"/>
<path d="M152.052 229.909L151.418 227.718C143.293 199.508 141.827 170.335 147.096 141.696V141.696" stroke="#506698" stroke-opacity="0.2" stroke-width="0.225189" stroke-miterlimit="10"/>
<path d="M139.181 230L138.796 227.776C133.873 199.097 135.688 169.936 144.148 141.788V141.788" stroke="#506698" stroke-opacity="0.2" stroke-width="0.225189" stroke-miterlimit="10"/>
<path d="M126.359 229.17L126.224 226.93C124.532 198.009 129.606 169.09 141.187 141.655V141.655" stroke="#506698" stroke-opacity="0.2" stroke-width="0.225189" stroke-miterlimit="10"/>
<path d="M113.672 227.403L113.797 225.162C115.359 196.248 123.661 167.821 138.277 141.34V141.34" stroke="#506698" stroke-opacity="0.2" stroke-width="0.225189" stroke-miterlimit="10"/>
<path d="M101.227 224.746L101.601 222.522C106.403 193.829 117.862 166.104 135.392 140.767V140.767" stroke="#506698" stroke-opacity="0.2" stroke-width="0.225189" stroke-miterlimit="10"/>
<path d="M89.1406 221.212L89.7641 219.021C97.7669 190.789 112.292 163.998 132.595 140.021V140.021" stroke="#506698" stroke-opacity="0.2" stroke-width="0.225189" stroke-miterlimit="10"/>
<path d="M77.5078 216.83L78.3703 214.688C89.506 187.144 106.977 161.501 129.888 139.074V139.074" stroke="#506698" stroke-opacity="0.2" stroke-width="0.225189" stroke-miterlimit="10"/>
<path d="M66.3672 211.626L67.4686 209.56C81.6552 182.925 101.935 158.636 127.268 137.938V137.938" stroke="#506698" stroke-opacity="0.2" stroke-width="0.225189" stroke-miterlimit="10"/>
<path d="M55.9766 205.65L57.3066 203.675C74.4264 178.163 97.3484 155.422 124.899 136.617V136.617" stroke="#506698" stroke-opacity="0.2" stroke-width="0.225189" stroke-miterlimit="10"/>
<path d="M46.1562 198.953L47.6629 197.077C67.5633 172.894 92.9349 151.887 122.477 135.132V135.132" stroke="#506698" stroke-opacity="0.2" stroke-width="0.225189" stroke-miterlimit="10"/>
<path d="M37.1953 191.583L38.941 189.824C61.4766 167.163 89.103 148.055 120.405 133.48V133.48" stroke="#506698" stroke-opacity="0.2" stroke-width="0.225189" stroke-miterlimit="10"/>
<path d="M29.0861 183.591L31.0188 181.931C56.0167 160.971 85.6915 143.92 118.52 131.654V131.654" stroke="#506698" stroke-opacity="0.2" stroke-width="0.225189" stroke-miterlimit="10"/>
<path d="M21.9062 175.059L23.9844 173.582C51.2368 154.499 82.7044 139.642 116.774 129.771V129.771" stroke="#506698" stroke-opacity="0.2" stroke-width="0.225189" stroke-miterlimit="10"/>
<path d="M15.7188 166.046L17.9943 164.727C47.2761 147.671 80.2842 135.126 115.325 127.737V127.737" stroke="#506698" stroke-opacity="0.2" stroke-width="0.225189" stroke-miterlimit="10"/>
<path d="M10.5625 156.626L12.9732 155.473C44.0508 140.579 78.3349 130.446 114.066 125.596V125.596" stroke="#506698" stroke-opacity="0.2" stroke-width="0.225189" stroke-miterlimit="10"/>
<path d="M6.48438 146.875L9.00935 145.896C41.6384 133.296 76.9219 125.663 113.053 123.389V123.389" stroke="#506698" stroke-opacity="0.2" stroke-width="0.225189" stroke-miterlimit="10"/>
<path d="M3.51562 136.875L6.1445 136.045C40.0585 125.839 76.058 120.772 112.297 121.106V121.106" stroke="#506698" stroke-opacity="0.2" stroke-width="0.225189" stroke-miterlimit="10"/>
<path d="M1.6875 126.7L4.38911 126.094C39.3103 118.353 75.7316 115.876 111.789 118.791V118.791" stroke="#506698" stroke-opacity="0.2" stroke-width="0.225189" stroke-miterlimit="10"/>
<path d="M1 116.433L3.76396 116.027C39.4111 110.808 75.9642 110.946 111.548 116.433V116.433" stroke="#506698" stroke-opacity="0.2" stroke-width="0.225189" stroke-miterlimit="10"/>
</svg>
