<svg width="28" height="28" viewBox="0 0 28 28" fill="none" xmlns="http://www.w3.org/2000/svg">
<g clip-path="url(#clip0_4104_22892)">
<mask id="mask0_4104_22892" style="mask-type:alpha" maskUnits="userSpaceOnUse" x="2" y="4" width="21" height="17">
<path fill-rule="evenodd" clip-rule="evenodd" d="M5.36345 7.45051C6.14421 6.22188 7.04574 5.05687 8.46615 4.60946C9.79715 4.19021 11.0978 4.70174 12.3384 5.25351C13.8188 5.91195 15.1458 6.64491 16.0107 7.96496C18.4454 11.6811 24.5627 15.8168 21.555 19.3212C18.6254 22.7346 13.5468 17.1438 9.27864 15.8089C6.97881 15.0895 3.82413 15.5728 2.83762 13.4667C1.89003 11.4437 4.12436 9.4004 5.36345 7.45051Z" fill="#FCEA60"/>
</mask>
<g mask="url(#mask0_4104_22892)">
<rect x="0.15625" y="6.03821" width="22.1992" height="22.1992" transform="rotate(-14.5168 0.15625 6.03821)" fill="#FCEA60"/>
</g>
</g>
<path d="M16.6009 21.2164V21.0522C16.6009 19.6461 17.12 18.2966 18.0626 17.2525C19.108 16.0921 19.6841 14.5942 19.6841 13.0347C19.6841 11.3019 18.9597 9.62773 17.697 8.441C16.4158 7.23721 14.7392 6.6348 12.9776 6.74408C9.72689 6.94617 7.13575 9.65997 7.07905 12.9224C7.05196 14.5155 7.6218 16.0471 8.68351 17.2357C9.63556 18.2985 10.1598 19.6222 10.1598 20.9632V21.2169C10.1598 21.6782 10.5362 22.0535 10.9986 22.0535H15.7626C16.225 22.0532 16.6013 21.6779 16.6013 21.2166L16.6009 21.2164ZM11.739 12.5244H11.0734C10.898 12.5244 10.732 12.4477 10.6181 12.3139C10.514 12.1914 10.4686 12.0397 10.4905 11.8859C10.4907 11.8846 10.4911 11.883 10.4916 11.8817C10.4933 11.8757 10.4946 11.8694 10.4957 11.863C10.5471 11.572 10.7863 11.3327 11.0778 11.2809C11.0836 11.2798 11.0893 11.2785 11.0952 11.2773C11.097 11.2771 11.0994 11.2765 11.1012 11.276C11.2553 11.2544 11.4062 11.2996 11.5285 11.4037C11.6623 11.5176 11.739 11.6835 11.739 11.859L11.7386 12.5244L11.739 12.5244ZM14.4972 21.528H12.2638V13.0493H14.4972V21.528ZM16.0762 21.2163C16.0762 21.3882 15.9353 21.528 15.7623 21.528H15.022V13.0493H15.6876C16.0169 13.0493 16.3285 12.9052 16.5423 12.6542C16.7473 12.4135 16.8364 12.0992 16.7872 11.7922C16.7855 11.7823 16.7835 11.7724 16.7806 11.7627C16.6874 11.2573 16.2878 10.8581 15.7824 10.7655C15.7732 10.7629 15.7641 10.7607 15.7546 10.7594C15.4483 10.71 15.1335 10.799 14.8925 11.004C14.6414 11.2178 14.4975 11.5294 14.4975 11.859V12.5242H12.2641V11.859C12.2641 11.5297 12.12 11.218 11.869 11.004C11.6281 10.7988 11.3129 10.7098 11.007 10.7594C10.9975 10.7611 10.9881 10.7631 10.9792 10.7655C10.4732 10.8581 10.0732 11.2581 9.98046 11.764C9.97789 11.7732 9.9757 11.7827 9.97441 11.7921C9.92499 12.099 10.014 12.4132 10.2193 12.6541C10.4332 12.9052 10.7447 13.0491 11.074 13.0491H11.7396L11.7392 21.5279H10.9989C10.826 21.5279 10.685 21.388 10.685 21.2161V20.9624C10.685 19.4921 10.113 18.0438 9.07469 16.8848C8.10156 15.7955 7.57914 14.3913 7.60402 12.9309C7.65601 9.94031 10.0306 7.45269 13.0105 7.26712C13.1357 7.25925 13.2604 7.25559 13.3845 7.25559C14.8626 7.25559 16.255 7.80458 17.3383 8.8227C18.5129 9.92672 19.1598 11.4223 19.1598 13.034C19.1598 14.4631 18.6319 15.8364 17.6734 16.9003C16.6437 18.0412 16.0768 19.5151 16.0768 21.0517V21.2159L16.0762 21.2163ZM15.022 12.5243V11.8591C15.022 11.6837 15.0987 11.5177 15.2325 11.4038C15.3548 11.2993 15.5055 11.2543 15.6603 11.2762C15.662 11.2764 15.6634 11.2768 15.6651 11.2773C15.6711 11.279 15.6772 11.2803 15.6834 11.2814C15.9744 11.3328 16.2137 11.5721 16.2651 11.8635C16.2664 11.8703 16.2677 11.8772 16.2695 11.884C16.2697 11.8851 16.2701 11.886 16.2703 11.8871C16.2919 12.0407 16.2466 12.1921 16.1425 12.3144C16.0286 12.448 15.8628 12.5249 15.6874 12.5249L15.022 12.5245L15.022 12.5243Z" fill="black"/>
<path d="M15.5752 24.0879H11.206C10.8425 24.0879 10.5469 24.3837 10.5469 24.7471V24.8649C10.5469 25.2285 10.8427 25.5241 11.206 25.5241H15.5752C15.9387 25.5241 16.2343 25.2283 16.2343 24.8649L16.2345 24.7471C16.2345 24.3837 15.9389 24.0879 15.5752 24.0879H15.5752ZM15.7095 24.865C15.7095 24.9389 15.6491 24.9993 15.5752 24.9993H11.206C11.1321 24.9993 11.0717 24.9389 11.0717 24.865V24.7471C11.0717 24.6731 11.1321 24.6127 11.206 24.6127H15.5752C15.6491 24.6127 15.7095 24.6731 15.7095 24.7471V24.865Z" fill="black"/>
<path d="M16.2345 23.0187C16.2345 22.6552 15.9387 22.3596 15.5754 22.3596L11.206 22.3594C10.8425 22.3594 10.5469 22.6552 10.5469 23.0185V23.1364C10.5469 23.5 10.8427 23.7956 11.206 23.7956H15.5752C15.9387 23.7956 16.2343 23.4998 16.2343 23.1364L16.2345 23.0187ZM15.7095 23.1362C15.7095 23.2102 15.6491 23.2706 15.5752 23.2706H11.206C11.1321 23.2706 11.0717 23.2102 11.0717 23.1362V23.0184C11.0717 22.9444 11.1321 22.884 11.206 22.884H15.5752C15.6491 22.884 15.7095 22.9444 15.7095 23.0184V23.1362Z" fill="black"/>
<path d="M13.65 5.32446V2.2625C13.65 2.11771 13.5325 2 13.3875 2C13.2427 2 13.125 2.11752 13.125 2.2625V5.32446C13.125 5.46926 13.2425 5.58697 13.3875 5.58697C13.5323 5.58697 13.65 5.46945 13.65 5.32446Z" fill="black"/>
<path d="M20.6916 2.9735C20.5889 2.87081 20.423 2.87081 20.3205 2.9735L18.1551 5.13886C18.0525 5.24155 18.0525 5.4074 18.1551 5.50991C18.2064 5.56117 18.2736 5.58679 18.3408 5.58679C18.4079 5.58679 18.4751 5.56116 18.5264 5.50991L20.6917 3.34456C20.7942 3.24223 20.7942 3.0762 20.6915 2.9735H20.6916Z" fill="black"/>
<path d="M8.61343 5.50985C8.71612 5.40716 8.71612 5.24131 8.61343 5.1388L6.44807 2.97344C6.34538 2.87075 6.17953 2.87075 6.07702 2.97344C5.97433 3.07614 5.97433 3.24199 6.07702 3.3445L8.24237 5.50985C8.29363 5.56111 8.36081 5.58673 8.42799 5.58673C8.49499 5.58673 8.56217 5.56129 8.61342 5.50985H8.61343Z" fill="black"/>
<defs>
<clipPath id="clip0_4104_22892">
<rect width="22.1992" height="22.1992" fill="white" transform="translate(0 5.56445) rotate(-14.5168)"/>
</clipPath>
</defs>
</svg>
