<svg width="20" height="20" viewBox="0 0 20 20" fill="none" xmlns="http://www.w3.org/2000/svg">
<path opacity="0.3" d="M8.8875 3.43398C11.0125 6.95898 14.7458 6.65898 14.8708 6.65065L14.3958 5.60898L10.3375 3.75065L11.0458 3.42565C10.7042 3.36732 10.3625 3.33398 10.0042 3.33398C9.62083 3.33398 9.24583 3.37565 8.8875 3.43398ZM6.7375 4.19232C5.29951 5.00753 4.21333 6.32519 3.6875 7.89232C5.12549 7.07711 6.21167 5.75945 6.7375 4.19232V4.19232Z" fill="#FA9D1C"/>
<path d="M16.5802 8.95773C16.6385 9.2994 16.6719 9.64107 16.6719 9.9994C16.6719 13.6744 13.6802 16.6661 10.0052 16.6661C6.33021 16.6661 3.33854 13.6744 3.33854 9.9994C3.33854 9.95773 3.34688 9.91607 3.33854 9.88273C5.50521 9.06607 7.24688 7.39107 8.12188 5.25773C10.9385 8.70773 14.7635 8.36607 15.6135 8.26607L14.8719 6.65773C14.7635 6.66607 11.0219 6.9744 8.88854 3.44107C9.73021 3.30773 10.3135 3.31607 11.0469 3.43273L12.8135 2.6244L13.3469 2.38273C12.2974 1.90642 11.1577 1.66198 10.0052 1.66607C5.40521 1.66607 1.67188 5.3994 1.67188 9.9994C1.67188 14.5994 5.40521 18.3327 10.0052 18.3327C14.6052 18.3327 18.3385 14.5994 18.3385 9.9994C18.3385 8.80773 18.0885 7.68273 17.6385 6.65773L16.5802 8.95773ZM6.73854 4.19107C6.21272 5.7582 5.12653 7.07586 3.68854 7.89107C4.21437 6.32394 5.30055 5.00627 6.73854 4.19107V4.19107Z" fill="#FA9D1C"/>
<path d="M7.49479 11.8743C8.07009 11.8743 8.53646 11.408 8.53646 10.8327C8.53646 10.2574 8.07009 9.79102 7.49479 9.79102C6.9195 9.79102 6.45312 10.2574 6.45312 10.8327C6.45312 11.408 6.9195 11.8743 7.49479 11.8743Z" fill="#FA9D1C"/>
<path d="M12.4948 11.8743C13.0701 11.8743 13.5365 11.408 13.5365 10.8327C13.5365 10.2574 13.0701 9.79102 12.4948 9.79102C11.9195 9.79102 11.4531 10.2574 11.4531 10.8327C11.4531 11.408 11.9195 11.8743 12.4948 11.8743Z" fill="#FA9D1C"/>
<path d="M17.1615 2.83398L16.2448 0.833984L15.3281 2.83398L13.3281 3.75065L15.3281 4.66732L16.2448 6.66732L17.1615 4.66732L19.1615 3.75065L17.1615 2.83398Z" fill="#FA9D1C"/>
</svg>
