<svg width="14" height="14" viewBox="0 0 14 14" fill="none" xmlns="http://www.w3.org/2000/svg">
<mask id="mask0_82_1332" style="mask-type:luminance" maskUnits="userSpaceOnUse" x="0" y="0" width="13" height="13">
<path fill-rule="evenodd" clip-rule="evenodd" d="M0 0H12.9845V12.9847H0V0Z" fill="white"/>
</mask>
<g mask="url(#mask0_82_1332)">
<path fill-rule="evenodd" clip-rule="evenodd" d="M6.49267 1C3.464 1 1 3.46333 1 6.492C1 9.52067 3.464 11.9847 6.49267 11.9847C9.52067 11.9847 11.9847 9.52067 11.9847 6.492C11.9847 3.46333 9.52067 1 6.49267 1ZM6.49267 12.9847C2.91267 12.9847 0 10.072 0 6.492C0 2.912 2.91267 0 6.49267 0C10.0727 0 12.9847 2.912 12.9847 6.492C12.9847 10.072 10.0727 12.9847 6.49267 12.9847Z" fill="#636772"/>
</g>
<mask id="mask1_82_1332" style="mask-type:luminance" maskUnits="userSpaceOnUse" x="10" y="10" width="4" height="4">
<path fill-rule="evenodd" clip-rule="evenodd" d="M10.1602 10.4717H13.5095V13.8148H10.1602V10.4717Z" fill="white"/>
</mask>
<g mask="url(#mask1_82_1332)">
<path fill-rule="evenodd" clip-rule="evenodd" d="M13.0097 13.8148C12.8823 13.8148 12.7543 13.7662 12.6563 13.6688L10.307 11.3262C10.1117 11.1308 10.111 10.8142 10.3063 10.6188C10.501 10.4222 10.8177 10.4235 11.0137 10.6175L13.363 12.9608C13.5583 13.1562 13.559 13.4722 13.3637 13.6675C13.2663 13.7662 13.1377 13.8148 13.0097 13.8148Z" fill="#636772"/>
</g>
</svg>
