<svg width="72" height="72" viewBox="0 0 72 72" fill="none" xmlns="http://www.w3.org/2000/svg">
<rect width="72" height="72" fill="#E5E5E5"/>
<g id="Frame 37451" clip-path="url(#clip0_381_16618)">
<rect width="37466" height="25129" transform="translate(-5374 -1441)" fill="#EAF0FF"/>
<g id="Frame 37320" clip-path="url(#clip1_381_16618)">
<rect width="360" height="780" transform="translate(-216 -202)" fill="white"/>
<path id="Vector" opacity="0.1" d="M58.6858 0H13.3142C5.96096 0 0 5.96096 0 13.3142V58.6826C0 66.0358 5.96096 71.9967 13.3142 71.9967H58.6858C66.039 71.9967 72 66.0358 72 58.6826V13.3142C72 5.96096 66.039 0 58.6858 0Z" fill="#FA9D1C"/>
<g id="Group 37069">
<path id="Vector_2" d="M54.5473 21.3242H19.4521C18.1464 21.3413 16.9004 21.8741 15.9862 22.8065C15.072 23.7389 14.5637 24.9951 14.5724 26.3009V46.9831C14.5637 48.2889 15.072 49.5451 15.9862 50.4775C16.9004 51.4099 18.1464 51.9427 19.4521 51.9598H54.5473C55.853 51.9427 57.0989 51.4099 58.0131 50.4775C58.9274 49.5451 59.4356 48.2889 59.427 46.9831V26.3009C59.4356 24.9951 58.9274 23.7389 58.0131 22.8065C57.0989 21.8741 55.853 21.3413 54.5473 21.3242V21.3242ZM16.9638 35.0262H57.0356V46.9831C57.0443 47.6547 56.788 48.3027 56.3222 48.7866C55.8564 49.2706 55.2187 49.5514 54.5473 49.5684H19.4521C19.1183 49.5642 18.7886 49.4938 18.4823 49.3612C18.1759 49.2286 17.899 49.0364 17.6675 48.7959C17.436 48.5554 17.2546 48.2713 17.1338 47.9601C17.013 47.6489 16.9552 47.3168 16.9638 46.9831V35.0262ZM57.0356 26.9795H16.9638V26.3009C16.9551 25.9687 17.0131 25.6382 17.1343 25.3288C17.2555 25.0194 17.4374 24.7374 17.6693 24.4994C17.9012 24.2615 18.1785 24.0724 18.4847 23.9433C18.7909 23.8142 19.1198 23.7478 19.4521 23.7479H54.5473C54.8783 23.7521 55.2052 23.8215 55.5094 23.9521C55.8136 24.0827 56.0892 24.2719 56.3202 24.509C56.5513 24.7461 56.7334 25.0263 56.8561 25.3338C56.9789 25.6412 57.0399 25.9699 57.0356 26.3009V26.9795ZM16.9638 29.3709H57.0356V32.6025H16.9638V29.3709Z" fill="#FA9D1C"/>
<path id="Vector_3" d="M21.2941 42.5565H32.3785C32.6659 42.5094 32.9273 42.3617 33.1158 42.1397C33.3044 41.9177 33.4079 41.6359 33.4079 41.3447C33.4079 41.0534 33.3044 40.7716 33.1158 40.5496C32.9273 40.3276 32.6659 40.1799 32.3785 40.1328H21.2941C21.0067 40.1799 20.7453 40.3276 20.5568 40.5496C20.3682 40.7716 20.2646 41.0534 20.2646 41.3447C20.2646 41.6359 20.3682 41.9177 20.5568 42.1397C20.7453 42.3617 21.0067 42.5094 21.2941 42.5565V42.5565Z" fill="#FA9D1C"/>
<path id="Vector_4" d="M21.2947 46.3054H32.379C32.6962 46.3054 33.0003 46.1795 33.2245 45.9552C33.4488 45.731 33.5747 45.4269 33.5747 45.1098C33.5666 44.7952 33.438 44.4958 33.2155 44.2733C32.993 44.0508 32.6936 43.9222 32.379 43.9141H21.2947C20.9832 43.9225 20.6873 44.0522 20.47 44.2755C20.2527 44.4988 20.1312 44.7982 20.1313 45.1098C20.127 45.2652 20.1539 45.42 20.2104 45.5649C20.2669 45.7098 20.352 45.8419 20.4604 45.9534C20.5689 46.0648 20.6986 46.1534 20.8419 46.2139C20.9852 46.2744 21.1391 46.3055 21.2947 46.3054V46.3054Z" fill="#FA9D1C"/>
<path id="Vector_5" d="M48.9889 46.3045H50.8309C51.2325 46.3045 51.6302 46.2249 52.0009 46.0702C52.3715 45.9155 52.7079 45.6889 52.9904 45.4034C53.2729 45.1179 53.496 44.7792 53.6467 44.4069C53.7974 44.0346 53.8729 43.6361 53.8686 43.2345V41.3601C53.8729 40.957 53.7977 40.5569 53.6473 40.1828C53.497 39.8087 53.2744 39.4679 52.9923 39.1798C52.7102 38.8917 52.3742 38.662 52.0033 38.5038C51.6324 38.3456 51.2341 38.262 50.8309 38.2578H48.9889C48.1773 38.2747 47.4047 38.609 46.8369 39.189C46.269 39.769 45.951 40.5484 45.9512 41.3601V43.2345C45.9511 44.0431 46.2701 44.8191 46.8389 45.394C47.4077 45.9688 48.1803 46.296 48.9889 46.3045V46.3045ZM48.3426 41.3601C48.3382 41.2726 48.3516 41.1851 48.3822 41.1029C48.4127 41.0207 48.4596 40.9456 48.52 40.8821C48.5805 40.8186 48.6532 40.7681 48.7338 40.7336C48.8144 40.6991 48.9012 40.6814 48.9889 40.6815H50.8309C51.0109 40.6815 51.1835 40.753 51.3108 40.8803C51.438 41.0076 51.5095 41.1802 51.5095 41.3601V43.2345C51.5095 43.4145 51.438 43.5871 51.3108 43.7143C51.1835 43.8416 51.0109 43.9131 50.8309 43.9131H48.9889C48.8145 43.9048 48.6501 43.8297 48.5298 43.7033C48.4094 43.5769 48.3424 43.409 48.3426 43.2345V41.3601Z" fill="#FA9D1C"/>
</g>
</g>
</g>
<defs>
<clipPath id="clip0_381_16618">
<rect width="37466" height="25129" fill="white" transform="translate(-5374 -1441)"/>
</clipPath>
<clipPath id="clip1_381_16618">
<rect width="360" height="780" fill="white" transform="translate(-216 -202)"/>
</clipPath>
</defs>
</svg>
