<svg width="93" height="93" viewBox="0 0 93 93" fill="none" xmlns="http://www.w3.org/2000/svg">
<g filter="url(#filter0_d_382_22879)">
<rect x="20" y="10" width="53" height="53" rx="15.4583" fill="#A04B9E"/>
<path d="M34.0764 23.2511C33.8576 23.2515 33.6479 23.3386 33.4931 23.4931C33.3382 23.6476 33.2507 23.8572 33.25 24.0761V30.5502C33.25 30.8463 33.4079 31.1198 33.6644 31.2679C33.9208 31.4159 34.2369 31.4159 34.4932 31.2679C34.7498 31.1198 34.9076 30.8463 34.9076 30.5502V24.9074H40.549C40.8404 24.901 41.1072 24.7418 41.251 24.4882C41.395 24.2346 41.395 23.9241 41.251 23.6705C41.1072 23.4169 40.8404 23.2578 40.549 23.2513L34.0764 23.2511ZM52.3716 23.2511C52.0805 23.2717 51.8215 23.4436 51.6898 23.704C51.5582 23.9644 51.5729 24.2749 51.729 24.5215C51.885 24.7683 52.1591 24.9147 52.4509 24.9073H58.0922V30.55C58.0922 30.8461 58.2501 31.1197 58.5067 31.2677C58.763 31.4158 59.0791 31.4158 59.3355 31.2677C59.592 31.1197 59.7499 30.8461 59.7499 30.55V24.0759C59.7492 23.8561 59.661 23.6459 59.5052 23.4913C59.3492 23.3366 59.1383 23.25 58.9187 23.251H52.4512C52.4247 23.2497 52.3981 23.2498 52.3716 23.2511ZM34.0636 41.6146C33.8451 41.6183 33.637 41.7085 33.4847 41.8651C33.3322 42.0216 33.248 42.2321 33.2502 42.4506V48.9186C33.2493 49.1384 33.3359 49.3496 33.491 49.5054C33.6459 49.6614 33.8566 49.7494 34.0766 49.7498H40.5493C40.7722 49.7548 40.9875 49.6698 41.1469 49.5139C41.3062 49.3581 41.396 49.1446 41.396 48.9217C41.396 48.6988 41.3062 48.4853 41.1469 48.3295C40.9875 48.1736 40.7722 48.0886 40.5493 48.0936H34.908V42.4509C34.9102 42.227 34.8217 42.0119 34.6627 41.8544C34.5037 41.6969 34.2875 41.6102 34.0636 41.6146ZM58.9058 41.6146C58.6874 41.6183 58.4792 41.7085 58.3269 41.8651C58.1744 42.0216 58.0902 42.2321 58.0924 42.4506V48.0934H52.4511C52.1596 48.0998 51.8929 48.259 51.7491 48.5126C51.6051 48.7662 51.6051 49.0767 51.7491 49.3303C51.8929 49.5839 52.1596 49.743 52.4511 49.7495H58.9186C59.1393 49.7504 59.3513 49.663 59.5073 49.507C59.6634 49.3508 59.7507 49.139 59.7498 48.9183V42.4503C59.752 42.2265 59.6634 42.0113 59.5045 41.8539C59.3455 41.6964 59.1297 41.6102 58.9058 41.6146Z" fill="white"/>
<path d="M37.0361 27.0352H43.3457V33.3447H37.0361V27.0352ZM45.1483 27.0352H46.0497V27.9366H46.9511L46.951 27.0352H48.7536V27.9366H47.8522V28.838H48.7536V29.7394H47.8522V30.6408H46.9509L46.951 28.8378H46.0496V30.6405L45.1483 30.6406V29.7392H44.2469V28.8378H45.1483V27.0352ZM49.655 27.0352H55.9646V33.3447H49.655V27.0352ZM37.9376 27.9366V32.4432H42.4443V27.9366H37.9376ZM50.5564 27.9366V32.4432H55.0631V27.9366H50.5564ZM38.8387 28.8378H41.5428V31.5419H38.8387V28.8378ZM51.4579 28.8378H54.162V31.5419H51.4579V28.8378ZM46.0498 30.6406H46.9512V31.542H46.0498V30.6406ZM47.8524 30.6406H48.7538V34.2461H47.8524V35.1475H46.9511V36.9502H46.0497L46.0498 35.1474H45.1484V36.0488H44.247V36.9502L42.4443 36.9501V37.8515H44.247V38.7529H41.5429V36.9502L40.6417 36.9501V36.0487H41.5431L41.5429 35.1474H40.6417V34.246H44.2472L44.2471 32.4434H45.1485V33.3448H46.0499V34.2462H46.9513L46.9511 33.3448H47.8525L47.8524 30.6406ZM46.0498 32.4433H46.9512V33.3447H46.0498V32.4433ZM37.0361 34.2459H39.7402V35.1473H37.9375V36.0487H38.8389V36.9501H40.6416V38.7528H39.7402V37.8514H37.9375V36.95H37.0361V34.2459ZM48.7538 34.2459H50.5565V35.1473H48.7538V34.2459ZM53.2605 34.2459H54.1619V35.1473H53.2605V34.2459ZM42.4443 35.1473V36.0487H43.3457V35.1473H42.4443ZM50.5564 35.1473H53.2605V36.0487H54.1619V35.1473H55.9646V40.5555H50.5564V39.6541H48.7538V38.7527H47.8524V37.8513H49.655V38.7527H50.5564V36.95H47.8524V36.0486H50.5564V35.1473ZM45.1483 36.95H46.0497V38.7527H47.8524V40.5553H49.655V41.4567H47.8524V42.3581H46.951V39.6541H46.0496V42.3581H44.2469V38.7526H45.1483V36.95ZM52.359 36.95V37.8514H51.4576V38.7528H52.359V39.6542H53.2604V38.7528H55.0631V36.9501L52.359 36.95ZM37.0361 39.6541H43.3457V45.9637H37.0361V39.6541ZM37.9375 40.5555V45.0621H42.4442V40.5555H37.9375ZM38.8388 41.4569H41.5429V44.1609H38.8388V41.4569ZM49.655 41.4569H52.3591V43.2595H53.2605V44.1609H52.3591V45.0623H51.4577V45.9637H49.655V44.1611H50.5564V43.2597H51.4578V42.3583H50.5564V43.2597H49.655V41.4569ZM46.0499 42.3581H46.9513V45.9637H46.0499V42.3581ZM53.2606 42.3581H55.0632V43.2595H53.2606V42.3581ZM44.2469 43.2595H45.1483V45.9636H44.2469V43.2595ZM47.8524 43.2595H48.7538V44.1609H47.8524V43.2595ZM55.0632 43.2595H55.9646V44.1609H55.0632V43.2595ZM54.1619 44.1609H55.0633V45.0623H55.9647V45.9637H54.162L54.1619 44.1609ZM47.8523 45.0622H48.7537V45.9636H47.8523V45.0622Z" fill="white"/>
</g>
<defs>
<filter id="filter0_d_382_22879" x="0" y="0" width="93" height="93" filterUnits="userSpaceOnUse" color-interpolation-filters="sRGB">
<feFlood flood-opacity="0" result="BackgroundImageFix"/>
<feColorMatrix in="SourceAlpha" type="matrix" values="0 0 0 0 0 0 0 0 0 0 0 0 0 0 0 0 0 0 127 0" result="hardAlpha"/>
<feOffset dy="10"/>
<feGaussianBlur stdDeviation="10"/>
<feComposite in2="hardAlpha" operator="out"/>
<feColorMatrix type="matrix" values="0 0 0 0 0 0 0 0 0 0 0 0 0 0 0 0 0 0 0.1 0"/>
<feBlend mode="normal" in2="BackgroundImageFix" result="effect1_dropShadow_382_22879"/>
<feBlend mode="normal" in="SourceGraphic" in2="effect1_dropShadow_382_22879" result="shape"/>
</filter>
</defs>
</svg>
