<svg width="32" height="32" viewBox="0 0 32 32" fill="none" xmlns="http://www.w3.org/2000/svg">
<rect width="32" height="32" rx="8" fill="#F6F8FD"/>
<path fill-rule="evenodd" clip-rule="evenodd" d="M20.7482 8.0425C20.7482 6.82333 21.7382 5.83333 22.9573 5.83333C24.1765 5.83333 25.1665 6.82333 25.1665 8.0425C25.1665 9.26166 24.1765 10.2517 22.9573 10.2517C21.7382 10.2517 20.7482 9.26166 20.7482 8.0425ZM17.2189 17.5294L19.8681 14.1111L19.8314 14.1294C19.9781 13.9278 20.0056 13.6711 19.9047 13.4419C19.8048 13.2128 19.5839 13.0569 19.3465 13.0386C19.0981 13.0111 18.8515 13.1211 18.7039 13.3228L16.4865 16.1919L13.9464 14.1936C13.7906 14.0744 13.6072 14.0277 13.4239 14.0469C13.2415 14.0744 13.0765 14.1744 12.9656 14.321L10.2531 17.8511L10.1972 17.9336C10.0414 18.226 10.1147 18.6019 10.3897 18.8044C10.5181 18.8869 10.6556 18.9419 10.8114 18.9419C11.0231 18.9511 11.2239 18.8402 11.3522 18.6669L13.6531 15.7052L16.2656 17.6678L16.3481 17.7219C16.6414 17.8777 17.0081 17.8053 17.2189 17.5294ZM19.1622 7.46527C19.1256 7.69444 19.1072 7.9236 19.1072 8.15277C19.1072 10.2153 20.7756 11.8827 22.8289 11.8827C23.0581 11.8827 23.2781 11.8561 23.5072 11.8194V19.216C23.5072 22.3244 21.6739 24.1669 18.5572 24.1669H11.784C8.66639 24.1669 6.83306 22.3244 6.83306 19.216V12.4336C6.83306 9.31694 8.66639 7.46527 11.784 7.46527H19.1622Z" fill="#636772"/>
</svg>
