<svg width="58" height="53" viewBox="0 0 58 53" fill="none" xmlns="http://www.w3.org/2000/svg">
<rect width="48" height="48" rx="14" fill="#A04B9E"/>
<path d="M12.7484 12.001C12.5502 12.0014 12.3604 12.0802 12.2201 12.2202C12.0799 12.3601 12.0007 12.5499 12 12.7481V18.6115C12 18.8796 12.143 19.1274 12.3753 19.2615C12.6075 19.3956 12.8938 19.3956 13.126 19.2615C13.3583 19.1274 13.5013 18.8796 13.5013 18.6115V13.5011H18.6104C18.8744 13.4952 19.1159 13.3511 19.2462 13.1214C19.3766 12.8917 19.3766 12.6105 19.2462 12.3808C19.1159 12.1512 18.8744 12.007 18.6104 12.0012L12.7484 12.001ZM29.3177 12.001C29.054 12.0196 28.8195 12.1753 28.7002 12.4112C28.581 12.647 28.5944 12.9282 28.7357 13.1516C28.8769 13.375 29.1252 13.5076 29.3895 13.5009H34.4986V18.6113C34.4986 18.8795 34.6416 19.1272 34.874 19.2613C35.1061 19.3954 35.3924 19.3954 35.6246 19.2613C35.8569 19.1272 35.9999 18.8795 35.9999 18.6113V12.748C35.9992 12.5489 35.9194 12.3586 35.7783 12.2185C35.637 12.0784 35.446 12 35.2471 12.0009H29.3897C29.3658 11.9997 29.3416 11.9999 29.3177 12.001ZM12.7369 28.6321C12.539 28.6354 12.3505 28.7171 12.2126 28.8589C12.0745 29.0007 11.9981 29.1914 12.0002 29.3892V35.247C11.9993 35.4461 12.0778 35.6374 12.2183 35.7785C12.3586 35.9198 12.5494 35.9995 12.7486 35.9998H18.6107C18.8126 36.0043 19.0076 35.9273 19.1519 35.7862C19.2962 35.6451 19.3775 35.4517 19.3775 35.2498C19.3775 35.048 19.2962 34.8546 19.1519 34.7135C19.0076 34.5724 18.8126 34.4954 18.6107 34.4999H13.5016V29.3895C13.5036 29.1868 13.4234 28.9919 13.2794 28.8493C13.1355 28.7067 12.9396 28.6281 12.7369 28.6321ZM35.2355 28.6321C35.0376 28.6354 34.8491 28.7171 34.7112 28.8589C34.5731 29.0007 34.4968 29.1914 34.4988 29.3892V34.4996H29.3897C29.1257 34.5055 28.8841 34.6496 28.7539 34.8793C28.6235 35.109 28.6235 35.3902 28.7539 35.6199C28.8841 35.8496 29.1257 35.9937 29.3897 35.9995H35.247C35.4469 36.0004 35.6389 35.9212 35.7802 35.7799C35.9216 35.6385 36.0006 35.4466 35.9998 35.2468V29.389C36.0018 29.1863 35.9216 28.9914 35.7776 28.8488C35.6337 28.7062 35.4382 28.6281 35.2355 28.6321Z" fill="white"/>
<path d="M15.4297 15.4287H21.144V21.1431H15.4297V15.4287ZM22.7766 15.4287H23.5929V16.2451H24.4093L24.4092 15.4287H26.0418V16.2451H25.2254V17.0614H26.0418V17.8778H25.2254V18.6942H24.4091L24.4092 17.0613H23.5928V18.6939L22.7766 18.694V17.8777H21.9602V17.0613H22.7766V15.4287ZM26.8581 15.4287H32.5724V21.1431H26.8581V15.4287ZM16.2461 16.2451V20.3266H20.3276V16.2451H16.2461ZM27.6745 16.2451V20.3266H31.756V16.2451H27.6745ZM17.0622 17.0613H19.5112V19.5103H17.0622V17.0613ZM28.4909 17.0613H30.9399V19.5103H28.4909V17.0613ZM23.593 18.694H24.4094V19.5104H23.593V18.694ZM25.2256 18.694H26.042V21.9594H25.2256V22.7758H24.4092V24.4084H23.5929L23.593 22.7757H22.7766V23.592H21.9603V24.4084L20.3277 24.4083V25.2246H21.9603V26.041H19.5113V24.4084L18.6951 24.4083V23.5919H19.5114L19.5113 22.7757H18.6951V21.9593H21.9605L21.9603 20.3267H22.7767V21.1431H23.5931V21.9594H24.4094L24.4093 21.1431H25.2257L25.2256 18.694ZM23.593 20.3266H24.4094V21.143H23.593V20.3266ZM15.4297 21.9592H17.8786V22.7756H16.246V23.592H17.0624V24.4083H18.695V26.0409H17.8786V25.2246H16.246V24.4082H15.4297V21.9592ZM26.042 21.9592H27.6746V22.7756H26.042V21.9592ZM30.1235 21.9592H30.9398V22.7756H30.1235V21.9592ZM20.3276 22.7756V23.592H21.144V22.7756H20.3276ZM27.6745 22.7756H30.1235V23.592H30.9398V22.7756H32.5724V27.6735H27.6745V26.8572H26.0419V26.0408H25.2255V25.2244H26.8581V26.0408H27.6745V24.4082H25.2255V23.5918H27.6745V22.7756ZM22.7766 24.4082H23.5929V26.0408H25.2255V27.6734H26.8581V28.4898H25.2255V29.3061H24.4092V26.8572H23.5928V29.3061H21.9602V26.0407H22.7766V24.4082ZM29.307 24.4082V25.2246H28.4907V26.0409H29.307V26.8573H30.1234V26.0409H31.756V24.4083L29.307 24.4082ZM15.4297 26.8572H21.144V32.5715H15.4297V26.8572ZM16.246 27.6735V31.755H20.3275V27.6735H16.246ZM17.0623 28.4899H19.5113V30.9388H17.0623V28.4899ZM26.8581 28.4899H29.3071V30.1225H30.1235V30.9388H29.3071V31.7552H28.4907V32.5716H26.8581V30.939H27.6745V30.1226H28.4909V29.3062H27.6745V30.1226H26.8581V28.4899ZM23.5931 29.3061H24.4094V32.5715H23.5931V29.3061ZM30.1235 29.3061H31.7561V30.1225H30.1235V29.3061ZM21.9602 30.1225H22.7766V32.5714H21.9602V30.1225ZM25.2256 30.1225H26.042V30.9388H25.2256V30.1225ZM31.7561 30.1225H32.5724V30.9388H31.7561V30.1225ZM30.9398 30.9388H31.7562V31.7552H32.5725V32.5716H30.9399L30.9398 30.9388ZM25.2255 31.7551H26.0418V32.5714H25.2255V31.7551Z" fill="white"/>
<rect x="29.25" y="24.25" width="28.5" height="28.5" rx="13.75" fill="white" stroke="#F0EAF0" stroke-width="0.5"/>
<path d="M49.2997 31.8541H38.183C38.1192 31.8543 38.0558 31.8633 37.9945 31.8807C37.8408 31.9221 37.7051 32.0129 37.6081 32.1392C37.5111 32.2654 37.4583 32.42 37.458 32.5791V37.8958C37.458 38.0881 37.5344 38.2726 37.6703 38.4085C37.8063 38.5444 37.9908 38.6208 38.183 38.6208H45.1913V38.1375H39.1497C39.0162 38.1375 38.908 38.0292 38.908 37.8958C38.908 37.7035 38.8316 37.519 38.6957 37.3831C38.5597 37.2472 38.3752 37.1708 38.183 37.1708C38.0496 37.1708 37.9413 37.0626 37.9413 36.9291V33.5458C37.9413 33.4123 38.0496 33.3041 38.183 33.3041C38.3753 33.3041 38.5598 33.2278 38.6957 33.0918C38.8316 32.9559 38.908 32.7714 38.908 32.5791C38.908 32.4457 39.0162 32.3375 39.1497 32.3375H48.333C48.3971 32.3375 48.4586 32.3629 48.5039 32.4083C48.5492 32.4536 48.5747 32.5151 48.5747 32.5791C48.5747 32.7714 48.651 32.9559 48.787 33.0918C48.9229 33.2277 49.1074 33.3041 49.2996 33.3041C49.3637 33.3041 49.4252 33.3296 49.4705 33.3749C49.5159 33.4202 49.5413 33.4817 49.5413 33.5458V36.9291C49.5413 36.9932 49.5159 37.0547 49.4705 37.1C49.4252 37.1453 49.3637 37.1708 49.2996 37.1708C49.1074 37.1708 48.9229 37.2472 48.787 37.3831C48.6511 37.5191 48.5747 37.7036 48.5747 37.8958C48.5747 37.9599 48.5492 38.0214 48.5039 38.0667C48.4586 38.112 48.3971 38.1375 48.333 38.1375H47.608V38.6208H49.2997C49.3634 38.6206 49.4269 38.6116 49.4881 38.5942C49.6419 38.5528 49.7776 38.462 49.8746 38.3357C49.9716 38.2095 50.0243 38.0549 50.0247 37.8958V32.5791C50.0247 32.3869 49.9483 32.2024 49.8123 32.0664C49.6764 31.9305 49.4919 31.8541 49.2997 31.8541Z" fill="#A04B9E"/>
<path d="M46.3657 36.2042C46.3656 36.2042 46.3656 36.2042 46.3656 36.2042C46.1793 36.213 46.0034 36.2931 45.8747 36.4282C45.746 36.5631 45.6743 36.7427 45.6745 36.9292V38.8625C45.6745 38.9266 45.649 38.9881 45.6037 39.0334C45.5584 39.0787 45.4969 39.1042 45.4328 39.1042C44.856 39.1042 44.3027 39.3334 43.8949 39.7413C43.487 40.1491 43.2578 40.7023 43.2578 41.2792C43.2578 41.4127 43.1496 41.5209 43.0162 41.5209C42.8827 41.5209 42.7745 41.4127 42.7745 41.2792C42.7721 40.5736 43.0524 39.8965 43.5527 39.3991C43.6531 39.2987 43.5865 39.1042 43.4446 39.1042H41.3952C40.9558 39.1042 40.5996 39.4604 40.5996 39.8998V41.2792C40.5996 41.6638 40.7524 42.0326 41.0243 42.3046C41.2962 42.5764 41.665 42.7292 42.0496 42.7292H45.6746C46.0592 42.7292 46.428 42.5764 46.7 42.3046C46.9718 42.0326 47.1246 41.6638 47.1246 41.2792V36.9847C47.1261 36.7659 47.0389 36.5559 46.8829 36.4023C46.7471 36.265 46.5587 36.1928 46.3658 36.2042C46.3657 36.2042 46.3657 36.2042 46.3657 36.2042Z" fill="#A04B9E"/>
<path d="M47.6091 37.6541H48.1166C48.164 37.422 48.2786 37.2088 48.4462 37.0412C48.6138 36.8736 48.8269 36.759 49.0591 36.7116V33.7633C48.8269 33.7159 48.6138 33.6014 48.4462 33.4337C48.2786 33.2661 48.164 33.053 48.1166 32.8208H39.3683C39.3209 33.053 39.2063 33.2662 39.0387 33.4337C38.8711 33.6014 38.6579 33.7159 38.4258 33.7633V36.7116C38.658 36.759 38.8711 36.8736 39.0387 37.0412C39.2063 37.2088 39.3209 37.422 39.3683 37.6541H45.1926V36.9291C45.1923 36.6184 45.3116 36.3196 45.5257 36.0946C45.74 35.8696 46.0326 35.7357 46.3429 35.7208C46.6646 35.7071 46.9777 35.827 47.2081 36.0519C47.4639 36.2948 47.6089 36.6319 47.6092 36.9847L47.6091 37.6541ZM43.7424 37.1708C42.8097 37.1708 42.0508 36.3032 42.0508 35.2375C42.0508 34.1718 42.8097 33.3041 43.7424 33.3041C44.6752 33.3041 45.4341 34.1718 45.4341 35.2375C45.4341 36.3032 44.6752 37.1708 43.7424 37.1708Z" fill="#A04B9E"/>
<path d="M45.4441 35.3215C45.4441 36.5402 44.621 37.528 43.6054 37.528C42.5898 37.528 41.7666 36.5402 41.7666 35.3215C41.7666 34.1028 42.5898 33.115 43.6054 33.115C44.621 33.115 45.4441 34.1028 45.4441 35.3215Z" fill="#A04B9E"/>
<path d="M41.5663 43.2126H46.158C46.4249 43.2126 46.6413 43.4796 46.6413 43.696V44.6626C46.6413 44.9296 46.4249 45.146 46.158 45.146H41.5663C41.2994 45.146 41.083 44.8791 41.083 44.6626V43.696C41.083 43.4291 41.2994 43.2126 41.5663 43.2126Z" fill="#A04B9E"/>
<path d="M42.7079 35.6666V34.2666H43.2219C43.3339 34.2666 43.4259 34.286 43.4979 34.3246C43.5713 34.362 43.6259 34.4133 43.6619 34.4786C43.6979 34.5426 43.7159 34.614 43.7159 34.6926C43.7159 34.778 43.6933 34.856 43.6479 34.9266C43.6039 34.9973 43.5346 35.0486 43.4399 35.0806L43.7299 35.6666H43.4359L43.1759 35.1146H42.9639V35.6666H42.7079ZM42.9639 34.9266H43.2059C43.2913 34.9266 43.3539 34.906 43.3939 34.8646C43.4339 34.8233 43.4539 34.7686 43.4539 34.7006C43.4539 34.634 43.4339 34.5806 43.3939 34.5406C43.3553 34.5006 43.2919 34.4806 43.2039 34.4806H42.9639V34.9266ZM43.954 35.6666V34.2666H44.472C44.584 34.2666 44.6767 34.2853 44.75 34.3226C44.8234 34.36 44.878 34.4113 44.914 34.4766C44.95 34.542 44.968 34.6153 44.968 34.6966C44.968 34.774 44.9507 34.8453 44.916 34.9106C44.8814 34.9746 44.8274 35.0266 44.754 35.0666C44.6807 35.1053 44.5867 35.1246 44.472 35.1246H44.21V35.6666H43.954ZM44.21 34.9166H44.456C44.5454 34.9166 44.6094 34.8973 44.648 34.8586C44.688 34.8186 44.708 34.7646 44.708 34.6966C44.708 34.6273 44.688 34.5733 44.648 34.5346C44.6094 34.4946 44.5454 34.4746 44.456 34.4746H44.21V34.9166Z" fill="white"/>
</svg>
