<svg width="58" height="53" viewBox="0 0 58 53" fill="none" xmlns="http://www.w3.org/2000/svg">
<rect width="48" height="48" rx="14" fill="#A04B9E"/>
<path d="M12.7484 12.001C12.5502 12.0014 12.3604 12.0802 12.2201 12.2202C12.0799 12.3601 12.0007 12.5499 12 12.7481V18.6115C12 18.8796 12.143 19.1274 12.3753 19.2615C12.6075 19.3956 12.8938 19.3956 13.126 19.2615C13.3583 19.1274 13.5013 18.8796 13.5013 18.6115V13.5011H18.6104C18.8744 13.4952 19.1159 13.3511 19.2462 13.1214C19.3766 12.8917 19.3766 12.6105 19.2462 12.3808C19.1159 12.1512 18.8744 12.007 18.6104 12.0012L12.7484 12.001ZM29.3177 12.001C29.054 12.0196 28.8195 12.1753 28.7002 12.4112C28.581 12.647 28.5944 12.9282 28.7357 13.1516C28.8769 13.375 29.1252 13.5076 29.3895 13.5009H34.4986V18.6113C34.4986 18.8795 34.6416 19.1272 34.874 19.2613C35.1061 19.3954 35.3924 19.3954 35.6246 19.2613C35.8569 19.1272 35.9999 18.8795 35.9999 18.6113V12.748C35.9992 12.5489 35.9194 12.3586 35.7783 12.2185C35.637 12.0784 35.446 12 35.2471 12.0009H29.3897C29.3658 11.9997 29.3416 11.9999 29.3177 12.001ZM12.7369 28.6321C12.539 28.6354 12.3505 28.7171 12.2126 28.8589C12.0745 29.0007 11.9981 29.1914 12.0002 29.3892V35.247C11.9993 35.4461 12.0778 35.6374 12.2183 35.7785C12.3586 35.9198 12.5494 35.9995 12.7486 35.9998H18.6107C18.8126 36.0043 19.0076 35.9273 19.1519 35.7862C19.2962 35.6451 19.3775 35.4517 19.3775 35.2498C19.3775 35.048 19.2962 34.8546 19.1519 34.7135C19.0076 34.5724 18.8126 34.4954 18.6107 34.4999H13.5016V29.3895C13.5036 29.1868 13.4234 28.9919 13.2794 28.8493C13.1355 28.7067 12.9396 28.6281 12.7369 28.6321ZM35.2355 28.6321C35.0376 28.6354 34.8491 28.7171 34.7112 28.8589C34.5731 29.0007 34.4968 29.1914 34.4988 29.3892V34.4996H29.3897C29.1257 34.5055 28.8841 34.6496 28.7539 34.8793C28.6235 35.109 28.6235 35.3902 28.7539 35.6199C28.8841 35.8496 29.1257 35.9937 29.3897 35.9995H35.247C35.4469 36.0004 35.6389 35.9212 35.7802 35.7799C35.9216 35.6385 36.0006 35.4466 35.9998 35.2468V29.389C36.0018 29.1863 35.9216 28.9914 35.7776 28.8488C35.6337 28.7062 35.4382 28.6281 35.2355 28.6321Z" fill="white"/>
<path d="M15.4297 15.4287H21.144V21.1431H15.4297V15.4287ZM22.7766 15.4287H23.5929V16.2451H24.4093L24.4092 15.4287H26.0418V16.2451H25.2254V17.0614H26.0418V17.8778H25.2254V18.6942H24.4091L24.4092 17.0613H23.5928V18.6939L22.7766 18.694V17.8777H21.9602V17.0613H22.7766V15.4287ZM26.8581 15.4287H32.5724V21.1431H26.8581V15.4287ZM16.2461 16.2451V20.3266H20.3276V16.2451H16.2461ZM27.6745 16.2451V20.3266H31.756V16.2451H27.6745ZM17.0622 17.0613H19.5112V19.5103H17.0622V17.0613ZM28.4909 17.0613H30.9399V19.5103H28.4909V17.0613ZM23.593 18.694H24.4094V19.5104H23.593V18.694ZM25.2256 18.694H26.042V21.9594H25.2256V22.7758H24.4092V24.4084H23.5929L23.593 22.7757H22.7766V23.592H21.9603V24.4084L20.3277 24.4083V25.2246H21.9603V26.041H19.5113V24.4084L18.6951 24.4083V23.5919H19.5114L19.5113 22.7757H18.6951V21.9593H21.9605L21.9603 20.3267H22.7767V21.1431H23.5931V21.9594H24.4094L24.4093 21.1431H25.2257L25.2256 18.694ZM23.593 20.3266H24.4094V21.143H23.593V20.3266ZM15.4297 21.9592H17.8786V22.7756H16.246V23.592H17.0624V24.4083H18.695V26.0409H17.8786V25.2246H16.246V24.4082H15.4297V21.9592ZM26.042 21.9592H27.6746V22.7756H26.042V21.9592ZM30.1235 21.9592H30.9398V22.7756H30.1235V21.9592ZM20.3276 22.7756V23.592H21.144V22.7756H20.3276ZM27.6745 22.7756H30.1235V23.592H30.9398V22.7756H32.5724V27.6735H27.6745V26.8572H26.0419V26.0408H25.2255V25.2244H26.8581V26.0408H27.6745V24.4082H25.2255V23.5918H27.6745V22.7756ZM22.7766 24.4082H23.5929V26.0408H25.2255V27.6734H26.8581V28.4898H25.2255V29.3061H24.4092V26.8572H23.5928V29.3061H21.9602V26.0407H22.7766V24.4082ZM29.307 24.4082V25.2246H28.4907V26.0409H29.307V26.8573H30.1234V26.0409H31.756V24.4083L29.307 24.4082ZM15.4297 26.8572H21.144V32.5715H15.4297V26.8572ZM16.246 27.6735V31.755H20.3275V27.6735H16.246ZM17.0623 28.4899H19.5113V30.9388H17.0623V28.4899ZM26.8581 28.4899H29.3071V30.1225H30.1235V30.9388H29.3071V31.7552H28.4907V32.5716H26.8581V30.939H27.6745V30.1226H28.4909V29.3062H27.6745V30.1226H26.8581V28.4899ZM23.5931 29.3061H24.4094V32.5715H23.5931V29.3061ZM30.1235 29.3061H31.7561V30.1225H30.1235V29.3061ZM21.9602 30.1225H22.7766V32.5714H21.9602V30.1225ZM25.2256 30.1225H26.042V30.9388H25.2256V30.1225ZM31.7561 30.1225H32.5724V30.9388H31.7561V30.1225ZM30.9398 30.9388H31.7562V31.7552H32.5725V32.5716H30.9399L30.9398 30.9388ZM25.2255 31.7551H26.0418V32.5714H25.2255V31.7551Z" fill="white"/>
<rect x="29.25" y="24.25" width="28.5" height="28.5" rx="13.75" fill="white" stroke="#F0EAF0" stroke-width="0.5"/>
<path fill-rule="evenodd" clip-rule="evenodd" d="M42.1846 38.0187C41.9112 38.0187 41.6949 38.2312 41.6949 38.5C41.6949 38.7625 41.9112 38.9813 42.1846 38.9813H46V41.9688C46 43.5 44.7346 44.75 43.1702 44.75H40.0734C38.5154 44.75 37.25 43.5063 37.25 41.975V35.0312C37.25 33.4937 38.5218 32.25 40.0798 32.25H43.183C44.7346 32.25 46 33.4937 46 35.025V38.0187H42.1846ZM48.2689 36.3376L50.0939 38.1564C50.1876 38.2501 50.2376 38.3689 50.2376 38.5001C50.2376 38.6251 50.1876 38.7501 50.0939 38.8376L48.2689 40.6564C48.1751 40.7501 48.0501 40.8001 47.9314 40.8001C47.8064 40.8001 47.6814 40.7501 47.5876 40.6564C47.4001 40.4689 47.4001 40.1626 47.5876 39.9751L48.5876 38.9814H46.0001V38.0189H48.5876L47.5876 37.0251C47.4001 36.8376 47.4001 36.5314 47.5876 36.3439C47.7751 36.1501 48.0814 36.1501 48.2689 36.3376Z" fill="#A04B9E"/>
</svg>
