<svg id="1e0538a6-8370-4d04-bfb3-c7881f8dbc13" data-name="Layer 1" xmlns="http://www.w3.org/2000/svg" viewBox="0 0 144.4 144.4"><defs><style>.ecba490a-e92e-4653-91af-edf3679c0371{fill:#fff;}.\36 dfb4a19-b4a9-4352-90e2-4f41076a52d8{fill:#649bae;}.\32 7b2577d-d386-44c9-80fd-a081e082ed04{fill:#308599;}.bbd8b7cb-6aed-4275-9649-2d0404f2ef5e{fill:#99bdd0;}.\37 72ab850-40cc-44db-b11a-6b2ed3847c8a{fill:#eeb82e;}.\31 1643961-8b5a-477b-84c9-c72756779c05{fill:#f8d792;}</style></defs><title>UI msmile</title><path class="ecba490a-e92e-4653-91af-edf3679c0371" d="M144.4,72.2A72.2,72.2,0,1,1,72.2,0a72.2,72.2,0,0,1,72.2,72.2"/><path class="6dfb4a19-b4a9-4352-90e2-4f41076a52d8" d="M108.7,18.9H29.9a2.2,2.2,0,0,0-2.2,2.2v98.5a2.2,2.2,0,0,0,2.2,2.2H46.5L35.9,111.1l10.6,10.7h62.2a2.2,2.2,0,0,0,2.2-2.2V21.1A2.1,2.1,0,0,0,108.7,18.9Z"/><polygon class="27b2577d-d386-44c9-80fd-a081e082ed04" points="102.3 28.7 84.4 28.7 35.9 28.7 35.9 111.1 102.3 111.1 102.3 64.5 102.3 46.6 102.3 28.7"/><rect class="bbd8b7cb-6aed-4275-9649-2d0404f2ef5e" x="44.1" y="57.6" width="51.3" height="4.88"/><rect class="bbd8b7cb-6aed-4275-9649-2d0404f2ef5e" x="44.1" y="74.3" width="51.4" height="4.88"/><rect class="bbd8b7cb-6aed-4275-9649-2d0404f2ef5e" x="44.1" y="40.9" width="51.3" height="4.87"/><rect class="772ab850-40cc-44db-b11a-6b2ed3847c8a" x="46.9" y="14.2" width="44.8" height="16.99" rx="1.9" ry="1.9"/><path class="11643961-8b5a-477b-84c9-c72756779c05" d="M141.2,52.1V93.7a2.6,2.6,0,0,1-2.6,2.6H68.7A2.6,2.6,0,0,1,66,93.7V52.1a2.7,2.7,0,0,1,2.7-2.7h69.9a2.7,2.7,0,0,1,2.6,2.7"/><rect class="772ab850-40cc-44db-b11a-6b2ed3847c8a" x="66" y="53.5" width="75.2" height="9.77"/><rect class="772ab850-40cc-44db-b11a-6b2ed3847c8a" x="70.9" y="70.3" width="15.8" height="10.43" rx="2.6" ry="2.6"/></svg>