<svg id="Layer_1" data-name="Layer 1" xmlns="http://www.w3.org/2000/svg" xmlns:xlink="http://www.w3.org/1999/xlink" viewBox="0 0 54.77 54.77"><defs><style>.cls-1{fill:none;}.cls-2{fill:#fff;}.cls-3{fill:#98bdd0;}.cls-4{fill:#287388;}.cls-5{clip-path:url(#clip-path);}.cls-6{fill:#fdca97;}.cls-7{fill:#c28d1a;}.cls-8{fill:#f6c357;}.cls-9{fill:#ebad27;}.cls-10{fill:#528ba2;}.cls-11{fill:#004852;}.cls-12{fill:#005e6e;}.cls-13{fill:#9e731b;}.cls-14{fill:#f8d282;}.cls-15{isolation:isolate;}</style><clipPath id="clip-path"><path class="cls-1" d="M39.16,6.82c-.69-.06-1.34-.1-1.94-.1-4.86,0-7.19,2.1-9.86,5.28-2.67-3.18-5-5.28-9.86-5.28-.61,0-1.26,0-1.95.1-4.2.41-9.07,4.26-9.66,11.64v2.46c.55,7.06,5.88,15.77,21.47,26.7C42.94,36.69,48.27,28,48.82,20.92V18.46C48.23,11.08,43.37,7.23,39.16,6.82Z"/></clipPath></defs><title>donasi</title><circle class="cls-2" cx="27.39" cy="27.39" r="27.39" transform="translate(-8.4 12.57) rotate(-22.5)"/><path class="cls-3" d="M12.72,47.7c0,.53,6.55.95,14.64.95S42,48.23,42,47.7s-6.55-.94-14.63-.94S12.72,47.18,12.72,47.7Z"/><path class="cls-4" d="M37.22,6.72c.6,0,1.25,0,1.94.1,4.21.41,9.07,4.26,9.66,11.64v2.46c-.55,7.06-5.88,15.77-21.46,26.7C11.77,36.69,6.44,28,5.89,20.92V18.46c.59-7.38,5.46-11.23,9.66-11.64.69-.06,1.34-.1,1.95-.1,4.86,0,7.19,2.1,9.86,5.28,2.67-3.18,5-5.28,9.86-5.28"/><g class="cls-5"><path class="cls-6" d="M19.3,15.45h.13l.09,0,.21.07a1.45,1.45,0,0,0,1,.13,1.43,1.43,0,0,0,1.06-1.76,1.4,1.4,0,0,0-.68-.91,9.29,9.29,0,0,0-.92-.37h0a2.23,2.23,0,0,0-.85-.1,1.57,1.57,0,0,0-1,.41,1.43,1.43,0,0,0-.44,1A1.47,1.47,0,0,0,19.3,15.45Z"/><path class="cls-6" d="M19.31,14.83a1.55,1.55,0,0,0,.6.18,1,1,0,0,0,.24,0l.18.06A1.45,1.45,0,0,0,22,14.44a1.41,1.41,0,0,0,.15-1.08,1.56,1.56,0,0,0-.68-.91A3.23,3.23,0,0,0,19.77,12a1.38,1.38,0,0,0-1,.41,1.51,1.51,0,0,0-.44,1,1.49,1.49,0,0,0,.42,1A1.45,1.45,0,0,0,19.31,14.83Z"/><path class="cls-7" d="M30.69,21A1.62,1.62,0,0,1,29,20.45c-.51.59-2-.81-2.37-1.19a4.68,4.68,0,0,0-.87-.74c-.2-.13-.41-.2-.61-.32.68-.07.41-.8.19-1.18-.09-.16-.23-.27-.06-.35s.46.1.62.15c.38.12.78.22,1.16.32s.53.15.8.24.39.07.56.38a4.5,4.5,0,0,0,1.25,1.39c.32.26.6.39.7.79a2.3,2.3,0,0,0,.38,1.11Z"/><path class="cls-8" d="M19.14,17.74a7,7,0,0,0,3.75.44c.7-.05,3,.28,3.5-.27.71-.78-.47-1.2-1-1.41-.7-.28-.33-.32.43.13a4.88,4.88,0,0,0,1.34.59c.65.17.75.17,1.15.66s.7.95,1.09,1.36c.17.17.51.33.62.49s0,.3.14.59A6,6,0,0,0,32,22.72c1.16.89,2.1-.1,1.36-1.17a7.91,7.91,0,0,0-1.09-1.85c-.63-1-1.05-2-1.73-3-.84-1.23-1.58-3.16-3.1-3.57s-3.51-.94-5.08-1.48c-1.16-.41-2.51-.39-3.48-1.14a18.47,18.47,0,0,1-1.64-1.67c-.35-.36-.86-1.26-1.26-1.3-.75-.06-3.1,2.27-3.37,2.88a49.41,49.41,0,0,1,3.5,4.94A7,7,0,0,0,19.14,17.74Z"/><path class="cls-6" d="M23.38,15.34l.23.25-.06-.16-.16-.1Z"/><path class="cls-7" d="M26.11,16.7a6.08,6.08,0,0,0-1.77-.46,3.22,3.22,0,0,1-1.22-.3A19.51,19.51,0,0,0,20.64,15c.58.3,1.18.58,1.75.9a5.31,5.31,0,0,0,.86.43,2.45,2.45,0,0,0,.73.07,4.12,4.12,0,0,1,1.65.36c.58.26,1.06.5.76,1.15.83-.1-.06-1.37-.66-1.4Z"/><path class="cls-9" d="M19,10.6l-.08-.06a18.47,18.47,0,0,1-1.64-1.67c-.35-.36-.86-1.26-1.26-1.3-.75-.06-3.1,2.27-3.37,2.88a49.41,49.41,0,0,1,3.5,4.94,6.56,6.56,0,0,0,2.71,2.2C17.72,15,17.71,12.35,19,10.6Z"/><path class="cls-9" d="M33.39,22.88c-.6.23-1.46-.71-1.86-1.17A3.3,3.3,0,0,1,30.82,20c-.06-.48-.05-.41-.46-.62a2.87,2.87,0,0,1-.76-.63,3.35,3.35,0,0,1-1-1.68c-.41.34-1.32-.13-1.74-.3-.68-.27-1.37-.47-2-.72s-1.22-.49-1.82-.72A14.4,14.4,0,0,0,20.64,15c.26.36,1.25.53,1.66.68s.82.4,1.25.53a16.37,16.37,0,0,1,2,.44,8.7,8.7,0,0,0,1.74.75,4.66,4.66,0,0,1,.65.12c.2.09.41.67.63.93a16.64,16.64,0,0,0,1.3,1.23c.26.27.14.43.28.8a5.19,5.19,0,0,0,.42.81c.63.95,1.37,2,2.53,1.73a3.25,3.25,0,0,0,.37-.27Z"/><path class="cls-2" d="M26,18c.51-.43-.05-.73-.15-.79a1.33,1.33,0,0,0-.63-.2A1.06,1.06,0,0,1,25,18a.85.85,0,0,0,.33.05A1.65,1.65,0,0,0,26,18Z"/><path class="cls-9" d="M33.16,21.11a3.58,3.58,0,0,1,.27,1c0,.26.06.53-.15.71.08.12.28,0,.35,0C34,22.45,33.34,21.55,33.16,21.11Z"/><polygon class="cls-10" points="12.82 2.64 8.16 7.28 12.74 11.88 17.41 7.24 12.82 2.64"/><rect class="cls-11" x="11.36" y="8.46" width="7.39" height="2.15" transform="translate(-2.34 13.4) rotate(-44.88)"/><polygon class="cls-12" points="16.91 6.17 11.68 11.38 17.28 8.84 18.43 7.7 16.91 6.17"/><path class="cls-6" d="M33,33.81h-.22l-.2-.08a1.58,1.58,0,0,0-1-.13,1.41,1.41,0,0,0-.9.68,1.46,1.46,0,0,0-.16,1.08,1.44,1.44,0,0,0,.68.91,9.47,9.47,0,0,0,.93.37h0a2.23,2.23,0,0,0,.85.09,1.62,1.62,0,0,0,1-.41,1.46,1.46,0,0,0,.43-1A1.48,1.48,0,0,0,33,33.81Z"/><path class="cls-6" d="M33,34.43a1.5,1.5,0,0,0-.6-.18l-.23,0L32,34.15a1.45,1.45,0,0,0-1.64.67,1.47,1.47,0,0,0-.15,1.09,1.54,1.54,0,0,0,.68.9,3.34,3.34,0,0,0,1.67.45,1.39,1.39,0,0,0,1-.42,1.43,1.43,0,0,0,.44-1,1.47,1.47,0,0,0-.42-1A1.26,1.26,0,0,0,33,34.43Z"/><path class="cls-7" d="M21.63,28.28a1.6,1.6,0,0,1,1.71.53c.52-.58,2,.81,2.37,1.19a4.68,4.68,0,0,0,.87.74c.2.13.41.2.61.32-.67.08-.41.8-.19,1.18.1.17.23.28.06.35s-.46-.1-.62-.15c-.37-.11-.77-.22-1.15-.31l-.8-.24c-.34-.11-.4-.07-.57-.39a4.55,4.55,0,0,0-1.24-1.38c-.33-.27-.6-.4-.7-.8a2.42,2.42,0,0,0-.39-1.11Z"/><path class="cls-8" d="M33.18,31.52a7,7,0,0,0-3.76-.44c-.69.05-3-.28-3.5.27-.71.78.48,1.2,1,1.41.71.28.34.32-.43-.13A5.4,5.4,0,0,0,25.14,32c-.65-.17-.75-.17-1.14-.66s-.71-.95-1.1-1.35c-.17-.18-.5-.34-.62-.5s0-.3-.14-.59a6.05,6.05,0,0,0-1.84-2.4c-1.16-.89-2.1.1-1.35,1.17A7.68,7.68,0,0,0,20,29.56c.63,1,1,2,1.73,3,.84,1.22,1.58,3.15,3.1,3.56s3.51.94,5.08,1.49c1.17.4,2.52.39,3.49,1.13a18.51,18.51,0,0,1,1.63,1.68c.35.35.86,1.26,1.26,1.29.76.06,3.11-2.27,3.37-2.88a52.2,52.2,0,0,1-3.5-4.93A7,7,0,0,0,33.18,31.52Z"/><path class="cls-6" d="M28.93,33.92l-.23-.24a.94.94,0,0,1,.06.15l.16.1Z"/><path class="cls-7" d="M26.2,32.56A5.78,5.78,0,0,0,28,33a3.32,3.32,0,0,1,1.22.3,17.74,17.74,0,0,0,2.49.94c-.59-.3-1.18-.58-1.76-.89a5.36,5.36,0,0,0-.86-.44,2.17,2.17,0,0,0-.73-.06,4.22,4.22,0,0,1-1.64-.37c-.58-.26-1.07-.5-.77-1.15-.82.1.06,1.37.67,1.4Z"/><path class="cls-9" d="M33.34,38.66l.09.06a18.51,18.51,0,0,1,1.63,1.68c.35.35.86,1.25,1.26,1.29.76.06,3.11-2.27,3.37-2.88a52.2,52.2,0,0,1-3.5-4.93,6.7,6.7,0,0,0-2.7-2.21C34.59,34.3,34.6,36.91,33.34,38.66Z"/><path class="cls-9" d="M18.93,26.38c.6-.22,1.45.72,1.85,1.17a3.34,3.34,0,0,1,.71,1.71c.06.48.05.42.46.62a2.91,2.91,0,0,1,.76.64,3.31,3.31,0,0,1,1,1.68c.41-.34,1.32.12,1.74.29.68.27,1.37.47,2,.72l1.82.72a13.62,13.62,0,0,0,2.33.33c-.27-.36-1.26-.52-1.66-.68s-.83-.39-1.25-.52a17.46,17.46,0,0,1-2-.44A8.5,8.5,0,0,0,25,31.86a4.66,4.66,0,0,1-.65-.12c-.2-.09-.41-.66-.62-.93a16.76,16.76,0,0,0-1.31-1.23c-.26-.26-.14-.43-.28-.79a4.43,4.43,0,0,0-.42-.81c-.63-1-1.36-2-2.53-1.74-.05,0-.37.27-.37.27Z"/><path class="cls-2" d="M26.35,31.29c-.53.44,0,.75.15.81a1.51,1.51,0,0,0,.64.21,1.1,1.1,0,0,1,.18-1s-.26,0-.34-.06a1.64,1.64,0,0,0-.63,0Z"/><path class="cls-9" d="M19.15,28.16a3.73,3.73,0,0,1-.27-1,.76.76,0,0,1,.15-.71c-.07-.11-.27,0-.35,0S19,27.71,19.15,28.16Z"/><path class="cls-13" d="M27.26,22.53a3.38,3.38,0,1,1-3.38,3.38,3.38,3.38,0,0,1,3.38-3.38m0-.66a4,4,0,1,0,4,4,4,4,0,0,0-4-4Z"/><path class="cls-14" d="M31.29,25.43a4,4,0,1,1-4-4A4,4,0,0,1,31.29,25.43Z"/><path class="cls-9" d="M27.26,22.06a3.37,3.37,0,1,1-3.38,3.37,3.37,3.37,0,0,1,3.38-3.37m0-.66a4,4,0,1,0,4,4,4,4,0,0,0-4-4Z"/><path class="cls-9" d="M29.66,25.43a2.41,2.41,0,1,1-2.4-2.4A2.4,2.4,0,0,1,29.66,25.43Z"/><g id="Rp"><g class="cls-15"><path class="cls-2" d="M27.48,26.09a.11.11,0,0,1,0-.05,1.54,1.54,0,0,1,0-.17v-.13a.74.74,0,0,0-.07-.37.39.39,0,0,0-.08-.1.61.61,0,0,0,.12-.16.68.68,0,0,0,.09-.33.7.7,0,0,0-.05-.25.86.86,0,0,0-.11-.19.53.53,0,0,0-.23-.17.9.9,0,0,0-.36-.06H25.68v2.22h.62v-.8h.31c.12,0,.16,0,.17,0a.41.41,0,0,1,0,.19v.18a1.36,1.36,0,0,0,0,.2.3.3,0,0,0,0,.11l0,.08h.64v-.21ZM26.3,24.66h.36a.36.36,0,0,1,.15,0s.06,0,.06.16,0,.13-.06.14a.76.76,0,0,1-.16,0H26.3Z"/><path class="cls-2" d="M29.13,24.82a.67.67,0,0,0-.52-.22.57.57,0,0,0-.34.1v-.07h-.58v2.28h.59v-.63a.57.57,0,0,0,.32.09.68.68,0,0,0,.54-.24,1,1,0,0,0,.2-.67A.9.9,0,0,0,29.13,24.82Zm-.83.46a.19.19,0,0,1,.2-.14.18.18,0,0,1,.17.08.56.56,0,0,1,0,.54.2.2,0,0,1-.17.08.18.18,0,0,1-.13,0,.34.34,0,0,1-.1-.29A.75.75,0,0,1,28.3,25.28Z"/></g></g></g><path class="cls-11" d="M27.36,42.53C12.73,32.27,7.14,24,6.05,17.14c-.07.43-.12.87-.16,1.32v2.46c.55,7.06,5.88,15.77,21.47,26.7C42.94,36.69,48.27,28,48.82,20.92V18.46c0-.45-.09-.89-.15-1.32C47.58,24,42,32.27,27.36,42.53Z"/></svg>