<svg width="36" height="36" viewBox="0 0 36 36" fill="none" xmlns="http://www.w3.org/2000/svg">
<rect width="36" height="36" rx="10" fill="#F1F3F9"/>
<path fill-rule="evenodd" clip-rule="evenodd" d="M25.0016 19.3167C25.2997 19.4751 25.5296 19.7251 25.6915 19.9751C26.0066 20.4917 25.981 21.1251 25.6744 21.6834L25.0783 22.6834C24.7632 23.2167 24.1755 23.5501 23.5709 23.5501C23.2728 23.5501 22.9407 23.4667 22.6682 23.3001C22.4467 23.1584 22.1912 23.1084 21.9187 23.1084C21.0756 23.1084 20.3688 23.8001 20.3432 24.6251C20.3432 25.5834 19.5597 26.3334 18.5803 26.3334H17.4221C16.4342 26.3334 15.6507 25.5834 15.6507 24.6251C15.6337 23.8001 14.9268 23.1084 14.0837 23.1084C13.8027 23.1084 13.5472 23.1584 13.3343 23.3001C13.0618 23.4667 12.7211 23.5501 12.4316 23.5501C11.8184 23.5501 11.2308 23.2167 10.9156 22.6834L10.328 21.6834C10.0129 21.1417 9.99589 20.4917 10.311 19.9751C10.4473 19.7251 10.7027 19.4751 10.9923 19.3167C11.2308 19.2001 11.384 19.0084 11.5288 18.7834C11.9546 18.0667 11.6992 17.1251 10.9753 16.7001C10.1321 16.2251 9.85963 15.1667 10.3451 14.3417L10.9156 13.3584C11.4096 12.5334 12.4656 12.2417 13.3173 12.7251C14.0582 13.1251 15.0205 12.8584 15.4548 12.1501C15.5911 11.9167 15.6678 11.6667 15.6507 11.4167C15.6337 11.0917 15.7274 10.7834 15.8892 10.5334C16.2043 10.0167 16.7749 9.68341 17.3966 9.66675H18.5974C19.2276 9.66675 19.7982 10.0167 20.1133 10.5334C20.2666 10.7834 20.3688 11.0917 20.3432 11.4167C20.3262 11.6667 20.4028 11.9167 20.5391 12.1501C20.9734 12.8584 21.9358 13.1251 22.6852 12.7251C23.5283 12.2417 24.5928 12.5334 25.0783 13.3584L25.6489 14.3417C26.1428 15.1667 25.8703 16.2251 25.0187 16.7001C24.2948 17.1251 24.0393 18.0667 24.4736 18.7834C24.6099 19.0084 24.7632 19.2001 25.0016 19.3167ZM15.5908 18.0082C15.5908 19.3165 16.6724 20.3582 18.0095 20.3582C19.3465 20.3582 20.4025 19.3165 20.4025 18.0082C20.4025 16.6998 19.3465 15.6498 18.0095 15.6498C16.6724 15.6498 15.5908 16.6998 15.5908 18.0082Z" fill="#797979"/>
</svg>
