<svg id="518cf3d6-cad0-4dbc-9cdc-393bceb67204" data-name="Layer 1" xmlns="http://www.w3.org/2000/svg" viewBox="0 0 144.4 144.4"><defs><style>.ed8d4b06-0467-4737-b183-1870a5fd3368{fill:#fff;}.\39 07f5a41-b7cc-448d-816a-16643731b093{fill:#308599;}.\35 b8e4031-3da4-44f7-97cd-02542b0e0068{fill:#f8d792;}.da5df17c-1ed7-4fc9-9b92-9048a619f25c{fill:#51abbf;}</style></defs><title>UI msmile</title><path class="ed8d4b06-0467-4737-b183-1870a5fd3368" d="M144.4,72.2A72.2,72.2,0,1,1,72.2,0a72.2,72.2,0,0,1,72.2,72.2"/><path class="907f5a41-b7cc-448d-816a-16643731b093" d="M129.6,40.4V104a4,4,0,0,1-4,4H18.9a4,4,0,0,1-4.1-4V40.4a4,4,0,0,1,4.1-4H125.6a4,4,0,0,1,4,4"/><polygon class="5b8e4031-3da4-44f7-97cd-02542b0e0068" points="107.2 45.7 106.1 43.3 99.5 43.3 93.2 57.6 99.7 57.6 102.8 50.7 103.9 53.1 107.2 45.7"/><path class="5b8e4031-3da4-44f7-97cd-02542b0e0068" d="M123.1,57.6l-6.3-14.3h-6.6l-5.3,12a3.4,3.4,0,0,0,3.3,2.1,3.4,3.4,0,0,0,3.2-2.1l2.1-4.6,3.1,6.9Z"/><rect class="da5df17c-1ed7-4fc9-9b92-9048a619f25c" x="22.3" y="95.8" width="56.4" height="3.83"/><rect class="da5df17c-1ed7-4fc9-9b92-9048a619f25c" x="22.3" y="81.5" width="100.7" height="3.82"/><path class="da5df17c-1ed7-4fc9-9b92-9048a619f25c" d="M40.2,74.2c0,2.2-1.3,4-3,4H25.3c-1.6,0-3-1.8-3-4V66.3c0-2.2,1.4-4,3-4H37.2c1.7,0,3,1.8,3,4Z"/><rect class="da5df17c-1ed7-4fc9-9b92-9048a619f25c" x="103" y="91.8" width="20.3" height="10.81"/><g id="970cac72-d6e1-430b-8d14-25c4a5a853bb" data-name="yYojPU"><path class="5b8e4031-3da4-44f7-97cd-02542b0e0068" d="M47.8,74.8a1.2,1.2,0,0,1,.4-.8,5.9,5.9,0,0,0,1.5-2,7,7,0,0,0,.5-5,6.5,6.5,0,0,0-1.1-2.2,14.9,14.9,0,0,0-1.2-1.4.9.9,0,0,1-.2-1,1.2,1.2,0,0,1,.9-.5.6.6,0,0,1,.6.3,7.5,7.5,0,0,1,1.5,1.6,11.4,11.4,0,0,1,1,1.9,8.6,8.6,0,0,1,.6,2.3,20.9,20.9,0,0,1-.1,2.5,11.3,11.3,0,0,1-1.3,3.2,9,9,0,0,1-1.5,1.8.9.9,0,0,1-1,.1C48,75.5,47.9,75.2,47.8,74.8Z"/><path class="5b8e4031-3da4-44f7-97cd-02542b0e0068" d="M51.1,76.7a1.4,1.4,0,0,1,.5-1,10.5,10.5,0,0,0,2-2.7,8.5,8.5,0,0,0,.9-3.1,10.4,10.4,0,0,0-.3-3.5,11.1,11.1,0,0,0-1.4-2.9l-1.6-1.7a1.3,1.3,0,0,1-.3-1.4,1.3,1.3,0,0,1,1.2-.7,1.2,1.2,0,0,1,.8.4,13.4,13.4,0,0,1,2,2.1,19.6,19.6,0,0,1,1.3,2.5,10.9,10.9,0,0,1,.7,3,12.2,12.2,0,0,1-.1,3.3,12.5,12.5,0,0,1-1.7,4.3,14.3,14.3,0,0,1-2,2.3,1.2,1.2,0,0,1-2-.9Z"/><path class="5b8e4031-3da4-44f7-97cd-02542b0e0068" d="M48.4,69.1a4.1,4.1,0,0,1-.5,1.9,5.9,5.9,0,0,1-1.3,1.8.9.9,0,0,1-1.2-.1.8.8,0,0,1-.2-1.1l.5-.5a3.4,3.4,0,0,0,.8-2.9,3.1,3.1,0,0,0-1-1.5l-.5-.6a.9.9,0,0,1,.2-1.1,1.1,1.1,0,0,1,1.3,0,6.5,6.5,0,0,1,1.3,1.6,3.6,3.6,0,0,1,.6,2Z"/></g></svg>