<svg id="a377f243-ce03-4672-b29e-801ac5c11d6f" data-name="Layer 1" xmlns="http://www.w3.org/2000/svg" xmlns:xlink="http://www.w3.org/1999/xlink" viewBox="0 0 144.4 144.4"><defs><style>.\36 2518db0-6b0e-4900-886a-6c3c46188820{fill:none;}.\35 9636df2-5032-49d3-97b1-15e7c43b72d1{fill:#fff;}.\32 7c024a7-9a46-4323-8a21-f20773fe5dff{opacity:0.39;}.fbdb59b7-1ca3-4043-ac56-cd27f387366b{fill:#308599;}.\39 340d0b4-1ece-4363-943d-e97bbea76765{opacity:0.53;}.\34 1110fef-f105-4a6f-aa1e-0aabb9d66789{clip-path:url(#421cf7d9-98a2-4df0-b492-e7bf98814e47);}.\37 6b64f38-38d8-4db3-97f5-c6791658f5d7{fill:#eeb830;}.f49282d5-47b6-4841-8c2c-40b73021926d{fill:#fcfdfb;}</style><clipPath id="421cf7d9-98a2-4df0-b492-e7bf98814e47"><rect class="62518db0-6b0e-4900-886a-6c3c46188820" x="63.5" y="37.8" width="48.1" height="56.54"/></clipPath></defs><title>UI msmile</title><path class="59636df2-5032-49d3-97b1-15e7c43b72d1" d="M144.4,72.2A72.2,72.2,0,1,1,72.2,0a72.2,72.2,0,0,1,72.2,72.2"/><path class="fbdb59b7-1ca3-4043-ac56-cd27f387366b" d="M92.7,14.1H44.8a8.3,8.3,0,0,0-8.3,8.3v97.3a8.3,8.3,0,0,0,8.3,8.2H92.7a8.2,8.2,0,0,0,8.2-8.2V22.4a8.3,8.3,0,0,0-8.2-8.3m-24,105.7a5.3,5.3,0,1,1,5.3-5.3,5.3,5.3,0,0,1-5.3,5.3m26-18.2h-52V28.1h52Z"/><path class="fbdb59b7-1ca3-4043-ac56-cd27f387366b" d="M70.7,96.1H68.4a4.9,4.9,0,0,1-4.9-4.8V37.8A4.9,4.9,0,0,1,68.4,33h2.3a4.9,4.9,0,0,1,4.9,4.8V91.3a4.9,4.9,0,0,1-4.9,4.8"/><g class="41110fef-f105-4a6f-aa1e-0aabb9d66789"><path class="76b64f38-38d8-4db3-97f5-c6791658f5d7" d="M108.8,63.9A24.6,24.6,0,1,1,84.2,39.4a24.6,24.6,0,0,1,24.6,24.5"/><path class="f49282d5-47b6-4841-8c2c-40b73021926d" d="M73,71.1c-.1-.1-.1-.2-.1-.4v-15a.6.6,0,0,1,.1-.4h6.4a6.4,6.4,0,0,1,4.4,1.3,4.4,4.4,0,0,1,1.6,3.7,4.2,4.2,0,0,1-.8,2.8,4.7,4.7,0,0,1-2.2,1.7l3.3,5.8v.3c0,.1-.1.3-.2.3l-.3.2H83.2l-.6-.2-.4-.5-2.9-5.4H76.1v5.5c0,.2,0,.3-.1.4l-.4.2H73.4l-.4-.2m6.3-8.5a3.1,3.1,0,0,0,2.1-.6,2.7,2.7,0,0,0,0-3.6,3.1,3.1,0,0,0-2.1-.7H76.1v4.9Z"/><path class="f49282d5-47b6-4841-8c2c-40b73021926d" d="M88.3,75.5a.5.5,0,0,1-.2-.4V59.9a.7.7,0,0,1,.6-.6h1.8a.7.7,0,0,1,.6.6v.9a4,4,0,0,1,3.7-1.7,4.5,4.5,0,0,1,3.5,1.4,6.2,6.2,0,0,1,1.4,4v1.6A6.2,6.2,0,0,1,98.3,70a4.8,4.8,0,0,1-7.1-.1v5.2c0,.2,0,.3-.1.4H88.3M96.5,66V64.6c-.1-2-1-3-2.6-3a2.3,2.3,0,0,0-2,.8,4.8,4.8,0,0,0-.7,2.1v1.8a3.3,3.3,0,0,0,.8,1.9,2.3,2.3,0,0,0,1.9.8c1.6,0,2.5-1,2.6-3"/></g><path class="76b64f38-38d8-4db3-97f5-c6791658f5d7" d="M108.6,52.2V48.4a1.8,1.8,0,0,1,1.8-1.8h11.4a1.8,1.8,0,0,1,1.8,1.8v3.8a1.8,1.8,0,0,1-1.8,1.8H110.4a1.8,1.8,0,0,1-1.8-1.8"/><path class="76b64f38-38d8-4db3-97f5-c6791658f5d7" d="M111.6,82.2V78.5a1.9,1.9,0,0,1,1.9-1.9h11.3a1.9,1.9,0,0,1,1.8,1.9v3.7a1.9,1.9,0,0,1-1.8,1.9H113.5a1.9,1.9,0,0,1-1.9-1.9"/><path class="76b64f38-38d8-4db3-97f5-c6791658f5d7" d="M114.6,63.6V61.1a2.5,2.5,0,0,1,2.5-2.5h22.1a2.5,2.5,0,0,1,2.4,2.5v2.5a2.5,2.5,0,0,1-2.4,2.5H117.1a2.5,2.5,0,0,1-2.5-2.5"/></svg>