<svg id="Layer_1" data-name="Layer 1" xmlns="http://www.w3.org/2000/svg" viewBox="0 0 89.5 89.5"><defs><style>.cls-1{fill:#308599;}.cls-2{fill:#f29e6e;}.cls-3{fill:#fff;}</style></defs><title>UI msmile</title><rect class="cls-1" x="9.4" y="8" width="71" height="70.98" rx="3.6" ry="3.6"/><path class="cls-2" d="M87.6,16.5a1.8,1.8,0,0,1-1.8-1.8V7.4a3.7,3.7,0,0,0-3.7-3.7H77.2a1.8,1.8,0,0,1,0-3.7h4.9a7.4,7.4,0,0,1,7.4,7.4v7.3a1.8,1.8,0,0,1-1.8,1.8"/><path class="cls-2" d="M1.8,16.5A1.8,1.8,0,0,1,0,14.6V7.4A7.4,7.4,0,0,1,7.4,0h4.9a1.8,1.8,0,1,1,0,3.7H7.4A3.7,3.7,0,0,0,3.7,7.4v7.3a1.8,1.8,0,0,1-1.8,1.8"/><path class="cls-2" d="M82.1,89.5H77.2a1.8,1.8,0,0,1,0-3.7h4.9a3.7,3.7,0,0,0,3.7-3.7V77a1.8,1.8,0,0,1,3.7,0v5.1a7.4,7.4,0,0,1-7.4,7.4"/><path class="cls-2" d="M12.2,89.5H7.4A7.4,7.4,0,0,1,0,82.1V77a1.8,1.8,0,0,1,3.7,0v5.1a3.7,3.7,0,0,0,3.7,3.7h4.9a1.8,1.8,0,0,1,0,3.7"/><path class="cls-3" d="M69.8,17.8A1.2,1.2,0,0,1,71,19V36.4a1.2,1.2,0,0,1-1.2,1.3H52.4a1.2,1.2,0,0,1-1.2-1.3V19a1.2,1.2,0,0,1,1.2-1.2Zm-1.3,2.5H53.7V35.1H68.5Z"/><path class="cls-3" d="M37.6,17.8a1.3,1.3,0,0,1,1.2,1.2v4.3a1.2,1.2,0,1,1-2.5,0v-3H21.6V35.1H36.4v-2a1.2,1.2,0,0,1,2.5,0v3.3a1.3,1.3,0,0,1-1.2,1.3H20.3a1.2,1.2,0,0,1-1.2-1.3V19.1a1.2,1.2,0,0,1,1.2-1.2Z"/><path class="cls-3" d="M37.6,49.9a1.2,1.2,0,0,1,1.2,1.2V68.5a1.2,1.2,0,0,1-1.2,1.3H20.3a1.3,1.3,0,0,1-1.3-1.3V51.2a1.2,1.2,0,0,1,1.3-1.2Zm-1.3,2.5H21.6V67.2H36.4Z"/><path class="cls-3" d="M69.8,49.9A1.2,1.2,0,0,1,71,51.2V68.5a1.2,1.2,0,0,1-1.2,1.3H52.4a1.2,1.2,0,0,1-1.2-1.3V51.2a1.2,1.2,0,0,1,1.2-1.2Zm-1.3,2.5H53.7V67.2H68.5Z"/><path class="cls-3" d="M44.8,16.7a1.4,1.4,0,0,1,1.4,1.4V42.5H70.7a1.4,1.4,0,1,1,0,2.8H46.2V69.4a1.4,1.4,0,0,1-2.8,0V45.3H24.9a1.4,1.4,0,1,1,0-2.8H43.4V18.1a1.4,1.4,0,0,1,1.4-1.4"/><path class="cls-2" d="M75,42H14.3a1.8,1.8,0,1,0,0,3.5H75A1.8,1.8,0,1,0,75,42Z"/></svg>