<svg id="c443791e-ef97-4b5b-80ec-014cdf9ce6fc" data-name="Layer 1" xmlns="http://www.w3.org/2000/svg" xmlns:xlink="http://www.w3.org/1999/xlink" viewBox="0 0 144.4 144.4"><defs><style>.\35 335bd3f-dbb4-42da-b651-8f417ba71da6{fill:none;}.\35 fcedf1f-bf69-4a95-9315-61651501d66f{fill:#fff;}.c5c449eb-4a9b-4410-8c5d-e178eca09f6d{clip-path:url(#7d871d55-dadc-425b-9a35-569fa7619201);}.\31 4814d62-8d85-4557-9560-0202cf0dbc68{fill:#308599;}.\32 7403a9b-b851-44e4-b332-bbcb8305e8e5{fill:#51abbf;}.\33 d354dc2-ce9d-4109-adbf-4673cc9dcc21{fill:#fbfeff;}.df85c62b-ec1c-42da-a6e0-be448c6647e6{fill:#eeb830;}</style><clipPath id="7d871d55-dadc-425b-9a35-569fa7619201"><path class="5335bd3f-dbb4-42da-b651-8f417ba71da6" d="M38.8,16.8a6.1,6.1,0,0,0-6.1,6.1v97.6a6.1,6.1,0,0,0,6.1,6.1h66.8a6.1,6.1,0,0,0,6.2-6.1V22.9a6.1,6.1,0,0,0-6.2-6.1Z"/></clipPath></defs><title>UI msmile</title><path class="5fcedf1f-bf69-4a95-9315-61651501d66f" d="M144.4,72.2A72.2,72.2,0,1,1,72.2,0a72.2,72.2,0,0,1,72.2,72.2"/><g class="c5c449eb-4a9b-4410-8c5d-e178eca09f6d"><rect class="14814d62-8d85-4557-9560-0202cf0dbc68" x="32.7" y="16.8" width="79.1" height="109.84"/></g><rect class="27403a9b-b851-44e4-b332-bbcb8305e8e5" x="43.1" y="29" width="58.2" height="29.99"/><rect class="3d354dc2-ce9d-4109-adbf-4673cc9dcc21" x="43.1" y="65.2" width="58.2" height="7.65"/><path class="df85c62b-ec1c-42da-a6e0-be448c6647e6" d="M99,109.4,93.7,68.5h-43l-5.2,40.9s-1.4,6.4,8.7,6.4h36c10.1,0,8.8-6.4,8.8-6.4"/><ellipse class="27403a9b-b851-44e4-b332-bbcb8305e8e5" cx="72.2" cy="93.2" rx="16.3" ry="12.1"/><path class="3d354dc2-ce9d-4109-adbf-4673cc9dcc21" d="M47.1,51a.4.4,0,0,1-.1-.3h0l4-10.9a.6.6,0,0,1,.6-.5h2.7c.3,0,.5.2.7.5l3.9,10.9h0a.4.4,0,0,1-.1.3c0,.1-.1.1-.2.1H56.4a.5.5,0,0,1-.6-.4l-.6-1.6H50.7l-.6,1.6a.5.5,0,0,1-.6.4H47.1m4.3-4.5h3.1L53,42.2Z"/><path class="3d354dc2-ce9d-4109-adbf-4673cc9dcc21" d="M63,51l-.2-.3V42H59.5a.4.4,0,0,1-.1-.3V39.7c0-.2,0-.3.1-.3l.3-.2h9.3l.3.2c.1,0,.1.1.1.3v1.9a.4.4,0,0,1-.1.3H66.1v8.7l-.2.3c0,.1-.1.1-.3.1H63.3c-.1,0-.3,0-.3-.1"/><path class="3d354dc2-ce9d-4109-adbf-4673cc9dcc21" d="M71.1,51a.4.4,0,0,1-.1-.3v-11c0-.2,0-.3.1-.3l.3-.2h2c.2,0,.4.2.6.4l2.9,5.2,2.9-5.2a.7.7,0,0,1,.6-.4h2l.3.2c.1,0,.1.1.1.3v11a.4.4,0,0,1-.1.3H79.9a.4.4,0,0,1-.1-.3V44.5l-1.9,3.4a.7.7,0,0,1-.6.4h-.9c-.2,0-.4-.2-.6-.4L74,44.5v6.2a.4.4,0,0,1-.1.3H71.1"/><rect class="df85c62b-ec1c-42da-a6e0-be448c6647e6" x="89.4" y="33.3" width="8.1" height="8.08"/><rect class="df85c62b-ec1c-42da-a6e0-be448c6647e6" x="89.4" y="46.5" width="8.1" height="8.08"/></svg>