<?xml version="1.0" encoding="utf-8"?>
<!-- Generator: Adobe Illustrator 19.0.0, SVG Export Plug-In . SVG Version: 6.00 Build 0)  -->
<svg version="1.1" id="f96d90b3-2cc9-4ddd-96f9-d63a04cde1d3"
	 xmlns="http://www.w3.org/2000/svg" xmlns:xlink="http://www.w3.org/1999/xlink" x="0px" y="0px" viewBox="8 -7.9 115.9 115.9"
	 style="enable-background:new 8 -7.9 115.9 115.9;" xml:space="preserve">
<style type="text/css">
	.st0{fill:#FFFFFF;}
	.st1{fill:#308599;}
	.st2{fill:#F29E6E;}
</style>
<title>UI msmile</title>
<g>
	<rect x="74.1" y="14.4" class="st0" width="48.2" height="67.5"/>
	<path class="st1" d="M117.1,3.5H77.9c-3.7-0.1-6.7,2.9-6.8,6.6c0,0.1,0,0.1,0,0.2v79.6c0,3.8,3,6.8,6.8,6.8l0,0h39.2
		c3.7-0.1,6.7-3.1,6.8-6.8V10.3C123.9,6.5,120.9,3.5,117.1,3.5L117.1,3.5 M97.5,90c-2.4,0.1-4.4-1.9-4.5-4.3
		c-0.1-2.4,1.9-4.4,4.3-4.5c2.4-0.1,4.4,1.9,4.5,4.3v0.1C101.8,88,99.9,89.9,97.5,90 M118.8,75.1H76.2V14.9h42.6L118.8,75.1z"/>
	<rect x="11" y="14.4" class="st0" width="48.2" height="67.5"/>
	<path class="st1" d="M54,3.5H14.8C11.1,3.4,8.1,6.4,8,10.1c0,0.1,0,0.1,0,0.2v79.6c0,3.8,3,6.8,6.8,6.8l0,0H54
		c3.7-0.1,6.7-3.1,6.8-6.8V10.3C60.8,6.5,57.8,3.5,54,3.5 M34.4,90c-2.4,0.1-4.4-1.9-4.5-4.3s1.9-4.4,4.3-4.5s4.4,1.9,4.5,4.3v0.1
		C38.7,88,36.8,89.9,34.4,90 M55.7,75.1H13.1V14.9h42.6C55.7,14.9,55.7,75.1,55.7,75.1z"/>
	<path class="st2" d="M97.3,58.2l10.1-11c0.7-0.7,1.1-1.7,1.2-2.7v-0.4c-0.1-1-0.5-2-1.2-2.8l-10.1-11c-1.6-1.7-4.3-1.8-6.1-0.2
		c-1.7,1.5-1.9,4.2-0.4,5.9c0.1,0.1,0.1,0.1,0.2,0.2l2.3,2.6h-49c-3,0-5.5,2.5-5.5,5.5s2.5,5.5,5.5,5.5h49L91,52.4
		c-1.6,1.6-1.6,4.3,0,5.9c0.1,0.1,0.1,0.1,0.2,0.2C93,60.1,95.7,60,97.3,58.2L97.3,58.2"/>
	<path class="st2" d="M53.5,39.6c-0.1-0.6-0.3-1.2-0.5-1.8c-0.9-2.7-2.3-5.2-4.3-7.2c-3.5-3.9-8.6-6-13.8-6
		c-10.5-0.1-19.2,8.4-19.2,19c-0.1,10.5,8.4,19.2,19,19.2c6.4,0,12.4-3.1,15.9-8.4c1.3-1.9,2.3-4,2.8-6.2l0.3-1.7
		c0.2-1,0.2-1.9,0.2-2.9C53.9,42.3,53.8,40.9,53.5,39.6"/>
	<path class="st0" d="M30.4,35.7c0.7,0,1.4,0.1,2.1,0.3c0.6,0.1,1.2,0.4,1.7,0.8c0.4,0.4,0.7,0.8,1,1.3c0.2,0.6,0.3,1.3,0.3,1.9
		c0,0.8-0.2,1.6-0.6,2.3c-0.4,0.6-1,1.1-1.7,1.4l2.3,4.4v0.2c0,0.1,0,0.2-0.1,0.3h-3.3l-0.3-0.4l-2-4h-1.7v4c0,0.1-0.1,0.2-0.2,0.3
		l-0.3,0.2h-2.8c-0.1-0.1-0.2-0.2-0.2-0.4l0.3-11.9c0-0.2,0-0.3,0.1-0.4h5.4V35.7z M28.2,41.2h2.1c0.5,0,0.9-0.1,1.3-0.3
		c0.3-0.3,0.5-0.7,0.5-1.1c0.1-0.4-0.1-0.8-0.5-1c-0.4-0.3-0.8-0.4-1.3-0.4h-2.1L28.2,41.2z"/>
	<path class="st0" d="M43,49h-0.9l-0.7-0.3l-0.5-0.4L40.6,48v3.9c0,0.1,0,0.2-0.1,0.3l-0.4,0.2h-2.8c-0.1-0.1-0.1-0.2-0.1-0.4
		l0.2-12.1c0-0.1,0.1-0.2,0.2-0.3l0.3-0.2h2.6c0.1,0.1,0.1,0.2,0.1,0.4v0.4l0.4-0.4l0.5-0.3l0.7-0.3h1c0.5,0,1.1,0.1,1.6,0.3
		s0.9,0.4,1.3,0.8c0.3,0.4,0.6,0.8,0.8,1.3c0.2,0.6,0.4,1.2,0.4,1.9v0.8c0,0.2,0,0.5-0.1,0.7c0,0.7-0.1,1.3-0.4,1.9
		c-0.2,0.5-0.5,1-0.9,1.3s-0.8,0.6-1.3,0.8L43,49.2 M44,44.5v-1c-0.1-0.4-0.2-0.8-0.4-1.1c-0.3-0.3-0.8-0.5-1.3-0.5h-0.7l-0.5,0.3
		l-0.3,0.5c-0.1,0.2-0.1,0.3-0.1,0.5c-0.1,0.2-0.1,0.5-0.1,0.7v0.6c0.1,0.2,0.1,0.4,0.2,0.6l0.3,0.4c0.1,0.2,0.3,0.3,0.5,0.4h0.7
		c0.4,0.1,0.9-0.1,1.2-0.4C43.8,45.2,43.9,44.9,44,44.5"/>
</g>
</svg>
