<svg width="480" height="480" xmlns="http://www.w3.org/2000/svg">
 <g>
  <title>background</title>
  <rect fill="none" id="canvas_background" height="482" width="482" y="-1" x="-1"/>
 </g>

 <g>
  <title>Layer 1</title>
  <g fill="#2D2D2D" id="svg_1">
   <polygon id="svg_2" fill="#EDEDED" points="33.725,104 31.997,104 31.997,248 12.909,424 467.085,424 447.997,248 447.997,104  "/>
   <polygon id="svg_3" fill="#EDEDED" points="12.797,424 11.517,436.816 12.909,424  "/>
   <polygon id="svg_4" fill="#EDEDED" points="467.197,424 467.085,424 468.477,436.816  "/>
  </g>
  <path id="svg_5" fill="#7f7f7f" d="m11.517,436.816c-1.888,18.84 12.904,35.184 31.84,35.184l393.28,0c18.928,0 33.728,-16.344 31.84,-35.184l-1.392,-12.816l-454.176,0l-1.392,12.816z"/>
  <path id="svg_6" fill="#bf5f00" d="m447.997,104l0,-64c0,-17.672 -14.328,-32 -32,-32l-352,0c-17.672,0 -32,14.328 -32,32l0,64l1.728,0l414.272,0z"/>
  <g id="svg_7">
   <rect id="svg_8" fill="#2D2D2D" height="16" width="48" y="144" x="71.997"/>
   <rect id="svg_9" fill="#2D2D2D" height="16" width="48" y="144" x="175.997"/>
   <rect id="svg_10" fill="#2D2D2D" height="16" width="40" y="144" x="279.997"/>
   <rect id="svg_11" fill="#2D2D2D" height="16" width="48" y="144" x="367.997"/>
   <rect id="svg_12" fill="#2D2D2D" height="16" width="48" y="184" x="71.997"/>
   <rect id="svg_13" fill="#2D2D2D" height="16" width="48" y="184" x="175.997"/>
   <rect id="svg_14" fill="#2D2D2D" height="16" width="40" y="184" x="279.997"/>
   <rect id="svg_15" fill="#2D2D2D" height="16" width="48" y="184" x="367.997"/>
   <rect id="svg_17" fill="#2D2D2D" height="16" width="80" y="304" x="331.117"/>
   <rect id="svg_18" fill="#2D2D2D" height="16" width="88" y="352" x="339.117"/>
   <rect id="svg_19" fill="#2D2D2D" height="16" width="80" y="304" x="75.133"/>
   <rect id="svg_20" fill="#2D2D2D" height="16" width="88" y="352" x="59.133"/>
   <rect id="svg_21" fill="#2D2D2D" height="32" width="16" y="32" x="399.997"/>
   <rect id="svg_22" fill="#2D2D2D" height="32" width="16" y="32" x="367.997"/>
   <rect id="svg_23" fill="#2D2D2D" height="32" width="16" y="32" x="335.997"/>
   <rect id="svg_24" fill="#2D2D2D" height="32" width="16" y="32" x="303.997"/>
   <rect id="svg_25" fill="#2D2D2D" height="16" width="32" y="32" x="71.997"/>
   <rect id="svg_26" fill="#2D2D2D" height="16" width="72" y="64" x="71.997"/>
   <path id="svg_27" fill="#2D2D2D" d="m415.997,0l-352,0c-22.056,0 -40,17.944 -40,40l0,207.568l-18.984,175.048c-0.04,0.208 -0.152,0.376 -0.176,0.584l-1.28,12.816c-1.128,11.224 2.576,22.456 10.144,30.816c7.56,8.368 18.376,13.168 29.656,13.168l393.28,0c11.28,0 22.096,-4.8 29.664,-13.168c7.568,-8.36 11.264,-19.592 10.144,-30.816l-1.28,-12.816c-0.024,-0.208 -0.136,-0.384 -0.176,-0.592l-18.992,-175.04l0,-207.568c0,-22.056 -17.944,-40 -40,-40zm-376.824,256l401.64,0l17.352,160l-436.344,0l17.352,-160zm0.824,-144l400,0l0,128l-400,0l0,-128zm24,-96l352,0c13.232,0 24,10.768 24,24l0,56l-400,0l0,-56c0,-13.232 10.768,-24 24,-24zm-20.64,448c-6.864,0 -13.184,-2.808 -17.8,-7.896c-4.608,-5.088 -6.768,-11.656 -6.08,-18.488l0.008,-0.064l0.6,-5.552l439.824,0l0.608,5.616c0.68,6.832 -1.48,13.4 -6.08,18.488c-4.608,5.088 -10.936,7.896 -17.8,7.896l-393.28,0z"/>
  </g>
  <g id="svg_28"/>
  <g id="svg_29"/>
  <g id="svg_30"/>
  <g id="svg_31"/>
  <g id="svg_32"/>
  <g id="svg_33"/>
  <g id="svg_34"/>
  <g id="svg_35"/>
  <g id="svg_36"/>
  <g id="svg_37"/>
  <g id="svg_38"/>
  <g id="svg_39"/>
  <g id="svg_40"/>
  <g id="svg_41"/>
  <g id="svg_42"/>
  <text stroke="null" transform="matrix(4.578301334775332,0,0,4.578301334775332,-813.0569568821553,-1070.8608191898081) " font-weight="bold" xml:space="preserve" text-anchor="start" font-family="Helvetica, Arial, sans-serif" font-size="26" id="svg_43" y="314.1875" x="213.257933" stroke-opacity="null" stroke-width="0" fill="#2d2d2d">Rp</text>
 </g>
</svg>