<svg width="504.123" height="504.123" xmlns="http://www.w3.org/2000/svg">

 <g>
  <title>background</title>
  <rect fill="none" id="canvas_background" height="402" width="582" y="-1" x="-1"/>
 </g>
 <g>
  <title>Layer 1</title>
  <path id="svg_1" fill="#EFC75E" d="m232.369,313.888c0,-52.775 -51.988,-95.311 -116.185,-95.311s-116.184,42.535 -116.184,95.311s51.988,93.735 116.185,93.735c5.514,0 11.028,-0.394 16.542,-1.182c24.025,18.905 48.443,25.206 48.837,24.812c-8.665,-8.665 -13.785,-20.086 -16.935,-30.72c40.171,-15.359 67.74,-48.048 67.74,-86.645z"/>
  <path id="svg_2" fill="#FAEECF" d="m137.846,297.346c-8.665,0 -15.754,7.089 -15.754,15.754s7.089,15.754 15.754,15.754s15.754,-7.089 15.754,-15.754c0,-8.665 -7.089,-15.754 -15.754,-15.754zm-51.2,0c-8.665,0 -15.754,7.089 -15.754,15.754s7.089,15.754 15.754,15.754s15.754,-7.089 15.754,-15.754s-7.089,-15.754 -15.754,-15.754z"/>
  <path id="svg_3" fill="#00bf00" d="m334.769,348.94c-8.665,0 -17.329,-0.394 -25.6,-1.575c-33.871,25.206 -66.954,33.477 -67.348,32.689c11.422,-11.815 18.905,-26.782 23.631,-41.748c-59.077,-21.662 -100.037,-70.105 -100.037,-126.425c0,-76.8 76.012,-139.028 169.354,-139.028s169.354,62.228 169.354,139.028s-76.012,137.059 -169.354,137.059z"/>
  <path id="svg_4" fill="#FFFFFF" d="m334.769,187.069c-12.997,0 -23.631,10.634 -23.631,23.631s10.634,23.631 23.631,23.631s23.631,-10.634 23.631,-23.631s-10.634,-23.631 -23.631,-23.631zm70.893,0c-12.997,0 -23.631,10.634 -23.631,23.631s10.634,23.631 23.631,23.631s23.631,-10.634 23.631,-23.631s-10.635,-23.631 -23.631,-23.631zm-141.785,0c-12.997,0 -23.631,10.634 -23.631,23.631s10.634,23.631 23.631,23.631c12.997,0 23.631,-10.634 23.631,-23.631s-10.634,-23.631 -23.631,-23.631z"/>
  <path id="svg_5" fill="#007f3f" d="m280.812,330.429c-58.683,-21.662 -99.643,-70.105 -99.643,-126.425c0,-47.655 29.145,-89.403 73.649,-114.609c-53.169,23.237 -89.403,69.317 -89.403,122.486c0,56.32 40.96,104.763 99.643,126.425c-4.726,14.572 -11.815,29.538 -23.631,41.748c0.395,0.394 25.601,-18.117 39.385,-49.625z"/>
  <path id="svg_6" fill="#DCB757" d="m15.754,313.888c0,-50.412 47.655,-91.766 108.308,-94.917l-7.877,-0.394c-64.197,0 -116.185,42.535 -116.185,95.311s51.988,93.735 116.185,93.735c2.363,0 4.726,0 7.483,-0.394c-60.259,-3.544 -107.914,-42.929 -107.914,-93.341z"/>
  <g id="svg_7"/>
  <g id="svg_8"/>
  <g id="svg_9"/>
  <g id="svg_10"/>
  <g id="svg_11"/>
  <g id="svg_12"/>
  <g id="svg_13"/>
  <g id="svg_14"/>
  <g id="svg_15"/>
  <g id="svg_16"/>
  <g id="svg_17"/>
  <g id="svg_18"/>
  <g id="svg_19"/>
  <g id="svg_20"/>
  <g id="svg_21"/>
 </g>
</svg>