<svg width="491.508" height="491.508" xmlns="http://www.w3.org/2000/svg">

 <g>
  <title>background</title>
  <rect fill="none" id="canvas_background" height="482" width="482" y="-1" x="-1"/>
 </g>
 <g>
  <title>Layer 1</title>
  <rect id="svg_1" fill="#31978C" height="215.003" width="422.398" transform="matrix(-0.863,0.5053,-0.5053,-0.863,575.7161,242.8187) " y="91.982" x="43.73"/>
  <path id="svg_2" fill="#44C4A1" d="m354.827,40.557l-287.354,168.254c6.25,10.674 2.413,24.539 -8.567,30.968l64.954,110.933c10.981,-6.429 24.95,-2.99 31.199,7.684l287.355,-168.254c-6.25,-10.674 -2.415,-24.538 8.568,-30.968l-64.956,-110.933c-10.982,6.431 -24.949,2.99 -31.199,-7.684z"/>
  <g id="svg_3">
   <ellipse id="svg_4" fill="#31978C" ry="57.938" rx="73.339" cy="199.481" cx="254.939" transform="matrix(-0.5053,-0.863,0.863,-0.5053,211.6118,520.2759) "/>
   <ellipse id="svg_5" fill="#31978C" ry="13.107" rx="13.107" cy="116.56" cx="396.545"/>
  </g>
  <ellipse id="svg_6" fill="#3EA69B" ry="13.107" rx="13.107" cy="282.426" cx="113.32"/>
  <path id="svg_7" fill="#44C4A1" d="m282.084,252.029l-5.256,-8.977c-11.909,5.434 -24.613,6.873 -38.098,4.314l2.713,-15.954c10.389,1.953 19.56,1.367 27.539,-1.76l-13.969,-23.857c-10.562,3.214 -19.052,4.275 -25.467,3.187c-6.415,-1.088 -11.699,-5.177 -15.85,-12.267c-4.151,-7.09 -5.075,-14.337 -2.754,-21.756c2.324,-7.415 7.34,-13.651 15.056,-18.719l-3.601,-6.149l7.866,-4.606l3.671,6.27c9.403,-4.619 19.728,-6.539 30.981,-5.75l-1.372,15.995c-7.67,-0.683 -14.916,0.368 -21.761,3.16l13.535,23.117l0.37,-0.217c10.725,-3.303 19.402,-4.366 26.031,-3.188c6.642,1.177 12.059,5.356 16.257,12.526c4.201,7.175 5.081,14.508 2.634,21.988c-2.441,7.49 -7.717,13.878 -15.843,19.187l5.183,8.851l-7.865,4.605zm-55.151,-74.293c-1.013,3.066 -0.709,5.972 0.899,8.719c1.608,2.747 3.701,4.438 6.276,5.073c2.569,0.646 6.59,0.354 12.048,-0.859l-12.457,-21.275c-3.499,2.492 -5.755,5.271 -6.766,8.342zm57.46,38.761c1.19,-3.223 0.949,-6.274 -0.732,-9.146c-1.679,-2.867 -3.912,-4.616 -6.698,-5.243c-2.796,-0.621 -7.081,-0.228 -12.859,1.173l12.958,22.131c3.696,-2.708 6.134,-5.681 7.331,-8.915z"/>
  <rect id="svg_8" fill="#F6C358" height="215.003" width="82.022" transform="matrix(-0.863,0.5053,-0.5053,-0.863,575.73,242.8046) " y="91.977" x="213.926"/>
  <g id="svg_9">
   <rect id="svg_10" fill="#FFFFFF" height="215.003" width="6.272" transform="matrix(-0.863,0.5053,-0.5053,-0.863,532.7446,286.6494) " y="108.07" x="224.363"/>
   <rect id="svg_11" fill="#FFFFFF" height="215.003" width="6.272" transform="matrix(-0.863,0.5053,-0.5053,-0.863,618.736,198.9728) " y="75.894" x="279.249"/>
  </g>
  <rect id="svg_12" fill="#3EA69B" height="215.003" width="422.398" transform="matrix(-0.982,0.1888,-0.1888,-0.982,559.6758,492.2321) " y="165.264" x="45.201"/>
  <path id="svg_13" fill="#44C4A1" d="m78.578,385.148l-28.985,-150.8c8.331,-1.601 13.786,-9.652 12.185,-17.983l354.49,-68.135c1.601,8.331 9.653,13.786 17.983,12.185l28.985,150.8c-8.331,1.601 -13.786,9.652 -12.185,17.983l-354.49,68.135c-1.601,-8.331 -9.652,-13.787 -17.983,-12.185z"/>
  <g id="svg_14">
   <ellipse id="svg_15" fill="#3EA69B" ry="57.938" rx="73.339" cy="272.781" cx="256.413" transform="matrix(-0.1914316650390625,-0.9956880035400391,0.9956880035400391,-0.1914316650390625,34.87476393908765,579.1304732928935) "/>
   <ellipse id="svg_16" fill="#3EA69B" ry="13.107" rx="13.107" cy="241.809" cx="417.541"/>
   <ellipse id="svg_17" fill="#3EA69B" ry="13.107" rx="13.107" cy="303.757" cx="95.266"/>
  </g>
  <path id="svg_19" fill="#F6C358" d="m171.553,455.444c0,19.917 -38.402,36.064 -85.774,36.064s-85.774,-16.147 -85.774,-36.064l0,-29.501l171.548,0l0,29.501z"/>
  <ellipse id="svg_20" fill="#FCD462" ry="36.045" rx="85.775" cy="425.92" cx="85.781"/>
  <g id="svg_21">
   <path id="svg_22" fill="#DC8744" d="m85.779,396.924c-41.343,0 -74.859,12.992 -74.859,29.019c0,16.027 33.516,29.019 74.859,29.019s74.859,-12.992 74.859,-29.019c0,-16.027 -33.516,-29.019 -74.859,-29.019zm0,54.813c-36.749,0 -66.541,-11.549 -66.541,-25.795c0,-14.246 29.792,-25.795 66.541,-25.795s66.541,11.549 66.541,25.795c0,14.247 -29.792,25.795 -66.541,25.795z"/>
   <path id="svg_23" fill="#DC8744" d="m83.038,445.989l0,-3.531c-11.402,-0.451 -21.637,-2.208 -30.693,-5.27l9.107,-4.207c6.985,2.354 14.174,3.755 21.586,4.207l0,-9.383c-9.402,-0.87 -16.286,-2.015 -20.652,-3.434c-4.366,-1.419 -6.549,-3.523 -6.549,-6.311c0,-2.789 2.508,-5.069 7.544,-6.845c5.036,-1.773 11.585,-2.739 19.657,-2.901l0,-2.419l7.98,0l0,2.466c9.148,0.26 17.799,1.468 25.952,3.629l-8.112,4.45c-5.493,-1.515 -11.433,-2.45 -17.839,-2.806l0,9.092l0.376,0c9.564,0.872 16.59,2.049 21.078,3.53c4.498,1.484 6.742,3.637 6.742,6.457c0,2.822 -2.579,5.121 -7.737,6.892c-5.158,1.775 -11.971,2.741 -20.459,2.903l0,3.481l-7.981,0zm-8.803,-31.217c-2.122,0.724 -3.178,1.628 -3.178,2.708c0,1.08 0.833,1.935 2.498,2.562c1.655,0.63 4.823,1.234 9.483,1.814l0,-8.368c-3.747,0.13 -6.681,0.558 -8.803,1.284zm26.266,21.206c2.325,-0.74 3.493,-1.675 3.493,-2.804c0,-1.128 -0.914,-2.023 -2.741,-2.684c-1.838,-0.661 -5.249,-1.281 -10.234,-1.862l0,8.704c3.989,-0.159 7.147,-0.612 9.482,-1.354z"/>
  </g>
  <path id="svg_24" fill="#F6C358" d="m171.553,419.615c0,19.917 -38.402,36.064 -85.774,36.064s-85.774,-16.146 -85.774,-36.064l0,-29.501l171.548,0l0,29.501z"/>
  <ellipse id="svg_25" fill="#FCD462" ry="36.045" rx="85.775" cy="390.132" cx="85.781"/>
  <g id="svg_26">
   <path id="svg_27" fill="#DC8744" d="m85.779,361.095c-41.343,0 -74.859,12.992 -74.859,29.019c0,16.027 33.516,29.019 74.859,29.019s74.859,-12.992 74.859,-29.019c0,-16.027 -33.516,-29.019 -74.859,-29.019zm0,54.813c-36.749,0 -66.541,-11.549 -66.541,-25.795c0,-14.246 29.792,-25.795 66.541,-25.795s66.541,11.549 66.541,25.795c0,14.247 -29.792,25.795 -66.541,25.795z"/>
   <path id="svg_28" fill="#DC8744" d="m83.038,410.16l0,-3.531c-11.402,-0.451 -21.637,-2.208 -30.693,-5.27l9.107,-4.207c6.985,2.354 14.174,3.755 21.586,4.207l0,-9.383c-9.402,-0.87 -16.286,-2.015 -20.652,-3.434c-4.366,-1.419 -6.549,-3.523 -6.549,-6.311c0,-2.789 2.508,-5.069 7.544,-6.845c5.036,-1.773 11.585,-2.739 19.657,-2.901l0,-2.419l7.98,0l0,2.466c9.148,0.26 17.799,1.468 25.952,3.629l-8.112,4.45c-5.493,-1.515 -11.433,-2.45 -17.839,-2.806l0,9.092l0.376,0c9.564,0.872 16.59,2.049 21.078,3.531c4.498,1.484 6.742,3.637 6.742,6.457c0,2.822 -2.579,5.121 -7.737,6.892c-5.158,1.775 -11.971,2.741 -20.459,2.903l0,3.481l-7.981,0l0,-0.001zm-8.803,-31.217c-2.122,0.724 -3.178,1.628 -3.178,2.708c0,1.08 0.833,1.935 2.498,2.562c1.655,0.63 4.823,1.234 9.483,1.814l0,-8.368c-3.747,0.131 -6.681,0.558 -8.803,1.284zm26.266,21.206c2.325,-0.74 3.493,-1.675 3.493,-2.804c0,-1.128 -0.914,-2.023 -2.741,-2.684c-1.838,-0.661 -5.249,-1.281 -10.234,-1.862l0,8.704c3.989,-0.159 7.147,-0.612 9.482,-1.354z"/>
  </g>
  <path id="svg_29" fill="#F6C358" d="m171.553,383.786c0,19.917 -38.402,36.064 -85.774,36.064s-85.774,-16.146 -85.774,-36.064l0,-29.501l171.548,0l0,29.501z"/>
  <ellipse id="svg_30" fill="#FCD462" ry="36.045" rx="85.775" cy="354.292" cx="85.781"/>
  <g id="svg_31">
   <path id="svg_32" fill="#DC8744" d="m85.779,325.266c-41.343,0 -74.859,12.992 -74.859,29.019c0,16.027 33.516,29.019 74.859,29.019s74.859,-12.992 74.859,-29.019c0,-16.027 -33.516,-29.019 -74.859,-29.019zm0,54.814c-36.749,0 -66.541,-11.549 -66.541,-25.795c0,-14.246 29.792,-25.795 66.541,-25.795s66.541,11.549 66.541,25.795c0,14.246 -29.792,25.795 -66.541,25.795z"/>
   <path id="svg_33" fill="#DC8744" d="m83.038,374.332l0,-3.531c-11.402,-0.451 -21.637,-2.208 -30.693,-5.27l9.107,-4.207c6.985,2.354 14.174,3.755 21.586,4.207l0,-9.383c-9.402,-0.87 -16.286,-2.015 -20.652,-3.434c-4.366,-1.419 -6.549,-3.523 -6.549,-6.311s2.508,-5.069 7.544,-6.845c5.036,-1.773 11.585,-2.739 19.657,-2.901l0,-2.419l7.98,0l0,2.466c9.148,0.26 17.799,1.468 25.952,3.629l-8.112,4.45c-5.493,-1.515 -11.433,-2.45 -17.839,-2.806l0,9.092l0.376,0c9.564,0.872 16.59,2.049 21.078,3.531c4.498,1.484 6.742,3.637 6.742,6.457c0,2.822 -2.579,5.121 -7.737,6.892c-5.158,1.775 -11.971,2.741 -20.459,2.903l0,3.481l-7.981,0l0,-0.001zm-8.803,-31.218c-2.122,0.724 -3.178,1.628 -3.178,2.708c0,1.08 0.833,1.934 2.498,2.562c1.655,0.63 4.823,1.234 9.483,1.814l0,-8.368c-3.747,0.131 -6.681,0.558 -8.803,1.284zm26.266,21.207c2.325,-0.74 3.493,-1.675 3.493,-2.804c0,-1.128 -0.914,-2.023 -2.741,-2.684c-1.838,-0.661 -5.249,-1.281 -10.234,-1.862l0,8.704c3.989,-0.16 7.147,-0.613 9.482,-1.354z"/>
  </g>
  <path id="svg_34" fill="#F6C358" d="m171.553,347.957c0,19.917 -38.402,36.064 -85.774,36.064s-85.774,-16.146 -85.774,-36.064l0,-29.501l171.548,0l0,29.501z"/>
  <ellipse id="svg_35" fill="#FCD462" ry="36.045" rx="85.775" cy="318.452" cx="85.781"/>
  <g id="svg_36">
   <path id="svg_37" fill="#DC8744" d="m85.779,289.437c-41.343,0 -74.859,12.992 -74.859,29.019c0,16.027 33.516,29.019 74.859,29.019s74.859,-12.992 74.859,-29.019c0,-16.027 -33.516,-29.019 -74.859,-29.019zm0,54.814c-36.749,0 -66.541,-11.549 -66.541,-25.795c0,-14.246 29.792,-25.795 66.541,-25.795s66.541,11.549 66.541,25.795c0,14.246 -29.792,25.795 -66.541,25.795z"/>
  </g>
  <path id="svg_39" fill="#F6C358" d="m352.436,455.444c0,19.917 -38.402,36.064 -85.774,36.064s-85.774,-16.146 -85.774,-36.064l0,-29.501l171.548,0l0,29.501z"/>
  <ellipse id="svg_40" fill="#FCD462" ry="36.045" rx="85.775" cy="425.92" cx="266.655"/>
  <g id="svg_41">
   <path id="svg_42" fill="#DC8744" d="m266.662,396.924c-41.343,0 -74.859,12.992 -74.859,29.019c0,16.027 33.516,29.019 74.859,29.019s74.859,-12.992 74.859,-29.019c0,-16.027 -33.515,-29.019 -74.859,-29.019zm0,54.813c-36.749,0 -66.541,-11.549 -66.541,-25.795c0,-14.246 29.792,-25.795 66.541,-25.795s66.541,11.549 66.541,25.795c0,14.247 -29.792,25.795 -66.541,25.795z"/>
   <path id="svg_43" fill="#DC8744" d="m263.921,445.989l0,-3.531c-11.402,-0.451 -21.637,-2.208 -30.693,-5.27l9.107,-4.207c6.985,2.354 14.174,3.755 21.586,4.207l0,-9.383c-9.402,-0.87 -16.286,-2.015 -20.652,-3.434c-4.366,-1.419 -6.549,-3.523 -6.549,-6.311c0,-2.789 2.508,-5.069 7.544,-6.845c5.036,-1.773 11.585,-2.739 19.657,-2.901l0,-2.419l7.98,0l0,2.466c9.148,0.26 17.799,1.468 25.952,3.629l-8.112,4.45c-5.493,-1.515 -11.433,-2.45 -17.839,-2.806l0,9.092l0.376,0c9.564,0.872 16.59,2.049 21.078,3.53c4.498,1.484 6.742,3.637 6.742,6.457c0,2.822 -2.579,5.121 -7.737,6.892c-5.158,1.775 -11.971,2.741 -20.459,2.903l0,3.481l-7.981,0zm-8.803,-31.217c-2.122,0.724 -3.178,1.628 -3.178,2.708c0,1.08 0.833,1.935 2.498,2.562c1.655,0.63 4.823,1.234 9.483,1.814l0,-8.368c-3.747,0.13 -6.681,0.558 -8.803,1.284zm26.267,21.206c2.325,-0.74 3.493,-1.675 3.493,-2.804c0,-1.128 -0.914,-2.023 -2.741,-2.684c-1.838,-0.661 -5.249,-1.281 -10.234,-1.862l0,8.704c3.989,-0.159 7.146,-0.612 9.482,-1.354z"/>
  </g>
  <path id="svg_44" fill="#F6C358" d="m352.436,419.615c0,19.917 -38.402,36.064 -85.774,36.064s-85.774,-16.146 -85.774,-36.064l0,-29.501l171.548,0l0,29.501z"/>
  <ellipse id="svg_45" fill="#FCD462" ry="36.045" rx="85.775" cy="390.132" cx="266.655"/>
  <g id="svg_46">
   <path id="svg_47" fill="#DC8744" d="m266.662,361.095c-41.343,0 -74.859,12.992 -74.859,29.019c0,16.027 33.516,29.019 74.859,29.019s74.859,-12.992 74.859,-29.019c0,-16.027 -33.515,-29.019 -74.859,-29.019zm0,54.813c-36.749,0 -66.541,-11.549 -66.541,-25.795c0,-14.246 29.792,-25.795 66.541,-25.795s66.541,11.549 66.541,25.795c0,14.247 -29.792,25.795 -66.541,25.795z"/>
  </g>
  <g id="svg_49"/>
  <g id="svg_50"/>
  <g id="svg_51"/>
  <g id="svg_52"/>
  <g id="svg_53"/>
  <g id="svg_54"/>
  <g id="svg_55"/>
  <g id="svg_56"/>
  <g id="svg_57"/>
  <g id="svg_58"/>
  <g id="svg_59"/>
  <g id="svg_60"/>
  <g id="svg_61"/>
  <g id="svg_62"/>
  <g id="svg_63"/>
 </g>
</svg>