<svg width="512" height="512" xmlns="http://www.w3.org/2000/svg">

 <g>
  <title>background</title>
  <rect fill="none" id="canvas_background" height="482" width="482" y="-1" x="-1"/>
 </g>
 <g>
  <title>Layer 1</title>
  <path stroke="null" id="svg_1" fill="#5a5b5b" d="m388.65909,356.81931l-346.51017,0c-12.18234,0 -22.14892,-9.96657 -22.14892,-22.14891l0,-217.25748c0,-12.18234 9.96658,-22.14892 22.14892,-22.14892l346.51017,0c12.18234,0 22.14892,9.96658 22.14892,22.14892l0,217.25748c0,12.18234 -9.96658,22.14891 -22.14892,22.14891z"/>
  <rect x="20" stroke="null" id="svg_2" height="60.772865" width="388.808018" y="132.616"/>
  <rect stroke="null" id="svg_3" height="13.351741" width="152.320005" y="260.568259" x="35.935998"/>
  <rect stroke="null" id="svg_4" height="14.5977" width="100.232002" y="293.994304" x="35.935998"/>
  <circle id="svg_5" fill="#FFD07D" r="38.351997" cy="283.88" cx="259.848"/>
  <circle id="svg_6" fill="#E04F5F" r="38.351997" cy="283.88" cx="306.552"/>
  <path stroke="null" id="svg_7" fill="#32BEA6" d="m411,203.264002c-30.061176,31.592157 -80,24.458039 -80,24.458039s0,35.156078 0,85.603137s80,85.603137 80,85.603137s80,-35.156078 80,-85.603137s0,-85.603137 0,-85.603137s-49.932549,7.134118 -80,-24.458039z"/>
  <g stroke="null" id="svg_8" opacity="0.2">
   <path stroke="null" id="svg_9" d="m411.500003,222.047305c-24.477718,25.725995 -65.139999,19.915048 -65.139999,19.915048s0,28.624295 0,69.702669s65.139999,69.702669 65.139999,69.702669s65.139999,-28.624295 65.139999,-69.702669s0,-69.702669 0,-69.702669s-40.662281,5.810947 -65.139999,-19.915048z"/>
  </g>
  <g stroke="null" id="svg_10" opacity="0.25">
   <path stroke="null" id="svg_11" fill="#FFFFFF" d="m411.000001,203.264002c-30.061177,31.592157 -80.000001,24.45804 -80.000001,24.45804l0,64.40157l160.000003,-50.528628l0,-13.872941c0,0 -49.93255,7.134118 -80.000001,-24.45804z"/>
  </g>
  <g id="svg_13"/>
  <g id="svg_14"/>
  <g id="svg_15"/>
  <g id="svg_16"/>
  <g id="svg_17"/>
  <g id="svg_18"/>
  <g id="svg_19"/>
  <g id="svg_20"/>
  <g id="svg_21"/>
  <g id="svg_22"/>
  <g id="svg_23"/>
  <g id="svg_24"/>
  <g id="svg_25"/>
  <g id="svg_26"/>
  <g id="svg_27"/>
 </g>
</svg>