<svg width="504.123" height="504.123" xmlns="http://www.w3.org/2000/svg">
 <g>
  <title>background</title>
  <rect x="-1" y="-1" width="506.123" height="506.123" id="canvas_background" fill="none"/>
 </g>

 <g>
  <title>Layer 1</title>
  <path d="m399.52844,339.582l-331.48921,0c-13.93277,0 -25.46249,-11.52972 -25.46249,-25.46248l0,-211.86532c0,-13.93276 11.52972,-25.46248 25.46249,-25.46248l331.97104,0c13.93276,0 25.46248,11.52972 25.46248,25.46248l0,211.86532c-0.48182,14.41215 -12.01154,25.46248 -25.94431,25.46248z" fill="#FFD05B" id="svg_2" stroke="null"/>
  <g id="svg_3" stroke="null">
   <rect x="42.576743" y="136.441372" width="381.502001" height="57.991585" fill="#324A5E" id="svg_4" stroke="null"/>
   <rect x="84.27276" y="232.295724" width="108.794915" height="20.608278" fill="#324A5E" id="svg_5" stroke="null"/>
  </g>
  <rect x="297.046" y="249.754" width="65.772" height="65.772" fill="#FFD05B" id="svg_6"/>
  <g id="svg_7">
   <polygon points="332.49200439453125,256.4490051269531 332.49200439453125,274.9599914550781 316.3450012207031,274.9599914550781 316.3450012207031,249.75399780273438 312.406005859375,249.75399780273438 312.406005859375,283.625 297.0459899902344,283.625 297.0459899902344,287.56298828125 316.3450012207031,287.56298828125 316.3450012207031,278.89801025390625 336.4309997558594,278.89801025390625 336.4309997558594,260.38800048828125 362.8179931640625,260.38800048828125 362.8179931640625,256.4490051269531 " fill="#F9B54C" id="svg_8"/>
   <polygon points="341.94500732421875,293.47100830078125 326.1910095214844,293.47100830078125 326.1910095214844,285.593994140625 322.25201416015625,285.593994140625 322.25201416015625,300.55999755859375 297.0459899902344,300.55999755859375 297.0459899902344,304.49798583984375 326.1910095214844,304.49798583984375 326.1910095214844,297.40899658203125 339.9750061035156,297.40899658203125 339.9750061035156,315.1319885253906 343.91400146484375,315.1319885253906 343.91400146484375,297.40899658203125 362.8179931640625,297.40899658203125 362.8179931640625,293.47100830078125 343.91400146484375,293.47100830078125 " fill="#F9B54C" id="svg_9"/>
  </g>
  <polygon points="367.1510009765625,218.63999938964844 367.1510009765625,241.48300170898438 383.6919860839844,230.06199645996094 " fill="#324A5E" id="svg_10"/>
  <g id="svg_11">
   <rect x="96.185" y="303.711" width="25.994" height="12.603" fill="#FFFFFF" id="svg_12"/>
   <rect x="96.185" y="272.991" width="73.649" height="13.391" fill="#FFFFFF" id="svg_13"/>
   <rect x="143.84" y="303.711" width="25.994" height="12.603" fill="#FFFFFF" id="svg_14"/>
  </g>
  <g id="svg_15">
   <rect x="191.495" y="307.649" width="25.994" height="7.877" fill="#84DBFF" id="svg_16"/>
   <rect x="239.151" y="307.649" width="25.994" height="7.877" fill="#84DBFF" id="svg_17"/>
  </g>
  <path d="m288.86526,462.11097l-227.76625,-225.0716c-9.80168,-9.68573 -9.80168,-24.90581 0,-34.13015l145.62098,-143.89818c9.80169,-9.68572 25.204,-9.68572 34.53877,0l227.76624,225.0716c9.80169,9.68573 9.80169,24.90582 0,34.13015l-145.62098,143.89818c-9.33595,9.68572 -24.73826,9.68572 -34.53876,0z" fill="#191919" id="svg_18" stroke="null"/>
  <rect x="142.475197" y="200.501352" transform="matrix(-0.8335113984256812,-0.8197314525479829,0.8335113984256812,-0.8197314525479829,367.2267057953706,650.8376786136245) " width="313.499" height="47.655" fill="#7f7f7f" id="svg_19"/>
  <rect x="152.557766" y="197.866843" transform="matrix(-1.2326636367405028,-1.2326636367405028,1.2326636367405028,-1.2326636367405028,193.72761806255406,714.0729910426872) " width="102.399" height="16.935" fill="#F1543F" id="svg_20"/>
  <rect x="217.027764" y="310.335224" transform="matrix(-0.8113824689587091,-0.7890172468207832,0.8113824689587091,-0.7890172468207832,228.59545096425575,869.207435226627) " width="65.772" height="65.772" fill="#FFFFFF" id="svg_21"/>
  <g id="svg_22"/>
  <polygon points="383.64300537109375,366.4949951171875 367.4949951171875,382.64300537109375 387.18798828125,386.18798828125 " fill="#FFFFFF" id="svg_25"/>
  <g id="svg_26" stroke="null">
   <rect x="74.215101" y="213.829862" transform="matrix(0.9495431220173836,0.9495431220173836,-0.9495431220173836,0.9495431220173836,220.21992945134645,-81.19146602532669) " width="25.994" height="12.603" fill="#a5a5a5" id="svg_27" stroke="null"/>
   <rect x="87.579101" y="211.068862" transform="matrix(0.9495431220173836,0.9495431220173836,-0.9495431220173836,0.9495431220173836,231.6653416748882,-117.82562122288749) " width="73.649" height="11.421" fill="#a5a5a5" id="svg_28" stroke="null"/>
   <rect x="108.195101" y="247.576862" transform="matrix(0.9495431220173836,0.9495431220173836,-0.9495431220173836,0.9495431220173836,265.6293348814727,-100.1838056222777) " width="25.994" height="12.603" fill="#a5a5a5" id="svg_29" stroke="null"/>
   <rect x="186.101899" y="283.089138" transform="matrix(-0.9495431220173836,-0.9495431220173836,0.9495431220173836,-0.9495431220173836,99.12128824019437,764.6708397256632) " width="25.994" height="12.603" fill="#a5a5a5" id="svg_30" stroke="null"/>
   <rect x="203.006862" y="331.460899" transform="matrix(-0.9495431220173836,0.9495431220173836,-0.9495431220173836,-0.9495431220173836,755.5114022205115,474.8195452709813) " width="12.603" height="25.994" fill="#a5a5a5" id="svg_31" stroke="null"/>
  </g>
  <g id="svg_32"/>
  <g id="svg_33"/>
  <g id="svg_34"/>
  <g id="svg_35"/>
  <g id="svg_36"/>
  <g id="svg_37"/>
  <g id="svg_38"/>
  <g id="svg_39"/>
  <g id="svg_40"/>
  <g id="svg_41"/>
  <g id="svg_42"/>
  <g id="svg_43"/>
  <g id="svg_44"/>
  <g id="svg_45"/>
  <g id="svg_46"/>
  <text fill="#000000" stroke-width="0" stroke-opacity="null" fill-opacity="null" x="265.148736" y="361.558629" id="svg_47" font-size="24" font-family="Helvetica, Arial, sans-serif" text-anchor="start" xml:space="preserve" transform="rotate(43.627628326416016 305.92333984375,401.20953369140625) matrix(2.2310686594830145,0,0,2.3568697439612265,-324.5378216300261,-431.1443591373152) " stroke="null" font-weight="bold">CC</text>
 </g>
</svg>