<svg width="512" height="512" xmlns="http://www.w3.org/2000/svg">

 <g>
  <title>background</title>
  <rect fill="none" id="canvas_background" height="506.123" width="506.123" y="-1" x="-1"/>
 </g>
 <g>
  <title>Layer 1</title>
  <path id="svg_1" fill="#ff7f00" d="m185.379,203.034l0,-52.966c0,-19.5 15.81,-35.31 35.31,-35.31l0,0c22.228,11.114 48.393,11.114 70.621,0l0,0c19.5,0 35.31,15.81 35.31,35.31l0,52.966c0,9.754 -7.901,17.655 -17.655,17.655l-105.931,0c-9.754,0.001 -17.655,-7.9 -17.655,-17.655z"/>
  <circle id="svg_2" fill="#FFD4B0" r="44.138" cy="44.138" cx="256"/>
  <g id="svg_3">
   <path id="svg_4" fill="#6b6b6b" d="m52.966,264.828c-4.873,0 -8.828,-3.955 -8.828,-8.828c-0.08,-85.01 50.706,-161.81 128.953,-195.028c4.484,-1.907 9.675,0.177 11.582,4.661c1.907,4.484 -0.177,9.675 -4.661,11.582l0,0c-71.733,30.446 -118.29,100.855 -118.219,178.785c0,4.873 -3.955,8.828 -8.827,8.828z"/>
   <path id="svg_5" fill="#6b6b6b" d="m459.034,264.828c-4.873,0 -8.828,-3.955 -8.828,-8.828c0.071,-77.93 -46.486,-148.339 -118.219,-178.785c-4.484,-1.907 -6.568,-7.097 -4.661,-11.582c1.907,-4.484 7.097,-6.568 11.582,-4.661c78.248,33.218 129.033,110.018 128.954,195.028c0,4.873 -3.955,8.828 -8.828,8.828z"/>
   <path id="svg_6" fill="#6b6b6b" d="m256,467.862c-28.487,0.053 -56.691,-5.676 -82.909,-16.834c-4.484,-1.907 -6.568,-7.097 -4.661,-11.582s7.097,-6.568 11.582,-4.661c48.596,20.462 103.38,20.462 151.976,0c4.484,-1.907 9.675,0.177 11.582,4.661s-0.177,9.675 -4.661,11.582c-26.218,11.158 -54.422,16.887 -82.909,16.834z"/>
   <path id="svg_7" fill="#6b6b6b" d="m194.207,485.517c-3.293,0.009 -6.312,-1.819 -7.839,-4.74l-17.655,-33.783c-2.26,-4.317 -0.583,-9.657 3.734,-11.908c0.512,-0.265 1.059,-0.486 1.615,-0.653l35.31,-10.355c4.679,-1.368 9.587,1.315 10.955,5.994c1.368,4.679 -1.315,9.587 -5.994,10.955l-24.991,7.327l12.685,24.249c2.26,4.326 0.583,9.657 -3.734,11.908c-1.261,0.662 -2.665,1.006 -4.086,1.006z"/>
   <path id="svg_8" fill="#6b6b6b" d="m459.034,264.828c-2.339,0 -4.59,-0.927 -6.241,-2.586l-26.483,-26.483c-3.39,-3.505 -3.293,-9.092 0.221,-12.482c3.425,-3.302 8.845,-3.302 12.262,0l20.242,20.242l20.242,-20.242c3.505,-3.39 9.092,-3.293 12.482,0.221c3.302,3.425 3.302,8.845 0,12.262l-26.483,26.483c-1.651,1.658 -3.902,2.585 -6.242,2.585z"/>
   <path id="svg_9" fill="#6b6b6b" d="m158.897,114.759c-1.324,0 -2.622,-0.3 -3.814,-0.883c-4.387,-2.11 -6.241,-7.38 -4.131,-11.776l13.762,-28.725l-27.127,-12.359c-4.352,-2.198 -6.1,-7.503 -3.911,-11.855c2.074,-4.114 6.974,-5.941 11.238,-4.193l35.31,16.128c4.431,2.039 6.365,7.283 4.326,11.714c-0.018,0.035 -0.035,0.071 -0.053,0.106l-17.655,36.838c-1.466,3.054 -4.556,4.996 -7.945,5.005z"/>
  </g>
  <path id="svg_10" fill="#EDC4A2" d="m282.377,8.934c14.671,19.341 10.884,46.91 -8.448,61.581c-15.704,11.917 -37.429,11.917 -53.133,0c14.504,19.509 42.072,23.57 61.581,9.075s23.57,-42.072 9.075,-61.581c-2.569,-3.452 -5.624,-6.515 -9.075,-9.075z"/>
  <circle id="svg_11" fill="#FFD4B0" r="44.138" cy="335.448" cx="441.379"/>
  <path id="svg_12" fill="#EDC4A2" d="m467.756,300.244c14.671,19.341 10.884,46.91 -8.448,61.581c-15.704,11.917 -37.429,11.917 -53.133,0c14.504,19.509 42.072,23.57 61.581,9.075c19.509,-14.495 23.57,-42.072 9.075,-61.581c-2.569,-3.452 -5.623,-6.515 -9.075,-9.075z"/>
  <circle id="svg_13" fill="#FFD4B0" r="44.138" cy="335.448" cx="70.621"/>
  <path id="svg_14" fill="#EDC4A2" d="m96.998,300.244c14.671,19.341 10.884,46.91 -8.448,61.581c-15.704,11.917 -37.429,11.917 -53.133,0c14.504,19.509 42.072,23.57 61.581,9.075c19.509,-14.504 23.57,-42.072 9.075,-61.581c-2.57,-3.452 -5.624,-6.515 -9.075,-9.075z"/>
  <path id="svg_15" fill="#bf5f00" d="m185.379,203.034c0,9.754 7.901,17.655 17.655,17.655l105.931,0c9.754,0 17.655,-7.901 17.655,-17.655l0,-52.966c-0.035,-6.144 -1.686,-12.164 -4.793,-17.461c-31.399,44.183 -82.246,70.427 -136.448,70.427z"/>
  <path id="svg_16" fill="#FFA511" d="m0,494.345l0,-52.966c0,-19.5 15.81,-35.31 35.31,-35.31l0,0c22.228,11.114 48.393,11.114 70.621,0l0,0c19.5,0 35.31,15.81 35.31,35.31l0,52.966c0,9.754 -7.901,17.655 -17.655,17.655l-105.931,0c-9.754,0 -17.655,-7.901 -17.655,-17.655z"/>
  <path id="svg_17" fill="#F08015" d="m0,494.345c0,9.754 7.901,17.655 17.655,17.655l105.931,0c9.754,0 17.655,-7.901 17.655,-17.655l0,-52.966c-0.035,-6.144 -1.686,-12.164 -4.793,-17.461c-31.4,44.182 -82.247,70.427 -136.448,70.427z"/>
  <path id="svg_18" fill="#b2b2b2" d="m370.759,494.345l0,-52.966c0,-19.5 15.81,-35.31 35.31,-35.31l0,0c22.228,11.114 48.393,11.114 70.621,0l0,0c19.5,0 35.31,15.81 35.31,35.31l0,52.966c0,9.754 -7.901,17.655 -17.655,17.655l-105.931,0c-9.755,0 -17.655,-7.901 -17.655,-17.655z"/>
  <path id="svg_19" fill="#7f7f7f" d="m370.759,494.345c0,9.754 7.901,17.655 17.655,17.655l105.931,0c9.754,0 17.655,-7.901 17.655,-17.655l0,-52.966c-0.035,-6.144 -1.686,-12.164 -4.793,-17.461c-31.4,44.182 -82.247,70.427 -136.448,70.427z"/>
  <g id="svg_20"/>
  <g id="svg_21"/>
  <g id="svg_22"/>
  <g id="svg_23"/>
  <g id="svg_24"/>
  <g id="svg_25"/>
  <g id="svg_26"/>
  <g id="svg_27"/>
  <g id="svg_28"/>
  <g id="svg_29"/>
  <g id="svg_30"/>
  <g id="svg_31"/>
  <g id="svg_32"/>
  <g id="svg_33"/>
  <g id="svg_34"/>
 </g>
</svg>