<?xml version="1.0" encoding="iso-8859-1"?>
<!-- Generator: Adobe Illustrator 18.0.0, SVG Export Plug-In . SVG Version: 6.00 Build 0)  -->
<!DOCTYPE svg PUBLIC "-//W3C//DTD SVG 1.1//EN" "http://www.w3.org/Graphics/SVG/1.1/DTD/svg11.dtd">
<svg version="1.1" id="Capa_1" xmlns="http://www.w3.org/2000/svg" xmlns:xlink="http://www.w3.org/1999/xlink" x="0px" y="0px"
	 viewBox="0 0 297.5 297.5" style="enable-background:new 0 0 297.5 297.5;" xml:space="preserve">
<g>
	<g id="XMLID_43_">
		<g>
			<path style="fill:#D95459;" d="M277.085,68.27v42.9c0,9.07-7.38,16.45-16.45,16.45h-144.49c-9.07,0-16.45-7.38-16.45-16.45v-42.9
				H277.085z"/>
			<path style="fill:#D95459;" d="M277.075,36.6H99.705c0.08-9,7.42-16.3,16.44-16.3h144.49C269.655,20.3,276.995,27.6,277.075,36.6
				z"/>
			<path style="fill:#2ECC71;" d="M215.885,211.91v42.87c-10.68,3.31-19.12,11.75-22.42,22.42H42.835
				c-3.31-10.67-11.75-19.11-22.42-22.42v-42.87c10.67-3.3,19.11-11.74,22.42-22.42h150.63
				C196.765,200.17,205.205,208.61,215.885,211.91z M185.495,233.35c0-3.72-3.01-6.74-6.73-6.74s-6.74,3.02-6.74,6.74
				s3.02,6.73,6.74,6.73S185.495,237.07,185.495,233.35z M155.115,233.35c0-20.39-16.58-36.97-36.97-36.97
				c-20.38,0-36.96,16.58-36.96,36.97c0,20.38,16.58,36.96,36.96,36.96C138.535,270.31,155.115,253.73,155.115,233.35z
				 M64.265,233.35c0-3.72-3.01-6.74-6.73-6.74s-6.74,3.02-6.74,6.74s3.02,6.73,6.74,6.73S64.265,237.07,64.265,233.35z"/>
			<path style="fill:#A5C63B;" d="M118.145,216.43c9.33,0,16.92,7.59,16.92,16.92c0,9.32-7.59,16.91-16.92,16.91
				c-9.32,0-16.91-7.59-16.91-16.91C101.235,224.02,108.825,216.43,118.145,216.43z"/>
			<path d="M297.135,36.75v74.42c0,20.13-16.38,36.5-36.5,36.5h-144.49c-20.12,0-36.5-16.37-36.5-36.5V36.75
				c0-20.13,16.38-36.5,36.5-36.5h144.49C280.755,0.25,297.135,16.62,297.135,36.75z M277.085,111.17v-42.9H99.695v42.9
				c0,9.07,7.38,16.45,16.45,16.45h144.49C269.705,127.62,277.085,120.24,277.085,111.17z M99.705,36.6h177.37
				c-0.08-9-7.42-16.3-16.44-16.3h-144.49C107.125,20.3,99.785,27.6,99.705,36.6z"/>
			<path d="M297.085,181.97v82.7c0,5.54-4.49,10.03-10.03,10.03h-33.08c-5.53,0-10.02-4.49-10.02-10.03
				c0-5.53,4.49-10.02,10.02-10.02h23.06v-72.68c0-5.53,4.49-10.02,10.02-10.02C292.595,171.95,297.085,176.44,297.085,181.97z"/>
			<path d="M235.935,179.46v107.77c0,5.53-4.49,10.02-10.03,10.02H10.385c-5.53,0-10.02-4.49-10.02-10.02V179.46
				c0-5.53,4.49-10.02,10.02-10.02h215.52C231.445,169.44,235.935,173.93,235.935,179.46z M215.885,277.2v-7.16
				c-2.96,1.73-5.43,4.2-7.16,7.16H215.885z M215.885,254.78v-42.87c-10.68-3.3-19.12-11.74-22.42-22.42H42.835
				c-3.31,10.68-11.75,19.12-22.42,22.42v42.87c10.67,3.31,19.11,11.75,22.42,22.42h150.63
				C196.765,266.53,205.205,258.09,215.885,254.78z M215.885,196.65v-7.16h-7.16C210.455,192.45,212.925,194.92,215.885,196.65z
				 M27.575,189.49h-7.16v7.16C23.375,194.92,25.845,192.45,27.575,189.49z M20.415,277.2h7.16c-1.73-2.96-4.2-5.43-7.16-7.16V277.2
				z"/>
			<path d="M178.765,226.61c3.72,0,6.73,3.02,6.73,6.74s-3.01,6.73-6.73,6.73s-6.74-3.01-6.74-6.73S175.045,226.61,178.765,226.61z"
				/>
			<path d="M118.145,196.38c20.39,0,36.97,16.58,36.97,36.97c0,20.38-16.58,36.96-36.97,36.96c-20.38,0-36.96-16.58-36.96-36.96
				C81.185,212.96,97.765,196.38,118.145,196.38z M135.065,233.35c0-9.33-7.59-16.92-16.92-16.92c-9.32,0-16.91,7.59-16.91,16.92
				c0,9.32,7.59,16.91,16.91,16.91C127.475,250.26,135.065,242.67,135.065,233.35z"/>
			<path d="M57.535,226.61c3.72,0,6.73,3.02,6.73,6.74s-3.01,6.73-6.73,6.73s-6.74-3.01-6.74-6.73S53.815,226.61,57.535,226.61z"/>
			<path d="M49.985,22.33c5.53,0,10.02,4.49,10.02,10.03c0,5.53-4.49,10.02-10.02,10.02h-23.06v72.68c0,5.53-4.49,10.02-10.02,10.02
				c-5.54,0-10.03-4.49-10.03-10.02v-82.7c0-5.54,4.49-10.03,10.03-10.03H49.985z"/>
		</g>
		<g>
		</g>
	</g>
</g>
<g>
</g>
<g>
</g>
<g>
</g>
<g>
</g>
<g>
</g>
<g>
</g>
<g>
</g>
<g>
</g>
<g>
</g>
<g>
</g>
<g>
</g>
<g>
</g>
<g>
</g>
<g>
</g>
<g>
</g>
</svg>
