<svg width="52" height="46" viewBox="0 0 52 46" fill="none" xmlns="http://www.w3.org/2000/svg">
<path d="M52 38C52 42.4192 48.4184 46 44 46C39.5816 46 36 42.4192 36 38C36 33.5824 39.5816 30 44 30C48.4184 30 52 33.5824 52 38" fill="url(#paint0_linear_10_128)"/>
<path d="M46.8591 41.0516C46.7543 41.0516 46.6487 41.0244 46.5519 40.9676L43.4111 39.094C43.2303 38.9852 43.1191 38.7892 43.1191 38.578V34.5404C43.1191 34.2092 43.3879 33.9404 43.7191 33.9404C44.0503 33.9404 44.3191 34.2092 44.3191 34.5404V38.2372L47.1671 39.9356C47.4511 40.106 47.5447 40.474 47.3751 40.7588C47.2623 40.9468 47.0631 41.0516 46.8591 41.0516" fill="white"/>
<path d="M18.5192 15.2202C18.0009 15.2202 17.5809 15.6402 17.5809 16.1585C17.5809 16.6768 18.0009 17.096 18.5192 17.096H26.9892C27.5075 17.096 27.9272 16.6771 27.9272 16.1585C27.9272 15.6402 27.5078 15.2202 26.9892 15.2202H18.5192ZM26.8418 17.8985H18.7455C17.5278 20.498 10.9421 23.7244 11.0004 31.3433C11.0494 37.6754 15.7762 38.7195 22.7755 38.7195H22.7942H22.8135C29.8119 38.7195 34.5392 37.6754 34.5879 31.3433C34.646 23.7243 28.0607 20.498 26.8428 17.8985H26.8418ZM23.2423 21.8537V22.5834C23.7234 22.6337 24.1375 22.7326 24.4804 22.8799C24.8259 23.0296 25.1251 23.2527 25.3828 23.5543C25.5853 23.7842 25.7417 24.0215 25.8523 24.2634C25.9627 24.5071 26.0179 24.7281 26.0179 24.9306C26.0179 25.1561 25.9348 25.3517 25.7717 25.5153C25.6062 25.6784 25.4079 25.7615 25.1736 25.7615C24.7316 25.7615 24.4439 25.522 24.3148 25.0457C24.1657 24.484 23.8083 24.1093 23.2426 23.925V26.73C23.7995 26.8821 24.2457 27.0222 24.5752 27.1489C24.9063 27.2732 25.2036 27.4551 25.4637 27.6943C25.742 27.9404 25.9582 28.2378 26.1103 28.5804C26.2595 28.9253 26.3358 29.3009 26.3358 29.7102C26.3358 30.2234 26.2158 30.7018 25.9745 31.1488C25.7326 31.5978 25.3783 31.961 24.9114 32.2465C24.4418 32.5291 23.8871 32.6973 23.2429 32.7501V33.7482C23.2429 34.0125 23.2164 34.2057 23.1647 34.3281C23.1127 34.4494 23.001 34.5099 22.824 34.5099C22.6632 34.5099 22.5494 34.462 22.4835 34.3626C22.4182 34.2643 22.3871 34.1098 22.3871 33.9022V32.764C21.8621 32.7064 21.4017 32.5827 21.0085 32.3936C20.615 32.205 20.2855 31.9701 20.0236 31.6894C19.7611 31.4068 19.5653 31.1143 19.4413 30.8129C19.3146 30.5092 19.2521 30.21 19.2521 29.9173C19.2521 29.7038 19.3352 29.5077 19.5055 29.3355C19.6735 29.1627 19.8829 29.0754 20.1339 29.0754C20.3359 29.0754 20.5065 29.1215 20.6471 29.2155C20.7848 29.31 20.8818 29.4434 20.937 29.6138C21.0564 29.9818 21.1625 30.2647 21.2522 30.4605C21.3444 30.6563 21.4797 30.8358 21.6618 30.9967C21.8437 31.158 22.0853 31.2823 22.3871 31.3672V28.2327C21.7837 28.0648 21.2823 27.8808 20.877 27.6758C20.472 27.4709 20.1431 27.1808 19.8921 26.8037C19.6417 26.4263 19.5147 25.9406 19.5147 25.3468C19.5147 24.5735 19.7609 23.9384 20.2534 23.4461C20.746 22.9511 21.4569 22.6631 22.3869 22.583V21.8673C22.3869 21.4896 22.5294 21.3008 22.8122 21.3008C23.1002 21.3008 23.2427 21.4851 23.2427 21.8534L23.2423 21.8537ZM22.3865 26.4796V23.8977C22.0089 24.01 21.7139 24.1573 21.5023 24.3418C21.2907 24.5256 21.1849 24.8066 21.1849 25.1794C21.1849 25.5336 21.2837 25.803 21.4814 25.9849C21.6796 26.1668 21.981 26.3323 22.3862 26.4799L22.3865 26.4796ZM23.2423 28.4815V31.4365C23.6955 31.3468 24.0453 31.1649 24.2939 30.8912C24.5401 30.6148 24.6644 30.2973 24.6644 29.9312C24.6644 29.5401 24.5449 29.2385 24.303 29.0245C24.0636 28.8105 23.7092 28.6288 23.2423 28.4815L23.2423 28.4815ZM18.9049 14.6315H26.7824C27.9564 10.6701 29.8295 10.9934 28.3247 9.56712C26.8204 8.14002 21.7289 7.1757 18.3914 8.99981C15.0539 10.8234 17.7314 10.6701 18.9054 14.6318L18.9049 14.6315Z" fill="#FA9D1C"/>
<ellipse cx="23.2939" cy="28.6597" rx="5.5" ry="7.5" fill="#FA9D1C"/>
<path d="M21.4286 31L20.1429 28.6317H19.2143V31H18V25.0046H20.5952C20.8717 24.9868 21.1492 25.0207 21.4102 25.1042C21.6712 25.1876 21.9101 25.3187 22.1116 25.4893C22.313 25.6598 22.4728 25.866 22.5806 26.0947C22.6885 26.3235 22.7421 26.5698 22.7381 26.8181C22.7479 27.16 22.6354 27.4956 22.4168 27.7759C22.1983 28.0562 21.8853 28.2664 21.5238 28.3757L23 30.936L21.4286 31ZM20.381 26.1141H19.1667V27.6716H20.381C20.5071 27.6904 20.6363 27.6843 20.7596 27.6538C20.8829 27.6233 20.9973 27.5691 21.0949 27.495C21.1925 27.4209 21.2709 27.3287 21.3246 27.2247C21.3784 27.1207 21.4062 27.0074 21.4062 26.8928C21.4062 26.7782 21.3784 26.665 21.3246 26.561C21.2709 26.457 21.1925 26.3647 21.0949 26.2906C20.9973 26.2165 20.8829 26.1623 20.7596 26.1318C20.6363 26.1013 20.5071 26.0953 20.381 26.1141Z" fill="#FBEBD5"/>
<path d="M27.4676 31.0505C27.1507 31.3158 26.7363 31.4556 26.3117 31.4404C26.1001 31.4542 25.888 31.4223 25.6916 31.3472C25.4952 31.2721 25.3199 31.1558 25.179 31.0072V33H24V27H25.1559V27.4765C25.3016 27.3206 25.4838 27.1984 25.6884 27.1195C25.8929 27.0406 26.1142 27.0071 26.3348 27.0217C26.7595 27.0065 27.1738 27.1463 27.4907 27.4116C27.8942 27.9461 28.0676 28.6036 27.9761 29.2527C28.0469 29.8901 27.866 30.5297 27.4676 31.0505ZM25.9881 27.9314C25.2946 27.9314 25.2021 28.4729 25.2021 29.1877C25.2021 29.9025 25.2021 30.444 25.9881 30.444C26.7741 30.444 26.7741 29.9025 26.7741 29.1877C26.7741 28.4729 26.6122 27.9314 25.9187 27.9314H25.9881Z" fill="#FBEBD5"/>
<path opacity="0.1" d="M37.4937 0H8.50628C3.80839 0 0 3.80839 0 8.50628V37.4916C0 42.1895 3.80839 45.9979 8.50628 45.9979H37.4937C42.1916 45.9979 46 42.1895 46 37.4916V8.50628C46 3.80839 42.1916 0 37.4937 0Z" fill="#FA9D1C"/>
<defs>
<linearGradient id="paint0_linear_10_128" x1="44" y1="30" x2="44.16" y2="51.36" gradientUnits="userSpaceOnUse">
<stop stop-color="#FFE70D"/>
<stop offset="0.55706" stop-color="#FFD605" stop-opacity="0.82"/>
<stop offset="1" stop-color="#FFCA06" stop-opacity="0"/>
</linearGradient>
</defs>
</svg>
