<svg width="20" height="21" viewBox="0 0 20 21" fill="none" xmlns="http://www.w3.org/2000/svg">
<path fill-rule="evenodd" clip-rule="evenodd" d="M5.84954 0.0623779H14.2625C17.552 0.0623779 19.7547 2.46393 19.7547 6.03599V14.281C19.7547 17.8429 17.552 20.2435 14.2625 20.2435H5.84954C2.56006 20.2435 0.347656 17.8429 0.347656 14.281V6.03599C0.347656 2.46393 2.56006 0.0623779 5.84954 0.0623779ZM12.9697 13.1797C13.2997 12.8376 13.2997 12.2826 12.9697 11.9395L11.2425 10.1434L12.9697 8.3463C13.2997 8.00423 13.2997 7.43916 12.9697 7.09608C12.6398 6.75199 12.1061 6.75199 11.7665 7.09608L10.049 8.89119L8.32177 7.09608C7.98215 6.75199 7.44845 6.75199 7.11853 7.09608C6.78861 7.43916 6.78861 8.00423 7.11853 8.3463L8.84576 10.1434L7.11853 11.9295C6.78861 12.2826 6.78861 12.8376 7.11853 13.1797C7.28349 13.3512 7.50667 13.443 7.72015 13.443C7.94333 13.443 8.15681 13.3512 8.32177 13.1797L10.049 11.3947L11.7762 13.1797C11.9412 13.3623 12.1547 13.443 12.3681 13.443C12.5913 13.443 12.8048 13.3512 12.9697 13.1797Z" fill="#D8DCE8"/>
</svg>
