<svg width="46" height="46" viewBox="0 0 46 46" fill="none" xmlns="http://www.w3.org/2000/svg">
<path d="M16.3958 19.9167H13.8124V28.9584H16.3958V19.9167ZM24.1458 19.9167H21.5624V28.9584H24.1458V19.9167ZM35.1249 31.5417H10.5833V34.1251H35.1249V31.5417ZM31.8958 19.9167H29.3124V28.9584H31.8958V19.9167ZM22.8541 11.2109L29.5837 14.7501H16.1245L22.8541 11.2109ZM22.8541 8.29175L10.5833 14.7501V17.3334H35.1249V14.7501L22.8541 8.29175Z" fill="#FA9D1C"/>
<path opacity="0.1" d="M37.4937 0H8.50628C3.80839 0 0 3.80839 0 8.50628V37.4916C0 42.1895 3.80839 45.9979 8.50628 45.9979H37.4937C42.1916 45.9979 46 42.1895 46 37.4916V8.50628C46 3.80839 42.1916 0 37.4937 0Z" fill="#FA9D1C"/>
</svg>
