<svg width="20" height="19" viewBox="0 0 20 19" fill="none" xmlns="http://www.w3.org/2000/svg">
<path fill-rule="evenodd" clip-rule="evenodd" d="M15.44 4.00203C15.48 4.07195 15.55 4.1219 15.64 4.1219C18.04 4.1219 20 6.07972 20 8.47706V14.4105C20 16.8078 18.04 18.7656 15.64 18.7656H4.36C1.95 18.7656 0 16.8078 0 14.4105V8.47706C0 6.07972 1.95 4.1219 4.36 4.1219C4.44 4.1219 4.52 4.08194 4.55 4.00203L4.61 3.88216C4.64448 3.80959 4.67987 3.73506 4.71579 3.65939C4.97161 3.12055 5.25463 2.52442 5.43 2.17406C5.89 1.27506 6.67 0.775614 7.64 0.765625H12.35C13.32 0.775614 14.11 1.27506 14.57 2.17406C14.7275 2.4887 14.9674 2.99552 15.1987 3.48401C15.2464 3.58483 15.2938 3.68487 15.34 3.78227L15.44 4.00203ZM14.7109 7.83786C14.7109 8.33731 15.1109 8.73686 15.6109 8.73686C16.1109 8.73686 16.5209 8.33731 16.5209 7.83786C16.5209 7.33842 16.1109 6.92887 15.6109 6.92887C15.1109 6.92887 14.7109 7.33842 14.7109 7.83786ZM8.26962 9.38534C8.73962 8.91586 9.34962 8.66614 9.99962 8.66614C10.6496 8.66614 11.2596 8.91586 11.7196 9.37535C12.1796 9.83484 12.4296 10.4442 12.4296 11.0934C12.4196 12.432 11.3396 13.5207 9.99962 13.5207C9.34962 13.5207 8.73962 13.271 8.27962 12.8115C7.81962 12.352 7.56962 11.7427 7.56962 11.0934V11.0835C7.55962 10.4542 7.80962 9.84483 8.26962 9.38534ZM12.7705 13.8705C12.0605 14.5797 11.0805 15.0192 10.0005 15.0192C8.95049 15.0192 7.97049 14.6097 7.22049 13.8705C6.48049 13.1214 6.07049 12.1424 6.07049 11.0936C6.06049 10.0548 6.47049 9.07585 7.21049 8.32668C7.96049 7.57751 8.95049 7.16797 10.0005 7.16797C11.0505 7.16797 12.0405 7.57751 12.7805 8.31669C13.5205 9.06586 13.9305 10.0548 13.9305 11.0936C13.9205 12.1824 13.4805 13.1613 12.7705 13.8705Z" fill="#FA9D1C"/>
</svg>
