<svg width="512" height="512" xmlns="http://www.w3.org/2000/svg">

 <g>
  <title>background</title>
  <rect fill="none" id="canvas_background" height="402" width="582" y="-1" x="-1"/>
 </g>
 <g>
  <title>Layer 1</title>
  <path fill="#ffffff" id="svg_1" d="m336,336c-5.51953,0 -10,4.48047 -10,10s4.48047,10 10,10s10,-4.48047 10,-10s-4.48047,-10 -10,-10zm0,0"/>
  <path fill="#ffffff" id="svg_3" d="m120,166c5.52344,0 10,-4.47656 10,-10l0,-40c0,-5.52344 -4.47656,-10 -10,-10s-10,4.47656 -10,10l0,40c0,5.52344 4.47656,10 10,10zm0,0"/>
  <path fill="#ffffff" stroke="null" id="svg_4" d="m453.984375,236.414063l0,-72.34375c0,-24.931745 -20.195483,-45.214844 -45.019531,-45.214844l-50.421875,0l0,-68.726563c0,-14.959756 -12.116584,-27.128906 -27.011719,-27.128906l-167.472656,0c-14.895135,0 -27.011719,12.16915 -27.011719,27.128906l0,32.554688l-27.011719,0c-14.895135,0 -27.011719,12.16915 -27.011719,27.128906l0,9.042969l-9.003906,0c-24.824049,0 -45.019531,20.283099 -45.019531,45.214844l0,276.714844c0,24.931745 20.195483,45.214844 45.019531,45.214844l275.519531,0c21.739508,0 39.930217,-15.556728 44.112109,-36.171875l15.313673,0c24.824049,0 45.019531,-20.283099 45.019531,-45.214844l0,-23.511719l9.003906,0c14.895135,0 27.011719,-12.16915 27.011719,-27.128906l0,-81.386719c0,-19.943987 -16.157789,-36.171875 -36.015625,-36.171875zm18.007813,36.171875c0,9.989659 -8.061305,18.085938 -18.007813,18.085938l0,-36.171875c9.928914,0 18.007813,8.113948 18.007813,18.085938zm-63.027344,-135.644531c14.895135,0 27.011719,12.16915 27.011719,27.128906l0,126.601563l-41.417969,0l0,-54.257813c0,-21.833823 -15.489528,-40.10345 -36.015625,-44.303484l0,-55.169172l50.421875,0zm-253.910156,-86.8125c0,-4.987758 4.037694,-9.042969 9.003906,-9.042969l167.472656,0c4.966222,0 9.003906,4.055211 9.003906,9.042969l0,141.070313l-41.417969,0l0,-81.386719c0,-14.959756 -12.116584,-27.128906 -27.011719,-27.128906l-117.050781,0l0,-32.554688zm90.039063,141.070313l0,-90.429688l27.011719,0c4.966222,0 9.003906,4.055211 9.003906,9.042969l0,81.386719l-36.015625,0zm-54.023438,0l0,-90.429688l36.015625,0l0,90.429688l-36.015625,0zm-90.039063,-81.386719c0,-4.987758 4.037694,-9.042969 9.003906,-9.042969l63.027344,0l0,90.429688l-72.03125,0l0,-81.386719zm-27.011719,27.128906l9.003906,0l0,54.257813l-7.076503,0c-14.881071,0 -28.939122,-10.823303 -28.939122,-27.128906c0,-14.959756 12.116584,-27.128906 27.011719,-27.128906zm275.519531,330.972656l-275.519531,0c-14.895135,0 -27.011719,-12.16915 -27.011719,-27.128906l0,-241.101092c8.050762,6.022762 18.162572,9.601092 28.939122,9.601092l273.592128,0c14.895135,0 27.011719,12.16915 27.011719,27.128906l0,54.257813l-63.027344,0c-14.895135,0 -27.011719,12.16915 -27.011719,27.128906l0,36.171875c0,14.959756 12.116584,27.128906 27.011719,27.128906l63.027344,0l0,59.683594c0,14.959756 -12.116584,27.128906 -27.011719,27.128906zm86.4375,-63.300781c0,14.959756 -12.116584,27.128906 -27.011719,27.128906l-14.40625,0l0,-50.640625l41.417969,0l0,23.511719zm27.011719,-41.597656l-149.464844,0c-4.966213,0 -9.003906,-4.055202 -9.003906,-9.042969l0,-36.171875c0,-4.987758 4.037694,-9.042969 9.003906,-9.042969l140.460938,0c6.425836,0 12.591405,-1.688494 18.007813,-4.842935l0,50.057779c0,4.987767 -4.037685,9.042969 -9.003906,9.042969zm0,0"/>
  <path fill="#ffffff" id="svg_5" d="m422,336l-46,0c-5.52344,0 -10,4.47656 -10,10s4.47656,10 10,10l46,0c5.52344,0 10,-4.47656 10,-10s-4.47656,-10 -10,-10zm0,0"/>
 </g>
</svg>