<svg width="490.1" height="490.1" xmlns="http://www.w3.org/2000/svg">
 <g>
  <title>background</title>
  <rect x="-1" y="-1" width="492.1" height="492.1" id="canvas_background" fill="none"/>
 </g>

 <g>
  <title>Layer 1</title>
  <g stroke="null" id="svg_1">
   <g stroke="null" id="svg_2">
    <g stroke="null" id="svg_3">
     <path stroke="#ffffff" d="m366.869191,30.2l-246.550827,0c-24.690104,0 -44.73987,21.064826 -44.73987,47.004916l0,214.419687l-28.2798,-29.711522c-4.202571,-4.415335 -10.944195,-4.415335 -15.146766,0s-4.202571,11.498267 0,15.913602l46.666048,49.028611c2.101285,2.207667 4.815446,3.311501 7.61716,3.311501s5.515874,-1.103834 7.61716,-3.311501l46.666048,-49.028611c4.202571,-4.415335 4.202571,-11.498267 0,-15.913602c-4.202571,-4.415335 -10.944195,-4.415335 -15.146766,0l-28.367354,29.803509l0,-214.511673c0,-13.521962 10.418874,-24.468313 23.289247,-24.468313l246.463273,0c12.870373,0 23.289247,10.94635 23.289247,24.468313l0,31.275287c0,6.255057 4.815446,11.314295 10.769088,11.314295s10.769088,-5.059238 10.769088,-11.314295l0,-31.275287c-0.262661,-25.848105 -20.312426,-47.004916 -44.914977,-47.004916z" class="active-path" fill="#ffffff" id="svg_4"/>
     <path stroke="#ffffff" d="m393.222813,158.33669l-46.666048,49.028611c-4.202571,4.415335 -4.202571,11.498267 0,15.913602c2.101285,2.207667 4.815446,3.311501 7.61716,3.311501s5.515874,-1.103834 7.61716,-3.311501l28.367354,-29.803509l0,214.419687c0,13.521962 -10.418874,24.468313 -23.289247,24.468313l-246.550827,0c-12.870373,0 -23.289247,-10.94635 -23.289247,-24.468313l0,-31.275287c0,-6.255057 -4.815446,-11.314295 -10.769088,-11.314295s-10.769088,5.059238 -10.769088,11.314295l0,31.275287c0,25.940091 20.049765,47.004916 44.73987,47.004916l246.463273,0c24.690104,0 44.73987,-21.064826 44.73987,-47.004916l0,-214.419687l28.367354,29.803509c4.202571,4.415335 10.944195,4.415335 15.146766,0s4.202571,-11.498267 0,-15.913602l-46.666048,-49.028611c-3.852357,-4.231362 -11.031749,-4.231362 -15.059212,0z" class="active-path" fill="#ffffff" id="svg_5"/>
    </g>
   </g>
  </g>
  <text fill="#ffffff" stroke-width="1.5" x="210.74211" y="218.077503" id="svg_13" font-size="24" font-family="Helvetica, Arial, sans-serif" text-anchor="start" xml:space="preserve" transform="matrix(3.879267732943511,0,0,5.121189427447522,-631.2616346922122,-842.1237799610426) " stroke="#ffffff">Rp</text>
 </g>
</svg>