<svg width="26" height="18" viewBox="0 0 26 18" fill="none" xmlns="http://www.w3.org/2000/svg">
<path fill-rule="evenodd" clip-rule="evenodd" d="M9.73515 12.2401C10.9223 12.8403 11.6346 13.6801 11.6346 14.6401C11.6346 16.4402 9.02283 18 5.81731 18C2.6118 18 0 16.4399 0 14.6401C0 13.6801 0.71232 12.84 1.89947 12.2401C2.9681 12.7201 4.27386 13.0802 5.81731 13.0802C7.36077 13.0802 8.78541 12.7201 9.73515 12.2401ZM20.1826 0C23.3881 0 25.9999 1.43998 25.9999 3.35992C25.9999 5.16004 23.3881 6.59995 20.1826 6.59995C16.9771 6.59995 14.3653 5.15997 14.3653 3.35992C14.3653 1.43998 16.9771 0 20.1826 0ZM24.2191 6.59995C25.2877 7.20008 26 8.03994 26 8.99991C26 10.8 23.3882 12.2399 20.1827 12.2399C16.9772 12.2399 14.3654 10.8 14.3654 8.99991C14.3654 8.03994 15.0777 7.19978 16.2649 6.59995C17.3335 7.07994 18.6392 7.44004 20.1827 7.44004C21.7261 7.44004 23.1507 7.07991 24.2191 6.59995ZM24.2191 12.2399C25.2877 12.8401 26 13.6799 26 14.6399C26 16.44 23.3882 17.9998 20.1827 17.9998C16.9772 17.9998 14.3654 16.4397 14.3654 14.6399C14.3654 13.6799 15.0777 12.8398 16.2649 12.2399C17.3335 12.7199 18.6392 13.08 20.1827 13.08C21.7261 13.08 23.1507 12.7199 24.2191 12.2399ZM5.81731 7.07734e-05C9.02283 7.07734e-05 11.6346 1.44006 11.6346 3.35999C11.6346 5.16011 9.02283 6.60003 5.81731 6.60003C2.6118 6.60003 0 5.16004 0 3.35999C0 1.44006 2.6118 7.07734e-05 5.81731 7.07734e-05ZM9.73515 6.60003C10.9223 7.20015 11.6346 8.04001 11.6346 8.99998C11.6346 10.8001 9.02283 12.24 5.81731 12.24C2.6118 12.24 0 10.8 0 8.99998C0 8.04001 0.71232 7.19985 1.89947 6.60003C2.9681 7.08002 4.27386 7.44011 5.81731 7.44011C7.36077 7.44011 8.78541 7.07998 9.73515 6.60003Z" fill="#FA9D1C"/>
</svg>
