<svg width="20" height="20" viewBox="0 0 20 20" fill="none" xmlns="http://www.w3.org/2000/svg">
<path d="M4.20741 0.631639C3.41245 0.54279 2.59132 0.54279 1.79637 0.631639C1.1977 0.698548 0.712546 1.16975 0.641659 1.77584C0.54653 2.58918 0.54653 3.41085 0.641659 4.2242C0.712546 4.83028 1.1977 5.30149 1.79637 5.36839C2.59132 5.45724 3.41245 5.45724 4.20741 5.36839C4.80608 5.30149 5.29123 4.83028 5.36212 4.2242C5.45725 3.41085 5.45725 2.58918 5.36212 1.77583C5.29123 1.16975 4.80608 0.698548 4.20741 0.631639Z" fill="#FA9D1C"/>
<path d="M11.2074 0.631639C10.4124 0.54279 9.59131 0.54279 8.79636 0.631639C8.19769 0.698548 7.71254 1.16975 7.64165 1.77584C7.54652 2.58918 7.54652 3.41085 7.64165 4.2242C7.71254 4.83028 8.19769 5.30149 8.79636 5.36839C9.59131 5.45724 10.4124 5.45724 11.2074 5.36839C11.8061 5.30149 12.2912 4.83028 12.3621 4.2242C12.4572 3.41085 12.4572 2.58918 12.3621 1.77583C12.2912 1.16975 11.8061 0.698548 11.2074 0.631639Z" fill="#FA9D1C"/>
<path d="M18.2074 0.631639C17.4124 0.54279 16.5913 0.54279 15.7964 0.631639C15.1977 0.698548 14.7125 1.16975 14.6417 1.77584C14.5465 2.58918 14.5465 3.41085 14.6417 4.2242C14.7125 4.83028 15.1977 5.30149 15.7964 5.36839C16.5913 5.45724 17.4124 5.45724 18.2074 5.36839C18.8061 5.30149 19.2912 4.83028 19.3621 4.2242C19.4572 3.41085 19.4572 2.58918 19.3621 1.77583C19.2912 1.16975 18.8061 0.698548 18.2074 0.631639Z" fill="#FA9D1C"/>
<path d="M4.20741 7.63164C3.41245 7.54279 2.59132 7.54279 1.79637 7.63164C1.1977 7.69855 0.712546 8.16975 0.641659 8.77584C0.54653 9.58918 0.54653 10.4108 0.641659 11.2242C0.712546 11.8303 1.1977 12.3015 1.79637 12.3684C2.59132 12.4572 3.41245 12.4572 4.20741 12.3684C4.80608 12.3015 5.29123 11.8303 5.36212 11.2242C5.45725 10.4108 5.45725 9.58918 5.36212 8.77584C5.29123 8.16975 4.80608 7.69855 4.20741 7.63164Z" fill="#FA9D1C"/>
<path d="M11.2074 7.63164C10.4124 7.54279 9.59131 7.54279 8.79636 7.63164C8.19769 7.69855 7.71254 8.16975 7.64165 8.77584C7.54652 9.58918 7.54652 10.4108 7.64165 11.2242C7.71254 11.8303 8.19769 12.3015 8.79636 12.3684C9.59131 12.4572 10.4124 12.4572 11.2074 12.3684C11.8061 12.3015 12.2912 11.8303 12.3621 11.2242C12.4572 10.4108 12.4572 9.58918 12.3621 8.77584C12.2912 8.16975 11.8061 7.69855 11.2074 7.63164Z" fill="#FA9D1C"/>
<path d="M18.2074 7.63164C17.4124 7.54279 16.5913 7.54279 15.7964 7.63164C15.1977 7.69855 14.7125 8.16975 14.6417 8.77584C14.5465 9.58918 14.5465 10.4108 14.6417 11.2242C14.7125 11.8303 15.1977 12.3015 15.7964 12.3684C16.5913 12.4572 17.4124 12.4572 18.2074 12.3684C18.8061 12.3015 19.2912 11.8303 19.3621 11.2242C19.4572 10.4108 19.4572 9.58918 19.3621 8.77584C19.2912 8.16975 18.8061 7.69855 18.2074 7.63164Z" fill="#FA9D1C"/>
<path d="M4.20741 14.6316C3.41245 14.5428 2.59132 14.5428 1.79637 14.6316C1.1977 14.6986 0.712546 15.1698 0.641659 15.7758C0.54653 16.5892 0.54653 17.4109 0.641659 18.2242C0.712546 18.8303 1.1977 19.3015 1.79637 19.3684C2.59132 19.4572 3.41245 19.4572 4.20741 19.3684C4.80608 19.3015 5.29123 18.8303 5.36212 18.2242C5.45725 17.4109 5.45725 16.5892 5.36212 15.7758C5.29123 15.1698 4.80608 14.6986 4.20741 14.6316Z" fill="#FA9D1C"/>
<path d="M11.2074 14.6316C10.4124 14.5428 9.59131 14.5428 8.79636 14.6316C8.19769 14.6986 7.71254 15.1698 7.64165 15.7758C7.54652 16.5892 7.54652 17.4109 7.64165 18.2242C7.71254 18.8303 8.19769 19.3015 8.79636 19.3684C9.59131 19.4572 10.4124 19.4572 11.2074 19.3684C11.8061 19.3015 12.2912 18.8303 12.3621 18.2242C12.4572 17.4109 12.4572 16.5892 12.3621 15.7758C12.2912 15.1698 11.8061 14.6986 11.2074 14.6316Z" fill="#FA9D1C"/>
<path d="M18.2074 14.6316C17.4124 14.5428 16.5913 14.5428 15.7964 14.6316C15.1977 14.6986 14.7125 15.1698 14.6417 15.7758C14.5465 16.5892 14.5465 17.4109 14.6417 18.2242C14.7125 18.8303 15.1977 19.3015 15.7964 19.3684C16.5913 19.4572 17.4124 19.4572 18.2074 19.3684C18.8061 19.3015 19.2912 18.8303 19.3621 18.2242C19.4572 17.4109 19.4572 16.5892 19.3621 15.7758C19.2912 15.1698 18.8061 14.6986 18.2074 14.6316Z" fill="#FA9D1C"/>
</svg>
