<svg width="27" height="21" viewBox="0 0 27 21" fill="none" xmlns="http://www.w3.org/2000/svg">
<path d="M13.5003 3.24068C9.33188 3.24068 5.93937 6.63168 5.93937 10.8002C5.93937 14.9687 9.33168 18.3597 13.5003 18.3597C17.669 18.3597 21.0613 14.9687 21.0613 10.8002C21.0613 6.63168 17.669 3.24068 13.5003 3.24068ZM14.1753 14.7157V15.6609H12.8253V14.7157H11.0706V13.3657H12.8253V11.4751C11.762 11.4883 10.3956 10.8642 10.3956 9.1799C10.3956 7.49597 11.8752 6.81475 12.8253 6.88466V5.93942H14.1753V6.88466H15.9301V8.23466H14.1753V10.1252C15.201 10.0629 16.6051 10.7366 16.6051 12.4204C16.6051 14.1043 15.1628 14.7705 14.1753 14.7157ZM12.8253 8.23471V10.1252C12.3679 10.1556 11.7456 10.0158 11.7456 9.18C11.7456 8.34416 12.5072 8.17449 12.8253 8.23476V8.23471ZM15.2551 12.4205C15.2551 13.2563 14.5097 13.4322 14.1753 13.3657V11.4752C14.5522 11.4404 15.2551 11.5846 15.2551 12.4204V12.4205ZM21.9231 17.55C23.4091 15.6998 24.3001 13.3524 24.3001 10.8C24.3001 4.84505 19.4551 0 13.5001 0C7.5452 0 2.70015 4.84505 2.70015 10.8C2.70015 13.3524 3.59114 15.6995 5.07696 17.55H0V20.25H27V17.55H21.9231ZM17.2152 18.9H9.78446C6.71813 17.4916 4.58937 14.3942 4.58937 10.8C4.58937 5.87973 8.57761 1.89048 13.5003 1.89048C18.4221 1.89048 22.4113 5.87964 22.4113 10.8C22.4113 14.3946 20.2818 17.4917 17.2157 18.9H17.2152Z" fill="#FA9D1C"/>
</svg>
