<svg width="19" height="22" viewBox="0 0 19 22" fill="none" xmlns="http://www.w3.org/2000/svg">
<path d="M15.0609 0.140015H2.14511C1.3069 0.140015 0.621094 0.825822 0.621094 1.66403V18.7713C0.621094 20.2573 1.84031 21.4765 3.32622 21.4765H13.1561C14.6421 21.4765 15.8613 20.2573 15.8613 18.7713V5.8934C15.8613 4.40748 14.6421 3.18827 13.1561 3.18827H2.9069C2.4878 3.18827 2.14489 2.84536 2.14489 2.42626C2.14489 2.00715 2.4878 1.66425 2.9069 1.66425H15.0607C16.318 1.66425 17.3848 2.69296 17.3848 3.98838V19.1523C17.3848 19.5334 17.6516 19.8763 18.0326 19.9525C18.5279 20.0287 18.9089 19.6477 18.9089 19.1904V3.98859C18.9089 1.85497 17.1943 0.14045 15.0607 0.14045L15.0609 0.140015Z" fill="#FA9D1C"/>
</svg>
