<svg width="496" height="496" xmlns="http://www.w3.org/2000/svg">
 <g>
  <title>background</title>
  <rect x="-1" y="-1" width="498" height="498" id="canvas_background" fill="none"/>
 </g>

 <g>
  <title>Layer 1</title>
  <g id="svg_1">
   <g id="svg_2">
    <path d="m496,248c0,21.488 -18.553,40.251 -23.85,60.07c-5.481,20.506 1.043,46.002 -9.345,63.956c-10.537,18.211 -35.979,25.246 -50.759,40.025c-14.779,14.779 -21.813,40.22 -40.023,50.756c-17.953,10.387 -43.448,3.862 -63.953,9.343c-19.818,5.297 -38.581,23.85 -60.07,23.85c-21.488,0 -40.251,-18.553 -60.07,-23.85c-20.506,-5.481 -46.002,1.043 -63.956,-9.345c-18.211,-10.537 -25.246,-35.979 -40.025,-50.759c-14.779,-14.779 -40.22,-21.813 -50.756,-40.023c-10.387,-17.953 -3.862,-43.448 -9.343,-63.953c-5.297,-19.818 -23.85,-38.581 -23.85,-60.07c0,-21.488 18.553,-40.251 23.85,-60.07c5.481,-20.506 -1.043,-46.002 9.345,-63.956c10.537,-18.211 35.979,-25.246 50.759,-40.025c14.779,-14.779 21.813,-40.22 40.023,-50.756c17.953,-10.387 43.448,-3.862 63.953,-9.343c19.818,-5.297 38.581,-23.85 60.07,-23.85c21.488,0 40.251,18.553 60.07,23.85c20.506,5.481 46.002,-1.043 63.956,9.345c18.211,10.537 25.246,35.979 40.025,50.759c14.779,14.779 40.22,21.813 50.756,40.023c10.387,17.953 3.862,43.448 9.343,63.953c5.297,19.818 23.85,38.581 23.85,60.07z" fill="#7f7f7f" id="svg_3"/>
   </g>
   <g id="svg_4">
    <path d="m83.951,83.951c-14.78,14.778 -40.22,21.813 -50.757,40.023c-10.388,17.954 -3.863,43.45 -9.344,63.956c-5.297,19.819 -23.85,38.581 -23.85,60.07c0,21.488 18.553,40.251 23.85,60.07c5.481,20.505 -1.044,46 9.343,63.953c10.536,18.21 35.978,25.244 50.756,40.023c14.779,14.78 21.814,40.222 40.025,50.759c17.954,10.388 43.45,3.864 63.956,9.345c19.819,5.297 38.582,23.85 60.07,23.85c21.489,0 40.252,-18.553 60.07,-23.85c20.505,-5.481 46,1.044 63.953,-9.343c18.21,-10.536 25.244,-35.978 40.023,-50.756l0.002,-0.002l-328.097,-328.098z" fill="#4c4c4c" id="svg_5"/>
   </g>
   <g id="svg_6">
    <circle cx="248" cy="248" r="176" fill="#FFFFFF" id="svg_7"/>
   </g>
   <g id="svg_8">
    <path d="m248,424c48.601,0 92.601,-19.7 124.451,-51.549l-248.902,-248.902c-31.849,31.85 -51.549,75.85 -51.549,124.451c0,97.202 78.798,176 176,176z" fill="#e5e5e5" id="svg_9"/>
   </g>
   <g id="svg_10">
    <circle cx="248" cy="248" r="152" fill="#ff7f00" id="svg_11"/>
   </g>
   <g id="svg_12">
    <path d="m140.52,140.52c-27.506,27.506 -44.52,65.506 -44.52,107.48c0,83.947 68.053,152 152,152c41.974,0 79.974,-17.014 107.48,-44.52l-214.96,-214.96z" fill="#d36702" id="svg_13"/>
   </g>
   <g id="svg_14">
    <g id="svg_15">
     <path d="m176,332c-3.07,0 -6.141,-1.172 -8.484,-3.516c-4.688,-4.684 -4.688,-12.285 0,-16.969l144,-144c4.688,-4.688 12.281,-4.688 16.969,0c4.688,4.684 4.688,12.285 0,16.969l-144,144c-2.344,2.344 -5.415,3.516 -8.485,3.516z" fill="#FFFFFF" id="svg_16"/>
    </g>
   </g>
   <g id="svg_17">
    <g id="svg_18">
     <path d="m200,244c-24.258,0 -44,-19.738 -44,-44s19.742,-44 44,-44s44,19.738 44,44s-19.742,44 -44,44zm0,-64c-11.031,0 -20,8.973 -20,20s8.969,20 20,20s20,-8.973 20,-20s-8.969,-20 -20,-20z" fill="#FFFFFF" id="svg_19"/>
    </g>
   </g>
   <g id="svg_20">
    <g id="svg_21">
     <path d="m296,340c-24.258,0 -44,-19.738 -44,-44s19.742,-44 44,-44s44,19.738 44,44s-19.742,44 -44,44zm0,-64c-11.031,0 -20,8.973 -20,20s8.969,20 20,20s20,-8.973 20,-20s-8.969,-20 -20,-20z" fill="#FFFFFF" id="svg_22"/>
    </g>
   </g>
  </g>
  <g id="svg_23"/>
  <g id="svg_24"/>
  <g id="svg_25"/>
  <g id="svg_26"/>
  <g id="svg_27"/>
  <g id="svg_28"/>
  <g id="svg_29"/>
  <g id="svg_30"/>
  <g id="svg_31"/>
  <g id="svg_32"/>
  <g id="svg_33"/>
  <g id="svg_34"/>
  <g id="svg_35"/>
  <g id="svg_36"/>
  <g id="svg_37"/>
 </g>
</svg>