<svg width="512.001" height="512.001" xmlns="http://www.w3.org/2000/svg">
 <g>
  <title>background</title>
  <rect x="-1" y="-1" width="514.001" height="514.001" id="canvas_background" fill="none"/>
 </g>

 <g>
  <title>Layer 1</title>
  <path d="m387.491,337.306l-83.437,-10.673c-10.243,-1.31 -17.917,-10.028 -17.917,-20.354l0,-37.845l-60.275,0l0,37.845c0,10.326 -7.674,19.044 -17.917,20.354l-83.437,10.673c-25.541,3.267 -44.675,25.005 -44.675,50.753l0,38.678c45.895,43.544 107.909,70.263 176.167,70.263s130.272,-26.719 176.166,-70.263l0,-38.678c0,-25.748 -19.133,-47.486 -44.675,-50.753z" fill="#FFC776" id="svg_3"/>
  <path d="m387.491,337.306l-83.437,-10.673c-10.243,-1.31 -17.917,-10.028 -17.917,-20.354l0,-37.845l-30.185,0l0,228.566c0.016,0 0.032,0.001 0.048,0.001c68.258,0 130.272,-26.719 176.166,-70.263l0,-38.678c0,-25.749 -19.133,-47.487 -44.675,-50.754z" fill="#FFBB61" id="svg_4"/>
  <path d="m305.162,284.136l-14.163,7.626c-21.763,11.718 -47.957,11.718 -69.72,0l-14.163,-7.626c-26.154,-14.083 -42.464,-41.389 -42.464,-71.094l0,-87.359l182.973,0l0,87.359c0.001,29.705 -16.309,57.011 -42.463,71.094z" fill="#FED080" id="svg_5"/>
  <path d="m347.625,125.683l-91.673,0l0,174.865c12.051,0.031 24.109,-2.896 35.047,-8.786l14.163,-7.626c26.154,-14.083 42.464,-41.389 42.464,-71.094l-0.001,-87.359l0,0z" fill="#FFC776" id="svg_6"/>
  <path d="m387.491,337.306l-70.616,-9.033c-15.225,16.241 -36.858,26.402 -60.875,26.402s-45.651,-10.161 -60.875,-26.402l-70.616,9.033c-25.541,3.267 -44.675,25.005 -44.675,50.753l0,38.678c0.894,68.544 1.908,70.263 176.166,70.263s130.272,-26.719 176.166,-70.263l0,-38.678c0,-25.748 -19.133,-47.486 -44.675,-50.753z" fill="#666666" id="svg_7"/>
  <path d="m256,497c177.258,0 175.272,3.281 176.166,-70.263l0,-38.678c0,-25.749 -19.134,-47.486 -44.675,-50.753l-70.616,-9.033c-15.225,16.241 -36.858,26.402 -60.875,26.402l0,142.325l0,0z" fill="#4c4c4c" id="svg_8"/>
  <path d="m251.656,354.56c-22.275,-1.144 -42.23,-11.032 -56.531,-26.288l-30.474,3.898l48.254,62.271l43.095,-39.746c-1.459,0 -2.907,-0.047 -4.344,-0.135z" fill="#7f7f7f" id="svg_9"/>
  <path d="m256,354.695l43.095,39.747l48.254,-62.271l-30.474,-3.898c-14.301,15.255 -34.257,25.143 -56.531,26.288c-1.436,0.087 -2.884,0.134 -4.344,0.134z" fill="#666666" id="svg_10"/>
  <path d="m360.25,152.75c0,-57.576 -46.674,-104.25 -104.25,-104.25s-104.25,46.674 -104.25,104.25c0,0.864 0,76.891 0,76.891l18.66,0l0,-51.078c21.719,-24.957 51.772,-41.063 85.59,-41.063s63.871,16.106 85.59,41.063l0,51.078l18.66,0c0,0 0,-76.027 0,-76.891z" fill="#FEC007" id="svg_11"/>
  <path d="m366.585,210.942l-21.45,0l0,-62.204c0,-49.149 -39.986,-89.135 -89.135,-89.135s-89.135,39.986 -89.135,89.135l0,62.204l-21.45,0l0,-62.204c0,-60.976 49.608,-110.585 110.585,-110.585s110.585,49.608 110.585,110.585l0,62.204l0,0z" fill="#37474F" id="svg_12"/>
  <g id="svg_13">
   <path d="m256,38.153c-0.016,0 -0.032,0.001 -0.048,0.001l0,21.449c0.016,0 0.032,0 0.048,0c49.149,0 89.135,39.986 89.135,89.135l0,62.204l21.449,0l0,-62.204c0.001,-60.977 -49.607,-110.585 -110.584,-110.585z" fill="#263238" id="svg_14"/>
   <path d="m304.382,278l-61.012,0l0,-21.45l61.012,0c21.946,0 39.801,-17.854 39.801,-39.801l21.45,0c-0.001,33.774 -27.479,61.251 -61.251,61.251z" fill="#263238" id="svg_15"/>
  </g>
  <path d="m167.613,237.158l-23.453,0c-17.321,0 -31.362,-14.041 -31.362,-31.362l0,-36.458c0,-17.321 14.041,-31.362 31.362,-31.362l23.454,0l0,99.182l-0.001,0z" fill="#7f7f7f" id="svg_16"/>
  <path d="m367.841,237.158l-23.454,0l0,-99.181l23.454,0c17.321,0 31.362,14.041 31.362,31.362l0,36.458c0,17.32 -14.041,31.361 -31.362,31.361z" fill="#666666" id="svg_17"/>
  <path d="m250.28,290.155l-25.263,0c-12.504,0 -22.641,-10.137 -22.641,-22.641l0,0c0,-12.504 10.137,-22.641 22.641,-22.641l25.263,0c12.504,0 22.641,10.137 22.641,22.641l0,0c0,12.504 -10.136,22.641 -22.641,22.641z" fill="#DC2C00" id="svg_18"/>
  <path d="m255.952,245.589l0,43.849c9.759,-2.518 16.969,-11.379 16.969,-21.925l0,0c0,-10.545 -7.209,-19.406 -16.969,-21.924z" fill="#B21F02" id="svg_19"/>
  <g id="svg_20"/>
  <g id="svg_21"/>
  <g id="svg_22"/>
  <g id="svg_23"/>
  <g id="svg_24"/>
  <g id="svg_25"/>
  <g id="svg_26"/>
  <g id="svg_27"/>
  <g id="svg_28"/>
  <g id="svg_29"/>
  <g id="svg_30"/>
  <g id="svg_31"/>
  <g id="svg_32"/>
  <g id="svg_33"/>
  <g id="svg_34"/>
 </g>
</svg>