<?xml version="1.0" encoding="iso-8859-1"?>
<!-- Generator: Adobe Illustrator 19.0.0, SVG Export Plug-In . SVG Version: 6.00 Build 0)  -->
<svg version="1.1" id="Capa_1" xmlns="http://www.w3.org/2000/svg" xmlns:xlink="http://www.w3.org/1999/xlink" x="0px" y="0px"
	 viewBox="0 0 479.997 479.997" style="enable-background:new 0 0 479.997 479.997;" xml:space="preserve">
<path style="fill:#FFF7D9;" d="M380.638,36.638l-28.64-28.64l-28,28l-28-28l-28,28l-28-28l-28,28l-28-28l-28,28l-28-28l-28.64,28.64
	l-35.36-28.64v464l35.376-28.624l28.624,28.624l28-28l28,28l28-28l28,28l28-28l28,28l28-28l28,28l28.624-28.624l35.376,28.624v-464
	L380.638,36.638z"/>
<g>
	<path style="fill:#353535;" d="M419.446,0.798c-2.783-1.329-6.082-0.94-8.48,1l-29.768,24.088L357.654,2.342
		c-3.124-3.123-8.188-3.123-11.312,0l-22.344,22.344L301.654,2.342c-3.124-3.123-8.188-3.123-11.312,0l-22.344,22.344L245.654,2.342
		c-3.124-3.123-8.188-3.123-11.312,0l-22.344,22.344L189.654,2.342c-3.124-3.123-8.188-3.123-11.312,0l-22.344,22.344L133.654,2.342
		c-3.124-3.123-8.188-3.123-11.312,0L98.798,25.886L69.03,1.782c-3.435-2.779-8.472-2.248-11.251,1.187
		c-1.151,1.423-1.78,3.198-1.781,5.029v464c0.002,4.418,3.585,7.999,8.003,7.997c1.831-0.001,3.606-0.629,5.029-1.781l29.776-24.088
		l23.536,23.528c3.124,3.123,8.188,3.123,11.312,0l22.344-22.344l22.344,22.344c3.124,3.123,8.188,3.123,11.312,0l22.344-22.344
		l22.344,22.344c3.124,3.123,8.188,3.123,11.312,0l22.344-22.344l22.344,22.344c3.124,3.123,8.188,3.123,11.312,0l22.344-22.344
		l22.344,22.344c3.124,3.123,8.188,3.123,11.312,0l23.536-23.528l29.776,24.088c3.435,2.779,8.472,2.248,11.251-1.187
		c1.151-1.423,1.78-3.198,1.781-5.029v-464C423.991,4.923,422.221,2.124,419.446,0.798z M407.998,455.198l-22.344-18.072
		c-3.181-2.575-7.793-2.333-10.688,0.56l-22.968,23l-22.344-22.344c-3.124-3.123-8.188-3.123-11.312,0l-22.344,22.344
		l-22.344-22.344c-3.124-3.123-8.188-3.123-11.312,0l-22.344,22.344l-22.344-22.344c-3.124-3.123-8.188-3.123-11.312,0
		l-22.344,22.344l-22.344-22.344c-3.124-3.123-8.188-3.123-11.312,0l-22.344,22.344l-22.968-22.968
		c-2.895-2.893-7.507-3.135-10.688-0.56l-22.344,18.04v-430.4l22.328,18.08c3.181,2.575,7.793,2.333,10.688-0.56l22.984-23.008
		l22.344,22.344c3.124,3.123,8.188,3.123,11.312,0l22.344-22.344l22.344,22.344c3.124,3.123,8.188,3.123,11.312,0l22.344-22.344
		l22.344,22.344c3.124,3.123,8.188,3.123,11.312,0l22.344-22.344l22.344,22.344c3.124,3.123,8.188,3.123,11.312,0l22.344-22.344
		l22.984,22.984c2.895,2.893,7.507,3.135,10.688,0.56l22.328-18.056L407.998,455.198z"/>
	<path style="fill:#353535;" d="M199.998,63.998h16v128h-16V63.998z"/>
	<path style="fill:#353535;" d="M287.998,175.998h-40v-112h-16v120c0,4.418,3.582,8,8,8h48V175.998z"/>
	<path style="fill:#353535;" d="M319.998,63.998h-16v120c0,4.418,3.582,8,8,8h48v-16h-40V63.998z"/>
	<path style="fill:#353535;" d="M127.998,191.998h32c13.255,0,24-10.745,24-24v-24c-0.021-5.923-2.245-11.627-6.24-16
		c3.995-4.373,6.219-10.077,6.24-16v-24c0-13.255-10.745-24-24-24h-32c-4.418,0-8,3.582-8,8v112
		C119.998,188.417,123.58,191.998,127.998,191.998z M167.998,167.998c0,4.418-3.582,8-8,8h-24v-40h24c4.418,0,8,3.582,8,8V167.998z
		 M135.998,79.998h24c4.418,0,8,3.582,8,8v24c0,4.418-3.582,8-8,8h-24V79.998z"/>
	<path style="fill:#353535;" d="M119.998,223.998h16v16h-16V223.998z"/>
	<path style="fill:#353535;" d="M151.998,223.998h64v16h-64V223.998z"/>
	<path style="fill:#353535;" d="M119.998,255.998h96v16h-96V255.998z"/>
	<path style="fill:#353535;" d="M119.998,287.998h96v16h-96V287.998z"/>
	<path style="fill:#353535;" d="M119.998,319.998h96v16h-96V319.998z"/>
	<path style="fill:#353535;" d="M119.998,351.998h96v16h-96V351.998z"/>
	<path style="fill:#353535;" d="M263.998,223.998h96v16h-96V223.998z"/>
	<path style="fill:#353535;" d="M263.998,255.998h16v16h-16V255.998z"/>
	<path style="fill:#353535;" d="M295.998,255.998h64v16h-64V255.998z"/>
	<path style="fill:#353535;" d="M263.998,287.998h96v16h-96V287.998z"/>
	<path style="fill:#353535;" d="M263.998,319.998h96v16h-96V319.998z"/>
	<path style="fill:#353535;" d="M263.998,351.998h96v16h-96V351.998z"/>
</g>
<g>
</g>
<g>
</g>
<g>
</g>
<g>
</g>
<g>
</g>
<g>
</g>
<g>
</g>
<g>
</g>
<g>
</g>
<g>
</g>
<g>
</g>
<g>
</g>
<g>
</g>
<g>
</g>
<g>
</g>
</svg>
