<svg height="512pt" viewBox="0 0 512 512.0005" width="512pt" xmlns="http://www.w3.org/2000/svg"><path d="m472.523438 81.902344-21.214844-21.210938-40.65625 12.375-12.375 40.660156 21.210937 21.210938c23.394531 23.394531 23.394531 61.460938 0 84.851562-19.742187 19.746094-49.941406 22.824219-72.945312 9.242188 16.253906-17.65625 15.828125-45.148438-1.300781-62.273438l-76.566407 28.285157-255.515625 303.796875c17.546875 17.546875 46.09375 17.546875 63.636719 0l29.984375-29.980469 42.425781 42.425781 63.636719-63.636718-42.425781-42.425782 21.214843-21.214844 42.425782 42.425782 63.640625-63.640625-42.425781-42.425781 37.53125-37.53125c52.953124 42.371093 130.667968 39.039062 179.71875-10.011719 52.636718-52.636719 52.636718-138.285157 0-190.921875zm0 0" fill="#ffa433"/><path d="m430.097656 39.476562c-52.636718-52.636718-138.285156-52.636718-190.921875 0-49.050781 49.050782-52.382812 126.765626-10.011719 179.722657l-216.003906 216.003906c-17.546875 17.542969-17.546875 46.09375 0 63.636719l268.359375-268.359375s63.726563-63.722657 63.726563-63.722657c-17.128906-17.125-44.621094-17.554687-62.273438-1.300781-13.585937-23.003906-10.507812-53.199219 9.238282-72.945312 23.394531-23.394531 61.460937-23.394531 84.851562 0l21.214844 21.214843 53.03125-53.035156zm0 0" fill="#ffc43b"/></svg>