<svg width="512" height="512" xmlns="http://www.w3.org/2000/svg">

 <g>
  <title>background</title>
  <rect fill="none" id="canvas_background" height="402" width="582" y="-1" x="-1"/>
 </g>
 <g>
  <title>Layer 1</title>
  <path id="svg_1" fill="#4c4c4c" d="m467,338l-422,0c-24.8125,0 -45,-20.1875 -45,-45l0,-230c0,-24.8125 20.1875,-45 45,-45l422,0c24.8125,0 45,20.1875 45,45l0,230c0,24.8125 -20.1875,45 -45,45zm0,0"/>
  <path id="svg_2" fill="#333333" d="m467,18l-211,0l0,320l211,0c24.8125,0 45,-20.1875 45,-45l0,-230c0,-24.8125 -20.1875,-45 -45,-45zm0,0"/>
  <path stroke="null" id="svg_3" fill="#b2b2b2" d="m0,98l512,0l0,45.999999l-512,0l0,-45.999999zm0,0"/>
  <path id="svg_4" fill="#f90" d="m257,149c-35.83984,0 -65,29.16016 -65,65l0,55l30,0l0,-55c0,-19.30078 15.69922,-35 35,-35s35,15.69922 35,35l0,55l30,0l0,-55c0,-35.83984 -29.16016,-65 -65,-65zm0,0"/>
  <path stroke="null" id="svg_5" fill="#999999" d="m256,98l256,0l0,45.999999l-256,0l0,-45.999999zm0,0"/>
  <path id="svg_6" fill="#ff7703" d="m292,214l0,55l30,0l0,-55c0,-35.83984 -29.16016,-65 -65,-65l0,30c19.30078,0 35,15.69922 35,35zm0,0"/>
  <path stroke="null" id="svg_7" fill="#fceea9" d="m347,430.000001l-180,0l0,-173.000001l180,0l0,173.000001zm0,0"/>
  <path stroke="null" id="svg_8" fill="#fbde55" d="m347,429.000016l-90,0l0,-172.000016l90,0l0,172.000016zm0,0"/>
  <path id="svg_9" fill="#f90" d="m272,347c0,8.28516 -6.71484,15 -15,15s-15,-6.71484 -15,-15s6.71484,-15 15,-15s15,6.71484 15,15zm0,0"/>
  <path id="svg_10" fill="#ff7703" d="m271,347c0,-8.28516 -6.71484,-15 -15,-15l0,30c8.28516,0 15,-6.71484 15,-15zm0,0"/>
 </g>
</svg>