<svg width="502.4" height="502" xmlns="http://www.w3.org/2000/svg">

 <g>
  <title>background</title>
  <rect fill="none" id="canvas_background" height="482" width="482" y="-1" x="-1"/>
 </g>
 <g>
  <title>Layer 1</title>
  <path id="svg_1" fill="#4a4a56" d="m131.199219,8.199219l240,0c8.800781,0 16,7.199219 16,16l0,432c0,8.800781 -7.199219,16 -16,16l-240,0c-8.800781,0 -16,-7.199219 -16,-16l0,-432c0,-8.800781 7.199219,-16 16,-16zm0,0"/>
  <path id="svg_2" fill="#676b7f" d="m115.199219,72.199219l272,0l0,336l-272,0l0,-336zm0,0"/>
  <path id="svg_3" fill="#f4b12a" d="m347.199219,240.199219c0,53.019531 -42.980469,96 -96,96s-96,-42.980469 -96,-96s42.980469,-96 96,-96s96,42.980469 96,96zm0,0"/>
  <path id="svg_4" fill="#878b9b" d="m235.199219,32.199219l32,0l0,16l-32,0l0,-16zm0,0"/>
  <path id="svg_5" fill="#2ab793" d="m251.199219,328.199219l-220.800781,0l34.402343,-34.398438l-11.199219,-11.199219l-53.601562,53.597657l53.601562,53.601562l11.199219,-11.199219l-34.402343,-34.402343l220.800781,0l0,-16zm0,0"/>
  <path id="svg_6" fill="#2ab793" d="m448.800781,90.601562l-11.199219,11.199219l34.398438,34.398438l-220.800781,0l0,16l220.800781,0l-34.398438,34.402343l11.199219,11.199219l53.597657,-53.601562l-53.597657,-53.597657zm0,0"/>
  <g id="svg_8" fill="#d6d7d8">
   <path id="svg_9" d="m331.199219,336.199219l24,0l0,16l-24,0l0,-16zm0,0"/>
   <path id="svg_10" d="m283.199219,360.199219l24,0l0,16l-24,0l0,-16zm0,0"/>
   <path id="svg_11" d="m179.199219,112.199219l24,0l0,16l-24,0l0,-16zm0,0"/>
   <path id="svg_12" d="m139.199219,96.199219l24,0l0,16l-24,0l0,-16zm0,0"/>
  </g>
  <path id="svg_13" fill="#878b9b" d="m227.199219,432.199219l48,0l0,16l-48,0l0,-16zm0,0"/>
  <path id="svg_14" fill="#d38d1c" d="m196.800781,288.199219c-24,-27.199219 -24,-68 0,-95.199219l12,10.398438c-18.402343,20.800781 -18.402343,52.800781 0,74.402343l-12,10.398438zm0,0"/>
  <path id="svg_15" fill="#d38d1c" d="m305.601562,288.199219l-12,-10.398438c18.398438,-20.800781 18.398438,-52.800781 0,-74.402343l12,-10.398438c24,26.398438 24,68 0,95.199219zm0,0"/>
  <path id="svg_16" d="m123.199219,80.199219l256,0l0,40l16,0l0,-96c0,-13.597657 -10.398438,-24 -24,-24l-240,0c-13.597657,0 -24,10.402343 -24,24l0,288l16,0l0,-232zm8,-64l240,0c4.800781,0 8,3.199219 8,8l0,40l-256,0l0,-40c0,-4.800781 3.199219,-8 8,-8zm0,0"/>
  <path id="svg_17" d="m379.199219,400.199219l-256,0l0,-40l-16,0l0,96c0,13.601562 10.402343,24 24,24l240,0c13.601562,0 24,-10.398438 24,-24l0,-288l-16,0l0,232zm-8,64l-240,0c-4.800781,0 -8,-3.199219 -8,-8l0,-40l256,0l0,40c0,4.800781 -3.199219,8 -8,8zm0,0"/>
  <path id="svg_18" d="m235.199219,32.199219l32,0l0,16l-32,0l0,-16zm0,0"/>
  <path id="svg_19" d="m448.800781,90.601562l-11.199219,11.199219l34.398438,34.398438l-220.800781,0c-57.597657,0 -104,46.402343 -104,104c0,36 18.402343,69.601562 48.800781,88l-165.601562,0l34.402343,-34.398438l-11.199219,-11.199219l-53.601562,53.597657l53.601562,53.601562l11.199219,-11.199219l-34.402343,-34.402343l220.800781,0c57.601562,0 104,-46.398438 104,-104c0,-36 -18.398438,-69.597657 -48.800781,-88l165.601562,0l-34.398438,34.402343l11.199219,11.199219l53.597657,-53.601562l-53.597657,-53.597657zm-109.601562,149.597657c0,48.800781 -39.199219,88 -88,88s-88,-39.199219 -88,-88s39.199219,-88 88,-88s88,39.199219 88,88zm0,0"/>
  <path id="svg_21" d="m331.199219,336.199219l24,0l0,16l-24,0l0,-16zm0,0"/>
  <path id="svg_22" d="m283.199219,360.199219l24,0l0,16l-24,0l0,-16zm0,0"/>
  <path id="svg_23" d="m179.199219,112.199219l24,0l0,16l-24,0l0,-16zm0,0"/>
  <path id="svg_24" d="m139.199219,96.199219l24,0l0,16l-24,0l0,-16zm0,0"/>
  <path id="svg_25" d="m227.199219,432.199219l48,0l0,16l-48,0l0,-16zm0,0"/>
  <path id="svg_26" d="m196.800781,288.199219l12,-10.398438c-18.402343,-20.800781 -18.402343,-52.800781 0,-74.402343l-12,-11.199219c-23.199219,27.199219 -23.199219,68.800781 0,96zm0,0"/>
  <path id="svg_27" d="m305.601562,288.199219c24,-27.199219 24,-68 0,-95.199219l-12,10.398438c18.398438,20.800781 18.398438,52.800781 0,74.402343l12,10.398438zm0,0"/>
  <text font-weight="bold" stroke="null" transform="matrix(2.876329007135848,0,0,2.876329007135848,-425.2502187962565,-394.00666524410866) " xml:space="preserve" text-anchor="start" font-family="Helvetica, Arial, sans-serif" font-size="26" id="svg_28" y="228.778161" x="218.266355" fill-opacity="null" stroke-opacity="null" stroke-width="0" fill="#000000">Rp</text>
 </g>
</svg>