<svg width="504.123" height="504.123" xmlns="http://www.w3.org/2000/svg">

 <g>
  <title>background</title>
  <rect fill="none" id="canvas_background" height="402" width="582" y="-1" x="-1"/>
 </g>
 <g>
  <title>Layer 1</title>
  <path id="svg_1" fill="#A86A3F" d="m39.385,83l393.846,0c21.662,0 39.385,17.723 39.385,39.385l0,47.262c0,21.662 -17.723,39.385 -39.385,39.385l-393.846,0c-21.662,-0.002 -39.385,-17.725 -39.385,-39.386l0,-47.262c0,-21.661 17.723,-39.384 39.385,-39.384z"/>
  <path id="svg_2" fill="#3DB39E" d="m125.637,125.141l246.548,-65.378c8.271,-2.363 16.935,2.757 19.298,11.028l40.96,151.237c2.363,8.271 -2.757,16.935 -11.028,19.298l-320.984,85.464c-8.271,2.363 -16.935,-2.757 -19.298,-11.028l-29.933,-111.064l74.437,-79.557z"/>
  <path id="svg_3" fill="#78CABB" d="m389.514,217.301l-53.169,14.178c-4.332,1.182 -8.665,-1.182 -9.452,-5.514c-1.182,-4.332 1.182,-8.665 5.514,-9.452l45.686,-12.209l-24.418,-91.372l-45.686,12.209c-4.332,1.182 -8.665,-1.182 -9.452,-5.514c-1.182,-4.332 1.182,-8.665 5.514,-9.452l53.169,-14.178c4.332,-1.182 8.665,1.182 9.452,5.514l28.357,106.338c1.18,4.332 -1.183,8.664 -5.515,9.452zm-220.554,59.471l-53.169,14.178c-4.332,1.182 -8.665,-1.182 -9.452,-5.514l-28.357,-106.338c-1.182,-4.332 1.182,-8.665 5.514,-9.452l53.169,-14.178c4.332,-1.182 8.665,1.182 9.452,5.514c1.182,4.332 -1.182,8.665 -5.514,9.452l-45.686,12.209l24.418,91.372l45.686,-12.209c4.332,-1.182 8.665,1.182 9.452,5.514c1.182,3.938 -1.181,8.27 -5.513,9.452z"/>
  <path id="svg_4" fill="#5ABEAC" d="m3.151,180.28c70.104,-40.173 259.151,-150.844 259.151,-150.844c7.483,-4.332 17.329,-1.969 21.662,5.514l78.769,135.483c4.332,7.483 1.575,16.935 -5.908,21.268l-288.296,165.415c-7.483,4.332 -17.329,1.969 -21.662,-5.514c0,0 -22.055,-44.898 -44.111,-82.708c0.001,-88.614 0.395,-59.47 0.395,-88.614z"/>
  <path id="svg_5" fill="#8CD2C5" d="m322.56,166.101l-55.138,-95.311c-2.363,-3.938 -7.089,-5.12 -10.634,-2.757l-47.655,27.569c-3.938,2.363 -5.12,7.089 -2.757,10.634c2.363,3.938 7.089,5.12 10.634,2.757l40.96,-23.631l47.262,81.92l-40.96,23.631c-3.938,2.363 -5.12,7.089 -2.757,10.634c2.363,3.938 7.089,5.12 10.634,2.757l47.655,-27.569c3.544,-1.969 5.119,-6.695 2.756,-10.634zm-208.738,111.459l-40.96,23.631l-47.262,-81.921l40.96,-23.631c3.938,-2.363 5.12,-7.089 2.757,-10.634c-2.363,-3.938 -7.089,-5.12 -10.634,-2.757l-47.655,27.569c-3.938,2.363 -5.12,7.089 -2.757,10.634l55.138,95.311c2.363,3.938 7.089,5.12 10.634,2.757l47.655,-27.569c3.938,-2.363 5.12,-7.089 2.757,-10.634c-1.969,-3.544 -6.695,-5.12 -10.633,-2.756zm20.086,-139.028c-30.326,17.329 -40.566,55.926 -23.237,86.252c17.723,30.326 55.926,40.566 86.252,23.237s40.566,-55.926 23.237,-86.252c-17.723,-29.933 -55.926,-40.566 -86.252,-23.237zm188.652,27.569l-55.138,-95.311c-2.363,-3.938 -7.089,-5.12 -10.634,-2.757l-47.655,27.569c-3.938,2.363 -5.12,7.089 -2.757,10.634c2.363,3.938 7.089,5.12 10.634,2.757l40.96,-23.631l47.262,81.92l-40.96,23.631c-3.938,2.363 -5.12,7.089 -2.757,10.634c2.363,3.938 7.089,5.12 10.634,2.757l47.655,-27.569c3.544,-1.969 5.119,-6.695 2.756,-10.634zm-208.738,111.459l-40.96,23.631l-47.262,-81.921l40.96,-23.631c3.938,-2.363 5.12,-7.089 2.757,-10.634c-2.363,-3.938 -7.089,-5.12 -10.634,-2.757l-47.655,27.569c-3.938,2.363 -5.12,7.089 -2.757,10.634l55.138,95.311c2.363,3.938 7.089,5.12 10.634,2.757l47.655,-27.569c3.938,-2.363 5.12,-7.089 2.757,-10.634c-1.969,-3.544 -6.695,-5.12 -10.633,-2.756zm20.086,-139.028c-30.326,17.329 -40.566,55.926 -23.237,86.252c17.723,30.326 55.926,40.566 86.252,23.237s40.566,-55.926 23.237,-86.252c-17.723,-29.933 -55.926,-40.566 -86.252,-23.237z"/>
  <path id="svg_6" fill="#C47E4D" d="m445.985,476.846l-409.6,0c-21.662,0 -39.385,-17.723 -39.385,-39.385l0,-283.569l448.985,0c21.662,0 39.385,17.723 39.385,39.385l0,244.185c-0.001,21.661 -17.724,39.384 -39.385,39.384zm-417.477,-322.954l-31.508,0l0,-31.508c0,17.329 14.178,31.508 31.508,31.508z"/>
  <path id="svg_7" fill="#A86A3F" d="m488.369,378.384l-63.015,0c-30.326,0 -55.138,-24.812 -55.138,-55.138s24.812,-55.138 55.138,-55.138l63.015,0c8.665,0 15.754,7.089 15.754,15.754l0,78.769c0,8.664 -7.089,15.753 -15.754,15.753z"/>
  <path id="svg_8" fill="#EFC75E" d="m425.354,291.738c17.329,0 31.508,14.178 31.508,31.508s-14.178,31.508 -31.508,31.508c-17.329,0 -31.508,-14.178 -31.508,-31.508s14.179,-31.508 31.508,-31.508z"/>
  <path id="svg_9" fill="#D7B354" d="m433.231,346.876c-17.329,0 -31.508,-14.178 -31.508,-31.508c0,-6.695 1.969,-12.997 5.514,-18.117c-8.271,5.514 -13.391,14.966 -13.391,25.994c0,17.329 14.178,31.508 31.508,31.508c10.634,0 20.086,-5.514 25.994,-13.391c-5.12,3.545 -11.422,5.514 -18.117,5.514z"/>
  <path id="svg_10" fill="#B27245" d="m448.985,461.092l-409.6,0c-21.662,0 -39.385,-17.723 -39.385,-39.385l0,15.754c0,21.662 17.723,39.385 39.385,39.385l409.6,0c21.662,0 39.385,-17.723 39.385,-39.385l0,-15.754c-0.001,21.662 -17.724,39.385 -39.385,39.385z"/>
  <path id="svg_11" fill="#CA8B5F" d="m448.985,153.892l-417.477,0c-17.33,0 -31.508,-14.179 -31.508,-31.508l0,15.754c0,17.329 14.178,31.508 31.508,31.508l417.477,0c21.662,0 39.385,17.723 39.385,39.385l0,-15.754c-0.001,-21.662 -17.724,-39.385 -39.385,-39.385z"/>
  <g id="svg_12"/>
  <g id="svg_13"/>
  <g id="svg_14"/>
  <g id="svg_15"/>
  <g id="svg_16"/>
  <g id="svg_17"/>
  <g id="svg_18"/>
  <g id="svg_19"/>
  <g id="svg_20"/>
  <g id="svg_21"/>
  <g id="svg_22"/>
  <g id="svg_23"/>
  <g id="svg_24"/>
  <g id="svg_25"/>
  <g id="svg_26"/>
  <ellipse ry="91" rx="91" id="svg_27" cy="407.499001" cx="410.561493" stroke-width="1.5" fill="#f3705a"/>
  <path stroke="null" id="svg_28" d="m347.552136,391.652727l41.311252,0l0,-41.31124l42.377503,0l0,41.31124l41.311256,0l0,42.377491l-41.311256,0l0,41.311236l-42.377503,0l0,-41.311236l-41.311252,0l0,-42.377491z" stroke-width="1.5" fill="#ffffff"/>
  <ellipse stroke="null" ry="22.602566" rx="21.500002" id="svg_30" cy="355.101566" cx="410.061495" stroke-width="null" fill="#ffffff"/>
  <ellipse id="svg_31" cy="300.499001" cx="104.561493" stroke-width="null" fill="#ffffff"/>
  <ellipse stroke="null" ry="22.602566" rx="21.500002" id="svg_32" cy="469.101566" cx="410.061495" stroke-width="null" fill="#ffffff"/>
  <ellipse stroke="null" ry="20.999997" rx="20.999997" id="svg_33" cy="412.498996" cx="351.56149" fill-opacity="null" stroke-opacity="null" stroke-width="null" fill="#ffffff"/>
  <ellipse stroke="null" ry="20.999997" rx="20.999997" id="svg_34" cy="412.498996" cx="468.56149" fill-opacity="null" stroke-opacity="null" stroke-width="null" fill="#ffffff"/>
 </g>
</svg>