<svg width="64" height="64" viewBox="0 0 64 64" fill="none" xmlns="http://www.w3.org/2000/svg">
<g opacity="0.1" filter="url(#filter0_d_854_7098)">
<rect x="8" y="4" width="48" height="48" rx="24" fill="url(#paint0_linear_854_7098)" shape-rendering="crispEdges"/>
</g>
<path d="M39.25 26.4764C38.429 26.4764 37.761 25.8145 37.761 25.001C37.761 24.1865 38.429 23.5246 39.25 23.5246C39.449 23.5246 39.64 23.4463 39.78 23.3076C39.921 23.1679 40 22.9786 40 22.7815L39.999 20.1042C39.999 17.841 38.14 16 35.856 16H24.144C21.86 16 20.001 17.841 20.001 20.1042L20 22.8677C20 23.0648 20.079 23.2541 20.22 23.3938C20.36 23.5325 20.551 23.6108 20.75 23.6108C21.599 23.6108 22.239 24.2083 22.239 25.001C22.239 25.8145 21.571 26.4764 20.75 26.4764C20.336 26.4764 20 26.8093 20 27.2195V29.8949C20 32.158 21.858 34 24.143 34H35.857C38.142 34 40 32.158 40 29.8949V27.2195C40 26.8093 39.664 26.4764 39.25 26.4764" fill="#506698"/>
<path d="M33.4308 24.5886L32.2518 25.7366L32.5308 27.3596C32.5788 27.6406 32.4658 27.9176 32.2348 28.0836C32.0058 28.2516 31.7068 28.2726 31.4548 28.1386L29.9998 27.3736L28.5418 28.1396C28.4338 28.1966 28.3158 28.2266 28.1988 28.2266C28.0458 28.2266 27.8948 28.1786 27.7648 28.0846C27.5348 27.9176 27.4218 27.6406 27.4698 27.3596L27.7478 25.7366L26.5688 24.5886C26.3648 24.3906 26.2938 24.0996 26.3818 23.8286C26.4708 23.5586 26.7008 23.3666 26.9818 23.3266L28.6078 23.0896L29.3368 21.6126C29.4638 21.3586 29.7178 21.2006 29.9998 21.2006H30.0018C30.2848 21.2016 30.5388 21.3596 30.6638 21.6136L31.3928 23.0896L33.0218 23.3276C33.2998 23.3666 33.5298 23.5586 33.6178 23.8286C33.7068 24.0996 33.6358 24.3906 33.4308 24.5886" fill="#FAFAFA"/>
<circle cx="39.5" cy="35.5" r="7.5" fill="#FAFAFA"/>
<path fill-rule="evenodd" clip-rule="evenodd" d="M43.109 32.0546C43.3191 32.0574 43.5296 32.0603 43.7409 32.0625C46.0111 32.0625 47.6663 33.681 47.6663 35.9161V38.787C47.6663 41.022 46.0111 42.6405 43.7409 42.6405C42.8315 42.6598 41.9221 42.6662 41.0062 42.6662C40.0903 42.6662 39.1678 42.6598 38.2584 42.6405C35.9882 42.6405 34.333 41.022 34.333 38.787V35.9161C34.333 33.681 35.9882 32.0625 38.265 32.0625C39.122 32.0496 39.9987 32.0368 40.8885 32.0368V31.9276C40.8885 31.4845 40.5155 31.1248 40.0707 31.1248H39.423C38.6837 31.1248 38.0818 30.5339 38.0818 29.8146C38.0818 29.5513 38.3042 29.3329 38.5725 29.3329C38.8472 29.3329 39.0631 29.5513 39.0631 29.8146C39.0631 30.0073 39.2267 30.1614 39.423 30.1614H40.0707C41.0586 30.1678 41.8633 30.9578 41.8698 31.9212V32.0432C42.2822 32.0432 42.6947 32.0489 43.109 32.0546ZM40.2342 37.8298H39.5472V38.5105C39.5472 38.7739 39.3248 38.9922 39.0565 38.9922C38.7818 38.9922 38.5659 38.7739 38.5659 38.5105V37.8298H37.8724C37.6041 37.8298 37.3817 37.6178 37.3817 37.3481C37.3817 37.0847 37.6041 36.8664 37.8724 36.8664H38.5659V36.192C38.5659 35.9287 38.7818 35.7103 39.0565 35.7103C39.3248 35.7103 39.5472 35.9287 39.5472 36.192V36.8664H40.2342C40.5024 36.8664 40.7248 37.0847 40.7248 37.3481C40.7248 37.6178 40.5024 37.8298 40.2342 37.8298ZM43.0146 36.7446H43.0801C43.3483 36.7446 43.5707 36.5326 43.5707 36.2629C43.5707 35.9996 43.3483 35.7812 43.0801 35.7812H43.0146C42.7399 35.7812 42.524 35.9996 42.524 36.2629C42.524 36.5326 42.7399 36.7446 43.0146 36.7446ZM44.1333 38.9537H44.1988C44.467 38.9537 44.6894 38.7418 44.6894 38.472C44.6894 38.2087 44.467 37.9903 44.1988 37.9903H44.1333C43.8579 37.9903 43.6427 38.2087 43.6427 38.472C43.6427 38.7418 43.8579 38.9537 44.1333 38.9537Z" fill="#506698"/>
<defs>
<filter id="filter0_d_854_7098" x="0" y="0" width="64" height="64" filterUnits="userSpaceOnUse" color-interpolation-filters="sRGB">
<feFlood flood-opacity="0" result="BackgroundImageFix"/>
<feColorMatrix in="SourceAlpha" type="matrix" values="0 0 0 0 0 0 0 0 0 0 0 0 0 0 0 0 0 0 127 0" result="hardAlpha"/>
<feOffset dy="4"/>
<feGaussianBlur stdDeviation="4"/>
<feComposite in2="hardAlpha" operator="out"/>
<feColorMatrix type="matrix" values="0 0 0 0 0 0 0 0 0 0 0 0 0 0 0 0 0 0 0.25 0"/>
<feBlend mode="normal" in2="BackgroundImageFix" result="effect1_dropShadow_854_7098"/>
<feBlend mode="normal" in="SourceGraphic" in2="effect1_dropShadow_854_7098" result="shape"/>
</filter>
<linearGradient id="paint0_linear_854_7098" x1="32" y1="4" x2="32" y2="52" gradientUnits="userSpaceOnUse">
<stop stop-color="#757575"/>
<stop offset="1" stop-color="#B4B4B4" stop-opacity="0"/>
</linearGradient>
</defs>
</svg>
