<svg width="32" height="32" viewBox="0 0 32 32" fill="none" xmlns="http://www.w3.org/2000/svg">
<g clip-path="url(#clip0_1570_204)">
<path d="M24 0H8C3.58172 0 0 3.58172 0 8V24C0 28.4183 3.58172 32 8 32H24C28.4183 32 32 28.4183 32 24V8C32 3.58172 28.4183 0 24 0Z" fill="#F6F8FD"/>
<path fill-rule="evenodd" clip-rule="evenodd" d="M8.15812 9H24.8419C25.4789 9 26 9.51838 26 10.1517V20.8483C26 21.4817 25.4789 22 24.8419 22H8.15812C7.52111 22 7 21.4816 7 20.8483V10.1517C7 9.51828 7.52111 9 8.15812 9ZM21.265 17.3021C21.5659 17.3021 21.8455 17.3917 22.0789 17.5451C22.3123 17.3916 22.5921 17.3021 22.893 17.3021C23.7095 17.3021 24.3715 17.9608 24.3715 18.773C24.3715 19.5855 23.7095 20.2439 22.893 20.2439C22.5921 20.2439 22.3123 20.1544 22.0789 20.0011C21.8454 20.1544 21.5658 20.2439 21.265 20.2439C20.4485 20.2439 19.7864 19.5855 19.7864 18.773C19.7864 17.9608 20.4485 17.3021 21.265 17.3021ZM8.98543 16.7036H14.1898V17.949H8.98543V16.7036ZM8.98543 18.9844H17.0525V20.2298H8.98543V18.9844Z" fill="#636772"/>
</g>
<defs>
<clipPath id="clip0_1570_204">
<rect width="32" height="32" fill="white"/>
</clipPath>
</defs>
</svg>
