<svg width="32" height="32" viewBox="0 0 32 32" fill="none" xmlns="http://www.w3.org/2000/svg">
<g clip-path="url(#clip0_1570_213)">
<path d="M24 0H8C3.58172 0 0 3.58172 0 8V24C0 28.4183 3.58172 32 8 32H24C28.4183 32 32 28.4183 32 24V8C32 3.58172 28.4183 0 24 0Z" fill="#F6F8FD"/>
<path fill-rule="evenodd" clip-rule="evenodd" d="M16.7856 6.93345C16.9253 6.80803 17.1102 6.74229 17.2993 6.75072C21.2988 6.87045 24.6413 9.77383 25.2471 13.6543C25.251 13.6775 25.251 13.7011 25.2471 13.7243C25.2602 13.9079 25.1981 14.089 25.0747 14.2276C24.9513 14.3662 24.7766 14.4509 24.5894 14.4628L17.8699 14.906C17.6477 14.9257 17.4273 14.8525 17.2629 14.7046C17.0985 14.5566 17.0053 14.3474 17.0062 14.1285L16.5545 7.52815V7.41931C16.5627 7.23368 16.6459 7.05888 16.7856 6.93345ZM16.3247 16.6319L22.126 16.2742H22.1885C22.4386 16.2783 22.6767 16.3797 22.8506 16.5562C23.0245 16.7326 23.1198 16.9696 23.1156 17.2149C22.8861 20.5593 20.4341 23.3536 17.0974 24.0735C13.7607 24.7933 10.3402 23.266 8.70181 20.3246C8.22007 19.4775 7.91564 18.5445 7.8064 17.5803C7.76403 17.2946 7.74548 17.006 7.75093 16.7174C7.76197 13.1612 10.2939 10.0917 13.8366 9.33956C14.2654 9.25929 14.6954 9.47342 14.8825 9.86044C14.975 9.99982 14.9989 10.1705 15.0098 10.3373C15.0711 11.2772 15.1344 12.2092 15.1974 13.1376C15.2515 13.9361 15.3055 14.732 15.358 15.5279C15.3553 15.7154 15.3847 15.902 15.4451 16.0799C15.5873 16.4299 15.9412 16.652 16.3247 16.6319Z" fill="#636772"/>
</g>
<defs>
<clipPath id="clip0_1570_213">
<rect width="32" height="32" fill="white"/>
</clipPath>
</defs>
</svg>
