<svg width="32" height="32" viewBox="0 0 32 32" fill="none" xmlns="http://www.w3.org/2000/svg">
<g clip-path="url(#clip0_1570_198)">
<path d="M24 0H8C3.58172 0 0 3.58172 0 8V24C0 28.4183 3.58172 32 8 32H24C28.4183 32 32 28.4183 32 24V8C32 3.58172 28.4183 0 24 0Z" fill="#F6F8FD"/>
<path fill-rule="evenodd" clip-rule="evenodd" d="M21.2881 12.6833H25.1667C25.1667 9.56921 23.3007 7.75 20.1393 7.75H11.8607C8.69924 7.75 6.83331 9.56921 6.83331 12.6436V19.3564C6.83331 22.4308 8.69924 24.25 11.8607 24.25H20.1393C23.3007 24.25 25.1667 22.4308 25.1667 19.3564V19.0704H21.2881C19.4881 19.0704 18.0289 17.6477 18.0289 15.8928C18.0289 14.1378 19.4881 12.7151 21.2881 12.7151V12.6833ZM21.2881 14.0497H24.4822C24.8602 14.0497 25.1667 14.3485 25.1667 14.717V17.0367C25.1623 17.4035 24.8584 17.6997 24.4822 17.704H21.3615C20.4502 17.716 19.6534 17.1077 19.4467 16.2423C19.3432 15.7051 19.4885 15.1508 19.8436 14.7279C20.1988 14.305 20.7276 14.0567 21.2881 14.0497ZM21.4267 16.4886H21.7281C22.1152 16.4886 22.4289 16.1827 22.4289 15.8054C22.4289 15.428 22.1152 15.1222 21.7281 15.1222H21.4267C21.2416 15.12 21.0633 15.1903 20.9317 15.3171C20.8 15.444 20.7259 15.617 20.7259 15.7974C20.7259 16.1761 21.0383 16.4842 21.4267 16.4886ZM11.1763 12.6833H16.3504C16.7374 12.6833 17.0511 12.3774 17.0511 12.0001C17.0511 11.6228 16.7374 11.3169 16.3504 11.3169H11.1763C10.7924 11.3169 10.48 11.618 10.4756 11.9922C10.4755 12.3708 10.788 12.679 11.1763 12.6833Z" fill="#636772"/>
</g>
<defs>
<clipPath id="clip0_1570_198">
<rect width="32" height="32" fill="white"/>
</clipPath>
</defs>
</svg>
