<svg width="32" height="32" viewBox="0 0 32 32" fill="none" xmlns="http://www.w3.org/2000/svg">
<g clip-path="url(#clip0_1570_201)">
<path d="M24 0H8C3.58172 0 0 3.58172 0 8V24C0 28.4183 3.58172 32 8 32H24C28.4183 32 32 28.4183 32 24V8C32 3.58172 28.4183 0 24 0Z" fill="#F6F8FD"/>
<path d="M7 20.5766V24.3543C7 24.6249 7.10752 24.8846 7.29893 25.076C7.49033 25.2674 7.74995 25.3749 8.02054 25.3749H24.3545C24.6252 25.3749 24.8847 25.2674 25.0761 25.076C25.2675 24.8846 25.375 24.6251 25.375 24.3543V20.5766C25.375 20.306 25.2675 20.0464 25.0761 19.8549C24.8847 19.6635 24.6252 19.556 24.3545 19.556H8.02054C7.74995 19.556 7.49033 19.6635 7.29893 19.8549C7.10752 20.0464 7 20.306 7 20.5766ZM13.0229 21.9044C13.0229 21.7959 13.066 21.6921 13.1426 21.6153C13.2194 21.5387 13.3234 21.4957 13.4319 21.4957H18.9432C19.1691 21.4957 19.3521 21.6787 19.3521 21.9046V22.1077C19.3521 22.3334 19.1691 22.5165 18.9432 22.5165H13.4319C13.3234 22.5165 13.2194 22.4734 13.1426 22.3968C13.066 22.32 13.023 22.2161 13.023 22.1077L13.0229 21.9044ZM16.1875 18.2291C15.5378 18.2291 14.9146 17.9711 14.4551 17.5115C13.9957 17.052 13.7375 16.4288 13.7375 15.7791C13.7375 15.1293 13.9957 14.5062 14.4551 14.0466C14.9146 13.5872 15.5377 13.3291 16.1875 13.3291C16.8373 13.3291 17.4605 13.5872 17.9199 14.0466C18.3794 14.5062 18.6376 15.1293 18.6376 15.7791C18.6376 16.4288 18.3794 17.052 17.9199 17.5115C17.4605 17.971 16.8373 18.2291 16.1875 18.2291ZM21.0874 13.5333C20.4375 13.5333 19.8145 13.2753 19.3551 12.8157C18.8956 12.3562 18.6376 11.7332 18.6376 11.0833C18.6376 10.4335 18.8956 9.81044 19.3551 9.35099C19.8145 8.89144 20.4377 8.63336 21.0876 8.63336C21.7372 8.63336 22.3605 8.89141 22.8199 9.35099C23.2793 9.81044 23.5375 10.4335 23.5375 11.0833C23.5375 11.7332 23.2793 12.3562 22.8199 12.8157C22.3605 13.2752 21.7371 13.5333 21.0874 13.5333ZM11.0833 11.9C10.4337 11.9 9.81044 11.6419 9.351 11.1825C8.89155 10.7229 8.63336 10.0998 8.63336 9.44998C8.63336 8.8003 8.89155 8.17708 9.351 7.71764C9.81044 7.25809 10.4336 7 11.0833 7C11.7332 7 12.3564 7.25805 12.8158 7.71764C13.2753 8.17708 13.5335 8.80026 13.5335 9.44998C13.5335 10.0998 13.2753 10.7229 12.8158 11.1825C12.3564 11.6419 11.7332 11.9 11.0833 11.9Z" fill="#636772"/>
</g>
<defs>
<clipPath id="clip0_1570_201">
<rect width="32" height="32" fill="white"/>
</clipPath>
</defs>
</svg>
