<svg width="32" height="32" viewBox="0 0 32 32" fill="none" xmlns="http://www.w3.org/2000/svg">
<g clip-path="url(#clip0_1570_210)">
<path d="M24 0H8C3.58172 0 0 3.58172 0 8V24C0 28.4183 3.58172 32 8 32H24C28.4183 32 32 28.4183 32 24V8C32 3.58172 28.4183 0 24 0Z" fill="#F6F8FD"/>
<path fill-rule="evenodd" clip-rule="evenodd" d="M20.7482 8.04242C20.7482 6.82325 21.7382 5.83325 22.9573 5.83325C24.1765 5.83325 25.1665 6.82325 25.1665 8.04242C25.1665 9.26159 24.1765 10.2515 22.9573 10.2515C21.7382 10.2515 20.7482 9.26159 20.7482 8.04242ZM17.2189 17.5292L19.8681 14.111L19.8314 14.1293C19.9781 13.9277 20.0056 13.671 19.9047 13.4418C19.8048 13.2127 19.5839 13.0568 19.3465 13.0385C19.0981 13.011 18.8515 13.121 18.7039 13.3227L16.4865 16.1918L13.9464 14.1935C13.7906 14.0743 13.6072 14.0276 13.4239 14.0468C13.2415 14.0743 13.0765 14.1742 12.9656 14.3209L10.2531 17.851L10.1972 17.9335C10.0414 18.2259 10.1147 18.6017 10.3897 18.8043C10.5181 18.8868 10.6556 18.9418 10.8114 18.9418C11.0231 18.951 11.2239 18.8401 11.3522 18.6668L13.6531 15.7051L16.2656 17.6677L16.3481 17.7217C16.6414 17.8776 17.0081 17.8052 17.2189 17.5292ZM19.1622 7.46519C19.1256 7.69436 19.1072 7.92353 19.1072 8.15269C19.1072 10.2152 20.7756 11.8826 22.8289 11.8826C23.0581 11.8826 23.2781 11.856 23.5072 11.8193V19.2159C23.5072 22.3243 21.6739 24.1668 18.5572 24.1668H11.784C8.6664 24.1668 6.83307 22.3243 6.83307 19.2159V12.4335C6.83307 9.31686 8.6664 7.46519 11.784 7.46519H19.1622Z" fill="#636772"/>
</g>
<defs>
<clipPath id="clip0_1570_210">
<rect width="32" height="32" fill="white"/>
</clipPath>
</defs>
</svg>
