<svg width="32" height="32" viewBox="0 0 32 32" fill="none" xmlns="http://www.w3.org/2000/svg">
<g clip-path="url(#clip0_1570_207)">
<path d="M24 0H8C3.58172 0 0 3.58172 0 8V24C0 28.4183 3.58172 32 8 32H24C28.4183 32 32 28.4183 32 24V8C32 3.58172 28.4183 0 24 0Z" fill="#F6F8FD"/>
<path d="M22.6735 10H9.67386C7.63914 10 6 11.6391 6 13.6739V19.3259C6 21.3606 7.63909 22.9998 9.67386 22.9998H22.6735C24.7082 22.9998 26.3474 21.3607 26.3474 19.3259V13.6739C26.3474 11.6391 24.7083 10 22.6735 10ZM10.2391 15.652C9.44778 15.652 8.82606 15.0303 8.82606 14.239C8.82606 13.4477 9.44778 12.826 10.2391 12.826C11.0303 12.826 11.6521 13.4477 11.6521 14.239C11.6521 15.0303 11.0303 15.652 10.2391 15.652ZM16.1737 20.1737C14.139 20.1737 12.4998 18.5347 12.4998 16.4999C12.4998 14.4651 14.1389 12.826 16.1737 12.826C18.2085 12.826 19.8476 14.4651 19.8476 16.4999C19.8476 18.5347 18.2085 20.1737 16.1737 20.1737ZM22.1083 20.1737C21.317 20.1737 20.6953 19.552 20.6953 18.7607C20.6953 17.9695 21.317 17.3477 22.1083 17.3477C22.8996 17.3477 23.5213 17.9695 23.5213 18.7607C23.5213 19.552 22.8996 20.1737 22.1083 20.1737Z" fill="#636772"/>
</g>
<defs>
<clipPath id="clip0_1570_207">
<rect width="32" height="32" fill="white"/>
</clipPath>
</defs>
</svg>
