<svg width="60" height="56" viewBox="0 0 60 56" fill="none" xmlns="http://www.w3.org/2000/svg">
<mask id="mask0_670_39310" style="mask-type:alpha" maskUnits="userSpaceOnUse" x="6" y="6" width="49" height="47">
<path fill-rule="evenodd" clip-rule="evenodd" d="M6.15527 13.832L48.186 6.98904L54.4015 45.1656L12.3708 52.0085L6.15527 13.832Z" fill="white"/>
</mask>
<g mask="url(#mask0_670_39310)">
<path fill-rule="evenodd" clip-rule="evenodd" d="M13.4062 38.4931L14.1059 42.7908C14.3474 44.2744 15.1501 45.574 16.3695 46.4519C17.5889 47.3299 19.0784 47.6806 20.56 47.4394L45.1816 43.4308C48.2414 42.9326 50.3287 40.0386 49.8327 36.9784L49.132 32.6745C46.3154 32.4147 43.912 30.2798 43.4347 27.3611C42.9594 24.4421 44.5615 21.6551 47.1498 20.5132L46.4522 16.2152C45.9555 13.1509 43.0632 11.0611 40.001 11.5575L15.3773 15.5665C12.3153 16.065 10.2284 18.9611 10.7248 22.0234L11.4491 26.4723C12.5101 26.5498 13.5397 26.8978 14.4475 27.505C15.825 28.4262 16.7606 29.8271 17.0857 31.4525C17.5936 34.5324 15.9959 37.3466 13.4062 38.4931M45.6948 46.5831L21.0753 50.5914C18.7489 50.9701 16.4162 50.4223 14.5028 49.0447C12.5915 47.6667 11.332 45.6283 10.9536 43.304L10.0298 37.6298C9.88812 36.7598 10.4793 35.9387 11.3493 35.7971C13.0806 35.513 14.2517 33.8813 13.969 32.1584C13.7966 31.2848 13.3413 30.6082 12.673 30.1604C12.0068 29.7123 11.2104 29.5378 10.4148 29.7126C9.98046 29.7877 9.54847 29.7048 9.19341 29.4585C8.83834 29.2121 8.59685 28.8286 8.52739 28.402L7.5728 22.5387C6.79309 17.7363 10.0641 13.1956 14.864 12.4142L39.4772 8.40691C44.2901 7.62549 48.8276 10.9035 49.6049 15.7041L50.5284 21.3762C50.67 22.2462 50.0788 23.0673 49.2088 23.2089C47.4835 23.4898 46.3061 25.1226 46.5866 26.8458C46.87 28.5729 48.5024 29.7482 50.2277 29.4673C51.0978 29.3257 51.9188 29.9168 52.0605 30.7868L52.9843 36.461C53.7637 41.2612 50.4926 45.8019 45.6948 46.5831" fill="white" fill-opacity="0.2"/>
</g>
<circle cx="18.9258" cy="22" r="4" fill="white" fill-opacity="0.2"/>
<circle cx="23.9258" cy="21" r="4" fill="white" fill-opacity="0.2"/>
</svg>
