<svg width="32" height="32" viewBox="0 0 32 32" fill="none" xmlns="http://www.w3.org/2000/svg">
<rect width="32" height="32" fill="#E5E5E5"/>
<g clip-path="url(#clip0_0_1)">
<rect width="5646" height="2967" transform="translate(-806 -1262)" fill="#EAF0FF"/>
<g clip-path="url(#clip1_0_1)">
<rect width="360" height="780" transform="translate(-20 -492)" fill="white"/>
<rect width="32" height="32" rx="8" fill="#F6F8FD"/>
<path d="M8 9.00002C7.453 9.00002 7 9.45302 7 10V13.6C7 14.147 7.453 14.6 8 14.6H16.5125C16.3715 14.6553 16.2359 14.7231 16.1063 14.8188C15.7119 15.1099 15.3999 15.5989 15.3999 16.2001V18.8001C15.3999 19.952 16.0414 20.553 16.6061 21.1625C16.8885 21.4674 17.1575 21.7345 17.3374 21.975C17.5173 22.2155 17.6 22.409 17.6 22.6C17.6 22.8094 17.7906 23 18 23H22.6C22.6628 22.9999 22.7254 22.9848 22.7812 22.9562C23.5726 22.5507 24.0485 21.9183 24.2999 21.2437C24.5513 20.5692 24.5998 20.0555 24.5998 19.4V16.7999C24.5998 16.142 24.0577 15.5999 23.3997 15.5999C23.2574 15.5999 23.1269 15.6347 22.9998 15.6811V15.5999C22.9998 15.1378 22.7307 14.7313 22.3435 14.5311C22.7236 14.3888 22.9999 14.026 22.9999 13.6V10C22.9999 9.453 22.5469 9 21.9999 9L8 9.00002ZM8 9.79995H22C22.1178 9.79995 22.2001 9.88226 22.2001 10V13.6C22.2001 13.7178 22.1178 13.8001 22 13.8001H21.2374C21.0285 13.4432 20.6395 13.2 20.1999 13.2C20.0576 13.2 19.927 13.2349 19.7999 13.2812V11.6C19.7999 10.8313 19.1687 10.2 18.4 10.2C17.6313 10.2 17 10.8313 17 11.6V13.8001H8C7.88226 13.8001 7.79994 13.7178 7.79994 13.6V10C7.79994 9.88228 7.88226 9.79995 8 9.79995ZM9.79993 10.5999C9.14186 10.5999 8.59986 11.1419 8.59986 11.8C8.59986 12.458 9.14186 13 9.79993 13C10.458 13 11 12.458 11 11.8C11 11.1419 10.458 10.5999 9.79993 10.5999ZM12.5999 10.5999C11.9418 10.5999 11.3998 11.1419 11.3998 11.8C11.3998 12.458 11.9418 13 12.5999 13C13.2579 13 13.7999 12.458 13.7999 11.8C13.7999 11.1419 13.2579 10.5999 12.5999 10.5999ZM15.3998 10.5999C14.7417 10.5999 14.1997 11.1419 14.1997 11.8C14.1997 12.458 14.7417 13 15.3998 13C16.0579 13 16.5999 12.458 16.5999 11.8C16.5999 11.1419 16.0579 10.5999 15.3998 10.5999ZM18.3998 10.9998C18.7391 10.9998 18.9998 11.2606 18.9998 11.5999V14.3998C19.0028 14.6074 19.1922 14.7935 19.3998 14.7935C19.6074 14.7935 19.7968 14.6072 19.7998 14.3998C19.7998 14.1713 19.9712 13.9998 20.1997 13.9998C20.4282 13.9998 20.5997 14.1713 20.5997 14.3998V15.5999C20.6026 15.8075 20.7921 15.9936 20.9997 15.9936C21.2072 15.9936 21.3967 15.8073 21.3996 15.5999C21.3996 15.3714 21.5711 15.1999 21.7996 15.1999C22.0281 15.1999 22.1996 15.3714 22.1996 15.5999V16.8C22.2025 17.0075 22.3919 17.1936 22.5995 17.1936C22.8071 17.1936 22.9966 17.0074 22.9995 16.8C22.9995 16.5714 23.1709 16.4 23.3995 16.4C23.628 16.4 23.7994 16.5715 23.7994 16.8V19.4C23.7994 20.0152 23.7523 20.4351 23.5557 20.9625C23.3668 21.4693 23.0454 21.8874 22.4745 22.1999H18.3181C18.2444 21.9418 18.1295 21.7012 17.9743 21.4937C17.7416 21.1826 17.4607 20.9077 17.1931 20.6187C16.6582 20.0409 16.1996 19.6603 16.1996 18.8V16.1999C16.1996 15.8559 16.3474 15.6349 16.5809 15.4625C16.7029 15.3725 16.8492 15.3141 16.9998 15.2687V15.8C16.9968 16.0113 17.1884 16.2062 17.3997 16.2062C17.6111 16.2062 17.8028 16.0113 17.7997 15.8V11.6C17.7997 11.2607 18.0605 10.9998 18.3998 10.9998ZM9.79979 11.3998C10.0254 11.3998 10.1998 11.5742 10.1998 11.7998C10.1998 12.0254 10.0254 12.1997 9.79979 12.1997C9.57421 12.1997 9.39983 12.0254 9.39983 11.7998C9.39983 11.5742 9.57421 11.3998 9.79979 11.3998ZM12.5997 11.3998C12.8253 11.3998 12.9997 11.5742 12.9997 11.7998C12.9997 12.0254 12.8253 12.1997 12.5997 12.1997C12.3741 12.1997 12.1998 12.0254 12.1998 11.7998C12.1998 11.5742 12.3741 11.3998 12.5997 11.3998ZM15.3997 11.3998C15.6252 11.3998 15.7996 11.5742 15.7996 11.7998C15.7996 12.0254 15.6252 12.1997 15.3997 12.1997C15.1741 12.1997 14.9997 12.0254 14.9997 11.7998C14.9997 11.5742 15.1741 11.3998 15.3997 11.3998Z" fill="#636772"/>
<rect x="17" y="16" width="10" height="11" fill="#F6F8FD"/>
<path d="M22.0002 16.8333C20.8951 16.8333 19.8352 17.2723 19.0538 18.0537C18.2724 18.8351 17.8334 19.8949 17.8334 21C17.8334 21.5472 17.9412 22.089 18.1506 22.5946C18.3601 23.1001 18.667 23.5594 19.0539 23.9463C19.4409 24.3332 19.9002 24.6401 20.4058 24.8495C20.9113 25.0589 21.4532 25.1666 22.0004 25.1666C22.5476 25.1666 23.0894 25.0588 23.5949 24.8493C24.1004 24.6399 24.5598 24.333 24.9467 23.946C25.3336 23.5591 25.6405 23.0997 25.8498 22.5942C26.0592 22.0886 26.167 21.5468 26.1669 20.9996C26.1669 18.6988 24.301 16.8333 22.0002 16.8333ZM21.9346 23.4302H21.9125C21.5731 23.4202 21.3335 23.1698 21.3434 22.8351C21.353 22.5061 21.5982 22.267 21.9264 22.267L21.9463 22.2679C22.2953 22.2778 22.5323 22.5257 22.5223 22.8699C22.5123 23.1997 22.2714 23.4302 21.9346 23.4302ZM23.363 20.5955C23.2832 20.7084 23.1078 20.8498 22.8865 21.0222L22.6425 21.1901C22.5088 21.2943 22.4281 21.3928 22.3982 21.4888C22.3739 21.5643 22.3626 21.5847 22.3604 21.7388V21.7778H21.4294L21.432 21.6988C21.4437 21.3759 21.4515 21.1849 21.5856 21.0274C21.7962 20.7808 22.2606 20.4814 22.2801 20.4688C22.3438 20.4222 22.3994 20.3655 22.4446 20.3008C22.5423 20.1658 22.5852 20.0599 22.5852 19.9566C22.5852 19.8116 22.5427 19.6775 22.4581 19.559C22.3765 19.4436 22.2215 19.3863 21.9975 19.3863C21.7753 19.3863 21.623 19.4566 21.5323 19.6016C21.4385 19.7496 21.3912 19.9054 21.3912 20.0647V20.1046H20.4315L20.4333 20.0629C20.458 19.4757 20.6681 19.0525 21.0561 18.8055C21.3005 18.6488 21.6047 18.5694 21.9594 18.5694C22.4229 18.5694 22.8153 18.6823 23.1234 18.9045C23.4364 19.1298 23.5948 19.4674 23.5948 19.9076C23.5944 20.1537 23.5167 20.385 23.363 20.5955Z" fill="#636772"/>
</g>
</g>
<defs>
<clipPath id="clip0_0_1">
<rect width="5646" height="2967" fill="white" transform="translate(-806 -1262)"/>
</clipPath>
<clipPath id="clip1_0_1">
<rect width="360" height="780" fill="white" transform="translate(-20 -492)"/>
</clipPath>
</defs>
</svg>
