<svg width="32" height="32" viewBox="0 0 32 32" fill="none" xmlns="http://www.w3.org/2000/svg">
<rect width="32" height="32" fill="#E5E5E5"/>
<g clip-path="url(#clip0_0_1)">
<rect width="5646" height="2967" transform="translate(-806 -1212)" fill="#EAF0FF"/>
<g clip-path="url(#clip1_0_1)">
<rect width="360" height="780" transform="translate(-20 -442)" fill="white"/>
<rect width="32" height="32" rx="8" fill="#F6F8FD"/>
<path fill-rule="evenodd" clip-rule="evenodd" d="M15.4327 23.3334H11.361C9.32437 23.3334 7.66687 21.6759 7.66687 19.6376V10.3634C7.66687 8.32508 9.32437 6.66675 11.361 6.66675H15.4235C17.4619 6.66675 19.1202 8.32508 19.1202 10.3634V11.1401C19.1202 11.4851 18.8402 11.7651 18.4952 11.7651C18.1502 11.7651 17.8702 11.4851 17.8702 11.1401V10.3634C17.8702 9.01341 16.7727 7.91675 15.4235 7.91675H11.361C10.0135 7.91675 8.91687 9.01341 8.91687 10.3634V19.6376C8.91687 20.9867 10.0135 22.0834 11.361 22.0834H15.4327C16.776 22.0834 17.8702 20.9901 17.8702 19.6467V18.8609C17.8702 18.5159 18.1502 18.2359 18.4952 18.2359C18.8402 18.2359 19.1202 18.5159 19.1202 18.8609V19.6467C19.1202 21.6801 17.4652 23.3334 15.4327 23.3334Z" fill="#636772"/>
<mask id="mask0_0_1" style="mask-type:alpha" maskUnits="userSpaceOnUse" x="13" y="14" width="12" height="2">
<path fill-rule="evenodd" clip-rule="evenodd" d="M13.4967 14.375H24.7808V15.625H13.4967V14.375Z" fill="white"/>
</mask>
<g mask="url(#mask0_0_1)">
<path fill-rule="evenodd" clip-rule="evenodd" d="M24.1559 15.625H14.1217C13.7767 15.625 13.4967 15.345 13.4967 15C13.4967 14.655 13.7767 14.375 14.1217 14.375H24.1559C24.5009 14.375 24.7809 14.655 24.7809 15C24.7809 15.345 24.5009 15.625 24.1559 15.625Z" fill="#636772"/>
</g>
<mask id="mask1_0_1" style="mask-type:alpha" maskUnits="userSpaceOnUse" x="21" y="11" width="4" height="8">
<path fill-rule="evenodd" clip-rule="evenodd" d="M21.0913 11.946H24.7808V18.055H21.0913V11.946Z" fill="white"/>
</mask>
<g mask="url(#mask1_0_1)">
<path fill-rule="evenodd" clip-rule="evenodd" d="M21.7161 18.055C21.5561 18.055 21.3953 17.9942 21.2736 17.8708C21.0303 17.6258 21.0311 17.2308 21.2753 16.9875L23.2703 15L21.2753 13.0133C21.0311 12.77 21.0294 12.375 21.2736 12.13C21.5169 11.885 21.9119 11.885 22.1569 12.1283L24.5969 14.5575C24.7153 14.6742 24.7811 14.8342 24.7811 15C24.7811 15.1658 24.7153 15.3258 24.5969 15.4425L22.1569 17.8725C22.0353 17.9942 21.8753 18.055 21.7161 18.055Z" fill="#636772"/>
</g>
<rect x="15" y="18" width="10" height="10" fill="#F6F8FD"/>
<path fill-rule="evenodd" clip-rule="evenodd" d="M20 27.1668C17.7 27.1668 15.8334 25.3043 15.8334 23.0002C15.8334 20.7002 17.7 18.8335 20 18.8335C22.3042 18.8335 24.1667 20.7002 24.1667 23.0002C24.1667 25.3043 22.3042 27.1668 20 27.1668ZM21.3292 24.546C21.3792 24.5752 21.4334 24.5918 21.4917 24.5918C21.5959 24.5918 21.7 24.5377 21.7584 24.4377C21.8459 24.2918 21.8 24.1002 21.65 24.0085L20.1667 23.1252V21.2002C20.1667 21.0252 20.025 20.8877 19.8542 20.8877C19.6834 20.8877 19.5417 21.0252 19.5417 21.2002V23.3043C19.5417 23.4127 19.6 23.5127 19.6959 23.571L21.3292 24.546Z" fill="#636772"/>
</g>
</g>
<defs>
<clipPath id="clip0_0_1">
<rect width="5646" height="2967" fill="white" transform="translate(-806 -1212)"/>
</clipPath>
<clipPath id="clip1_0_1">
<rect width="360" height="780" fill="white" transform="translate(-20 -442)"/>
</clipPath>
</defs>
</svg>
