<svg width="32" height="32" viewBox="0 0 32 32" fill="none" xmlns="http://www.w3.org/2000/svg">
<rect width="32" height="32" fill="#E5E5E5"/>
<g clip-path="url(#clip0_0_1)">
<rect width="5646" height="2967" transform="translate(-806 -1044)" fill="#EAF0FF"/>
<g clip-path="url(#clip1_0_1)">
<rect width="360" height="780" transform="translate(-20 -274)" fill="white"/>
<rect width="32" height="32" rx="8" fill="#F6F8FD"/>
<path d="M16.0003 11.6853C14.667 11.6853 13.5825 12.7699 13.5825 14.103V15.0433H13.2801C12.9092 15.0433 12.6085 15.344 12.6085 15.7149V19.2746C12.6085 19.6454 12.9092 19.9461 13.2801 19.9461L18.7203 19.946C19.0912 19.946 19.3919 19.6452 19.3919 19.2745V15.715C19.3919 15.3442 19.0912 15.0435 18.7203 15.0435H18.4181V14.1032C18.4181 12.77 17.3335 11.6854 16.0004 11.6854L16.0003 11.6853ZM14.9256 14.1032C14.9256 13.5106 15.4079 13.0286 16.0003 13.0286C16.5928 13.0286 17.0748 13.5106 17.0748 14.1032V15.0434H14.9256L14.9256 14.1032ZM18.0487 18.6032H13.9519V16.3868H18.0487V18.6032Z" fill="#636772"/>
<path d="M23.3286 15.3285C22.9577 15.3285 22.6571 15.6291 22.6571 16C22.6571 19.6706 19.6708 22.6569 16.0005 22.6569C12.3296 22.6569 9.34334 19.6706 9.34334 16C9.34334 12.3294 12.3296 9.34343 16.0002 9.34343C17.404 9.34343 18.754 9.78483 19.8731 10.5859H18.9865C18.6156 10.5859 18.3148 10.8866 18.3148 11.2576C18.3148 11.6285 18.6156 11.9291 18.9865 11.9291H21.5722C21.943 11.9291 22.2437 11.6285 22.2437 11.2576V8.67166C22.2437 8.30069 21.9433 8 21.5723 8C21.2012 8 20.9006 8.30066 20.9006 8.67166V9.67723C19.5098 8.59854 17.7918 8 16.0001 8C13.8632 8 11.8541 8.83214 10.3432 10.3432C8.83203 11.8543 8 13.8632 8 16.0001C8 18.1369 8.83203 20.1461 10.3432 21.6569C11.8541 23.1681 13.8632 24.0001 16.0001 24.0001C18.1367 24.0001 20.1458 23.1681 21.6566 21.6569C23.1679 20.146 24.0001 18.1369 24.0001 16.0001C24.0001 15.6292 23.6993 15.3285 23.3284 15.3285L23.3286 15.3285Z" fill="#636772"/>
</g>
</g>
<defs>
<clipPath id="clip0_0_1">
<rect width="5646" height="2967" fill="white" transform="translate(-806 -1044)"/>
</clipPath>
<clipPath id="clip1_0_1">
<rect width="360" height="780" fill="white" transform="translate(-20 -274)"/>
</clipPath>
</defs>
</svg>
