<svg width="201.976" height="201.976" xmlns="http://www.w3.org/2000/svg">

 <g>
  <title>background</title>
  <rect fill="none" id="canvas_background" height="203.976" width="203.976" y="-1" x="-1"/>
 </g>
 <g>
  <title>Layer 1</title>
  <ellipse ry="61.000003" rx="64.500003" id="svg_18" cy="96.425505" cx="98.988004" stroke-width="1.5" fill="#ffffff"/>
  <g stroke="null" id="svg_1">
   <path fill="#cccccc" stroke="null" id="svg_2" d="m166.211027,32.765916c-35.686295,-35.686295 -93.755294,-35.689816 -129.44511,0c-35.689816,35.689816 -35.686295,93.755294 0,129.44511s93.755294,35.689816 129.44511,0c35.686295,-35.689816 35.686295,-93.758814 0,-129.44511zm-28.627893,100.817217c-2.749432,2.749432 -7.206259,2.749432 -9.955691,0l-26.13897,-26.13897l-27.381672,27.381672c-2.749432,2.749432 -7.206259,2.749432 -9.955691,0c-2.749432,-2.749432 -2.749432,-7.206259 0,-9.955691l27.381672,-27.381672l-26.13897,-26.13897c-2.749432,-2.749432 -2.749432,-7.209779 0,-9.955691c2.749432,-2.749432 7.206259,-2.749432 9.955691,0l26.13897,26.13897l24.892749,-24.892749c2.749432,-2.749432 7.206259,-2.749432 9.955691,0c2.749432,2.749432 2.749432,7.206259 0,9.955691l-24.892749,24.892749l26.13897,26.13897c2.749432,2.749432 2.749432,7.206259 0,9.955691z"/>
  </g>
  <g id="svg_3"/>
  <g id="svg_4"/>
  <g id="svg_5"/>
  <g id="svg_6"/>
  <g id="svg_7"/>
  <g id="svg_8"/>
  <g id="svg_9"/>
  <g id="svg_10"/>
  <g id="svg_11"/>
  <g id="svg_12"/>
  <g id="svg_13"/>
  <g id="svg_14"/>
  <g id="svg_15"/>
  <g id="svg_16"/>
  <g id="svg_17"/>
 </g>
</svg>