<?xml version="1.0"?>
<svg xmlns="http://www.w3.org/2000/svg" id="Outline" viewBox="0 0 512 512" width="512" height="512"><path d="M326.2,229.276a48,48,0,1,0-60.394,0C227.618,243.018,200,282.079,200,328a8,8,0,0,0,3,6.247C204.726,335.625,245.771,368,296,368s91.274-32.375,93-33.753A8,8,0,0,0,392,328C392,282.079,364.382,243.018,326.2,229.276ZM264,192a32,32,0,1,1,32,32A32.036,32.036,0,0,1,264,192Zm32,160c-37.209,0-69.962-20.938-79.919-27.978C217.978,277.338,253.1,240,296,240s78.022,37.338,79.919,84.022C365.962,331.062,333.209,352,296,352Z"/><path d="M112,496H432a40.045,40.045,0,0,0,40-40V56a40.045,40.045,0,0,0-40-40H112A40.045,40.045,0,0,0,72,56V88H48a8,8,0,0,0,0,16H72v64H48a8,8,0,0,0,0,16H72v64H48a8,8,0,0,0,0,16H72v64H48a8,8,0,0,0,0,16H72v64H48a8,8,0,0,0,0,16H72v32A40.045,40.045,0,0,0,112,496ZM152,32H432a24.028,24.028,0,0,1,24,24V456a24.028,24.028,0,0,1-24,24H152ZM88,424h24a8,8,0,0,0,0-16H88V344h24a8,8,0,0,0,0-16H88V264h24a8,8,0,0,0,0-16H88V184h24a8,8,0,0,0,0-16H88V104h24a8,8,0,0,0,0-16H88V56a24.028,24.028,0,0,1,24-24h24V480H112a24.028,24.028,0,0,1-24-24Z"/></svg>
