<?xml version="1.0" standalone="no"?>
<!DOCTYPE svg PUBLIC "-//W3C//DTD SVG 20010904//EN"
 "http://www.w3.org/TR/2001/REC-SVG-20010904/DTD/svg10.dtd">
<svg version="1.0" xmlns="http://www.w3.org/2000/svg"
 width="288.000000pt" height="300.000000pt" viewBox="0 0 288.000000 300.000000"
 preserveAspectRatio="xMidYMid meet">
<metadata>
Created by potrace 1.16, written by Peter Selinger 2001-2019
</metadata>
<g transform="translate(0.000000,300.000000) scale(0.100000,-0.100000)"
fill="#000000" stroke="none">
<path d="M297 2854 c-31 -10 -64 -30 -92 -59 -72 -71 -75 -93 -75 -492 l0
-343 85 0 85 0 0 299 c0 188 4 310 11 328 14 39 57 82 99 101 29 13 86 17 335
19 l300 2 3 80 3 81 -353 -1 c-282 0 -363 -3 -401 -15z"/>
<path d="M1837 2863 c-4 -3 -7 -39 -7 -80 l0 -73 103 0 c497 -3 509 -3 557
-30 29 -17 53 -41 70 -70 25 -45 25 -46 28 -347 l3 -301 72 -4 c40 -2 76 -1
80 3 4 3 7 170 5 370 -3 332 -5 367 -22 399 -30 57 -76 99 -133 120 -50 19
-78 20 -402 20 -191 0 -351 -3 -354 -7z"/>
<path d="M397 1643 c-4 -3 -7 -42 -7 -85 l0 -78 1050 0 1051 0 -3 83 -3 82
-1041 3 c-572 1 -1044 -1 -1047 -5z"/>
<path d="M130 820 c0 -328 1 -353 20 -404 23 -60 69 -107 134 -137 37 -17 73
-19 404 -19 l362 0 0 80 0 80 -319 0 c-313 0 -319 0 -352 23 -19 12 -44 42
-56 67 -22 43 -23 53 -23 352 l0 308 -85 0 -85 0 0 -350z"/>
<path d="M2580 879 c0 -176 -4 -307 -11 -333 -14 -56 -62 -114 -113 -137 -37
-17 -71 -19 -333 -19 l-293 0 0 -65 0 -65 363 0 c343 0 364 2 407 21 55 25 95
62 123 114 21 39 22 53 25 408 l3 367 -86 0 -85 0 0 -291z"/>
</g>
</svg>
