<svg width="34" height="34" viewBox="0 0 34 34" fill="none" xmlns="http://www.w3.org/2000/svg">
<path opacity="0.4" d="M30.338 21.9823C30.338 25.8297 27.2491 28.9463 23.4016 28.9601H23.3878H9.72182C5.88817 28.9601 2.75781 25.8573 2.75781 22.0099V21.9961C2.75781 21.9961 2.76609 15.8926 2.77712 12.8229C2.7785 12.2465 3.44042 11.9238 3.89136 12.2823C7.16789 14.8818 13.0273 19.6214 13.1004 19.6835C14.0795 20.4681 15.3206 20.9108 16.5893 20.9108C17.858 20.9108 19.0991 20.4681 20.0782 19.6683C20.1513 19.62 25.8797 15.0224 29.2059 12.3802C29.6582 12.0203 30.3229 12.343 30.3242 12.918C30.338 15.9643 30.338 21.9823 30.338 21.9823" fill="#50B74A"/>
<path d="M29.6156 7.8242C28.4214 5.57365 26.0715 4.13672 23.4845 4.13672H9.72196C7.13494 4.13672 4.7851 5.57365 3.59088 7.8242C3.32335 8.32754 3.45022 8.95499 3.89564 9.31077L14.1348 17.5007C14.8519 18.0799 15.7207 18.3681 16.5894 18.3681C16.595 18.3681 16.5991 18.3681 16.6032 18.3681C16.6074 18.3681 16.6129 18.3681 16.617 18.3681C17.4858 18.3681 18.3546 18.0799 19.0717 17.5007L29.3108 9.31077C29.7562 8.95499 29.8831 8.32754 29.6156 7.8242" fill="#50B74A"/>
</svg>
