<svg id="68d8537b-a5c6-4b59-b1c0-48565d08c2ad" data-name="Layer 1" xmlns="http://www.w3.org/2000/svg" viewBox="0 0 206 206"><defs><style>.\34 6a72b4e-e73c-4e4b-83bd-b769a6fe535d{fill:#ff4500;}.\32 ffd3c95-62c3-432d-ad33-5e7090876775,.aa23cab9-0ce1-4156-8bb8-f67df8afe005{fill:#fff;}.\32 ffd3c95-62c3-432d-ad33-5e7090876775{opacity:0.14;}.b423d7a6-bc5e-47b5-8c29-f3d5d49d1572{isolation:isolate;}.\36 6de2d93-3b64-411a-81f8-2ee1d74483af{opacity:0.43;}.\36 690d944-6a46-4787-9c1c-eafb8335d87c{fill:none;stroke:#fff;stroke-miterlimit:10;stroke-width:7px;}</style></defs><title>GreetingM-smile-</title><rect class="46a72b4e-e73c-4e4b-83bd-b769a6fe535d" width="206" height="206"/><path class="2ffd3c95-62c3-432d-ad33-5e7090876775" d="M203.6,91.7c-25.3-4.5-42.3-23.8-27.6-39.4l.3-.3h-.5c-24.4,7.4-46.4-20.9-48.5-39.3v-.4c-.1.1-.1.2-.2.4C116.9,30.2,82.1,54.6,57.5,41.3l-.4-.3a.6.6,0,0,0,.1.4c4.3,18-21.8,34.9-47.5,35.7H9.2l.4.2c19.3,10,17.2,33.7-5.1,45.9l-.5.3h.6c25.2-2.1,33.6,21.5,22.6,39.8l-.2.4.4-.3c21.2-12.6,49.2,12.4,52.2,30.8,0,.1.1.2.1.3l.2-.3c7.5-19.4,44.7-42,64.8-25.9l.3.3c0-.2,0-.3-.1-.4-3.7-22,19-41.2,43.4-32.7h.6l-.4-.3C171.6,121.7,179,97.9,203.6,92l.5-.2Z"/><path class="2ffd3c95-62c3-432d-ad33-5e7090876775" d="M180.6,94.5C161.1,91,147.9,76.1,159.3,64c.1,0,.1-.1.2-.2h-.4c-18.8,5.7-35.8-16.1-37.5-30.4v-.3l-.2.3c-7.8,13.5-34.7,32.3-53.7,22l-.3-.2a.4.4,0,0,1,.1.3c3.3,13.9-16.8,27-36.6,27.6h-.4l.3.2c14.9,7.8,13.3,26-3.9,35.5l-.4.2h.4c19.5-1.6,25.9,16.7,17.5,30.8l-.2.3.3-.2c16.4-9.8,38,9.5,40.3,23.7v.3l.2-.3c5.7-15,34.4-32.4,50-20,.1.1.2.1.2.2v-.3c-2.9-17,14.6-31.8,33.5-25.2h.4l-.3-.2c-13-10.6-7.3-29,11.7-33.5h0Z"/><g id="43daec2d-1a23-49b2-b94a-4e9653164396" data-name="Tagline-Copy-6"><g class="b423d7a6-bc5e-47b5-8c29-f3d5d49d1572"><path class="aa23cab9-0ce1-4156-8bb8-f67df8afe005" d="M46.9,110.6l-3,1.7-3,1.8q-.3-1.9-1.5-1.8a4.3,4.3,0,0,0-2.8,2.3,3.1,3.1,0,0,0-.5,2.7c.2.5.7.7,1.7.5a4.8,4.8,0,0,0,2.1-.6l3.2-.9c2.4-.4,3.9.2,4.6,1.8a7.5,7.5,0,0,1,.4,1.6,11.1,11.1,0,0,1-1,6.2,21.3,21.3,0,0,1-6.3,8.2,9.8,9.8,0,0,1-4.7,2.3,8.7,8.7,0,0,1-4.5-.5q.6-2.7,2.1-8.1a5.5,5.5,0,0,0,3.1.4,3.3,3.3,0,0,0,1.3-.4,13.8,13.8,0,0,0,2.4-1.4c1-.8,1.5-1.6,1.4-2.2s-.8-1-2-.8a13.9,13.9,0,0,0-3.3,1.1,14.5,14.5,0,0,1-3.4,1,4.4,4.4,0,0,1-2.6-.1,3.6,3.6,0,0,1-1.9-3.3c-.2-3.2,1.3-7.2,4.3-11.9s5.9-7.7,8.6-8.3,4.3,1.1,5,5.3C46.7,108.2,46.8,109.3,46.9,110.6Z"/><path class="aa23cab9-0ce1-4156-8bb8-f67df8afe005" d="M49.7,102.4l7-2.6c-.7,7.7-1,14.7-1,20.7l3.8-2.4V100.7l7.1-2.6a221.4,221.4,0,0,0-.8,30.6l-6.5,3v-4.9l-10,6.5Z"/><path class="aa23cab9-0ce1-4156-8bb8-f67df8afe005" d="M67.7,99.3a39.3,39.3,0,0,1,10.6-3.8c3.8-.7,5.9.4,6.4,3s-1.2,8.1-5.4,12.8c.6,1,2.8,4.1,6.7,9.3l-5.7,7.2-6.5-11h-.1c0,3.8,0,7.3.2,10.5l-6.4,3a49.3,49.3,0,0,1,0-5.8Zm6.5,5.8c-.1,1.1-.2,2.1-.2,3.1l-.2,2.9a15,15,0,0,0,2.7-2.4,8.4,8.4,0,0,0,1.7-3.2,2,2,0,0,0,.1-.7c-.1-.7-.6-.9-1.4-.8A10.1,10.1,0,0,0,74.2,105.1Z"/><path class="aa23cab9-0ce1-4156-8bb8-f67df8afe005" d="M85.1,96.4a40,40,0,0,1,10.5-3.8c3.8-.6,5.9.4,6.3,3.1q1.2,8-10.8,18.9c0,3.5.1,6.8.3,9.8l-6.5,3c0-.6,0-2.6.1-5.8l.2-10.5C85.3,101.6,85.3,96.7,85.1,96.4Zm6.5,5.9c-.1.9-.1,1.7-.2,2.5v2.4c2.4-1.7,3.9-3.4,4.4-5a1.1,1.1,0,0,0,.1-.5q-.2-.7-1.2-.6A11.6,11.6,0,0,0,91.6,102.3Z"/><path class="aa23cab9-0ce1-4156-8bb8-f67df8afe005" d="M100.7,93.8c4.3-2.1,7.8-3.4,10.6-3.8s6,.4,6.4,3-1.1,8.1-5.3,12.8q.9,1.5,6.6,9.3l-5.6,7.2-6.5-11.1h-.1c-.1,3.8,0,7.3.2,10.5l-6.4,3c-.1-.6-.1-2.5-.1-5.8Zm6.5,5.8c-.1,1-.1,2-.2,3v3a12.2,12.2,0,0,0,2.6-2.5,7.8,7.8,0,0,0,1.8-3.1,2,2,0,0,0,.1-.7c-.1-.7-.6-.9-1.4-.8A10.5,10.5,0,0,0,107.2,99.6Z"/><path class="aa23cab9-0ce1-4156-8bb8-f67df8afe005" d="M119.2,90.8l7.1-2.6a218.7,218.7,0,0,0-.8,30.5l-6.5,3.1Z"/><path class="aa23cab9-0ce1-4156-8bb8-f67df8afe005" d="M144.3,94.3l-3,1.8-3,1.8c-.2-1.4-.7-2-1.4-1.8s-2,.9-2.9,2.3a3.5,3.5,0,0,0-.5,2.7c.2.5.8.7,1.8.5l2.1-.6a10.6,10.6,0,0,1,3.1-.9c2.4-.4,3.9.2,4.6,1.8a8.8,8.8,0,0,1,.5,1.5,11.6,11.6,0,0,1-1.1,6.3,21.8,21.8,0,0,1-6.3,8.1,9.6,9.6,0,0,1-4.7,2.4,10.1,10.1,0,0,1-4.5-.5c.4-1.9,1.1-4.6,2.1-8.2a5,5,0,0,0,3.1.5,4.8,4.8,0,0,0,1.4-.5,10.5,10.5,0,0,0,2.3-1.3c1-.9,1.5-1.6,1.4-2.3s-.8-.9-1.9-.7a19.2,19.2,0,0,0-3.4,1,15.9,15.9,0,0,1-3.4,1.1,3.9,3.9,0,0,1-2.5-.2,3.3,3.3,0,0,1-2-3.2c-.1-3.2,1.3-7.2,4.3-12s5.9-7.6,8.6-8.3,4.3,1.2,5,5.3A17.9,17.9,0,0,1,144.3,94.3Z"/><path class="aa23cab9-0ce1-4156-8bb8-f67df8afe005" d="M153.5,91.6a21.1,21.1,0,0,0-.2,2.5v2.4l6.6-2.6.6,6-7.4,2.7v3.5l7.7-2.5.8,8.1a90,90,0,0,0-15.1,5.5V85.8l13.8-4.5.8,8.1A76.7,76.7,0,0,0,153.5,91.6Z"/><path class="aa23cab9-0ce1-4156-8bb8-f67df8afe005" d="M167,106.6a4.2,4.2,0,0,1,2.7,0,2.2,2.2,0,0,1,1.7,1.9,4.7,4.7,0,0,1-1.5,3.9,7.2,7.2,0,0,1-3.3,2.1,4.2,4.2,0,0,1-2.7.1,2.4,2.4,0,0,1-1.7-1.9,4.9,4.9,0,0,1,1.4-3.9A7.4,7.4,0,0,1,167,106.6Zm.4-27.3h9.1c-1.6,4.6-2.8,8.2-3.5,10.8a90.2,90.2,0,0,0-2.3,11.3l-5.9.7Z"/></g></g><path class="2ffd3c95-62c3-432d-ad33-5e7090876775" d="M206,0H154.5c8.4,4.9,7.2,15.5-3,21.1h0c11.9-1,15.7,10.1,10.6,18.6V40h.2c9.9-5.9,23,5.8,24.4,14.3v.2c.1,0,.1-.1.1-.2,2.4-6.1,11-12.8,19.3-14.3Z"/><path class="2ffd3c95-62c3-432d-ad33-5e7090876775" d="M50.9,182.1h-.1c-7.9,2.4-14.9-6.7-15.6-12.7h-.1c-3.3,5.6-14.5,13.5-22.4,9.2h-.1c1.2,5.2-5.3,10.1-12.6,11.3v2.5a7.2,7.2,0,0,1,0,8.8v4.4l.8.4H52.6c-2-4.3.8-9.6,7.1-11.1h0C51.6,193.4,46.1,187.2,50.9,182.1Z"/><g class="66de2d93-3b64-411a-81f8-2ee1d74483af"><path class="6690d944-6a46-4787-9c1c-eafb8335d87c" d="M47.7,118.1c-.7-1.6-2.2-2.2-4.6-1.8a18.9,18.9,0,0,0-3.2,1l-2,.6q-1.5.1-1.8-.6a3.1,3.1,0,0,1,.5-2.7,4.4,4.4,0,0,1,2.9-2.3c.7-.1,1.2.5,1.4,1.8l3-1.8,3-1.7a30.7,30.7,0,0,0-.3-3.4c-.7-4.2-2.4-5.9-5-5.3s-5.6,3.4-8.6,8.3-4.4,8.7-4.3,11.9a3.5,3.5,0,0,0,2,3.3,4.8,4.8,0,0,0,2.5.2,25.1,25.1,0,0,0,3.4-1.1,21.3,21.3,0,0,1,3.4-1.1c1.1-.2,1.8.1,1.9.8s-.4,1.4-1.4,2.2a9.5,9.5,0,0,1-2.4,1.4,3.3,3.3,0,0,1-1.3.4,4.8,4.8,0,0,1-3.1-.4q-1.5,5.4-2.1,8.1a7.8,7.8,0,0,0,4.5.5,9.8,9.8,0,0,0,4.7-2.3,21.3,21.3,0,0,0,6.3-8.2,11.1,11.1,0,0,0,1-6.2A7.5,7.5,0,0,0,47.7,118.1Z"/><path class="6690d944-6a46-4787-9c1c-eafb8335d87c" d="M59.6,100.7v17.5l-3.8,2.3c0-6,.3-12.9,1-20.7l-7,2.6-.3,31,10-6.6v4.9l6.5-3a222,222,0,0,1,.8-30.6Z"/><path class="6690d944-6a46-4787-9c1c-eafb8335d87c" d="M106.9,111.3h0l6.5,11,5.7-7.2c-3.9-5.2-6.1-8.3-6.7-9.3,4.2-4.7,5.9-8.9,5.3-12.8s-2.5-3.7-6.3-3A37.6,37.6,0,0,0,101,93.7c-1-1.2-2.8-1.5-5.4-1.1a40,40,0,0,0-10.5,3.8c.2.3.2,5.2.1,14.8v8.2q-4.9-6.7-5.7-8.1c4.1-4.7,5.9-8.9,5.3-12.8s-2.6-3.6-6.4-3a40.5,40.5,0,0,0-10.6,3.8l-.2,25.2v5.8l6.4-3c-.1-3.2-.2-6.7-.2-10.5h.1l6.5,11c2-2.4,3.5-4.4,4.7-5.9-.1,3.1-.1,4.9-.1,5.5l6.5-3c-.2-3-.3-6.2-.2-9.8,4.7-4.3,7.8-8.2,9.5-11.8V119a49.3,49.3,0,0,0,0,5.8l6.4-3c-.2-3.2-.2-6.7-.2-10.5Zm.1-8.6c.1-1,.1-2,.2-3.1a10.5,10.5,0,0,1,2.8-1.1c.8-.1,1.3.1,1.4.8a2,2,0,0,1-.1.7,7.5,7.5,0,0,1-1.8,3.2,20.4,20.4,0,0,1-2.6,2.5Zm-28.8,2.8a8.4,8.4,0,0,1-1.7,3.2,20.1,20.1,0,0,1-2.6,2.5v-3c0-1,.1-2,.2-3a13.2,13.2,0,0,1,2.7-1.2c.8-.1,1.3.1,1.4.8A.9.9,0,0,1,78.2,105.5Zm17.6-3.2c-.5,1.5-2,3.2-4.4,4.9v-2.4a21.8,21.8,0,0,1,.1-2.5,11.6,11.6,0,0,1,3.1-1.2q1-.1,1.2.6A1.8,1.8,0,0,1,95.8,102.3Z"/><path class="6690d944-6a46-4787-9c1c-eafb8335d87c" d="M126.3,88.2l-7.1,2.6-.2,31,6.5-3A220.1,220.1,0,0,1,126.3,88.2Z"/><path class="6690d944-6a46-4787-9c1c-eafb8335d87c" d="M145.1,101.9c-.6-1.6-2.2-2.2-4.6-1.8l-3.1.9-2.1.6c-1,.2-1.6,0-1.8-.5a3.5,3.5,0,0,1,.5-2.7c.9-1.4,1.8-2.2,2.9-2.3s1.2.4,1.4,1.8l3-1.8,3.1-1.8a31.8,31.8,0,0,0-.4-3.4c-.7-4.1-2.3-5.9-4.9-5.3s-5.6,3.5-8.7,8.3-4.4,8.8-4.3,12a3.4,3.4,0,0,0,2,3.2,4,4,0,0,0,2.5.2,21.9,21.9,0,0,0,3.4-1,15.9,15.9,0,0,1,3.4-1.1c1.2-.2,1.8.1,1.9.8s-.3,1.4-1.4,2.2l-2.3,1.4-1.4.4a5.2,5.2,0,0,1-3-.4c-1.1,3.5-1.8,6.2-2.2,8.1a9.2,9.2,0,0,0,4.6.5,10.5,10.5,0,0,0,4.6-2.3,22.1,22.1,0,0,0,6.3-8.2,11.2,11.2,0,0,0,1.1-6.2A7.5,7.5,0,0,0,145.1,101.9Z"/><path class="6690d944-6a46-4787-9c1c-eafb8335d87c" d="M153,106.1v-3.4c1.8-.8,4.3-1.7,7.4-2.8l-.6-5.9-6.6,2.5V94.1a21.1,21.1,0,0,1,.2-2.5c2.3-.8,4.8-1.5,7.5-2.2l-.8-8-13.8,4.4v31.4a90,90,0,0,1,15.1-5.5l-.8-8Z"/><path class="6690d944-6a46-4787-9c1c-eafb8335d87c" d="M169.7,106.6a4.2,4.2,0,0,0-2.7,0,6.7,6.7,0,0,0-3.3,2.2,4.3,4.3,0,0,0-1.4,3.9,2.1,2.1,0,0,0,1.6,1.9,4.2,4.2,0,0,0,2.7-.1,6.5,6.5,0,0,0,3.3-2.1,4.7,4.7,0,0,0,1.5-3.9A2.2,2.2,0,0,0,169.7,106.6Z"/><path class="6690d944-6a46-4787-9c1c-eafb8335d87c" d="M167.4,79.3l-2.6,22.8,5.9-.7A90.2,90.2,0,0,1,173,90.1c.7-2.6,1.9-6.2,3.5-10.8Z"/></g></svg>