<svg id="3e95825b-bf82-4726-8ea2-c5be8db748d6" data-name="Layer 1" xmlns="http://www.w3.org/2000/svg" xmlns:xlink="http://www.w3.org/1999/xlink" viewBox="0 0 206 206"><defs><style>.\32 ca24106-fcfa-4130-bbc2-587392d59714{fill:none;}.c7ff47d9-fbc6-445f-a255-da4e1df05f27{fill:url(#7bcf81e4-cffb-4d79-980a-ad244e4aeb23);}.e651f302-b77e-423c-99fc-b07a7de89dbf{clip-path:url(#b06936f4-9b74-4781-9eea-c22ff7814faa);}.c7779842-2a05-44a4-9b79-4abd5d932e5c{fill:url(#3f3a0bcc-655a-4f8b-aff3-079ba30a543e);}.\32 4f44638-83f3-4212-9280-60d7f2b27988{fill:url(#21baaa3c-e6a2-443d-b3c2-8228d221fb06);}</style><linearGradient id="7bcf81e4-cffb-4d79-980a-ad244e4aeb23" y1="97" x2="195" y2="97" gradientUnits="userSpaceOnUse"><stop offset="0.01" stop-color="#f3e0bf"/><stop offset="1" stop-color="#e5d285"/></linearGradient><clipPath id="b06936f4-9b74-4781-9eea-c22ff7814faa"><rect class="2ca24106-fcfa-4130-bbc2-587392d59714" width="206" height="206"/></clipPath><radialGradient id="3f3a0bcc-655a-4f8b-aff3-079ba30a543e" cx="81.6" cy="146.5" r="197.93" gradientUnits="userSpaceOnUse"><stop offset="0" stop-color="#db1417"/><stop offset="0.25" stop-color="#cb1013"/><stop offset="0.72" stop-color="#a20607"/><stop offset="1" stop-color="#800"/></radialGradient><linearGradient id="21baaa3c-e6a2-443d-b3c2-8228d221fb06" x1="93.26" y1="158.82" x2="178.74" y2="158.82" xlink:href="#7bcf81e4-cffb-4d79-980a-ad244e4aeb23"/></defs><title>Icon Kirim 01</title><rect class="c7ff47d9-fbc6-445f-a255-da4e1df05f27" y="6" width="195" height="182"/><g class="e651f302-b77e-423c-99fc-b07a7de89dbf"><path class="c7779842-2a05-44a4-9b79-4abd5d932e5c" d="M-125.3-42V109.5c5.8-10.3,10.5-17.4,21-18.7a145.6,145.6,0,0,0-8.3,22.1c-1.9,6.8-7.8,8.7-12.6,9.1v44a127.4,127.4,0,0,0,10.9-6.8c2.8-2,5.6-4,8.3-6.2l2.8-2.3c10.1-72.3,90.8-138,164.7-138,46.4,0,73.7,18.3,88.3,49.2,11.1,3.4,27,3,43.9-14.1h0l-.7,1.2C188.4,56,165.4,88.7,139,74.2l-1.4-.8v.3c6.4,5.3,13,7.2,19.2,7.1q1.6,5.8,2.9,12.1c-3.6,5.5-9.5,11.6-5.8,27.7l-2.1.6c-6.7,1.4-20.1.9-33.7-17.9-8.9-12.4-21.2,5.2-27-3.3A72.9,72.9,0,0,0,75,83.3h0c-2.2-1.6-3.7-2.6-4.2-2.9,2.7,2.1,37.6,30.4,3.9,74.3-9.1,11.9-17.6,18.6-25.1,22a30.6,30.6,0,0,1-14.7,3s-5.1-17.3,3.6-23.5a20.7,20.7,0,0,0,7.7,2.8,4.4,4.4,0,0,1,3.8,4.9s24.3-4.4,14-31.7-68.9,6.2-68.9,6.2l-79.9,59.4-4.5,27.7c-1.3-2.4-2.6-4.8-3.8-7.3a121.7,121.7,0,0,1-11.4-52.3c0-1.8.1-3.5.2-5.3l-6.5,4.4a128.7,128.7,0,0,1-14.6,8V335H288.5V-42Z"/></g><path class="24f44638-83f3-4212-9280-60d7f2b27988" d="M104,156.4l3.5-.7V145h-6.4v3.4H104v2.8H99.7q-1.9.2-1.8-1.4v-7.6h8.6l.6-3.6H94.5l-1.2,3.6h3.1l-2.1,1.1v7.2a5.4,5.4,0,0,0,.8,3.1,3.5,3.5,0,0,0,2.5,1.3h5.2l1.3-1.3Zm7.2-1.6h9.2q2-.1,2.2-1.4V142.6q.1-3.7-1.4-4.1h-7.9l-.9,1.6v-1.6l-3.5.7V153A2,2,0,0,0,111.2,154.8Zm1.2-12.8h6.7v9.3h-6.7Zm21.2,2.5-.2-.5a9.5,9.5,0,0,0-2.3-2.5,11.2,11.2,0,0,0-3.4-1.4l-.4,1v-2.6h-3.5v16.4h3.5V143.5a10.1,10.1,0,0,1,3.6,2.1,7.7,7.7,0,0,1,2.3,2.5,4.8,4.8,0,0,1,.4,1.8q.2,1.5-1,1.6v3.4q2.7.1,3.6-.9a2.7,2.7,0,0,0,.8-2V138.5h-3.5Zm12.5,4H149v2.8h-4.3q-1.9.2-1.8-1.4v-7.6h8.6l.6-3.6H139.5l-1.2,3.6h3.1l-2.1,1.1v7.2a5.4,5.4,0,0,0,.8,3.1,3.5,3.5,0,0,0,2.5,1.3h5.2l1.3-1.3v2.9l3.5-.7V145h-6.4Zm24.6-10.1a26.5,26.5,0,0,1-3.4,6.7l-5.2-7-2.9,2.3,5.8,7.7a36.1,36.1,0,0,1-6.1,4.7l2.5,2.6a19.7,19.7,0,0,0,3.2-2.1,20.1,20.1,0,0,0,2.3-2.4l3.8,5.2,3-2.4-4.4-5.9a31.1,31.1,0,0,0,4.6-8.1Zm4.4.6v15.9h3.6V138.4ZM103,166.3h3.1l-1.7.8v12.4l3.6-.8v-6.5l4.2.8.7-3.6-4.4-.9-.4,1.6v-4h5.5l.8-3.5H103.6Zm63.3,1.2.5-3.6h-4.8l.3-1.2-3-1.1-.9,2.3H154l-.3,3.5h3.4l-4.7,11.1,3.2,1,4.7-11.2,4.2,11.3,3.2-1.1-4.1-11Zm2.7,11.7h3.6V162.8l-3.6.6Zm-48.9-1.8,1.8,2,3.4-3.4-1.8-2Zm37.5,0,1.8,2,3.4-3.4-1.8-2Zm-11-1.6a4.5,4.5,0,0,1-2.7-.4,5.3,5.3,0,0,1-1.8-1.8,4.6,4.6,0,0,1-.8-2.8,13.1,13.1,0,0,1,1.4-4.3H147q1.6-.1,1.6,1.1h3.2q-.2-4-3.4-4.7h-9.1l-.5,1.4-.3,1.1-.2,1.1h2.9l-2.4,1.1a7.4,7.4,0,0,0-.7,3.4,7.9,7.9,0,0,0,1.2,4.8,7.5,7.5,0,0,0,2.9,2.9,7.7,7.7,0,0,0,3.5.7,6.9,6.9,0,0,0,3.1-.6,14.6,14.6,0,0,0,3-2.4l-2.1-2.7A4.6,4.6,0,0,1,146.6,175.8Zm-17.7-8.3.5-3.6h-4.8l.3-1.2-3-1.1-.9,2.3h-4.5l-.3,3.5h3.4L115,178.5l3.2,1,4.7-11.2,4.2,11.3,3.2-1.1-4.1-11Z"/></svg>