<svg width="48" height="48" viewBox="0 0 48 48" fill="none" xmlns="http://www.w3.org/2000/svg">
<rect width="48" height="48" rx="14" fill="#FF881B"/>
<path fill-rule="evenodd" clip-rule="evenodd" d="M29.1768 18.5069C29.1768 21.9334 26.4295 24.6809 23.0005 24.6809C19.5727 24.6809 16.8242 21.9334 16.8242 18.5069C16.8242 15.0803 19.5727 12.334 23.0005 12.334C26.4295 12.334 29.1768 15.0803 29.1768 18.5069ZM22.9993 35.6669C17.9388 35.6669 13.666 34.8444 13.666 31.671C13.666 28.4965 17.9656 27.7031 22.9993 27.7031C28.0611 27.7031 32.3327 28.5256 32.3327 31.699C32.3327 34.8735 28.0331 35.6669 22.9993 35.6669Z" fill="white"/>
<rect x="24.75" y="31.75" width="12.5" height="8.5" rx="1.25" fill="white" stroke="#FF881B" stroke-width="1.5"/>
<path fill-rule="evenodd" clip-rule="evenodd" d="M33.083 38.182C32.8619 38.3798 32.57 38.5 32.25 38.5C31.5596 38.5 31 37.9404 31 37.25C31 36.5596 31.5596 36 32.25 36C32.57 36 32.8619 36.1202 33.083 36.318C33.3041 36.1202 33.596 36 33.916 36C34.6064 36 35.166 36.5596 35.166 37.25C35.166 37.9404 34.6064 38.5 33.916 38.5C33.596 38.5 33.3041 38.3798 33.083 38.182Z" fill="#FF881B"/>
</svg>
