<svg width="337" height="65" viewBox="0 0 337 65" fill="none" xmlns="http://www.w3.org/2000/svg">
<path d="M0.885559 10C0.885559 4.47715 5.36271 0 10.8856 0H327C332.523 0 337 4.47715 337 10V54.5464C337 60.0692 332.523 64.5464 327 64.5464H10.8856C5.36271 64.5464 0.885559 60.0692 0.885559 54.5464V10Z" fill="#333333"/>
<path d="M300.272 15.1273C303.685 15.1273 307.02 16.1292 309.858 18.0065C312.695 19.8837 314.907 22.5519 316.212 25.6737C317.518 28.7954 317.86 32.2305 317.194 35.5445C316.528 38.8586 314.885 41.9027 312.472 44.292C310.059 46.6813 306.985 48.3084 303.638 48.9676C300.291 49.6268 296.822 49.2885 293.67 47.9954C290.517 46.7023 287.822 44.5126 285.926 41.7031C284.031 38.8936 283.019 35.5905 283.019 32.2116C283.024 27.6821 284.843 23.3397 288.078 20.1369C291.312 16.9341 295.698 15.1325 300.272 15.1273V15.1273ZM296.73 37.1487C296.6 37.2641 296.495 37.4037 296.42 37.5595C296.345 37.7152 296.301 37.8841 296.292 38.0565C296.283 38.2289 296.308 38.4014 296.366 38.5641C296.424 38.7268 296.514 38.8766 296.631 39.0049C296.748 39.1332 296.889 39.2375 297.046 39.3118C297.203 39.3861 297.374 39.429 297.548 39.438C297.722 39.447 297.896 39.422 298.061 39.3644C298.225 39.3067 298.376 39.2176 298.506 39.102L305.142 33.1882C305.28 33.065 305.39 32.9144 305.466 32.7461C305.542 32.5779 305.581 32.3958 305.581 32.2116C305.581 32.0274 305.542 31.8452 305.466 31.677C305.39 31.5087 305.28 31.3581 305.142 31.2349L298.506 25.3211C298.376 25.2056 298.225 25.1164 298.061 25.0588C297.896 25.0011 297.722 24.9761 297.548 24.9851C297.374 24.9941 297.203 25.037 297.046 25.1113C296.889 25.1856 296.748 25.2899 296.631 25.4182C296.514 25.5465 296.424 25.6963 296.366 25.859C296.308 26.0218 296.283 26.1942 296.292 26.3666C296.301 26.539 296.345 26.7079 296.42 26.8637C296.495 27.0194 296.6 27.159 296.73 27.2744L302.269 32.2116L296.73 37.1487Z" fill="#FCFCFC"/>
<mask id="mask0_1545_10495" style="mask-type:alpha" maskUnits="userSpaceOnUse" x="0" y="0" width="337" height="65">
<rect y="0.19043" width="337" height="64.7688" rx="10" fill="#C4C4C4"/>
</mask>
<g mask="url(#mask0_1545_10495)">
<g opacity="0.4">
<path fill-rule="evenodd" clip-rule="evenodd" d="M252.986 32.788C252.215 31.9346 250.871 31.4048 249.477 31.4048H231.933C233.07 32.9253 233.742 34.7499 233.742 36.6431V95.1659H254.864V36.6431C254.864 35.3384 254.261 34.0338 253.164 32.9645L252.986 32.788Z" fill="url(#paint0_linear_1545_10495)"/>
<path fill-rule="evenodd" clip-rule="evenodd" d="M275.808 -46.3621H256.524C256.099 -46.3621 255.664 -46.1855 255.387 -45.8324C250.752 -40.1037 210.959 8.90403 202.439 19.4491C201.342 20.9303 201.085 22.9903 201.767 24.6873C202.656 26.4138 204.435 27.483 206.432 27.483H223.927C223.699 27.1593 223.502 26.816 223.314 26.4628L223.235 26.3059L223.166 26.1293C221.97 23.1473 222.424 19.6944 224.332 17.1145L224.431 16.9968C229.491 10.7286 245.731 -9.28257 258.778 -25.3602C266.171 -34.4731 272.675 -42.4874 275.808 -46.3621Z" fill="url(#paint1_linear_1545_10495)"/>
<path fill-rule="evenodd" clip-rule="evenodd" d="M277.073 32.8763L276.984 32.788C276.213 31.9346 274.869 31.4048 273.476 31.4048H257.019C257.019 31.4048 257.019 31.4147 257.029 31.4147C257.157 31.5912 257.276 31.7678 257.394 31.9444C257.661 32.3662 257.898 32.8076 258.096 33.2686C258.185 33.455 258.254 33.6512 258.333 33.8474C258.343 33.8866 258.353 33.9259 258.373 33.9749C258.511 34.3869 258.62 34.8087 258.699 35.2403C258.738 35.4856 258.768 35.7406 258.788 35.9956C258.808 36.2114 258.818 36.4273 258.818 36.6431V95.1659H278.862V36.6431C278.862 35.3384 278.259 34.0338 277.162 32.9645L277.073 32.8763Z" fill="url(#paint2_linear_1545_10495)"/>
<path fill-rule="evenodd" clip-rule="evenodd" d="M247.312 26.4623L247.233 26.3054L247.164 26.1288C245.968 23.1468 246.422 19.6939 248.33 17.114L248.379 17.0551L248.429 16.9963C253.489 10.7281 269.729 -9.28306 282.776 -25.3606C284.456 -27.4304 286.087 -29.4512 287.648 -31.364C292.956 -37.9069 297.384 -43.3707 299.806 -46.3625H281.599C281.165 -46.3625 280.74 -46.186 280.453 -45.8328C275.817 -40.1042 236.034 8.90354 227.514 19.4486C226.407 20.9299 226.16 22.9898 226.842 24.6869C227.732 26.4133 229.511 27.4825 231.507 27.4825H247.925C247.697 27.1588 247.5 26.8155 247.312 26.4623Z" fill="url(#paint3_linear_1545_10495)"/>
<path fill-rule="evenodd" clip-rule="evenodd" d="M335.26 -46.3233V-46.3625H305.598C305.163 -46.3625 304.738 -46.186 304.452 -45.8328C302.692 -43.665 295.892 -35.2779 287.649 -25.1252C274.157 -8.4885 256.801 12.896 251.513 19.4486C250.406 20.9299 250.159 22.9898 250.841 24.6869C251.73 26.4133 253.509 27.4825 255.506 27.4825H273.475C275.936 27.4825 278.358 28.434 279.929 30.1703C281.708 31.8968 282.815 34.202 282.815 36.6445V95.1673H336.723V-44.8715C336.723 -45.6857 336.08 -46.3233 335.26 -46.3233Z" fill="url(#paint4_linear_1545_10495)"/>
</g>
<g opacity="0.4">
<path fill-rule="evenodd" clip-rule="evenodd" d="M-4.77264 45.2479C3.45123 45.2479 11.3265 42.0117 17.1509 36.2313C22.9548 30.4712 26.2361 22.6351 26.2361 14.4733H-4.75214V45.2479H-4.77264Z" fill="url(#paint5_linear_1545_10495)" fill-opacity="0.4"/>
<path fill-rule="evenodd" clip-rule="evenodd" d="M26.2157 76.004C26.2157 67.8422 22.9549 60.0265 17.1305 54.246C11.3266 48.486 3.4309 45.2294 -4.79297 45.2294V75.9837H26.2157V76.004Z" fill="url(#paint6_linear_1545_10495)" fill-opacity="0.4"/>
<path fill-rule="evenodd" clip-rule="evenodd" d="M4.08701 -15.4661H8.57833L16.8022 -5.3504C19.3042 -2.25665 21.8268 0.837089 24.3288 3.93084L25.7644 5.72196C25.949 5.96621 25.99 6.3122 25.8874 6.59715C25.7234 6.86175 25.4363 7.0246 25.1081 7.0246H21.0475C21.068 6.98389 21.0885 6.96354 21.109 6.92283C21.3346 6.35293 21.2525 5.70161 20.8834 5.21312C18.2788 2.03796 6.93768 -11.9246 4.08701 -15.4661ZM-1.45027 -15.4661H3.04106L11.265 -5.3504C13.767 -2.25665 16.2895 0.837089 18.7915 3.93084L20.2271 5.72196C20.4117 5.96621 20.4527 6.3122 20.3502 6.59715C20.1861 6.86175 19.899 7.0246 19.5709 7.0246H15.5102C15.5307 6.98389 15.5512 6.96354 15.5717 6.92283C15.7973 6.35293 15.7153 5.70161 15.3461 5.21312C12.7415 2.03796 1.4004 -11.9246 -1.45027 -15.4661ZM-4.77264 -15.4661H-2.49622L5.72768 -5.3504C8.22971 -2.25665 10.7522 0.837089 13.2543 3.93084L14.6898 5.72196C14.8744 5.96621 14.9154 6.3122 14.8129 6.59715C14.6488 6.86175 14.3617 7.0246 14.0336 7.0246H9.97291C9.99342 6.98389 10.0139 6.96354 10.0344 6.92283C10.26 6.35293 10.178 5.70161 9.80883 5.21312C7.67596 2.58751 -0.383849 -7.34506 -4.75214 -12.7388V-11.4361L0.190407 -5.3504C2.69243 -2.25665 5.21496 0.837089 7.71699 3.93084L9.15257 5.72196C9.33715 5.96621 9.37816 6.3122 9.27562 6.59715C9.11155 6.86175 8.82445 7.0246 8.49632 7.0246H4.43564C4.45615 6.98389 4.47667 6.96354 4.49717 6.92283C4.72277 6.35293 4.64071 5.70161 4.27156 5.21312C2.8975 3.50342 -0.999101 -1.30004 -4.75214 -5.92031V-4.61768C-2.43469 -1.76817 -0.117229 1.08133 2.17971 3.93084L3.6153 5.72196C3.79988 5.96621 3.84089 6.3122 3.73835 6.59715C3.57428 6.86175 3.28718 7.0246 2.95904 7.0246H-1.10163C-1.08112 6.98389 -1.06061 6.96354 -1.0401 6.92283C-0.814505 6.35293 -0.896559 5.70161 -1.26571 5.21312C-1.94249 4.37863 -3.1935 2.81138 -4.75214 0.898145V2.20078C-4.28045 2.77068 -3.82925 3.34058 -3.35756 3.93084L-1.92197 5.72196C-1.73739 5.96621 -1.69638 6.3122 -1.79892 6.59715C-1.96299 6.86175 -2.25009 7.0246 -2.57823 7.0246H-4.77264V8.4697C-4.28044 8.06263 -3.60366 7.83874 -2.92689 7.83874H0.251918C0.128867 7.94051 0.02633 8.04228 -0.0762121 8.14405C-0.814515 8.85642 -1.24518 9.81303 -1.24518 10.8307V14.474H-0.424845V10.8307C-0.424845 10.0369 -0.0556987 9.28383 0.518537 8.71393C1.03125 8.14403 1.83107 7.83874 2.61039 7.83874H5.78919C5.66614 7.94051 5.5636 8.04228 5.46106 8.14405C4.72276 8.85642 4.29209 9.81303 4.29209 10.8307V14.474H5.11243V10.8307C5.11243 10.0369 5.48157 9.28383 6.05581 8.71393C6.56852 8.14403 7.36834 7.83874 8.14766 7.83874H11.3265C11.2034 7.94051 11.1009 8.04228 10.9983 8.14405C10.26 8.85642 9.82936 9.81303 9.82936 10.8307V14.474H10.6497V10.8307C10.6497 10.0369 11.0188 9.28383 11.5931 8.71393C12.1058 8.14403 12.9056 7.83874 13.6849 7.83874H16.8637C16.7407 7.94051 16.6381 8.04228 16.5356 8.14405C15.7973 8.85642 15.3666 9.81303 15.3666 10.8307V14.474H16.187V10.8307C16.187 10.0369 16.5561 9.28383 17.1304 8.71393C17.6431 8.14403 18.4429 7.83874 19.2222 7.83874H22.401C22.278 7.94051 22.1754 8.04228 22.0729 8.14405C21.3346 8.85642 20.9039 9.81303 20.9039 10.8307V14.474H21.7242V10.8307C21.7242 10.0369 22.0934 9.28383 22.6676 8.71393C23.1803 8.14403 23.9802 7.83874 24.7595 7.83874H26.2156V4.98924C23.3239 1.407 12.4134 -12.0264 9.62428 -15.4865H14.1156L22.3395 -5.37075C23.6315 -3.76281 24.9441 -2.17524 26.2361 -0.567304V-1.86994C22.0319 -7.03975 16.9663 -13.3087 15.1821 -15.5069H19.6734L26.2566 -7.40611V-8.70875C23.8571 -11.66 21.7447 -14.2653 20.7398 -15.5272H25.2312L26.2771 -14.2449V-15.5476L25.8259 -16.0971C25.7029 -16.2599 25.4978 -16.3617 25.2927 -16.3617H-4.71111V-15.4661H-4.77264Z" fill="url(#paint7_linear_1545_10495)" fill-opacity="0.4"/>
</g>
</g>
<path d="M64.0433 33.3077C64.0433 27.5983 60.0672 23.8718 54.6263 23.8718C49.0807 23.8718 45 27.7692 45 33.2051C45 38.641 49.0458 42.5726 55.289 42.5726C58.4977 42.5726 61.1136 41.547 62.7877 39.5983L60.4509 36.9658C59.1255 38.2991 57.4863 38.9487 55.3936 38.9487C52.15 38.9487 49.8829 37.2393 49.3597 34.5726H63.9736C64.0085 34.1624 64.0433 33.6496 64.0433 33.3077ZM54.6263 27.2906C57.4863 27.2906 59.5441 29.1026 59.8929 31.735H49.3249C49.7434 29.0684 51.8012 27.2906 54.6263 27.2906Z" fill="white"/>
<path d="M83.3657 42.3675L76.0762 33.0342L83.0518 24.1111H78.3433L73.7743 30.094L69.2053 24.1111H64.3572L71.2979 33.1026L64.0433 42.3675H68.8565L73.6696 36.0427L78.4479 42.3675H83.3657Z" fill="white"/>
<path d="M95.3672 23.8718C92.8211 23.8718 90.6587 24.7265 89.1938 26.4701V24.0769H85.0433V48.9658H89.4031V40.1111C90.9028 41.7863 92.9955 42.5726 95.3672 42.5726C100.808 42.5726 104.819 38.8803 104.819 33.2051C104.819 27.5641 100.808 23.8718 95.3672 23.8718ZM94.8789 38.9145C91.7399 38.9145 89.3333 36.6923 89.3333 33.2051C89.3333 29.7179 91.7399 27.4957 94.8789 27.4957C98.0179 27.4957 100.39 29.7179 100.39 33.2051C100.39 36.6923 98.0179 38.9145 94.8789 38.9145Z" fill="white"/>
<path d="M108.043 42.3675H112.403V17H108.043V42.3675Z" fill="white"/>
<path d="M125.449 42.4017C131.238 42.4017 135.389 38.5043 135.389 33.0342C135.389 27.5641 131.238 23.7008 125.449 23.7008C119.729 23.7008 115.543 27.5641 115.543 33.0342C115.543 38.5043 119.729 42.4017 125.449 42.4017ZM125.449 38.7436C122.31 38.7436 119.938 36.5214 119.938 33.0342C119.938 29.547 122.31 27.3248 125.449 27.3248C128.623 27.3248 130.994 29.547 130.994 33.0342C130.994 36.5214 128.623 38.7436 125.449 38.7436Z" fill="white"/>
<path d="M142.417 26.7778V24.1111H138.266V42.3675H142.626V33.5128C142.626 29.7863 144.718 27.8718 148.032 27.8718C148.346 27.8718 148.66 27.906 149.043 27.9743V23.906C145.939 23.906 143.672 24.8632 142.417 26.7778Z" fill="white"/>
<path d="M169.087 33.3077C169.087 27.5983 165.111 23.8718 159.67 23.8718C154.124 23.8718 150.043 27.7692 150.043 33.2051C150.043 38.641 154.089 42.5726 160.332 42.5726C163.541 42.5726 166.157 41.547 167.831 39.5983L165.494 36.9658C164.169 38.2991 162.53 38.9487 160.437 38.9487C157.193 38.9487 154.926 37.2393 154.403 34.5726H169.017C169.052 34.1624 169.087 33.6496 169.087 33.3077ZM159.67 27.2906C162.53 27.2906 164.587 29.1026 164.936 31.735H154.368C154.787 29.0684 156.845 27.2906 159.67 27.2906Z" fill="white"/>
<defs>
<linearGradient id="paint0_linear_1545_10495" x1="243.471" y1="20.0585" x2="243.338" y2="101.518" gradientUnits="userSpaceOnUse">
<stop stop-color="white"/>
<stop offset="1" stop-color="white" stop-opacity="0"/>
</linearGradient>
<linearGradient id="paint1_linear_1545_10495" x1="238.45" y1="-42.8065" x2="238.921" y2="56.0056" gradientUnits="userSpaceOnUse">
<stop stop-color="white"/>
<stop offset="1" stop-color="white" stop-opacity="0"/>
</linearGradient>
<linearGradient id="paint2_linear_1545_10495" x1="267.912" y1="18.3892" x2="268.061" y2="98.6733" gradientUnits="userSpaceOnUse">
<stop stop-color="white"/>
<stop offset="1" stop-color="white" stop-opacity="0"/>
</linearGradient>
<linearGradient id="paint3_linear_1545_10495" x1="263.423" y1="-43.8671" x2="262.459" y2="64.9443" gradientUnits="userSpaceOnUse">
<stop stop-color="white"/>
<stop offset="1" stop-color="white" stop-opacity="0"/>
</linearGradient>
<linearGradient id="paint4_linear_1545_10495" x1="293.838" y1="-50.7205" x2="293.456" y2="123.039" gradientUnits="userSpaceOnUse">
<stop stop-color="white"/>
<stop offset="1" stop-color="white" stop-opacity="0"/>
</linearGradient>
<linearGradient id="paint5_linear_1545_10495" x1="10.7317" y1="14.4733" x2="10.7317" y2="45.2479" gradientUnits="userSpaceOnUse">
<stop stop-color="white"/>
<stop offset="1" stop-color="white" stop-opacity="0"/>
</linearGradient>
<linearGradient id="paint6_linear_1545_10495" x1="10.7114" y1="45.2294" x2="10.7114" y2="76.004" gradientUnits="userSpaceOnUse">
<stop stop-color="white"/>
<stop offset="1" stop-color="white" stop-opacity="0"/>
</linearGradient>
<linearGradient id="paint7_linear_1545_10495" x1="10.7522" y1="-16.3617" x2="10.7522" y2="14.474" gradientUnits="userSpaceOnUse">
<stop stop-color="white"/>
<stop offset="1" stop-color="white" stop-opacity="0"/>
</linearGradient>
</defs>
</svg>
