<svg width="48" height="48" viewBox="0 0 48 48" fill="none" xmlns="http://www.w3.org/2000/svg">
<rect opacity="0.2" width="48" height="48" rx="14" fill="#FA9D1C"/>
<path d="M24.5967 13.0731C24.2079 12.9536 23.7922 12.9536 23.4034 13.0731L19.92 14.1437C18.1299 14.6939 16.4299 15.5028 14.8738 16.5448C13.8847 17.2071 14.3535 18.75 15.5439 18.75H32.4562C33.6466 18.75 34.1154 17.2071 33.1263 16.5448C31.5702 15.5028 29.8702 14.6939 28.0801 14.1437L24.5967 13.0731Z" fill="#FA9D1C"/>
<path d="M14.9584 34.5C14.9584 34.0167 15.3501 33.625 15.8334 33.625H32.1667C32.6499 33.625 33.0417 34.0167 33.0417 34.5C33.0417 34.9832 32.6499 35.375 32.1667 35.375H15.8334C15.3501 35.375 14.9584 34.9832 14.9584 34.5Z" fill="#FA9D1C"/>
<path d="M17.2917 29.8333C17.2917 30.3166 17.6834 30.7083 18.1667 30.7083C18.6499 30.7083 19.0417 30.3166 19.0417 29.8333L19.0417 22.8333C19.0417 22.3501 18.6499 21.9583 18.1667 21.9583C17.6834 21.9583 17.2917 22.3501 17.2917 22.8333L17.2917 29.8333Z" fill="#FA9D1C"/>
<path d="M24 30.7083C23.5168 30.7083 23.125 30.3166 23.125 29.8333L23.125 22.8333C23.125 22.3501 23.5168 21.9583 24 21.9583C24.4833 21.9583 24.875 22.3501 24.875 22.8333V29.8333C24.875 30.3166 24.4833 30.7083 24 30.7083Z" fill="#FA9D1C"/>
<path d="M28.9584 29.8333C28.9584 30.3166 29.3501 30.7083 29.8334 30.7083C30.3166 30.7083 30.7084 30.3166 30.7084 29.8333V22.8333C30.7084 22.3501 30.3166 21.9583 29.8334 21.9583C29.3501 21.9583 28.9584 22.3501 28.9584 22.8333V29.8333Z" fill="#FA9D1C"/>
<path d="M24.5967 13.0731C24.2079 12.9536 23.7922 12.9536 23.4034 13.0731L19.92 14.1437C18.1299 14.6939 16.4299 15.5028 14.8738 16.5448C13.8847 17.2071 14.3535 18.75 15.5439 18.75H32.4562C33.6466 18.75 34.1154 17.2071 33.1263 16.5448C31.5702 15.5028 29.8702 14.6939 28.0801 14.1437L24.5967 13.0731Z" stroke="#FA9D1C" stroke-linecap="round"/>
<path d="M14.9584 34.5C14.9584 34.0167 15.3501 33.625 15.8334 33.625H32.1667C32.6499 33.625 33.0417 34.0167 33.0417 34.5C33.0417 34.9832 32.6499 35.375 32.1667 35.375H15.8334C15.3501 35.375 14.9584 34.9832 14.9584 34.5Z" stroke="#FA9D1C" stroke-linecap="round"/>
<path d="M17.2917 29.8333C17.2917 30.3166 17.6834 30.7083 18.1667 30.7083C18.6499 30.7083 19.0417 30.3166 19.0417 29.8333L19.0417 22.8333C19.0417 22.3501 18.6499 21.9583 18.1667 21.9583C17.6834 21.9583 17.2917 22.3501 17.2917 22.8333L17.2917 29.8333Z" stroke="#FA9D1C" stroke-linecap="round"/>
<path d="M24 30.7083C23.5168 30.7083 23.125 30.3166 23.125 29.8333L23.125 22.8333C23.125 22.3501 23.5168 21.9583 24 21.9583C24.4833 21.9583 24.875 22.3501 24.875 22.8333V29.8333C24.875 30.3166 24.4833 30.7083 24 30.7083Z" stroke="#FA9D1C" stroke-linecap="round"/>
<path d="M28.9584 29.8333C28.9584 30.3166 29.3501 30.7083 29.8334 30.7083C30.3166 30.7083 30.7084 30.3166 30.7084 29.8333V22.8333C30.7084 22.3501 30.3166 21.9583 29.8334 21.9583C29.3501 21.9583 28.9584 22.3501 28.9584 22.8333V29.8333Z" stroke="#FA9D1C" stroke-linecap="round"/>
</svg>
