<svg width="48" height="48" viewBox="0 0 48 48" fill="none" xmlns="http://www.w3.org/2000/svg">
<rect opacity="0.2" width="48" height="48" rx="14" fill="#FA9D1C"/>
<path d="M35.4418 12.0002H17.2854C16.9566 12.0002 16.7038 12.266 16.7038 12.6112V19.8912C16.7038 20.2367 16.9567 20.5023 17.2854 20.5023H20.7245V17.8985H19.5107C19.2578 17.8985 19.0556 17.686 19.0556 17.4204V15.0822C19.0556 14.8165 19.258 14.6041 19.5107 14.6041H33.166C33.419 14.6041 33.6211 14.8167 33.6211 15.0822V17.4204C33.6211 17.6862 33.4188 17.8985 33.166 17.8985H31.9522V20.5023H35.4166C35.7454 20.5023 35.9982 20.2365 35.9982 19.8912L35.9983 12.6112C36.0236 12.2658 35.7706 12 35.442 12L35.4418 12.0002Z" fill="#FA9D1C"/>
<path d="M28.8414 32.4055C28.5885 32.6446 28.3103 32.8307 27.9817 32.9901L24.6689 34.3715C24.7954 34.8764 25.2252 35.2483 25.731 35.2219H25.9081C26.4896 35.2219 26.9701 34.7702 27.0966 34.2122C27.3241 34.4513 27.6529 34.6106 28.0069 34.6106C28.6897 34.6106 29.2461 33.9996 29.2207 33.2822C29.4482 33.5479 29.777 33.6806 30.131 33.6806C30.8138 33.6806 31.3702 33.0696 31.3702 32.3522V31.6879C30.9909 32.1396 30.4598 32.4053 29.8528 32.4053L28.8414 32.4055Z" fill="#FA9D1C"/>
<path d="M28.4875 29.8283C28.1587 28.978 27.2484 28.5795 26.4393 28.8983L23.3542 30.2002C22.0898 30.7316 20.7244 29.7486 20.7496 28.3404V23.7173C19.0553 24.2486 18.0943 24.78 17.0323 26.1351C15.4898 28.1278 12.7841 28.0747 12.7841 28.0747C12.4048 28.1544 12.1013 28.4998 12.076 28.925L12 34.2389C12 34.6905 12.3288 35.0892 12.7332 35.1156C13.5425 35.1953 14.8574 35.4079 15.9448 35.8331C16.7793 36.1518 18.1195 35.9393 18.3977 35.8066C19.207 35.4876 27.6024 31.9803 27.6024 31.9803C28.4117 31.6349 28.8161 30.6784 28.4875 29.8283L28.4875 29.8283Z" fill="#FA9D1C"/>
<path d="M29.8783 31.4092C29.8783 31.4019 29.8843 31.3959 29.8917 31.3958C30.4923 31.3885 30.9655 30.8863 30.9655 30.2535V17.1935C30.9655 16.3651 30.294 15.6935 29.4655 15.6935H23.2609C22.4324 15.6935 21.7609 16.3651 21.7609 17.1935V28.3936C21.7861 28.7124 21.938 29.0047 22.216 29.1641C22.3676 29.2438 22.6458 29.3501 22.9746 29.2173L26.0597 27.9153C26.793 27.5965 27.6023 27.6495 28.2851 28.0747C28.8162 28.3935 29.2207 28.8718 29.423 29.4564C29.6431 30.0343 29.6716 30.6324 29.5253 31.1807C29.4936 31.2995 29.5791 31.4225 29.7021 31.4225H29.8649C29.8723 31.4225 29.8782 31.4166 29.8783 31.4092V31.4092ZM26.8943 24.8333C26.8943 24.8333 26.8942 24.8333 26.8942 24.8333V25.5507C26.8942 25.6569 26.8184 25.7368 26.7171 25.7368H26.0091C25.908 25.7368 25.832 25.6571 25.832 25.5507V25.5507C25.832 25.1425 25.5048 24.8174 25.1615 24.5965C24.7667 24.3426 24.4917 23.9118 24.4411 23.3986V23.3986C24.4411 23.3006 24.5249 23.2132 24.6229 23.2126C24.6295 23.2125 24.6364 23.2125 24.6435 23.2125H25.3515C25.4274 23.2125 25.5032 23.2657 25.5286 23.3719C25.5792 23.5845 25.7562 23.7439 25.9585 23.7439H26.5907C26.9447 23.7439 27.2481 23.4781 27.2987 23.1062C27.3239 22.8936 27.2481 22.7077 27.1216 22.5748C26.9951 22.4154 26.8182 22.3357 26.6159 22.3357H26.1608C25.2252 22.3357 24.4414 21.6183 24.3401 20.6885C24.2659 19.9665 24.6008 19.3162 25.1445 18.9585C25.491 18.7305 25.8068 18.3932 25.8068 17.9784V17.9784C25.8068 17.8722 25.8826 17.7923 25.9839 17.7923H26.692C26.793 17.7923 26.869 17.872 26.869 17.9784V17.9784C26.869 18.3865 27.1963 18.7117 27.5395 18.9325C27.9343 19.1865 28.2094 19.6172 28.2599 20.1304V20.1304C28.2599 20.2284 28.1761 20.3158 28.0782 20.3165C28.0715 20.3165 28.0647 20.3165 28.0576 20.3165H27.3495C27.2737 20.3165 27.1978 20.2633 27.1724 20.1571C27.1218 19.9445 26.9449 19.7852 26.7426 19.7852H26.1104C25.7564 19.7852 25.4529 20.0509 25.4023 20.4229C25.3771 20.6355 25.453 20.8213 25.5794 20.9542C25.7059 21.1136 25.8828 21.1933 26.0851 21.1933H26.6163C27.0968 21.1933 27.5772 21.4059 27.9059 21.8043C28.2347 22.2028 28.4116 22.7077 28.361 23.2125C28.2851 24.0361 27.7035 24.6739 26.8943 24.8333C26.8943 24.8333 26.8943 24.8333 26.8943 24.8333V24.8333Z" fill="#FA9D1C"/>
<rect x="23.9999" y="16.8" width="4.79997" height="9.59994" fill="#FA9D1C"/>
<path d="M28 24.7362H24.5V23.4512C24.5 23.1712 24.5483 22.9412 24.645 22.7612C24.7383 22.5778 24.8667 22.4412 25.03 22.3512C25.19 22.2612 25.3683 22.2162 25.565 22.2162C25.7783 22.2162 25.9733 22.2728 26.15 22.3862C26.3267 22.4962 26.455 22.6695 26.535 22.9062L28 22.1812V22.9162L26.62 23.5662V24.0962H28V24.7362ZM26.15 24.0962V23.4912C26.15 23.2778 26.0983 23.1212 25.995 23.0212C25.8917 22.9212 25.755 22.8712 25.585 22.8712C25.4183 22.8712 25.285 22.9212 25.185 23.0212C25.085 23.1178 25.035 23.2762 25.035 23.4962V24.0962H26.15ZM28 21.6209H24.5V20.3259C24.5 20.0459 24.5467 19.8143 24.64 19.6309C24.7333 19.4476 24.8617 19.3109 25.025 19.2209C25.1883 19.1309 25.3717 19.0859 25.575 19.0859C25.7683 19.0859 25.9467 19.1293 26.11 19.2159C26.27 19.3026 26.4 19.4376 26.5 19.6209C26.5967 19.8043 26.645 20.0393 26.645 20.3259V20.9809H28V21.6209ZM26.125 20.9809V20.3659C26.125 20.1426 26.0767 19.9826 25.98 19.8859C25.88 19.7859 25.745 19.7359 25.575 19.7359C25.4017 19.7359 25.2667 19.7859 25.17 19.8859C25.07 19.9826 25.02 20.1426 25.02 20.3659V20.9809H26.125Z" fill="#FEEBD2"/>
</svg>
