<svg width="48" height="48" viewBox="0 0 48 48" fill="none" xmlns="http://www.w3.org/2000/svg">
<rect width="48" height="48" rx="14" fill="#506698"/>
<path d="M33.6364 23.904V20.4763C33.6364 19.9627 33.4324 19.4701 33.0693 19.1068C32.706 18.7437 32.2134 18.5397 31.6998 18.5397H15.2389C14.8928 18.5397 14.5732 18.3551 14.4003 18.0555C14.2274 17.756 14.2274 17.3868 14.4003 17.0872C14.5732 16.7877 14.8928 16.6031 15.2389 16.6031H30.7316C31.0776 16.6031 31.3972 16.4185 31.5702 16.1189C31.7431 15.8194 31.7431 15.4502 31.5702 15.1507C31.3972 14.8511 31.0776 14.6665 30.7316 14.6665H14.2706C13.757 14.6665 13.2644 14.8705 12.9011 15.2336C12.538 15.597 12.334 16.0896 12.334 16.6031V30.1592C12.334 30.6727 12.538 31.1653 12.9011 31.5286C13.2645 31.8917 13.757 32.0958 14.2706 32.0958H25.4447C26.4977 33.3252 28.0158 34.0598 29.6332 34.1223C31.2507 34.1847 32.821 33.5696 33.9657 32.4249C35.1103 31.2803 35.7255 29.7101 35.663 28.0925C35.6005 26.4751 34.8658 24.957 33.6364 23.904ZM29.7633 32.6186C28.6099 32.6186 27.5035 32.1613 26.6867 31.3469C25.8699 30.5325 25.4096 29.4275 25.4061 28.2741C25.4026 27.1207 25.8567 26.0131 26.6688 25.1939C27.4806 24.3747 28.5842 23.9109 29.7377 23.9042C30.891 23.8973 32 24.3479 32.8215 25.1575C33.6431 25.967 34.1103 27.0693 34.1205 28.2226C34.1231 29.3789 33.6649 30.4888 32.847 31.3064C32.0294 32.1243 30.9195 32.5825 29.7632 32.5799L29.7633 32.6186Z" fill="white"/>
<circle cx="29.5" cy="28.5" r="5.75" fill="#506698" stroke="white" stroke-width="1.5"/>
<path fill-rule="evenodd" clip-rule="evenodd" d="M26 28.9681V28.0229C26 27.7822 26.1962 27.586 26.4459 27.586H28.586V25.4459C28.586 25.1962 28.7822 25 29.0229 25H29.9681C30.2178 25 30.414 25.1962 30.414 25.4459V27.586H32.5541C32.7949 27.586 33 27.7822 33 28.0229V28.9681C33 29.2178 32.7949 29.414 32.5541 29.414H30.414V31.5541C30.414 31.7949 30.2178 32 29.9681 32H29.0229C28.7822 32 28.586 31.7949 28.586 31.5541V29.414H26.4459C26.1962 29.414 26 29.2178 26 28.9681V28.9681Z" fill="white"/>
</svg>
