<svg width="22" height="21" viewBox="0 0 22 21" fill="none" xmlns="http://www.w3.org/2000/svg">
<path d="M18.2995 11.7572C17.6007 11.7572 17.0321 11.1938 17.0321 10.5014C17.0321 9.80896 17.6007 9.24556 18.2995 9.24556C18.4697 9.24556 18.6314 9.17893 18.7515 9.06001C18.8706 8.94193 18.9379 8.78 18.9379 8.613L18.937 6.3341C18.937 4.40775 17.3547 2.83984 15.4105 2.83984H5.4414C3.49728 2.83984 1.91576 4.40775 1.91576 6.3341L1.91406 8.68638C1.91406 8.85337 1.98131 9.01447 2.10132 9.13339C2.22134 9.25231 2.38307 9.31894 2.55246 9.31894C3.27512 9.31894 3.82073 9.82667 3.82073 10.5014C3.82073 11.1938 3.25213 11.7572 2.55246 11.7572C2.20006 11.7572 1.91406 12.0406 1.91406 12.3898V14.6679C1.91406 16.5942 3.49643 18.1613 5.44055 18.1613H15.4122C17.3564 18.1613 18.9379 16.5942 18.9379 14.6679V12.3898C18.9379 12.0406 18.6519 11.7572 18.2995 11.7572Z" fill="#FA9D1C"/>
<circle cx="8.85365" cy="7.35658" r="1.57143" fill="white"/>
<circle cx="6.49623" cy="7.35658" r="1.57143" fill="white"/>
<rect x="14.2852" y="11.7656" width="5.30438" height="5.30438" fill="white"/>
<g clip-path="url(#clip0_670_39592)">
<path d="M21.3558 14.715C21.3558 15.9655 20.859 17.1648 19.9748 18.049C19.0906 18.9332 17.8913 19.43 16.6408 19.43C15.3903 19.43 14.191 18.9332 13.3068 18.049C12.4225 17.1648 11.9258 15.9655 11.9258 14.715C11.9258 13.4645 12.4225 12.2652 13.3068 11.381C14.191 10.4968 15.3903 10 16.6408 10C17.8913 10 19.0906 10.4968 19.9748 11.381C20.859 12.2652 21.3558 13.4645 21.3558 14.715V14.715ZM19.016 12.9292C18.9739 12.8872 18.9237 12.8542 18.8686 12.8321C18.8134 12.8099 18.7544 12.7992 18.6949 12.8004C18.6355 12.8016 18.577 12.8148 18.5227 12.8391C18.4685 12.8635 18.4198 12.8985 18.3794 12.9422L16.3325 15.5501L15.099 14.316C15.0152 14.2379 14.9044 14.1954 14.7898 14.1974C14.6753 14.1994 14.5661 14.2458 14.4851 14.3268C14.4041 14.4078 14.3577 14.5171 14.3557 14.6316C14.3537 14.7461 14.3962 14.8569 14.4742 14.9407L16.0337 16.5008C16.0757 16.5427 16.1258 16.5758 16.1808 16.598C16.2359 16.6201 16.2948 16.631 16.3542 16.6299C16.4135 16.6288 16.4721 16.6158 16.5263 16.5916C16.5805 16.5674 16.6292 16.5325 16.6697 16.489L19.0224 13.548C19.1027 13.4646 19.147 13.3531 19.1459 13.2374C19.1448 13.1217 19.0983 13.011 19.0166 12.9292H19.016Z" fill="#50B74A"/>
</g>
<defs>
<clipPath id="clip0_670_39592">
<rect width="9.43" height="9.43" fill="white" transform="translate(11.9258 10)"/>
</clipPath>
</defs>
</svg>
