<svg width="32" height="32" viewBox="0 0 32 32" fill="none" xmlns="http://www.w3.org/2000/svg">
<rect width="32" height="32" fill="#E5E5E5"/>
<g clip-path="url(#clip0_0_1)">
<rect width="5646" height="2967" transform="translate(-806 -1318)" fill="#EAF0FF"/>
<g clip-path="url(#clip1_0_1)">
<rect width="360" height="780" transform="translate(-20 -548)" fill="white"/>
<rect width="32" height="32" rx="8" fill="#F6F8FD"/>
<path fill-rule="evenodd" clip-rule="evenodd" d="M16 20.8731C20.6993 20.8731 22.8733 20.2703 23.0833 17.8505C23.0833 15.4324 21.5676 15.5879 21.5676 12.621C21.5676 10.3035 19.371 7.66675 16 7.66675C12.6289 7.66675 10.4323 10.3035 10.4323 12.621C10.4323 15.5879 8.91663 15.4324 8.91663 17.8505C9.12742 20.2794 11.3014 20.8731 16 20.8731Z" stroke="#636772" stroke-width="1.5" stroke-linecap="round" stroke-linejoin="round"/>
<path d="M17.9906 23.3811C16.8539 24.6434 15.0805 24.6583 13.9329 23.3811" stroke="#636772" stroke-width="1.5" stroke-linecap="round" stroke-linejoin="round"/>
</g>
</g>
<defs>
<clipPath id="clip0_0_1">
<rect width="5646" height="2967" fill="white" transform="translate(-806 -1318)"/>
</clipPath>
<clipPath id="clip1_0_1">
<rect width="360" height="780" fill="white" transform="translate(-20 -548)"/>
</clipPath>
</defs>
</svg>
