<svg width="32" height="32" viewBox="0 0 32 32" fill="none" xmlns="http://www.w3.org/2000/svg">
<rect width="32" height="32" rx="8" fill="#F6F8FD"/>
<path d="M15.4846 20.9283C14.5334 20.9227 13.6108 20.6029 12.8602 20.0185C12.7684 19.941 12.7066 19.8339 12.6853 19.7156C12.6639 19.5974 12.6845 19.4754 12.7433 19.3707C12.7906 19.2704 12.8805 19.1969 12.9881 19.1706C13.0957 19.1443 13.2094 19.1679 13.2976 19.2349C13.9209 19.7259 14.6912 19.9929 15.4845 19.9929C16.2779 19.9929 17.0482 19.7259 17.6714 19.2349C17.7597 19.1679 17.8734 19.1443 17.9809 19.1706C18.0886 19.1969 18.1785 19.2704 18.2258 19.3707C18.2846 19.4754 18.3052 19.5974 18.2838 19.7156C18.2624 19.8339 18.2006 19.941 18.1089 20.0185C17.3583 20.6029 16.4357 20.9227 15.4845 20.9283H15.4846Z" fill="#636772"/>
<path d="M12.4442 16.0167C12.3202 16.0167 12.2011 15.9674 12.1134 15.8797C12.0257 15.792 11.9764 15.6729 11.9764 15.5489V14.3795C11.9764 14.2123 12.0656 14.0579 12.2103 13.9743C12.355 13.8908 12.5334 13.8908 12.6781 13.9743C12.8228 14.0579 12.912 14.2123 12.912 14.3795V15.5489C12.912 15.6729 12.8627 15.792 12.775 15.8797C12.6873 15.9674 12.5682 16.0167 12.4442 16.0167Z" fill="#636772"/>
<path d="M18.5253 16.0167C18.4013 16.0167 18.2822 15.9674 18.1945 15.8797C18.1068 15.792 18.0575 15.6729 18.0575 15.5489V14.3795C18.0575 14.2123 18.1467 14.0579 18.2914 13.9743C18.4361 13.8908 18.6145 13.8908 18.7592 13.9743C18.9039 14.0579 18.9931 14.2123 18.9931 14.3795V15.5489C18.9931 15.6729 18.9438 15.792 18.8561 15.8797C18.7684 15.9674 18.6494 16.0167 18.5253 16.0167Z" fill="#636772"/>
<path d="M14.7831 18.3556C14.6159 18.3556 14.4615 18.2664 14.3779 18.1217C14.2944 17.977 14.2944 17.7986 14.3779 17.6539C14.4615 17.5092 14.6159 17.42 14.7831 17.42C14.9071 17.42 15.0261 17.3707 15.1139 17.283C15.2016 17.1953 15.2509 17.0763 15.2509 16.9522V14.3795C15.2509 14.2123 15.34 14.0579 15.4847 13.9743C15.6295 13.8908 15.8078 13.8908 15.9525 13.9743C16.0973 14.0579 16.1864 14.2123 16.1864 14.3795V16.9522C16.1864 17.3245 16.0386 17.6813 15.7754 17.9446C15.5122 18.2077 15.1553 18.3556 14.7831 18.3556Z" fill="#636772"/>
<path d="M13.1457 23.9688C9.63727 23.9688 8 22.3316 8 18.8232C8 18.6561 8.08917 18.5016 8.2339 18.4181C8.37862 18.3346 8.55697 18.3346 8.70169 18.4181C8.84641 18.5016 8.93558 18.6561 8.93558 18.8232C8.93558 21.8638 10.1051 23.0332 13.1457 23.0332C13.3129 23.0332 13.4673 23.1224 13.5508 23.2671C13.6344 23.4118 13.6344 23.5902 13.5508 23.7349C13.4673 23.8796 13.3129 23.9688 13.1457 23.9688Z" fill="#636772"/>
<path d="M22.5016 14.6133C22.3775 14.6133 22.2585 14.564 22.1708 14.4763C22.0831 14.3886 22.0338 14.2696 22.0338 14.1455C22.0338 11.105 20.8643 9.93555 17.8237 9.93555C17.6565 9.93555 17.5021 9.84638 17.4185 9.70167C17.335 9.55695 17.335 9.37861 17.4185 9.23389C17.5021 9.08917 17.6565 9 17.8237 9C21.3321 9 22.9694 10.6372 22.9694 14.1455C22.9694 14.2696 22.9201 14.3886 22.8324 14.4763C22.7446 14.564 22.6256 14.6133 22.5016 14.6133Z" fill="#636772"/>
<path d="M8.46779 14.6133C8.34374 14.6133 8.22471 14.564 8.137 14.4763C8.04929 14.3886 8 14.2696 8 14.1455C8 10.6372 9.63727 9 13.1457 9C13.3129 9 13.4673 9.08917 13.5508 9.23389C13.6344 9.37861 13.6344 9.55695 13.5508 9.70167C13.4673 9.84638 13.3129 9.93555 13.1457 9.93555C10.1051 9.93555 8.93558 11.105 8.93558 14.1455C8.93558 14.2696 8.8863 14.3886 8.79859 14.4763C8.71088 14.564 8.59184 14.6133 8.46779 14.6133Z" fill="#636772"/>
<path d="M17.8237 23.9688C17.6565 23.9688 17.5021 23.8796 17.4185 23.7349C17.335 23.5902 17.335 23.4118 17.4185 23.2671C17.5021 23.1224 17.6565 23.0332 17.8237 23.0332C20.8643 23.0332 22.0338 21.8638 22.0338 18.8232C22.0338 18.6561 22.123 18.5016 22.2677 18.4181C22.4124 18.3346 22.5908 18.3346 22.7355 18.4181C22.8802 18.5016 22.9694 18.6561 22.9694 18.8232C22.9694 22.3316 21.3321 23.9688 17.8237 23.9688Z" fill="#636772"/>
</svg>
