<svg width="32" height="32" viewBox="0 0 32 32" fill="none" xmlns="http://www.w3.org/2000/svg">
<rect width="32" height="32" rx="8" fill="#F6F8FD"/>
<mask id="mask0_3_249" style="mask-type:alpha" maskUnits="userSpaceOnUse" x="9" y="17" width="13" height="7">
<path fill-rule="evenodd" clip-rule="evenodd" d="M9.60376 17.8721H21.4837V23.4026H9.60376V17.8721Z" fill="white"/>
</mask>
<g mask="url(#mask0_3_249)">
<path fill-rule="evenodd" clip-rule="evenodd" d="M15.5444 18.9971C12.3487 18.9971 10.7287 19.5461 10.7287 20.6298C10.7287 21.7233 12.3487 22.2776 15.5444 22.2776C18.7394 22.2776 20.3587 21.7286 20.3587 20.6448C20.3587 19.5513 18.7394 18.9971 15.5444 18.9971M15.5444 23.4026C14.0752 23.4026 9.60367 23.4026 9.60367 20.6298C9.60367 18.1578 12.9944 17.8721 15.5444 17.8721C17.0137 17.8721 21.4837 17.8721 21.4837 20.6448C21.4837 23.1168 18.0937 23.4026 15.5444 23.4026" fill="#636772"/>
</g>
<mask id="mask1_3_249" style="mask-type:alpha" maskUnits="userSpaceOnUse" x="11" y="8" width="9" height="9">
<path fill-rule="evenodd" clip-rule="evenodd" d="M11.5612 8.50006H19.5262V16.464H11.5612V8.50006Z" fill="white"/>
</mask>
<g mask="url(#mask1_3_249)">
<path fill-rule="evenodd" clip-rule="evenodd" d="M15.5444 9.57078C13.9387 9.57078 12.6322 10.8765 12.6322 12.4823C12.6269 14.0828 13.9237 15.3878 15.5227 15.3938L15.5444 15.9293V15.3938C17.1494 15.3938 18.4552 14.0873 18.4552 12.4823C18.4552 10.8765 17.1494 9.57078 15.5444 9.57078M15.5444 16.4639H15.5204C13.3289 16.4572 11.5537 14.6699 11.5612 12.4799C11.5612 10.2862 13.3477 8.49966 15.5444 8.49966C17.7404 8.49966 19.5262 10.2862 19.5262 12.4822C19.5262 14.6782 17.7404 16.4639 15.5444 16.4639" fill="#636772"/>
</g>
<path d="M25.082 7.1575C25.292 6.9475 25.6325 6.9475 25.8425 7.1575C26.0334 7.34841 26.0508 7.64715 25.8946 7.85766L25.8425 7.91797L21.5406 12.2199C21.3306 12.4299 20.9901 12.4299 20.7801 12.2199C20.5892 12.029 20.5719 11.7302 20.7281 11.5197L20.7801 11.4594L25.082 7.1575Z" fill="#636772"/>
<path d="M20.7801 7.1575C20.971 6.96659 21.2698 6.94924 21.4803 7.10543L21.5406 7.1575L25.8425 11.4594C26.0525 11.6694 26.0525 12.0099 25.8425 12.2199C25.6516 12.4108 25.3528 12.4281 25.1423 12.2719L25.082 12.2199L20.7801 7.91797C20.5701 7.70797 20.5701 7.3675 20.7801 7.1575Z" fill="#636772"/>
</svg>
