<svg width="22" height="20" viewBox="0 0 22 20" fill="none" xmlns="http://www.w3.org/2000/svg">
<path d="M3.61632 0.213591C2.95157 0.213591 2.31756 0.453711 1.81956 0.861621C1.32155 1.26953 0.948975 1.87726 0.948975 2.58337V17.3955C0.948975 18.1016 1.32155 18.7093 1.81956 19.1175C2.31757 19.5254 2.95152 19.7655 3.61632 19.7655H12.5078C13.1726 19.7655 13.8066 19.5254 14.3046 19.1175C14.8026 18.7095 15.1752 18.1016 15.1752 17.3955V12.6555C15.1795 12.3424 14.8956 12.0546 14.5823 12.0546C14.269 12.0546 13.9851 12.3425 13.9895 12.6555V17.3955C13.9895 17.6904 13.8355 17.9704 13.5541 18.201C13.2728 18.4314 12.8748 18.5806 12.5074 18.5806H5.98692C5.61972 18.5806 5.22172 18.4314 4.94028 18.201C4.65905 17.9706 4.50489 17.6904 4.50489 17.3955V2.58337C4.50489 2.28849 4.65884 2.0085 4.94028 1.77786C5.22152 1.54745 5.61953 1.39825 5.98692 1.39825H12.5074C12.8746 1.39825 13.2726 1.54724 13.5541 1.77786C13.8353 2.00826 13.9895 2.28847 13.9895 2.58337V7.32336C13.9851 7.63642 14.269 7.92425 14.5823 7.92425C14.8956 7.92425 15.1795 7.6364 15.1752 7.32336V2.58337C15.1752 1.87726 14.8026 1.26954 14.3046 0.861409C13.8066 0.453499 13.1726 0.213379 12.5078 0.213379H3.61632V0.213591ZM3.61632 1.39845H3.7089C3.47394 1.74045 3.31999 2.13763 3.31999 2.58332V17.3954C3.31999 17.8366 3.46898 18.2406 3.6998 18.5803H3.61653C3.24932 18.5803 2.85132 18.4311 2.56989 18.2007C2.28865 17.9703 2.13449 17.6901 2.13449 17.3952V2.58307C2.13449 2.28819 2.28845 2.0082 2.56989 1.77755C2.85113 1.54714 3.24913 1.39795 3.61653 1.39795L3.61632 1.39845ZM18.074 7.01807C17.8496 7.03997 17.6448 7.20136 17.571 7.41441C17.4975 7.62746 17.5588 7.8808 17.7221 8.03641L19.0836 9.39738H7.71006C7.39968 9.41185 7.13043 9.70735 7.14487 10.0177C7.15933 10.3281 7.45504 10.5972 7.7656 10.5825H19.0836L17.7221 11.9342C17.4944 12.1507 17.4882 12.5568 17.7091 12.7802C17.93 13.0035 18.3364 13.0017 18.5557 12.7766L20.9267 10.4066C21.1488 10.187 21.1488 9.78385 20.9267 9.56415L18.5557 7.19416C18.4323 7.0677 18.2501 7.00116 18.074 7.01831L18.074 7.01807Z" fill="#FA9D1C"/>
</svg>
