<svg width="32" height="32" viewBox="0 0 32 32" fill="none" xmlns="http://www.w3.org/2000/svg">
<rect width="32" height="32" fill="#E5E5E5"/>
<g clip-path="url(#clip0_0_1)">
<rect width="5646" height="2967" transform="translate(-806 -988)" fill="#EAF0FF"/>
<g clip-path="url(#clip1_0_1)">
<rect width="360" height="780" transform="translate(-20 -218)" fill="white"/>
<rect width="32" height="32" rx="8" fill="#F6F8FD"/>
<path d="M8 10C7.453 10 7 10.453 7 11V14.6C7 15.147 7.453 15.6 8 15.6H16.5125C16.3715 15.6553 16.2359 15.7231 16.1063 15.8188C15.7119 16.1099 15.3999 16.5989 15.3999 17.2001V19.8001C15.3999 20.952 16.0414 21.553 16.6061 22.1625C16.8885 22.4674 17.1575 22.7345 17.3374 22.975C17.5173 23.2155 17.6 23.409 17.6 23.6C17.6 23.8094 17.7906 24 18 24H22.6C22.6628 23.9999 22.7254 23.9848 22.7812 23.9562C23.5726 23.5507 24.0485 22.9183 24.2999 22.2437C24.5513 21.5692 24.5998 21.0555 24.5998 20.4V17.7999C24.5998 17.142 24.0577 16.5999 23.3997 16.5999C23.2574 16.5999 23.1269 16.6347 22.9998 16.6811V16.5999C22.9998 16.1378 22.7307 15.7313 22.3435 15.5311C22.7236 15.3888 22.9999 15.026 22.9999 14.6V11C22.9999 10.453 22.5469 10 21.9999 10L8 10ZM8 10.8H22C22.1178 10.8 22.2001 10.8823 22.2001 11V14.6C22.2001 14.7178 22.1178 14.8001 22 14.8001H21.2374C21.0285 14.4432 20.6395 14.2 20.1999 14.2C20.0576 14.2 19.927 14.2349 19.7999 14.2812V12.6C19.7999 11.8313 19.1687 11.2 18.4 11.2C17.6313 11.2 17 11.8313 17 12.6V14.8001H8C7.88226 14.8001 7.79994 14.7178 7.79994 14.6V11C7.79994 10.8823 7.88226 10.8 8 10.8ZM9.79993 11.5999C9.14186 11.5999 8.59986 12.1419 8.59986 12.8C8.59986 13.458 9.14186 14 9.79993 14C10.458 14 11 13.458 11 12.8C11 12.1419 10.458 11.5999 9.79993 11.5999ZM12.5999 11.5999C11.9418 11.5999 11.3998 12.1419 11.3998 12.8C11.3998 13.458 11.9418 14 12.5999 14C13.2579 14 13.7999 13.458 13.7999 12.8C13.7999 12.1419 13.2579 11.5999 12.5999 11.5999ZM15.3998 11.5999C14.7417 11.5999 14.1997 12.1419 14.1997 12.8C14.1997 13.458 14.7417 14 15.3998 14C16.0579 14 16.5999 13.458 16.5999 12.8C16.5999 12.1419 16.0579 11.5999 15.3998 11.5999ZM18.3998 11.9998C18.7391 11.9998 18.9998 12.2606 18.9998 12.5999V15.3998C19.0028 15.6074 19.1922 15.7935 19.3998 15.7935C19.6074 15.7935 19.7968 15.6072 19.7998 15.3998C19.7998 15.1713 19.9712 14.9998 20.1997 14.9998C20.4282 14.9998 20.5997 15.1713 20.5997 15.3998V16.5999C20.6026 16.8075 20.7921 16.9936 20.9997 16.9936C21.2072 16.9936 21.3967 16.8073 21.3996 16.5999C21.3996 16.3714 21.5711 16.1999 21.7996 16.1999C22.0281 16.1999 22.1996 16.3714 22.1996 16.5999V17.8C22.2025 18.0075 22.3919 18.1936 22.5995 18.1936C22.8071 18.1936 22.9966 18.0074 22.9995 17.8C22.9995 17.5714 23.1709 17.4 23.3995 17.4C23.628 17.4 23.7994 17.5715 23.7994 17.8V20.4C23.7994 21.0152 23.7523 21.4351 23.5557 21.9625C23.3668 22.4693 23.0454 22.8874 22.4745 23.1999H18.3181C18.2444 22.9418 18.1295 22.7012 17.9743 22.4937C17.7416 22.1826 17.4607 21.9077 17.1931 21.6187C16.6582 21.0409 16.1996 20.6603 16.1996 19.8V17.1999C16.1996 16.8559 16.3474 16.6349 16.5809 16.4625C16.7029 16.3725 16.8492 16.3141 16.9998 16.2687V16.8C16.9968 17.0113 17.1884 17.2062 17.3997 17.2062C17.6111 17.2062 17.8028 17.0113 17.7997 16.8V12.6C17.7997 12.2607 18.0605 11.9998 18.3998 11.9998ZM9.79979 12.3998C10.0254 12.3998 10.1998 12.5742 10.1998 12.7998C10.1998 13.0254 10.0254 13.1997 9.79979 13.1997C9.57421 13.1997 9.39983 13.0254 9.39983 12.7998C9.39983 12.5742 9.57421 12.3998 9.79979 12.3998ZM12.5997 12.3998C12.8253 12.3998 12.9997 12.5742 12.9997 12.7998C12.9997 13.0254 12.8253 13.1997 12.5997 13.1997C12.3741 13.1997 12.1998 13.0254 12.1998 12.7998C12.1998 12.5742 12.3741 12.3998 12.5997 12.3998ZM15.3997 12.3998C15.6252 12.3998 15.7996 12.5742 15.7996 12.7998C15.7996 13.0254 15.6252 13.1997 15.3997 13.1997C15.1741 13.1997 14.9997 13.0254 14.9997 12.7998C14.9997 12.5742 15.1741 12.3998 15.3997 12.3998Z" fill="#636772"/>
</g>
</g>
<defs>
<clipPath id="clip0_0_1">
<rect width="5646" height="2967" fill="white" transform="translate(-806 -988)"/>
</clipPath>
<clipPath id="clip1_0_1">
<rect width="360" height="780" fill="white" transform="translate(-20 -218)"/>
</clipPath>
</defs>
</svg>
