<svg width="48" height="48" viewBox="0 0 48 48" fill="none" xmlns="http://www.w3.org/2000/svg">
<rect opacity="0.2" width="48" height="48" rx="14" fill="#FA9D1C"/>
<path fill-rule="evenodd" clip-rule="evenodd" d="M16.81 14H25.191C28.28 14 30 15.78 30 18.83V29.16C30 32.26 28.28 34 25.191 34H16.81C13.77 34 12 32.26 12 29.16V18.83C12 15.78 13.77 14 16.81 14ZM17.08 18.66V18.65H20.069C20.5 18.65 20.85 19 20.85 19.429C20.85 19.87 20.5 20.22 20.069 20.22H17.08C16.649 20.22 16.3 19.87 16.3 19.44C16.3 19.01 16.649 18.66 17.08 18.66ZM17.08 24.74H24.92C25.35 24.74 25.7 24.39 25.7 23.96C25.7 23.53 25.35 23.179 24.92 23.179H17.08C16.649 23.179 16.3 23.53 16.3 23.96C16.3 24.39 16.649 24.74 17.08 24.74ZM17.08 29.31H24.92C25.319 29.27 25.62 28.929 25.62 28.53C25.62 28.12 25.319 27.78 24.92 27.74H17.08C16.78 27.71 16.49 27.85 16.33 28.11C16.17 28.36 16.17 28.69 16.33 28.95C16.49 29.2 16.78 29.35 17.08 29.31Z" fill="#FA9D1C"/>
<path d="M37.0426 21.9314L37.0426 21.9297C37.0256 20.9791 36.2456 20.2097 35.2977 20.217L33.5737 20.2303C32.6132 20.2377 31.8454 21.019 31.8547 21.9795L31.8548 21.9813L31.8701 22.8746C31.8701 22.8749 31.8701 22.8753 31.8701 22.8757C31.8733 23.1456 32.0996 23.3677 32.3697 23.3656L32.3705 23.3656L32.3678 23.1156L32.3705 23.3656L32.3706 23.3656L32.3709 23.3656L32.372 23.3656L32.3765 23.3655L32.3942 23.3653L32.461 23.3646L32.7002 23.3621C32.8983 23.36 33.1628 23.3574 33.4289 23.3549C33.6949 23.3524 33.9622 23.3502 34.1658 23.3489C34.2676 23.3483 34.3531 23.3479 34.4144 23.3479C34.4452 23.3478 34.4692 23.3479 34.4859 23.3481C34.4914 23.3481 34.4955 23.3482 34.4983 23.3483L34.4989 23.3483L34.5112 23.3488C34.6058 23.3522 34.6982 23.388 34.7711 23.4596C34.9158 23.6018 34.9207 23.8347 34.7765 23.9813C34.7127 24.0463 34.6238 24.0811 34.5425 24.0822C34.5424 24.0822 34.5424 24.0822 34.5423 24.0822L32.3315 24.1059L32.3334 24.3559L32.3308 24.1059L32.3308 24.1059C32.0868 24.1082 31.8841 24.3146 31.8865 24.5588L31.948 30.8844C31.9528 31.3858 32.1476 31.8639 32.5008 32.2262C32.5009 32.2263 32.5011 32.2264 32.5012 32.2265L34.0479 33.8252L34.0478 33.8253L34.0523 33.8297C34.1761 33.9514 34.3435 34.0398 34.5425 34.0382C34.7285 34.0368 34.9041 33.9624 35.0358 33.8284L36.5789 32.2581C36.941 31.8897 37.1403 31.3943 37.1428 30.8734L37.1428 30.8734L37.1428 30.8694L37.0426 21.9314Z" fill="#FA9D1C" stroke="#FEEBD2" stroke-width="0.5"/>
</svg>
