<svg width="48" height="48" viewBox="0 0 48 48" fill="none" xmlns="http://www.w3.org/2000/svg">
<rect opacity="0.2" width="48" height="48" rx="14" fill="#FA9D1C"/>
<path d="M34.6094 27.5043L29.2526 33.4102C28.5484 34.2089 27.5173 34.6446 26.4107 34.6446H18.3629L16.9796 36L12 31.3285L15.5712 27.9156C17.055 26.5118 19.2431 26.0277 21.2047 26.6812L21.9843 26.9475H26.813C27.668 26.9475 28.3471 27.6252 28.322 28.4481C28.297 29.2469 27.5675 29.8762 26.7376 29.8762H23.8455C23.5185 29.8762 23.2671 30.1424 23.2671 30.4328C23.2671 30.7475 23.5437 30.9895 23.8455 30.9895H26.7629C28.2466 30.9895 29.479 29.8519 29.5294 28.4723V28.4482L32.2205 25.5437C32.7989 24.9144 33.7797 24.8175 34.4588 25.3259C35.1124 25.8825 35.1878 26.8751 34.6094 27.5043Z" fill="#FA9D1C"/>
<rect x="17" y="12" width="13" height="13" rx="6.5" fill="#FA9D1C"/>
<path fill-rule="evenodd" clip-rule="evenodd" d="M25.1315 17.1253C25.1315 17.9807 24.4456 18.6666 23.5897 18.6666C22.734 18.6666 22.0479 17.9807 22.0479 17.1253C22.0479 16.27 22.734 15.5844 23.5897 15.5844C24.4456 15.5844 25.1315 16.27 25.1315 17.1253ZM23.5896 21.4091C22.3263 21.4091 21.2597 21.2038 21.2597 20.4116C21.2597 19.6192 22.333 19.4211 23.5896 19.4211C24.8531 19.4211 25.9194 19.6264 25.9194 20.4186C25.9194 21.2111 24.8461 21.4091 23.5896 21.4091Z" fill="#FEEBD2"/>
</svg>
