<svg width="48" height="48" viewBox="0 0 48 48" fill="none" xmlns="http://www.w3.org/2000/svg">
<rect width="48" height="48" rx="14" fill="#FF881B"/>
<path d="M35.4412 12.0002H17.2847C16.9559 12.0002 16.7031 12.266 16.7031 12.6112V19.8912C16.7031 20.2367 16.9561 20.5023 17.2847 20.5023H20.7238V17.8985H19.51C19.2571 17.8985 19.055 17.686 19.055 17.4204V15.0822C19.055 14.8165 19.2573 14.6041 19.51 14.6041H33.1653C33.4183 14.6041 33.6204 14.8167 33.6204 15.0822V17.4204C33.6204 17.6862 33.4181 17.8985 33.1653 17.8985H31.9516V20.5023H35.4159C35.7447 20.5023 35.9975 20.2365 35.9975 19.8912L35.9977 12.6112C36.0229 12.2658 35.7699 12 35.4413 12L35.4412 12.0002Z" fill="white"/>
<path d="M28.8405 32.4051C28.5876 32.6442 28.3094 32.8303 27.9808 32.9896L24.668 34.3711C24.7944 34.876 25.2243 35.2479 25.73 35.2214H25.9071C26.4887 35.2214 26.9692 34.7698 27.0957 34.2117C27.3232 34.4508 27.652 34.6102 28.006 34.6102C28.6888 34.6102 29.2451 33.9992 29.2198 33.2817C29.4473 33.5475 29.7761 33.6802 30.1301 33.6802C30.8129 33.6802 31.3693 33.0692 31.3693 32.3517V31.6875C30.99 32.1392 30.4589 32.4049 29.8519 32.4049L28.8405 32.4051Z" fill="white"/>
<path d="M28.4875 29.8278C28.1587 28.9775 27.2484 28.579 26.4393 28.8978L23.3542 30.1997C22.0898 30.7311 20.7244 29.7481 20.7496 28.3399V23.7168C19.0553 24.2481 18.0943 24.7795 17.0323 26.1347C15.4898 28.1274 12.7841 28.0742 12.7841 28.0742C12.4048 28.1539 12.1013 28.4993 12.076 28.9245L12 34.2384C12 34.69 12.3288 35.0887 12.7332 35.1152C13.5425 35.1948 14.8574 35.4074 15.9448 35.8326C16.7793 36.1513 18.1195 35.9388 18.3977 35.8061C19.207 35.4871 27.6024 31.9798 27.6024 31.9798C28.4117 31.6344 28.8161 30.6779 28.4875 29.8278L28.4875 29.8278Z" fill="white"/>
<path d="M29.8791 31.4091C29.8791 31.4017 29.8852 31.3958 29.8925 31.3957C30.4931 31.3883 30.9664 30.8862 30.9664 30.2534V17.1934C30.9664 16.3649 30.2948 15.6934 29.4664 15.6934H23.2617C22.4333 15.6934 21.7617 16.3649 21.7617 17.1934V28.3935C21.7869 28.7123 21.9388 29.0046 22.2168 29.1639C22.3685 29.2436 22.6467 29.35 22.9755 29.2171L26.0606 27.9152C26.7938 27.5964 27.6031 27.6494 28.2859 28.0746C28.817 28.3934 29.2215 28.8717 29.4238 29.4562C29.6439 30.0342 29.6725 30.6323 29.5262 31.1805C29.4945 31.2994 29.58 31.4224 29.703 31.4224H29.8658C29.8731 31.4224 29.8791 31.4165 29.8791 31.4091ZM26.8951 24.8331C26.8951 24.8331 26.8951 24.8331 26.8951 24.8332V25.5506C26.8951 25.6567 26.8193 25.7366 26.718 25.7366H26.01C25.9089 25.7366 25.8329 25.6569 25.8329 25.5506C25.8329 25.1424 25.5056 24.8172 25.1624 24.5964C24.7676 24.3425 24.4925 23.9117 24.442 23.3985C24.442 23.3005 24.5258 23.2131 24.6237 23.2124C24.6304 23.2124 24.6372 23.2124 24.6443 23.2124H25.3524C25.4282 23.2124 25.5041 23.2656 25.5295 23.3718C25.5801 23.5844 25.757 23.7438 25.9593 23.7438H26.5915C26.9455 23.7438 27.249 23.478 27.2996 23.106C27.3248 22.8935 27.2489 22.7076 27.1225 22.5747C26.996 22.4153 26.8191 22.3356 26.6168 22.3356H26.1617C25.2261 22.3356 24.4422 21.6182 24.341 20.6884C24.2667 19.9664 24.6016 19.316 25.1453 18.9584C25.4919 18.7304 25.8077 18.393 25.8077 17.9782C25.8077 17.872 25.8835 17.7922 25.9848 17.7922H26.6928C26.7939 17.7922 26.8699 17.8719 26.8699 17.9782C26.8699 18.3864 27.1971 18.7116 27.5404 18.9324C27.9352 19.1863 28.2102 19.6171 28.2608 20.1303C28.2608 20.2283 28.177 20.3157 28.079 20.3163C28.0724 20.3164 28.0655 20.3164 28.0584 20.3164H27.3504C27.2745 20.3164 27.1987 20.2632 27.1733 20.157C27.1227 19.9444 26.9457 19.785 26.7434 19.785H26.1112C25.7572 19.785 25.4538 20.0508 25.4032 20.4228C25.378 20.6353 25.4538 20.8212 25.5803 20.9541C25.7068 21.1135 25.8837 21.1932 26.086 21.1932H26.6171C27.0976 21.1932 27.5781 21.4058 27.9067 21.8042C28.2355 22.2027 28.4124 22.7075 28.3618 23.2124C28.286 24.036 27.7044 24.6738 26.8951 24.8331C26.8951 24.8331 26.8951 24.8331 26.8951 24.8331Z" fill="white"/>
<rect x="23.9999" y="16.7998" width="4.79997" height="9.59994" fill="white"/>
<path d="M28 24.7362H24.5V23.4512C24.5 23.1712 24.5483 22.9412 24.645 22.7612C24.7383 22.5778 24.8667 22.4412 25.03 22.3512C25.19 22.2612 25.3683 22.2162 25.565 22.2162C25.7783 22.2162 25.9733 22.2728 26.15 22.3862C26.3267 22.4962 26.455 22.6695 26.535 22.9062L28 22.1812V22.9162L26.62 23.5662V24.0962H28V24.7362ZM26.15 24.0962V23.4912C26.15 23.2778 26.0983 23.1212 25.995 23.0212C25.8917 22.9212 25.755 22.8712 25.585 22.8712C25.4183 22.8712 25.285 22.9212 25.185 23.0212C25.085 23.1178 25.035 23.2762 25.035 23.4962V24.0962H26.15ZM28 21.6209H24.5V20.3259C24.5 20.0459 24.5467 19.8143 24.64 19.6309C24.7333 19.4476 24.8617 19.3109 25.025 19.2209C25.1883 19.1309 25.3717 19.0859 25.575 19.0859C25.7683 19.0859 25.9467 19.1293 26.11 19.2159C26.27 19.3026 26.4 19.4376 26.5 19.6209C26.5967 19.8043 26.645 20.0393 26.645 20.3259V20.9809H28V21.6209ZM26.125 20.9809V20.3659C26.125 20.1426 26.0767 19.9826 25.98 19.8859C25.88 19.7859 25.745 19.7359 25.575 19.7359C25.4017 19.7359 25.2667 19.7859 25.17 19.8859C25.07 19.9826 25.02 20.1426 25.02 20.3659V20.9809H26.125Z" fill="#FF881B"/>
</svg>
