<svg width="148" height="36" viewBox="0 0 148 36" fill="none" xmlns="http://www.w3.org/2000/svg">
<mask id="mask0_1206_2084" style="mask-type:alpha" maskUnits="userSpaceOnUse" x="0" y="0" width="148" height="36">
<mask id="mask1_1206_2084" style="mask-type:alpha" maskUnits="userSpaceOnUse" x="0" y="0" width="148" height="36">
<rect width="147.613" height="36" rx="6" fill="white"/>
<rect x="0.5" y="0.5" width="146.613" height="35" rx="5.5" stroke="#C6CBDA" stroke-opacity="0.5"/>
</mask>
<g mask="url(#mask1_1206_2084)">
<rect width="148" height="36" rx="6" fill="white"/>
<rect x="0.5" y="0.5" width="147" height="35" rx="5.5" stroke="#C6CBDA" stroke-opacity="0.5"/>
</g>
</mask>
<g mask="url(#mask0_1206_2084)">
<path d="M66 -4.54293C50.114 17.5567 13.2935 19.787 -22.5078 19.787C-58.309 19.787 -80 6.85599 -80 -16.532C-80 -39.92 -50.9774 -58.8797 -15.1761 -58.8797C20.6251 -58.8797 66 -27.9309 66 -4.54293ZM-56.784 -16.532C-56.784 -1.52019 -45.4871 13.5017 -22.5078 13.5017C0.471596 13.5017 30.8238 10.4689 30.8238 -4.54293C30.8238 -19.5547 7.80322 -43.7133 -15.1761 -43.7133C-38.1555 -43.7133 -56.784 -31.5438 -56.784 -16.532Z" fill="#FA9D1C" fill-opacity="0.1"/>
</g>
</svg>
