<svg width="32" height="32" viewBox="0 0 32 32" fill="none" xmlns="http://www.w3.org/2000/svg">
<rect width="32" height="32" fill="#E5E5E5"/>
<g clip-path="url(#clip0_0_1)">
<rect width="5646" height="2967" transform="translate(-806 -1156)" fill="#EAF0FF"/>
<g clip-path="url(#clip1_0_1)">
<rect width="360" height="780" transform="translate(-20 -386)" fill="white"/>
<rect width="32" height="32" rx="8" fill="#F6F8FD"/>
<path fill-rule="evenodd" clip-rule="evenodd" d="M15.7916 9.75C15.7157 9.75 15.5291 9.77083 15.4299 9.96917L13.9082 13.0117C13.6674 13.4925 13.2032 13.8267 12.6666 13.9033L9.25989 14.3942C9.03489 14.4267 8.95822 14.5933 8.93489 14.6633C8.91406 14.7308 8.88072 14.9025 9.03572 15.0508L11.4991 17.4175C11.8916 17.795 12.0699 18.3392 11.9766 18.8717L11.3966 22.2133C11.3607 22.4225 11.4916 22.5442 11.5499 22.5858C11.6116 22.6325 11.7766 22.725 11.9807 22.6183L15.0266 21.0392C15.5066 20.7917 16.0782 20.7917 16.5566 21.0392L19.6016 22.6175C19.8066 22.7233 19.9716 22.6308 20.0341 22.5858C20.0924 22.5442 20.2232 22.4225 20.1874 22.2133L19.6057 18.8717C19.5124 18.3392 19.6907 17.795 20.0832 17.4175L22.5466 15.0508C22.7024 14.9025 22.6691 14.73 22.6474 14.6633C22.6249 14.5933 22.5482 14.4267 22.3232 14.3942L18.9166 13.9033C18.3807 13.8267 17.9166 13.4925 17.6757 13.0108L16.1524 9.96917C16.0541 9.77083 15.8674 9.75 15.7916 9.75M11.7891 23.9167C11.4449 23.9167 11.1032 23.8083 10.8107 23.595C10.3057 23.225 10.0582 22.6142 10.1657 21.9992L10.7457 18.6575C10.7674 18.5333 10.7249 18.4075 10.6332 18.3192L8.16989 15.9525C7.71656 15.5183 7.55406 14.8767 7.74572 14.2808C7.93906 13.6783 8.45072 13.2475 9.08156 13.1575L12.4882 12.6667C12.6199 12.6483 12.7332 12.5675 12.7899 12.4525L14.3124 9.40917C14.5932 8.84833 15.1599 8.5 15.7916 8.5V8.5C16.4232 8.5 16.9899 8.84833 17.2707 9.40917L18.7941 12.4517C18.8516 12.5675 18.9641 12.6483 19.0949 12.6667L22.5016 13.1575C23.1324 13.2475 23.6441 13.6783 23.8374 14.2808C24.0291 14.8767 23.8657 15.5183 23.4124 15.9525L20.9491 18.3192C20.8574 18.4075 20.8157 18.5333 20.8374 18.6567L21.4182 21.9992C21.5249 22.615 21.2774 23.2258 20.7716 23.595C20.2591 23.9708 19.5916 24.0217 19.0257 23.7267L15.9816 22.1492C15.8624 22.0875 15.7199 22.0875 15.6007 22.1492L12.5566 23.7275C12.3132 23.8542 12.0507 23.9167 11.7891 23.9167" fill="#636772"/>
</g>
</g>
<defs>
<clipPath id="clip0_0_1">
<rect width="5646" height="2967" fill="white" transform="translate(-806 -1156)"/>
</clipPath>
<clipPath id="clip1_0_1">
<rect width="360" height="780" fill="white" transform="translate(-20 -386)"/>
</clipPath>
</defs>
</svg>
