<svg width="32" height="32" viewBox="0 0 32 32" fill="none" xmlns="http://www.w3.org/2000/svg">
<rect width="32" height="32" fill="#E5E5E5"/>
<g clip-path="url(#clip0_0_1)">
<rect width="5646" height="2967" transform="translate(-806 -1100)" fill="#EAF0FF"/>
<g clip-path="url(#clip1_0_1)">
<rect width="360" height="780" transform="translate(-20 -330)" fill="white"/>
<rect width="32" height="32" rx="8" fill="#F6F8FD"/>
<path d="M23.8242 9H8.17583C7.59364 9.0076 7.03809 9.2452 6.63046 9.66093C6.22282 10.0767 5.99619 10.6368 6.00005 11.219V20.4409C5.99619 21.0231 6.22282 21.5832 6.63046 21.9989C7.03809 22.4147 7.59364 22.6523 8.17583 22.6599H23.8242C24.4064 22.6523 24.9619 22.4147 25.3695 21.9989C25.7772 21.5832 26.0038 21.0231 26 20.4409V11.219C26.0038 10.6368 25.7772 10.0767 25.3695 9.66093C24.9619 9.2452 24.4064 9.0076 23.8242 9ZM7.06633 15.1095H24.9337V20.4409C24.9376 20.7403 24.8233 21.0292 24.6156 21.245C24.4079 21.4608 24.1236 21.586 23.8242 21.5936H8.17583C8.027 21.5917 7.88001 21.5603 7.74341 21.5012C7.60682 21.4421 7.48332 21.3564 7.3801 21.2492C7.27688 21.1419 7.19599 21.0152 7.14213 20.8765C7.08826 20.7377 7.0625 20.5897 7.06633 20.4409V15.1095ZM24.9337 11.5216H7.06633V11.219C7.06248 11.0709 7.08833 10.9235 7.14236 10.7856C7.1964 10.6476 7.27751 10.5219 7.38092 10.4158C7.48434 10.3097 7.60795 10.2254 7.74448 10.1678C7.881 10.1103 8.02767 10.0806 8.17583 10.0807H23.8242C23.9718 10.0826 24.1175 10.1135 24.2532 10.1717C24.3888 10.23 24.5117 10.3143 24.6147 10.42C24.7177 10.5257 24.7989 10.6507 24.8537 10.7878C24.9084 10.9249 24.9356 11.0714 24.9337 11.219V11.5216ZM7.06633 12.5879H24.9337V14.0288H7.06633V12.5879Z" fill="#636772"/>
<path d="M8.9971 18.4667H13.9394C14.0676 18.4457 14.1841 18.3798 14.2682 18.2808C14.3523 18.1818 14.3985 18.0562 14.3985 17.9263C14.3985 17.7965 14.3523 17.6708 14.2682 17.5718C14.1841 17.4729 14.0676 17.407 13.9394 17.386H8.9971C8.86894 17.407 8.75241 17.4729 8.66833 17.5718C8.58425 17.6708 8.53809 17.7965 8.53809 17.9263C8.53809 18.0562 8.58425 18.1818 8.66833 18.2808C8.75241 18.3798 8.86894 18.4457 8.9971 18.4667Z" fill="#636772"/>
<path d="M8.9972 20.1383H13.9395C14.0809 20.1383 14.2165 20.0821 14.3165 19.9821C14.4165 19.8822 14.4727 19.7466 14.4727 19.6052C14.469 19.4649 14.4117 19.3314 14.3125 19.2322C14.2133 19.133 14.0798 19.0757 13.9395 19.072H8.9972C8.85832 19.0758 8.72638 19.1336 8.6295 19.2332C8.53261 19.3328 8.47842 19.4662 8.47847 19.6052C8.47655 19.6745 8.48854 19.7435 8.51374 19.8081C8.53895 19.8727 8.57685 19.9316 8.62521 19.9813C8.67358 20.031 8.73141 20.0705 8.79531 20.0975C8.8592 20.1244 8.92785 20.1383 8.9972 20.1383Z" fill="#636772"/>
<path d="M21.3458 20.1382H22.1671C22.3462 20.1382 22.5235 20.1027 22.6888 20.0337C22.8541 19.9647 23.004 19.8637 23.13 19.7364C23.256 19.6091 23.3554 19.4581 23.4226 19.2921C23.4899 19.1261 23.5235 18.9484 23.5216 18.7693V17.9336C23.5235 17.7538 23.49 17.5754 23.4229 17.4086C23.3559 17.2418 23.2566 17.0898 23.1309 16.9614C23.0051 16.8329 22.8552 16.7305 22.6899 16.66C22.5245 16.5894 22.3469 16.5522 22.1671 16.5503H21.3458C20.9839 16.5578 20.6395 16.7069 20.3862 16.9655C20.133 17.2241 19.9913 17.5716 19.9913 17.9336V18.7693C19.9913 19.1299 20.1336 19.4759 20.3872 19.7322C20.6408 19.9885 20.9852 20.1344 21.3458 20.1382ZM21.0576 17.9336C21.0557 17.8945 21.0617 17.8555 21.0753 17.8189C21.0889 17.7822 21.1098 17.7487 21.1367 17.7204C21.1637 17.6921 21.1961 17.6696 21.2321 17.6542C21.268 17.6388 21.3067 17.6309 21.3458 17.631H22.1671C22.2474 17.631 22.3243 17.6629 22.3811 17.7196C22.4378 17.7764 22.4697 17.8533 22.4697 17.9336V18.7693C22.4697 18.8496 22.4378 18.9265 22.3811 18.9833C22.3243 19.04 22.2474 19.0719 22.1671 19.0719H21.3458C21.2681 19.0682 21.1948 19.0347 21.1411 18.9783C21.0874 18.922 21.0575 18.8471 21.0576 18.7693V17.9336Z" fill="#636772"/>
</g>
</g>
<defs>
<clipPath id="clip0_0_1">
<rect width="5646" height="2967" fill="white" transform="translate(-806 -1100)"/>
</clipPath>
<clipPath id="clip1_0_1">
<rect width="360" height="780" fill="white" transform="translate(-20 -330)"/>
</clipPath>
</defs>
</svg>
