<svg width="52" height="46" viewBox="0 0 52 46" fill="none" xmlns="http://www.w3.org/2000/svg">
<path opacity="0.1" d="M37.4937 0H8.50628C3.80839 0 0 3.80839 0 8.50628V37.4916C0 42.1895 3.80839 45.9979 8.50628 45.9979H37.4937C42.1916 45.9979 46 42.1895 46 37.4916V8.50628C46 3.80839 42.1916 0 37.4937 0Z" fill="#FA9D1C"/>
<rect x="38" y="34" width="11" height="10" fill="white"/>
<path fill-rule="evenodd" clip-rule="evenodd" d="M44 30C39.5818 30 36 33.5818 36 38C36 42.4182 39.5818 46 44 46C48.4182 46 52 42.4182 52 38C52 33.5818 48.4182 30 44 30ZM47.4676 36.6473C47.5315 36.5743 47.5801 36.4893 47.6106 36.3972C47.6411 36.3052 47.6529 36.2079 47.6453 36.1113C47.6377 36.0146 47.6108 35.9204 47.5662 35.8343C47.5217 35.7481 47.4604 35.6718 47.3859 35.6097C47.3114 35.5476 47.2252 35.5011 47.1324 35.4728C47.0397 35.4445 46.9422 35.435 46.8457 35.445C46.7493 35.4549 46.6558 35.484 46.5707 35.5306C46.4857 35.5773 46.4108 35.6404 46.3505 35.7164L43.2233 39.4684L41.6051 37.8495C41.4679 37.717 41.2842 37.6437 41.0935 37.6453C40.9028 37.647 40.7204 37.7235 40.5856 37.8583C40.4507 37.9932 40.3743 38.1756 40.3726 38.3663C40.3709 38.5569 40.4442 38.7407 40.5767 38.8778L42.7585 41.0596C42.83 41.1311 42.9156 41.1868 43.0098 41.2233C43.104 41.2598 43.2047 41.2763 43.3057 41.2717C43.4066 41.2672 43.5054 41.2416 43.5959 41.1967C43.6864 41.1518 43.7666 41.0885 43.8313 41.0109L47.4676 36.6473Z" fill="#50B74A"/>
<path d="M10.6429 11C9.74422 11 9 11.7443 9 12.6429V18.5572C9 19.4558 9.74422 20.2 10.6429 20.2H24.6277C24.396 20.2908 24.1732 20.4022 23.9603 20.5594C23.3124 21.0377 22.7999 21.8411 22.7999 22.8287V27.1002C22.7999 28.9926 23.8537 29.98 24.7815 30.9813C25.2454 31.4821 25.6873 31.921 25.9829 32.3161C26.2784 32.7113 26.4143 33.0291 26.4143 33.3429C26.4143 33.6869 26.7274 34 27.0714 34H34.6285C34.7317 33.9998 34.8346 33.975 34.9262 33.928C36.2265 33.2618 37.0082 32.2229 37.4212 31.1147C37.8342 30.0065 37.914 29.1626 37.914 28.0857V23.8142C37.914 22.7333 37.0233 21.8426 35.9424 21.8426C35.7087 21.8426 35.4941 21.8999 35.2854 21.976V21.8426C35.2854 21.0835 34.8432 20.4157 34.2072 20.0868C34.8316 19.853 35.2856 19.2571 35.2856 18.5571V12.6429C35.2856 11.7442 34.5414 11 33.6427 11L10.6429 11ZM10.6429 12.3142H33.6429C33.8363 12.3142 33.9716 12.4494 33.9716 12.6429V18.5572C33.9716 18.7506 33.8363 18.8858 33.6429 18.8858H32.3901C32.0468 18.2996 31.4078 17.9001 30.6856 17.9001C30.4518 17.9001 30.2373 17.9574 30.0285 18.0334V15.2714C30.0285 14.0086 28.9914 12.9715 27.7285 12.9715C26.4657 12.9715 25.4286 14.0086 25.4286 15.2714V18.8859H10.6429C10.4494 18.8859 10.3142 18.7506 10.3142 18.5572V12.6429C10.3142 12.4495 10.4494 12.3142 10.6429 12.3142ZM13.5999 13.6284C12.5188 13.6284 11.6283 14.5188 11.6283 15.5999C11.6283 16.681 12.5188 17.5715 13.5999 17.5715C14.681 17.5715 15.5714 16.681 15.5714 15.5999C15.5714 14.5188 14.681 13.6284 13.5999 13.6284ZM18.1998 13.6284C17.1187 13.6284 16.2282 14.5188 16.2282 15.5999C16.2282 16.681 17.1187 17.5715 18.1998 17.5715C19.2809 17.5715 20.1713 16.681 20.1713 15.5999C20.1713 14.5188 19.2809 13.6284 18.1998 13.6284ZM22.7997 13.6284C21.7186 13.6284 20.8281 14.5188 20.8281 15.5999C20.8281 16.681 21.7186 17.5715 22.7997 17.5715C23.8808 17.5715 24.7712 16.681 24.7712 15.5999C24.7712 14.5188 23.8808 13.6284 22.7997 13.6284ZM27.7282 14.2855C28.2856 14.2855 28.714 14.7138 28.714 15.2712V19.8711C28.7188 20.2122 29.0301 20.5179 29.3711 20.5179C29.7121 20.5179 30.0234 20.2119 30.0282 19.8711C30.0282 19.4957 30.3099 19.214 30.6853 19.214C31.0607 19.214 31.3424 19.4957 31.3424 19.8711V21.8427C31.3472 22.1837 31.6584 22.4894 31.9994 22.4894C32.3405 22.4894 32.6517 22.1835 32.6565 21.8427C32.6565 21.4673 32.9382 21.1856 33.3136 21.1856C33.689 21.1856 33.9707 21.4673 33.9707 21.8427V23.8142C33.9755 24.1553 34.2868 24.461 34.6278 24.461C34.9688 24.461 35.2801 24.155 35.2849 23.8142C35.2849 23.4388 35.5666 23.1571 35.942 23.1571C36.3174 23.1571 36.599 23.4388 36.599 23.8142V28.0857C36.599 29.0965 36.5216 29.7863 36.1986 30.6527C35.8883 31.4853 35.3603 32.1722 34.4224 32.6856H27.594C27.473 32.2616 27.2841 31.8662 27.0293 31.5254C26.647 31.0143 26.1854 30.5626 25.7458 30.0879C24.867 29.1386 24.1137 28.5134 24.1137 27.0999V22.8284C24.1137 22.2633 24.3564 21.9002 24.7401 21.617C24.9404 21.4691 25.1808 21.3731 25.4282 21.2986V22.1714C25.4234 22.5186 25.738 22.8388 26.0853 22.8388C26.4325 22.8388 26.7474 22.5186 26.7423 22.1714V15.2714C26.7423 14.714 27.1708 14.2855 27.7282 14.2855ZM13.5997 14.9425C13.9703 14.9425 14.2567 15.229 14.2567 15.5996C14.2567 15.9702 13.9702 16.2567 13.5997 16.2567C13.2291 16.2567 12.9426 15.9702 12.9426 15.5996C12.9426 15.229 13.2291 14.9425 13.5997 14.9425ZM18.1995 14.9425C18.5701 14.9425 18.8566 15.229 18.8566 15.5996C18.8566 15.9702 18.5701 16.2567 18.1995 16.2567C17.8289 16.2567 17.5425 15.9702 17.5425 15.5996C17.5425 15.229 17.829 14.9425 18.1995 14.9425ZM22.7994 14.9425C23.17 14.9425 23.4565 15.229 23.4565 15.5996C23.4565 15.9702 23.17 16.2567 22.7994 16.2567C22.4288 16.2567 22.1423 15.9702 22.1423 15.5996C22.1423 15.229 22.4288 14.9425 22.7994 14.9425Z" fill="#FA9D1C"/>
</svg>
