<svg width="64" height="64" viewBox="0 0 64 64" fill="none" xmlns="http://www.w3.org/2000/svg">
<g opacity="0.1" filter="url(#filter0_d_1_66)">
<rect x="8" y="4" width="48" height="48" rx="24" fill="url(#paint0_linear_1_66)" shape-rendering="crispEdges"/>
</g>
<path d="M41.6023 27.3675V23.8915C41.6023 23.3708 41.3954 22.8712 41.0272 22.5028C40.6588 22.1346 40.1593 21.9277 39.6385 21.9277H22.9458C22.5949 21.9277 22.2707 21.7405 22.0954 21.4367C21.92 21.133 21.92 20.7586 22.0954 20.4548C22.2707 20.151 22.5949 19.9639 22.9458 19.9639H38.6566C39.0075 19.9639 39.3316 19.7767 39.507 19.4729C39.6823 19.1691 39.6823 18.7947 39.507 18.491C39.3316 18.1872 39.0075 18 38.6566 18H21.9638C21.4431 18 20.9435 18.2069 20.5751 18.5751C20.2069 18.9436 20 19.4431 20 19.9639V33.7108C20 34.2316 20.2069 34.7311 20.5751 35.0995C20.9436 35.4677 21.4431 35.6746 21.9638 35.6746H33.2953C34.3631 36.9214 35.9026 37.6663 37.5427 37.7297C39.1831 37.793 40.7754 37.1692 41.9362 36.0084C43.097 34.8477 43.7208 33.2554 43.6574 31.615C43.5941 29.9749 42.8491 28.4353 41.6023 27.3675ZM37.6746 36.2048C36.5051 36.2048 35.3831 35.741 34.5548 34.9152C33.7265 34.0893 33.2597 32.9689 33.2562 31.7991C33.2526 30.6296 33.7131 29.5063 34.5366 28.6756C35.3598 27.8449 36.4789 27.3745 37.6487 27.3677C38.8183 27.3607 39.9429 27.8177 40.776 28.6387C41.6091 29.4596 42.0829 30.5774 42.0933 31.7469C42.0959 32.9195 41.6312 34.045 40.8018 34.8742C39.9727 35.7035 38.8472 36.1682 37.6746 36.1656L37.6746 36.2048Z" fill="#506698"/>
<circle cx="37.5" cy="31.5" r="6" fill="white" stroke="#506698"/>
<path fill-rule="evenodd" clip-rule="evenodd" d="M35 31.6827V31.0437C35 30.8809 35.1326 30.7483 35.3014 30.7483H36.7483V29.3014C36.7483 29.1326 36.8809 29 37.0437 29H37.6827C37.8515 29 37.9841 29.1326 37.9841 29.3014V30.7483H39.4309C39.5937 30.7483 39.7324 30.8809 39.7324 31.0437V31.6827C39.7324 31.8515 39.5937 31.9841 39.4309 31.9841H37.9841V33.4309C37.9841 33.5937 37.8515 33.7324 37.6827 33.7324H37.0437C36.8809 33.7324 36.7483 33.5937 36.7483 33.4309V31.9841H35.3014C35.1326 31.9841 35 31.8515 35 31.6827V31.6827Z" fill="#506698"/>
<defs>
<filter id="filter0_d_1_66" x="0" y="0" width="64" height="64" filterUnits="userSpaceOnUse" color-interpolation-filters="sRGB">
<feFlood flood-opacity="0" result="BackgroundImageFix"/>
<feColorMatrix in="SourceAlpha" type="matrix" values="0 0 0 0 0 0 0 0 0 0 0 0 0 0 0 0 0 0 127 0" result="hardAlpha"/>
<feOffset dy="4"/>
<feGaussianBlur stdDeviation="4"/>
<feComposite in2="hardAlpha" operator="out"/>
<feColorMatrix type="matrix" values="0 0 0 0 0 0 0 0 0 0 0 0 0 0 0 0 0 0 0.25 0"/>
<feBlend mode="normal" in2="BackgroundImageFix" result="effect1_dropShadow_1_66"/>
<feBlend mode="normal" in="SourceGraphic" in2="effect1_dropShadow_1_66" result="shape"/>
</filter>
<linearGradient id="paint0_linear_1_66" x1="32" y1="4" x2="32" y2="52" gradientUnits="userSpaceOnUse">
<stop stop-color="#757575"/>
<stop offset="1" stop-color="#B4B4B4" stop-opacity="0"/>
</linearGradient>
</defs>
</svg>
