<svg width="24" height="24" viewBox="0 0 24 24" fill="none" xmlns="http://www.w3.org/2000/svg">
<path d="M7.05429 19.9271H5.45425C5.2421 19.9271 5.03867 19.8429 4.88867 19.6929C4.73854 19.5429 4.6543 19.3393 4.6543 19.1272V6.32728C4.65497 5.69097 4.90809 5.08092 5.35794 4.63092C5.80794 4.18106 6.41799 3.92793 7.0543 3.92728L7.05429 19.9271ZM19.0543 4.72723V17.5271C19.0536 18.1634 18.8005 18.7735 18.3506 19.2235C17.9006 19.6733 17.2906 19.9265 16.6543 19.9271H8.65441V3.92735H18.2544C18.4665 3.92735 18.67 4.01159 18.82 4.16159C18.9701 4.31159 19.0544 4.51514 19.0544 4.7273L19.0543 4.72723ZM11.8543 10.3271C11.8543 10.7515 12.0229 11.1584 12.3229 11.4585C12.623 11.7585 13.0299 11.9272 13.4543 11.9272C13.8786 11.9272 14.2856 11.7585 14.5856 11.4585C14.8858 11.1584 15.0542 10.7515 15.0542 10.3271C15.0542 9.90283 14.8858 9.49582 14.5856 9.19582C14.2856 8.89569 13.8786 8.72721 13.4543 8.72721C13.0299 8.72721 12.623 8.89569 12.3229 9.19582C12.0229 9.49582 11.8543 9.90283 11.8543 10.3271ZM15.8544 15.1271C15.8544 14.2697 15.3969 13.4774 14.6544 13.0487C13.9118 12.62 12.9969 12.62 12.2544 13.0487C11.5118 13.4774 11.0544 14.2697 11.0544 15.1271H15.8544Z" fill="#636772"/>
</svg>
