<svg width="512" height="512" xmlns="http://www.w3.org/2000/svg">

 <g>
  <title>background</title>
  <rect fill="none" id="canvas_background" height="402" width="582" y="-1" x="-1"/>
 </g>
 <g>
  <title>Layer 1</title>
  <path fill="#FAFAFA" d="m160,341.333l-85.333,0c-5.891,0 -10.667,-4.776 -10.667,-10.667c0,-5.89 4.776,-10.666 10.667,-10.666l85.333,0c5.891,0 10.667,4.776 10.667,10.667c0,5.891 -4.776,10.666 -10.667,10.666z" id="SVGCleanerId_0"/>
  <path id="svg_1" fill="#FAFAFA" d="m117.333,384c-5.891,0 -10.667,-4.776 -10.667,-10.667l0,-85.333c0,-5.891 4.776,-10.667 10.667,-10.667s10.667,4.776 10.667,10.667l0,85.333c0,5.891 -4.776,10.667 -10.667,10.667z"/>
  <g id="svg_13">
   <path fill="#FAFAFA" d="m160,341.333l-85.333,0c-5.891,0 -10.667,-4.776 -10.667,-10.667c0,-5.89 4.776,-10.666 10.667,-10.666l85.333,0c5.891,0 10.667,4.776 10.667,10.667c0,5.891 -4.776,10.666 -10.667,10.666z" id="SVGCleanerId_0_1_"/>
  </g>
  <g id="svg_15"/>
  <g id="svg_16"/>
  <g id="svg_17"/>
  <g id="svg_18"/>
  <g id="svg_19"/>
  <g id="svg_20"/>
  <g id="svg_21"/>
  <g id="svg_22"/>
  <g id="svg_23"/>
  <g id="svg_24"/>
  <g id="svg_25"/>
  <g id="svg_26"/>
  <g id="svg_27"/>
  <g id="svg_28"/>
  <g id="svg_29"/>
 </g>
</svg>