<svg width="69" height="69" viewBox="0 0 69 69" fill="none" xmlns="http://www.w3.org/2000/svg">
<g opacity="0.1" filter="url(#filter0_d_2007_16007)">
<rect x="8.26562" y="4.03125" width="52" height="52" rx="26" fill="url(#paint0_linear_2007_16007)" shape-rendering="crispEdges"/>
</g>
<path fill-rule="evenodd" clip-rule="evenodd" d="M42.9696 21.2095C43.0336 21.3214 43.1456 21.4013 43.2896 21.4013C47.1296 21.4013 50.2656 24.5338 50.2656 28.3695V37.863C50.2656 41.6987 47.1296 44.8312 43.2896 44.8312H25.2416C21.3856 44.8312 18.2656 41.6987 18.2656 37.863V28.3695C18.2656 24.5338 21.3856 21.4013 25.2416 21.4013C25.3696 21.4013 25.4976 21.3374 25.5456 21.2095L25.6416 21.0177C25.6968 20.9016 25.7534 20.7824 25.8108 20.6614C26.2202 19.7992 26.673 18.8453 26.9536 18.2847C27.6896 16.8463 28.9376 16.0472 30.4896 16.0312H38.0256C39.5776 16.0472 40.8416 16.8463 41.5776 18.2847C41.8296 18.7882 42.2136 19.5993 42.5837 20.3809C42.66 20.5422 42.7358 20.7021 42.8096 20.8579L42.9696 21.2095ZM41.7969 27.347C41.7969 28.1461 42.4369 28.7854 43.2369 28.7854C44.0369 28.7854 44.6929 28.1461 44.6929 27.347C44.6929 26.5479 44.0369 25.8926 43.2369 25.8926C42.4369 25.8926 41.7969 26.5479 41.7969 27.347ZM31.4955 29.8226C32.2475 29.0714 33.2235 28.6719 34.2635 28.6719C35.3035 28.6719 36.2795 29.0714 37.0155 29.8066C37.7515 30.5418 38.1515 31.5167 38.1515 32.5556C38.1355 34.6972 36.4075 36.4392 34.2635 36.4392C33.2235 36.4392 32.2475 36.0397 31.5115 35.3045C30.7755 34.5693 30.3755 33.5944 30.3755 32.5556V32.5396C30.3595 31.5327 30.7595 30.5578 31.4955 29.8226ZM38.6968 36.9995C37.5608 38.1342 35.9928 38.8374 34.2648 38.8374C32.5848 38.8374 31.0168 38.1822 29.8168 36.9995C28.6328 35.8008 27.9768 34.2345 27.9768 32.5564C27.9608 30.8943 28.6168 29.328 29.8008 28.1293C31.0008 26.9307 32.5848 26.2754 34.2648 26.2754C35.9448 26.2754 37.5288 26.9307 38.7128 28.1133C39.8968 29.312 40.5528 30.8943 40.5528 32.5564C40.5368 34.2985 39.8328 35.8647 38.6968 36.9995Z" fill="#FA9D1C"/>
<defs>
<filter id="filter0_d_2007_16007" x="0.265625" y="0.03125" width="68" height="68" filterUnits="userSpaceOnUse" color-interpolation-filters="sRGB">
<feFlood flood-opacity="0" result="BackgroundImageFix"/>
<feColorMatrix in="SourceAlpha" type="matrix" values="0 0 0 0 0 0 0 0 0 0 0 0 0 0 0 0 0 0 127 0" result="hardAlpha"/>
<feOffset dy="4"/>
<feGaussianBlur stdDeviation="4"/>
<feComposite in2="hardAlpha" operator="out"/>
<feColorMatrix type="matrix" values="0 0 0 0 0 0 0 0 0 0 0 0 0 0 0 0 0 0 0.25 0"/>
<feBlend mode="normal" in2="BackgroundImageFix" result="effect1_dropShadow_2007_16007"/>
<feBlend mode="normal" in="SourceGraphic" in2="effect1_dropShadow_2007_16007" result="shape"/>
</filter>
<linearGradient id="paint0_linear_2007_16007" x1="34.2656" y1="4.03125" x2="34.2656" y2="56.0312" gradientUnits="userSpaceOnUse">
<stop stop-color="#6F6D6B"/>
<stop offset="1" stop-opacity="0"/>
</linearGradient>
</defs>
</svg>
