<svg width="72" height="72" viewBox="0 0 72 72" fill="none" xmlns="http://www.w3.org/2000/svg">
<path opacity="0.1" d="M58.6858 0H13.3142C5.96096 0 0 5.96096 0 13.3142V58.6826C0 66.0358 5.96096 71.9968 13.3142 71.9968H58.6858C66.039 71.9968 72 66.0358 72 58.6826V13.3142C72 5.96096 66.039 0 58.6858 0Z" fill="#FA9D1C"/>
<path d="M21.7164 36.5817H31.8959C32.0245 36.5862 32.1525 36.5642 32.2722 36.5171C32.3919 36.47 32.5006 36.3987 32.5915 36.3078C32.6824 36.2168 32.7537 36.1082 32.8008 35.9885C32.8479 35.8688 32.8699 35.7407 32.8654 35.6122C32.8697 35.4822 32.8479 35.3527 32.8011 35.2313C32.7543 35.1099 32.6836 34.9992 32.5931 34.9057C32.5027 34.8122 32.3943 34.7379 32.2746 34.6872C32.1548 34.6364 32.026 34.6103 31.8959 34.6104H21.7164C21.4507 34.6104 21.1959 34.716 21.008 34.9038C20.8201 35.0917 20.7146 35.3465 20.7146 35.6122C20.7145 35.7423 20.7406 35.8711 20.7914 35.9908C20.8421 36.1106 20.9164 36.219 21.0099 36.3094C21.1034 36.3999 21.2141 36.4706 21.3355 36.5174C21.4568 36.5642 21.5864 36.586 21.7164 36.5817Z" fill="#FA9D1C"/>
<path d="M40.4596 48.6677H49.3788C49.6445 48.6677 49.8993 48.5621 50.0871 48.3742C50.275 48.1864 50.3806 47.9316 50.3806 47.6659C50.3806 47.4002 50.275 47.1454 50.0871 46.9575C49.8993 46.7696 49.6445 46.6641 49.3788 46.6641H40.4596C40.1939 46.6641 39.9391 46.7696 39.7512 46.9575C39.5633 47.1454 39.4578 47.4002 39.4578 47.6659C39.4578 47.9316 39.5633 48.1864 39.7512 48.3742C39.9391 48.5621 40.1939 48.6677 40.4596 48.6677Z" fill="#FA9D1C"/>
<path d="M62.6283 35.8384C62.5871 35.6157 62.4692 35.4143 62.295 35.2694C62.1209 35.1245 61.9015 35.0452 61.675 35.0452C61.4484 35.0452 61.229 35.1245 61.0549 35.2694C60.8807 35.4143 60.7628 35.6157 60.7216 35.8384C60.7216 37.2701 60.2971 38.6697 59.5017 39.8601C58.7063 41.0505 57.5757 41.9783 56.253 42.5262C54.9303 43.0741 53.4748 43.2174 52.0706 42.9381C50.6665 42.6588 49.3766 41.9694 48.3643 40.957C47.3519 39.9447 46.6625 38.6548 46.3832 37.2506C46.1039 35.8465 46.2472 34.391 46.7951 33.0683C47.343 31.7455 48.2708 30.615 49.4612 29.8196C50.6516 29.0242 52.0512 28.5996 53.4829 28.5996C54.9083 28.6043 56.3012 29.026 57.4898 29.8127C58.6785 30.5994 59.6109 31.7167 60.1723 33.0269C60.2599 33.2561 60.434 33.4417 60.657 33.544C60.7748 33.5929 60.9011 33.618 61.0286 33.618C61.1562 33.618 61.2825 33.5929 61.4003 33.544C61.6316 33.4429 61.8163 33.2583 61.9173 33.0269C61.9662 32.9091 61.9914 32.7828 61.9914 32.6553C61.9914 32.5278 61.9662 32.4015 61.9173 32.2837C61.0917 30.3581 59.632 28.773 57.7809 27.7917V23.2352C57.7854 23.1067 57.7634 22.9786 57.7163 22.8589C57.6692 22.7392 57.5979 22.6306 57.507 22.5396C57.416 22.4487 57.3074 22.3774 57.1877 22.3303C57.068 22.2832 56.9399 22.2612 56.8114 22.2657H19.0017C18.8732 22.2612 18.7451 22.2832 18.6254 22.3303C18.5058 22.3774 18.3971 22.4487 18.3061 22.5396C18.2152 22.6306 18.144 22.7392 18.0968 22.8589C18.0497 22.9786 18.0277 23.1067 18.0322 23.2352V25.1742H16.8365C16.7065 25.1698 16.577 25.1917 16.4556 25.2385C16.3342 25.2852 16.2235 25.356 16.13 25.4464C16.0366 25.5369 15.9622 25.6452 15.9115 25.765C15.8608 25.8848 15.8347 26.0136 15.8347 26.1436V44.0144C15.2193 44.112 14.6588 44.426 14.2542 44.8999C13.8495 45.3738 13.6272 45.9765 13.6272 46.5996C13.6272 47.2228 13.8495 47.8255 14.2542 48.2994C14.6588 48.7733 15.2193 49.0873 15.8347 49.1849V52.3196C15.8347 52.5853 15.9403 52.8401 16.1282 53.0279C16.316 53.2158 16.5708 53.3214 16.8365 53.3214H53.903C54.1687 53.3214 54.4235 53.2158 54.6113 53.0279C54.7992 52.8401 54.9048 52.5853 54.9048 52.3196V51.1239H56.8114C56.9415 51.124 57.0703 51.0978 57.19 51.0471C57.3098 50.9964 57.4182 50.9221 57.5086 50.8286C57.5991 50.7351 57.6698 50.6244 57.7166 50.503C57.7634 50.3816 57.7852 50.2521 57.7809 50.1221V43.8851C59.2411 43.1077 60.4631 41.9487 61.3167 40.5317C62.1703 39.1147 62.6236 37.4927 62.6283 35.8384ZM25.4326 46.5996C25.4326 45.9054 25.1568 45.2396 24.6659 44.7487C24.175 44.2578 23.5092 43.982 22.815 43.982H19.5511C19.4211 43.9777 19.2915 43.9996 19.1701 44.0464C19.0488 44.0931 18.938 44.1639 18.8446 44.2543C18.7511 44.3448 18.6768 44.4531 18.6261 44.5729C18.5753 44.6927 18.5492 44.8215 18.5493 44.9515C18.5493 45.2172 18.6548 45.472 18.8427 45.6599C19.0306 45.8478 19.2854 45.9533 19.5511 45.9533H22.815C22.9864 45.9533 23.1508 46.0214 23.272 46.1426C23.3932 46.2638 23.4613 46.4282 23.4613 46.5996C23.4613 46.7711 23.3932 46.9355 23.272 47.0567C23.1508 47.1779 22.9864 47.246 22.815 47.246H17.8383V27.1454H50.736C49.5828 27.5081 48.514 28.0981 47.5926 28.8807C46.6712 29.6633 45.916 30.6226 45.3716 31.702H21.7163C21.4506 31.702 21.1958 31.8075 21.0079 31.9954C20.82 32.1833 20.7145 32.4381 20.7145 32.7038C20.7144 32.8339 20.7405 32.9626 20.7912 33.0824C20.842 33.2022 20.9163 33.3105 21.0097 33.401C21.1032 33.4914 21.2139 33.5622 21.3353 33.6089C21.4567 33.6557 21.5862 33.6776 21.7163 33.6733H44.6283C44.461 34.383 44.3742 35.1093 44.3698 35.8384C44.3633 36.5343 44.4393 37.2286 44.596 37.9066H21.7163C21.5719 37.8804 21.4235 37.8862 21.2816 37.9236C21.1397 37.961 21.0078 38.0291 20.8952 38.1232C20.7825 38.2172 20.6919 38.3348 20.6297 38.4677C20.5675 38.6006 20.5353 38.7455 20.5353 38.8923C20.5353 39.039 20.5675 39.184 20.6297 39.3169C20.6919 39.4498 20.7825 39.5674 20.8952 39.6614C21.0078 39.7554 21.1397 39.8236 21.2816 39.861C21.4235 39.8984 21.5719 39.9042 21.7163 39.8779H45.3069L45.727 40.6535H21.7163C21.5862 40.6492 21.4567 40.671 21.3353 40.7178C21.2139 40.7646 21.1032 40.8353 21.0097 40.9258C20.9163 41.0162 20.842 41.1246 20.7912 41.2444C20.7405 41.3641 20.7144 41.4929 20.7145 41.623C20.7145 41.8887 20.82 42.1435 21.0079 42.3314C21.1958 42.5192 21.4506 42.6248 21.7163 42.6248H47.4075C48.9258 43.9948 50.8607 44.8143 52.9012 44.9515V51.3178H17.8383V49.2172H22.815C23.1587 49.2172 23.4991 49.1495 23.8167 49.018C24.1343 48.8864 24.4229 48.6936 24.6659 48.4506C24.909 48.2075 25.1018 47.9189 25.2333 47.6014C25.3649 47.2838 25.4326 46.9434 25.4326 46.5996ZM55.8096 27.0162L54.9048 26.8223V26.1436C54.9048 26.0136 54.8787 25.8848 54.828 25.765C54.7773 25.6452 54.703 25.5369 54.6095 25.4464C54.516 25.356 54.4053 25.2852 54.2839 25.2385C54.1625 25.1917 54.033 25.1698 53.903 25.1742H20.0035V24.237H55.8096V27.0162ZM54.9048 44.8546C55.2122 44.821 55.5154 44.7561 55.8096 44.6607V49.1526H54.9048V44.8546ZM15.8347 46.1472V47.0521C15.7713 46.9954 15.7211 46.9255 15.6876 46.8474C15.6541 46.7692 15.6381 46.6846 15.6409 46.5996C15.6358 46.5143 15.6506 46.429 15.6843 46.3505C15.718 46.272 15.7695 46.2024 15.8347 46.1472Z" fill="#FA9D1C"/>
<path d="M51.2531 32.5747C52.675 32.5747 53.3537 33.3826 53.3537 34.3844C53.366 34.7576 53.2511 35.1239 53.028 35.4233C52.8049 35.7227 52.4868 35.9375 52.1257 36.0325L53.386 38.1977H51.6409L50.5422 36.1295H50.3806V38.1977H48.7971V32.5747H51.2531ZM51.1562 33.8997H50.3806V35.063H51.1562C51.5763 35.063 51.7702 34.8691 51.7702 34.4813C51.7755 34.4008 51.763 34.32 51.7336 34.2448C51.7041 34.1696 51.6585 34.1018 51.5998 34.0463C51.5412 33.9907 51.4711 33.9488 51.3944 33.9234C51.3177 33.8981 51.2364 33.89 51.1562 33.8997Z" fill="white"/>
<path d="M56.9408 33.6732C58.0072 33.6732 58.8475 34.5458 58.8475 35.9677C58.8475 37.3896 58.0072 38.2621 56.9408 38.2621C56.6847 38.273 56.4302 38.2159 56.2032 38.0968C55.9762 37.9776 55.7847 37.8005 55.6482 37.5835V40.3627H54.0647V33.7379H55.6482V34.3519C55.7847 34.1349 55.9762 33.9578 56.2032 33.8386C56.4302 33.7194 56.6847 33.6624 56.9408 33.6732ZM56.4561 35.0305C56.3398 35.0342 56.2256 35.062 56.1207 35.1121C56.0157 35.1622 55.9223 35.2336 55.8463 35.3217C55.7704 35.4098 55.7136 35.5127 55.6795 35.6239C55.6454 35.7351 55.6347 35.8522 55.6482 35.9677C55.6482 36.5817 56.0037 36.9048 56.4561 36.9048C56.9085 36.9048 57.264 36.5817 57.264 35.9677C57.264 35.3537 56.9085 35.0305 56.4561 35.0305Z" fill="white"/>
<path d="M51.2531 32.5747C52.675 32.5747 53.3537 33.3826 53.3537 34.3844C53.366 34.7576 53.2511 35.1239 53.028 35.4233C52.8049 35.7227 52.4868 35.9375 52.1257 36.0325L53.386 38.1977H51.6409L50.5422 36.1295H50.3806V38.1977H48.7971V32.5747H51.2531ZM51.1562 33.8997H50.3806V35.063H51.1562C51.5763 35.063 51.7702 34.8691 51.7702 34.4813C51.7755 34.4008 51.763 34.32 51.7336 34.2448C51.7041 34.1696 51.6585 34.1018 51.5998 34.0463C51.5412 33.9907 51.4711 33.9488 51.3944 33.9234C51.3177 33.8981 51.2364 33.89 51.1562 33.8997Z" fill="white"/>
<path d="M56.9408 33.6732C58.0072 33.6732 58.8475 34.5458 58.8475 35.9677C58.8475 37.3896 58.0072 38.2621 56.9408 38.2621C56.6847 38.273 56.4302 38.2159 56.2032 38.0968C55.9762 37.9776 55.7847 37.8005 55.6482 37.5835V40.3627H54.0647V33.7379H55.6482V34.3519C55.7847 34.1349 55.9762 33.9578 56.2032 33.8386C56.4302 33.7194 56.6847 33.6624 56.9408 33.6732ZM56.4561 35.0305C56.3398 35.0342 56.2256 35.062 56.1207 35.1121C56.0157 35.1622 55.9223 35.2336 55.8463 35.3217C55.7704 35.4098 55.7136 35.5127 55.6795 35.6239C55.6454 35.7351 55.6347 35.8522 55.6482 35.9677C55.6482 36.5817 56.0037 36.9048 56.4561 36.9048C56.9085 36.9048 57.264 36.5817 57.264 35.9677C57.264 35.3537 56.9085 35.0305 56.4561 35.0305Z" fill="white"/>
<path d="M51.2531 32.5747C52.675 32.5747 53.3537 33.3826 53.3537 34.3844C53.366 34.7576 53.2511 35.1239 53.028 35.4233C52.8049 35.7227 52.4868 35.9375 52.1257 36.0325L53.386 38.1977H51.6409L50.5422 36.1295H50.3806V38.1977H48.7971V32.5747H51.2531ZM51.1562 33.8997H50.3806V35.063H51.1562C51.5763 35.063 51.7702 34.8691 51.7702 34.4813C51.7755 34.4008 51.763 34.32 51.7336 34.2448C51.7041 34.1696 51.6585 34.1018 51.5998 34.0463C51.5412 33.9907 51.4711 33.9488 51.3944 33.9234C51.3177 33.8981 51.2364 33.89 51.1562 33.8997Z" fill="white"/>
<path d="M56.9408 33.6732C58.0072 33.6732 58.8475 34.5458 58.8475 35.9677C58.8475 37.3896 58.0072 38.2621 56.9408 38.2621C56.6847 38.273 56.4302 38.2159 56.2032 38.0968C55.9762 37.9776 55.7847 37.8005 55.6482 37.5835V40.3627H54.0647V33.7379H55.6482V34.3519C55.7847 34.1349 55.9762 33.9578 56.2032 33.8386C56.4302 33.7194 56.6847 33.6624 56.9408 33.6732ZM56.4561 35.0305C56.3398 35.0342 56.2256 35.062 56.1207 35.1121C56.0157 35.1622 55.9223 35.2336 55.8463 35.3217C55.7704 35.4098 55.7136 35.5127 55.6795 35.6239C55.6454 35.7351 55.6347 35.8522 55.6482 35.9677C55.6482 36.5817 56.0037 36.9048 56.4561 36.9048C56.9085 36.9048 57.264 36.5817 57.264 35.9677C57.264 35.3537 56.9085 35.0305 56.4561 35.0305Z" fill="white"/>
<path d="M51.2531 32.5747C52.675 32.5747 53.3537 33.3826 53.3537 34.3844C53.366 34.7576 53.2511 35.1239 53.028 35.4233C52.8049 35.7227 52.4868 35.9375 52.1257 36.0325L53.386 38.1977H51.6409L50.5422 36.1295H50.3806V38.1977H48.7971V32.5747H51.2531ZM51.1562 33.8997H50.3806V35.063H51.1562C51.5763 35.063 51.7702 34.8691 51.7702 34.4813C51.7755 34.4008 51.763 34.32 51.7336 34.2448C51.7041 34.1696 51.6585 34.1018 51.5998 34.0463C51.5412 33.9907 51.4711 33.9488 51.3944 33.9234C51.3177 33.8981 51.2364 33.89 51.1562 33.8997Z" fill="#FA9D1C"/>
<path d="M56.9408 33.6732C58.0072 33.6732 58.8475 34.5458 58.8475 35.9677C58.8475 37.3896 58.0072 38.2621 56.9408 38.2621C56.6847 38.273 56.4302 38.2159 56.2032 38.0968C55.9762 37.9776 55.7847 37.8005 55.6482 37.5835V40.3627H54.0647V33.7379H55.6482V34.3519C55.7847 34.1349 55.9762 33.9578 56.2032 33.8386C56.4302 33.7194 56.6847 33.6624 56.9408 33.6732ZM56.4561 35.0305C56.3398 35.0342 56.2256 35.062 56.1207 35.1121C56.0157 35.1622 55.9223 35.2336 55.8463 35.3217C55.7704 35.4098 55.7136 35.5127 55.6795 35.6239C55.6454 35.7351 55.6347 35.8522 55.6482 35.9677C55.6482 36.5817 56.0037 36.9048 56.4561 36.9048C56.9085 36.9048 57.264 36.5817 57.264 35.9677C57.264 35.3537 56.9085 35.0305 56.4561 35.0305Z" fill="#FA9D1C"/>
</svg>
