<svg width="24" height="24" viewBox="0 0 24 24" fill="none" xmlns="http://www.w3.org/2000/svg">
<path fill-rule="evenodd" clip-rule="evenodd" d="M18.043 3.14516C18.043 1.5935 19.303 0.333496 20.8546 0.333496C22.4063 0.333496 23.6663 1.5935 23.6663 3.14516C23.6663 4.69683 22.4063 5.95683 20.8546 5.95683C19.303 5.95683 18.043 4.69683 18.043 3.14516ZM13.551 15.2193L16.9226 10.8688L16.876 10.8922C17.0626 10.6355 17.0976 10.3088 16.9693 10.0172C16.8421 9.72551 16.561 9.52718 16.2588 9.50385C15.9426 9.46885 15.6288 9.60884 15.441 9.86551L12.6188 13.5172L9.38595 10.9738C9.18762 10.8222 8.95429 10.7627 8.72095 10.7872C8.48879 10.8222 8.27879 10.9493 8.13762 11.136L4.68545 15.6288L4.61429 15.7338C4.41596 16.106 4.50929 16.5843 4.85929 16.8422C5.02262 16.9472 5.19762 17.0172 5.39595 17.0172C5.66545 17.0288 5.92095 16.8877 6.08429 16.6672L9.01262 12.8977L12.3376 15.3955L12.4426 15.4643C12.816 15.6627 13.2826 15.5705 13.551 15.2193ZM16.0237 2.41064C15.977 2.70231 15.9537 2.99398 15.9537 3.28564C15.9537 5.91064 18.077 8.03281 20.6904 8.03281C20.982 8.03281 21.262 7.99898 21.5537 7.95231V17.3661C21.5537 21.3223 19.2204 23.6673 15.2537 23.6673H6.6332C2.66536 23.6673 0.332031 21.3223 0.332031 17.3661V8.73398C0.332031 4.76731 2.66536 2.41064 6.6332 2.41064H16.0237Z" fill="#FA9D1C"/>
</svg>
