<?xml version="1.0" encoding="utf-8"?>
<!-- Generator: Adobe Illustrator 21.0.0, SVG Export Plug-In . SVG Version: 6.00 Build 0)  -->
<svg version="1.1" id="Layer_1" xmlns="http://www.w3.org/2000/svg" xmlns:xlink="http://www.w3.org/1999/xlink" x="0px" y="0px"
	 viewBox="0 0 217.3 112" style="enable-background:new 0 0 217.3 112;" xml:space="preserve">
<style type="text/css">
	.st0{fill:#F7F9FE;}
	.st1{fill:#A0A0A0;}
	.st2{fill-rule:evenodd;clip-rule:evenodd;fill:#38717C;}
	.st3{fill-rule:evenodd;clip-rule:evenodd;fill:#FFFFFF;stroke:#C6C6C6;stroke-width:0.75;stroke-miterlimit:10;}
	.st4{fill:#E88053;}
	.st5{fill:#FFFFFF;fill-opacity:0;}
	.st6{opacity:0.357;fill:#FFFFFF;fill-opacity:0.3;enable-background:new    ;}
	.st7{opacity:0.9;fill:#FFFFFF;enable-background:new    ;}
	.st8{fill:#FFFFFF;fill-opacity:0.3;}
	.st9{fill:#FFFFFF;}
	.st10{enable-background:new    ;}
	.st11{opacity:0.6341;}
	.st12{fill:#262626;}
	.st13{clip-path:url(#SVGID_4_);fill-rule:evenodd;clip-rule:evenodd;fill:#FFFFFF;}
	.st14{clip-path:url(#SVGID_6_);}
	.st15{clip-path:url(#SVGID_8_);fill:#FFFFFF;}
	.st16{fill:#6B6B6B;}
	.st17{fill:#F86E57;}
	.st18{clip-path:url(#SVGID_12_);fill-rule:evenodd;clip-rule:evenodd;fill:#FFFFFF;}
	.st19{clip-path:url(#SVGID_14_);}
	.st20{clip-path:url(#SVGID_16_);fill:#FFFFFF;}
	.st21{clip-path:url(#SVGID_20_);fill-rule:evenodd;clip-rule:evenodd;fill:#FFFFFF;}
	.st22{clip-path:url(#SVGID_22_);}
	.st23{clip-path:url(#SVGID_24_);fill:#FFFFFF;}
	.st24{clip-path:url(#SVGID_28_);fill-rule:evenodd;clip-rule:evenodd;fill:#FFFFFF;}
	.st25{clip-path:url(#SVGID_30_);}
	.st26{clip-path:url(#SVGID_32_);fill:#FFFFFF;}
	.st27{clip-path:url(#SVGID_36_);fill-rule:evenodd;clip-rule:evenodd;fill:#FFFFFF;}
	.st28{clip-path:url(#SVGID_38_);}
	.st29{clip-path:url(#SVGID_40_);fill:#FFFFFF;}
	.st30{clip-path:url(#SVGID_44_);fill-rule:evenodd;clip-rule:evenodd;fill:#FFFFFF;}
	.st31{clip-path:url(#SVGID_46_);}
	.st32{clip-path:url(#SVGID_48_);fill:#FFFFFF;}
	.st33{clip-path:url(#SVGID_52_);fill-rule:evenodd;clip-rule:evenodd;fill:#FFFFFF;}
	.st34{clip-path:url(#SVGID_54_);}
	.st35{clip-path:url(#SVGID_56_);fill:#FFFFFF;}
	.st36{fill-rule:evenodd;clip-rule:evenodd;fill:#444141;}
	.st37{fill-rule:evenodd;clip-rule:evenodd;fill:#E88053;}
	.st38{clip-path:url(#SVGID_60_);fill-rule:evenodd;clip-rule:evenodd;fill:#FFFFFF;}
	.st39{clip-path:url(#SVGID_62_);}
	.st40{clip-path:url(#SVGID_64_);fill:#FFFFFF;}
	.st41{fill-rule:evenodd;clip-rule:evenodd;fill:#F7F9FE;}
	.st42{fill:#EEB830;}
	.st43{fill:#38717C;}
	.st44{fill:#F29E6E;}
	.st45{fill:#F7F9FE;stroke:#E88053;stroke-width:4;stroke-miterlimit:10;}
	.st46{fill:none;stroke:#E88053;stroke-miterlimit:10;}
	.st47{fill:#97999C;}
	.st48{fill:#636467;}
	.st49{fill:#F19623;}
	.st50{fill:#FBC40C;}
	.st51{fill:#EA7025;}
	.st52{fill:#4D5252;}
	.st53{fill:#027382;}
	.st54{fill:#0C6BC2;}
	.st55{clip-path:url(#SVGID_68_);fill:#027382;}
	.st56{fill:none;stroke:#F1F2F2;stroke-width:1.04;stroke-linecap:round;stroke-miterlimit:10;}
	.st57{fill:#C3DAED;}
	.st58{fill:#7A94D3;}
	.st59{fill:#F7B58E;}
	.st60{fill:#634087;}
	.st61{fill:#F39F85;}
	.st62{fill:#2B3D82;}
	.st63{filter:url(#Adobe_OpacityMaskFilter);}
	.st64{mask:url(#mask-7_1_);fill:#2B3D82;}
	.st65{filter:url(#Adobe_OpacityMaskFilter_1_);}
	.st66{mask:url(#mask-9_1_);fill:url(#Fill-169_3_);}
	.st67{filter:url(#Adobe_OpacityMaskFilter_2_);}
	.st68{mask:url(#mask-12_2_);fill:#634087;}
	.st69{fill:#213268;}
	.st70{fill:#465DA5;}
	.st71{filter:url(#Adobe_OpacityMaskFilter_3_);}
	.st72{mask:url(#mask-14_2_);fill:#8B588E;}
	.st73{fill:#01888B;}
	.st74{filter:url(#Adobe_OpacityMaskFilter_4_);}
	.st75{mask:url(#mask-16_2_);fill:#01888B;}
	.st76{filter:url(#Adobe_OpacityMaskFilter_5_);}
	.st77{mask:url(#mask-18_2_);fill:#63C0C4;}
	.st78{fill:#FFBB99;}
	.st79{fill:#57C4C4;}
	.st80{filter:url(#Adobe_OpacityMaskFilter_6_);}
	.st81{mask:url(#mask-20_2_);fill:url(#Fill-267_3_);}
	.st82{clip-path:url(#SVGID_70_);fill:#027382;}
	.st83{filter:url(#Adobe_OpacityMaskFilter_7_);}
	.st84{mask:url(#mask-7_2_);fill:#2B3D82;}
	.st85{filter:url(#Adobe_OpacityMaskFilter_8_);}
	.st86{mask:url(#mask-9_2_);fill:url(#Fill-169_4_);}
	.st87{filter:url(#Adobe_OpacityMaskFilter_9_);}
	.st88{mask:url(#mask-12_1_);fill:#634087;}
	.st89{filter:url(#Adobe_OpacityMaskFilter_10_);}
	.st90{mask:url(#mask-14_1_);fill:#8B588E;}
	.st91{filter:url(#Adobe_OpacityMaskFilter_11_);}
	.st92{mask:url(#mask-16_1_);fill:#01888B;}
	.st93{filter:url(#Adobe_OpacityMaskFilter_12_);}
	.st94{mask:url(#mask-18_1_);fill:#63C0C4;}
	.st95{filter:url(#Adobe_OpacityMaskFilter_13_);}
	.st96{mask:url(#mask-20_1_);fill:url(#Fill-267_4_);}
	.st97{clip-path:url(#SVGID_72_);fill:#38717C;}
	.st98{opacity:0.1;}
	.st99{fill:#2D2D2D;}
	.st100{fill:#A7A9AC;}
	.st101{fill:#BCBEC0;}
	.st102{fill:#44448C;}
	.st103{fill:#77BC4A;}
	.st104{opacity:5.000000e-02;fill:#262223;}
	.st105{fill:#F7C39F;}
	.st106{fill:none;stroke:#D84439;stroke-width:0.9952;stroke-linecap:round;stroke-miterlimit:10;}
	.st107{fill:#FB7A68;}
	.st108{fill:#D84439;}
	.st109{fill:#4F4A97;}
	.st110{fill:#F4633B;}
	.st111{opacity:0.1;fill:#262223;}
	.st112{opacity:0.1;fill:#9E6A43;}
	.st113{fill:#434342;}
	.st114{fill:#D6D9DB;}
	.st115{fill:#FCCA97;}
	.st116{opacity:0.5;fill:#D89C73;}
	.st117{opacity:5.000000e-02;}
	.st118{fill:#EDE674;}
	.st119{fill:#38281A;}
	.st120{fill:#D89C73;}
	.st121{fill:#473522;}
	.st122{fill:#E6B289;}
	.st123{fill:#BD6A9E;}
	.st124{fill:#3C3C3B;}
	.st125{fill:#E18B09;}
	.st126{fill:#E6E7E8;}
	.st127{fill:#8FD2EF;}
	.st128{fill:#88CBE2;}
	.st129{fill:#5E443F;}
	.st130{fill:#FFB380;}
	.st131{fill:#F2A672;}
	.st132{fill:#A4DFFF;}
	.st133{fill:#1559AA;}
	.st134{opacity:0.1;fill:#BA6536;}
	.st135{fill:#D89832;}
	.st136{opacity:7.000000e-02;}
	.st137{fill:#2A2A2B;}
	.st138{fill:#323233;}
	.st139{fill:#DBDDD9;}
	.st140{fill:#E84D4D;}
	.st141{fill:#F4BE8E;}
	.st142{fill:#D1D3D4;}
	.st143{fill:#2A1B40;}
	.st144{opacity:0.5;fill:#EFB378;}
	.st145{fill:#7F583D;}
	.st146{fill:#005274;}
	.st147{fill:#F96767;}
	.st148{clip-path:url(#SVGID_74_);fill:#38717C;}
	.st149{fill-rule:evenodd;clip-rule:evenodd;fill:none;stroke:#C6C6C6;stroke-width:0.5;stroke-miterlimit:10;}
</style>
<g>
	<g>
		<g>
			<defs>
				<path id="SVGID_69_" d="M10.6,107.8C10.6,52.1,55.7,7,111.4,7s100.8,45.1,100.8,100.8H10.6z"/>
			</defs>
			<clipPath id="SVGID_2_">
				<use xlink:href="#SVGID_69_"  style="overflow:visible;"/>
			</clipPath>
			<rect x="0.2" y="-21.4" style="clip-path:url(#SVGID_2_);fill:#027382;" width="216.3" height="166.4"/>
		</g>
		<g>
			<g>
				<path class="st56" d="M80.6,35.3h-9.4c-0.1-1.1-1-2.1-2.1-2.1c-0.6,0-1.2,0.3-1.6,0.7C67,33,66,32.4,64.9,32.4
					c-0.1,0-0.3,0-0.4,0C64.1,29.9,62,28,59.4,28c-0.4,0-0.7,0-1.1,0.1c-0.8-1.4-2.3-2.4-4-2.4c-2,0-3.7,1.3-4.3,3.1
					c-0.4-0.2-0.9-0.3-1.4-0.3c-2.1,0-3.7,1.7-3.7,3.7c0,0.2,0,0.4,0.1,0.6c-0.1,0-0.2,0-0.3,0c-1.5,0-2.7,1-3.1,2.4H30.1"/>
				<line class="st56" x1="39.4" y1="37.5" x2="52.7" y2="37.5"/>
				<line class="st56" x1="48.9" y1="39.3" x2="50.8" y2="39.3"/>
				<line class="st56" x1="60.9" y1="39.3" x2="74.6" y2="39.3"/>
			</g>
			<g>
				<path class="st56" d="M166.1,31.4h-4.8c-0.4-0.3-0.9-0.5-1.4-0.5c0,0,0,0,0,0l-0.5,0l0.1-0.5c0-0.2,0.1-0.4,0.1-0.6
					c0-2.2-1.8-4.1-4.1-4.1c-1.6,0-3,0.9-3.7,2.3l-0.2,0.4l-0.4-0.2c-0.5-0.3-1-0.4-1.6-0.4c-1.6,0-3,1.2-3.2,2.8l-0.1,0.5l-0.5-0.2
					c-0.3-0.1-0.5-0.2-0.8-0.2c-0.6,0-1.1,0.2-1.5,0.6h-13.7"/>
				<line class="st56" x1="137.5" y1="32.5" x2="149.4" y2="32.5"/>
				<line class="st56" x1="155.6" y1="34" x2="160.8" y2="34"/>
				<line class="st56" x1="145.9" y1="35.1" x2="156.3" y2="35.1"/>
			</g>
			<g>
				<path class="st56" d="M191.2,44.9h-5.1c-0.3-0.6-0.9-1-1.6-1c0.3-0.4,0.4-0.9,0.4-1.4c0-1.4-1.2-2.6-2.6-2.6
					c-0.9,0-1.7,0.4-2.1,1.1c-0.1-0.1-0.2-0.1-0.2-0.1c-1.5-0.8-3.5-0.3-4.3,1.3c-0.3,0.6-0.4,1.2-0.4,1.8h0c-0.7,0-1.3,0.4-1.6,0.9
					h-14.2"/>
				<line class="st56" x1="168.4" y1="47.2" x2="176.7" y2="47.2"/>
				<line class="st56" x1="181.7" y1="47.2" x2="183.3" y2="47.2"/>
			</g>
			<g>
				<path class="st56" d="M39.7,107.7l-1.6-19.4l6.3-6.9c0.1,0,0.2,0,0.4,0c8,0,14.4-6.5,14.4-14.4c0-5.6-3.2-10.5-7.9-12.9
					c-1.8-8-9-14-17.6-14c-10,0-18,8.1-18,18c0,4.4,1.6,8.4,4.2,11.5c-0.3,0.7-0.4,1.5-0.4,2.3c0,3.8,3,6.8,6.8,6.8
					c0.4,0,0.7-0.1,1.1-0.1l7.4,8.4l-1.2,20.6H11.2 M34.7,82.2l-6.5-3.7c1.4-0.4,2.6-1.3,3.5-2.4c0.7,0.1,1.3,0.1,2,0.1
					c0.5,0.6,1,1.1,1.5,1.6L34.7,82.2z M38.2,84.4l-0.6-4.9c1.7,1,3.6,1.6,5.6,1.9L38.2,84.4z"/>
				<path class="st56" d="M56.4,107.7l-0.6-6.9l2.3-2.4c0,0,0.1,0,0.1,0c2.8,0,5.1-2.3,5.1-5.1c0-2-1.2-3.7-2.8-4.6
					c-0.7-2.9-3.2-5-6.3-5c-3.6,0-6.4,2.9-6.4,6.4c0,0.8,0.1,1.5,0.4,2.2c-1.1,0.6-1.8,1.8-1.8,3.1c0,2,1.6,3.6,3.6,3.6
					c1,0,1.8-0.4,2.5-1l2.1,2.4l-0.4,7.4H39.7 M54.6,98.6l-1.8-1c0.3-0.3,0.5-0.7,0.6-1.2c0.2,0,0.5,0,0.8,0.1
					c0.2,0.2,0.4,0.4,0.6,0.6L54.6,98.6z M55.9,99.4l-0.2-1.7c0.6,0.4,1.3,0.6,2,0.7L55.9,99.4z"/>
				<path class="st56" d="M63.6,107.7h-7.2 M207,107.7h-28.5l-1.2-14.1l3.6-3.9c1.1,0.6,2.3,1,3.7,1c4,0,7.2-3.2,7.2-7.2
					c0-3.3-2.2-6-5.1-6.9c0.6-1.4,0.9-3,0.9-4.6c0-6.4-5.2-11.6-11.6-11.6c-6.2,0-11.3,4.9-11.5,11.1c-3.9,0.8-6.8,4.2-6.8,8.4
					c0,4.7,3.8,8.6,8.6,8.6c1.4,0,2.8-0.4,4-1l4.6,5.2l-0.8,15h-24.3 M174.9,89.2l-3.8-2.1c1.3-0.9,2.4-2.1,3-3.6
					c0.5,0.1,0.9,0.1,1.4,0.2L174.9,89.2z M177.4,90.8l-0.9-7.2c0.3,0,0.6,0,0.9-0.1c0,2.3,1.1,4.3,2.7,5.6L177.4,90.8z"/>
			</g>
		</g>
	</g>
	<g id="Group-323_1_" transform="translate(30.000000, 190.000000)">
		<g id="Group-168_2_" transform="translate(52.571429, 20.303524)">
			<path id="Fill-35_2_" class="st57" d="M37-150.7l-0.3,0.2c-0.4-0.5-0.9-1.1-1.2-1.7l0.3-0.2C36.2-151.8,36.6-151.2,37-150.7"/>
			<path id="Fill-37_2_" class="st57" d="M31-167.8c0,0.7,0,1.4,0.1,2.1l-0.3,0c-0.1-0.7-0.1-1.4-0.1-2.1H31z"/>
			<path id="Fill-39_2_" class="st57" d="M31.7-161.7l-0.3,0.1c-0.2-0.7-0.3-1.4-0.4-2l0.3-0.1C31.4-163,31.5-162.4,31.7-161.7"/>
			<path id="Fill-41_2_" class="st57" d="M32.9-157.8l-0.3,0.1c-0.3-0.6-0.5-1.3-0.7-2l0.3-0.1C32.4-159.1,32.7-158.4,32.9-157.8"/>
			<path id="Fill-43_2_" class="st57" d="M34.7-154.1l-0.3,0.2c-0.3-0.6-0.7-1.2-1-1.8l0.3-0.2C34-155.3,34.4-154.7,34.7-154.1"/>
			<path id="Fill-53_2_" class="st57" d="M39.8-147.7l-0.2,0.3c-0.5-0.5-1-1-1.5-1.5l0.3-0.2C38.9-148.6,39.3-148.1,39.8-147.7"/>
			<path id="Fill-57_2_" class="st57" d="M43.1-145.1l-0.2,0.3c-0.6-0.4-1.1-0.8-1.7-1.2l0.2-0.3C41.9-145.9,42.5-145.5,43.1-145.1"
				/>
			<path id="Fill-83_2_" class="st58" d="M37.2-158.2l0.3,0c0,0.7-0.1,1.4-0.2,2.1l-0.3,0C37.1-156.8,37.1-157.5,37.2-158.2"/>
			<path id="Fill-85_2_" class="st58" d="M35.4-150.2l0.3,0.1c-0.2,0.6-0.5,1.3-0.8,1.9l-0.3-0.1C34.9-148.9,35.2-149.6,35.4-150.2"
				/>
			<path id="Fill-87_2_" class="st58" d="M36.1-152.1c0.2-0.7,0.4-1.3,0.5-2l0.3,0.1c-0.1,0.7-0.3,1.4-0.5,2L36.1-152.1z"/>
			<path id="Fill-101_2_" class="st58" d="M34-146.3c-0.3,0.6-0.7,1.2-1.1,1.8l-0.3-0.2c0.4-0.6,0.7-1.2,1.1-1.8L34-146.3z"/>
			<path id="Fill-111_2_" class="st58" d="M36.5-166.4l0.3-0.1c0.2,0.7,0.3,1.4,0.4,2l-0.3,0.1C36.8-165,36.6-165.7,36.5-166.4"/>
			<path id="Fill-113_2_" class="st58" d="M37.1-162.3l0.3,0c0.1,0.7,0.1,1.4,0.1,2.1l-0.3,0C37.2-161,37.2-161.6,37.1-162.3"/>
			<path id="Fill-137_2_" class="st59" d="M44.5-141.1l8,21.6l-1.7,0.7c0,0-6.3-9.7-12.6-20.8C32.4-150.1,44.5-141.1,44.5-141.1"/>
			<path id="Fill-139_2_" class="st60" d="M44.5-141.1c0,0-4.1-9.6-9.7-9.6s0.5,0.7-6.6,0c-4.8-0.5-9.1,7.9-9.1,7.9l5.4,2.9l0.6,13
				h13l0.7-12.6L44.5-141.1z"/>
			<path id="Fill-141_2_" class="st61" d="M34.8-154.5v3.9l0,0c-1.6,1.1-3.7,1.2-5.3,0.1l-0.3-0.2l0.9-4.5L34.8-154.5z"/>
			<path id="Fill-143_2_" class="st59" d="M37.4-162.6c0,0,0.3,8.7-4.7,8.7s-5-9.5-5-9.5l4.4-4.4L37.4-162.6z"/>
			<path id="Fill-145_2_" class="st62" d="M31.5-165.3c0,0,1.8,3,3.9,4.3c1,0.6,1.5,1.8,1.3,2.9c-0.3,1.4-2,2.7-1.8,4
				c0.4,2.2-0.7,4.5-2,6.3c-3.8,5.7-0.2,15,5.1,15c6,0,5.2-7,4.8-8.3c-0.5-1.4-0.1-2.9,1-3.9c0.8-0.7,1.5-1.6,1.5-2.6
				c0-1.2-1.1-3.3-2.1-4.9c-1-1.7-2.1-5.1-2.4-7.1c-1.1-9.9-8-9.9-8.3-9.9c-3.4,0.3-6.5,3.2-6.6,6.7c-0.1,4-1.3,12.3-2.4,13.8
				c3.6,1.6,8.2-1,6.9-6.6c-0.3-1.1-2.4-4.2-2.3-5.2C28.4-164.7,31.5-165.3,31.5-165.3"/>
			<path id="Fill-147_2_" class="st59" d="M30.9-163.1c0.6,0.4,1.3,0.8,2.1,1.1c0.6,0.9,1.4,1.8,2.3,2.5c-0.4,1.3-0.6,2.7-0.6,4.1
				c0,0.3,0,0.6,0.1,0.9c-0.6,0.4-1.2,0.6-2,0.6c-3.4,0-4.5-4.5-4.8-7.3C29-161.6,30-162.3,30.9-163.1"/>
			<path id="Fill-149_2_" class="st59" d="M29-159.4c0.3-0.4,0.3-1-0.2-1.5c-0.4-0.5-1.1-0.6-1.4-0.2c-0.3,0.4-0.3,1,0.2,1.5
				C28.1-159.1,28.7-159,29-159.4"/>
			<g id="Group-153_1_" transform="translate(102.222222, 157.714286)">
				<defs>
					<filter id="Adobe_OpacityMaskFilter" filterUnits="userSpaceOnUse" x="-81.7" y="-284.5" width="22.1" height="65.2">
						<feColorMatrix  type="matrix" values="1 0 0 0 0  0 1 0 0 0  0 0 1 0 0  0 0 0 1 0"/>
					</filter>
				</defs>
				<mask maskUnits="userSpaceOnUse" x="-81.7" y="-284.5" width="22.1" height="65.2" id="mask-7_2_">
					<g class="st63">
						<polygon id="path-6_2_" class="st9" points="-59.6,-284.5 -81.7,-284.5 -81.7,-260.8 -59.6,-260.8 						"/>
					</g>
				</mask>
				<path id="Fill-151_2_" class="st84" d="M-80.1-249c-4.8-24.9,3-35.5,3-35.5h5.9h1.2h5.9c0,0,7,10.2,3,35.5c0,0,2.4,11.6,1,29.7
					h-3.1l-3.7-26.7l-3.7-24.1l-3.7,24.1l-3.7,26.7h-3.1C-82.5-237.4-80.1-249-80.1-249"/>
			</g>
			<path id="Fill-154_2_" class="st59" d="M19.1-142.7c0,0-6.5,12.4-3.8,14.2c2.7,1.8,13.5-4.7,13.5-4.7l-0.6-1.8l-6,0.2l2.2-5
				L19.1-142.7z"/>
			<path id="Fill-156_2_" class="st61" d="M15.7-132.2c4.4-2.8,12.2-2.3,12.3-2.3l0-0.5c-0.3,0-8-0.5-12.5,2.3L15.7-132.2z"/>
			<path id="Fill-158_2_" class="st59" d="M51.4-117.7c0.2,0.1,0.8,0.6,1.4,1.9c0.5,1.2,0.9,4.1,2,3.1c0.3-1.5,0.8-3.1,0.8-3.1
				c0.1-0.9-0.7-2.1-1.4-2.8l-2.4-1.8c0,0-1.5,0.3-1.6,0.3l-0.2,0.3C50.6-119.3,51.1-118.4,51.4-117.7"/>
			<path id="Fill-160_2_" class="st59" d="M52.2-117.5c0,0,0.1,0,0.2,0.1c0-0.2,0-0.4,0.1-0.6c-0.2-0.7-0.4-1.3-0.6-2
				c-0.4,0.2-0.9,0.4-1,0.4l0.4,4.7c0,0,0.6,0.2,0.9-0.8C52.3-116.6,52.2-117.5,52.2-117.5"/>
			<path id="Fill-162_2_" class="st9" d="M30.5-135.7l0.6-7.9c0-0.3,0.3-0.6,0.6-0.6h3.7c0.4,0,0.7,0.3,0.6,0.7l-0.6,7.9
				c0,0.3-0.3,0.6-0.6,0.6h-3.7C30.8-135,30.5-135.3,30.5-135.7"/>
			<path id="Fill-164_2_" class="st59" d="M29.3-136c0.2,0,1-0.2,2.2-1.2c1.1-0.9,2.8-3.5,3.4-2c-0.4,1.5-0.7,3.3-0.7,3.3
				c-0.3,0.9-1.7,1.7-2.7,2l-3.1,0.6c0,0-1.3-1-1.3-1l0.2-0.6C28.1-135.1,28.8-135.5,29.3-136"/>
			<path id="Fill-166_2_" class="st59" d="M30.1-135.9c0,0,0.1,0,0.2,0c-0.1,0.2-0.1,0.4-0.2,0.6c-0.5,0.5-1,1.1-1.5,1.6
				c-0.3-0.4-0.7-0.9-0.7-0.9l2.5-4.3c0,0,0.7,0.1,0.4,1.1C30.7-136.6,30.1-135.9,30.1-135.9"/>
		</g>
		<g id="Group-171_1_" transform="translate(172.317460, 145.890825)">
			<defs>
				<filter id="Adobe_OpacityMaskFilter_1_" filterUnits="userSpaceOnUse" x="-86.7" y="-267.7" width="1.2" height="1.2">
					<feColorMatrix  type="matrix" values="1 0 0 0 0  0 1 0 0 0  0 0 1 0 0  0 0 0 1 0"/>
				</filter>
			</defs>
			<mask maskUnits="userSpaceOnUse" x="-86.7" y="-267.7" width="1.2" height="1.2" id="mask-9_2_">
				<g class="st65">
					<path id="path-8_2_" class="st9" d="M-85.5-267.1c0,0.3-0.3,0.6-0.6,0.6l0,0c-0.3,0-0.6-0.3-0.6-0.6l0,0c0-0.3,0.3-0.6,0.6-0.6
						l0,0C-85.8-267.7-85.5-267.4-85.5-267.1"/>
				</g>
			</mask>
			
				<linearGradient id="Fill-169_3_" gradientUnits="userSpaceOnUse" x1="82.1482" y1="3482.4629" x2="82.6213" y2="3482.4629" gradientTransform="matrix(-2.5088 0 0 -2.5096 120.598 8472.3438)">
				<stop  offset="0" style="stop-color:#DFEFE9"/>
				<stop  offset="1" style="stop-color:#BFE2ED"/>
			</linearGradient>
			<path id="Fill-169_1_" style="mask:url(#mask-9_2_);fill:url(#Fill-169_3_);" d="M-85.5-267.1c0,0.3-0.3,0.6-0.6,0.6l0,0
				c-0.3,0-0.6-0.3-0.6-0.6l0,0c0-0.3,0.3-0.6,0.6-0.6l0,0C-85.8-267.7-85.5-267.4-85.5-267.1"/>
		</g>
		<g id="Group-266_1_" transform="translate(5.841270, 40.747968)">
			<g id="Group-194_1_" transform="translate(235.841270, 138.730159)">
				<defs>
					<filter id="Adobe_OpacityMaskFilter_2_" filterUnits="userSpaceOnUse" x="-207.2" y="-285.3" width="23.1" height="68.3">
						<feColorMatrix  type="matrix" values="1 0 0 0 0  0 1 0 0 0  0 0 1 0 0  0 0 0 1 0"/>
					</filter>
				</defs>
				<mask maskUnits="userSpaceOnUse" x="-207.2" y="-285.3" width="23.1" height="68.3" id="mask-12_1_">
					<g class="st67">
						<polygon id="path-11_2_" class="st9" points="-184,-285.3 -207.2,-285.3 -207.2,-262.3 -184,-262.3 						"/>
					</g>
				</mask>
				<path id="Fill-192_1_" class="st88" d="M-206.5-285.3c0,0-3,12.6,3.6,29.5c1.2,3,1.4,6.3,0.7,9.5c-3.1,13.8-1.6,29.3-1.6,29.3
					l4.2,0l15.6-60.2L-206.5-285.3z"/>
			</g>
			<polygon id="Fill-195_1_" class="st61" points="48.2,-179 46.5,-174 42.3,-176.8 44.9,-182.7 			"/>
			<path id="Fill-197_1_" class="st59" d="M49.8-178.2c0.6,0.1,1.2,0.1,1.6-0.1c2.3-2.3,1.4-9.9,1.4-9.9l-2.7-1.7l-4.1,1.7l-1,4.8
				c-0.3,1.3,0.1,2.6,1.1,3.6C47.1-179,48.4-178.4,49.8-178.2"/>
			<path id="Fill-199_1_" class="st69" d="M46.8-186.7c0.3-0.8,1.2-1.2,2-0.9c0.6,0.2,1.3,0.4,2,0.5c1.6,0.3,3.8,0,4.2-2.5
				c0.4-2.5-2.8-2.2-2.8-2.2s-4.3-0.1-7.1,1.3c-1.3,0.7-2,3.8-1.5,5.3c0.3,0.9,0.7,1.7,1.3,2.4L46.8-186.7z"/>
			<path id="Fill-201_1_" class="st59" d="M44.4-185.5c0.4-0.3,1.1-0.1,1.5,0.4c0.4,0.5,0.4,1.1,0,1.3c-0.4,0.3-1.1,0.1-1.5-0.4
				C44-184.6,44-185.2,44.4-185.5"/>
			<path id="Fill-203_1_" class="st70" d="M45-177.3c12.9,4.9,7.5,35.1,7.5,35.1l-23.5,0.5C29.1-141.7,26.1-179.4,45-177.3"/>
			<path id="Fill-205_1_" class="st70" d="M33-164.3c0,0,5.5,19.2,10.5,19.3c5,0.1,17.7-18.7,17.7-18.7l-3.1-1.9
				c0,0-7.4,6.4-10.5,9.1c-1.9-5.7-4.5-13.6-4.5-13.6L33-164.3z"/>
			<path id="Fill-207_1_" class="st62" d="M58.5-165.3L47.6-156l-0.1-0.3c-1.4-4.2-3.2-9.7-4.1-12.2c0.1-0.1,0.2-0.2,0.3-0.3
				c-0.1,0.1-0.2,0.2-0.3,0.2c0,0,0,0,0,0c0.1-0.1,0.3-0.2,0.4-0.3c0.8,2.3,2.6,7.8,4,12.1l10.4-8.7L58.5-165.3z"/>
			<path id="Fill-209_1_" class="st62" d="M34.2-161.2c1.8,5.4,5.7,15.9,9.3,16c3.4,0.1,10.5-9.3,14.5-14.7c0.1,0.2,0.1,0.1,0.3,0.3
				c-3.9,5.4-10.7,14.4-14.5,14.8c-0.1,0-0.2,0-0.4,0c-3.9-0.1-7.9-10.8-9.7-16.3C34-161,34.1-161.1,34.2-161.2"/>
			<polygon id="Fill-211_1_" class="st58" points="47.6,-177.2 43.2,-178.9 41.7,-177.3 48,-175.5 			"/>
			<g id="Group-215_1_" transform="translate(234.380952, 146.031746)">
				<defs>
					<filter id="Adobe_OpacityMaskFilter_3_" filterUnits="userSpaceOnUse" x="-205.5" y="-289.3" width="23.7" height="64.8">
						<feColorMatrix  type="matrix" values="1 0 0 0 0  0 1 0 0 0  0 0 1 0 0  0 0 0 1 0"/>
					</filter>
				</defs>
				<mask maskUnits="userSpaceOnUse" x="-205.5" y="-289.3" width="23.7" height="64.8" id="mask-14_1_">
					<g class="st71">
						<polygon id="path-13_2_" class="st9" points="-181.8,-289.3 -205.5,-289.3 -205.5,-269.6 -181.8,-269.6 						"/>
					</g>
				</mask>
				<path id="Fill-213_1_" class="st90" d="M-205.5-289.3c0,0,0,12.9,10.3,27.9c1.8,2.7,2.8,5.8,2.9,9.1c0.1,14.2,5,27.9,5,27.9h4.2
					l1.3-63.8L-205.5-289.3z"/>
			</g>
			<polygon id="Fill-216_1_" class="st73" points="60.5,-166.1 66.1,-176.2 65.3,-176.6 59.7,-166.5 			"/>
			<path id="Fill-218_1_" class="st59" d="M60.9-163.8l1.7-1.4c1.3-1.5,2-3.4,2-5.3l-0.1-2.8c-0.6,0.3-0.9,1.3-1.2,1.9l-2.1,3.5
				l-2.7,2.6L60.9-163.8z"/>
			<path id="Fill-220_1_" class="st59" d="M61.4-166.7c-0.3-0.3-1.9,1.4-2,0.7c0,0,0.4-2.9,1-3.7c0.6-0.8,1-2.6,1-2.6s0.7,0,0.6,1.1
				c0,0.5-0.4,1.3-0.5,2.1C61.6-168.4,61.9-167.6,61.4-166.7"/>
			<polygon id="Fill-234_1_" class="st59" points="107,-167.9 101.5,-157.4 107.6,-157.7 108,-168.2 			"/>
			<polygon id="Fill-236_1_" class="st9" points="115.8,-172.6 110.6,-172.6 108.5,-139.2 117.8,-139.2 			"/>
			<g id="Group-240_1_" transform="translate(75.936508, 154.793651)">
				<defs>
					<filter id="Adobe_OpacityMaskFilter_4_" filterUnits="userSpaceOnUse" x="29.4" y="-294" width="14.5" height="63.6">
						<feColorMatrix  type="matrix" values="1 0 0 0 0  0 1 0 0 0  0 0 1 0 0  0 0 0 1 0"/>
					</filter>
				</defs>
				<mask maskUnits="userSpaceOnUse" x="29.4" y="-294" width="14.5" height="63.6" id="mask-16_1_">
					<g class="st74">
						<polygon id="path-15_2_" class="st9" points="43.9,-294 29.4,-294 29.4,-278.3 43.9,-278.3 						"/>
					</g>
				</mask>
				<path id="Fill-238_1_" class="st92" d="M43.8-294c0,0,0.9,5-4.1,29.5c4,12.8-2.4,34.1-2.4,34.1h-4.7L29.4-294H43.8z"/>
			</g>
			<path id="Fill-241_1_" class="st70" d="M111.2-172.6l-1.7,40.5l-5.5-2.4c0,0,2.5-7.6,2.3-18.1c0.8-7.6-3.5-3.6,1.8-18.3
				C110.1-172.6,111.2-172.6,111.2-172.6"/>
			<path id="Fill-243_1_" class="st61" d="M110.5-176.7l0.6,3.4c0.3,1.5,2,2.2,3.3,1.4l2.3-1.4l-4.1-9.2L110.5-176.7z"/>
			<g id="Group-247_1_" transform="translate(59.873016, 154.793651)">
				<defs>
					<filter id="Adobe_OpacityMaskFilter_5_" filterUnits="userSpaceOnUse" x="50" y="-294" width="17.6" height="63.6">
						<feColorMatrix  type="matrix" values="1 0 0 0 0  0 1 0 0 0  0 0 1 0 0  0 0 0 1 0"/>
					</filter>
				</defs>
				<mask maskUnits="userSpaceOnUse" x="50" y="-294" width="17.6" height="63.6" id="mask-18_1_">
					<g class="st76">
						<polygon id="path-17_2_" class="st9" points="67.6,-294 50,-294 50,-278.3 67.6,-278.3 						"/>
					</g>
				</mask>
				<path id="Fill-245_1_" class="st94" d="M64.4-294c0,0,6.2,5,1.2,29.5c4,12.8,0.5,34.1,0.5,34.1h-4.2L50-294H64.4z"/>
			</g>
			<path id="Fill-248_1_" class="st70" d="M115.8-176c0,0,5.2,2.9,6.8,5.5c1.5,2.5,2.1,8.2,2.2,13.2c0.2,6.9,3.6,25.1,3.6,25.1h-14
				l-0.3-39.6L115.8-176z"/>
			<path id="Fill-250_1_" class="st69" d="M105.5-187c3.2-0.8,6.2,2.4,6.2,2.4l2.4,12.8l3.7-5.6c0,0,0.2-7.7-3.3-12.7
				c-2.5-3.1-7.4-2.2-9.8,0.8c-1.2,1.5-1.4,3.5-1.3,5.3c0.2,2.5,0.9,16.7,0.9,16.7l7.2-5.4c0,0-0.2-1.4-0.9-4.1
				C109.3-181.3,103.4-186.4,105.5-187"/>
			<path id="Fill-252_1_" class="st59" d="M112.7-184.7c-0.5-0.2-1.1,0.1-1.3,0.7c-0.3,0.6-0.1,1.2,0.3,1.4c0.5,0.2,1.1-0.1,1.3-0.7
				C113.3-183.9,113.1-184.5,112.7-184.7"/>
			<path id="Fill-254_1_" class="st59" d="M109.3-176.1c-0.6,0.2-1.2,0.3-1.5,0.2c-2.7-2-3.7-9.9-3.7-9.9l2.2-2.3l4.3,1l2.1,4.7
				c0.6,1.3,0.5,2.7-0.2,3.9C111.7-177.5,110.6-176.6,109.3-176.1"/>
			<path id="Fill-256_1_" class="st69" d="M104.8-187.1c0.2,2.4,6.9,2.6,6.9,2.6l0.3-3.3l-3.9-2.1l-3.1,1.9
				C105.1-188.1,104.8-187.5,104.8-187.1"/>
			<path id="Fill-258_1_" class="st69" d="M105-186.7c0.2,0.9-0.7,2.5-0.7,2.5l-0.5-1l0-0.8l0.5-0.7
				C104.3-186.7,104.7-187.6,105-186.7"/>
			<path id="Fill-260_1_" class="st78" d="M121.2-170.4c6.8,0.8,3.6,18.2,2.1,25.4c-0.4,1.8-2.2,2.8-3.9,2.3
				c-5.9-1.9-14.5-9.6-14.5-9.6l1.4-1.7l11.4,2.7C117.8-151.4,113.4-171.4,121.2-170.4"/>
			<path id="Fill-262_1_" class="st79" d="M106.2-158.1l1.8,13.7c0.1,0.4-0.2,0.8-0.5,0.8h-7.1c-0.3,0-0.5-0.2-0.5-0.5l-1.8-13.7
				c-0.1-0.4,0.2-0.8,0.5-0.8h7.1C105.9-158.7,106.1-158.4,106.2-158.1"/>
			<path id="Fill-264_1_" class="st59" d="M98-152.1c-0.1-0.5,0-0.8,0.2-1.8c0.2-1.3,0.2-3.3,1.5-2.3c1.2,1.6,1.4,3.2,1.4,3.2
				c0.3,0.9-0.3,2.2-0.8,2.9l-0.9,2C99.3-148.1,97.7-149.9,98-152.1"/>
		</g>
		<g id="Group-269_1_" transform="translate(117.555556, 164.144794)">
			<defs>
				<filter id="Adobe_OpacityMaskFilter_6_" filterUnits="userSpaceOnUse" x="-6" y="-277.4" width="1.3" height="1.3">
					<feColorMatrix  type="matrix" values="1 0 0 0 0  0 1 0 0 0  0 0 1 0 0  0 0 0 1 0"/>
				</filter>
			</defs>
			<mask maskUnits="userSpaceOnUse" x="-6" y="-277.4" width="1.3" height="1.3" id="mask-20_1_">
				<g class="st80">
					<path id="path-19_1_" class="st9" d="M-4.7-276.8c0,0.4-0.3,0.7-0.7,0.7l0,0c-0.4,0-0.7-0.3-0.7-0.7l0,0c0-0.4,0.3-0.7,0.7-0.7
						l0,0C-5-277.4-4.7-277.1-4.7-276.8"/>
				</g>
			</mask>
			
				<linearGradient id="Fill-267_3_" gradientUnits="userSpaceOnUse" x1="235.7604" y1="3370.9854" x2="236.2334" y2="3370.9854" gradientTransform="matrix(-2.8191 0 0 -2.8191 659.9496 9226.5234)">
				<stop  offset="0" style="stop-color:#DFEFE9"/>
				<stop  offset="1" style="stop-color:#BFE2ED"/>
			</linearGradient>
			<path id="Fill-267_1_" style="mask:url(#mask-20_1_);fill:url(#Fill-267_3_);" d="M-4.7-276.8c0,0.4-0.3,0.7-0.7,0.7l0,0
				c-0.4,0-0.7-0.3-0.7-0.7l0,0c0-0.4,0.3-0.7,0.7-0.7l0,0C-5-277.4-4.7-277.1-4.7-276.8"/>
		</g>
	</g>
</g>
</svg>
