<svg id="02a18e7d-1d85-4c22-a1d2-c0739450979c" data-name="Layer 1" xmlns="http://www.w3.org/2000/svg" viewBox="0 0 222.8 222.8"><defs><style>.a9b2f82b-2484-4145-bd2a-29b0df3e83c0{fill:#FA9D1C;}.dcc83033-d27b-4763-9e06-66c10166ced4{fill:#fff;}</style></defs><title>new flow icon</title><rect class="a9b2f82b-2484-4145-bd2a-29b0df3e83c0" width="222.8" height="222.79" rx="41.2" ry="41.2"/><path class="dcc83033-d27b-4763-9e06-66c10166ced4" d="M67.2,113.2H98.7a2.9,2.9,0,0,0,3-3,3,3,0,0,0-3-3.1H67.2a3.1,3.1,0,0,0-3.1,3.1A3,3,0,0,0,67.2,113.2Z"/><path class="dcc83033-d27b-4763-9e06-66c10166ced4" d="M125.2,150.6h27.6a3.1,3.1,0,0,0,0-6.2H125.2a3.1,3.1,0,0,0,0,6.2Z"/><path class="dcc83033-d27b-4763-9e06-66c10166ced4" d="M193.8,110.9a3,3,0,0,0-5.9,0,22.4,22.4,0,1,1-22.4-22.4,22.6,22.6,0,0,1,20.7,13.7,2.9,2.9,0,0,0,1.5,1.6,3,3,0,0,0,2.3,0,3.1,3.1,0,0,0,1.6-1.6,3,3,0,0,0,0-2.3A28.4,28.4,0,0,0,178.8,86V71.9a2.9,2.9,0,0,0-3-3H58.8a2.9,2.9,0,0,0-3,3v6H52.1a3,3,0,0,0-3.1,3v55.3a8.1,8.1,0,0,0,0,16v9.7a3.1,3.1,0,0,0,3.1,3.1H166.8a3.1,3.1,0,0,0,3.1-3.1v-3.7h5.9a3,3,0,0,0,3-3.1V135.8A28.3,28.3,0,0,0,193.8,110.9ZM78.7,144.2a8.1,8.1,0,0,0-8.1-8.1H60.5a3,3,0,0,0-3.1,3,3.1,3.1,0,0,0,3.1,3.1H70.6a2,2,0,0,1,0,4H55.2V84H157a28,28,0,0,0-16.6,14.1H67.2a3.1,3.1,0,0,0-3.1,3.1,3,3,0,0,0,3.1,3h70.9a30,30,0,0,0-.8,6.7,27.3,27.3,0,0,0,.7,6.4H67.2a3.1,3.1,0,1,0,0,6.1h73l1.3,2.4H67.2a3,3,0,0,0-3.1,3,3.1,3.1,0,0,0,3.1,3.1h79.5a28.2,28.2,0,0,0,17,7.2v19.7H55.2v-6.5H70.6A8.1,8.1,0,0,0,78.7,144.2Zm94-60.6-2.8-.6V80.9a3,3,0,0,0-3.1-3H61.9V75H172.7Zm-2.8,55.2a14,14,0,0,0,2.8-.6v13.9h-2.8ZM49,142.8v2.8a1.8,1.8,0,0,1-.6-1.4A1.7,1.7,0,0,1,49,142.8Z"/><path class="dcc83033-d27b-4763-9e06-66c10166ced4" d="M158.6,100.8c4.4,0,6.5,2.5,6.5,5.6a5.1,5.1,0,0,1-3.8,5.1l3.9,6.7h-5.4l-3.4-6.4h-.5v6.4H151V100.8Zm-.3,4.1h-2.4v3.6h2.4c1.3,0,1.9-.6,1.9-1.8A1.7,1.7,0,0,0,158.3,104.9Z"/><path class="dcc83033-d27b-4763-9e06-66c10166ced4" d="M176.2,104.2c3.3,0,5.9,2.7,5.9,7.1s-2.6,7.1-5.9,7.1a4.5,4.5,0,0,1-4-2.1v8.6h-4.9V104.4h4.9v1.9A4.5,4.5,0,0,1,176.2,104.2Zm-1.5,4.2a2.6,2.6,0,0,0-2.5,2.9c0,1.9,1.1,2.9,2.5,2.9s2.5-1,2.5-2.9S176.1,108.4,174.7,108.4Z"/><path class="dcc83033-d27b-4763-9e06-66c10166ced4" d="M158.6,100.8c4.4,0,6.5,2.5,6.5,5.6a5.1,5.1,0,0,1-3.8,5.1l3.9,6.7h-5.4l-3.4-6.4h-.5v6.4H151V100.8Zm-.3,4.1h-2.4v3.6h2.4c1.3,0,1.9-.6,1.9-1.8A1.7,1.7,0,0,0,158.3,104.9Z"/><path class="dcc83033-d27b-4763-9e06-66c10166ced4" d="M176.2,104.2c3.3,0,5.9,2.7,5.9,7.1s-2.6,7.1-5.9,7.1a4.5,4.5,0,0,1-4-2.1v8.6h-4.9V104.4h4.9v1.9A4.5,4.5,0,0,1,176.2,104.2Zm-1.5,4.2a2.6,2.6,0,0,0-2.5,2.9c0,1.9,1.1,2.9,2.5,2.9s2.5-1,2.5-2.9S176.1,108.4,174.7,108.4Z"/><path class="dcc83033-d27b-4763-9e06-66c10166ced4" d="M158.6,100.8c4.4,0,6.5,2.5,6.5,5.6a5.1,5.1,0,0,1-3.8,5.1l3.9,6.7h-5.4l-3.4-6.4h-.5v6.4H151V100.8Zm-.3,4.1h-2.4v3.6h2.4c1.3,0,1.9-.6,1.9-1.8A1.7,1.7,0,0,0,158.3,104.9Z"/><path class="dcc83033-d27b-4763-9e06-66c10166ced4" d="M176.2,104.2c3.3,0,5.9,2.7,5.9,7.1s-2.6,7.1-5.9,7.1a4.5,4.5,0,0,1-4-2.1v8.6h-4.9V104.4h4.9v1.9A4.5,4.5,0,0,1,176.2,104.2Zm-1.5,4.2a2.6,2.6,0,0,0-2.5,2.9c0,1.9,1.1,2.9,2.5,2.9s2.5-1,2.5-2.9S176.1,108.4,174.7,108.4Z"/><path class="dcc83033-d27b-4763-9e06-66c10166ced4" d="M158.6,100.8c4.4,0,6.5,2.5,6.5,5.6a5.1,5.1,0,0,1-3.8,5.1l3.9,6.7h-5.4l-3.4-6.4h-.5v6.4H151V100.8Zm-.3,4.1h-2.4v3.6h2.4c1.3,0,1.9-.6,1.9-1.8A1.7,1.7,0,0,0,158.3,104.9Z"/><path class="dcc83033-d27b-4763-9e06-66c10166ced4" d="M176.2,104.2c3.3,0,5.9,2.7,5.9,7.1s-2.6,7.1-5.9,7.1a4.5,4.5,0,0,1-4-2.1v8.6h-4.9V104.4h4.9v1.9A4.5,4.5,0,0,1,176.2,104.2Zm-1.5,4.2a2.6,2.6,0,0,0-2.5,2.9c0,1.9,1.1,2.9,2.5,2.9s2.5-1,2.5-2.9S176.1,108.4,174.7,108.4Z"/></svg>