<svg width="14" height="13" viewBox="0 0 14 13" fill="none" xmlns="http://www.w3.org/2000/svg">
<path d="M12.5157 7.3073L12.5361 7.32833L11.9731 11.5832L11.9714 11.5958L11.9712 11.598C11.9711 11.5986 11.971 11.5993 11.9709 11.6001C11.9692 11.609 11.9651 11.6282 11.9565 11.6551C11.9394 11.7088 11.9047 11.792 11.8365 11.8858C11.7106 12.0588 11.4368 12.3139 10.8271 12.4565H5.13276H5.06142C4.64317 12.3652 4.32422 11.9615 4.32422 11.4445V6.33621C4.32422 6.24418 4.37437 6.12282 4.45472 6.03677C4.61394 5.88606 4.78659 5.72933 4.96419 5.56811C5.30072 5.2626 5.65499 4.94099 5.96923 4.61377C6.46693 4.09552 6.9297 3.50195 7.22077 2.76744C7.39438 2.36315 7.52183 1.92183 7.60624 1.48687C7.61108 1.46197 7.61627 1.43622 7.62164 1.40962C7.6549 1.24487 7.69471 1.04765 7.69471 0.819507C7.69471 0.671204 7.72482 0.586659 7.75759 0.54162C7.77705 0.514881 7.78895 0.508784 7.79046 0.508008L7.79052 0.507979L7.79061 0.507933C7.79191 0.507244 7.80145 0.502218 7.82915 0.502218H7.85058L7.87194 0.500384C7.92626 0.495719 8.07754 0.531535 8.26259 0.681664C8.43656 0.82281 8.54106 0.986028 8.57021 1.09207C8.67429 1.63815 8.6734 2.22203 8.56755 2.76747L8.56417 2.7849L8.56203 2.80252C8.52859 3.07822 8.46285 3.3177 8.3623 3.56131C8.32524 3.64345 8.27885 3.78092 8.24065 3.89903C8.19484 4.04066 8.14402 4.20806 8.10257 4.3571C7.98874 4.73789 8.22453 5.23499 8.72969 5.24241L11.9329 5.36031C11.9655 5.37546 11.9979 5.39067 12.0372 5.41148C12.1324 5.46202 12.2481 5.53624 12.3521 5.64684C12.5354 5.84187 12.7604 6.22973 12.5757 7.04276L12.5157 7.3073Z" stroke="#2D2D2D"/>
<path d="M2.40705 12.3749L0.541677 6.01926H2.65033V12.3749H2.40705Z" stroke="#2D2D2D"/>
</svg>
