<svg width="40" height="40" viewBox="0 0 40 40" fill="none" xmlns="http://www.w3.org/2000/svg">
<path opacity="0.1" d="M36.6666 19.9997C36.6666 29.2063 29.2049 36.6663 19.9999 36.6663C10.7949 36.6663 3.33325 29.2063 3.33325 19.9997C3.33325 10.7963 10.7949 3.33301 19.9999 3.33301C29.2049 3.33301 36.6666 10.7963 36.6666 19.9997Z" fill="#FF1D1E"/>
<path fill-rule="evenodd" clip-rule="evenodd" d="M21.4501 21.0512C21.4501 21.8545 20.7951 22.5095 19.9918 22.5095C19.1884 22.5095 18.5334 21.8545 18.5334 21.0512V13.6845C18.5334 12.8812 19.1884 12.2262 19.9918 12.2262C20.7951 12.2262 21.4501 12.8812 21.4501 13.6845V21.0512ZM18.5418 26.3392C18.5418 25.5359 19.1934 24.8809 19.9918 24.8809C20.8134 24.8809 21.4668 25.5359 21.4668 26.3392C21.4668 27.1425 20.8134 27.7975 20.0084 27.7975C19.2001 27.7975 18.5418 27.1425 18.5418 26.3392Z" fill="#FF1D1E"/>
</svg>
