<svg width="52" height="47" viewBox="0 0 52 47" fill="none" xmlns="http://www.w3.org/2000/svg">
<path opacity="0.1" d="M37.4937 0H8.50628C3.80839 0 0 3.80856 0 8.50667V37.4933C0 42.1914 3.80839 46 8.50628 46H37.4937C42.1916 46 46 42.1914 46 37.4933V8.50667C46 3.80856 42.1916 0 37.4937 0Z" fill="#FA9D1C"/>
<path d="M22.55 29.2705C21.2658 29.2629 20.0201 28.8311 19.0068 28.0421C18.8829 27.9374 18.7994 27.7928 18.7707 27.6331C18.7418 27.4735 18.7695 27.3088 18.8489 27.1674C18.9128 27.0321 19.0341 26.9329 19.1795 26.8973C19.3247 26.8618 19.4782 26.8937 19.5973 26.9842C20.4388 27.647 21.4788 28.0075 22.55 28.0075C23.6211 28.0075 24.6611 27.647 25.5026 26.9842C25.6217 26.8937 25.7752 26.8618 25.9204 26.8973C26.0658 26.9329 26.1872 27.0321 26.251 27.1674C26.3304 27.3088 26.3582 27.4735 26.3293 27.6331C26.3005 27.7928 26.217 27.9374 26.0931 28.0421C25.0798 28.8311 23.8341 29.2629 22.5499 29.2705H22.55Z" fill="#FA9D1C"/>
<path d="M18.4469 22.6387C18.2794 22.6387 18.1187 22.5722 18.0003 22.4538C17.8819 22.3353 17.8153 22.1746 17.8153 22.0071V20.4282C17.8153 20.2025 17.9357 19.994 18.1311 19.8812C18.3265 19.7684 18.5673 19.7684 18.7627 19.8812C18.9581 19.994 19.0785 20.2025 19.0785 20.4282V22.0071C19.0785 22.1746 19.0119 22.3353 18.8935 22.4538C18.7751 22.5722 18.6144 22.6387 18.4469 22.6387Z" fill="#FA9D1C"/>
<path d="M26.6583 22.6387C26.4908 22.6387 26.3301 22.5722 26.2117 22.4538C26.0933 22.3353 26.0267 22.1746 26.0267 22.0071V20.4282C26.0267 20.2025 26.1471 19.994 26.3425 19.8812C26.5379 19.7684 26.7787 19.7684 26.9741 19.8812C27.1695 19.994 27.2899 20.2025 27.2899 20.4282V22.0071C27.2899 22.1746 27.2233 22.3353 27.1049 22.4538C26.9865 22.5722 26.8258 22.6387 26.6583 22.6387Z" fill="#FA9D1C"/>
<path d="M21.6059 25.7966C21.3802 25.7966 21.1717 25.6762 21.059 25.4808C20.9462 25.2854 20.9462 25.0446 21.059 24.8493C21.1717 24.6539 21.3802 24.5335 21.6059 24.5335C21.7734 24.5335 21.9341 24.4669 22.0525 24.3485C22.171 24.2301 22.2375 24.0694 22.2375 23.9019V20.4282C22.2375 20.2025 22.3579 19.994 22.5533 19.8812C22.7487 19.7684 22.9895 19.7684 23.1849 19.8812C23.3803 19.994 23.5007 20.2025 23.5007 20.4282V23.9019C23.5007 24.4045 23.301 24.8863 22.9458 25.2417C22.5904 25.597 22.1085 25.7966 21.6059 25.7966Z" fill="#FA9D1C"/>
<path d="M19.3938 33.3747C14.6569 33.3747 12.4464 31.1642 12.4464 26.4273C12.4464 26.2016 12.5668 25.9931 12.7622 25.8804C12.9576 25.7676 13.1984 25.7676 13.3938 25.8804C13.5892 25.9931 13.7096 26.2016 13.7096 26.4273C13.7096 30.5326 15.2885 32.1116 19.3938 32.1116C19.6195 32.1116 19.828 32.2319 19.9408 32.4273C20.0535 32.6227 20.0535 32.8635 19.9408 33.0589C19.828 33.2543 19.6195 33.3747 19.3938 33.3747Z" fill="#FA9D1C"/>
<path d="M32.0249 20.7436C31.8574 20.7436 31.6967 20.677 31.5782 20.5586C31.4598 20.4402 31.3933 20.2795 31.3933 20.112C31.3933 16.0067 29.8143 14.4278 25.7091 14.4278C25.4834 14.4278 25.2749 14.3074 25.1621 14.112C25.0493 13.9166 25.0493 13.6758 25.1621 13.4804C25.2749 13.285 25.4834 13.1646 25.7091 13.1646C30.4459 13.1646 32.6564 15.3751 32.6564 20.112C32.6564 20.2795 32.5899 20.4402 32.4715 20.5586C32.3531 20.677 32.1923 20.7436 32.0249 20.7436Z" fill="#FA9D1C"/>
<path d="M13.078 20.7436C12.9105 20.7436 12.7498 20.677 12.6314 20.5586C12.513 20.4402 12.4464 20.2795 12.4464 20.112C12.4464 15.3751 14.6569 13.1646 19.3938 13.1646C19.6195 13.1646 19.828 13.285 19.9408 13.4804C20.0535 13.6758 20.0535 13.9166 19.9408 14.112C19.828 14.3074 19.6195 14.4278 19.3938 14.4278C15.2885 14.4278 13.7096 16.0067 13.7096 20.112C13.7096 20.2795 13.643 20.4402 13.5246 20.5586C13.4062 20.677 13.2455 20.7436 13.078 20.7436Z" fill="#FA9D1C"/>
<path d="M25.7091 33.3747C25.4834 33.3747 25.2749 33.2543 25.1621 33.0589C25.0493 32.8635 25.0493 32.6227 25.1621 32.4273C25.2749 32.232 25.4834 32.1116 25.7091 32.1116C29.8143 32.1116 31.3933 30.5326 31.3933 26.4273C31.3933 26.2016 31.5137 25.9931 31.7091 25.8804C31.9045 25.7676 32.1453 25.7676 32.3407 25.8804C32.536 25.9931 32.6564 26.2016 32.6564 26.4273C32.6564 31.1642 30.4459 33.3747 25.7091 33.3747Z" fill="#FA9D1C"/>
<path fill-rule="evenodd" clip-rule="evenodd" d="M44 30.9258C39.5818 30.9258 36 34.471 36 38.8439C36 43.2169 39.5818 46.7621 44 46.7621C48.4182 46.7621 52 43.2169 52 38.8439C52 34.471 48.4182 30.9258 44 30.9258ZM47.4676 37.5051C47.5315 37.4328 47.5801 37.3487 47.6106 37.2575C47.6411 37.1664 47.6529 37.0702 47.6453 36.9745C47.6377 36.8788 47.6108 36.7856 47.5662 36.7004C47.5217 36.6151 47.4604 36.5395 47.3859 36.4781C47.3114 36.4166 47.2252 36.3706 47.1324 36.3426C47.0397 36.3146 46.9422 36.3052 46.8457 36.315C46.7493 36.3249 46.6558 36.3537 46.5707 36.3998C46.4857 36.446 46.4108 36.5085 46.3505 36.5837L43.2233 40.2973L41.6051 38.6949C41.4679 38.5638 41.2842 38.4913 41.0935 38.4929C40.9028 38.4945 40.7204 38.5702 40.5856 38.7037C40.4507 38.8372 40.3743 39.0177 40.3726 39.2064C40.3709 39.3952 40.4442 39.577 40.5767 39.7128L42.7585 41.8723C42.83 41.943 42.9156 41.9981 43.0098 42.0343C43.104 42.0704 43.2047 42.0868 43.3057 42.0822C43.4066 42.0777 43.5054 42.0524 43.5959 42.0079C43.6864 41.9635 43.7666 41.9009 43.8313 41.824L47.4676 37.5051Z" fill="#50B74A"/>
</svg>
