<svg width="64" height="64" viewBox="0 0 64 64" fill="none" xmlns="http://www.w3.org/2000/svg">
<g opacity="0.1" filter="url(#filter0_d_854_7097)">
<rect x="8" y="4" width="48" height="48" rx="24" fill="url(#paint0_linear_854_7097)" shape-rendering="crispEdges"/>
</g>
<path d="M40.25 28.4764C39.429 28.4764 38.761 27.8145 38.761 27.001C38.761 26.1865 39.429 25.5246 40.25 25.5246C40.449 25.5246 40.64 25.4463 40.78 25.3076C40.921 25.1679 41 24.9786 41 24.7815L40.999 22.1042C40.999 19.841 39.14 18 36.856 18H25.144C22.86 18 21.001 19.841 21.001 22.1042L21 24.8677C21 25.0648 21.079 25.2541 21.22 25.3938C21.36 25.5325 21.551 25.6108 21.75 25.6108C22.599 25.6108 23.239 26.2083 23.239 27.001C23.239 27.8145 22.571 28.4764 21.75 28.4764C21.336 28.4764 21 28.8093 21 29.2195V31.8949C21 34.158 22.858 36 25.143 36H36.857C39.142 36 41 34.158 41 31.8949V29.2195C41 28.8093 40.664 28.4764 40.25 28.4764" fill="#506698"/>
<path d="M34.4308 26.5886L33.2518 27.7366L33.5308 29.3596C33.5788 29.6406 33.4658 29.9176 33.2348 30.0836C33.0058 30.2516 32.7068 30.2726 32.4548 30.1386L30.9998 29.3736L29.5418 30.1396C29.4338 30.1966 29.3158 30.2266 29.1988 30.2266C29.0458 30.2266 28.8948 30.1786 28.7648 30.0846C28.5348 29.9176 28.4218 29.6406 28.4698 29.3596L28.7478 27.7366L27.5688 26.5886C27.3648 26.3906 27.2938 26.0996 27.3818 25.8286C27.4708 25.5586 27.7008 25.3666 27.9818 25.3266L29.6078 25.0896L30.3368 23.6126C30.4638 23.3586 30.7178 23.2006 30.9998 23.2006H31.0018C31.2848 23.2016 31.5388 23.3596 31.6638 23.6136L32.3928 25.0896L34.0218 25.3276C34.2998 25.3666 34.5298 25.5586 34.6178 25.8286C34.7068 26.0996 34.6358 26.3906 34.4308 26.5886" fill="#FAFAFA"/>
<circle cx="40.5" cy="37.5" r="7.5" fill="#FAFAFA"/>
<path fill-rule="evenodd" clip-rule="evenodd" d="M34.167 37.0033C34.167 33.7836 36.7852 31.1666 40.0003 31.1666C43.2154 31.1666 45.8337 33.7836 45.8337 37.0033C45.8337 40.2163 43.2154 42.8333 40.0003 42.8333C36.7852 42.8333 34.167 40.2163 34.167 37.0033ZM42.14 37.5937C42.2019 37.5318 42.2807 37.4361 42.2976 37.4136C42.3877 37.2954 42.4328 37.1491 42.4328 37.0033C42.4328 36.8396 42.3821 36.6876 42.2864 36.5638C42.2785 36.556 42.2632 36.5392 42.2431 36.5174C42.2057 36.4767 42.1519 36.4182 42.1006 36.3668C41.6388 35.8716 40.4339 35.0611 39.8033 34.8135C39.7075 34.7747 39.4654 34.6897 39.3359 34.6841C39.212 34.6841 39.0938 34.7122 38.9812 34.7685C38.8404 34.8473 38.7278 34.9711 38.6659 35.1174C38.6265 35.2187 38.5645 35.5226 38.5645 35.5283C38.5026 35.8603 38.4688 36.4006 38.4688 36.9971C38.4688 37.5661 38.5026 38.0833 38.5533 38.421C38.5546 38.4224 38.5595 38.4466 38.567 38.4841C38.5899 38.5981 38.6375 38.8357 38.6884 38.9331C38.8123 39.1695 39.0544 39.3158 39.3134 39.3158H39.3359C39.5048 39.3102 39.8596 39.1639 39.8596 39.1583C40.4564 38.9106 41.6332 38.1396 42.1062 37.6275L42.14 37.5937Z" fill="#506698"/>
<defs>
<filter id="filter0_d_854_7097" x="0" y="0" width="64" height="64" filterUnits="userSpaceOnUse" color-interpolation-filters="sRGB">
<feFlood flood-opacity="0" result="BackgroundImageFix"/>
<feColorMatrix in="SourceAlpha" type="matrix" values="0 0 0 0 0 0 0 0 0 0 0 0 0 0 0 0 0 0 127 0" result="hardAlpha"/>
<feOffset dy="4"/>
<feGaussianBlur stdDeviation="4"/>
<feComposite in2="hardAlpha" operator="out"/>
<feColorMatrix type="matrix" values="0 0 0 0 0 0 0 0 0 0 0 0 0 0 0 0 0 0 0.25 0"/>
<feBlend mode="normal" in2="BackgroundImageFix" result="effect1_dropShadow_854_7097"/>
<feBlend mode="normal" in="SourceGraphic" in2="effect1_dropShadow_854_7097" result="shape"/>
</filter>
<linearGradient id="paint0_linear_854_7097" x1="32" y1="4" x2="32" y2="52" gradientUnits="userSpaceOnUse">
<stop stop-color="#757575"/>
<stop offset="1" stop-color="#B4B4B4" stop-opacity="0"/>
</linearGradient>
</defs>
</svg>
