<svg width="24" height="24" viewBox="0 0 24 24" fill="none" xmlns="http://www.w3.org/2000/svg">
<path fill-rule="evenodd" clip-rule="evenodd" d="M6.11304 4.5H11.9051C14.3271 4.5 16.0181 6.16904 16.0181 8.56091V15.4391C16.0181 17.831 14.3271 19.5 11.9051 19.5H6.11304C3.69102 19.5 2 17.831 2 15.4391V8.56091C2 6.16904 3.69102 4.5 6.11304 4.5ZM19.9579 6.87879C20.3969 6.65544 20.9119 6.67879 21.3309 6.94275C21.7499 7.20569 21.9999 7.66255 21.9999 8.16204V15.8382C21.9999 16.3387 21.7499 16.7945 21.3309 17.0575C21.1019 17.2006 20.8459 17.2737 20.5879 17.2737C20.3729 17.2737 20.1579 17.223 19.9569 17.1204L18.4759 16.3732C17.9279 16.095 17.5879 15.5367 17.5879 14.9164V9.08285C17.5879 8.46153 17.9279 7.90316 18.4759 7.62701L19.9579 6.87879Z" fill="#FA9D1C"/>
</svg>
