<svg width="62" height="62" viewBox="0 0 62 62" fill="none" xmlns="http://www.w3.org/2000/svg">
<g filter="url(#filter0_d_340_6540)">
<circle cx="31" cy="23" r="16" fill="white"/>
</g>
<path fill-rule="evenodd" clip-rule="evenodd" d="M36.0303 20.5972C36.0303 21.5392 36.2793 22.0944 36.8271 22.7342C37.2423 23.2055 37.375 23.8106 37.375 24.467C37.375 25.1227 37.1596 25.7451 36.728 26.2504C36.163 26.8563 35.3662 27.243 34.5529 27.3102C33.3745 27.4107 32.1952 27.4953 31.0004 27.4953C29.8048 27.4953 28.6263 27.4447 27.4478 27.3102C26.6338 27.243 25.837 26.8563 25.2727 26.2504C24.8412 25.7451 24.625 25.1227 24.625 24.467C24.625 23.8106 24.7584 23.2055 25.1729 22.7342C25.7379 22.0944 25.9704 21.5392 25.9704 20.5972V20.2777C25.9704 19.0163 26.285 18.1914 26.9327 17.3839C27.8958 16.2063 29.4395 15.5 30.9668 15.5H31.0339C32.594 15.5 34.1877 16.2403 35.1343 17.4685C35.7485 18.2594 36.0303 19.0495 36.0303 20.2777V20.5972ZM28.8053 29.0456C28.8053 28.6679 29.1519 28.495 29.4724 28.4209C29.8473 28.3416 32.132 28.3416 32.5069 28.4209C32.8274 28.495 33.174 28.6679 33.174 29.0456C33.1554 29.4052 32.9444 29.7239 32.653 29.9264C32.2751 30.221 31.8316 30.4076 31.3679 30.4748C31.1115 30.508 30.8596 30.5088 30.6121 30.4748C30.1477 30.4076 29.7042 30.221 29.327 29.9256C29.0348 29.7239 28.8239 29.4052 28.8053 29.0456Z" fill="#FA9D1C"/>
<defs>
<filter id="filter0_d_340_6540" x="0" y="0" width="62" height="62" filterUnits="userSpaceOnUse" color-interpolation-filters="sRGB">
<feFlood flood-opacity="0" result="BackgroundImageFix"/>
<feColorMatrix in="SourceAlpha" type="matrix" values="0 0 0 0 0 0 0 0 0 0 0 0 0 0 0 0 0 0 127 0" result="hardAlpha"/>
<feOffset dy="8"/>
<feGaussianBlur stdDeviation="7.5"/>
<feComposite in2="hardAlpha" operator="out"/>
<feColorMatrix type="matrix" values="0 0 0 0 0 0 0 0 0 0 0 0 0 0 0 0 0 0 0.05 0"/>
<feBlend mode="normal" in2="BackgroundImageFix" result="effect1_dropShadow_340_6540"/>
<feBlend mode="normal" in="SourceGraphic" in2="effect1_dropShadow_340_6540" result="shape"/>
</filter>
</defs>
</svg>
