<svg width="16" height="16" viewBox="0 0 16 16" fill="none" xmlns="http://www.w3.org/2000/svg">
<path d="M14.2714 8.00001C14.2714 11.4636 11.4637 14.2717 8.00004 14.2717C4.53643 14.2717 1.72833 11.4636 1.72833 8.00001C1.72833 4.5364 4.53643 1.72864 8.00004 1.72864C11.4637 1.72864 14.2714 4.5364 14.2714 8.00001Z" fill="#FBAE17"/>
<path d="M8 0.665217C9.81222 0.667724 11.5589 1.34323 12.9013 2.56069C14.2436 3.77816 15.086 5.4508 15.2649 7.25416C15.4438 9.05753 14.9465 10.8631 13.8695 12.3206C12.7925 13.778 11.2126 14.7836 9.43623 15.1421C7.65983 15.5006 5.81358 15.1866 4.25561 14.2609C2.69764 13.3352 1.53901 11.8639 1.00447 10.1323C0.46992 8.40073 0.597564 6.53232 1.36264 4.88951C2.12771 3.24671 3.47567 1.94662 5.14506 1.24143C6.04821 0.859114 7.01927 0.663127 8 0.665217V0.665217ZM8 0C3.58307 0 0 3.58039 0 8C0 12.4196 3.58039 16 8 16C12.4196 16 16 12.4183 16 8C16 3.58173 12.4196 0 8 0Z" fill="#333333"/>
<path d="M5.29227 5.64008C4.81511 5.64008 4.45372 5.81341 4.21514 6.1604C4.00534 5.81341 3.36455 5.64008 2.92319 5.64008C2.00166 5.64008 1.29395 6.41639 1.29395 7.18433V8.67103C1.29395 8.76105 1.31168 8.85019 1.34614 8.93336C1.3806 9.01652 1.43111 9.09208 1.49478 9.15572C1.55845 9.21936 1.63404 9.26983 1.71722 9.30425C1.8004 9.33867 1.88955 9.35637 1.97957 9.35632H2.22685V7.32453C2.22685 6.79684 2.49455 6.50773 2.90612 6.50773C3.28959 6.50773 3.51379 6.76071 3.51379 7.19437V8.67103C3.51379 8.76102 3.53151 8.85013 3.56595 8.93328C3.60039 9.01642 3.65087 9.09197 3.71451 9.1556C3.77814 9.21924 3.85369 9.26972 3.93683 9.30416C4.01997 9.3386 4.10909 9.35632 4.19908 9.35632H4.44636V7.32453C4.44636 6.79684 4.69231 6.50773 5.11894 6.50773C5.50208 6.50773 5.72627 6.76071 5.72627 7.19437V8.67103C5.72627 8.76102 5.74399 8.85013 5.77843 8.93328C5.81287 9.01642 5.86335 9.09197 5.92699 9.1556C5.99062 9.21924 6.06617 9.26972 6.14931 9.30416C6.23246 9.3386 6.32157 9.35632 6.41156 9.35632H6.65884V7.12945C6.65884 6.22599 6.12346 5.64008 5.29227 5.64008" fill="#333333"/>
<path d="M10.3999 6.27377C10.071 5.9174 9.61255 5.638 8.97142 5.638C8.48188 5.638 8.00104 5.89699 8.00104 5.89699H7.44591C7.35364 5.89744 7.26532 5.93447 7.20032 5.99996C7.13533 6.06546 7.09898 6.15406 7.09924 6.24633V10.3899C7.09932 10.386 7.10037 10.3823 7.1023 10.3789C7.10423 10.3756 7.10698 10.3728 7.11029 10.3708L7.53123 10.1175C7.53989 10.1122 7.54985 10.1094 7.56001 10.1094C7.57017 10.1094 7.58014 10.1122 7.58879 10.1175L7.99033 10.3691C7.9935 10.3711 7.99612 10.3739 7.99794 10.3772C7.99975 10.3804 8.0007 10.3841 8.0007 10.3879V9.11634C8.09774 9.21371 8.64383 9.39206 9.13338 9.39206C9.60184 9.39206 10.0897 9.06648 10.336 8.8202C10.6823 8.47387 10.8379 8.02749 10.8379 7.51018C10.8379 6.99286 10.7352 6.62813 10.3996 6.2721L10.3999 6.27377ZM9.86116 7.69555C9.82808 7.86879 9.74326 8.02792 9.6179 8.15197C9.44635 8.32463 9.22863 8.41096 8.96473 8.41096C8.70083 8.41096 8.48311 8.3253 8.31156 8.15398C8.19011 8.02893 8.10787 7.87109 8.07499 7.6999C8.06105 7.6278 8.05422 7.5545 8.05457 7.48107C8.05457 7.2107 8.14024 6.98617 8.31156 6.81484C8.48322 6.63649 8.70072 6.55083 8.96473 6.55083C9.22874 6.55083 9.44624 6.63649 9.6179 6.81484C9.79592 6.98617 9.88158 7.2107 9.88158 7.48107C9.88188 7.55349 9.87515 7.62577 9.8615 7.69689" fill="#333333"/>
<path d="M7.98931 10.6352L7.58777 10.3833C7.5791 10.378 7.56914 10.3752 7.559 10.3752C7.54885 10.3752 7.5389 10.378 7.53022 10.3833L7.1076 10.6359C7.10425 10.6378 7.10147 10.6406 7.09953 10.644C7.09759 10.6473 7.09657 10.6511 7.09656 10.655V11.1181C7.09656 11.124 7.09892 11.1297 7.10312 11.1339C7.10733 11.1382 7.11303 11.1405 7.11898 11.1405C7.12301 11.1405 7.12696 11.1394 7.13035 11.1372L7.51884 10.8989C7.52752 10.8937 7.53747 10.8909 7.54762 10.8909C7.55777 10.8909 7.56772 10.8937 7.5764 10.8989L7.96489 11.1372C7.96826 11.1391 7.97208 11.1401 7.97596 11.1401C7.97985 11.1401 7.98366 11.1391 7.98703 11.1371C7.99041 11.1352 7.99322 11.1324 7.99521 11.1291C7.99719 11.1258 7.99827 11.122 7.99835 11.1181V10.6533C7.99835 10.6496 7.9974 10.6459 7.99558 10.6426C7.99377 10.6393 7.99115 10.6366 7.98797 10.6346" fill="white"/>
<path d="M14.2265 8.23186C14.1436 8.18351 14.0475 8.16239 13.9519 8.17145C13.8563 8.18051 13.7659 8.21931 13.6935 8.28239C13.5144 8.4357 13.285 8.51734 13.0494 8.5116C12.7673 8.5116 12.5361 8.41757 12.3554 8.23688C12.265 8.14278 12.1941 8.0317 12.1469 7.91005C12.0997 7.78841 12.0771 7.65861 12.0803 7.52816C12.0803 7.18451 12.2262 6.89942 12.4614 6.72509C12.6183 6.61107 12.8076 6.55053 13.0015 6.55243H13.5282C13.599 6.55238 13.6681 6.5304 13.726 6.48952L14.2366 6.1278C14.2421 6.11878 14.245 6.10841 14.245 6.09785C14.245 6.08728 14.2421 6.07692 14.2366 6.0679L13.727 5.68778C13.6678 5.64399 13.5961 5.62051 13.5225 5.62085H13.0554C12.9642 5.62083 12.8732 5.6263 12.7827 5.63725C12.3682 5.68379 11.9824 5.87168 11.6901 6.16929C11.3284 6.53737 11.1481 6.98642 11.1481 7.5285C11.1481 8.07058 11.3288 8.51896 11.6905 8.88771C12.0586 9.25579 12.5146 9.43748 13.0567 9.43748C13.5146 9.44039 13.9578 9.27634 14.3035 8.97605C14.3583 8.92757 14.4007 8.86674 14.4273 8.79859C14.4538 8.73044 14.4638 8.65694 14.4562 8.58418C14.4487 8.51143 14.4239 8.44152 14.384 8.38024C14.344 8.31897 14.2901 8.2681 14.2265 8.23186" fill="#333333"/>
<path d="M3.07611 10.2157V9.89518H3.16077V9.95072H3.16445C3.1707 9.93277 3.1824 9.91721 3.19791 9.90622C3.21444 9.89524 3.23396 9.88963 3.25379 9.89016C3.2738 9.88947 3.2935 9.89522 3.31001 9.90655C3.32523 9.91711 3.33616 9.93278 3.34079 9.95072H3.34414C3.3507 9.93235 3.36333 9.91677 3.37994 9.90655C3.3982 9.89525 3.41938 9.88955 3.44084 9.89016C3.45431 9.88961 3.46774 9.89186 3.48029 9.89675C3.49284 9.90165 3.50425 9.90908 3.51379 9.9186C3.52361 9.92949 3.53115 9.94223 3.53598 9.95608C3.54081 9.96993 3.54282 9.9846 3.5419 9.99924V10.2147H3.45189V10.0176C3.45249 10.0104 3.45151 10.003 3.44903 9.99617C3.44655 9.9893 3.44261 9.98304 3.4375 9.97782C3.42729 9.96888 3.4141 9.96409 3.40053 9.9644C3.38696 9.96471 3.374 9.9701 3.36422 9.9795C3.35488 9.99086 3.35011 10.0053 3.35083 10.02V10.2157H3.2645V10.015C3.26487 10.0081 3.26388 10.0012 3.26158 9.99473C3.25929 9.98824 3.25573 9.98226 3.25112 9.97716C3.24285 9.96959 3.23236 9.96489 3.22121 9.96374C3.21007 9.9626 3.19885 9.96507 3.18921 9.9708C3.18126 9.97581 3.17479 9.98286 3.17047 9.99121C3.16591 10.0009 3.16363 10.0116 3.16378 10.0223V10.2147L3.07611 10.2157Z" fill="#333333"/>
<path d="M3.75813 10.2218C3.72849 10.2227 3.69916 10.2157 3.67313 10.2014C3.64953 10.1884 3.63041 10.1686 3.61826 10.1446C3.60569 10.1172 3.59918 10.0874 3.59918 10.0572C3.59918 10.0271 3.60569 9.99728 3.61826 9.96988C3.63042 9.94571 3.64923 9.92552 3.67247 9.91166C3.6974 9.89742 3.72574 9.89025 3.75445 9.89091C3.77462 9.89076 3.79467 9.89416 3.81367 9.90095C3.83169 9.90741 3.84804 9.91781 3.86152 9.9314C3.87633 9.94565 3.88776 9.96303 3.89498 9.98226C3.90305 10.0051 3.90691 10.0293 3.90636 10.0535V10.078H3.63599V10.0231H3.82003C3.82021 10.0114 3.81733 9.99986 3.81167 9.98962C3.80641 9.97974 3.79839 9.9716 3.78858 9.9662C3.77831 9.96063 3.7668 9.95776 3.75512 9.95783C3.74254 9.95753 3.73013 9.96078 3.71931 9.9672C3.70905 9.97306 3.7006 9.98162 3.69488 9.99197C3.68899 10.0021 3.68587 10.0137 3.68585 10.0254V10.078C3.68551 10.0922 3.68861 10.1063 3.69488 10.1191C3.7003 10.1303 3.70907 10.1396 3.71998 10.1456C3.73173 10.1521 3.74503 10.1553 3.75846 10.1549C3.76797 10.1553 3.77747 10.154 3.78657 10.1512C3.79444 10.1488 3.80164 10.1445 3.80765 10.1389C3.81372 10.1331 3.81831 10.126 3.82103 10.1181L3.90335 10.1238C3.8994 10.1429 3.89052 10.1607 3.87758 10.1753C3.864 10.1903 3.84701 10.2018 3.82806 10.2088C3.80579 10.2175 3.78202 10.2217 3.75813 10.2212" fill="#333333"/>
<path d="M3.96313 10.2157V9.89518H4.04779V9.95072H4.05147C4.0576 9.9327 4.06933 9.91711 4.08494 9.90622C4.10145 9.8952 4.12097 9.88958 4.14082 9.89016C4.16082 9.88952 4.18051 9.89526 4.19703 9.90655C4.21225 9.91711 4.22318 9.93278 4.22782 9.95072H4.23116C4.23759 9.93238 4.25011 9.91679 4.26663 9.90655C4.28502 9.89525 4.3063 9.88956 4.32787 9.89016C4.34133 9.88961 4.35476 9.89186 4.36731 9.89675C4.37987 9.90165 4.39127 9.90908 4.40081 9.9186C4.41051 9.92956 4.41795 9.94232 4.42272 9.95616C4.42749 9.96999 4.42948 9.98463 4.42859 9.99924V10.2147H4.33991V10.0176C4.34049 10.0104 4.33954 10.0031 4.33712 9.99624C4.3347 9.98938 4.33086 9.98311 4.32586 9.97782C4.32113 9.97336 4.31555 9.96988 4.30947 9.96758C4.30338 9.96528 4.29689 9.96421 4.29039 9.96444C4.28337 9.96406 4.27636 9.96521 4.26983 9.96781C4.2633 9.97041 4.25741 9.9744 4.25258 9.9795C4.24324 9.99086 4.23847 10.0053 4.23919 10.02V10.2157H4.15454V10.015C4.15491 10.0081 4.15392 10.0012 4.15162 9.99473C4.14932 9.98824 4.14576 9.98226 4.14115 9.97716C4.13288 9.96959 4.1224 9.96489 4.11125 9.96374C4.1001 9.9626 4.08888 9.96507 4.07925 9.9708C4.07121 9.97571 4.06472 9.98278 4.06051 9.99121C4.05569 10.0009 4.05328 10.0115 4.05348 10.0223V10.2147L3.96313 10.2157Z" fill="#333333"/>
<path d="M4.50055 10.2153V9.78802H4.58956V9.95031H4.59223C4.59654 9.94076 4.60217 9.93186 4.60896 9.92388C4.61715 9.91448 4.62717 9.90685 4.63841 9.90146C4.65246 9.89504 4.66781 9.89195 4.68325 9.89242C4.70605 9.89227 4.72843 9.89853 4.74783 9.91049C4.76863 9.92382 4.78513 9.94288 4.79535 9.96537C4.80799 9.99424 4.81405 10.0256 4.81308 10.0571C4.81399 10.0882 4.80816 10.1191 4.79602 10.1477C4.78605 10.1704 4.76979 10.1896 4.74917 10.2033C4.72921 10.216 4.70592 10.2225 4.68225 10.222C4.6672 10.2225 4.65223 10.2196 4.63841 10.2137C4.62721 10.2085 4.61719 10.2011 4.60896 10.1919C4.60192 10.1841 4.59606 10.1753 4.59156 10.1658H4.58956V10.217L4.50055 10.2153ZM4.58755 10.055C4.58719 10.072 4.58991 10.0889 4.59558 10.1049C4.59976 10.118 4.60766 10.1297 4.61833 10.1384C4.62914 10.147 4.64266 10.1515 4.65648 10.1511C4.66978 10.1515 4.68279 10.1472 4.69329 10.139C4.70389 10.1303 4.71178 10.1187 4.71604 10.1056C4.72166 10.0897 4.72438 10.0729 4.72407 10.0561C4.72432 10.0394 4.72172 10.0229 4.71638 10.0072C4.71213 9.99411 4.70424 9.9825 4.69362 9.97374C4.68302 9.96552 4.66989 9.96126 4.65648 9.96169C4.64341 9.9614 4.6306 9.96539 4.62001 9.97307C4.60929 9.98173 4.60138 9.99338 4.59725 10.0065C4.59159 10.0224 4.58886 10.0392 4.58922 10.0561" fill="#333333"/>
<path d="M5.01826 10.2218C4.98862 10.2227 4.95929 10.2156 4.93327 10.2014C4.90966 10.1884 4.89054 10.1686 4.87839 10.1445C4.86582 10.1171 4.85931 10.0874 4.85931 10.0572C4.85931 10.0271 4.86582 9.99728 4.87839 9.96988C4.89055 9.94571 4.90936 9.92551 4.9326 9.91166C4.95754 9.89745 4.98588 9.89028 5.01458 9.89091C5.03476 9.89075 5.0548 9.89415 5.07381 9.90095C5.09186 9.90732 5.10823 9.91774 5.12165 9.9314C5.13646 9.94565 5.14789 9.96302 5.15512 9.98226C5.16318 10.0051 5.16704 10.0293 5.16649 10.0535V10.078H4.89612V10.0231H5.08284C5.08302 10.0114 5.08014 9.99985 5.07447 9.98962C5.06925 9.97982 5.06136 9.9717 5.05172 9.9662C5.04141 9.96072 5.02993 9.95785 5.01826 9.95783C5.00568 9.95753 4.99327 9.96077 4.98245 9.9672C4.97219 9.97305 4.96374 9.98162 4.95803 9.99196C4.95242 10.0022 4.94932 10.0137 4.94899 10.0254V10.078C4.94865 10.0922 4.95175 10.1063 4.95803 10.1191C4.96344 10.1303 4.97222 10.1396 4.98312 10.1456C4.99487 10.1521 5.00817 10.1553 5.0216 10.1549C5.0308 10.1551 5.03995 10.1537 5.04871 10.1509C5.05658 10.1484 5.06378 10.1442 5.06979 10.1385C5.07586 10.1328 5.08045 10.1257 5.08317 10.1178L5.16549 10.1235C5.16154 10.1426 5.15266 10.1604 5.13972 10.175C5.12614 10.19 5.10915 10.2014 5.0902 10.2085C5.06793 10.2172 5.04417 10.2214 5.02027 10.2208" fill="#333333"/>
<path d="M5.22339 10.2157V9.8951H5.30939V9.95064H5.31273C5.31743 9.93281 5.32775 9.91697 5.34218 9.90547C5.35593 9.89534 5.37261 9.88993 5.38969 9.89008H5.40408L5.4178 9.89242V9.97106C5.41208 9.96963 5.40627 9.96862 5.4004 9.96804C5.39372 9.9676 5.38701 9.9676 5.38032 9.96804C5.36811 9.96795 5.35605 9.97082 5.34519 9.97641C5.33498 9.98231 5.3265 9.9908 5.32063 10.001C5.31475 10.0112 5.31168 10.0228 5.31173 10.0346V10.216L5.22339 10.2157Z" fill="#333333"/>
<path d="M5.72994 9.98646L5.64863 9.99148C5.64728 9.98456 5.64417 9.9781 5.63959 9.97274C5.63476 9.96678 5.62856 9.96208 5.62152 9.95902C5.61317 9.95547 5.60416 9.95376 5.59509 9.954C5.58336 9.95392 5.57183 9.95692 5.56163 9.9627C5.55736 9.96488 5.55377 9.96819 5.55123 9.97225C5.5487 9.97632 5.54732 9.981 5.54724 9.98579C5.54719 9.98953 5.54801 9.99323 5.54963 9.9966C5.55126 9.99997 5.55365 10.0029 5.55661 10.0052C5.56593 10.0119 5.57671 10.0162 5.58806 10.0179L5.64595 10.0296C5.6715 10.0334 5.69555 10.0441 5.71555 10.0604C5.72319 10.0675 5.7292 10.0762 5.73319 10.0858C5.73717 10.0955 5.73903 10.1059 5.73864 10.1163C5.73905 10.1363 5.73255 10.1558 5.72023 10.1715C5.70705 10.1882 5.68959 10.201 5.66971 10.2086C5.64627 10.2178 5.62127 10.2224 5.59609 10.222C5.56068 10.2236 5.52563 10.2143 5.49571 10.1953C5.48363 10.187 5.47344 10.1763 5.46583 10.1639C5.45821 10.1514 5.45334 10.1375 5.45154 10.123L5.53887 10.1183C5.53993 10.1243 5.5422 10.13 5.54554 10.135C5.54887 10.1401 5.55321 10.1444 5.55828 10.1477C5.56994 10.1549 5.58345 10.1584 5.5971 10.1578C5.6103 10.1584 5.6234 10.1553 5.63491 10.1487C5.63918 10.1465 5.64276 10.1431 5.64529 10.139C5.64782 10.1349 5.6492 10.1302 5.6493 10.1253C5.6493 10.1215 5.64839 10.1177 5.64664 10.1142C5.6449 10.1108 5.64237 10.1078 5.63926 10.1056C5.62998 10.0992 5.61932 10.095 5.60814 10.0935L5.55259 10.0825C5.52655 10.0786 5.50228 10.067 5.48299 10.049C5.47539 10.0413 5.46944 10.0321 5.46553 10.0219C5.46162 10.0118 5.45982 10.001 5.46024 9.99014C5.45962 9.97102 5.46552 9.95226 5.47697 9.93694C5.48919 9.92152 5.50556 9.90991 5.52415 9.90347C5.54717 9.895 5.57157 9.89092 5.59609 9.89143C5.62978 9.88952 5.66319 9.89843 5.69146 9.91686C5.70275 9.92504 5.71221 9.93549 5.71923 9.94753C5.72626 9.95957 5.73071 9.97294 5.73228 9.98679" fill="#333333"/>
<path d="M5.88219 10.03V10.2153H5.79419V9.78802H5.88052V9.95031H5.8842C5.891 9.93218 5.90328 9.91663 5.91934 9.90581C5.93748 9.89455 5.95856 9.88896 5.9799 9.88975C6.00036 9.88921 6.02058 9.89418 6.03846 9.90414C6.05512 9.91394 6.0686 9.92835 6.07727 9.94563C6.08688 9.96576 6.09147 9.98792 6.09066 10.0102V10.2143H6.00199V10.0273C6.00293 10.0105 5.99755 9.99406 5.98693 9.9811C5.98153 9.97543 5.97496 9.971 5.96768 9.96811C5.9604 9.96522 5.95259 9.96394 5.94477 9.96437C5.93313 9.96398 5.9216 9.96663 5.91131 9.97206C5.90207 9.97747 5.89454 9.98535 5.88956 9.99482C5.88448 10.0053 5.88174 10.0167 5.88152 10.0283" fill="#333333"/>
<path d="M6.2051 9.85387C6.19263 9.8539 6.18064 9.84911 6.17164 9.84048C6.1672 9.8365 6.16365 9.83162 6.16122 9.82617C6.15879 9.82073 6.15753 9.81483 6.15753 9.80886C6.15753 9.8029 6.15879 9.797 6.16122 9.79155C6.16365 9.7861 6.1672 9.78123 6.17164 9.77724C6.18081 9.76894 6.19273 9.76434 6.2051 9.76434C6.21747 9.76434 6.22939 9.76894 6.23856 9.77724C6.243 9.78123 6.24655 9.7861 6.24898 9.79155C6.25141 9.797 6.25267 9.8029 6.25267 9.80886C6.25267 9.81483 6.25141 9.82073 6.24898 9.82617C6.24655 9.83162 6.243 9.8365 6.23856 9.84048C6.23414 9.84481 6.22891 9.84822 6.22317 9.85052C6.21743 9.85282 6.21128 9.85396 6.2051 9.85387ZM6.16026 9.89503H6.24927V10.2156H6.16026V9.89503Z" fill="#333333"/>
<path d="M6.32025 10.3355V9.89486H6.40792V9.9504H6.4116C6.41616 9.94091 6.42189 9.93203 6.42867 9.92397C6.43666 9.9145 6.44658 9.90685 6.45778 9.90155C6.47193 9.89508 6.4874 9.89198 6.50295 9.89251C6.52575 9.89236 6.54813 9.89862 6.56753 9.91058C6.58824 9.92401 6.60472 9.94304 6.61505 9.96546C6.6277 9.99433 6.63375 10.0256 6.63278 10.0571C6.63359 10.0883 6.62766 10.1192 6.61538 10.1478C6.60553 10.1704 6.58938 10.1897 6.56887 10.2034C6.54891 10.2161 6.52562 10.2226 6.50195 10.2221C6.4869 10.2226 6.47193 10.2197 6.45811 10.2137C6.44691 10.2086 6.43689 10.2012 6.42867 10.192C6.42153 10.1842 6.41555 10.1754 6.41093 10.1659H6.40826V10.3372L6.32025 10.3355ZM6.40725 10.0551C6.40679 10.0721 6.4094 10.089 6.41495 10.105C6.41937 10.1181 6.42736 10.1297 6.43804 10.1385C6.44852 10.1464 6.46138 10.1505 6.47451 10.1502C6.48781 10.1506 6.50082 10.1463 6.51132 10.1381C6.52181 10.1293 6.52968 10.1177 6.53407 10.1047C6.53957 10.0887 6.54218 10.072 6.54177 10.0551C6.54217 10.0385 6.53957 10.022 6.53407 10.0063C6.52995 9.99313 6.52203 9.98149 6.51132 9.97282C6.50085 9.9646 6.48781 9.96033 6.47451 9.96078C6.46143 9.96043 6.4486 9.96444 6.43804 9.97215C6.42732 9.98089 6.41932 9.9925 6.41495 10.0056C6.4094 10.0215 6.40679 10.0383 6.40725 10.0551" fill="#333333"/>
<path d="M8.42694 10.3355V9.89485H8.51461V9.95039H8.51863C8.52294 9.94076 8.52869 9.93185 8.53569 9.92396C8.54368 9.91449 8.55361 9.90684 8.5648 9.90154C8.57885 9.89512 8.5942 9.89203 8.60964 9.8925C8.63254 9.89239 8.65501 9.89865 8.67456 9.91057C8.69525 9.92392 8.71164 9.94298 8.72174 9.96545C8.73439 9.99432 8.74044 10.0256 8.73947 10.0571C8.74038 10.0882 8.73456 10.1192 8.72241 10.1478C8.71245 10.1704 8.69618 10.1897 8.67556 10.2034C8.65561 10.2161 8.63231 10.2226 8.60864 10.2221C8.59348 10.2226 8.5784 10.2197 8.56447 10.2137C8.55327 10.2086 8.54324 10.2012 8.53502 10.192C8.52798 10.1842 8.52211 10.1754 8.51762 10.1659H8.51495V10.3372L8.42694 10.3355ZM8.51394 10.0551C8.51358 10.0721 8.5163 10.089 8.52197 10.105C8.52627 10.1181 8.53415 10.1296 8.54473 10.1384C8.55524 10.1463 8.56808 10.1504 8.5812 10.1502C8.5945 10.1506 8.60754 10.1463 8.61801 10.1381C8.62861 10.1293 8.6365 10.1177 8.64076 10.1046C8.64638 10.0888 8.6491 10.072 8.64879 10.0551C8.64904 10.0385 8.64643 10.022 8.64109 10.0063C8.63685 9.99318 8.62896 9.98157 8.61834 9.97281C8.60774 9.96459 8.59461 9.96033 8.5812 9.96077C8.56813 9.96047 8.55532 9.96447 8.54473 9.97214C8.53411 9.9809 8.52622 9.99251 8.52197 10.0056C8.5163 10.0215 8.51358 10.0383 8.51394 10.0551" fill="#333333"/>
<path d="M8.94331 10.2219C8.91396 10.2226 8.88496 10.2155 8.85932 10.2012C8.83598 10.1874 8.81706 10.1672 8.80478 10.143C8.79221 10.1158 8.78571 10.0862 8.78571 10.0563C8.78571 10.0264 8.79221 9.9968 8.80478 9.96964C8.81699 9.94548 8.83593 9.92538 8.85932 9.91175C8.88513 9.89823 8.91384 9.89117 8.94297 9.89117C8.97211 9.89117 9.00081 9.89823 9.02663 9.91175C9.0501 9.92527 9.06907 9.9454 9.08117 9.96964C9.09396 9.99674 9.10059 10.0263 9.10059 10.0563C9.10059 10.0863 9.09396 10.1159 9.08117 10.143C9.06898 10.1672 9.05004 10.1874 9.02663 10.2012C9.001 10.2155 8.97199 10.2227 8.94264 10.2219H8.94331ZM8.94264 10.153C8.95614 10.1534 8.96933 10.1489 8.97978 10.1403C8.99008 10.1313 8.99781 10.1198 9.0022 10.1068C9.01261 10.0742 9.01261 10.0391 9.0022 10.0064C8.99768 9.99357 8.98996 9.98206 8.97978 9.97298C8.96916 9.96473 8.95609 9.96026 8.94264 9.96026C8.92919 9.96026 8.91612 9.96473 8.9055 9.97298C8.895 9.98185 8.88713 9.99342 8.88274 10.0064C8.87233 10.0391 8.87233 10.0742 8.88274 10.1068C8.887 10.1199 8.89489 10.1315 8.9055 10.1403C8.91595 10.1489 8.92913 10.1534 8.94264 10.153" fill="#333333"/>
<path d="M9.20394 9.85381C9.19147 9.85385 9.17948 9.84905 9.17048 9.84043C9.16604 9.83644 9.16249 9.83157 9.16006 9.82612C9.15763 9.82067 9.15637 9.81477 9.15637 9.80881C9.15637 9.80284 9.15763 9.79694 9.16006 9.79149C9.16249 9.78604 9.16604 9.78117 9.17048 9.77718C9.17946 9.76853 9.19147 9.76373 9.20394 9.7638C9.21013 9.76371 9.21627 9.76485 9.22201 9.76714C9.22775 9.76944 9.23298 9.77285 9.2374 9.77718C9.24194 9.78111 9.24557 9.78597 9.24807 9.79142C9.25056 9.79688 9.25185 9.80281 9.25185 9.80881C9.25185 9.8148 9.25056 9.82073 9.24807 9.82619C9.24557 9.83164 9.24194 9.8365 9.2374 9.84043C9.233 9.84477 9.22776 9.84819 9.22202 9.85049C9.21627 9.85279 9.21013 9.85392 9.20394 9.85381V9.85381ZM9.1591 9.89497H9.24811V10.2155H9.1591V9.89497Z" fill="#333333"/>
<path d="M9.40807 10.0303V10.2157H9.3194V9.89515H9.40406V9.9507H9.40807C9.41488 9.93247 9.42745 9.91696 9.44388 9.90653C9.46197 9.89514 9.48307 9.88943 9.50444 9.89013C9.5248 9.88955 9.54492 9.89453 9.56266 9.90452C9.57938 9.91431 9.59278 9.92888 9.60115 9.94635C9.61094 9.96632 9.61577 9.98836 9.6152 10.0106V10.2147H9.52619V10.0277C9.52713 10.0109 9.52176 9.99445 9.51113 9.98148C9.50578 9.97584 9.49927 9.97143 9.49205 9.96854C9.48483 9.96565 9.47707 9.96436 9.46931 9.96475C9.45824 9.96465 9.44731 9.9673 9.43752 9.97245C9.4284 9.97779 9.42106 9.98571 9.41644 9.9952C9.41122 10.0056 9.40848 10.017 9.40841 10.0287" fill="#333333"/>
<path d="M9.85482 9.96203H9.66174V9.89511H9.85482V9.96203ZM9.70558 9.81848H9.79458V10.118C9.79418 10.1245 9.79544 10.1311 9.79827 10.137C9.80049 10.1413 9.80417 10.1446 9.80864 10.1464C9.81369 10.1482 9.81901 10.1491 9.82437 10.1491C9.8286 10.1494 9.83285 10.1494 9.83708 10.1491L9.84678 10.1471L9.86051 10.214L9.8431 10.2183C9.83341 10.2203 9.82355 10.2215 9.81366 10.2217C9.79455 10.2228 9.77541 10.2199 9.75744 10.2133C9.74204 10.2072 9.72894 10.1965 9.71997 10.1825C9.71076 10.1669 9.70623 10.1489 9.70692 10.1307L9.70558 9.81848Z" fill="#333333"/>
<path d="M10.1747 9.98647L10.0934 9.99149C10.092 9.98457 10.0889 9.97811 10.0844 9.97275C10.0795 9.96679 10.0733 9.96209 10.0663 9.95903C10.0579 9.95548 10.0489 9.95377 10.0399 9.95401C10.0281 9.95393 10.0166 9.95693 10.0064 9.96271C10.0021 9.96489 9.99853 9.9682 9.996 9.97226C9.99346 9.97633 9.99208 9.98101 9.992 9.9858C9.99202 9.98953 9.99288 9.9932 9.9945 9.99656C9.99612 9.99992 9.99846 10.0029 10.0014 10.0052C10.0107 10.0119 10.0215 10.0163 10.0328 10.0179L10.0907 10.0296C10.1163 10.0335 10.1405 10.0441 10.1606 10.0604C10.1682 10.0676 10.1741 10.0763 10.178 10.0859C10.1819 10.0956 10.1838 10.1059 10.1834 10.1163C10.1838 10.1363 10.1773 10.1558 10.165 10.1715C10.1518 10.1882 10.1344 10.2011 10.1145 10.2087C10.091 10.2179 10.066 10.2224 10.0409 10.222C10.0054 10.2236 9.97039 10.2143 9.94047 10.1953C9.92839 10.1871 9.91821 10.1764 9.91059 10.1639C9.90297 10.1514 9.8981 10.1375 9.8963 10.123L9.98364 10.1183C9.98469 10.1243 9.98696 10.13 9.9903 10.135C9.99364 10.1401 9.99797 10.1444 10.003 10.1478C10.0147 10.1549 10.0282 10.1584 10.0419 10.1578C10.0551 10.1584 10.0682 10.1553 10.0797 10.1488C10.0839 10.1465 10.0875 10.1431 10.0901 10.139C10.0926 10.1349 10.094 10.1302 10.0941 10.1253C10.0941 10.1215 10.0932 10.1177 10.0915 10.1142C10.0897 10.1108 10.0872 10.1078 10.084 10.1056C10.0747 10.0992 10.0641 10.0951 10.0529 10.0935L9.99735 10.0825C9.97131 10.0786 9.94705 10.067 9.92776 10.049C9.92015 10.0413 9.9142 10.0321 9.91029 10.0219C9.90638 10.0118 9.90458 10.001 9.905 9.99015C9.90438 9.97103 9.91028 9.95227 9.92173 9.93695C9.93395 9.92153 9.95032 9.90992 9.96891 9.90349C9.99193 9.89501 10.0163 9.89093 10.0409 9.89144C10.0745 9.88949 10.108 9.8984 10.1362 9.91687C10.1475 9.92505 10.157 9.9355 10.164 9.94754C10.171 9.95958 10.1755 9.97295 10.177 9.98681" fill="#333333"/>
<path d="M10.4751 10.1373C10.4589 10.1373 10.4429 10.1329 10.429 10.1246C10.4151 10.1165 10.4035 10.105 10.3955 10.0911C10.3874 10.0771 10.3831 10.0611 10.3831 10.0449C10.3831 10.0287 10.3874 10.0128 10.3955 9.99874C10.4037 9.98502 10.4152 9.97353 10.429 9.96527C10.4429 9.95698 10.4589 9.9527 10.4751 9.95289C10.4914 9.95261 10.5074 9.9569 10.5213 9.96527C10.5352 9.97333 10.5467 9.98487 10.5548 9.99874C10.5629 10.0127 10.5672 10.0286 10.5672 10.0447C10.5672 10.0608 10.563 10.0767 10.555 10.0907C10.5469 10.1047 10.5354 10.1164 10.5214 10.1245C10.5075 10.1326 10.4916 10.1369 10.4755 10.1369" fill="#333333"/>
<path d="M10.9279 10.2219C10.8983 10.2226 10.869 10.2154 10.8433 10.2008C10.82 10.1869 10.8012 10.1667 10.789 10.1425C10.7762 10.1157 10.7698 10.0863 10.7703 10.0566C10.7697 10.0266 10.7762 9.99685 10.7894 9.96989C10.8015 9.94572 10.8203 9.92552 10.8436 9.91166C10.8692 9.89738 10.8982 9.89022 10.9276 9.89092C10.9528 9.89034 10.9779 9.89549 11.0009 9.90597C11.0211 9.91544 11.0383 9.93025 11.0507 9.94881C11.0633 9.96805 11.0704 9.99039 11.0711 10.0134H10.9871C10.9854 9.9989 10.9789 9.98538 10.9687 9.9749C10.9634 9.9699 10.9572 9.96601 10.9503 9.96348C10.9435 9.96095 10.9362 9.95983 10.9289 9.96018C10.9161 9.95989 10.9035 9.96377 10.8931 9.97122C10.882 9.97977 10.8736 9.99141 10.869 10.0047C10.863 10.0212 10.8602 10.0387 10.8606 10.0562C10.8602 10.074 10.863 10.0917 10.869 10.1084C10.8737 10.1216 10.8819 10.1332 10.8928 10.1419C10.9033 10.1494 10.916 10.1534 10.9289 10.1533C10.9384 10.1533 10.9478 10.1512 10.9564 10.1469C10.9646 10.1426 10.9717 10.1363 10.9768 10.1285C10.9824 10.1198 10.9859 10.11 10.9871 10.0997H11.0711C11.0702 10.1226 11.0633 10.1449 11.051 10.1643C11.0391 10.183 11.0222 10.1981 11.0022 10.2078C10.979 10.2187 10.9535 10.224 10.9279 10.2235" fill="#333333"/>
<path d="M11.2728 10.222C11.2436 10.2227 11.2147 10.2156 11.1892 10.2013C11.1658 10.1875 11.1468 10.1673 11.1347 10.1431C11.1219 10.116 11.1152 10.0864 11.1152 10.0564C11.1152 10.0264 11.1219 9.99682 11.1347 9.96972C11.1467 9.94549 11.1657 9.92535 11.1892 9.91183C11.215 9.89826 11.2437 9.89117 11.2728 9.89117C11.302 9.89117 11.3307 9.89826 11.3565 9.91183C11.38 9.92544 11.399 9.94554 11.4114 9.96972C11.4239 9.99689 11.4305 10.0265 11.4305 10.0564C11.4305 10.0863 11.4239 10.1159 11.4114 10.1431C11.399 10.1673 11.3799 10.1874 11.3565 10.2013C11.3309 10.2156 11.3019 10.2228 11.2725 10.222H11.2728ZM11.2725 10.1531C11.2859 10.1535 11.299 10.149 11.3093 10.1404C11.3197 10.1315 11.3275 10.1199 11.3317 10.1069C11.3421 10.0743 11.3421 10.0392 11.3317 10.0065C11.3273 9.9936 11.3196 9.98206 11.3093 9.97307C11.299 9.96444 11.2859 9.95992 11.2725 9.96035C11.2589 9.95994 11.2456 9.96445 11.235 9.97307C11.2247 9.98204 11.2168 9.99357 11.2123 10.0065C11.2019 10.0392 11.2019 10.0743 11.2123 10.1069C11.2167 10.1199 11.2245 10.1315 11.235 10.1404C11.2456 10.149 11.2589 10.1535 11.2725 10.1531" fill="#333333"/>
<path d="M11.6944 10.0788V9.89478H11.7838V10.2153H11.6985V10.1571H11.6951C11.6882 10.1756 11.6757 10.1914 11.6593 10.2023C11.6416 10.213 11.6214 10.2188 11.6008 10.2193C11.5801 10.2198 11.5597 10.2148 11.5415 10.205C11.5251 10.1951 11.5119 10.1807 11.5034 10.1635C11.4939 10.1433 11.4891 10.1212 11.4893 10.0989V9.89478H11.5783V10.0842C11.5777 10.1004 11.5831 10.1164 11.5934 10.129C11.5986 10.1345 11.6049 10.1388 11.6118 10.1416C11.6188 10.1445 11.6264 10.1458 11.6339 10.1454C11.6444 10.1455 11.6547 10.143 11.664 10.138C11.6733 10.1328 11.6811 10.1252 11.6864 10.116C11.6925 10.1049 11.6955 10.0924 11.6951 10.0798" fill="#333333"/>
<path d="M11.8541 10.3355V9.89485H11.9417V9.95039H11.9458C11.9501 9.94076 11.9558 9.93185 11.9628 9.92396C11.9708 9.91449 11.9807 9.90684 11.9919 9.90154C12.006 9.89512 12.0213 9.89203 12.0368 9.8925C12.0597 9.89234 12.0822 9.8986 12.1017 9.91057C12.1224 9.92392 12.1388 9.94298 12.1489 9.96545C12.1615 9.99432 12.1676 10.0256 12.1666 10.0571C12.1675 10.0882 12.1617 10.1192 12.1495 10.1478C12.1396 10.1704 12.1233 10.1897 12.1027 10.2034C12.0827 10.2161 12.0594 10.2226 12.0358 10.2221C12.0206 10.2226 12.0055 10.2197 11.9916 10.2137C11.9804 10.2085 11.9704 10.2011 11.9621 10.192C11.9551 10.1842 11.9492 10.1754 11.9447 10.1659H11.9421V10.3372L11.8541 10.3355ZM11.9411 10.0551C11.9407 10.0721 11.9434 10.089 11.9491 10.105C11.9534 10.1181 11.9613 10.1296 11.9719 10.1384C11.9825 10.1464 11.9954 10.1505 12.0087 10.1502C12.0219 10.1505 12.0348 10.1463 12.0451 10.1381C12.0557 10.1293 12.0637 10.1177 12.0682 10.1046C12.0736 10.0887 12.0762 10.072 12.0759 10.0551C12.0762 10.0385 12.0736 10.022 12.0682 10.0063C12.0641 9.99312 12.0562 9.98148 12.0455 9.97281C12.035 9.96464 12.022 9.96038 12.0087 9.96077C11.9955 9.96043 11.9825 9.96442 11.9719 9.97214C11.9612 9.9809 11.9533 9.99251 11.9491 10.0056C11.9434 10.0215 11.9407 10.0383 11.9411 10.0551" fill="#333333"/>
<path d="M12.3704 10.2219C12.3411 10.2226 12.3121 10.2155 12.2864 10.2012C12.2631 10.1874 12.2442 10.1672 12.2319 10.143C12.2193 10.1158 12.2128 10.0862 12.2128 10.0563C12.2128 10.0264 12.2193 9.9968 12.2319 9.96964C12.2441 9.94548 12.2631 9.92538 12.2864 9.91175C12.3123 9.89823 12.341 9.89117 12.3701 9.89117C12.3992 9.89117 12.4279 9.89823 12.4538 9.91175C12.4772 9.92527 12.4962 9.9454 12.5083 9.96964C12.5211 9.99674 12.5277 10.0263 12.5277 10.0563C12.5277 10.0863 12.5211 10.1159 12.5083 10.143C12.4961 10.1672 12.4772 10.1874 12.4538 10.2012C12.4281 10.2155 12.3991 10.2227 12.3698 10.2219H12.3704ZM12.3698 10.153C12.3833 10.1534 12.3965 10.1489 12.4069 10.1403C12.4172 10.1313 12.4249 10.1198 12.4293 10.1068C12.4397 10.0742 12.4397 10.0391 12.4293 10.0064C12.4248 9.99357 12.4171 9.98206 12.4069 9.97298C12.3965 9.96436 12.3833 9.95984 12.3698 9.96027C12.3563 9.9599 12.3431 9.96442 12.3326 9.97298C12.3221 9.98185 12.3143 9.99342 12.3099 10.0064C12.2995 10.0391 12.2995 10.0742 12.3099 10.1068C12.3141 10.1199 12.322 10.1315 12.3326 10.1403C12.3431 10.1489 12.3563 10.1534 12.3698 10.153" fill="#333333"/>
<path d="M12.6753 10.0303V10.2157H12.5869V9.89515H12.6716V9.9507H12.6753C12.6822 9.93253 12.6947 9.91705 12.7111 9.90653C12.7292 9.89514 12.7502 9.88943 12.7716 9.89013C12.792 9.88955 12.8121 9.89453 12.8298 9.90452C12.8466 9.91442 12.86 9.92895 12.8687 9.94635C12.8782 9.9664 12.8829 9.9884 12.8824 10.0106V10.2147H12.7934V10.0277C12.794 10.0194 12.793 10.011 12.7905 10.0031C12.7879 9.99514 12.7837 9.98781 12.7783 9.98148C12.773 9.97584 12.7665 9.97143 12.7592 9.96854C12.752 9.96565 12.7443 9.96436 12.7365 9.96475C12.7255 9.96456 12.7147 9.96721 12.705 9.97245C12.6957 9.97767 12.6883 9.98561 12.6836 9.9952C12.6785 10.0056 12.6759 10.0171 12.6759 10.0287" fill="#333333"/>
<path d="M13.2183 9.98636L13.137 9.99138C13.1354 9.98456 13.1323 9.97817 13.128 9.97264C13.123 9.96684 13.1168 9.96216 13.1099 9.95892C13.1014 9.95538 13.0923 9.95367 13.0831 9.9539C13.0714 9.95382 13.0599 9.95682 13.0497 9.9626C13.0454 9.9648 13.0419 9.96812 13.0394 9.97219C13.0369 9.97626 13.0356 9.98093 13.0356 9.98569C13.0356 9.9894 13.0364 9.99306 13.0379 9.99642C13.0395 9.99978 13.0418 10.0027 13.0446 10.0051C13.054 10.0117 13.0648 10.016 13.0761 10.0178L13.1343 10.0295C13.1599 10.0334 13.1839 10.044 13.2039 10.0603C13.2116 10.0674 13.2176 10.0761 13.2216 10.0857C13.2255 10.0954 13.2274 10.1058 13.227 10.1162C13.2273 10.1362 13.2207 10.1557 13.2083 10.1714C13.1952 10.1882 13.1777 10.201 13.1577 10.2085C13.1343 10.2178 13.1093 10.2223 13.0841 10.2219C13.0487 10.2235 13.0137 10.2142 12.9837 10.1952C12.9717 10.1869 12.9615 10.1763 12.9539 10.1638C12.9462 10.1513 12.9414 10.1374 12.9396 10.1229L13.0272 10.1182C13.0283 10.1241 13.0305 10.1298 13.0338 10.1349C13.0371 10.1399 13.0413 10.1443 13.0463 10.1476C13.0581 10.1539 13.0713 10.1572 13.0846 10.1572C13.098 10.1572 13.1111 10.1539 13.1229 10.1476C13.1273 10.1454 13.1309 10.142 13.1335 10.1379C13.1361 10.1338 13.1375 10.1291 13.1377 10.1242C13.1376 10.1204 13.1366 10.1165 13.1348 10.1131C13.133 10.1097 13.1304 10.1067 13.1273 10.1045C13.1181 10.0981 13.1076 10.094 13.0965 10.0924L13.041 10.0814C13.0148 10.0775 12.9904 10.0659 12.971 10.0479C12.9635 10.0401 12.9576 10.0309 12.9537 10.0208C12.9498 10.0107 12.9479 9.99988 12.9483 9.98904C12.9478 9.96994 12.9537 9.95123 12.965 9.93584C12.9774 9.92049 12.9939 9.9089 13.0125 9.90237C13.0354 9.8939 13.0597 9.88981 13.0841 9.89033C13.1179 9.88842 13.1514 9.89733 13.1798 9.91576C13.1911 9.92394 13.2006 9.93439 13.2076 9.94643C13.2146 9.95847 13.2191 9.97184 13.2207 9.98569" fill="#333333"/>
</svg>
