<svg width="73" height="73" viewBox="0 0 73 73" fill="none" xmlns="http://www.w3.org/2000/svg">
<g filter="url(#filter0_d_1012_2830)">
<circle cx="36.5" cy="28.5" r="20.5" fill="white"/>
</g>
<path fill-rule="evenodd" clip-rule="evenodd" d="M29.3416 19.8333H37.1446C40.0205 19.8333 41.6219 21.465 41.6219 24.2608V33.73C41.6219 36.5717 40.0205 38.1667 37.1446 38.1667H29.3416C26.5112 38.1667 24.8633 36.5717 24.8633 33.73V24.2608C24.8633 21.465 26.5112 19.8333 29.3416 19.8333ZM29.5934 24.1049V24.0958H32.3763C32.7775 24.0958 33.1034 24.4166 33.1034 24.8098C33.1034 25.2141 32.7775 25.5349 32.3763 25.5349H29.5934C29.1921 25.5349 28.8672 25.2141 28.8672 24.8199C28.8672 24.4258 29.1921 24.1049 29.5934 24.1049ZM29.5934 29.6781H36.8927C37.293 29.6781 37.6189 29.3572 37.6189 28.9631C37.6189 28.5689 37.293 28.2472 36.8927 28.2472H29.5934C29.1921 28.2472 28.8672 28.5689 28.8672 28.9631C28.8672 29.3572 29.1921 29.6781 29.5934 29.6781ZM29.5952 33.8674H36.8945C37.2659 33.8308 37.5462 33.5182 37.5462 33.1524C37.5462 32.7766 37.2659 32.4649 36.8945 32.4283H29.5952C29.3158 32.4008 29.0458 32.5291 28.8969 32.7674C28.7479 32.9966 28.7479 33.2991 28.8969 33.5374C29.0458 33.7666 29.3158 33.9041 29.5952 33.8674Z" fill="#FA9D1C"/>
<path d="M48.1973 27.1018L48.1973 27.1035L48.2906 35.2967L48.2906 35.3007L48.2906 35.3007C48.2883 35.7829 48.1008 36.2418 47.7601 36.5832L46.3234 38.0226C46.1972 38.149 46.0288 38.2192 45.8505 38.2206C45.6592 38.2221 45.4987 38.1383 45.3806 38.0241L45.3761 38.0197L45.3761 38.0196L43.9362 36.5542C43.936 36.5541 43.9359 36.554 43.9358 36.5538C43.6035 36.2182 43.4203 35.7754 43.4157 35.311L43.6676 35.3085L43.4157 35.311L43.3584 29.5125C43.3561 29.2781 43.5535 29.0802 43.7914 29.0782L43.7911 29.0782L43.7937 29.3262L43.7919 29.0782L48.1973 27.1018ZM48.1973 27.1018C48.1813 26.2202 47.4467 25.5066 46.5535 25.5134L44.9483 25.5256C44.0435 25.5325 43.3201 26.2572 43.3289 27.1481L43.3289 27.15L43.3432 27.9686C43.3432 27.969 43.3432 27.9694 43.3432 27.9697C43.3463 28.2276 43.5656 28.4393 43.8276 28.4373L43.8284 28.4373L43.8257 28.1893L43.8284 28.4373L43.8285 28.4373L43.8288 28.4373L43.8298 28.4373L43.834 28.4373L43.8504 28.4371L43.9127 28.4364L44.1353 28.4341C44.3197 28.4323 44.5661 28.4298 44.8137 28.4275C45.0615 28.4253 45.3103 28.4232 45.4998 28.422C45.5946 28.4215 45.6741 28.4211 45.7312 28.4211C45.7598 28.4211 45.782 28.4212 45.7975 28.4213C45.8019 28.4213 45.8053 28.4214 45.8078 28.4214L45.8082 28.4215L45.8206 28.4219C45.9042 28.4249 45.9856 28.456 46.0498 28.5182C46.1772 28.6414 46.1812 28.8429 46.0547 28.9697C45.999 29.0255 45.9212 29.0555 45.8504 29.0564M48.1973 27.1018L45.8501 29.0564M45.8501 29.0564L45.8532 29.3045L45.8505 29.0564L45.8504 29.0564M45.8501 29.0564C45.8502 29.0564 45.8503 29.0564 45.8504 29.0564M45.8501 29.0564L45.8504 29.0564" fill="#FA9D1C" stroke="#FEEBD2" stroke-width="0.5"/>
<defs>
<filter id="filter0_d_1012_2830" x="0" y="0" width="73" height="73" filterUnits="userSpaceOnUse" color-interpolation-filters="sRGB">
<feFlood flood-opacity="0" result="BackgroundImageFix"/>
<feColorMatrix in="SourceAlpha" type="matrix" values="0 0 0 0 0 0 0 0 0 0 0 0 0 0 0 0 0 0 127 0" result="hardAlpha"/>
<feOffset dy="8"/>
<feGaussianBlur stdDeviation="8"/>
<feComposite in2="hardAlpha" operator="out"/>
<feColorMatrix type="matrix" values="0 0 0 0 0 0 0 0 0 0 0 0 0 0 0 0 0 0 0.1 0"/>
<feBlend mode="normal" in2="BackgroundImageFix" result="effect1_dropShadow_1012_2830"/>
<feBlend mode="normal" in="SourceGraphic" in2="effect1_dropShadow_1012_2830" result="shape"/>
</filter>
</defs>
</svg>
