<svg width="73" height="73" viewBox="0 0 73 73" fill="none" xmlns="http://www.w3.org/2000/svg">
<g filter="url(#filter0_d_1012_2831)">
<circle cx="36.5" cy="28.5" r="20.5" fill="white"/>
</g>
<path fill-rule="evenodd" clip-rule="evenodd" d="M33.0864 25.9793C32.8769 25.5042 32.9805 24.9493 33.3471 24.5824C33.353 24.5765 33.359 24.5705 33.3641 24.5647C33.5181 24.3995 33.6811 24.2364 33.8305 24.0874C34.4666 23.4509 34.4666 22.4187 33.8305 21.782L31.5286 19.4774C30.8918 18.8409 29.8605 18.8409 29.2244 19.4774C28.7143 19.988 27.9665 20.7371 27.258 21.4456C25.8193 22.8855 25.5876 25.1382 26.7027 26.842C26.7048 26.8442 26.7063 26.8472 26.7078 26.8493C29.7812 31.4158 33.5974 35.2337 38.1685 38.2948C38.1706 38.2963 38.173 38.2978 38.1744 38.2984C39.8677 39.41 42.1067 39.1811 43.5409 37.7509C44.262 37.052 45.012 36.3021 45.523 35.7901C46.159 35.1535 46.159 34.1213 45.523 33.4846L43.221 31.1808C42.585 30.5435 41.5536 30.5435 40.9176 31.1808L40.4289 31.6691C40.0602 32.0389 39.5019 32.1427 39.0251 31.9314C36.2864 30.7043 34.3034 28.7249 33.0862 25.9794L33.0864 25.9793Z" fill="#FA9D1C"/>
<path d="M40.4273 23H38.1337V23.0026L36 27.9873H38.1987L39.2805 25.5689L40.4298 23.0026L40.4273 23Z" fill="#FFC20E"/>
<path d="M43.9808 23.0204L43.9783 23.0127L41.6797 23.0153L42.8315 25.5867L43.9133 28H46.112L43.9808 23.0204Z" fill="#505154"/>
<path d="M42.099 26.9286C42.099 26.9235 42.099 26.9184 42.099 26.9133V26.9107C42.099 26.9082 42.099 26.9056 42.099 26.9031C42.0965 26.8827 42.094 26.8648 42.0915 26.8444V26.8418C42.089 26.8214 42.084 26.801 42.0816 26.7806C42.0816 26.7781 42.0816 26.7755 42.0791 26.773C42.0766 26.7577 42.0716 26.7449 42.0691 26.7296C42.0391 26.6148 41.9916 26.5025 41.9416 26.3954C41.8492 26.1964 41.7592 26 41.6668 25.801L41.0522 24.4541H41.0497L40.44 25.801C40.3476 26 40.2577 26.1964 40.1652 26.3954C40.1152 26.5025 40.0678 26.6148 40.0378 26.7296C40.0328 26.7423 40.0303 26.7577 40.0278 26.7704C40.0278 26.773 40.0278 26.7755 40.0253 26.7781C40.0203 26.7985 40.0178 26.8189 40.0153 26.8393C40.0153 26.8418 40.0153 26.8418 40.0153 26.8444C40.0128 26.8622 40.0103 26.8827 40.0078 26.9031C40.0078 26.9056 40.0078 26.9082 40.0078 26.9082V26.9107C40.0078 26.9158 40.0078 26.9235 40.0078 26.9286C40.0078 26.9337 40.0078 26.9388 40.0078 26.9439C40.0078 26.9566 40.0078 26.9668 40.0078 26.9796C40.0078 27 40.0078 27.0204 40.0103 27.0408C40.0103 27.0459 40.0103 27.051 40.0103 27.0561C40.0128 27.074 40.0128 27.0893 40.0153 27.1071C40.0153 27.1097 40.0153 27.1148 40.0178 27.1173C40.0228 27.1607 40.0328 27.2015 40.0453 27.2423V27.2449C40.0453 27.2474 40.0453 27.25 40.0478 27.25C40.0478 27.2526 40.0503 27.2551 40.0503 27.2602L40.1427 27.4643L40.2052 27.5638C40.2152 27.5791 40.2277 27.5944 40.2402 27.6071C40.2452 27.6122 40.2477 27.6173 40.2527 27.6199C40.2652 27.6352 40.2776 27.648 40.2926 27.6633C40.2951 27.6658 40.3001 27.6709 40.3026 27.6735C40.3151 27.6862 40.3301 27.699 40.3426 27.7117C40.3451 27.7143 40.3476 27.7168 40.3526 27.7194C40.3676 27.7321 40.3826 27.7449 40.4001 27.7577C40.4051 27.7602 40.4076 27.7628 40.4126 27.7653C40.4301 27.7781 40.445 27.7883 40.4625 27.801C40.4675 27.8036 40.47 27.8061 40.475 27.8087C40.4925 27.8189 40.51 27.8316 40.5275 27.8393C40.5325 27.8418 40.535 27.8444 40.54 27.8469C40.56 27.8571 40.5775 27.8673 40.5975 27.875C40.6 27.8776 40.6025 27.8776 40.6074 27.8801C40.6274 27.8903 40.6474 27.898 40.6699 27.9056H40.6724C40.6949 27.9133 40.7149 27.9209 40.7374 27.9286C40.7399 27.9286 40.7424 27.9311 40.7474 27.9311C40.7698 27.9388 40.7898 27.9439 40.8123 27.949C40.8173 27.949 40.8198 27.9515 40.8248 27.9515C40.8473 27.9566 40.8698 27.9592 40.8923 27.9643C40.8973 27.9643 40.8998 27.9643 40.9048 27.9668C40.9273 27.9694 40.9522 27.9719 40.9747 27.9745C40.9772 27.9745 40.9797 27.9745 40.9822 27.9745C41.0072 27.977 41.0322 27.977 41.0572 27.977C41.0572 27.977 41.0572 27.977 41.0597 27.977C41.0847 27.977 41.1096 27.977 41.1346 27.9745C41.1371 27.9745 41.1396 27.9745 41.1421 27.9745C41.1646 27.9719 41.1896 27.9694 41.2121 27.9668C41.2171 27.9668 41.2196 27.9668 41.2246 27.9643C41.2471 27.9617 41.2695 27.9566 41.292 27.9515C41.297 27.9515 41.2995 27.949 41.3045 27.949C41.327 27.9439 41.3495 27.9388 41.3695 27.9311C41.372 27.9311 41.3745 27.9286 41.3795 27.9286C41.402 27.9209 41.4245 27.9133 41.4444 27.9056H41.4469C41.4669 27.898 41.4894 27.8878 41.5094 27.8801C41.5119 27.8776 41.5144 27.8776 41.5194 27.875C41.5394 27.8648 41.5594 27.8571 41.5769 27.8469C41.5819 27.8444 41.5844 27.8418 41.5894 27.8393C41.6068 27.8291 41.6243 27.8189 41.6418 27.8061C41.6468 27.8036 41.6493 27.801 41.6543 27.7985C41.6718 27.7883 41.6893 27.7755 41.7043 27.7628C41.7093 27.7602 41.7118 27.7577 41.7143 27.7551C41.7293 27.7423 41.7468 27.7296 41.7617 27.7168C41.7642 27.7143 41.7667 27.7117 41.7717 27.7092C41.7867 27.6964 41.7992 27.6837 41.8117 27.6709C41.8142 27.6684 41.8192 27.6633 41.8217 27.6607C41.8367 27.648 41.8492 27.6327 41.8617 27.6173C41.8667 27.6122 41.8692 27.6071 41.8742 27.6046C41.8867 27.5893 41.8992 27.5765 41.9092 27.5612C41.9142 27.5561 41.9167 27.551 41.9216 27.5459C41.9316 27.5306 41.9441 27.5153 41.9541 27.5C41.9566 27.4949 41.9616 27.4898 41.9641 27.4847C41.9741 27.4694 41.9816 27.4541 41.9916 27.4388C41.9941 27.4337 41.9966 27.4311 41.9991 27.426L42.0466 27.3163C42.0516 27.3061 42.0541 27.2959 42.0566 27.2857V27.2832C42.0591 27.273 42.0641 27.2628 42.0666 27.25C42.0666 27.2474 42.0691 27.2449 42.0691 27.2449V27.2423C42.0816 27.2015 42.089 27.1607 42.0965 27.1173C42.0965 27.1148 42.0965 27.1097 42.099 27.1071C42.1015 27.0893 42.104 27.074 42.104 27.0561C42.104 27.051 42.104 27.0459 42.104 27.0408C42.1065 27.0204 42.1065 27 42.1065 26.9796C42.1065 26.9668 42.1065 26.9566 42.1065 26.9439C42.099 26.9388 42.099 26.9337 42.099 26.9286Z" fill="#E05826"/>
<path d="M40.4266 23.0026L39.2773 25.5689L39.8095 26.75L40.0369 27.2424H40.0419C40.0319 27.2067 40.0244 27.1684 40.0169 27.1301C40.0169 27.1276 40.0169 27.1225 40.0144 27.1199C40.0119 27.1021 40.0094 27.0868 40.0094 27.0689C40.0094 27.0638 40.0094 27.0587 40.0094 27.0536C40.0069 27.0332 40.0069 27.0128 40.0069 26.9924V26.9898C40.0069 26.9771 40.0069 26.9669 40.0069 26.9541C40.0069 26.949 40.0069 26.9439 40.0069 26.9388C40.0069 26.9337 40.0069 26.926 40.0069 26.9209V26.9184C40.0069 26.9158 40.0069 26.9133 40.0069 26.9133C40.0094 26.8929 40.0119 26.875 40.0144 26.8572C40.0144 26.8546 40.0144 26.8546 40.0144 26.8521C40.0169 26.8317 40.0219 26.8113 40.0244 26.7934C40.0244 26.7908 40.0244 26.7883 40.0269 26.7857C40.0294 26.7704 40.0344 26.7577 40.0369 26.7449C40.0669 26.6301 40.1143 26.5204 40.1643 26.4133C40.2567 26.2169 40.3467 26.0204 40.4391 25.8215L41.0488 24.4541L40.4266 23.0026Z" fill="#F89A59"/>
<path d="M41.6743 23.0026L42.8236 25.5689L42.2914 26.75L42.0616 27.2653C42.0716 27.2296 42.0791 27.1684 42.0841 27.1301C42.0841 27.1276 42.0841 27.1225 42.0866 27.1199C42.0891 27.1021 42.0916 27.0868 42.0916 27.0689C42.0916 27.0638 42.0916 27.0587 42.0916 27.0536C42.0941 27.0332 42.0941 27.0128 42.0941 26.9924V26.9898C42.0941 26.9771 42.0941 26.9669 42.0941 26.9541C42.0941 26.949 42.0941 26.9439 42.0941 26.9388C42.0941 26.9337 42.0941 26.926 42.0941 26.9209V26.9184C42.0941 26.9158 42.0941 26.9133 42.0941 26.9133C42.0916 26.8929 42.0891 26.875 42.0866 26.8572C42.0866 26.8546 42.0866 26.8546 42.0866 26.8521C42.0841 26.8317 42.0791 26.8113 42.0766 26.7934C42.0766 26.7908 42.0766 26.7883 42.0741 26.7857C42.0716 26.7704 42.0666 26.7577 42.0641 26.7449C42.0341 26.6301 41.9866 26.5204 41.9366 26.4133C41.8442 26.2169 41.7543 26.0204 41.6618 25.8215L41.0547 24.4541L41.6743 23.0026Z" fill="#848689"/>
<defs>
<filter id="filter0_d_1012_2831" x="0" y="0" width="73" height="73" filterUnits="userSpaceOnUse" color-interpolation-filters="sRGB">
<feFlood flood-opacity="0" result="BackgroundImageFix"/>
<feColorMatrix in="SourceAlpha" type="matrix" values="0 0 0 0 0 0 0 0 0 0 0 0 0 0 0 0 0 0 127 0" result="hardAlpha"/>
<feOffset dy="8"/>
<feGaussianBlur stdDeviation="8"/>
<feComposite in2="hardAlpha" operator="out"/>
<feColorMatrix type="matrix" values="0 0 0 0 0 0 0 0 0 0 0 0 0 0 0 0 0 0 0.1 0"/>
<feBlend mode="normal" in2="BackgroundImageFix" result="effect1_dropShadow_1012_2831"/>
<feBlend mode="normal" in="SourceGraphic" in2="effect1_dropShadow_1012_2831" result="shape"/>
</filter>
</defs>
</svg>
