<svg width="24" height="17" viewBox="0 0 24 17" fill="none" xmlns="http://www.w3.org/2000/svg">
<path fill-rule="evenodd" clip-rule="evenodd" d="M1.71366 0.039978H22.3488C23.1367 0.039978 23.7812 0.714674 23.7812 1.539V15.4609C23.7812 16.2854 23.1367 16.96 22.3488 16.96H1.71366C0.925782 16.96 0.28125 16.2853 0.28125 15.4609V1.539C0.28125 0.714533 0.925782 0.039978 1.71366 0.039978ZM17.9248 10.8455C18.297 10.8455 18.6428 10.9621 18.9314 11.1618C19.2202 10.9619 19.5663 10.8455 19.9384 10.8455C20.9483 10.8455 21.767 11.7028 21.767 12.76C21.767 13.8174 20.9483 14.6744 19.9384 14.6744C19.5663 14.6744 19.2202 14.5579 18.9314 14.3584C18.6427 14.5579 18.2969 14.6744 17.9248 14.6744C16.9149 14.6744 16.096 13.8174 16.096 12.76C16.096 11.7028 16.9149 10.8455 17.9248 10.8455ZM2.73691 10.0665H9.17384V11.6874H2.73691V10.0665ZM2.73691 13.035H12.7146V14.656H2.73691V13.035Z" fill="#FA9D1C"/>
</svg>
