<svg width="22" height="29" viewBox="0 0 22 29" fill="none" xmlns="http://www.w3.org/2000/svg">
<path d="M20.3951 9.14041H14.7059V2.03681C14.7059 1.34531 14.1401 0.779541 13.4486 0.779541H1.97602C1.28452 0.779541 0.71875 1.34531 0.71875 2.03681V26.9623C0.71875 27.6538 1.28452 28.2195 1.97602 28.2195H13.4486C14.1401 28.2195 14.7059 27.6538 14.7059 26.9623V17.9728H20.3951C20.898 17.9728 21.338 17.5641 21.338 17.0298V10.0834C21.3066 9.58046 20.898 9.14041 20.3951 9.14041ZM6.09359 2.13111H9.33107C9.5511 2.13111 9.77112 2.3197 9.77112 2.57116C9.77112 2.82261 9.58253 3.0112 9.33107 3.0112H6.09359C5.87357 3.0112 5.65355 2.82261 5.65355 2.57116C5.65355 2.3197 5.87357 2.13111 6.09359 2.13111ZM7.72805 27.0251C7.22514 27.0251 6.81653 26.6165 6.81653 26.1136C6.81653 25.6107 7.22514 25.2021 7.72805 25.2021C8.23096 25.2021 8.63957 25.6107 8.63957 26.1136C8.63957 26.6165 8.23096 27.0251 7.72805 27.0251ZM13.7001 23.9134H1.72457V4.29991H13.7001V9.14041H7.72805C7.22514 9.14041 6.7851 9.54903 6.7851 10.0834V17.0298C6.7851 17.5327 7.19371 17.9728 7.72805 17.9728H13.7315V23.9134H13.7001ZM14.203 14.9553H7.97951V14.641H14.203V14.9553ZM11.6885 15.9297V16.244H7.97951V15.9297H11.6885ZM20.7094 12.9437H7.3823V11.2778H20.7094V12.9437Z" fill="#FA9D1C"/>
</svg>
