<svg width="53" height="46" viewBox="0 0 53 46" fill="none" xmlns="http://www.w3.org/2000/svg">
<path opacity="0.1" d="M37.7867 0H8.79925C4.10136 0 0.292969 3.80839 0.292969 8.50628V37.4916C0.292969 42.1895 4.10136 45.9979 8.79925 45.9979H37.7867C42.4846 45.9979 46.293 42.1895 46.293 37.4916V8.50628C46.293 3.80839 42.4846 0 37.7867 0Z" fill="#FA9D1C"/>
<path d="M52.293 38C52.293 42.4192 48.7114 46 44.293 46C39.8746 46 36.293 42.4192 36.293 38C36.293 33.5824 39.8746 30 44.293 30C48.7114 30 52.293 33.5824 52.293 38Z" fill="url(#paint0_linear_2898_2986)"/>
<path d="M47.1502 41.0516C47.0454 41.0516 46.9398 41.0244 46.843 40.9676L43.7022 39.094C43.5214 38.9852 43.4102 38.7892 43.4102 38.578V34.5404C43.4102 34.2092 43.679 33.9404 44.0102 33.9404C44.3414 33.9404 44.6102 34.2092 44.6102 34.5404V38.2372L47.4582 39.9356C47.7422 40.106 47.8358 40.474 47.6662 40.7588C47.5534 40.9468 47.3542 41.0516 47.1502 41.0516Z" fill="white"/>
<path d="M18.8122 15.2202C18.2939 15.2202 17.8739 15.6402 17.8739 16.1585C17.8739 16.6768 18.2939 17.096 18.8122 17.096H27.2822C27.8005 17.096 28.2202 16.6771 28.2202 16.1585C28.2202 15.6402 27.8007 15.2202 27.2822 15.2202H18.8122ZM27.1347 17.8985H19.0385C17.8208 20.498 11.2351 23.7244 11.2934 31.3433C11.3424 37.6754 16.0692 38.7195 23.0684 38.7195H23.0872H23.1065C30.1049 38.7195 34.8322 37.6754 34.8809 31.3433C34.939 23.7243 28.3537 20.498 27.1357 17.8985H27.1347ZM23.5353 21.8537V22.5834C24.0163 22.6337 24.4305 22.7326 24.7733 22.8799C25.1189 23.0296 25.4181 23.2527 25.6757 23.5543C25.8782 23.7842 26.0347 24.0215 26.1453 24.2634C26.2556 24.5071 26.3108 24.7281 26.3108 24.9306C26.3108 25.1561 26.2278 25.3517 26.0647 25.5153C25.8991 25.6784 25.7009 25.7615 25.4665 25.7615C25.0246 25.7615 24.7369 25.522 24.6078 25.0457C24.4586 24.484 24.1013 24.1093 23.5356 23.925V26.73C24.0924 26.8821 24.5387 27.0222 24.8682 27.1489C25.1993 27.2732 25.4966 27.4551 25.7567 27.6943C26.035 27.9404 26.2511 28.2378 26.4033 28.5804C26.5525 28.9253 26.6288 29.3009 26.6288 29.7102C26.6288 30.2234 26.5088 30.7018 26.2675 31.1488C26.0256 31.5978 25.6712 31.961 25.2043 32.2465C24.7348 32.5291 24.18 32.6973 23.5359 32.7501V33.7482C23.5359 34.0125 23.5093 34.2057 23.4577 34.3281C23.4057 34.4494 23.294 34.5099 23.1169 34.5099C22.9562 34.5099 22.8424 34.462 22.7765 34.3626C22.7111 34.2643 22.6801 34.1098 22.6801 33.9022V32.764C22.1551 32.7064 21.6946 32.5827 21.3014 32.3936C20.908 32.205 20.5785 31.9701 20.3165 31.6894C20.054 31.4068 19.8582 31.1143 19.7342 30.8129C19.6075 30.5092 19.5451 30.21 19.5451 29.9173C19.5451 29.7038 19.6281 29.5077 19.7985 29.3355C19.9665 29.1627 20.1759 29.0754 20.4269 29.0754C20.6289 29.0754 20.7995 29.1215 20.9401 29.2155C21.0778 29.31 21.1748 29.4434 21.2299 29.6138C21.3494 29.9818 21.4555 30.2647 21.5452 30.4605C21.6374 30.6563 21.7726 30.8358 21.9548 30.9967C22.1366 31.158 22.3783 31.2823 22.6801 31.3672V28.2327C22.0766 28.0648 21.5752 27.8808 21.17 27.6758C20.765 27.4709 20.436 27.1808 20.1851 26.8037C19.9346 26.4263 19.8077 25.9406 19.8077 25.3468C19.8077 24.5735 20.0538 23.9384 20.5464 23.4461C21.039 22.9511 21.7499 22.6631 22.6799 22.583V21.8673C22.6799 21.4896 22.8223 21.3008 23.1052 21.3008C23.3932 21.3008 23.5356 21.4851 23.5356 21.8534L23.5353 21.8537ZM22.6795 26.4796V23.8977C22.3018 24.01 22.0069 24.1573 21.7953 24.3418C21.5837 24.5256 21.4779 24.8066 21.4779 25.1794C21.4779 25.5336 21.5767 25.803 21.7744 25.9849C21.9726 26.1668 22.2739 26.3323 22.6792 26.4799L22.6795 26.4796ZM23.5353 28.4815V31.4365C23.9885 31.3468 24.3383 31.1649 24.5869 30.8912C24.833 30.6148 24.9573 30.2973 24.9573 29.9312C24.9573 29.5401 24.8379 29.2385 24.596 29.0245C24.3565 28.8104 24.0021 28.6288 23.5353 28.4815L23.5353 28.4815ZM19.1979 14.6315H27.0753C28.2494 10.6701 30.1225 10.9934 28.6176 9.56712C27.1133 8.14002 22.0219 7.1757 18.6844 8.99981C15.3469 10.8234 18.0244 10.6701 19.1984 14.6318L19.1979 14.6315Z" fill="#FA9D1C"/>
<ellipse cx="23.5859" cy="28.6597" rx="5.5" ry="7.5" fill="#FA9D1C"/>
<path d="M21.7215 31L20.4358 28.6317H19.5073V31H18.293V25.0046H20.8882C21.1646 24.9868 21.4422 25.0207 21.7032 25.1042C21.9642 25.1876 22.203 25.3187 22.4045 25.4893C22.606 25.6598 22.7657 25.866 22.8736 26.0947C22.9814 26.3235 23.0351 26.5698 23.0311 26.8181C23.0409 27.16 22.9283 27.4956 22.7098 27.7759C22.4913 28.0562 22.1783 28.2664 21.8168 28.3757L23.293 30.936L21.7215 31ZM20.6739 26.1141H19.4596V27.6716H20.6739C20.8001 27.6904 20.9293 27.6843 21.0526 27.6538C21.1759 27.6233 21.2903 27.5691 21.3879 27.495C21.4854 27.4209 21.5638 27.3287 21.6176 27.2247C21.6714 27.1207 21.6992 27.0074 21.6992 26.8928C21.6992 26.7782 21.6714 26.665 21.6176 26.561C21.5638 26.457 21.4854 26.3647 21.3879 26.2906C21.2903 26.2165 21.1759 26.1623 21.0526 26.1318C20.9293 26.1013 20.8001 26.0953 20.6739 26.1141Z" fill="#FBEBD5"/>
<path d="M27.7605 31.0505C27.4436 31.3158 27.0293 31.4556 26.6047 31.4404C26.3931 31.4542 26.1809 31.4223 25.9846 31.3472C25.7882 31.2721 25.6128 31.1558 25.4719 31.0072V33H24.293V27H25.4488V27.4765C25.5946 27.3206 25.7768 27.1984 25.9814 27.1195C26.1859 27.0406 26.4071 27.0071 26.6278 27.0217C27.0524 27.0065 27.4668 27.1463 27.7837 27.4116C28.1872 27.9461 28.3605 28.6036 28.2691 29.2527C28.3398 29.8901 28.1589 30.5297 27.7605 31.0505ZM26.281 27.9314C25.5875 27.9314 25.4951 28.4729 25.4951 29.1877C25.4951 29.9025 25.4951 30.444 26.281 30.444C27.067 30.444 27.067 29.9025 27.067 29.1877C27.067 28.4729 26.9052 27.9314 26.2117 27.9314H26.281Z" fill="#FBEBD5"/>
<defs>
<linearGradient id="paint0_linear_2898_2986" x1="44.293" y1="30" x2="44.453" y2="51.36" gradientUnits="userSpaceOnUse">
<stop stop-color="#FFE70D"/>
<stop offset="0.55706" stop-color="#FFD605" stop-opacity="0.82"/>
<stop offset="1" stop-color="#FFCA06" stop-opacity="0"/>
</linearGradient>
</defs>
</svg>
