<?xml version="1.0"?>
<svg width="1000" height="1000" xmlns="http://www.w3.org/2000/svg" xmlns:svg="http://www.w3.org/2000/svg" enable-background="new 0 0 1000 1000" version="1.1" xml:space="preserve">
 <metadata>Svg Vector Icons : http://www.onlinewebfonts.com/icon</metadata>
 <g class="layer">
  <title>Layer 1</title>
  <g id="svg_1">
   <path d="m115.373084,312.09458c-5.911884,0 -10.689981,-4.778098 -10.689981,-10.689981l0,-126.660084c0,-39.520538 32.150929,-71.671467 71.590482,-71.671467l126.498114,0c5.911884,0 10.689981,4.778098 10.689981,10.689981c0,5.911884 -4.778098,10.689981 -10.689981,10.689981l-126.498114,0c-27.69677,0 -50.291504,22.594734 -50.291504,50.291504l0,126.741069c0,5.830899 -4.778098,10.608997 -10.608997,10.608997l0,0z" fill="#000" id="svg_2"/>
   <path d="m304.985281,896.723189l-130.061442,0c-39.439553,0 -71.590482,-32.150929 -71.590482,-71.671467l0,-126.579099c0,-5.911884 4.778098,-10.689981 10.689981,-10.689981c5.911884,0 10.689981,4.778098 10.689981,10.689981l0,126.579099c0,27.69677 22.594734,50.291504 50.291504,50.291504l129.980457,0c5.911884,0 10.689981,4.778098 10.689981,10.689981c0,5.911884 -4.778098,10.689981 -10.689981,10.689981l0,0z" fill="#000" id="svg_3"/>
   <path d="m825.312032,896.723189l-132.329013,0c-5.911884,0 -10.689981,-4.778098 -10.689981,-10.689981s4.778098,-10.689981 10.689981,-10.689981l132.329013,0c27.777755,0 50.291504,-22.594734 50.291504,-50.291504l0,-127.469931c0,-5.911884 4.778098,-10.689981 10.689981,-10.689981c5.911884,0 10.689981,4.778098 10.689981,10.689981l0,127.469931c0,39.520538 -32.150929,71.671467 -71.671467,71.671467l0,0z" fill="#000" id="svg_4"/>
   <path d="m887.643262,311.122764c-5.911884,0 -10.689981,-4.778098 -10.689981,-10.689981l0,-125.688267c0,-27.777755 -22.594734,-50.291504 -50.291504,-50.291504l-127.712885,0c-5.911884,0 -10.689981,-4.778098 -10.689981,-10.689981c0,-5.911884 4.778098,-10.689981 10.689981,-10.689981l127.712885,0c39.520538,0 71.671467,32.150929 71.671467,71.671467l0,125.688267c0,5.911884 -4.778098,10.689981 -10.689981,10.689981l0,0z" fill="#000" id="svg_5"/>
  </g>
 </g>
</svg>