<svg width="30" height="30" viewBox="0 0 30 30" fill="none" xmlns="http://www.w3.org/2000/svg">
<circle cx="15" cy="15" r="14.5" stroke="url(#paint0_linear_341_69)"/>
<path d="M15.296 21.192C14.4533 21.192 13.744 21.0373 13.168 20.728C12.592 20.4187 12.128 20.0027 11.776 19.48C11.424 18.9573 11.168 18.376 11.008 17.736C10.8587 17.096 10.784 16.44 10.784 15.768C10.784 14.52 10.96 13.4373 11.312 12.52C11.664 11.592 12.1707 10.8773 12.832 10.376C13.4933 9.864 14.2933 9.608 15.232 9.608C16 9.608 16.6507 9.76267 17.184 10.072C17.728 10.3707 18.1493 10.7653 18.448 11.256C18.7467 11.7467 18.9227 12.2747 18.976 12.84H17.072C16.976 12.3493 16.768 11.9707 16.448 11.704C16.128 11.4373 15.7173 11.304 15.216 11.304C14.5013 11.304 13.9253 11.6347 13.488 12.296C13.0507 12.9467 12.816 13.944 12.784 15.288C13.04 14.8507 13.424 14.488 13.936 14.2C14.448 13.912 15.0187 13.768 15.648 13.768C16.2667 13.768 16.848 13.9173 17.392 14.216C17.936 14.5147 18.3733 14.936 18.704 15.48C19.0453 16.024 19.216 16.664 19.216 17.4C19.216 18.072 19.0507 18.696 18.72 19.272C18.4 19.848 17.9413 20.312 17.344 20.664C16.7573 21.016 16.0747 21.192 15.296 21.192ZM15.184 19.432C15.7813 19.432 16.272 19.2507 16.656 18.888C17.0507 18.5147 17.248 18.0453 17.248 17.48C17.248 16.8827 17.0507 16.4027 16.656 16.04C16.2613 15.6773 15.76 15.496 15.152 15.496C14.7573 15.496 14.4 15.5867 14.08 15.768C13.7707 15.9387 13.5253 16.1733 13.344 16.472C13.1627 16.76 13.072 17.0853 13.072 17.448C13.072 18.024 13.2693 18.4987 13.664 18.872C14.0693 19.2453 14.576 19.432 15.184 19.432Z" fill="#50B74A"/>
<defs>
<linearGradient id="paint0_linear_341_69" x1="15" y1="0" x2="15" y2="30" gradientUnits="userSpaceOnUse">
<stop stop-color="#E4DFDF"/>
<stop offset="1" stop-color="#4ECB71"/>
</linearGradient>
</defs>
</svg>
