<svg width="30" height="30" viewBox="0 0 30 30" fill="none" xmlns="http://www.w3.org/2000/svg">
<circle cx="15" cy="15" r="14.5" stroke="url(#paint0_linear_341_57)"/>
<path d="M10.816 21V19.512C11.4987 18.9467 12.16 18.3867 12.8 17.832C13.4507 17.2773 14.0267 16.728 14.528 16.184C15.04 15.64 15.4453 15.112 15.744 14.6C16.0533 14.0773 16.208 13.5707 16.208 13.08C16.208 12.6213 16.08 12.216 15.824 11.864C15.5787 11.512 15.168 11.336 14.592 11.336C14.0053 11.336 13.5627 11.528 13.264 11.912C12.9653 12.296 12.816 12.76 12.816 13.304H10.832C10.8533 12.4827 11.0347 11.8 11.376 11.256C11.7173 10.7013 12.1707 10.2907 12.736 10.024C13.3013 9.74667 13.936 9.608 14.64 9.608C15.7813 9.608 16.6667 9.92267 17.296 10.552C17.936 11.1707 18.256 11.976 18.256 12.968C18.256 13.5867 18.112 14.1893 17.824 14.776C17.5467 15.3627 17.1787 15.928 16.72 16.472C16.2613 17.016 15.7653 17.528 15.232 18.008C14.6987 18.4773 14.1813 18.9147 13.68 19.32H18.528V21H10.816Z" fill="#50B74A"/>
<defs>
<linearGradient id="paint0_linear_341_57" x1="15" y1="0" x2="15" y2="30" gradientUnits="userSpaceOnUse">
<stop stop-color="#E4DFDF"/>
<stop offset="1" stop-color="#4ECB71"/>
</linearGradient>
</defs>
</svg>
