<svg width="30" height="30" viewBox="0 0 30 30" fill="none" xmlns="http://www.w3.org/2000/svg">
<circle cx="15" cy="15" r="14.5" stroke="url(#paint0_linear_341_60)"/>
<path d="M14.752 21.192C14.016 21.192 13.3493 21.064 12.752 20.808C12.1547 20.5413 11.6747 20.136 11.312 19.592C10.9493 19.048 10.7573 18.3653 10.736 17.544H12.752C12.7627 18.088 12.9387 18.5467 13.28 18.92C13.632 19.2827 14.1227 19.464 14.752 19.464C15.3493 19.464 15.808 19.2987 16.128 18.968C16.448 18.6373 16.608 18.2213 16.608 17.72C16.608 17.1333 16.3947 16.6907 15.968 16.392C15.552 16.0827 15.0133 15.928 14.352 15.928H13.52V14.248H14.368C14.912 14.248 15.3653 14.12 15.728 13.864C16.0907 13.608 16.272 13.2293 16.272 12.728C16.272 12.312 16.1333 11.9813 15.856 11.736C15.5893 11.48 15.216 11.352 14.736 11.352C14.2133 11.352 13.8027 11.5067 13.504 11.816C13.216 12.1253 13.056 12.504 13.024 12.952H11.024C11.0667 11.9173 11.424 11.1013 12.096 10.504C12.7787 9.90667 13.6587 9.608 14.736 9.608C15.504 9.608 16.1493 9.74667 16.672 10.024C17.2053 10.2907 17.6053 10.648 17.872 11.096C18.1493 11.544 18.288 12.04 18.288 12.584C18.288 13.2133 18.112 13.7467 17.76 14.184C17.4187 14.6107 16.992 14.8987 16.48 15.048C17.1093 15.176 17.6213 15.4853 18.016 15.976C18.4107 16.456 18.608 17.064 18.608 17.8C18.608 18.4187 18.4587 18.984 18.16 19.496C17.8613 20.008 17.424 20.4187 16.848 20.728C16.2827 21.0373 15.584 21.192 14.752 21.192Z" fill="#50B74A"/>
<defs>
<linearGradient id="paint0_linear_341_60" x1="15" y1="0" x2="15" y2="30" gradientUnits="userSpaceOnUse">
<stop stop-color="#E4DFDF"/>
<stop offset="1" stop-color="#4ECB71"/>
</linearGradient>
</defs>
</svg>
