<svg id="Layer_1" data-name="Layer 1" xmlns="http://www.w3.org/2000/svg" viewBox="0 0 73.98 58.85"><defs><style>.cls-1{fill:#001e61;}.cls-2{fill:none;stroke:#001e61;stroke-miterlimit:10;stroke-width:0.57px;}</style></defs><title>donasi</title><path class="cls-1" d="M68.12,5.86A17.8,17.8,0,0,0,52.52.48a25.37,25.37,0,0,0-14,7.41L37,9.38,35.51,7.89a25.4,25.4,0,0,0-14-7.41A17.82,17.82,0,0,0,5.86,5.86c-9.45,9.44-5.6,22,2,29.57l0,0c.6.53,14.89,13.12,28.57,22.65l.54.38.55-.38a361.24,361.24,0,0,0,28.61-22.7C73.72,27.81,77.57,15.3,68.12,5.86ZM47.44,48.43H38.11A5.25,5.25,0,0,1,34.46,47l-6.75-8.08a1.51,1.51,0,1,1,2.3-2s.63.66,4.93,5.08a2.56,2.56,0,0,0,0,.39,3,3,0,0,0,3,3h6.14a.75.75,0,1,0,0-1.5H37.93a1.51,1.51,0,0,1,0-3h8.55a.73.73,0,0,0,.3-.06A8.77,8.77,0,0,1,55.53,42C53.12,43.93,50.36,46.15,47.44,48.43Zm2.66-9.8a9.69,9.69,0,0,0-3.77.76h-8.4a3.05,3.05,0,0,0-2.35,1.12l-4.44-4.57a3,3,0,0,0-4.59,3.91C33.78,48.49,33.33,48,33.39,48a6.72,6.72,0,0,0,4.72,1.92h7.38c-2.76,2.12-5.64,4.25-8.5,6.25C23.71,46.87,10,34.83,9.16,34.07,3.09,27.94-.39,18.42,4.63,10.42l9,8.58a2.24,2.24,0,0,0,2,.63,9.32,9.32,0,0,0,8.5,4.81,9.72,9.72,0,0,0,3.77-.75h8.4a3,3,0,0,0,2.34-1.12l4.45,4.57a3,3,0,0,0,4.59-3.91c-7.23-8.64-6.78-8.11-6.84-8.17a6.77,6.77,0,0,0-4.73-1.92h-10a2.23,2.23,0,0,1-1.57-.63l-.79-.76a2.26,2.26,0,0,0-.53-2.34L15.9,2.47a16.13,16.13,0,0,1,5.29-.1,23.77,23.77,0,0,1,13,6.87L37,12.07l2.84-2.83a23.75,23.75,0,0,1,13-6.87,16,16,0,0,1,14,4.83c8.53,8.53,5,19.92-1.93,26.85-.27.24-3.47,3.06-8.18,7A9.68,9.68,0,0,0,50.1,38.63Zm-13.8-21H30.15a.76.76,0,0,0,0,1.51H36.3a1.51,1.51,0,1,1,0,3H27.75a.82.82,0,0,0-.31.07,8.15,8.15,0,0,1-3.31.69,7.78,7.78,0,0,1-7.19-4.06l5.9-5.9.64.61a3.78,3.78,0,0,0,2.62,1.06h10a5.26,5.26,0,0,1,3.66,1.47l6.75,8.08a1.5,1.5,0,1,1-2.3,1.94l-4.93-5.07a2.56,2.56,0,0,0,0-.39A3,3,0,0,0,36.3,17.66ZM22.14,11.54C15.37,18.3,15.75,18,15.62,18a.75.75,0,0,1-.94-.1L5.49,9.18a20.62,20.62,0,0,1,1.72-2,17,17,0,0,1,6.94-4.3l8,7.58A.75.75,0,0,1,22.14,11.54Z"/><path class="cls-1" d="M37.11,26.24a5.36,5.36,0,1,0,5.36,5.36A5.36,5.36,0,0,0,37.11,26.24Zm0,9.08a3.73,3.73,0,1,1,3.72-3.72A3.73,3.73,0,0,1,37.11,35.32Z"/><path class="cls-2" d="M68.12,5.86A17.8,17.8,0,0,0,52.52.48a25.37,25.37,0,0,0-14,7.41L37,9.38,35.51,7.89a25.4,25.4,0,0,0-14-7.41A17.82,17.82,0,0,0,5.86,5.86c-9.45,9.44-5.6,22,2,29.57l0,0c.6.53,14.89,13.12,28.57,22.65l.54.38.55-.38a361.24,361.24,0,0,0,28.61-22.7C73.72,27.81,77.57,15.3,68.12,5.86ZM47.44,48.43H38.11A5.25,5.25,0,0,1,34.46,47l-6.75-8.08a1.51,1.51,0,1,1,2.3-2s.63.66,4.93,5.08a2.56,2.56,0,0,0,0,.39,3,3,0,0,0,3,3h6.14a.75.75,0,1,0,0-1.5H37.93a1.51,1.51,0,0,1,0-3h8.55a.73.73,0,0,0,.3-.06A8.77,8.77,0,0,1,55.53,42C53.12,43.93,50.36,46.15,47.44,48.43Zm2.66-9.8a9.69,9.69,0,0,0-3.77.76h-8.4a3.05,3.05,0,0,0-2.35,1.12l-4.44-4.57a3,3,0,0,0-4.59,3.91C33.78,48.49,33.33,48,33.39,48a6.72,6.72,0,0,0,4.72,1.92h7.38c-2.76,2.12-5.64,4.25-8.5,6.25C23.71,46.87,10,34.83,9.16,34.07,3.09,27.94-.39,18.42,4.63,10.42l9,8.58a2.24,2.24,0,0,0,2,.63,9.32,9.32,0,0,0,8.5,4.81,9.72,9.72,0,0,0,3.77-.75h8.4a3,3,0,0,0,2.34-1.12l4.45,4.57a3,3,0,0,0,4.59-3.91c-7.23-8.64-6.78-8.11-6.84-8.17a6.77,6.77,0,0,0-4.73-1.92h-10a2.23,2.23,0,0,1-1.57-.63l-.79-.76a2.26,2.26,0,0,0-.53-2.34L15.9,2.47a16.13,16.13,0,0,1,5.29-.1,23.77,23.77,0,0,1,13,6.87L37,12.07l2.84-2.83a23.75,23.75,0,0,1,13-6.87,16,16,0,0,1,14,4.83c8.53,8.53,5,19.92-1.93,26.85-.27.24-3.47,3.06-8.18,7A9.68,9.68,0,0,0,50.1,38.63Zm-13.8-21H30.15a.76.76,0,0,0,0,1.51H36.3a1.51,1.51,0,1,1,0,3H27.75a.82.82,0,0,0-.31.07,8.15,8.15,0,0,1-3.31.69,7.78,7.78,0,0,1-7.19-4.06l5.9-5.9.64.61a3.78,3.78,0,0,0,2.62,1.06h10a5.26,5.26,0,0,1,3.66,1.47l6.75,8.08a1.5,1.5,0,1,1-2.3,1.94l-4.93-5.07a2.56,2.56,0,0,0,0-.39A3,3,0,0,0,36.3,17.66ZM22.14,11.54C15.37,18.3,15.75,18,15.62,18a.75.75,0,0,1-.94-.1L5.49,9.18a20.62,20.62,0,0,1,1.72-2,17,17,0,0,1,6.94-4.3l8,7.58A.75.75,0,0,1,22.14,11.54Z"/><path class="cls-2" d="M37.11,26.24a5.36,5.36,0,1,0,5.36,5.36A5.36,5.36,0,0,0,37.11,26.24Zm0,9.08a3.73,3.73,0,1,1,3.72-3.72A3.73,3.73,0,0,1,37.11,35.32Z"/></svg>