<svg width="18" height="18" viewBox="0 0 18 18" fill="none" xmlns="http://www.w3.org/2000/svg">
<path fill-rule="evenodd" clip-rule="evenodd" d="M2.44048 0.666748H15.5602C16.54 0.666748 17.3337 1.48429 17.3337 2.49363V3.76988C17.3337 4.25952 17.1423 4.72972 16.8026 5.07265L11.3817 10.5559C11.2882 10.6514 11.1612 10.7044 11.0299 10.7035L6.4911 10.6894C6.35296 10.6894 6.22169 10.6302 6.12731 10.5268L1.14576 5.0479C0.837734 4.70939 0.666992 4.26217 0.666992 3.79816V2.49451C0.666992 1.48518 1.46064 0.666748 2.44048 0.666748ZM6.73374 12.1869L10.7792 12.1992C11.0315 12.2001 11.2357 12.4114 11.2357 12.6703V14.9462C11.2357 15.206 11.0881 15.4411 10.8582 15.5498L7.18591 17.2742C7.10011 17.314 7.00916 17.3334 6.91821 17.3334C6.79724 17.3334 6.67626 17.2981 6.57072 17.2282C6.38625 17.1063 6.27471 16.8959 6.27471 16.6705V12.6579C6.27471 12.3972 6.48063 12.186 6.73374 12.1869Z" fill="#888FA6"/>
</svg>
