<svg id="2d29f394-509e-4f59-9304-2a155ad49971" data-name="Layer 1" xmlns="http://www.w3.org/2000/svg" viewBox="0 0 513 513"><defs><style>.f2f7381f-c5a6-44dc-bd07-e9a53266abc7{fill:#277286;}.\34 2079f5c-c5ef-4ae3-9b95-435b5a09dd93{fill:#ec8a5b;}.\32 fa3cc41-1679-4023-a4ef-469d5d128796{fill:#fff;}</style></defs><title>Icon QR.a BARU</title><rect class="f2f7381f-c5a6-44dc-bd07-e9a53266abc7" x="87.8" y="74.3" width="305" height="305.01" rx="15.5" ry="15.5"/><path class="42079f5c-c5ef-4ae3-9b95-435b5a09dd93" d="M423.9,110.6a8,8,0,0,1-7.9-7.9V71.5a15.8,15.8,0,0,0-15.8-15.8h-21a8,8,0,0,1,0-15.9h21a31.7,31.7,0,0,1,31.7,31.7v31.2a8,8,0,0,1-8,7.9"/><path class="42079f5c-c5ef-4ae3-9b95-435b5a09dd93" d="M55.2,110.6a7.9,7.9,0,0,1-7.9-7.9V71.5A31.6,31.6,0,0,1,78.9,39.8h21a8,8,0,0,1,0,15.9h-21A15.8,15.8,0,0,0,63.1,71.5v31.2a7.9,7.9,0,0,1-7.9,7.9"/><path class="42079f5c-c5ef-4ae3-9b95-435b5a09dd93" d="M99.9,424.4h-21a31.6,31.6,0,0,1-31.6-31.6v-22a7.9,7.9,0,1,1,15.8,0v22a15.8,15.8,0,0,0,15.8,15.8h21a7.9,7.9,0,1,1,0,15.8"/><path class="2fa3cc41-1679-4023-a4ef-469d5d128796" d="M351.2,111.7a6,6,0,0,1,5.9,5.9v82.6a5.9,5.9,0,0,1-5.9,6H268.4a5.9,5.9,0,0,1-5.9-6V117.6a6,6,0,0,1,5.9-5.9Zm-6.1,11.9H274.4v70.7h70.7Z"/><path class="2fa3cc41-1679-4023-a4ef-469d5d128796" d="M213.2,111.7a5.9,5.9,0,0,1,5.9,5.9V138a6,6,0,1,1-11.9,0V123.6H136.4v70.7h70.8v-9.7a6,6,0,1,1,11.9,0v15.6a5.9,5.9,0,0,1-5.9,6H130.5a6,6,0,0,1-6-6V117.6a5.9,5.9,0,0,1,6-5.9Z"/><path class="2fa3cc41-1679-4023-a4ef-469d5d128796" d="M213.2,249.6a6,6,0,0,1,5.9,6v82.6a5.9,5.9,0,0,1-5.9,6H130.5a6,6,0,0,1-6-6V255.6a6,6,0,0,1,6-6Zm-6,12H136.4v70.7h70.8Z"/><path class="2fa3cc41-1679-4023-a4ef-469d5d128796" d="M351.2,249.6a6,6,0,0,1,5.9,6v82.6a5.9,5.9,0,0,1-5.9,6H268.4a5.9,5.9,0,0,1-5.9-6V255.6a6,6,0,0,1,5.9-6Zm-6.1,12H274.4v70.7h70.7Z"/><path class="2fa3cc41-1679-4023-a4ef-469d5d128796" d="M239.8,111.7a5.9,5.9,0,0,1,6,5.9V222.7H351.1a6,6,0,1,1,0,11.9H245.8V338.2a6,6,0,0,1-6,6,6,6,0,0,1-6-6V234.6H154.2a6,6,0,1,1,0-11.9h79.6V117.6a5.9,5.9,0,0,1,6-5.9"/><path class="42079f5c-c5ef-4ae3-9b95-435b5a09dd93" d="M401.1,241.9H78c-8.9,0-16.1-6.2-16.1-13.9s7.2-14,16.1-14H401.1c8.9,0,16.1,6.3,16.1,14s-7.2,13.9-16.1,13.9"/><circle class="42079f5c-c5ef-4ae3-9b95-435b5a09dd93" cx="367.8" cy="329.6" r="145.2"/><path class="f2f7381f-c5a6-44dc-bd07-e9a53266abc7" d="M426.9,340l43.8-38.3a5.6,5.6,0,0,0,1.8-4.1,5.9,5.9,0,0,0-1.8-4.1l-43.8-38.2a5.4,5.4,0,0,0-9,4.1v21.8h-81a5.5,5.5,0,0,0-5.5,5.5v21.9a5.5,5.5,0,0,0,5.5,5.4h81v21.9a5.5,5.5,0,0,0,3.2,5A5.4,5.4,0,0,0,426.9,340Z"/><path class="2fa3cc41-1679-4023-a4ef-469d5d128796" d="M314.6,396.9a5.5,5.5,0,0,0,3.2-5V370.1h81a5.5,5.5,0,0,0,5.5-5.5V342.7a5.5,5.5,0,0,0-5.5-5.4h-81V315.4a5.6,5.6,0,0,0-3.2-5,5.6,5.6,0,0,0-5.9.9L265,349.6a5.3,5.3,0,0,0-1.9,4.1,5.6,5.6,0,0,0,1.9,4.1L308.7,396A5.3,5.3,0,0,0,314.6,396.9Z"/></svg>