<svg id="cf907ae0-5ed5-4831-94f0-35843be99fb3" data-name="Layer 1" xmlns="http://www.w3.org/2000/svg" viewBox="0 0 513 513"><defs><style>.\39 b94a26f-631b-4a35-b875-ddab82d5caf9{fill:#277286;}.f5bfc482-43ac-4b77-8d11-4788e8ee190f{fill:#ec8a5b;}.\32 3202ae3-abbe-44f7-a9e6-44c62812e3c1{fill:#fff;}.\34 69c23ed-ab42-4917-ac35-09641e5a11e2{fill:#ec8a5a;}</style></defs><title>Icon QR.a BARU</title><rect class="9b94a26f-631b-4a35-b875-ddab82d5caf9" x="87.8" y="74.3" width="305" height="305.01" rx="15.5" ry="15.5"/><path class="f5bfc482-43ac-4b77-8d11-4788e8ee190f" d="M423.9,110.6a8,8,0,0,1-7.9-7.9V71.5a15.8,15.8,0,0,0-15.8-15.8h-21a8,8,0,0,1,0-15.9h21a31.7,31.7,0,0,1,31.7,31.7v31.2a8,8,0,0,1-8,7.9"/><path class="f5bfc482-43ac-4b77-8d11-4788e8ee190f" d="M55.2,110.6a7.9,7.9,0,0,1-7.9-7.9V71.5A31.6,31.6,0,0,1,78.9,39.8h21a8,8,0,0,1,0,15.9h-21A15.8,15.8,0,0,0,63.1,71.5v31.2a7.9,7.9,0,0,1-7.9,7.9"/><path class="f5bfc482-43ac-4b77-8d11-4788e8ee190f" d="M99.9,424.4h-21a31.6,31.6,0,0,1-31.6-31.6v-22a7.9,7.9,0,1,1,15.8,0v22a15.8,15.8,0,0,0,15.8,15.8h21a7.9,7.9,0,1,1,0,15.8"/><path class="23202ae3-abbe-44f7-a9e6-44c62812e3c1" d="M351.2,111.7a6,6,0,0,1,5.9,5.9v82.6a5.9,5.9,0,0,1-5.9,6H268.4a5.9,5.9,0,0,1-5.9-6V117.6a6,6,0,0,1,5.9-5.9Zm-6.1,11.9H274.4v70.7h70.7Z"/><path class="23202ae3-abbe-44f7-a9e6-44c62812e3c1" d="M213.2,111.7a5.9,5.9,0,0,1,5.9,5.9V138a6,6,0,1,1-11.9,0V123.6H136.4v70.7h70.8v-9.7a6,6,0,1,1,11.9,0v15.6a5.9,5.9,0,0,1-5.9,6H130.5a6,6,0,0,1-6-6V117.6a5.9,5.9,0,0,1,6-5.9Z"/><path class="23202ae3-abbe-44f7-a9e6-44c62812e3c1" d="M213.2,249.6a6,6,0,0,1,5.9,6v82.6a5.9,5.9,0,0,1-5.9,6H130.5a6,6,0,0,1-6-6V255.6a6,6,0,0,1,6-6Zm-6,12H136.4v70.7h70.8Z"/><path class="23202ae3-abbe-44f7-a9e6-44c62812e3c1" d="M247.8,222.7h-2V117.6a5.9,5.9,0,0,0-6-5.9,5.9,5.9,0,0,0-6,5.9V222.7h-2.1v11.9h2.1V338.2a6,6,0,0,0,6,6,6,6,0,0,0,6-6V234.6h2Z"/><circle class="469c23ed-ab42-4917-ac35-09641e5a11e2" cx="367.8" cy="329.6" r="145.2"/><path class="23202ae3-abbe-44f7-a9e6-44c62812e3c1" d="M451.1,312.1H271.6v51.3a12.8,12.8,0,0,0,12.9,12.8H451.2A12.8,12.8,0,0,0,464,363.4V312.1ZM290.6,359.3V330.1H447.8v29.2Z"/><rect class="9b94a26f-631b-4a35-b875-ddab82d5caf9" x="332.4" y="261.9" width="77.3" height="97.32"/><path class="23202ae3-abbe-44f7-a9e6-44c62812e3c1" d="M357,322.1a14,14,0,0,1,.4-3.7,8,8,0,0,1,1.3-2.8,5.2,5.2,0,0,1,2.3-1.8,7.5,7.5,0,0,1,3.1-.6,8.2,8.2,0,0,1,4,.9,7.3,7.3,0,0,1,2.4,2.8l7.4-4h.4l.5.2a.8.8,0,0,1,.2.5v4.3a1.2,1.2,0,0,1-.3.9,1,1,0,0,1-.5.4l-6.7,3.6v2.9h6.7l.7.2a1.4,1.4,0,0,1,.2.6v4.2a.7.7,0,0,1-.2.6l-.6.2-20.4.2-.6-.2a1.4,1.4,0,0,1-.2-.6Zm9.6,3.5V322a4.3,4.3,0,0,0-.6-2.1,2.3,2.3,0,0,0-3.6,0,3.8,3.8,0,0,0-.5,2.2v3.6Zm12.6-25.7a7.8,7.8,0,0,1-.2,1.6,3.3,3.3,0,0,1-.5,1.2,2.4,2.4,0,0,1-.6.9l-.6.5H384l.6.2a.9.9,0,0,1,.3.6v4a.7.7,0,0,1-.2.6.9.9,0,0,1-.6.3H363.4a.7.7,0,0,1-.6-.2c-.2-.2-.3-.4-.2-.6v-3.8a.7.7,0,0,1,.3-.6.6.6,0,0,1,.6-.3h.7l-.7-.6-.6-.8a3.4,3.4,0,0,1-.4-1.2,4.7,4.7,0,0,1-.2-1.7,5.9,5.9,0,0,1,.4-2.7,4.5,4.5,0,0,1,1.3-2.2,6,6,0,0,1,2.2-1.6,10.1,10.1,0,0,1,3.2-.7h2.6a10.1,10.1,0,0,1,3.2.6,7.6,7.6,0,0,1,2.3,1.5,7.1,7.1,0,0,1,1.3,2.2,8.6,8.6,0,0,1,.5,2.7m-7.7-1.3a4.8,4.8,0,0,0-1.7,0,2.9,2.9,0,0,0-1.9.7,2.6,2.6,0,0,0-.9,2.1,3.5,3.5,0,0,0,.3,1.2,1.2,1.2,0,0,0,.6.8,1.6,1.6,0,0,0,.8.6l.9.2h2.2a3.2,3.2,0,0,0,.9-.3l.8-.5.6-.8a5,5,0,0,0,.2-1.2,2.6,2.6,0,0,0-.8-2.1,2.9,2.9,0,0,0-2-.7"/><path class="f5bfc482-43ac-4b77-8d11-4788e8ee190f" d="M401.1,241.9H78c-8.9,0-16.1-6.2-16.1-13.9s7.2-14,16.1-14H401.1c8.9,0,16.1,6.3,16.1,14s-7.2,13.9-16.1,13.9"/></svg>