<svg width="35" height="29" viewBox="0 0 35 29" fill="none" xmlns="http://www.w3.org/2000/svg">
<circle cx="8.14648" cy="23.4494" r="1.53096" transform="rotate(168.645 8.14648 23.4494)" stroke="#86D1F0" stroke-width="0.222849"/>
<path d="M8.76478 8.93708C8.76478 8.93708 6.81788 9.31602 6.43903 11.2628C6.43903 11.2628 6.06018 9.31592 4.11328 8.93708C6.06009 8.55823 6.43903 6.61133 6.43903 6.61133C6.81788 8.55823 8.76478 8.93708 8.76478 8.93708ZM9.25356 7.62518C9.25356 7.62518 9.16503 8.08009 8.71013 8.16861C9.16504 8.25715 9.25356 8.71204 9.25356 8.71204C9.3421 8.25714 9.79699 8.16861 9.79699 8.16861C9.79699 8.16861 9.34209 8.08008 9.25356 7.62518ZM8.40676 10.124C8.40676 10.124 8.24034 10.9794 7.38491 11.1459C8.24034 11.3123 8.40676 12.1676 8.40676 12.1676C8.57327 11.3123 9.42861 11.1458 9.42861 11.1458C9.42861 11.1458 8.57327 10.9794 8.40676 10.124ZM11.5202 9.52972L11.2892 8.70781L11.0582 9.52972L10.2363 9.7607L11.0582 9.99169L11.2892 10.8136L11.5202 9.99169L12.3421 9.7607L11.5202 9.52972Z" fill="#86D1F0"/>
<path d="M1.66842 16.0716C1.66734 16.0723 1.66617 16.0729 1.66489 16.0731C1.66352 16.0733 1.66215 16.0735 1.66059 16.0735C1.65637 16.0735 1.65295 16.0723 1.6504 16.07C1.64776 16.0676 1.64648 16.0644 1.64648 16.0602C1.64648 16.0563 1.64776 16.0531 1.6504 16.0508C1.65295 16.0482 1.65637 16.0469 1.66059 16.0469C1.66215 16.0469 1.66352 16.0472 1.66489 16.0477C1.66617 16.048 1.66734 16.0483 1.66842 16.0488V16.0543C1.66734 16.0533 1.66617 16.0527 1.66489 16.0524C1.66352 16.0519 1.66225 16.0516 1.66098 16.0516C1.65863 16.0516 1.65677 16.0524 1.65549 16.0539C1.65412 16.0555 1.65353 16.0576 1.65353 16.0602C1.65353 16.0628 1.65412 16.0649 1.65549 16.0665C1.65677 16.068 1.65863 16.0688 1.66098 16.0688C1.66225 16.0688 1.66352 16.0687 1.66489 16.0684C1.66617 16.0679 1.66734 16.0672 1.66842 16.0665V16.0716Z" fill="#86D1F0"/>
<path d="M1.68362 16.0581C1.68305 16.0579 1.68257 16.0577 1.6821 16.0577C1.68153 16.0575 1.68105 16.0573 1.68058 16.0573C1.67905 16.0573 1.67772 16.0579 1.67677 16.0588C1.67601 16.0599 1.67563 16.0613 1.67563 16.063V16.0718H1.66992V16.0531H1.67563V16.0562C1.67639 16.0549 1.67725 16.0541 1.67829 16.0535C1.67924 16.053 1.68058 16.0527 1.6821 16.0527H1.68248H1.68362L1.68362 16.0581Z" fill="#86D1F0"/>
<path d="M1.70767 16.0622V16.0641H1.69359C1.69359 16.0655 1.69397 16.0664 1.69473 16.0672C1.69568 16.068 1.69701 16.0683 1.69853 16.0683C1.69977 16.0683 1.70101 16.0682 1.70234 16.068C1.70386 16.0675 1.70519 16.0668 1.70652 16.0661V16.0706C1.70519 16.0712 1.70386 16.0716 1.70234 16.0718C1.70101 16.0719 1.69968 16.0721 1.69815 16.0721C1.69482 16.0721 1.69216 16.0714 1.69016 16.0699C1.68836 16.0681 1.6875 16.0656 1.6875 16.0622C1.6875 16.0592 1.68836 16.0569 1.69016 16.0554C1.69188 16.0537 1.69444 16.0527 1.69777 16.0527C1.70082 16.0527 1.7032 16.0537 1.705 16.0554C1.70672 16.0572 1.70767 16.0595 1.70767 16.0622H1.70767ZM1.70158 16.0603C1.70158 16.0594 1.7012 16.0584 1.70044 16.0577C1.69968 16.0569 1.69872 16.0565 1.69777 16.0565C1.69644 16.0565 1.69549 16.0569 1.69473 16.0577C1.69416 16.0583 1.69378 16.0591 1.69359 16.0603H1.70158Z" fill="#86D1F0"/>
<path d="M1.71692 16.0634C1.71559 16.0634 1.71464 16.0637 1.71388 16.0641C1.71331 16.0644 1.71312 16.0649 1.71312 16.0657C1.71312 16.0664 1.71331 16.0671 1.71388 16.0676C1.71436 16.0681 1.71502 16.0683 1.71578 16.0683C1.71702 16.0683 1.71807 16.068 1.71883 16.0672C1.71959 16.0662 1.71997 16.0652 1.71997 16.0641V16.0634H1.71692ZM1.72606 16.0611V16.0718H1.71997V16.0691C1.71921 16.0701 1.71826 16.0709 1.7173 16.0714C1.71626 16.0719 1.71502 16.0721 1.7135 16.0721C1.71141 16.0721 1.70979 16.0717 1.70855 16.0706C1.70751 16.0694 1.70703 16.0679 1.70703 16.0661C1.70703 16.0641 1.70779 16.0625 1.70931 16.0615C1.71084 16.0602 1.71321 16.0596 1.71654 16.0596H1.71997V16.0592C1.71997 16.0584 1.71959 16.0579 1.71883 16.0573C1.71807 16.0568 1.71692 16.0565 1.7154 16.0565C1.71407 16.0565 1.71283 16.0567 1.7116 16.0569C1.71055 16.0572 1.7095 16.0576 1.70855 16.0581V16.0535C1.70979 16.0533 1.71103 16.0531 1.71236 16.0531C1.71359 16.0529 1.71502 16.0527 1.71654 16.0527C1.71978 16.0527 1.72225 16.0534 1.72377 16.0546C1.7253 16.056 1.72606 16.0581 1.72606 16.0611L1.72606 16.0611Z" fill="#86D1F0"/>
<path d="M1.73765 16.0488V16.0542H1.74374V16.0583H1.73765V16.0663C1.73765 16.0671 1.73774 16.0678 1.73803 16.0682C1.73822 16.0685 1.73898 16.0686 1.74031 16.0686H1.74335V16.0728H1.73803C1.73574 16.0728 1.73403 16.0723 1.73308 16.0713C1.73204 16.0703 1.73156 16.0686 1.73156 16.0663V16.0583H1.72852V16.0542H1.73156V16.0488L1.73765 16.0488Z" fill="#86D1F0"/>
<path d="M1.76821 16.0622V16.0641H1.75413C1.75413 16.0655 1.75452 16.0664 1.75528 16.0672C1.75623 16.068 1.75756 16.0683 1.75908 16.0683C1.76032 16.0683 1.76155 16.0682 1.76289 16.068C1.76441 16.0675 1.76574 16.0668 1.76707 16.0661V16.0706C1.76574 16.0712 1.76441 16.0716 1.76289 16.0718C1.76155 16.0719 1.76022 16.0721 1.7587 16.0721C1.75537 16.0721 1.75271 16.0714 1.75071 16.0699C1.7489 16.0681 1.74805 16.0656 1.74805 16.0622C1.74805 16.0592 1.7489 16.0569 1.75071 16.0554C1.75242 16.0537 1.75499 16.0527 1.75832 16.0527C1.76136 16.0527 1.76374 16.0537 1.76555 16.0554C1.76726 16.0572 1.76821 16.0595 1.76821 16.0622H1.76821ZM1.76213 16.0603C1.76213 16.0594 1.76174 16.0584 1.76098 16.0577C1.76022 16.0569 1.75927 16.0565 1.75832 16.0565C1.75699 16.0565 1.75604 16.0569 1.75528 16.0577C1.75471 16.0583 1.75432 16.0591 1.75413 16.0603H1.76213Z" fill="#86D1F0"/>
<path d="M1.78793 16.0571V16.0469H1.7942V16.0735H1.78793V16.0708C1.78715 16.0718 1.78617 16.0726 1.78519 16.0731C1.78411 16.0736 1.78294 16.0739 1.78166 16.0739C1.77931 16.0739 1.77735 16.073 1.77579 16.0712C1.77422 16.0694 1.77344 16.0669 1.77344 16.0637C1.77344 16.0609 1.77422 16.0585 1.77579 16.0567C1.77735 16.0549 1.77931 16.0539 1.78166 16.0539C1.78294 16.0539 1.78411 16.0542 1.78519 16.0547C1.78617 16.0553 1.78715 16.0561 1.78793 16.0571V16.0571ZM1.78401 16.0696C1.78529 16.0696 1.78617 16.0691 1.78676 16.068C1.78754 16.067 1.78793 16.0656 1.78793 16.0637C1.78793 16.062 1.78754 16.0606 1.78676 16.0598C1.78617 16.0588 1.78529 16.0582 1.78401 16.0582C1.78264 16.0582 1.78166 16.0588 1.78088 16.0598C1.7801 16.0606 1.7797 16.062 1.7797 16.0637C1.7797 16.0656 1.7801 16.067 1.78088 16.068C1.78166 16.0691 1.78264 16.0696 1.78401 16.0696Z" fill="#86D1F0"/>
<path d="M1.81487 16.0696C1.81614 16.0696 1.81703 16.0691 1.81761 16.068C1.8184 16.067 1.81879 16.0656 1.81879 16.0637C1.81879 16.062 1.8184 16.0606 1.81761 16.0598C1.81703 16.0588 1.81614 16.0582 1.81487 16.0582C1.8135 16.0582 1.81252 16.0588 1.81174 16.0598C1.81095 16.0606 1.81056 16.062 1.81056 16.0637C1.81056 16.0656 1.81095 16.067 1.81174 16.068C1.81252 16.0691 1.8135 16.0696 1.81487 16.0696ZM1.81056 16.0571C1.81154 16.0561 1.81252 16.0553 1.8133 16.0547C1.81428 16.0542 1.81565 16.0539 1.81722 16.0539C1.81957 16.0539 1.82133 16.0549 1.82271 16.0567C1.82427 16.0585 1.82506 16.0609 1.82506 16.0637C1.82506 16.0669 1.82427 16.0694 1.82271 16.0712C1.82133 16.073 1.81957 16.0739 1.81722 16.0739C1.81565 16.0739 1.81428 16.0736 1.8133 16.0731C1.81252 16.0726 1.81154 16.0718 1.81056 16.0708V16.0735H1.80469V16.0469H1.81056V16.0571Z" fill="#86D1F0"/>
<path d="M1.83008 16.0537H1.83635L1.84144 16.0666L1.84575 16.0537H1.85201L1.84379 16.0749C1.843 16.0769 1.84202 16.0784 1.84105 16.0792C1.83997 16.08 1.8385 16.0803 1.83674 16.0803H1.83321V16.0764H1.83517C1.83615 16.0764 1.83693 16.0762 1.83752 16.076C1.83801 16.0757 1.8384 16.0751 1.8387 16.0741V16.0737L1.83008 16.0537Z" fill="#86D1F0"/>
<path d="M1.87073 16.0592C1.8723 16.0592 1.87327 16.0591 1.87386 16.0588C1.87435 16.0583 1.87465 16.0574 1.87465 16.0561C1.87465 16.0551 1.87435 16.0543 1.87386 16.0537C1.87327 16.0532 1.8723 16.0529 1.87073 16.0529H1.86799V16.0592L1.87073 16.0592ZM1.86799 16.0639V16.0737H1.86133V16.0479H1.87151C1.87484 16.0479 1.87739 16.0485 1.87895 16.0498C1.88052 16.0509 1.8813 16.0526 1.8813 16.0549C1.8813 16.0568 1.88091 16.0582 1.88013 16.0592C1.87935 16.0603 1.87817 16.0611 1.8766 16.0616C1.87739 16.0619 1.87817 16.0623 1.87895 16.0631C1.87974 16.0639 1.88033 16.065 1.88091 16.0663L1.88483 16.0737H1.87739L1.87425 16.0674C1.87367 16.0662 1.87308 16.0653 1.8723 16.0647C1.87171 16.0642 1.87092 16.0639 1.86995 16.0639L1.86799 16.0639Z" fill="#86D1F0"/>
<path d="M1.88672 16.0543H1.89259V16.0735H1.88672V16.0543ZM1.88672 16.0469H1.89259V16.0516H1.88672V16.0469Z" fill="#86D1F0"/>
<path d="M1.91137 16.0469V16.0508H1.90784C1.90706 16.0508 1.90637 16.051 1.90588 16.0512C1.90559 16.0515 1.90549 16.052 1.90549 16.0528V16.0543H1.91098V16.0586H1.90549V16.0735H1.89962V16.0586H1.89648V16.0543H1.89962V16.0528C1.89962 16.0507 1.90011 16.0492 1.90118 16.0484C1.90246 16.0475 1.90432 16.0469 1.90667 16.0469L1.91137 16.0469Z" fill="#86D1F0"/>
<path d="M1.92396 16.0644C1.92262 16.0644 1.92167 16.0647 1.92091 16.0651C1.92034 16.0654 1.92015 16.0659 1.92015 16.0666C1.92015 16.0674 1.92034 16.0681 1.92091 16.0686C1.92139 16.0691 1.92205 16.0693 1.92281 16.0693C1.92405 16.0693 1.9251 16.0689 1.92586 16.0682C1.92662 16.0672 1.927 16.0662 1.927 16.0651V16.0644H1.92396ZM1.93309 16.0621V16.0727H1.927V16.0701C1.92624 16.0711 1.92529 16.0719 1.92434 16.0724C1.92329 16.0728 1.92205 16.0731 1.92053 16.0731C1.91844 16.0731 1.91682 16.0726 1.91558 16.0716C1.91454 16.0704 1.91406 16.0688 1.91406 16.067C1.91406 16.065 1.91482 16.0635 1.91635 16.0625C1.91787 16.0612 1.92025 16.0606 1.92357 16.0606H1.927V16.0602C1.927 16.0594 1.92662 16.0588 1.92586 16.0583C1.9251 16.0578 1.92396 16.0575 1.92243 16.0575C1.9211 16.0575 1.91987 16.0577 1.91863 16.0579C1.91758 16.0582 1.91654 16.0586 1.91558 16.059V16.0545C1.91682 16.0543 1.91806 16.0541 1.91939 16.0541C1.92063 16.0539 1.92205 16.0537 1.92358 16.0537C1.92681 16.0537 1.92928 16.0544 1.9308 16.0556C1.93233 16.0569 1.93309 16.059 1.93309 16.0621L1.93309 16.0621Z" fill="#86D1F0"/>
<path d="M1.93359 16.0543H1.93947V16.0735H1.93359V16.0543ZM1.93359 16.0469H1.93947V16.0516H1.93359V16.0469Z" fill="#86D1F0"/>
<path d="M1.66137 16.0801V16.084H1.65784C1.65706 16.084 1.65637 16.0842 1.65588 16.0844C1.65559 16.0847 1.65549 16.0852 1.65549 16.086V16.0875H1.66098V16.0918H1.65549V16.1067H1.64962V16.0918H1.64648V16.0875H1.64962V16.086C1.64962 16.0839 1.65011 16.0824 1.65118 16.0816C1.65246 16.0807 1.65432 16.0801 1.65667 16.0801L1.66137 16.0801Z" fill="#86D1F0"/>
<path d="M1.67385 16.0913C1.67328 16.0911 1.67281 16.0909 1.67233 16.0909C1.67176 16.0907 1.67129 16.0905 1.67081 16.0905C1.66929 16.0905 1.66796 16.0911 1.66701 16.092C1.66624 16.0931 1.66586 16.0945 1.66586 16.0962V16.105H1.66016V16.0863H1.66586V16.0894C1.66662 16.0881 1.66748 16.0873 1.66853 16.0867C1.66948 16.0862 1.67081 16.0859 1.67233 16.0859H1.67271H1.67385L1.67385 16.0913Z" fill="#86D1F0"/>
<path d="M1.68996 16.0901C1.68863 16.0901 1.68768 16.0907 1.68692 16.0916C1.68616 16.0924 1.68578 16.0937 1.68578 16.0954C1.68578 16.0975 1.68616 16.0991 1.68692 16.1C1.68768 16.1008 1.68863 16.1012 1.68996 16.1012C1.6912 16.1012 1.69224 16.1008 1.693 16.1C1.69377 16.0991 1.69415 16.0975 1.69415 16.0954C1.69415 16.0937 1.69377 16.0924 1.693 16.0916C1.69224 16.0907 1.6912 16.0901 1.68996 16.0901ZM1.68996 16.0859C1.6932 16.0859 1.69576 16.0869 1.69757 16.0886C1.69928 16.0901 1.70023 16.0924 1.70023 16.0954C1.70023 16.0988 1.69928 16.1013 1.69757 16.1031C1.69576 16.1046 1.6932 16.1053 1.68996 16.1053C1.68663 16.1053 1.68406 16.1046 1.68235 16.1031C1.68054 16.1013 1.67969 16.0988 1.67969 16.0954C1.67969 16.0924 1.68054 16.0901 1.68235 16.0886C1.68406 16.0869 1.68663 16.0859 1.68996 16.0859Z" fill="#86D1F0"/>
<path d="M1.72052 16.0893C1.72128 16.0881 1.72213 16.0873 1.72317 16.0867C1.72411 16.0862 1.72525 16.0859 1.72657 16.0859C1.72884 16.0859 1.73045 16.0866 1.73149 16.0878C1.73272 16.0892 1.73338 16.091 1.73338 16.0935V16.1048H1.72733V16.095V16.0939C1.72733 16.0927 1.72704 16.0918 1.72657 16.0912C1.72629 16.0905 1.72563 16.0901 1.72468 16.0901C1.72364 16.0901 1.72279 16.0907 1.72203 16.0916C1.72147 16.0927 1.72128 16.0941 1.72128 16.0958V16.1048H1.71523V16.095C1.71523 16.093 1.71494 16.0918 1.71447 16.0912C1.71419 16.0905 1.71371 16.0901 1.71296 16.0901C1.71163 16.0901 1.71069 16.0907 1.70993 16.0916C1.70936 16.0927 1.70918 16.0941 1.70918 16.0958V16.1048H1.70312V16.0863H1.70918V16.089C1.70993 16.088 1.71078 16.0873 1.71182 16.0867C1.71277 16.0862 1.71381 16.0859 1.71485 16.0859C1.71608 16.0859 1.71721 16.0863 1.71825 16.0871C1.7192 16.0876 1.71995 16.0884 1.72052 16.0893L1.72052 16.0893Z" fill="#86D1F0"/>
<path d="M1.75132 16.082V16.0874H1.75741V16.0915H1.75132V16.0995C1.75132 16.1003 1.75141 16.101 1.7517 16.1014C1.75189 16.1017 1.75265 16.1018 1.75398 16.1018H1.75703V16.106H1.7517C1.74942 16.106 1.7477 16.1055 1.74675 16.1045C1.74571 16.1035 1.74523 16.1018 1.74523 16.0995V16.0915H1.74219V16.0874H1.74523V16.082L1.75132 16.082Z" fill="#86D1F0"/>
<path d="M1.78482 16.095V16.1067H1.77855V16.0977V16.0946C1.77855 16.0938 1.77835 16.0933 1.77816 16.093C1.77787 16.0925 1.77747 16.0921 1.77698 16.0918C1.77669 16.0916 1.7763 16.0914 1.77581 16.0914C1.77444 16.0914 1.77346 16.092 1.77268 16.093C1.77189 16.0941 1.7715 16.0955 1.7715 16.0973V16.1067H1.76562V16.0801H1.7715V16.0903C1.77248 16.0893 1.77356 16.0885 1.77463 16.0879C1.77561 16.0874 1.77679 16.0871 1.77816 16.0871C1.78022 16.0871 1.78178 16.0878 1.78286 16.0891C1.78413 16.0905 1.78482 16.0924 1.78482 16.095L1.78482 16.095Z" fill="#86D1F0"/>
<path d="M1.80337 16.0954V16.0974H1.78929C1.78929 16.0987 1.78967 16.0996 1.79043 16.1004C1.79138 16.1012 1.79272 16.1015 1.79424 16.1015C1.79547 16.1015 1.79671 16.1014 1.79804 16.1012C1.79956 16.1007 1.8009 16.1 1.80223 16.0993V16.1038C1.8009 16.1044 1.79956 16.1048 1.79804 16.105C1.79671 16.1052 1.79538 16.1053 1.79386 16.1053C1.79053 16.1053 1.78786 16.1046 1.78587 16.1031C1.78406 16.1013 1.7832 16.0988 1.7832 16.0954C1.7832 16.0924 1.78406 16.0901 1.78587 16.0886C1.78758 16.0869 1.79015 16.0859 1.79348 16.0859C1.79652 16.0859 1.7989 16.0869 1.80071 16.0886C1.80242 16.0904 1.80337 16.0927 1.80337 16.0954H1.80337ZM1.79728 16.0935C1.79728 16.0926 1.7969 16.0916 1.79614 16.0909C1.79538 16.0901 1.79443 16.0897 1.79348 16.0897C1.79214 16.0897 1.79119 16.0901 1.79043 16.0909C1.78986 16.0915 1.78948 16.0923 1.78929 16.0935H1.79728Z" fill="#86D1F0"/>
<path d="M1.82031 16.0801H1.82775L1.83716 16.0977V16.0801H1.84342V16.1059H1.83598L1.82658 16.0883V16.1059H1.82031V16.0801Z" fill="#86D1F0"/>
<path d="M1.85793 16.0901C1.8566 16.0901 1.85565 16.0907 1.85489 16.0916C1.85412 16.0924 1.85374 16.0937 1.85374 16.0954C1.85374 16.0975 1.85412 16.0991 1.85489 16.1C1.85565 16.1008 1.8566 16.1012 1.85793 16.1012C1.85917 16.1012 1.86021 16.1008 1.86097 16.1C1.86173 16.0991 1.86212 16.0975 1.86212 16.0954C1.86212 16.0937 1.86173 16.0924 1.86097 16.0916C1.86021 16.0907 1.85917 16.0901 1.85793 16.0901ZM1.85793 16.0859C1.86116 16.0859 1.86373 16.0869 1.86554 16.0886C1.86725 16.0901 1.8682 16.0924 1.8682 16.0954C1.8682 16.0988 1.86725 16.1013 1.86554 16.1031C1.86373 16.1046 1.86116 16.1053 1.85793 16.1053C1.8546 16.1053 1.85203 16.1046 1.85032 16.1031C1.84851 16.1013 1.84766 16.0988 1.84766 16.0954C1.84766 16.0924 1.84851 16.0901 1.85032 16.0886C1.85203 16.0869 1.8546 16.0859 1.85793 16.0859Z" fill="#86D1F0"/>
<path d="M1.86914 16.0983V16.0869H1.87523V16.0888V16.0926V16.0957V16.0991C1.87523 16.0997 1.87532 16.1 1.87561 16.1002C1.8758 16.1008 1.87608 16.1012 1.87637 16.1014H1.87789C1.87913 16.1014 1.88017 16.101 1.88094 16.1002C1.8817 16.0993 1.88208 16.0979 1.88208 16.096V16.0869H1.88817V16.1056H1.88208V16.1029C1.88103 16.1039 1.87998 16.1047 1.87903 16.1052C1.87799 16.1057 1.87685 16.1059 1.87561 16.1059C1.87352 16.1059 1.8719 16.1054 1.87066 16.104C1.86962 16.1028 1.86914 16.1009 1.86914 16.0983L1.86914 16.0983Z" fill="#86D1F0"/>
<path d="M1.91318 16.0935V16.105H1.90709V16.0962V16.0932C1.90709 16.0924 1.9069 16.0919 1.90671 16.0916C1.90642 16.0912 1.90604 16.0908 1.90557 16.0905C1.90528 16.0903 1.9049 16.0901 1.90442 16.0901C1.90309 16.0901 1.90214 16.0907 1.90138 16.0916C1.90062 16.0927 1.90024 16.0941 1.90024 16.0958V16.105H1.89453V16.0863H1.90024V16.089C1.90119 16.088 1.90224 16.0873 1.90328 16.0867C1.90423 16.0862 1.90538 16.0859 1.90671 16.0859C1.9087 16.0859 1.91023 16.0866 1.91127 16.0878C1.91251 16.0892 1.91318 16.0911 1.91318 16.0935L1.91318 16.0935Z" fill="#86D1F0"/>
<path d="M1.92969 16.0801H1.94065C1.94398 16.0801 1.94653 16.0809 1.9481 16.0824C1.94986 16.084 1.95084 16.0861 1.95084 16.0887C1.95084 16.0913 1.94986 16.0934 1.9481 16.095C1.94653 16.0963 1.94398 16.0969 1.94065 16.0969H1.93635V16.1059H1.92969V16.0801ZM1.93635 16.0852V16.0922H1.94026C1.94124 16.0922 1.94222 16.092 1.943 16.0914C1.94379 16.0907 1.94418 16.0898 1.94418 16.0887C1.94418 16.0874 1.94379 16.0865 1.943 16.086C1.94222 16.0855 1.94124 16.0852 1.94026 16.0852L1.93635 16.0852Z" fill="#86D1F0"/>
<path d="M1.96682 16.0913C1.96625 16.0911 1.96578 16.0909 1.9653 16.0909C1.96473 16.0907 1.96425 16.0905 1.96378 16.0905C1.96226 16.0905 1.96093 16.0911 1.95997 16.092C1.95921 16.0931 1.95883 16.0945 1.95883 16.0962V16.105H1.95312V16.0863H1.95883V16.0894C1.95959 16.0881 1.96045 16.0873 1.9615 16.0867C1.96245 16.0862 1.96378 16.0859 1.9653 16.0859H1.96568H1.96682L1.96682 16.0913Z" fill="#86D1F0"/>
<path d="M1.97902 16.0901C1.97769 16.0901 1.97674 16.0907 1.97598 16.0916C1.97522 16.0924 1.97484 16.0937 1.97484 16.0954C1.97484 16.0975 1.97522 16.0991 1.97598 16.1C1.97674 16.1008 1.97769 16.1012 1.97902 16.1012C1.98026 16.1012 1.98131 16.1008 1.98207 16.1C1.98283 16.0991 1.98321 16.0975 1.98321 16.0954C1.98321 16.0937 1.98283 16.0924 1.98207 16.0916C1.98131 16.0907 1.98026 16.0901 1.97902 16.0901ZM1.97902 16.0859C1.98226 16.0859 1.98483 16.0869 1.98663 16.0886C1.98835 16.0901 1.9893 16.0924 1.9893 16.0954C1.9893 16.0988 1.98835 16.1013 1.98663 16.1031C1.98483 16.1046 1.98226 16.1053 1.97902 16.1053C1.97569 16.1053 1.97313 16.1046 1.97141 16.1031C1.96961 16.1013 1.96875 16.0988 1.96875 16.0954C1.96875 16.0924 1.96961 16.0901 1.97141 16.0886C1.97313 16.0869 1.97569 16.0859 1.97902 16.0859Z" fill="#86D1F0"/>
<path d="M1.99232 16.0871H1.99783V16.1047C1.99783 16.1071 1.99719 16.1089 1.996 16.1102C1.99499 16.1114 1.99342 16.112 1.99122 16.112H1.98828V16.1084H1.98938C1.9903 16.1084 1.99104 16.1081 1.99159 16.1076C1.99205 16.1071 1.99232 16.1062 1.99232 16.1047L1.99232 16.0871ZM1.99232 16.0801H1.99783V16.0845H1.99232V16.0801Z" fill="#86D1F0"/>
<path d="M2.02017 16.0954V16.0974H2.00609C2.00609 16.0987 2.00647 16.0996 2.00723 16.1004C2.00818 16.1012 2.00951 16.1015 2.01103 16.1015C2.01227 16.1015 2.01351 16.1014 2.01484 16.1012C2.01636 16.1007 2.01769 16.1 2.01902 16.0993V16.1038C2.01769 16.1044 2.01636 16.1048 2.01484 16.105C2.01351 16.1052 2.01218 16.1053 2.01065 16.1053C2.00732 16.1053 2.00466 16.1046 2.00266 16.1031C2.00086 16.1013 2 16.0988 2 16.0954C2 16.0924 2.00086 16.0901 2.00266 16.0886C2.00438 16.0869 2.00694 16.0859 2.01027 16.0859C2.01332 16.0859 2.0157 16.0869 2.0175 16.0886C2.01922 16.0904 2.02017 16.0927 2.02017 16.0954H2.02017ZM2.01408 16.0935C2.01408 16.0926 2.0137 16.0916 2.01294 16.0909C2.01218 16.0901 2.01122 16.0897 2.01027 16.0897C2.00894 16.0897 2.00799 16.0901 2.00723 16.0909C2.00666 16.0915 2.00628 16.0923 2.00609 16.0935H2.01408Z" fill="#86D1F0"/>
<path d="M2.03589 16.0867V16.0916C2.03513 16.0912 2.03437 16.0908 2.03361 16.0905C2.03285 16.0903 2.0319 16.0901 2.03095 16.0901C2.02942 16.0901 2.02809 16.0907 2.02714 16.0916C2.02609 16.0927 2.02562 16.0939 2.02562 16.0954C2.02562 16.0973 2.02609 16.0987 2.02714 16.0996C2.02809 16.1007 2.02942 16.1012 2.03095 16.1012C2.0319 16.1012 2.03285 16.1011 2.03361 16.1008C2.03456 16.1006 2.03532 16.1002 2.03589 16.0996V16.1046C2.03513 16.1049 2.03418 16.105 2.03323 16.105C2.03218 16.1052 2.03114 16.1053 2.03019 16.1053C2.02686 16.1053 2.02419 16.1046 2.02219 16.1031C2.02039 16.1013 2.01953 16.0988 2.01953 16.0954C2.01953 16.0924 2.02039 16.0901 2.02219 16.0886C2.02419 16.0869 2.02686 16.0859 2.03019 16.0859C2.03114 16.0859 2.03218 16.0861 2.03323 16.0863C2.03418 16.0863 2.03513 16.0865 2.03589 16.0867V16.0867Z" fill="#86D1F0"/>
<path d="M2.0521 16.082V16.0874H2.05819V16.0915H2.0521V16.0995C2.0521 16.1003 2.0522 16.101 2.05248 16.1014C2.05267 16.1017 2.05343 16.1018 2.05476 16.1018H2.05781V16.106H2.05248C2.0502 16.106 2.04849 16.1055 2.04753 16.1045C2.04649 16.1035 2.04601 16.1018 2.04601 16.0995V16.0915H2.04297V16.0874H2.04601V16.082L2.0521 16.082Z" fill="#86D1F0"/>
<circle cx="17.6529" cy="1.74976" r="1.48594" transform="rotate(168.645 17.6529 1.74976)" fill="#86D1F0"/>
<rect width="13.3646" height="14.8685" rx="1.68587" transform="matrix(0.694653 0.719345 -0.72355 0.690272 22.7598 5)" fill="#FA9D1C" fill-opacity="0.1"/>
<path d="M31.6528 19.6365C31.6528 24.7199 27.5065 28.8424 22.3898 28.8424C17.2731 28.8424 13.1269 24.7199 13.1269 19.6365C13.1269 14.5531 17.2731 10.4306 22.3898 10.4306C27.5065 10.4306 31.6528 14.5531 31.6528 19.6365Z" fill="white" stroke="#FA9D1C" stroke-width="0.312344"/>
<rect x="19.7422" y="16.7412" width="5.22485" height="5.22485" fill="#FBEBD5"/>
<path d="M18.1459 16.38C21.045 14.5387 23.67 14.5387 26.5691 16.38C27.1176 20.2977 26.1382 23.3144 22.3379 24.999C18.5377 23.3144 17.5973 20.2977 18.1459 16.38ZM24.9628 18.6522C25.237 18.378 24.7669 17.947 24.5319 18.2604L22.1421 20.8853L21.2409 19.8276C21.0059 19.5534 20.5357 19.9451 20.81 20.2194L22.1421 21.7865C23.0823 20.7287 24.0226 19.7101 24.9629 18.6522L24.9628 18.6522Z" fill="#FA9D1C"/>
</svg>
