<svg width="425.178" height="425.178" xmlns="http://www.w3.org/2000/svg">

 <g>
  <title>background</title>
  <rect fill="none" id="canvas_background" height="402" width="582" y="-1" x="-1"/>
 </g>
 <g>
  <title>Layer 1</title>
  <g id="svg_1">
   <polygon id="svg_4" fill="#ffebac" points="80.69700622558594,294.968994140625 91.59599304199219,317.9809875488281 180.906005859375,254.7139892578125 159.73599243164062,238.94198608398438 "/>
   <polygon id="svg_5" fill="#ffebac" points="307.48699951171875,70.17799377441406 251.46099853515625,149.2100067138672 267.23199462890625,170.38699340820312 330.5,81.07699584960938 "/>
   <path id="svg_6" fill="#ffd175" d="m92.596,319.981l51.478,21.197c49.622,-16.278 93.886,-43.872 129.815,-79.808c35.936,-35.929 63.531,-80.2 79.808,-129.815l-21.197,-51.478l-63.268,89.31l21.055,6.553c-12.06,21.258 -26.893,40.687 -44.021,57.808c-17.128,17.128 -36.55,31.954 -57.808,44.021l-6.553,-21.056l-89.309,63.268z"/>
  </g>
  <g id="svg_13"/>
  <g id="svg_14"/>
  <g id="svg_15"/>
  <g id="svg_16"/>
  <g id="svg_17"/>
  <g id="svg_18"/>
  <g id="svg_19"/>
  <g id="svg_20"/>
  <g id="svg_21"/>
  <g id="svg_22"/>
  <g id="svg_23"/>
  <g id="svg_24"/>
  <g id="svg_25"/>
  <g id="svg_26"/>
  <g id="svg_27"/>
 </g>
</svg>