<svg width="47" height="46" viewBox="0 0 47 46" fill="none" xmlns="http://www.w3.org/2000/svg">
<path fill-rule="evenodd" clip-rule="evenodd" d="M19.2645 7.16267C21.7104 6.79181 23.8814 9.15954 26.3536 9.02569C30.5136 8.80046 34.9404 3.57043 38.2759 6.13336C41.369 8.51004 37.2236 13.7179 37.5298 17.6132C37.7619 20.5655 39.66 23.0915 39.8412 26.0469C40.0743 29.8465 41.882 35.1478 38.7308 37.1965C35.2444 39.463 30.7516 33.723 26.6855 34.5997C22.9311 35.4092 21.2835 43.5011 17.8553 41.6976C13.9709 39.6541 18.7081 32.1522 15.776 28.8604C13.101 25.8573 5.61137 30.2386 4.26743 26.4427C2.982 22.812 10.2064 21.7172 12.0681 18.3874C13.2788 16.2219 11.5234 13.1583 12.8614 11.0715C14.2402 8.92085 16.7472 7.54436 19.2645 7.16267Z" fill="#FCEA60"/>
<path d="M11.9366 18.9452H17.6354V14.3917C17.6354 13.8317 18.0912 13.375 18.6501 13.375H37.1872C37.7461 13.375 38.2019 13.8317 38.2019 14.3917C38.2019 17.5885 38.2019 20.7853 38.2019 23.9821C38.2019 24.5421 37.7428 24.9988 37.1872 24.9988H31.4883V29.5523C31.4883 30.1123 31.0326 30.5723 30.4737 30.5723H11.9366C11.381 30.5723 10.9219 30.1123 10.9219 29.5523C10.9219 26.3555 10.9219 23.162 10.9219 19.9652C10.9219 19.4052 11.3777 18.9452 11.9366 18.9452ZM18.1145 18.9452H30.4737C31.0326 18.9452 31.4883 19.4052 31.4883 19.9652V24.5188H37.1872C37.48 24.5188 37.7228 24.2754 37.7228 23.9821V17.0518H18.1145V18.9452ZM37.7228 16.5718V15.7384H18.1145V16.5718H37.7228ZM37.7228 15.2584V14.3917C37.7228 14.0984 37.48 13.855 37.1872 13.855H18.6501C18.354 13.855 18.1145 14.0984 18.1145 14.3917V15.2584H37.7228ZM11.4009 20.8286H31.0093V19.9652C31.0093 19.6686 30.7664 19.4286 30.4737 19.4286H11.9366C11.6438 19.4286 11.4009 19.6686 11.4009 19.9652V20.8286ZM31.0093 22.6253H11.4009V29.5523C11.4009 29.849 11.6438 30.089 11.9366 30.089H30.4737C30.7664 30.089 31.0093 29.849 31.0093 29.5523V22.6253ZM31.0093 21.3086H11.4009V22.1453H31.0093V21.3086Z" fill="#2D2D2D"/>
<path d="M29.4224 27.8195C29.4224 28.7262 28.4144 29.2929 27.6426 28.7962C27.5793 28.8362 27.5128 28.8696 27.4463 28.8962C26.6944 29.1996 25.8594 28.6462 25.8594 27.8195C25.8594 26.9962 26.6944 26.4461 27.4463 26.7461C27.5128 26.7728 27.5793 26.8062 27.6426 26.8462C28.4144 26.3461 29.4224 26.9162 29.4224 27.8195ZM27.2799 28.4229C27.0537 28.0562 27.0537 27.5862 27.2799 27.2162L27.26 27.2095C26.8308 27.0395 26.3584 27.3528 26.3584 27.8195C26.3584 28.2895 26.8341 28.6029 27.26 28.4329L27.2799 28.4229ZM27.8022 27.3562C27.5494 27.6095 27.5494 28.0329 27.8022 28.2862C28.2148 28.6996 28.9234 28.4029 28.9234 27.8195C28.9234 27.2395 28.2148 26.9428 27.8022 27.3562Z" fill="#2D2D2D"/>
<path d="M13.2964 25.2891H16.9592V26.7291H13.0469V25.2891H13.2964ZM16.4602 25.7891H13.5492V26.2291H16.4602V25.7891Z" fill="#2D2D2D"/>
<path d="M12.9688 28.7109H19.2631V29.191H12.9688V28.7109Z" fill="#2D2D2D"/>
<path d="M36.2851 22.9877C36.2851 23.8944 35.2738 24.4611 34.5019 23.9611C34.442 24.0011 34.3755 24.0344 34.3056 24.0644C33.5571 24.3644 32.7188 23.8144 32.7188 22.9877C32.7188 22.161 33.5571 21.611 34.3056 21.911C34.3755 21.941 34.442 21.9743 34.5019 22.0143C35.2738 21.5143 36.2851 22.0844 36.2851 22.9877ZM34.1393 23.5911C33.9131 23.2244 33.9164 22.751 34.1393 22.3844L34.1227 22.3777C33.6902 22.2077 33.2211 22.521 33.2211 22.9877C33.2211 23.4577 33.6935 23.7711 34.1193 23.6011L34.1393 23.5911ZM34.6616 22.521C34.4088 22.7777 34.4088 23.1977 34.6616 23.4544C35.0775 23.8678 35.7828 23.5677 35.7828 22.9877C35.7828 22.4077 35.0775 22.1077 34.6616 22.521Z" fill="#2D2D2D"/>
</svg>
