<?xml version="1.0"?>
<svg xmlns="http://www.w3.org/2000/svg" xmlns:xlink="http://www.w3.org/1999/xlink" version="1.1" id="Layer_1" x="0px" y="0px" viewBox="0 0 512 512" style="enable-background:new 0 0 512 512;" xml:space="preserve" width="512px" height="512px" class=""><g><g><circle style="fill:#FFE529" cx="256" cy="256" r="256" data-original="#FFE529" class="" data-old_color="#5ED1B3"/><path style="fill:#FFE529" d="M511.75,244.989L366.569,99.808L95.322,399.664l106.594,106.594C219.353,510.01,237.44,512,256,512  c141.385,0,256-114.615,256-256C512,252.309,511.906,248.641,511.75,244.989z" data-original="#FFE529" class="" data-old_color="#4BC2A2"/><g>
	<polygon style="fill:#E3E9ED" points="414.299,211.377 95.322,211.377 254.811,117.239  " data-original="#E3E9ED" class="" data-old_color="#E3C04D"/>
	<polygon style="fill:#E3E9ED" points="414.299,211.377 95.322,211.377 254.811,305.52  " data-original="#E3E9ED" class="" data-old_color="#E3C04D"/>
</g><path style="fill:#F8F8F8" d="M172.618,81.893h165.959c17.038,0,30.849,13.812,30.849,30.849v198.937  c0,17.038-13.812,30.849-30.849,30.849H172.618c-17.038,0-30.849-13.812-30.849-30.849V112.742  C141.768,95.704,155.58,81.893,172.618,81.893z" data-original="#F8F8F8" class=""/><polygon style="fill:#F8F0F0" points="414.299,211.382 254.811,305.52 414.299,399.664 " data-original="#F8F0F0" class="" data-old_color="#FAD55C"/><g>
	<path style="fill:#E3E9ED" d="M414.299,294.326c-3.374,0.634-6.854,0.973-10.411,0.973c-27.264,0-49.959-19.56-54.829-45.413   l65.24-38.503V294.326z" data-original="#E3E9ED" class="" data-old_color="#E3C04D"/>
	<polygon style="fill:#E3E9ED" points="254.811,305.52 95.322,399.664 414.299,399.664  " data-original="#E3E9ED" class="" data-old_color="#E3C04D"/>
</g><circle style="fill:#FF8C8A" cx="398.558" cy="224" r="55.796" data-original="#FF8C8A" class=""/><polygon style="fill:#F8F0F0" points="95.322,211.382 254.811,305.52 95.322,399.664 " data-original="#F8F0F0" class="" data-old_color="#FAD55C"/><g>
	<polygon style="fill:#B3B3BD" points="176.948,124.52 334.252,124.52 334.252,131.118 176.948,131.118  " data-original="#B3B3BD" class=""/>
	<polygon style="fill:#B3B3BD" points="176.948,145.909 334.252,145.909 334.252,152.507 176.948,152.507  " data-original="#B3B3BD" class=""/>
	<polygon style="fill:#B3B3BD" points="176.948,167.298 334.252,167.298 334.252,173.902 176.948,173.902  " data-original="#B3B3BD" class=""/>
	<polygon style="fill:#B3B3BD" points="176.948,188.693 334.252,188.693 334.252,195.291 176.948,195.291  " data-original="#B3B3BD" class=""/>
	<polygon style="fill:#B3B3BD" points="176.948,210.082 245.506,210.082 245.506,216.685 176.948,216.685  " data-original="#B3B3BD" class=""/>
</g><polygon style="fill:#F9F9F9" points="427.411,195.402 435.288,203.278 393.844,244.722 393.722,244.844 392.338,246.228   390.876,247.69 389.331,249.235 387.691,250.875 385.962,252.604 384.256,250.892 382.672,249.313 381.215,247.851 379.876,246.512   378.647,245.283 378.086,244.722 361.833,228.469 369.709,220.587 385.962,236.846 " data-original="#F9F9F9" class="active-path"/></g></g> </svg>
