<svg id="b8a434a9-0b43-4a17-8852-d82bb903c196" data-name="Layer 1" xmlns="http://www.w3.org/2000/svg" viewBox="0 0 513 513"><defs><style>.\32 60bcbcd-1cbd-45ab-8a5f-79baf6e2ab03{fill:#277286;}.f3d0b06f-20ae-41fd-bf01-ae31306680e5{fill:#ec8a5b;}.\37 2e4dda8-ebe2-4946-bf2d-419fd3ac8d04{fill:#fff;}.a4a5e485-49cd-414e-9ba2-53a0b073e7db{fill:#ec8a5a;}</style></defs><title>Icon QR.a BARU</title><rect class="260bcbcd-1cbd-45ab-8a5f-79baf6e2ab03" x="87.8" y="74.3" width="305" height="305.01" rx="15.5" ry="15.5"/><path class="f3d0b06f-20ae-41fd-bf01-ae31306680e5" d="M423.9,110.6a8,8,0,0,1-7.9-7.9V71.5a15.8,15.8,0,0,0-15.8-15.8h-21a8,8,0,0,1,0-15.9h21a31.7,31.7,0,0,1,31.7,31.7v31.2a8,8,0,0,1-8,7.9"/><path class="f3d0b06f-20ae-41fd-bf01-ae31306680e5" d="M55.2,110.6a7.9,7.9,0,0,1-7.9-7.9V71.5A31.6,31.6,0,0,1,78.9,39.8h21a8,8,0,0,1,0,15.9h-21A15.8,15.8,0,0,0,63.1,71.5v31.2a7.9,7.9,0,0,1-7.9,7.9"/><path class="f3d0b06f-20ae-41fd-bf01-ae31306680e5" d="M99.9,424.4h-21a31.6,31.6,0,0,1-31.6-31.6v-22a7.9,7.9,0,1,1,15.8,0v22a15.8,15.8,0,0,0,15.8,15.8h21a7.9,7.9,0,1,1,0,15.8"/><path class="72e4dda8-ebe2-4946-bf2d-419fd3ac8d04" d="M351.2,111.7a6,6,0,0,1,5.9,5.9v82.6a5.9,5.9,0,0,1-5.9,6H268.4a5.9,5.9,0,0,1-5.9-6V117.6a6,6,0,0,1,5.9-5.9Zm-6.1,11.9H274.4v70.7h70.7Z"/><path class="72e4dda8-ebe2-4946-bf2d-419fd3ac8d04" d="M213.2,111.7a5.9,5.9,0,0,1,5.9,5.9V138a6,6,0,1,1-11.9,0V123.6H136.4v70.7h70.8v-9.7a6,6,0,1,1,11.9,0v15.6a5.9,5.9,0,0,1-5.9,6H130.5a6,6,0,0,1-6-6V117.6a5.9,5.9,0,0,1,6-5.9Z"/><path class="72e4dda8-ebe2-4946-bf2d-419fd3ac8d04" d="M213.2,249.6a6,6,0,0,1,5.9,6v82.6a5.9,5.9,0,0,1-5.9,6H130.5a6,6,0,0,1-6-6V255.6a6,6,0,0,1,6-6Zm-6,12H136.4v70.7h70.8Z"/><path class="72e4dda8-ebe2-4946-bf2d-419fd3ac8d04" d="M351.2,249.6a6,6,0,0,1,5.9,6v82.6a5.9,5.9,0,0,1-5.9,6H268.4a5.9,5.9,0,0,1-5.9-6V255.6a6,6,0,0,1,5.9-6Zm-6.1,12H274.4v70.7h70.7Z"/><path class="72e4dda8-ebe2-4946-bf2d-419fd3ac8d04" d="M239.8,111.7a5.9,5.9,0,0,1,6,5.9V222.7H351.1a6,6,0,1,1,0,11.9H245.8V338.2a6,6,0,0,1-6,6,6,6,0,0,1-6-6V234.6H154.2a6,6,0,1,1,0-11.9h79.6V117.6a5.9,5.9,0,0,1,6-5.9"/><path class="f3d0b06f-20ae-41fd-bf01-ae31306680e5" d="M401.1,241.9H78c-8.9,0-16.1-6.2-16.1-13.9s7.2-14,16.1-14H401.1c8.9,0,16.1,6.3,16.1,14s-7.2,13.9-16.1,13.9"/><circle class="a4a5e485-49cd-414e-9ba2-53a0b073e7db" cx="367.5" cy="325.3" r="145.5"/><path class="72e4dda8-ebe2-4946-bf2d-419fd3ac8d04" d="M423.5,349.6v30.3h-111V349.6H292.3V390a10.1,10.1,0,0,0,10.1,10.1H433.6A10.1,10.1,0,0,0,443.7,390V349.6Z"/><path class="260bcbcd-1cbd-45ab-8a5f-79baf6e2ab03" d="M420.4,284.8,374,231.9a6.5,6.5,0,0,0-4.9-2.3,6.7,6.7,0,0,0-5,2.3l-46.3,52.9a6.6,6.6,0,0,0-1.1,7.1,6.6,6.6,0,0,0,6,3.9h26.5v54.1a6.7,6.7,0,0,0,6.6,6.6h26.5a6.7,6.7,0,0,0,6.6-6.6V295.8h26.5a6.7,6.7,0,0,0,5-11Z"/></svg>