<svg width="99" height="99" viewBox="0 0 99 99" fill="none" xmlns="http://www.w3.org/2000/svg">
<g filter="url(#filter0_d_382_22876)">
<rect x="23" y="12" width="53" height="53" rx="15.4583" fill="#33A6FC"/>
<path fill-rule="evenodd" clip-rule="evenodd" d="M46.4013 37.366C45.7572 37.366 45.2479 37.8665 45.2479 38.4996C45.2479 39.1179 45.7572 39.6332 46.4013 39.6332H55.3887V46.6704C55.3887 50.2773 52.4079 53.2218 48.723 53.2218H41.4283C37.7584 53.2218 34.7776 50.2921 34.7776 46.6851V30.3287C34.7776 26.7071 37.7734 23.7773 41.4432 23.7773H48.753C52.4079 23.7773 55.3887 26.7071 55.3887 30.314V37.366H46.4013ZM60.7332 33.4059L65.0321 37.6901C65.253 37.9109 65.3707 38.1907 65.3707 38.4998C65.3707 38.7943 65.253 39.0887 65.0321 39.2948L60.7332 43.579C60.5124 43.7998 60.2179 43.9176 59.9382 43.9176C59.6438 43.9176 59.3493 43.7998 59.1285 43.579C58.6868 43.1373 58.6868 42.4159 59.1285 41.9743L61.4841 39.6334H55.3891V37.3662H61.4841L59.1285 35.0254C58.6868 34.5837 58.6868 33.8623 59.1285 33.4207C59.5702 32.9643 60.2916 32.9643 60.7332 33.4059Z" fill="white"/>
</g>
<defs>
<filter id="filter0_d_382_22876" x="0.916664" y="0.958332" width="97.1667" height="97.1667" filterUnits="userSpaceOnUse" color-interpolation-filters="sRGB">
<feFlood flood-opacity="0" result="BackgroundImageFix"/>
<feColorMatrix in="SourceAlpha" type="matrix" values="0 0 0 0 0 0 0 0 0 0 0 0 0 0 0 0 0 0 127 0" result="hardAlpha"/>
<feOffset dy="11.0417"/>
<feGaussianBlur stdDeviation="11.0417"/>
<feComposite in2="hardAlpha" operator="out"/>
<feColorMatrix type="matrix" values="0 0 0 0 0 0 0 0 0 0 0 0 0 0 0 0 0 0 0.1 0"/>
<feBlend mode="normal" in2="BackgroundImageFix" result="effect1_dropShadow_382_22876"/>
<feBlend mode="normal" in="SourceGraphic" in2="effect1_dropShadow_382_22876" result="shape"/>
</filter>
</defs>
</svg>
