<svg width="98" height="98" viewBox="0 0 98 98" fill="none" xmlns="http://www.w3.org/2000/svg">
<g filter="url(#filter0_d_382_22889)">
<rect x="20" y="10" width="58" height="58" rx="16.9167" fill="#50B74A"/>
<path d="M60.6003 25.709H38.367C38.2395 25.7094 38.1126 25.7273 37.99 25.7621C37.6825 25.8449 37.4111 26.0266 37.2171 26.2791C37.0232 26.5315 36.9176 26.8407 36.917 27.159V37.7923C36.917 38.1768 37.0698 38.5458 37.3416 38.8177C37.6135 39.0895 37.9825 39.2423 38.367 39.2423H52.3836V38.2756H40.3003C40.0334 38.2756 39.817 38.0592 39.817 37.7923C39.817 37.4078 39.6642 37.0388 39.3923 36.767C39.1204 36.4952 38.7514 36.3423 38.367 36.3423C38.1001 36.3423 37.8837 36.1259 37.8837 35.859V29.0923C37.8837 28.8254 38.1001 28.609 38.367 28.609C38.7515 28.609 39.1205 28.4562 39.3923 28.1844C39.6641 27.9125 39.817 27.5435 39.817 27.159C39.817 26.8921 40.0334 26.6757 40.3003 26.6757H58.667C58.7951 26.6757 58.9181 26.7266 59.0088 26.8172C59.0994 26.9079 59.1503 27.0309 59.1503 27.159C59.1503 27.5435 59.3031 27.9125 59.5749 28.1844C59.8468 28.4562 60.2158 28.609 60.6003 28.609C60.7284 28.609 60.8514 28.6599 60.9421 28.7506C61.0327 28.8412 61.0836 28.9642 61.0836 29.0923V35.859C61.0836 35.9872 61.0327 36.1102 60.9421 36.2008C60.8514 36.2914 60.7284 36.3423 60.6003 36.3423C60.2158 36.3423 59.8468 36.4951 59.5749 36.767C59.3031 37.0389 59.1503 37.4079 59.1503 37.7923C59.1503 37.9205 59.0994 38.0435 59.0088 38.1341C58.9181 38.2247 58.7951 38.2756 58.667 38.2756H57.217V39.2423H60.6003C60.7278 39.2419 60.8547 39.224 60.9773 39.1892C61.2847 39.1064 61.5562 38.9247 61.7501 38.6722C61.9441 38.4198 62.0496 38.1106 62.0503 37.7923V27.159C62.0503 26.7744 61.8975 26.4055 61.6256 26.1336C61.3538 25.8618 60.9848 25.709 60.6003 25.709Z" fill="white"/>
<path d="M54.7313 34.4086C54.7313 34.4086 54.7312 34.4086 54.7311 34.4086C54.3585 34.4262 54.0069 34.5865 53.7495 34.8566C53.4921 35.1265 53.3486 35.4856 53.349 35.8587V39.7253C53.349 39.8535 53.2981 39.9765 53.2075 40.0671C53.1168 40.1577 52.9938 40.2087 52.8657 40.2087C51.7119 40.2087 50.6054 40.667 49.7898 41.4828C48.9739 42.2984 48.5157 43.4049 48.5157 44.5587C48.5157 44.8256 48.2992 45.042 48.0323 45.042C47.7654 45.042 47.549 44.8256 47.549 44.5587C47.5443 43.1475 48.1048 41.7933 49.1054 40.7984C49.3062 40.5977 49.1731 40.2087 48.8892 40.2087H44.7905C43.9116 40.2087 43.1992 40.9211 43.1992 41.7999V44.5587C43.1992 45.3279 43.5048 46.0654 44.0485 46.6094C44.5925 47.1531 45.33 47.4587 46.0992 47.4587H53.3492C54.1185 47.4587 54.8559 47.1531 55.3999 46.6094C55.9437 46.0654 56.2492 45.3279 56.2492 44.5587V35.9697C56.2522 35.5321 56.0779 35.112 55.7659 34.8049C55.4943 34.5303 55.1174 34.3859 54.7316 34.4086C54.7315 34.4086 54.7314 34.4086 54.7313 34.4086Z" fill="white"/>
<path d="M57.2173 37.3092H58.2323C58.327 36.8449 58.5561 36.4185 58.8915 36.0835C59.2266 35.7481 59.6529 35.519 60.1173 35.4242V29.5276C59.6529 29.4329 59.2265 29.2037 58.8915 28.8684C58.5562 28.5333 58.327 28.1069 58.2323 27.6426H40.7356C40.6409 28.1069 40.4117 28.5333 40.0764 28.8684C39.7413 29.2037 39.3149 29.4328 38.8506 29.5276V35.4242C39.3149 35.519 39.7413 35.7481 40.0764 36.0835C40.4117 36.4186 40.6409 36.8449 40.7356 37.3092H52.3842V35.8592C52.3835 35.2378 52.6222 34.6401 53.0505 34.1902C53.479 33.7401 54.0642 33.4724 54.6848 33.4426C55.3282 33.4152 55.9543 33.6549 56.4152 34.1048C56.9268 34.5905 57.2169 35.2648 57.2175 35.9703L57.2173 37.3092ZM49.4839 36.3426C47.6184 36.3426 46.1006 34.6073 46.1006 32.4759C46.1006 30.3445 47.6184 28.6092 49.4839 28.6092C51.3495 28.6092 52.8673 30.3445 52.8673 32.4759C52.8673 34.6073 51.3495 36.3426 49.4839 36.3426Z" fill="white"/>
<path d="M52.8883 32.6435C52.8883 35.0809 51.2419 37.0566 49.2107 37.0566C47.1796 37.0566 45.5332 35.0809 45.5332 32.6435C45.5332 30.2062 47.1796 28.2305 49.2107 28.2305C51.2419 28.2305 52.8883 30.2062 52.8883 32.6435Z" fill="white"/>
<path d="M45.1337 48.4258H54.317C54.8508 48.4258 55.2837 48.9596 55.2837 49.3924V51.3258C55.2837 51.8596 54.8508 52.2925 54.317 52.2925H45.1337C44.5998 52.2925 44.167 51.7586 44.167 51.3258V49.3924C44.167 48.8586 44.5998 48.4258 45.1337 48.4258Z" fill="white"/>
<path d="M46.9589 34.334V30.9507H48.201C48.4717 30.9507 48.694 30.9974 48.868 31.0908C49.0453 31.181 49.1774 31.3051 49.2644 31.463C49.3514 31.6177 49.3949 31.79 49.3949 31.9802C49.3949 32.1864 49.3401 32.3749 49.2305 32.5457C49.1242 32.7164 48.9567 32.8405 48.7279 32.9178L49.4287 34.334H48.7182L48.0899 33H47.5775V34.334H46.9589ZM47.5775 32.5457H48.1624C48.3686 32.5457 48.52 32.4957 48.6167 32.3958C48.7134 32.2959 48.7617 32.1638 48.7617 31.9995C48.7617 31.8384 48.7134 31.7095 48.6167 31.6128C48.5233 31.5162 48.3702 31.4678 48.1575 31.4678H47.5775V32.5457ZM49.9703 34.334V30.9507H51.2221C51.4928 30.9507 51.7167 30.9958 51.8939 31.086C52.0712 31.1762 52.2033 31.3003 52.2903 31.4582C52.3773 31.616 52.4208 31.7933 52.4208 31.9898C52.4208 32.1767 52.3789 32.3491 52.2951 32.507C52.2113 32.6617 52.0808 32.7873 51.9036 32.884C51.7264 32.9774 51.4992 33.0242 51.2221 33.0242H50.5889V34.334H49.9703ZM50.5889 32.5215H51.1834C51.3993 32.5215 51.554 32.4748 51.6474 32.3813C51.7441 32.2847 51.7924 32.1542 51.7924 31.9898C51.7924 31.8223 51.7441 31.6918 51.6474 31.5983C51.554 31.5017 51.3993 31.4533 51.1834 31.4533H50.5889V32.5215Z" fill="#50B74A"/>
</g>
<defs>
<filter id="filter0_d_382_22889" x="0" y="0" width="98" height="98" filterUnits="userSpaceOnUse" color-interpolation-filters="sRGB">
<feFlood flood-opacity="0" result="BackgroundImageFix"/>
<feColorMatrix in="SourceAlpha" type="matrix" values="0 0 0 0 0 0 0 0 0 0 0 0 0 0 0 0 0 0 127 0" result="hardAlpha"/>
<feOffset dy="10"/>
<feGaussianBlur stdDeviation="10"/>
<feComposite in2="hardAlpha" operator="out"/>
<feColorMatrix type="matrix" values="0 0 0 0 0 0 0 0 0 0 0 0 0 0 0 0 0 0 0.1 0"/>
<feBlend mode="normal" in2="BackgroundImageFix" result="effect1_dropShadow_382_22889"/>
<feBlend mode="normal" in="SourceGraphic" in2="effect1_dropShadow_382_22889" result="shape"/>
</filter>
</defs>
</svg>
