<svg id="Layer_1" data-name="Layer 1" xmlns="http://www.w3.org/2000/svg" viewBox="0 0 600 600"><defs><style>.cls-1{fill:#ff8d00;}</style></defs><title>games</title><path class="cls-1" d="M105.72,342.65a85.56,85.56,0,1,1,127.08-48.93l-2.59,8.9-17.8-5.18,2.59-8.9a67.07,67.07,0,1,0-91.53,42.57l8.47,3.75-7.51,16.95L116,348A85.69,85.69,0,0,1,105.72,342.65Z"/><path class="cls-1" d="M136.56,354.7l1-18.51,9.25.51q1.83.1,3.68.1,1.14,0,2.27,0l9.26-.3.6,18.52-9.26.3q-1.45,0-2.91,0c-1.55,0-3.12,0-4.67-.13Z"/><path class="cls-1" d="M436.36,355.56l.43-18.53,9.26.21,1.47,0q1.82,0,3.63-.09l9.25-.48,1,18.51-9.25.48c-1.52.08-3.08.12-4.63.12l-1.87,0Z"/><path class="cls-1" d="M367.75,302.38l-2.51-8.92a85.6,85.6,0,1,1,119.94,53.68l-8.33,4.07-8.14-16.65,8.33-4.07a67,67,0,1,0-94-42.06l2.51,8.92Z"/><path class="cls-1" d="M471.64,471.18c-12.81-7.89-23.27-20.42-29.66-35.58l-30.05-62,16.68-8.09L459,428.22c5.18,12.4,13.74,22.41,24.13,28.21,9.65,5.38,19.68,6.37,28.25,2.79l12.33-5.15c17.61-7.36,29.12-32.84,18.17-59l-.28-.67L514.5,283.08l18-4.38,26.74,109.88c13.32,32.85.42,70.54-28.42,82.59l-12.33,5.15c-13.93,5.82-29.7,4.5-44.42-3.71Q472.85,471.92,471.64,471.18Z"/><path class="cls-1" d="M398.94,208.8a9.26,9.26,0,0,1-4.41-7.91v-9.42a49.44,49.44,0,0,1,15.22-35.58,51.13,51.13,0,0,1,71.62.11,49.43,49.43,0,0,1,15.11,35.62v5.71a9.27,9.27,0,0,1-18.53,0V191.6a31,31,0,0,0-9.54-22.35,32.6,32.6,0,0,0-45.73-.07,31,31,0,0,0-9.61,22.32v9.42a9.27,9.27,0,0,1-14.12,7.88Z"/><path class="cls-1" d="M63.5,467.09c-10.64-6.56-19-17.3-23.46-30.37A69.75,69.75,0,0,1,41.9,387.8L66.83,286.65l18,4.44L59.55,393.63l-.28.67a51.31,51.31,0,0,0-1.68,36.45c3.63,10.65,10.79,18.91,19.67,22.65l12.31,5.18c18.49,7.79,42-6,52.47-30.84l.21-.47,28-57.2,16.65,8.14-27.84,57c-14.48,34.06-48.81,52.21-76.64,40.48l-12.31-5.18A48.12,48.12,0,0,1,63.5,467.09Z"/><path class="cls-1" d="M107.24,206l0-15a50,50,0,1,1,100.09.15l0,18.69-18.53,0,0-18.69a31.61,31.61,0,0,0-9.18-22.45,31.47,31.47,0,0,0-44.6-.07,31.61,31.61,0,0,0-9.24,22.42l0,15Z"/><path class="cls-1" d="M345.38,384.15a52.53,52.53,0,1,1,27.44,7.78A52.2,52.2,0,0,1,345.38,384.15Zm45.32-73.68a34,34,0,1,0,16.18,29A33.89,33.89,0,0,0,390.7,310.47Z"/><path class="cls-1" d="M198.58,383.93A52.52,52.52,0,1,1,226,391.71,52.2,52.2,0,0,1,198.58,383.93Zm45.32-73.68a34,34,0,1,0,16.18,29A33.89,33.89,0,0,0,243.9,310.25Z"/><rect class="cls-1" x="290.43" y="326.72" width="18.53" height="77.97" transform="translate(-66.48 664.84) rotate(-89.91)"/><rect class="cls-1" x="284.25" y="97.87" width="18.53" height="209.44" transform="translate(90.49 495.81) rotate(-89.92)"/><rect class="cls-1" x="253.57" y="250.74" width="18.53" height="37.07" transform="translate(-6.83 531.71) rotate(-89.92)"/><rect class="cls-1" x="323.07" y="251.77" width="18.53" height="35.22" transform="translate(62.47 601.32) rotate(-89.92)"/><rect class="cls-1" x="289.64" y="298.06" width="18.53" height="35.22" transform="translate(-17.2 614.1) rotate(-89.92)"/><path class="cls-1" d="M440.88,248.46a9.25,9.25,0,0,1-1.88-1.53c-3.88-4.11-3.43-8.19-2.82-10.25a10,10,0,0,1,7.39-6.82,10,10,0,1,1-2.69,18.61Z"/><path class="cls-1" d="M414.68,278.8a9.21,9.21,0,0,1-1.88-1.53c-3.88-4.11-3.43-8.19-2.82-10.26a10,10,0,0,1,7.39-6.82,10,10,0,1,1-2.69,18.61Z"/><path class="cls-1" d="M445.75,305a9.25,9.25,0,0,1-1.88-1.53c-3.89-4.12-3.43-8.2-2.81-10.27a10,10,0,0,1,7.41-6.81A10,10,0,1,1,445.75,305Z"/><path class="cls-1" d="M471.94,271.61a9.25,9.25,0,0,1-1.87-1.53c-3.89-4.11-3.44-8.19-2.83-10.26a10,10,0,0,1,7.39-6.83,10,10,0,1,1-2.69,18.61Z"/><rect class="cls-1" x="133.74" y="230.88" width="33.36" height="18.53" transform="matrix(0, -1, 1, 0, -89.95, 390.2)"/><rect class="cls-1" x="133.06" y="282.08" width="33.36" height="18.53" transform="translate(-141.84 440.63) rotate(-89.91)"/><rect class="cls-1" x="114.98" y="249.04" width="18.53" height="33.36" transform="matrix(0, -1, 1, 0, -141.65, 389.58)"/><rect class="cls-1" x="168.08" y="247.22" width="18.53" height="35.22" transform="translate(-87.74 441.79) rotate(-89.92)"/></svg>