<svg id="Layer_1" data-name="Layer 1" xmlns="http://www.w3.org/2000/svg" viewBox="0 0 24 24"><defs><style>.cls-1{fill:#fbebd5;}.cls-2{fill:#eca040;}</style></defs><title>Icon Layanan 24x24 px</title><path class="cls-1" d="M2.15,23.62A1.83,1.83,0,0,1,.31,21.78V2.22A1.83,1.83,0,0,1,2.15.39H13l4.37,4.37v17a1.83,1.83,0,0,1-1.83,1.83Z"/><path class="cls-2" d="M12.87.7l4.18,4.18v16.9a1.52,1.52,0,0,1-1.52,1.52H2.15A1.52,1.52,0,0,1,.63,21.78V2.22A1.52,1.52,0,0,1,2.15.7H12.87m.26-.63h-11A2.15,2.15,0,0,0,0,2.22V21.78a2.15,2.15,0,0,0,2.15,2.15H15.54a2.15,2.15,0,0,0,2.15-2.15V4.62L13.13.07Z"/><path class="cls-2" d="M15.28,4.47a2,2,0,0,1-2-2v-2l4,4Z"/><path class="cls-2" d="M13.45.83l3.48,3.48H15.28a1.83,1.83,0,0,1-1.83-1.83V.83M13.13.07V2.48a2.15,2.15,0,0,0,2.15,2.15h2.41L13.13.07Z"/><rect class="cls-2" x="3.29" y="10.71" width="2.98" height="0.63"/><rect class="cls-2" x="7.19" y="10.71" width="1.15" height="0.63"/><rect class="cls-2" x="3.29" y="15.35" width="2.98" height="0.63"/><rect class="cls-2" x="7.19" y="15.35" width="1.15" height="0.63"/><rect class="cls-2" x="5.36" y="13.03" width="2.98" height="0.63"/><rect class="cls-2" x="3.29" y="13.03" width="1.15" height="0.63"/><rect class="cls-2" x="3.29" y="3.6" width="2.98" height="0.63"/><rect class="cls-2" x="7.19" y="3.6" width="1.15" height="0.63"/><rect class="cls-2" x="3.29" y="8.25" width="2.98" height="0.63"/><rect class="cls-2" x="7.19" y="8.25" width="1.15" height="0.63"/><rect class="cls-2" x="5.36" y="5.92" width="2.98" height="0.63"/><rect class="cls-2" x="3.29" y="5.92" width="1.15" height="0.63"/><rect class="cls-2" x="18.4" y="11.07" width="0.94" height="11.35" transform="translate(-6.24 14.27) rotate(-35.97)"/><rect class="cls-2" x="20.63" y="16.95" width="1.57" height="6.62" transform="matrix(0.81, -0.59, 0.59, 0.81, -7.82, 16.44)"/><circle class="cls-1" cx="15.53" cy="11.84" r="5.49" transform="translate(-3.82 14.45) rotate(-45)"/><path class="cls-2" d="M15.53,17.64a5.8,5.8,0,1,1,4.11-1.7A5.79,5.79,0,0,1,15.53,17.64Zm0-11A5.18,5.18,0,1,0,19.2,8.17,5.16,5.16,0,0,0,15.53,6.66Z"/><circle class="cls-1" cx="5.36" cy="19.64" r="2.75" transform="translate(-12.32 9.54) rotate(-45)"/><path class="cls-2" d="M5.36,22.54a2.9,2.9,0,1,1,2.05-.85A2.9,2.9,0,0,1,5.36,22.54Zm0-5.49a2.59,2.59,0,1,0,1.83.76A2.58,2.58,0,0,0,5.36,17.05Z"/><polygon class="cls-2" points="5.02 21.04 3.77 20.14 4.05 19.76 4.94 20.4 6.62 18.41 6.98 18.71 5.02 21.04"/></svg>