<svg width="30" height="21" viewBox="0 0 30 21" fill="none" xmlns="http://www.w3.org/2000/svg">
<path d="M19.3888 5.58392H1.64027C0.805567 5.58392 0.128906 6.26058 0.128906 7.09529V18.4802C0.128906 19.3149 0.805567 19.9916 1.64027 19.9916H19.3888C20.2236 19.9916 20.9002 19.3149 20.9002 18.4802V7.09529C20.9002 6.26058 20.2236 5.58392 19.3888 5.58392Z" fill="#FBEBD5"/>
<path d="M19.3892 20.1209H1.64066C1.20553 20.1209 0.788235 19.9481 0.480558 19.6404C0.172881 19.3327 3.01337e-05 18.9154 3.01337e-05 18.4803V7.10531C-0.00128071 6.88903 0.0401878 6.67462 0.12205 6.47442C0.203912 6.27422 0.324552 6.09218 0.477028 5.93878C0.629505 5.78538 0.810809 5.66364 1.01051 5.58057C1.21021 5.4975 1.42437 5.45474 1.64066 5.45474H19.3892C19.6064 5.45342 19.8216 5.49521 20.0224 5.5777C20.2233 5.66018 20.4058 5.78171 20.5593 5.93524C20.7128 6.08877 20.8344 6.27125 20.9169 6.47211C20.9993 6.67296 21.0411 6.88819 21.0398 7.10531V18.4803C21.0398 18.6966 20.997 18.9108 20.914 19.1105C20.8309 19.3102 20.7092 19.4915 20.5558 19.6439C20.4024 19.7964 20.2203 19.9171 20.0201 19.9989C19.8199 20.0808 19.6055 20.1222 19.3892 20.1209ZM1.64066 5.72321C1.45915 5.72321 1.27943 5.75896 1.11175 5.82841C0.944063 5.89787 0.791701 5.99968 0.663361 6.12802C0.404167 6.38721 0.258553 6.73875 0.258553 7.10531V18.4803C0.258553 18.8469 0.404167 19.1984 0.663361 19.4576C0.791701 19.5859 0.944063 19.6877 1.11175 19.7572C1.27943 19.8267 1.45915 19.8624 1.64066 19.8624H19.3892C19.7558 19.8624 20.1073 19.7168 20.3665 19.4576C20.6257 19.1984 20.7713 18.8469 20.7713 18.4803V7.10531C20.7713 6.73875 20.6257 6.38721 20.3665 6.12802C20.1073 5.86882 19.7558 5.72321 19.3892 5.72321H1.64066Z" fill="#FA9D1C"/>
<path d="M20.9002 8.1991H0.128906V11.1622H20.9002V8.1991Z" fill="#FA9D1C"/>
<path d="M21.0398 11.2915H0V8.05994H21.0398V11.2915ZM0.258523 11.0329H20.7713V8.3284H0.258523V11.0329Z" fill="#FA9D1C"/>
<path d="M7.83611 14.6224H1.81055V15.1494H7.83611V14.6224Z" fill="#FA9D1C"/>
<path d="M7.83611 16.5913H1.81055V17.1183H7.83611V16.5913Z" fill="#FA9D1C"/>
<path d="M18.3513 4.55624C18.1378 4.55624 17.9648 4.72925 17.9648 4.94277C17.9648 5.15629 18.1378 5.32896 18.3513 5.32896H21.8404C22.0539 5.32896 22.2268 5.15639 22.2268 4.94277C22.2268 4.72926 22.054 4.55624 21.8404 4.55624H18.3513ZM21.7796 5.65953H18.4445C17.9429 6.73037 15.2301 8.0594 15.2541 11.1979C15.2743 13.8063 17.2214 14.2364 20.1046 14.2364H20.1123H20.1203C23.0031 14.2364 24.9505 13.8063 24.9705 11.1979C24.9945 8.05938 22.2818 6.73037 21.78 5.65953H21.7796ZM20.2969 7.2888V7.58938C20.4951 7.61012 20.6657 7.65084 20.8069 7.71152C20.9492 7.7732 21.0725 7.86511 21.1786 7.98935C21.262 8.08403 21.3265 8.18179 21.372 8.28143C21.4175 8.38184 21.4402 8.47286 21.4402 8.55628C21.4402 8.64919 21.406 8.72973 21.3388 8.79715C21.2706 8.86435 21.189 8.89855 21.0925 8.89855C20.9104 8.89855 20.7919 8.79991 20.7387 8.60371C20.6773 8.37233 20.5301 8.21797 20.297 8.14205V9.29751C20.5264 9.36018 20.7102 9.41789 20.846 9.47008C20.9823 9.52128 21.1048 9.59619 21.212 9.69473C21.3266 9.79613 21.4156 9.91861 21.4783 10.0597C21.5398 10.2018 21.5712 10.3565 21.5712 10.5252C21.5712 10.7366 21.5218 10.9336 21.4224 11.1178C21.3227 11.3027 21.1768 11.4523 20.9844 11.5699C20.791 11.6864 20.5625 11.7556 20.2971 11.7774V12.1885C20.2971 12.2974 20.2862 12.377 20.2649 12.4274C20.2435 12.4774 20.1975 12.5023 20.1246 12.5023C20.0584 12.5023 20.0115 12.4826 19.9843 12.4416C19.9574 12.4011 19.9446 12.3375 19.9446 12.252V11.7831C19.7284 11.7594 19.5387 11.7084 19.3767 11.6305C19.2146 11.5528 19.0789 11.4561 18.971 11.3404C18.8629 11.224 18.7822 11.1035 18.7311 10.9794C18.6789 10.8543 18.6532 10.731 18.6532 10.6104C18.6532 10.5225 18.6874 10.4417 18.7576 10.3708C18.8268 10.2996 18.9131 10.2637 19.0165 10.2637C19.0997 10.2637 19.1699 10.2826 19.2279 10.3214C19.2846 10.3603 19.3245 10.4153 19.3473 10.4854C19.3965 10.637 19.4402 10.7536 19.4771 10.8342C19.5151 10.9149 19.5708 10.9888 19.6458 11.0551C19.7208 11.1215 19.8203 11.1727 19.9446 11.2077V9.91653C19.696 9.84735 19.4895 9.77155 19.3226 9.68714C19.1557 9.60273 19.0202 9.48323 18.9168 9.32787C18.8137 9.1724 18.7614 8.97235 18.7614 8.72774C18.7614 8.4092 18.8628 8.14758 19.0657 7.94477C19.2686 7.74086 19.5614 7.62224 19.9445 7.58925V7.29441C19.9445 7.13883 20.0032 7.06105 20.1197 7.06105C20.2384 7.06105 20.2971 7.13696 20.2971 7.28867L20.2969 7.2888ZM19.9444 9.19436V8.13081C19.7888 8.17704 19.6673 8.23773 19.5801 8.31375C19.493 8.38945 19.4494 8.50519 19.4494 8.65879C19.4494 8.80466 19.4901 8.91566 19.5715 8.99058C19.6532 9.06549 19.7773 9.13368 19.9442 9.19448L19.9444 9.19436ZM20.2969 10.019V11.2363C20.4836 11.1993 20.6277 11.1244 20.7301 11.0116C20.8315 10.8978 20.8827 10.767 20.8827 10.6162C20.8827 10.4551 20.8335 10.3308 20.7338 10.2427C20.6352 10.1545 20.4892 10.0797 20.2969 10.019L20.2969 10.019ZM18.5102 4.31374H21.7552C22.2388 2.68193 23.0104 2.81511 22.3905 2.22758C21.7708 1.63971 19.6735 1.24247 18.2987 1.99388C16.9238 2.74508 18.0268 2.68195 18.5104 4.31387L18.5102 4.31374Z" fill="#FA9D1C"/>
<ellipse cx="20.3184" cy="10.0924" rx="2.26562" ry="3.08949" fill="#FA9D1C"/>
<path d="M19.4651 11.122L18.9354 10.1464H18.5529V11.122H18.0527V8.65228H19.1218C19.2357 8.64496 19.35 8.65893 19.4575 8.6933C19.565 8.72767 19.6634 8.78169 19.7464 8.85193C19.8294 8.92217 19.8952 9.0071 19.9396 9.10134C19.9841 9.19557 20.0062 9.29705 20.0045 9.39934C20.0086 9.54014 19.9622 9.67841 19.8722 9.79387C19.7822 9.90933 19.6532 9.99591 19.5043 10.0409L20.1124 11.0956L19.4651 11.122ZM19.0335 9.10931H18.5333V9.7509H19.0335C19.0855 9.75864 19.1387 9.75614 19.1895 9.74358C19.2403 9.73102 19.2874 9.7087 19.3276 9.67817C19.3678 9.64765 19.4001 9.60964 19.4223 9.5668C19.4444 9.52397 19.4559 9.47732 19.4559 9.43011C19.4559 9.38289 19.4444 9.33625 19.4223 9.29341C19.4001 9.25057 19.3678 9.21256 19.3276 9.18204C19.2874 9.15151 19.2403 9.12919 19.1895 9.11663C19.1387 9.10407 19.0855 9.10157 19.0335 9.10931Z" fill="#FBEBD5"/>
<path d="M21.9538 11.1429C21.8233 11.2522 21.6526 11.3098 21.4777 11.3035C21.3905 11.3092 21.3031 11.296 21.2222 11.2651C21.1413 11.2342 21.0691 11.1863 21.011 11.1251V11.946H20.5254V9.47437H21.0015V9.67066C21.0616 9.60644 21.1366 9.5561 21.2209 9.52359C21.3051 9.49108 21.3963 9.47729 21.4872 9.48329C21.6621 9.47705 21.8328 9.53463 21.9633 9.6439C22.1295 9.86408 22.201 10.1349 22.1633 10.4023C22.1924 10.6649 22.1179 10.9283 21.9538 11.1429ZM21.3443 9.85804C21.0587 9.85804 21.0206 10.0811 21.0206 10.3756C21.0206 10.67 21.0206 10.8931 21.3443 10.8931C21.6681 10.8931 21.6681 10.67 21.6681 10.3756C21.6681 10.0811 21.6015 9.85804 21.3158 9.85804H21.3443Z" fill="#FBEBD5"/>
</svg>
