<svg id="Layer_1" data-name="Layer 1" xmlns="http://www.w3.org/2000/svg" viewBox="0 0 24 24"><defs><style>.cls-1{fill:#eca040;}.cls-2{fill:#fbebd5;}</style></defs><title>Icon Layanan 24x24 px</title><path class="cls-1" d="M5.27,0A2.16,2.16,0,0,0,3.11,2.17V21.83A2.16,2.16,0,0,0,5.27,24H18.73a2.16,2.16,0,0,0,2.16-2.16V4.58L16.31,0Z"/><path class="cls-2" d="M18.47,4.43a2,2,0,0,1-2-2v-2l4,4Z"/><path class="cls-1" d="M16.63.77l3.5,3.5H18.47a1.84,1.84,0,0,1-1.84-1.84V.77M16.31,0V2.43a2.16,2.16,0,0,0,2.16,2.16h2.42L16.31,0Z"/><path class="cls-2" d="M14,4.74,10,9.63,14,13.69v-2h7s2.84.22,2.84,2.31c0,0,1-6.81-5.37-6.81H13.82Z"/><path class="cls-1" d="M23.78,14.16h0a.16.16,0,0,1-.15-.16c0-1.93-2.67-2.15-2.69-2.16H14.11v1.85a.16.16,0,0,1-.27.11L9.91,9.74a.16.16,0,0,1,0-.21l3.93-4.89a.16.16,0,0,1,.28.11L14,7h4.42a5.31,5.31,0,0,1,4.25,1.68c1.76,2,1.3,5.18,1.28,5.31A.16.16,0,0,1,23.78,14.16ZM10.23,9.62l3.56,3.68V11.68a.16.16,0,0,1,.16-.16h7s2,.17,2.74,1.45a6.34,6.34,0,0,0-1.26-4.06,5,5,0,0,0-4-1.57H13.82a.16.16,0,0,1-.16-.17l.1-2Z"/><path class="cls-2" d="M10,21.9,14,17,10,13v2h-7S.22,14.74.22,12.64c0,0-1,6.81,5.37,6.81h4.58Z"/><path class="cls-1" d="M10,22.06H10a.16.16,0,0,1-.1-.16L10,19.61H5.59a5.31,5.31,0,0,1-4.25-1.68c-1.76-2-1.3-5.18-1.28-5.31a.16.16,0,0,1,.17-.13.16.16,0,0,1,.15.16C.38,14.57,3,14.8,3.07,14.8H9.89V13a.16.16,0,0,1,.27-.11l3.93,4.06a.16.16,0,0,1,0,.21L10.17,22A.16.16,0,0,1,10,22.06ZM.32,13.66a6.34,6.34,0,0,0,1.26,4.06,5,5,0,0,0,4,1.57h4.58a.16.16,0,0,1,.16.17l-.1,2L13.77,17l-3.56-3.68V15a.16.16,0,0,1-.16.16h-7S1,14.94.32,13.66Z"/></svg>