<svg width="119" height="50" viewBox="0 0 119 50" fill="none" xmlns="http://www.w3.org/2000/svg">
<g filter="url(#filter0_d_1142_3897)">
<rect x="10" y="6" width="99" height="30" rx="14" fill="white"/>
</g>
<path d="M21.2411 26V16.2H24.8391C25.6231 16.2 26.2671 16.3353 26.7711 16.606C27.2844 16.8673 27.6671 17.2267 27.9191 17.684C28.1711 18.132 28.2971 18.6313 28.2971 19.182C28.2971 19.7793 28.1384 20.3253 27.8211 20.82C27.5131 21.3147 27.0277 21.674 26.3651 21.898L28.3951 26H26.3371L24.5171 22.136H23.0331V26H21.2411ZM23.0331 20.82H24.7271C25.3244 20.82 25.7631 20.6753 26.0431 20.386C26.3231 20.0967 26.4631 19.714 26.4631 19.238C26.4631 18.7713 26.3231 18.398 26.0431 18.118C25.7724 17.838 25.3291 17.698 24.7131 17.698H23.0331V20.82ZM29.9637 26V16.2H36.3617V17.642H31.7557V20.33H35.9417V21.73H31.7557V24.558H36.3617V26H29.9637ZM42.3415 26.168C41.4175 26.168 40.6101 25.958 39.9195 25.538C39.2288 25.118 38.6921 24.5347 38.3095 23.788C37.9268 23.032 37.7355 22.1547 37.7355 21.156C37.7355 20.148 37.9315 19.2613 38.3235 18.496C38.7248 17.7213 39.2895 17.1193 40.0175 16.69C40.7548 16.2513 41.6275 16.032 42.6355 16.032C43.7835 16.032 44.7355 16.3073 45.4915 16.858C46.2475 17.4087 46.7375 18.1693 46.9615 19.14H44.9595C44.8101 18.6827 44.5395 18.328 44.1475 18.076C43.7555 17.8147 43.2515 17.684 42.6355 17.684C41.6555 17.684 40.8995 17.9967 40.3675 18.622C39.8355 19.238 39.5695 20.0873 39.5695 21.17C39.5695 22.2527 39.8308 23.0927 40.3535 23.69C40.8855 24.278 41.6041 24.572 42.5095 24.572C43.3961 24.572 44.0635 24.334 44.5115 23.858C44.9688 23.3727 45.2441 22.738 45.3375 21.954H42.8595V20.61H47.1435V26H45.4915L45.3515 24.712C45.0341 25.1787 44.6375 25.538 44.1615 25.79C43.6855 26.042 43.0788 26.168 42.3415 26.168ZM48.8856 26V16.2H50.6776V26H48.8856ZM55.923 26.168C55.2043 26.168 54.5697 26.0467 54.019 25.804C53.4683 25.552 53.0343 25.1973 52.717 24.74C52.3997 24.2733 52.2363 23.7087 52.227 23.046H54.117C54.1357 23.5033 54.299 23.8907 54.607 24.208C54.9243 24.516 55.3583 24.67 55.909 24.67C56.385 24.67 56.763 24.558 57.043 24.334C57.323 24.1007 57.463 23.7927 57.463 23.41C57.463 23.0087 57.337 22.696 57.085 22.472C56.8423 22.248 56.5157 22.066 56.105 21.926C55.6943 21.786 55.2557 21.6367 54.789 21.478C54.033 21.2167 53.4543 20.8807 53.053 20.47C52.661 20.0593 52.465 19.5133 52.465 18.832C52.4557 18.2533 52.591 17.7587 52.871 17.348C53.1603 16.928 53.5523 16.606 54.047 16.382C54.5417 16.1487 55.111 16.032 55.755 16.032C56.4083 16.032 56.9823 16.1487 57.477 16.382C57.981 16.6153 58.373 16.942 58.653 17.362C58.9423 17.782 59.0963 18.2813 59.115 18.86H57.197C57.1877 18.5147 57.0523 18.2113 56.791 17.95C56.539 17.6793 56.1843 17.544 55.727 17.544C55.335 17.5347 55.0037 17.6327 54.733 17.838C54.4717 18.034 54.341 18.3233 54.341 18.706C54.341 19.0327 54.4437 19.294 54.649 19.49C54.8543 19.6767 55.1343 19.8353 55.489 19.966C55.8437 20.0967 56.2497 20.2367 56.707 20.386C57.1923 20.554 57.6357 20.75 58.037 20.974C58.4383 21.198 58.7603 21.4967 59.003 21.87C59.2457 22.234 59.367 22.7053 59.367 23.284C59.367 23.7973 59.2363 24.2733 58.975 24.712C58.7137 25.1507 58.3263 25.5053 57.813 25.776C57.2997 26.0373 56.6697 26.168 55.923 26.168ZM63.0895 26V17.642H60.2335V16.2H67.7515V17.642H64.8815V26H63.0895ZM69.079 26V16.2H72.677C73.461 16.2 74.105 16.3353 74.609 16.606C75.1223 16.8673 75.505 17.2267 75.757 17.684C76.009 18.132 76.135 18.6313 76.135 19.182C76.135 19.7793 75.9763 20.3253 75.659 20.82C75.351 21.3147 74.8656 21.674 74.203 21.898L76.233 26H74.175L72.355 22.136H70.871V26H69.079ZM70.871 20.82H72.565C73.1623 20.82 73.601 20.6753 73.881 20.386C74.161 20.0967 74.301 19.714 74.301 19.238C74.301 18.7713 74.161 18.398 73.881 18.118C73.6103 17.838 73.167 17.698 72.551 17.698H70.871V20.82ZM77.1716 26L80.7556 16.2H82.7716L86.3556 26H84.4516L83.6676 23.732H79.8456L79.0476 26H77.1716ZM80.3356 22.332H83.1776L81.7496 18.258L80.3356 22.332ZM90.964 26.168C90.2453 26.168 89.6107 26.0467 89.06 25.804C88.5093 25.552 88.0753 25.1973 87.758 24.74C87.4407 24.2733 87.2773 23.7087 87.268 23.046H89.158C89.1767 23.5033 89.34 23.8907 89.648 24.208C89.9653 24.516 90.3993 24.67 90.95 24.67C91.426 24.67 91.804 24.558 92.084 24.334C92.364 24.1007 92.504 23.7927 92.504 23.41C92.504 23.0087 92.378 22.696 92.126 22.472C91.8833 22.248 91.5567 22.066 91.146 21.926C90.7353 21.786 90.2967 21.6367 89.83 21.478C89.074 21.2167 88.4953 20.8807 88.094 20.47C87.702 20.0593 87.506 19.5133 87.506 18.832C87.4967 18.2533 87.632 17.7587 87.912 17.348C88.2013 16.928 88.5933 16.606 89.088 16.382C89.5827 16.1487 90.152 16.032 90.796 16.032C91.4493 16.032 92.0233 16.1487 92.518 16.382C93.022 16.6153 93.414 16.942 93.694 17.362C93.9833 17.782 94.1373 18.2813 94.156 18.86H92.238C92.2287 18.5147 92.0933 18.2113 91.832 17.95C91.58 17.6793 91.2253 17.544 90.768 17.544C90.376 17.5347 90.0447 17.6327 89.774 17.838C89.5127 18.034 89.382 18.3233 89.382 18.706C89.382 19.0327 89.4847 19.294 89.69 19.49C89.8953 19.6767 90.1753 19.8353 90.53 19.966C90.8847 20.0967 91.2907 20.2367 91.748 20.386C92.2333 20.554 92.6767 20.75 93.078 20.974C93.4793 21.198 93.8013 21.4967 94.044 21.87C94.2867 22.234 94.408 22.7053 94.408 23.284C94.408 23.7973 94.2773 24.2733 94.016 24.712C93.7547 25.1507 93.3673 25.5053 92.854 25.776C92.3407 26.0373 91.7107 26.168 90.964 26.168ZM95.9715 26V16.2H97.7635V26H95.9715Z" fill="#FA9D1C"/>
<defs>
<filter id="filter0_d_1142_3897" x="0" y="0" width="119" height="50" filterUnits="userSpaceOnUse" color-interpolation-filters="sRGB">
<feFlood flood-opacity="0" result="BackgroundImageFix"/>
<feColorMatrix in="SourceAlpha" type="matrix" values="0 0 0 0 0 0 0 0 0 0 0 0 0 0 0 0 0 0 127 0" result="hardAlpha"/>
<feOffset dy="4"/>
<feGaussianBlur stdDeviation="5"/>
<feComposite in2="hardAlpha" operator="out"/>
<feColorMatrix type="matrix" values="0 0 0 0 0 0 0 0 0 0 0 0 0 0 0 0 0 0 0.1 0"/>
<feBlend mode="normal" in2="BackgroundImageFix" result="effect1_dropShadow_1142_3897"/>
<feBlend mode="normal" in="SourceGraphic" in2="effect1_dropShadow_1142_3897" result="shape"/>
</filter>
</defs>
</svg>
