<svg width="103" height="50" viewBox="0 0 103 50" fill="none" xmlns="http://www.w3.org/2000/svg">
<g filter="url(#filter0_d_1135_5491)">
<rect x="10" y="6" width="83" height="30" rx="14" fill="white"/>
</g>
<path d="M31.4461 26V16.2H33.2381V24.6H37.5781V26H31.4461ZM42.8604 26.168C41.8804 26.168 41.0217 25.9533 40.2844 25.524C39.5564 25.0947 38.9824 24.502 38.5624 23.746C38.1517 22.9807 37.9464 22.0987 37.9464 21.1C37.9464 20.1013 38.1517 19.224 38.5624 18.468C38.9824 17.7027 39.5564 17.1053 40.2844 16.676C41.0217 16.2467 41.8804 16.032 42.8604 16.032C43.8311 16.032 44.6851 16.2467 45.4224 16.676C46.1597 17.1053 46.7337 17.7027 47.1444 18.468C47.5551 19.224 47.7604 20.1013 47.7604 21.1C47.7604 22.0987 47.5551 22.9807 47.1444 23.746C46.7337 24.502 46.1597 25.0947 45.4224 25.524C44.6851 25.9533 43.8311 26.168 42.8604 26.168ZM42.8604 24.558C43.7937 24.558 44.5357 24.25 45.0864 23.634C45.6464 23.018 45.9264 22.1733 45.9264 21.1C45.9264 20.0267 45.6464 19.182 45.0864 18.566C44.5357 17.95 43.7937 17.642 42.8604 17.642C41.9271 17.642 41.1804 17.95 40.6204 18.566C40.0604 19.182 39.7804 20.0267 39.7804 21.1C39.7804 22.1733 40.0604 23.018 40.6204 23.634C41.1804 24.25 41.9271 24.558 42.8604 24.558ZM53.6266 26.168C52.7026 26.168 51.8953 25.958 51.2046 25.538C50.514 25.118 49.9773 24.5347 49.5946 23.788C49.212 23.032 49.0206 22.1547 49.0206 21.156C49.0206 20.148 49.2166 19.2613 49.6086 18.496C50.01 17.7213 50.5746 17.1193 51.3026 16.69C52.04 16.2513 52.9126 16.032 53.9206 16.032C55.0686 16.032 56.0206 16.3073 56.7766 16.858C57.5326 17.4087 58.0226 18.1693 58.2466 19.14H56.2446C56.0953 18.6827 55.8246 18.328 55.4326 18.076C55.0406 17.8147 54.5366 17.684 53.9206 17.684C52.9406 17.684 52.1846 17.9967 51.6526 18.622C51.1206 19.238 50.8546 20.0873 50.8546 21.17C50.8546 22.2527 51.116 23.0927 51.6386 23.69C52.1706 24.278 52.8893 24.572 53.7946 24.572C54.6813 24.572 55.3486 24.334 55.7966 23.858C56.254 23.3727 56.5293 22.738 56.6226 21.954H54.1446V20.61H58.4286V26H56.7766L56.6366 24.712C56.3193 25.1787 55.9226 25.538 55.4466 25.79C54.9706 26.042 54.364 26.168 53.6266 26.168ZM60.1708 26V16.2H61.9628V26H60.1708ZM63.8622 26V16.2H65.6542L70.2602 23.102V16.2H72.0522V26H70.2602L65.6542 19.112V26H63.8622Z" fill="#FA9D1C"/>
<defs>
<filter id="filter0_d_1135_5491" x="0" y="0" width="103" height="50" filterUnits="userSpaceOnUse" color-interpolation-filters="sRGB">
<feFlood flood-opacity="0" result="BackgroundImageFix"/>
<feColorMatrix in="SourceAlpha" type="matrix" values="0 0 0 0 0 0 0 0 0 0 0 0 0 0 0 0 0 0 127 0" result="hardAlpha"/>
<feOffset dy="4"/>
<feGaussianBlur stdDeviation="5"/>
<feComposite in2="hardAlpha" operator="out"/>
<feColorMatrix type="matrix" values="0 0 0 0 0 0 0 0 0 0 0 0 0 0 0 0 0 0 0.1 0"/>
<feBlend mode="normal" in2="BackgroundImageFix" result="effect1_dropShadow_1135_5491"/>
<feBlend mode="normal" in="SourceGraphic" in2="effect1_dropShadow_1135_5491" result="shape"/>
</filter>
</defs>
</svg>
