<?xml version="1.0" encoding="iso-8859-1"?>
<!-- Generator: Adobe Illustrator 18.0.0, SVG Export Plug-In . SVG Version: 6.00 Build 0)  -->
<!DOCTYPE svg PUBLIC "-//W3C//DTD SVG 1.1//EN" "http://www.w3.org/Graphics/SVG/1.1/DTD/svg11.dtd">
<svg version="1.1" id="Capa_1" xmlns="http://www.w3.org/2000/svg" xmlns:xlink="http://www.w3.org/1999/xlink" x="0px" y="0px"
	 viewBox="0 0 490.254 490.254" style="enable-background:new 0 0 490.254 490.254;" xml:space="preserve">
<g>
	<polygon points="253.146,191.826 237.848,191.826 237.848,237.718 191.956,237.718 191.956,253.015 237.848,253.015 
		237.848,298.907 253.146,298.907 253.146,253.015 299.038,253.015 299.038,237.718 253.146,237.718 	"/>
	<polygon points="0,169.503 15.297,169.503 15.297,15.428 169.376,15.428 169.376,0.131 0,0.131 	"/>
	<polygon points="15.297,320.751 0,320.751 0,490.124 169.376,490.124 169.376,474.826 15.297,474.826 	"/>
	<polygon points="320.878,0.131 320.878,15.428 474.957,15.428 474.957,169.503 490.254,169.503 490.254,0.131 	"/>
	<polygon points="474.957,474.826 320.878,474.826 320.878,490.124 490.254,490.124 490.254,320.751 474.957,320.751 	"/>
</g>
<g>
</g>
<g>
</g>
<g>
</g>
<g>
</g>
<g>
</g>
<g>
</g>
<g>
</g>
<g>
</g>
<g>
</g>
<g>
</g>
<g>
</g>
<g>
</g>
<g>
</g>
<g>
</g>
<g>
</g>
</svg>
