<svg id="Layer_1" data-name="Layer 1" xmlns="http://www.w3.org/2000/svg" viewBox="0 0 144.45 144.45"><defs><style>.cls-1{fill:#fff;}.cls-2{fill:#308599;}.cls-3{fill:#eeb82e;}</style></defs><title>allcat</title><path class="cls-1" d="M144.45,72.23A72.23,72.23,0,1,1,72.22,0a72.22,72.22,0,0,1,72.23,72.23"/><path class="cls-2" d="M43.71,69.59c2.51,0,5,0,7.54,0s4.92,0,7.37,0a10.9,10.9,0,0,0,11-10.89q0-7.45,0-14.91a10.88,10.88,0,0,0-10.8-10.88q-7.54,0-15.07,0A10.89,10.89,0,0,0,32.91,43.8q0,7.45,0,14.91A10.91,10.91,0,0,0,43.71,69.59Zm1-26.22q6.55.05,13.1,0c1,0,1.35.34,1.34,1.34q-.05,6.55,0,13.1c0,1-.34,1.35-1.34,1.34q-6.55-.05-13.1,0c-1,0-1.36-.34-1.34-1.34,0-2.24,0-4.47,0-6.71s0-4.26,0-6.38C43.34,43.71,43.71,43.36,44.7,43.37Z"/><path class="cls-2" d="M85.57,69.59q7.62.06,15.24,0a10.89,10.89,0,0,0,10.73-10.79c0-2.51,0-5,0-7.54s0-5.13,0-7.7a10.89,10.89,0,0,0-10.71-10.64q-7.62-.06-15.24,0A10.88,10.88,0,0,0,74.86,43.71q0,7.54,0,15.07A10.89,10.89,0,0,0,85.57,69.59Zm-.26-24.86c0-1,.3-1.37,1.31-1.36q6.55.06,13.1,0c1,0,1.37.3,1.36,1.31,0,4.37,0,8.73,0,13.1,0,1.13-.48,1.38-1.48,1.36-2.18,0-4.37,0-6.55,0s-4.26,0-6.38,0c-1,0-1.37-.3-1.36-1.32Q85.36,51.27,85.31,44.73Z"/><path class="cls-2" d="M58.69,74.86q-7.45,0-14.91,0A10.9,10.9,0,0,0,32.91,85.68c0,2.51,0,5,0,7.54s0,4.92,0,7.37a10.9,10.9,0,0,0,10.9,10.95q7.45,0,14.91,0a10.89,10.89,0,0,0,10.86-10.82q0-7.45,0-14.91A10.89,10.89,0,0,0,58.69,74.86Zm.45,24.88c0,1-.34,1.35-1.34,1.34q-6.55-.05-13.1,0c-1,0-1.36-.34-1.34-1.34,0-2.24,0-4.47,0-6.71s0-4.26,0-6.38c0-1,.34-1.34,1.34-1.34q6.55.05,13.1,0c1,0,1.35.34,1.34,1.34Q59.08,93.2,59.14,99.75Z"/><path class="cls-3" d="M100.7,74.86q-7.54,0-15.07,0A10.89,10.89,0,0,0,74.86,85.61q-.05,7.54,0,15.07a10.91,10.91,0,0,0,10.83,10.86c2.51,0,5,0,7.54,0s5,0,7.54,0a10.9,10.9,0,0,0,10.77-10.75q.06-7.54,0-15.07A10.88,10.88,0,0,0,100.7,74.86Zm.38,24.88c0,1-.34,1.36-1.34,1.34-2.24,0-4.47,0-6.71,0s-4.26,0-6.38,0c-1,0-1.34-.34-1.34-1.34q.05-6.55,0-13.1c0-1,.34-1.34,1.34-1.34q6.55.05,13.1,0c1,0,1.35.34,1.34,1.34Q101,93.2,101.08,99.75Z"/></svg>