<svg width="512" height="512" xmlns="http://www.w3.org/2000/svg">

 <g>
  <title>background</title>
  <rect fill="none" id="canvas_background" height="402" width="582" y="-1" x="-1"/>
 </g>
 <g>
  <title>Layer 1</title>
  <path id="svg_1" fill="#4c4c4c" d="m512,256c0,141.38672 -114.61328,256 -256,256s-256,-114.61328 -256,-256s114.61328,-256 256,-256s256,114.61328 256,256zm0,0"/>
  <path stroke="null" id="svg_2" fill="#ff0000" d="m484.999961,256.000004c0,124.814371 -102.08107,226.000004 -227.999981,226.000004s-227.999981,-101.185633 -227.999981,-226.000004s102.08107,-226.000004 227.999981,-226.000004s227.999981,101.185633 227.999981,226.000004zm0,0"/>
  <path id="svg_3" fill="#ffffff" d="m364.46484,183.69141l-36.15625,-36.15625l-72.30859,72.30859l-72.30859,-72.30859l-36.15625,36.15625l72.30859,72.30859l-72.30859,72.30859l36.15625,36.15625l72.30859,-72.30859l72.30859,72.30859l36.15625,-36.15625l-72.30859,-72.30859l72.30859,-72.30859zm0,0"/>
 </g>
</svg>