<svg width="29" height="24" viewBox="0 0 29 24" fill="none" xmlns="http://www.w3.org/2000/svg">
<path fill-rule="evenodd" clip-rule="evenodd" d="M6.81 2H15.191C18.28 2 20 3.78 20 6.83V17.16C20 20.26 18.28 22 15.191 22H6.81C3.77 22 2 20.26 2 17.16V6.83C2 3.78 3.77 2 6.81 2ZM7.08078 6.6599V6.6499H10.0698C10.5008 6.6499 10.8508 6.9999 10.8508 7.4289C10.8508 7.8699 10.5008 8.2199 10.0698 8.2199H7.08078C6.64978 8.2199 6.30078 7.8699 6.30078 7.4399C6.30078 7.0099 6.64978 6.6599 7.08078 6.6599ZM7.08078 12.7397H14.9208C15.3508 12.7397 15.7008 12.3897 15.7008 11.9597C15.7008 11.5297 15.3508 11.1787 14.9208 11.1787H7.08078C6.64978 11.1787 6.30078 11.5297 6.30078 11.9597C6.30078 12.3897 6.64978 12.7397 7.08078 12.7397ZM7.08094 17.3099H14.9209C15.3199 17.2699 15.6209 16.9289 15.6209 16.5299C15.6209 16.1199 15.3199 15.7799 14.9209 15.7399H7.08094C6.78094 15.7099 6.49094 15.8499 6.33094 16.1099C6.17094 16.3599 6.17094 16.6899 6.33094 16.9499C6.49094 17.1999 6.78094 17.3499 7.08094 17.3099Z" fill="#FA9D1C"/>
<path d="M27.0426 9.93142L27.0426 9.92975C27.0256 8.97908 26.2456 8.20969 25.2977 8.21701L23.5737 8.23034C22.6132 8.23777 21.8454 9.01905 21.8547 9.97952L21.8548 9.98137L21.8701 10.8746C21.8701 10.875 21.8701 10.8753 21.8701 10.8757C21.8733 11.1457 22.0996 11.3677 22.3697 11.3656L22.3705 11.3656L22.3678 11.1156L22.3705 11.3656L22.3706 11.3656L22.3709 11.3656L22.372 11.3656L22.3765 11.3655L22.3942 11.3653L22.461 11.3646L22.7002 11.3621C22.8983 11.3601 23.1628 11.3574 23.4289 11.3549C23.6949 11.3525 23.9622 11.3502 24.1658 11.3489C24.2676 11.3483 24.3531 11.3479 24.4144 11.3479C24.4452 11.3479 24.4692 11.348 24.4859 11.3481C24.4914 11.3482 24.4955 11.3482 24.4983 11.3483L24.4989 11.3484L24.5112 11.3488C24.6058 11.3522 24.6982 11.388 24.7711 11.4597C24.9158 11.6018 24.9207 11.8347 24.7765 11.9814C24.7127 12.0464 24.6238 12.0812 24.5424 12.0822C24.5424 12.0822 24.5423 12.0822 24.5423 12.0822L22.3315 12.1059L22.3334 12.3559L22.3308 12.1059L22.331 12.1059C22.0869 12.1081 21.8841 12.3146 21.8865 12.5588L21.948 18.8845C21.9528 19.3858 22.1476 19.8639 22.5008 20.2262C22.5009 20.2263 22.5011 20.2264 22.5012 20.2266L24.0479 21.8253L24.0478 21.8253L24.0523 21.8297C24.1761 21.9514 24.3435 22.0398 24.5425 22.0383C24.7285 22.0368 24.9041 21.9624 25.0358 21.8284L26.5789 20.2582C26.941 19.8897 27.1403 19.3943 27.1428 18.8735L27.1428 18.8735L27.1428 18.8695L27.0426 9.93142Z" fill="#FA9D1C" stroke="#FEEBD2" stroke-width="0.5"/>
</svg>
