<svg width="24" height="24" viewBox="0 0 24 24" fill="none" xmlns="http://www.w3.org/2000/svg">
<path d="M21.6 1H3.19999C3.09445 1.00036 2.98945 1.01518 2.88803 1.04393C2.63356 1.1125 2.40894 1.26286 2.24839 1.47179C2.08786 1.68071 2.00053 1.93661 2 2.20002V11C2 11.3182 2.12643 11.6236 2.35143 11.8486C2.57643 12.0735 2.88181 12.2 3.19998 12.2H14.8V11.4H4.79998C4.57909 11.4 4.39998 11.2209 4.39998 11C4.39998 10.6818 4.27355 10.3764 4.04855 10.1514C3.82355 9.92648 3.51817 9.80001 3.2 9.80001C2.97911 9.80001 2.8 9.62091 2.8 9.40001V3.80002C2.8 3.57912 2.97911 3.40002 3.2 3.40002C3.51821 3.40002 3.82359 3.27359 4.04855 3.04859C4.27351 2.82359 4.39998 2.51821 4.39998 2.20004C4.39998 1.97915 4.57909 1.80004 4.79998 1.80004H20C20.106 1.80004 20.2078 1.84218 20.2828 1.91718C20.3578 1.99218 20.4 2.09397 20.4 2.20004C20.4 2.51825 20.5264 2.82363 20.7514 3.04859C20.9764 3.27355 21.2818 3.40002 21.6 3.40002C21.706 3.40002 21.8078 3.44216 21.8828 3.51716C21.9578 3.59216 22 3.69394 22 3.80002V9.40001C22 9.50609 21.9578 9.60787 21.8828 9.68287C21.8078 9.75787 21.706 9.80001 21.6 9.80001C21.2817 9.80001 20.9764 9.92644 20.7514 10.1514C20.5264 10.3764 20.4 10.6818 20.4 11C20.4 11.1061 20.3578 11.2079 20.2828 11.2828C20.2078 11.3578 20.106 11.4 20 11.4H18.8V12.2H21.6C21.7055 12.1996 21.8105 12.1848 21.9119 12.1561C22.1664 12.0875 22.391 11.9371 22.5516 11.7282C22.7121 11.5193 22.7994 11.2634 22.8 11V2.19998C22.8 1.88176 22.6735 1.57639 22.4485 1.35143C22.2235 1.12647 21.9182 1 21.6 1Z" fill="#FA9D1C"/>
<path d="M16.7435 8.20019C16.7435 8.20021 16.7434 8.20022 16.7433 8.20023C16.435 8.21472 16.144 8.34739 15.931 8.57094C15.7179 8.79433 15.5992 9.09149 15.5995 9.40024V12.6002C15.5995 12.7063 15.5574 12.8081 15.4824 12.8831C15.4074 12.9581 15.3056 13.0002 15.1995 13.0002C14.2447 13.0002 13.329 13.3795 12.654 14.0547C11.9788 14.7297 11.5995 15.6454 11.5995 16.6002C11.5995 16.8211 11.4204 17.0002 11.1995 17.0002C10.9786 17.0002 10.7995 16.8211 10.7995 16.6002C10.7956 15.4324 11.2595 14.3117 12.0876 13.4883C12.2538 13.3222 12.1436 13.0002 11.9086 13.0002H8.5166C7.7893 13.0002 7.19971 13.5898 7.19971 14.3171V16.6002C7.19971 17.2369 7.45256 17.8472 7.90256 18.2974C8.35274 18.7474 8.96309 19.0002 9.59971 19.0002H15.5997C16.2363 19.0002 16.8467 18.7474 17.2969 18.2974C17.7469 17.8472 17.9997 17.2369 17.9997 16.6002V9.49213C18.0022 9.12998 17.8579 8.78232 17.5997 8.5282C17.3749 8.30089 17.063 8.18144 16.7437 8.20015C16.7436 8.20016 16.7436 8.20017 16.7435 8.20019Z" fill="#FA9D1C"/>
<path d="M18.8001 10.6006H19.6401C19.7185 10.2163 19.9081 9.86344 20.1857 9.58614C20.463 9.30864 20.8158 9.11899 21.2001 9.04059V4.16059C20.8158 4.08219 20.463 3.89255 20.1857 3.61503C19.9082 3.33771 19.7185 2.98486 19.6401 2.60059H5.1601C5.08171 2.98487 4.89206 3.33773 4.61454 3.61503C4.33722 3.89253 3.98437 4.08219 3.6001 4.16059V9.04059C3.98438 9.11898 4.33724 9.30862 4.61454 9.58614C4.89204 9.86346 5.0817 10.2163 5.1601 10.6006H14.8003V9.40059C14.7998 8.8863 14.9973 8.39167 15.3517 8.01933C15.7064 7.64683 16.1907 7.42523 16.7042 7.40059C17.2367 7.37791 17.7549 7.5763 18.1364 7.94861C18.5598 8.35057 18.7998 8.90861 18.8003 9.49252L18.8001 10.6006ZM12.4001 9.80059C10.8562 9.80059 9.6001 8.36452 9.6001 6.60059C9.6001 4.83665 10.8562 3.40059 12.4001 3.40059C13.944 3.40059 15.2001 4.83665 15.2001 6.60059C15.2001 8.36452 13.944 9.80059 12.4001 9.80059Z" fill="#FA9D1C"/>
<path d="M15.2178 6.73909C15.2178 8.7562 13.8553 10.3913 12.1743 10.3913C10.4934 10.3913 9.13086 8.7562 9.13086 6.73909C9.13086 4.72197 10.4934 3.08691 12.1743 3.08691C13.8553 3.08691 15.2178 4.72197 15.2178 6.73909Z" fill="#FA9D1C"/>
<path d="M8.8 19.8008H16.4C16.8418 19.8008 17.2 20.2426 17.2 20.6008V22.2008C17.2 22.6426 16.8418 23.0008 16.4 23.0008H8.8C8.35821 23.0008 8 22.559 8 22.2008V20.6008C8 20.159 8.35821 19.8008 8.8 19.8008Z" fill="#FA9D1C"/>
<path d="M10.3111 8V5.2H11.3391C11.5631 5.2 11.7471 5.23867 11.8911 5.316C12.0377 5.39067 12.1471 5.49333 12.2191 5.624C12.2911 5.752 12.3271 5.89467 12.3271 6.052C12.3271 6.22267 12.2817 6.37867 12.1911 6.52C12.1031 6.66133 11.9644 6.764 11.7751 6.828L12.3551 8H11.7671L11.2471 6.896H10.8231V8H10.3111ZM10.8231 6.52H11.3071C11.4777 6.52 11.6031 6.47867 11.6831 6.396C11.7631 6.31333 11.8031 6.204 11.8031 6.068C11.8031 5.93467 11.7631 5.828 11.6831 5.748C11.6057 5.668 11.4791 5.628 11.3031 5.628H10.8231V6.52ZM12.8033 8V5.2H13.8393C14.0633 5.2 14.2486 5.23733 14.3953 5.312C14.5419 5.38667 14.6513 5.48933 14.7233 5.62C14.7953 5.75067 14.8313 5.89733 14.8313 6.06C14.8313 6.21467 14.7966 6.35733 14.7273 6.488C14.6579 6.616 14.5499 6.72 14.4033 6.8C14.2566 6.87733 14.0686 6.916 13.8393 6.916H13.3153V8H12.8033ZM13.3153 6.5H13.8073C13.9859 6.5 14.1139 6.46133 14.1913 6.384C14.2713 6.304 14.3113 6.196 14.3113 6.06C14.3113 5.92133 14.2713 5.81333 14.1913 5.736C14.1139 5.656 13.9859 5.616 13.8073 5.616H13.3153V6.5Z" fill="#F8F8F8"/>
</svg>
