<svg width="24" height="24" viewBox="0 0 24 24" fill="none" xmlns="http://www.w3.org/2000/svg">
<path d="M23.4412 0.000189768H5.28469C4.9559 0.000189768 4.70312 0.26596 4.70312 0.611238V7.89125C4.70312 8.23671 4.95607 8.5023 5.28469 8.5023H8.7238V5.89855H7.51005C7.2571 5.89855 7.05496 5.68597 7.05496 5.42039V3.08224C7.05496 2.81647 7.25728 2.60408 7.51005 2.60408H21.1653C21.4183 2.60408 21.6204 2.81666 21.6204 3.08224V5.42039C21.6204 5.68616 21.4181 5.89855 21.1653 5.89855H19.9516V8.5023H23.4159C23.7447 8.5023 23.9975 8.23653 23.9975 7.89125L23.9977 0.611238C24.0229 0.265779 23.7699 0 23.4413 0L23.4412 0.000189768Z" fill="#FA9D1C"/>
<path d="M16.8405 20.4056C16.5876 20.6447 16.3094 20.8308 15.9808 20.9901L12.668 22.3716C12.7944 22.8765 13.2243 23.2484 13.73 23.2219H13.9071C14.4887 23.2219 14.9692 22.7703 15.0957 22.2122C15.3232 22.4513 15.652 22.6107 16.006 22.6107C16.6888 22.6107 17.2451 21.9996 17.2198 21.2822C17.4473 21.548 17.7761 21.6807 18.1301 21.6807C18.8129 21.6807 19.3693 21.0696 19.3693 20.3522V19.688C18.99 20.1396 18.4589 20.4054 17.8519 20.4054L16.8405 20.4056Z" fill="#FA9D1C"/>
<path d="M16.4875 17.8283C16.1587 16.978 15.2484 16.5795 14.4393 16.8983L11.3542 18.2002C10.0898 18.7316 8.72438 17.7486 8.74957 16.3404V11.7173C7.05531 12.2486 6.09433 12.78 5.0323 14.1351C3.48976 16.1278 0.784078 16.0747 0.784078 16.0747C0.404836 16.1544 0.101268 16.4998 0.0760254 16.925L0 22.2389C0 22.6905 0.328793 23.0892 0.733249 23.1156C1.54254 23.1953 2.85736 23.4079 3.94482 23.8331C4.77931 24.1518 6.11955 23.9393 6.39771 23.8066C7.20701 23.4876 15.6024 19.9803 15.6024 19.9803C16.4117 19.6349 16.8161 18.6784 16.4875 17.8283L16.4875 17.8283Z" fill="#FA9D1C"/>
<path d="M17.8791 19.4091C17.8791 19.4017 17.8852 19.3958 17.8925 19.3957C18.4931 19.3883 18.9664 18.8862 18.9664 18.2534V5.19336C18.9664 4.36493 18.2948 3.69336 17.4664 3.69336H11.2617C10.4333 3.69336 9.76172 4.36493 9.76172 5.19336V16.3935C9.78694 16.7123 9.93882 17.0046 10.2168 17.1639C10.3685 17.2436 10.6467 17.35 10.9755 17.2171L14.0606 15.9152C14.7938 15.5964 15.6031 15.6494 16.2859 16.0746C16.817 16.3934 17.2215 16.8717 17.4238 17.4562C17.6439 18.0342 17.6725 18.6323 17.5262 19.1805C17.4945 19.2994 17.58 19.4224 17.703 19.4224H17.8658C17.8731 19.4224 17.8791 19.4165 17.8791 19.4091ZM14.8951 12.8331C14.8951 12.8331 14.8951 12.8331 14.8951 12.8332V13.5506C14.8951 13.6567 14.8193 13.7366 14.718 13.7366H14.01C13.9089 13.7366 13.8329 13.6569 13.8329 13.5506C13.8329 13.1424 13.5056 12.8172 13.1624 12.5964C12.7676 12.3425 12.4925 11.9117 12.442 11.3985C12.442 11.3005 12.5258 11.2131 12.6237 11.2124C12.6304 11.2124 12.6372 11.2124 12.6443 11.2124H13.3524C13.4282 11.2124 13.5041 11.2656 13.5295 11.3718C13.5801 11.5844 13.757 11.7438 13.9593 11.7438H14.5915C14.9455 11.7438 15.249 11.478 15.2996 11.106C15.3248 10.8935 15.2489 10.7076 15.1225 10.5747C14.996 10.4153 14.8191 10.3356 14.6168 10.3356H14.1617C13.2261 10.3356 12.4422 9.6182 12.341 8.68837C12.2667 7.96641 12.6016 7.31604 13.1453 6.95838C13.4919 6.73042 13.8077 6.39304 13.8077 5.97824C13.8077 5.87204 13.8835 5.79217 13.9848 5.79217H14.6928C14.7939 5.79217 14.8699 5.87186 14.8699 5.97824C14.8699 6.38642 15.1971 6.71156 15.5404 6.93239C15.9352 7.18634 16.2102 7.61708 16.2608 8.13031C16.2608 8.22828 16.177 8.31571 16.079 8.31635C16.0724 8.31639 16.0655 8.31639 16.0584 8.31639H15.3504C15.2745 8.31639 15.1987 8.2632 15.1733 8.157C15.1227 7.94442 14.9457 7.78504 14.7434 7.78504H14.1112C13.7572 7.78504 13.4538 8.05081 13.4032 8.42275C13.378 8.63533 13.4538 8.82122 13.5803 8.95409C13.7068 9.11348 13.8837 9.19317 14.086 9.19317H14.6171C15.0976 9.19317 15.5781 9.40575 15.9067 9.80422C16.2355 10.2027 16.4124 10.7075 16.3618 11.2124C16.286 12.036 15.7044 12.6738 14.8951 12.8331C14.8951 12.8331 14.8951 12.8331 14.8951 12.8331Z" fill="#FA9D1C"/>
<rect x="12" y="4.7998" width="4.79997" height="9.59994" fill="#FA9D1C"/>
<path d="M16 12.7362L12.5 12.7362V11.4512C12.5 11.1712 12.5483 10.9412 12.645 10.7612C12.7383 10.5778 12.8667 10.4412 13.03 10.3512C13.19 10.2612 13.3683 10.2162 13.565 10.2162C13.7783 10.2162 13.9733 10.2728 14.15 10.3862C14.3267 10.4962 14.455 10.6695 14.535 10.9062L16 10.1812V10.9162L14.62 11.5662V12.0962L16 12.0962V12.7362ZM14.15 12.0962V11.4912C14.15 11.2778 14.0983 11.1212 13.995 11.0212C13.8917 10.9212 13.755 10.8712 13.585 10.8712C13.4183 10.8712 13.285 10.9212 13.185 11.0212C13.085 11.1178 13.035 11.2762 13.035 11.4962V12.0962H14.15ZM16 9.62094H12.5V8.32594C12.5 8.04594 12.5467 7.81427 12.64 7.63094C12.7333 7.4476 12.8617 7.31094 13.025 7.22094C13.1883 7.13094 13.3717 7.08594 13.575 7.08594C13.7683 7.08594 13.9467 7.12927 14.11 7.21594C14.27 7.3026 14.4 7.4376 14.5 7.62094C14.5967 7.80427 14.645 8.03927 14.645 8.32594V8.98094H16V9.62094ZM14.125 8.98094V8.36594C14.125 8.1426 14.0767 7.9826 13.98 7.88594C13.88 7.78594 13.745 7.73594 13.575 7.73594C13.4017 7.73594 13.2667 7.78594 13.17 7.88594C13.07 7.9826 13.02 8.1426 13.02 8.36594V8.98094H14.125Z" fill="#FEEBD2"/>
</svg>
