<svg width="24" height="24" viewBox="0 0 24 24" fill="none" xmlns="http://www.w3.org/2000/svg">
<path d="M0.748441 0.00102885C0.550239 0.00136365 0.360406 0.080211 0.220131 0.220157C0.0798509 0.360102 0.00066853 0.549935 0 0.748124V6.61147C0 6.87965 0.142958 7.1274 0.375311 7.26149C0.607497 7.39558 0.893765 7.39558 1.12595 7.26149C1.3583 7.1274 1.50126 6.87965 1.50126 6.61147V1.50108H6.61037C6.87437 1.49522 7.11593 1.35109 7.24616 1.12141C7.37657 0.891738 7.37657 0.610501 7.24616 0.380844C7.11592 0.15117 6.87437 0.00703705 6.61037 0.00117884L0.748441 0.00102885ZM17.3177 0.00102885C17.054 0.0196101 16.8195 0.175292 16.7002 0.411159C16.581 0.647026 16.5944 0.928241 16.7357 1.15156C16.8769 1.37503 17.1252 1.50762 17.3895 1.50092H22.4986V6.61131C22.4986 6.87949 22.6416 7.12724 22.874 7.26133C23.1061 7.39542 23.3924 7.39542 23.6246 7.26133C23.8569 7.12724 23.9999 6.87949 23.9999 6.61131V0.747965C23.9992 0.548928 23.9194 0.358594 23.7783 0.218498C23.637 0.0783855 23.446 3.89119e-05 23.2471 0.00087886H17.3897C17.3658 -0.000292953 17.3416 -0.000142963 17.3177 0.00102885ZM0.73687 16.6321C0.539002 16.6354 0.350511 16.7171 0.212588 16.8589C0.0744811 17.0007 -0.0018513 17.1914 0.000158573 17.3892V23.247C-0.000678418 23.4461 0.0778323 23.6374 0.218279 23.7785C0.358559 23.9198 0.549399 23.9995 0.748604 23.9998H6.61067C6.81255 24.0043 7.00757 23.9273 7.15188 23.7862C7.29618 23.6451 7.37753 23.4517 7.37753 23.2498C7.37753 23.048 7.29618 22.8546 7.15188 22.7135C7.00758 22.5724 6.81256 22.4954 6.61067 22.4999H1.50156V17.3895C1.50357 17.1868 1.42338 16.9919 1.27942 16.8493C1.13545 16.7067 0.93958 16.6281 0.73687 16.6321ZM23.2355 16.6321C23.0376 16.6354 22.8491 16.7171 22.7112 16.8589C22.5731 17.0007 22.4968 17.1914 22.4988 17.3892V22.4996H17.3897C17.1257 22.5055 16.8841 22.6496 16.7539 22.8793C16.6235 23.109 16.6235 23.3902 16.7539 23.6199C16.8841 23.8496 17.1257 23.9937 17.3897 23.9995H23.247C23.4469 24.0004 23.6389 23.9212 23.7802 23.7799C23.9216 23.6385 24.0006 23.4466 23.9998 23.2468V17.389C24.0018 17.1863 23.9216 16.9914 23.7776 16.8488C23.6337 16.7062 23.4382 16.6281 23.2355 16.6321Z" fill="#FA9D1C"/>
<path d="M3.42969 3.42871H9.14403V9.14306H3.42969V3.42871ZM10.7766 3.42871H11.5929V4.24507H12.4093L12.4092 3.42871H14.0418V4.24507H13.2254V5.06143H14.0418V5.8778H13.2254V6.69416H12.4091L12.4092 5.06131H11.5928V6.69391L10.7766 6.69403V5.87767H9.96021V5.06131H10.7766V3.42871ZM14.8581 3.42871H20.5724V9.14306H14.8581V3.42871ZM4.24611 4.24507V8.32657H8.32761V4.24507H4.24611ZM15.6745 4.24507V8.32657H19.756V4.24507H15.6745ZM5.06223 5.06131H7.51119V7.51027H5.06223V5.06131ZM16.4909 5.06131H18.9399V7.51027H16.4909V5.06131ZM11.593 6.69403H12.4094V7.5104H11.593V6.69403ZM13.2256 6.69403H14.042V9.95942H13.2256V10.7758H12.4092V12.4084H11.5929L11.593 10.7757H10.7766V11.592H9.96027V12.4084L8.32767 12.4083V13.2246H9.96027V14.041H7.51131V12.4084L6.69507 12.4083V11.5919H7.51143L7.51131 10.7757H6.69507V9.9593H9.96046L9.96034 8.3267H10.7767V9.14306H11.5931V9.95942H12.4094L12.4093 9.14306H13.2257L13.2256 6.69403ZM11.593 8.32663H12.4094V9.143H11.593V8.32663ZM3.42969 9.95924H5.87865V10.7756H4.24605V11.592H5.06241V12.4083H6.69501V14.0409H5.87865V13.2246H4.24605V12.4082H3.42969V9.95924ZM14.042 9.95924H15.6746V10.7756H14.042V9.95924ZM18.1235 9.95924H18.9398V10.7756H18.1235V9.95924ZM8.32761 10.7756V11.592H9.14397V10.7756H8.32761ZM15.6745 10.7756H18.1235V11.592H18.9398V10.7756H20.5724V15.6735H15.6745V14.8572H14.0419V14.0408H13.2255V13.2244H14.8581V14.0408H15.6745V12.4082H13.2255V11.5918H15.6745V10.7756ZM10.7766 12.4082H11.5929V14.0408H13.2255V15.6734H14.8581V16.4898H13.2255V17.3061H12.4092V14.8572H11.5928V17.3061H9.96021V14.0407H10.7766V12.4082ZM17.307 12.4082V13.2246H16.4907V14.0409H17.307V14.8573H18.1234V14.0409H19.756V12.4083L17.307 12.4082ZM3.42969 14.8572H9.14403V20.5715H3.42969V14.8572ZM4.24605 15.6735V19.755H8.32755V15.6735H4.24605ZM5.06229 16.4899H7.51125V18.9388H5.06229V16.4899ZM14.8581 16.4899H17.3071V18.1225H18.1235V18.9388H17.3071V19.7552H16.4907V20.5716H14.8581V18.939H15.6745V18.1226H16.4909V17.3062H15.6745V18.1226H14.8581V16.4899ZM11.5931 17.3061H12.4094V20.5715H11.5931V17.3061ZM18.1235 17.3061H19.7561V18.1225H18.1235V17.3061ZM9.96021 18.1225H10.7766V20.5714H9.96021V18.1225ZM13.2256 18.1225H14.042V18.9388H13.2256V18.1225ZM19.7561 18.1225H20.5724V18.9388H19.7561V18.1225ZM18.9398 18.9388H19.7562V19.7552H20.5725V20.5716H18.9399L18.9398 18.9388ZM13.2255 19.7551H14.0418V20.5714H13.2255V19.7551Z" fill="#FA9D1C"/>
</svg>
