<svg width="30" height="24" viewBox="0 0 30 24" fill="none" xmlns="http://www.w3.org/2000/svg">
<path d="M0 3.04779V24H13.4187L14.4086 22.4952L12.0744 19.3071L14.4086 16.4888L11.8911 13.5303L14.4086 10.2784L11.7078 6.98828L14.4086 4.55257L13.4187 3.04779H0Z" fill="#FA9D1C"/>
<path d="M7.27182 5.71301H2.29785V6.4654H7.27182V5.71301Z" fill="#FBEBD5"/>
<path d="M10.718 5.71301H8.79932V6.4654H10.718V5.71301Z" fill="#FBEBD5"/>
<path d="M7.27182 11.2731H2.29785V12.0255H7.27182V11.2731Z" fill="#FBEBD5"/>
<path d="M10.718 11.2731H8.79932V12.0255H10.718V11.2731Z" fill="#FBEBD5"/>
<path d="M10.7176 8.4931H5.74365V9.24549H10.7176V8.4931Z" fill="#FBEBD5"/>
<path d="M4.21656 8.4931H2.29785V9.24549H4.21656V8.4931Z" fill="#FBEBD5"/>
<path d="M7.27182 14.0786H2.29785V14.831H7.27182V14.0786Z" fill="#FBEBD5"/>
<path d="M10.718 14.0786H8.79932V14.831H10.718V14.0786Z" fill="#FBEBD5"/>
<path d="M7.27182 19.6387H2.29785V20.3911H7.27182V19.6387Z" fill="#FBEBD5"/>
<path d="M10.718 19.6387H8.79932V20.3911H10.718V19.6387Z" fill="#FBEBD5"/>
<path d="M10.7176 16.8586H5.74365V17.611H10.7176V16.8586Z" fill="#FBEBD5"/>
<path d="M4.21656 16.8586H2.29785V17.611H4.21656V16.8586Z" fill="#FBEBD5"/>
<path d="M29.3305 20.9522V0H15.9118L14.9219 1.50478L17.2561 4.69288L14.9219 7.51116L17.4394 10.4697L14.9219 13.7216L17.6227 17.0117L14.9219 19.4474L15.9118 20.9522H29.3305Z" fill="#FA9D1C"/>
<path d="M27.0331 17.5345H22.0591V18.2869H27.0331V17.5345Z" fill="#FBEBD5"/>
<path d="M20.5315 17.5345H18.6128V18.2869H20.5315V17.5345Z" fill="#FBEBD5"/>
<path d="M27.0331 11.9745H22.0591V12.7269H27.0331V11.9745Z" fill="#FBEBD5"/>
<path d="M20.5315 11.9745H18.6128V12.7269H20.5315V11.9745Z" fill="#FBEBD5"/>
<path d="M23.5868 14.7545H18.6128V15.5069H23.5868V14.7545Z" fill="#FBEBD5"/>
<path d="M27.033 14.7545H25.1143V15.5069H27.033V14.7545Z" fill="#FBEBD5"/>
<path d="M27.0331 9.16901H22.0591V9.9214H27.0331V9.16901Z" fill="#FBEBD5"/>
<path d="M20.5315 9.16901H18.6128V9.9214H20.5315V9.16901Z" fill="#FBEBD5"/>
<path d="M27.0331 3.60889H22.0591V4.36128H27.0331V3.60889Z" fill="#FBEBD5"/>
<path d="M20.5315 3.60889H18.6128V4.36128H20.5315V3.60889Z" fill="#FBEBD5"/>
<path d="M23.5868 6.38885H18.6128V7.14125H23.5868V6.38885Z" fill="#FBEBD5"/>
<path d="M27.033 6.38885H25.1143V7.14125H27.033V6.38885Z" fill="#FBEBD5"/>
</svg>
