<svg width="28" height="28" viewBox="0 0 28 28" fill="none" xmlns="http://www.w3.org/2000/svg">
<path d="M23.6359 13.9035V10.4758C23.6359 9.96224 23.4319 9.46963 23.0688 9.10633C22.7055 8.74322 22.2129 8.53919 21.6994 8.53919H5.23838C4.89234 8.53919 4.57269 8.35461 4.39978 8.05504C4.22687 7.75547 4.22687 7.38631 4.39978 7.08675C4.57269 6.78719 4.89235 6.6026 5.23838 6.6026H20.7311C21.0771 6.6026 21.3968 6.41802 21.5697 6.11846C21.7426 5.81889 21.7426 5.44972 21.5697 5.15016C21.3968 4.8506 21.0771 4.66602 20.7311 4.66602H4.27008C3.75654 4.66602 3.26394 4.87005 2.90064 5.23316C2.53753 5.59648 2.3335 6.08907 2.3335 6.6026V20.1587C2.3335 20.6722 2.53753 21.1648 2.90064 21.5281C3.26396 21.8913 3.75655 22.0953 4.27008 22.0953H15.4442C16.4972 23.3247 18.0154 24.0593 19.6327 24.1218C21.2502 24.1843 22.8205 23.5691 23.9652 22.4245C25.1098 21.2798 25.725 19.7096 25.6625 18.092C25.6 16.4747 24.8653 14.9565 23.6359 13.9035ZM19.7628 22.6181C18.6095 22.6181 17.5031 22.1608 16.6863 21.3464C15.8695 20.532 15.4091 19.4271 15.4056 18.2736C15.4022 17.1203 15.8563 16.0126 16.6683 15.1934C17.4801 14.3742 18.5837 13.9104 19.7372 13.9037C20.8905 13.8968 21.9995 14.3474 22.821 15.1571C23.6426 15.9665 24.1099 17.0688 24.12 18.2221C24.1226 19.3784 23.6644 20.4883 22.8465 21.3059C22.0289 22.1238 20.919 22.582 19.7627 22.5794L19.7628 22.6181Z" fill="#FA9D1C"/>
<circle cx="19.5" cy="18.5" r="5.75" fill="#FAFAFA" stroke="#FA9D1C" stroke-width="1.5"/>
<path fill-rule="evenodd" clip-rule="evenodd" d="M16 18.9681V18.0229C16 17.7822 16.1962 17.586 16.4459 17.586H18.586V15.4459C18.586 15.1962 18.7822 15 19.0229 15H19.9681C20.2178 15 20.414 15.1962 20.414 15.4459V17.586H22.5541C22.7949 17.586 23 17.7822 23 18.0229V18.9681C23 19.2178 22.7949 19.414 22.5541 19.414H20.414V21.5541C20.414 21.7949 20.2178 22 19.9681 22H19.0229C18.7822 22 18.586 21.7949 18.586 21.5541V19.414H16.4459C16.1962 19.414 16 19.2178 16 18.9681Z" fill="#FA9D1C"/>
</svg>
