<svg id="Layer_1" data-name="Layer 1" xmlns="http://www.w3.org/2000/svg" viewBox="0 0 50.24 40.57"><defs><style>.cls-1{fill:#ad5199;}</style></defs><title>split bill</title><path class="cls-1" d="M35.59,29a1.13,1.13,0,0,0,1.12-1.15V6.29a1.12,1.12,0,1,0-2.23,0V27.9A1.13,1.13,0,0,0,35.59,29Z"/><path class="cls-1" d="M42.81,29a1.13,1.13,0,0,0,1.12-1.15V6.29a1.12,1.12,0,1,0-2.23,0V27.9A1.13,1.13,0,0,0,42.81,29Z"/><polygon class="cls-1" points="50.16 0.01 50.16 0 28.16 0.09 28.16 2.28 48.01 2.22 48.01 32.3 28.16 32.3 28.16 34.53 50.24 34.53 50.24 0.01 50.16 0.01"/><path class="cls-1" d="M28.16,34.53c-1.41-1-2.15-2.16-2.07-3.38a4.16,4.16,0,0,1,2.12-3c.26-.15,1-.72,1.06-1.33,0-.45-.39-1-1.17-1.61-1.41-1-2.08-2.19-2-3.41a4.15,4.15,0,0,1,2.12-3c.26-.15,1-.72,1.06-1.33,0-.45-.39-1-1.17-1.61-1.41-1-2.08-2.19-2-3.41a4.16,4.16,0,0,1,2.12-3c.26-.15,1-.72,1.06-1.33,0-.45-.39-1-1.17-1.61-1.41-1-2.08-2.19-2-3.41a4.14,4.14,0,0,1,2.07-3L29.22,1.9,28.71,1l.51.9c-.27.15-1,.73-1.07,1.33,0,.45.39,1,1.17,1.61,1.41,1,2.08,2.19,2,3.41a4.15,4.15,0,0,1-2.12,3c-.26.15-1,.72-1.06,1.33,0,.45.39,1,1.17,1.61,1.41,1,2.08,2.19,2,3.41a4.16,4.16,0,0,1-2.12,3c-.26.15-1,.72-1.06,1.33,0,.45.39,1,1.17,1.61,1.41,1,2.08,2.19,2,3.41a4.15,4.15,0,0,1-2.12,3c-.26.15-1,.72-1.06,1.33,0,.45.39,1,1.17,1.61Z"/><path class="cls-1" d="M14.65,11.52a1.13,1.13,0,0,0-1.12,1.15V34.29a1.12,1.12,0,1,0,2.23,0V12.67A1.13,1.13,0,0,0,14.65,11.52Z"/><path class="cls-1" d="M7.44,11.52a1.13,1.13,0,0,0-1.12,1.15V34.29a1.12,1.12,0,1,0,2.23,0V12.67A1.13,1.13,0,0,0,7.44,11.52Z"/><polygon class="cls-1" points="0.08 40.57 0.08 40.57 22.09 40.49 22.09 38.29 2.23 38.35 2.23 8.28 22.09 8.28 22.09 6.05 0 6.05 0 40.57 0.08 40.57"/><path class="cls-1" d="M22.09,6c1.41,1,2.15,2.16,2.07,3.38a4.16,4.16,0,0,1-2.12,3c-.26.15-1,.72-1.06,1.33,0,.45.39,1,1.17,1.61,1.41,1,2.08,2.19,2,3.41a4.15,4.15,0,0,1-2.12,3c-.26.15-1,.72-1.06,1.33,0,.45.39,1,1.17,1.61,1.41,1,2.08,2.19,2,3.41a4.16,4.16,0,0,1-2.12,3c-.26.15-1,.72-1.06,1.33,0,.45.39,1,1.17,1.61,1.41,1,2.08,2.19,2,3.41a4.14,4.14,0,0,1-2.07,3L21,38.68l.51.91-.51-.9c.27-.15,1-.73,1.07-1.33,0-.45-.39-1-1.17-1.61-1.41-1-2.08-2.19-2-3.41a4.15,4.15,0,0,1,2.12-3c.26-.15,1-.72,1.06-1.33,0-.45-.39-1-1.17-1.61-1.41-1-2.08-2.19-2-3.41A4.16,4.16,0,0,1,21,20c.26-.15,1-.72,1.06-1.33,0-.45-.39-1-1.17-1.61-1.41-1-2.08-2.19-2-3.41a4.15,4.15,0,0,1,2.12-3c.26-.15,1-.72,1.06-1.33,0-.45-.39-1-1.17-1.61Z"/></svg>