<svg id="201ee965-ddb3-4954-b943-2ea131170c87" data-name="Layer 1" xmlns="http://www.w3.org/2000/svg" viewBox="0 0 539.5 515.9"><defs><style>.e6c26389-4998-4cd5-b7f8-30a6fba546d6{fill:#ea8253;}</style></defs><title>new flow icon</title><rect class="e6c26389-4998-4cd5-b7f8-30a6fba546d6" x="179.7" y="0.2" width="34.9" height="69.79"/><rect class="e6c26389-4998-4cd5-b7f8-30a6fba546d6" x="48.8" y="33.6" width="34.9" height="55.13" transform="translate(-23.9 64.7) rotate(-45)"/><rect class="e6c26389-4998-4cd5-b7f8-30a6fba546d6" x="300.7" y="43.7" width="54.8" height="34.89" transform="translate(52.9 249.9) rotate(-45)"/><path class="e6c26389-4998-4cd5-b7f8-30a6fba546d6" d="M530.8,394.5c-3.8-6.4-7.6-12.8-11.6-19.3l8.7-14,.6-.9,8.2-13.4a8.6,8.6,0,0,0,1.4-6.5,8.9,8.9,0,0,0-4.1-5.3l-16.1-9.8-1.7-1.1-12.7-7.8V269.6H456.1l-16.6-27.9c-2.2-3.6-5-4.3-7-4.3a9.1,9.1,0,0,0-4.6,1.4l-13.4,8-1.1.7-10.9,6.6L383,242l-8.9-5.4c-1.8-1.1-3.5-2.2-5.9-2.2-4.3,0-6.3,3.3-7.6,5.4l-4.4,7.2c-4.7,7.5-9.3,15-13.9,22.6H296.1v48.1L280,327.3l-15,9-4.1,3.8,1.4,4.3a14.3,14.3,0,0,0,.9,2l6,9.9,9.6,16.2-6.5,10.6-11.6,18.8-2,5.4,2.2,2,9.3,6.2,25.9,15.9v20.1c0,6.1,0,12.3-.1,18.4a8.4,8.4,0,0,0,9,9h37.5L355.7,501l1.8,3,2.6,4.2,4.6,7.3,34.4-20.6c4.3,2.8,8.7,5.5,13.4,8.3l20.2,12.4,8.3-13.4c4.8-7.8,9.6-15.6,14.3-23.4h48.2V432.5l14.5-8.7,17.4-10.5,3.8-3.5ZM478.3,431v22.7H454a22.1,22.1,0,0,0-19.4,10.9l-10.1,16.6c-4.4-2.7-8.8-5.4-13-8.2a22.6,22.6,0,0,0-12.2-3.7,24,24,0,0,0-12.5,3.8l-13.6,8.2-9.7-16.4a22.1,22.1,0,0,0-19.7-11.2H321.2v-2.1c0-6.9,0-14.1.1-21.1a22.6,22.6,0,0,0-11.3-20l-18.2-11.2,1-1.6,8.9-14.5c4.4-7.4,3.1-16.2-.1-21.6l-7.9-13.2,16.9-10.1a20.9,20.9,0,0,0,10.6-18.9V294.7h22.6A22,22,0,0,0,363,284c3.6-6,7.3-12,11-18l16.9,10.5a21.7,21.7,0,0,0,22.9.2l12.7-7.7,8.8,14.8a21.6,21.6,0,0,0,19.3,11h23.8V318a21.4,21.4,0,0,0,10.5,18.8l17.8,11L497.2,363a22.2,22.2,0,0,0-.1,24.1l8.8,14.7-2.2,1.3-14.8,8.8C482.1,415.9,478.3,422.7,478.3,431Z"/><path class="e6c26389-4998-4cd5-b7f8-30a6fba546d6" d="M388.3,370.5l-26.4-27.9-42.5,40.1,65.1,69.1L488,354.7l-38.7-41.3Zm-2.9,52-36.7-38.9,12.4-11.7,26.3,27.9,60.9-57.1,10.4,11.1Z"/><path class="e6c26389-4998-4cd5-b7f8-30a6fba546d6" d="M246.5,419H62.6C38,419,28,408.9,28,384.1V177.5L42.1,187c2.7,1.8,4.9,3.2,7,4.8Q118,243.4,186.7,295.1c11.9,8.9,16.1,8.9,28,0L351.4,192.5c2.1-1.6,4.3-3.2,7.1-5.1l14.9-10.7v36l27.7,17.1V188.5c0-36.5-22.6-59.3-59-59.3H59.3C22.9,129.2.2,151.9.2,188.5V387.3c0,36.6,22.7,59.3,59,59.3H268.7V432.5l-17.6-10.8ZM351.1,157.4,200.7,270.3,50.4,157.4Z"/></svg>