<svg id="ffe7cf66-e9fd-4a77-baf4-6bdd0de099be" data-name="Layer 1" xmlns="http://www.w3.org/2000/svg" viewBox="0 0 206 206"><defs><style>.\34 73969d5-4e53-4e81-a887-075d8370156b{fill:#302c5a;}.\34 cf3fa9f-838c-4417-8b86-9aa1a24c26d7,.b09a0812-ee22-4881-813e-803bca60f6fc{fill:#fff;}.\34 cf3fa9f-838c-4417-8b86-9aa1a24c26d7{opacity:0.25;}.\38 171f386-f828-4e96-9866-8810ccde8d03{isolation:isolate;}</style></defs><title>GreetingM-smile-</title><rect class="473969d5-4e53-4e81-a887-075d8370156b" width="206" height="206"/><path class="b09a0812-ee22-4881-813e-803bca60f6fc" d="M190,75.8l-4.7-.3c-.2-1.6-.5-3.2-.7-4.8s-.6-.4-.7-.1-1.4,3.1-2.2,4.7l-4.2-.3a.4.4,0,0,0-.3.7l2.9,3c-.7,1.7-1.5,3.3-2.2,4.9h-.1a.1.1,0,0,0,.1.1h0a.3.3,0,0,0,.3.3h.3l4.2-2.7,3.3,3.4c.3.4.7,0,.7-.3s-.6-3.5-.8-5.2l4.3-2.7A.4.4,0,0,0,190,75.8Z"/><path class="b09a0812-ee22-4881-813e-803bca60f6fc" d="M51.7,154.6l-4.6-.3c-.3-1.6-.5-3.2-.7-4.8a.5.5,0,0,0-.8-.1l-2.1,4.7-4.3-.3a.5.5,0,0,0-.3.7l3,3c-.8,1.7-1.5,3.3-2.3,4.9h0a.3.3,0,0,0,.3.3h.3l4.2-2.7,3.4,3.5c.2.3.7-.1.6-.4s-.5-3.5-.8-5.2l4.3-2.7C52.3,155.2,52.1,154.7,51.7,154.6Z"/><path class="b09a0812-ee22-4881-813e-803bca60f6fc" d="M67.6,49,64,50.2l-2-3.3c-.1-.2-.5-.1-.6.2v4.1l-3.2,1.1c-.3.1-.2.5,0,.6l3.1,1.3c0,1.5-.1,2.9-.1,4.3h.1c0,.1.2.1.3.1h.2l2.2-3.3,3.6,1.5c.3.1.5-.2.3-.5l-2.2-3.5,2.3-3.4C68.1,49.2,67.9,48.9,67.6,49Z"/><path class="b09a0812-ee22-4881-813e-803bca60f6fc" d="M23.4,132.3l-3.6,1.2c-.6-1.1-1.3-2.2-2-3.3s-.5-.1-.5.1l-.2,4.1-3.2,1.2a.4.4,0,0,0,0,.6l3.1,1.3c0,1.4-.1,2.9-.1,4.3H17c.1.1.2.2.3.1h.2l2.2-3.3,3.6,1.5a.3.3,0,0,0,.3-.5l-2.1-3.6,2.3-3.3C23.9,132.5,23.7,132.2,23.4,132.3Z"/><path class="b09a0812-ee22-4881-813e-803bca60f6fc" d="M69.1,149.9l-3.7.3-1.2-3.7c-.1-.3-.5-.2-.6,0l-1.1,4-3.4.3c-.3,0-.3.4-.1.6l2.7,2-1.2,4.1h0l.3.2h.3l2.9-2.6a35.5,35.5,0,0,1,3.1,2.3.3.3,0,0,0,.5-.4c-.4-1.3-.9-2.6-1.3-4l3.1-2.7A.3.3,0,0,0,69.1,149.9Z"/><path class="4cf3fa9f-838c-4417-8b86-9aa1a24c26d7" d="M0,26.4a20.8,20.8,0,0,0,8.6,1.9,21.5,21.5,0,0,0,11.7-3.5,29.9,29.9,0,0,0,14,3.5,29,29,0,0,0,9.4-1.6A24.8,24.8,0,0,0,82.6,6.4,26.7,26.7,0,0,0,81.8,0H0Z"/><path class="4cf3fa9f-838c-4417-8b86-9aa1a24c26d7" d="M206,187.3a24.5,24.5,0,0,0-17.8-8.4,29.7,29.7,0,0,0-51.3,4.2,21.1,21.1,0,0,0-10,3.2,21.2,21.2,0,0,0-32.4,18c0,.6.1,1.1.1,1.7H206Z"/><g id="12205fed-828a-48c0-83b4-b0d9ff1ed2de" data-name="Tagline-Copy-6"><g class="8171f386-f828-4e96-9866-8810ccde8d03"><path class="b09a0812-ee22-4881-813e-803bca60f6fc" d="M54.7,92.3,52.3,70.2l4.5-.4,1.1,10.7,4.2-.7-1-10.4,4.2-.5,2.1,21.6-4.1.5-.8-7-4.2.6.8,7.3Z"/><path class="b09a0812-ee22-4881-813e-803bca60f6fc" d="M68.2,83.7a7.5,7.5,0,0,1,9.3-8.5V73.7l3.8-.2v.4c.2,4,1.1,12.8,3.8,9.6l1,4.2c-1.9,1.2-4.2,1.1-5.5-.7C76.3,91.6,69.2,89.9,68.2,83.7Zm10.6.1L78,79.5c-2.3-2.1-6.4.4-5.6,3.9S77.9,85.9,78.8,83.8Z"/><path class="b09a0812-ee22-4881-813e-803bca60f6fc" d="M91.4,86l2.3,8.1-4.2.9L83.6,73.8l3.9-1,.8,2.9c3.3-4.3,10.6-3.8,11.8,2.6S96,86.1,91.4,86Zm-1.2-3.8c5.7-.2,6.3-2.1,5.6-3.9s-4.1-2.1-6.5.9Z"/><path class="b09a0812-ee22-4881-813e-803bca60f6fc" d="M107.1,84l2.3,8-4.1.9L99.4,71.7l3.9-1,.8,2.9c3.2-4.2,10.6-3.7,11.7,2.7S111.7,84,107.1,84ZM106,80.2c5.6-.2,6.2-2.1,5.5-4s-4.1-2.1-6.4.9Z"/><path class="b09a0812-ee22-4881-813e-803bca60f6fc" d="M118.9,85.9l3.4-2.2a2.2,2.2,0,0,0,2,1.1c3.1,0,3-4.9,2.5-7.6-7,6.2-11.8-.6-10.7-8.1l4-.6c-.2,1.8-.5,7.5,3.3,7s2-6.9,2.2-6.9l4.1-.5c1,9,4.6,19.4-5.5,20.3A5,5,0,0,1,118.9,85.9Z"/></g></g><g id="1ae7e7c8-3762-4ffe-93ac-c70f6fb60617" data-name="Tagline-Copy-6"><g class="8171f386-f828-4e96-9866-8810ccde8d03"><path class="b09a0812-ee22-4881-813e-803bca60f6fc" d="M22.9,102.9l4.4-.4v3.3c13.1-8.2,12.5,8.5,9.3,17.6l-4.2-1c2.9-8.1,2.2-14.4-.5-14.7-6.3-.8-4.1,10.7-3.7,15.7H23.4Z"/><path class="b09a0812-ee22-4881-813e-803bca60f6fc" d="M53.8,117.2l-10.1.6c.4,3.4,4.7,3.9,7.6,1l3.3,2.1c-4.8,6.4-15.2,3.9-15.2-4C39.1,104.8,57.1,105.2,53.8,117.2Zm-10.2-2.4,6.7-.2a2.3,2.3,0,0,0-2.4-2.6C46.1,111.9,43.9,112.4,43.6,114.8Z"/><path class="b09a0812-ee22-4881-813e-803bca60f6fc" d="M56.7,109.5l3.6,1.2c-1.3,3.9-2.6,9.7.1,10s2.4-4.3,2.4-6.9l3.6-.4c-.1,2.5,0,7.6,2.5,7.2s1.1-5.7.3-9.5l3.9-.9c1.7,6.1,2.8,14.2-3.6,14.7a5,5,0,0,1-4.9-3.4c-.7,2.1-2,3.7-3.9,3.6C55.1,124.7,53.4,117.9,56.7,109.5Z"/></g></g><g id="6e54b706-1a60-439b-acae-ed271ceecdc5" data-name="Tagline-Copy-6"><g class="8171f386-f828-4e96-9866-8810ccde8d03"><path class="b09a0812-ee22-4881-813e-803bca60f6fc" d="M81.9,102.8l7.6-.5c-.5,4-1.5,15.8,5.3,15.3s6-9.5,3.9-14.7l7.6-1.3c3.9,7.8,3.7,19.5-5.7,22.5l2.6,17.5L95.1,143l-2.2-17.5C81.7,126,79,111.3,81.9,102.8Z"/><path class="b09a0812-ee22-4881-813e-803bca60f6fc" d="M134.5,124.8l-18.3,4.1c1.9,6,9.8,5.7,14.1-.5l6.6,2.8c-6.8,13.2-26.3,11.5-28.7-2.7C104.1,106.6,136.9,102,134.5,124.8Zm-19.2-1.3,12-2.4c-.4-2.2-1.7-4.3-5.1-4.1S115.1,119,115.3,123.5Z"/><path class="b09a0812-ee22-4881-813e-803bca60f6fc" d="M136.7,125.5A13.7,13.7,0,0,1,153.8,110l-.2-2.8,7-.3v.7c.3,7.3,1.9,23.5,6.9,17.7l1.7,7.8c-3.5,2-7.7,2-10-1.4C151.3,140,138.5,136.8,136.7,125.5Zm19.4.3-1.5-7.9c-4.1-3.9-11.6.6-10.3,7S154.4,129.6,156.1,125.8Z"/><path class="b09a0812-ee22-4881-813e-803bca60f6fc" d="M166,105.8l7.1-1.5.8,4.9c6.6-9.9,18.2-1.9,15.1,9.3l-7,.2c1.9-5.3-4.6-10.4-6.7-3.5l2.7,17.1-7.5,1.5Z"/></g></g><path class="4cf3fa9f-838c-4417-8b86-9aa1a24c26d7" d="M186.8,99.5a13,13,0,0,0-10-.5,6.4,6.4,0,0,0-5-1l-7.2,1.4a5.8,5.8,0,0,0-2.5,1.2,5.8,5.8,0,0,0-1.9-.2l-7,.4a6.5,6.5,0,0,0-4.5,2.2h-.1a21.6,21.6,0,0,0-12,5.2,1.2,1.2,0,0,1-.5.5,22,22,0,0,0-3.7-3,20.5,20.5,0,0,0-18.1-.8,28.7,28.7,0,0,0-2.2-6.2,4.3,4.3,0,0,0-.4-.7,6.4,6.4,0,0,0,3.3-2.8,8,8,0,0,0,.9-3,11.5,11.5,0,0,0,7.5,2.7h1.4a13.9,13.9,0,0,0,10-5c4-5.3,2.9-12.3,1.9-18.5-.2-1.4-.5-2.8-.6-4.1a6.4,6.4,0,0,0-7.2-5.6l-4.2.4-1.7.5a8.2,8.2,0,0,0-3.8-.6l-4.1.6a7.3,7.3,0,0,0-3.7,1.9,13.5,13.5,0,0,0-5.3.3,7,7,0,0,0-4.5-.4l-3.9,1a7.6,7.6,0,0,0-2.2,1.1,13,13,0,0,0-5.2.4,6.3,6.3,0,0,0-4.5-.4l-2.9.7a4.9,4.9,0,0,0-2.1-.2l-3.8.2a6.1,6.1,0,0,0-3.7,1.5l-1.5.3v-.7a6.5,6.5,0,0,0-2.4-4.5,6.4,6.4,0,0,0-4.8-1.4l-4.2.5a6,6,0,0,0-1.9.6,5.8,5.8,0,0,0-2.3-.2l-4.4.4a6.7,6.7,0,0,0-4.4,2.4,6.5,6.5,0,0,0-1.4,4.8L48.3,93a6.4,6.4,0,0,0,6.4,5.8h.6l4.3-.4a6.6,6.6,0,0,0,2.8-.9h1.7l4.1-.6a6.1,6.1,0,0,0,3.2-1.3,13.4,13.4,0,0,0,3.5.5,14.2,14.2,0,0,0,6-1.4,10.8,10.8,0,0,0,1.9.3l.3,1.3H81.5a6.3,6.3,0,0,0-5.8,4.4,23.3,23.3,0,0,0-.8,3.1,7.3,7.3,0,0,0-3.3-.1l-3.8.9a7.3,7.3,0,0,0-2.9,1.5,6,6,0,0,0-2.5-1.6l-3.6-1.3a6.7,6.7,0,0,0-4.2,0,15,15,0,0,0-12.1-1A11.6,11.6,0,0,0,40,99.4a11,11,0,0,0-8.8-2.1A6.6,6.6,0,0,0,26.7,96l-4.4.4a6.5,6.5,0,0,0-5.9,6.6l.5,20.6a6.5,6.5,0,0,0,6.5,6.3h4.8a6.8,6.8,0,0,0,3.4-1.1l3.5.8a6.4,6.4,0,0,0,4.7-.7,9,9,0,0,0,2.8,1.3,16,16,0,0,0,4.7.8,15.8,15.8,0,0,0,6.8-1.6,11.5,11.5,0,0,0,6.1,2.1h.6a9.8,9.8,0,0,0,4.3-1.1,11.6,11.6,0,0,0,4.2.8h.6a11.1,11.1,0,0,0,8.7-4.7l.6-1a16.3,16.3,0,0,0,7.9,5.6l1.5,12.6a6.3,6.3,0,0,0,2.6,4.4,6.1,6.1,0,0,0,3.9,1.3h1.1l8-1.3a6.6,6.6,0,0,0,5.4-5.5,20.6,20.6,0,0,0,9.2,3.9l3.5.2a23,23,0,0,0,16.3-6.8,22.6,22.6,0,0,0,4.7,2.2,21,21,0,0,0,5.6.8,20.4,20.4,0,0,0,10.4-2.9,14.9,14.9,0,0,0,10,.2h2.4l7.6-1.5a6.5,6.5,0,0,0,5.1-7.4l-1-6.1,5.8-.2a6.5,6.5,0,0,0,6-4.7C197.6,111.6,194.1,102.9,186.8,99.5ZM75.3,82.3l.3-.3c0,.2.1.3.1.5Z"/></svg>