<svg id="39edb564-4f01-4083-86d2-ff8508fc240a" data-name="Layer 1" xmlns="http://www.w3.org/2000/svg" viewBox="0 0 206 206"><defs><style>.\32 6dac4f3-9e07-4c94-acdb-b2b526911f10{fill:#009e88;}.f77f72f7-d98d-4713-a1d6-585d7a6a45b1{opacity:0.25;}.a60e5e14-1c7b-4d15-93e4-3e712565e97f,.b50a196d-1c1e-4829-b410-b375eb008cd6{fill:#fff;}.a60e5e14-1c7b-4d15-93e4-3e712565e97f{font-size:10px;font-family:Rubik-Black, Rubik;}</style></defs><title>GreetingM-smile-</title><rect class="26dac4f3-9e07-4c94-acdb-b2b526911f10" width="206.1" height="206.07"/><g class="f77f72f7-d98d-4713-a1d6-585d7a6a45b1"><path class="b50a196d-1c1e-4829-b410-b375eb008cd6" d="M129.6,55.4a29.7,29.7,0,0,0,1-4.5c1.1-7.8-5.3-10.5-11.7-6.9a24.6,24.6,0,0,1,7.6-5.6l6.3-3-6-3.5-7.3-4.4-1.1-.6h-1.2c-1.1.2-8.5,1.6-12.1,14.5-1.9-6-5.4-9.1-8.6-10.7l-1.9-1L92.8,31l-4.9,3.3-5.7,4,6.4,2.5c1.1.4,2.8,1.4,4.8,4.4a17.4,17.4,0,0,1,1.7,3.3c-6.5-5.3-15.5-4.6-15.1,1.8a8.3,8.3,0,0,0,.3,2.2L44.5,50.3,43.4,67.7l5,.3L42.3,170.9l47.9,2.8,14.2.9,48.6,2.9,6.1-102.9,5,.3,1-17.4Zm-3.8-11.3c2.4.7,3.1,6.3-1.5,11l-5.3-.3C120.1,51.5,122.9,43.4,125.8,44.1Zm-8.2-13.4L125,35c-11.9,5.6-15.7,17.3-16.2,19H107C108.1,31.9,117.6,30.7,117.6,30.7ZM90,37.4,94.8,34c4.2,2.2,8.6,7.3,8.1,19.6l-3.2-.2c.1-.7.3-4.7-3.2-10.2C94.5,40.1,92.4,38.3,90,37.4Zm-4.5,8.7c2.6-.2,4.4,4.3,5.3,7l-5.9-.3C82,49.4,83.2,46.2,85.5,46.1ZM160.6,71l-3.6-.2h-1.3L144.9,70l-.2,3.7,10.8.7-5.9,99.2-58-3.5H89l-42.8-2.6,5.9-99.2,10.2.6.2-3.7-10.2-.6H50.5l-3.2-.2.6-10,47.8,2.9h2.7L161.2,61Z"/></g><path class="b50a196d-1c1e-4829-b410-b375eb008cd6" d="M44.7,90.8a71.8,71.8,0,0,1,9.9-2.5,31.9,31.9,0,0,1,9.2-.2l3.4.4a20.4,20.4,0,0,1,3.5,1.1,8.4,8.4,0,0,1,2.9,2A6.5,6.5,0,0,1,75,95.1c.2.4.4.4.7.1a5.3,5.3,0,0,0,.6-1.3,4.8,4.8,0,0,0,.3-1.8,2.4,2.4,0,0,0-.2-1.5A9.3,9.3,0,0,0,73,86.2a19.1,19.1,0,0,0-5.6-2.5,39.3,39.3,0,0,0-7.2-.9,54,54,0,0,0-8,.3l-8.1,1.2c-2.7.6-5.1,1.3-7.4,2a37.5,37.5,0,0,0-6,2.4,16.5,16.5,0,0,0-3.9,2.5,9,9,0,0,0-2.3,2.7A17.3,17.3,0,0,0,23,97.5a8.4,8.4,0,0,0-.3,3c.1.9.5,1.2,1.2,1.1l1.2-1,1.4-.9A73.5,73.5,0,0,1,35,94.8,93.7,93.7,0,0,1,44.7,90.8Z"/><path class="b50a196d-1c1e-4829-b410-b375eb008cd6" d="M53.6,103.2a4.7,4.7,0,0,0,.6-1.5c.1-.5-.1-.8-.3-.8H52.8l-3.1.2-3.2.3,1.2-2.3,1.2-2.2c.1-.3,0-.7-.4-1.3a10.2,10.2,0,0,0-1.3-1.8,7,7,0,0,0-1.7-1.4c-.5-.4-.9-.5-1.1-.3l-2.7,4.5c-1.1,1.8-2.3,3.8-3.5,6l-3.3.8-3.2,1a2.3,2.3,0,0,0-1.5,1.2,17.2,17.2,0,0,0-.9,1.9,1,1,0,0,0-.1.9.6.6,0,0,0,.6.3c.3.1.5,0,.9-.1l.8-.2,4.2-1.1c-1.3,2.7-2.5,5.4-3.7,8.3a44,44,0,0,0-2.4,8.6c-.1.3.2.7.7,1.2a8.6,8.6,0,0,0,1.8,1.4,8.8,8.8,0,0,0,2,.9,1.2,1.2,0,0,0,1.3,0,34.7,34.7,0,0,1,2.6-8.8,105.3,105.3,0,0,1,5.9-12.7h6.3a3.3,3.3,0,0,0,1.3-.4l1.2-1.1A6,6,0,0,0,53.6,103.2Z"/><path class="b50a196d-1c1e-4829-b410-b375eb008cd6" d="M93,112.2a.8.8,0,0,0-.8-.1,1,1,0,0,0-.8.5l-.7,1.4-1,2c-.3.7-.7,1.4-1.1,2.2l-1.3,2.3-.7,1.1a7.1,7.1,0,0,0-1,1.4l-1,1.3-.9.6c-.2.1-.3-.1-.3-.4a7.4,7.4,0,0,1,.4-2,9.3,9.3,0,0,0,.5-1.4l1.5-3.8.3-1.2a5.9,5.9,0,0,0,.2-1.4,4.1,4.1,0,0,0-.4-1.9,2.8,2.8,0,0,0-1.5-1.3,4.5,4.5,0,0,0-1.8-.4,5.7,5.7,0,0,1-1.8-.3c.3-.8.5-1.4.7-1.8s.3-1,.5-1.7a4.8,4.8,0,0,0,0-1.7,5.2,5.2,0,0,0-.7-1.5,2.3,2.3,0,0,0-1.2-1,2,2,0,0,0-1.5,0,2.6,2.6,0,0,0-1.7.9,4.4,4.4,0,0,0-1.2,1.5,8.7,8.7,0,0,0-.7,1.7,11,11,0,0,0-.3,1.6,5.2,5.2,0,0,0,.5,2.3,4.3,4.3,0,0,0,1.3,1.7h0l-1.2,1.8a22.7,22.7,0,0,1-1.8,2.5,11.9,11.9,0,0,1-2,1.9,5.3,5.3,0,0,1-2.1,1.1,22.5,22.5,0,0,0,1.9-3.8,15.4,15.4,0,0,0,.9-2.4,8.7,8.7,0,0,0,.5-2.8,6.5,6.5,0,0,0-.6-3.7c-.6-1.1-1.7-1.6-3.3-1.7a8.6,8.6,0,0,0-2.7.5,10,10,0,0,0-2.4,1.4l-1.4-1.1a1.1,1.1,0,0,0-1.2-.1,15.6,15.6,0,0,0-3.4,2.3,16.4,16.4,0,0,0-2.8,3.1,15.5,15.5,0,0,0-1.9,3.6,16.1,16.1,0,0,0-.8,3.8,10.1,10.1,0,0,0,.2,3,5.8,5.8,0,0,0,1.2,2.5,6.7,6.7,0,0,0,2.2,1.8,11.4,11.4,0,0,0,3.4.7,7.4,7.4,0,0,0,4.4-1.1,14.5,14.5,0,0,0,3.6-2.8,7.6,7.6,0,0,0,4-.8,12.4,12.4,0,0,0,3.2-2.3,21.6,21.6,0,0,0,2.7-3.3l1.8-3.1a4.1,4.1,0,0,0,1.6.3c-.4,1.4-.9,2.8-1.4,4.1a11.5,11.5,0,0,0-.8,4.1,8.7,8.7,0,0,0,.7,3.5,6.6,6.6,0,0,0,2.9,2.8,2.8,2.8,0,0,0,2.2,0,6.8,6.8,0,0,0,2.1-1.7,23.5,23.5,0,0,0,1.9-2.5c.6-1,1.2-1.8,1.6-2.6l1.2-2.3a22.6,22.6,0,0,0,1.1-2.2l.9-1.9.7-1.5a2.1,2.1,0,0,0,0-1.1A1.7,1.7,0,0,0,93,112.2ZM63.6,123.1a7.2,7.2,0,0,1-2,.9l-1.9.3a2.5,2.5,0,0,1-1.7-.8,3.4,3.4,0,0,1-.5-2.6,7.8,7.8,0,0,1,.4-2.2,10.8,10.8,0,0,1,.8-1.9,6.7,6.7,0,0,0,1.5,3.8,8,8,0,0,0,3.6,2.5Zm4.2-5.2a10.7,10.7,0,0,1-1.3,2.1,3.4,3.4,0,0,1-2.3-1.6,7.6,7.6,0,0,1-.5-3.3,5.9,5.9,0,0,1,.5-1.9,10.6,10.6,0,0,1,1.1-2.1,9.3,9.3,0,0,1,1.6-1.8,2.7,2.7,0,0,1,1.7-.7,1.6,1.6,0,0,1,1.4.9,4,4,0,0,1,.2,1.9,9.3,9.3,0,0,1-.5,2.4,11,11,0,0,1-.7,1.7Z"/><path class="b50a196d-1c1e-4829-b410-b375eb008cd6" d="M162.6,106.5h-.8a1.1,1.1,0,0,0-.7.6c-.3.9-.6,2.1-1.1,3.6s-1,3.2-1.7,4.9l-1,2a19.4,19.4,0,0,1-1,1.7,4.9,4.9,0,0,1-.8,1c-.2.2-.3.1-.3-.2a7.6,7.6,0,0,1,.1-2,5.1,5.1,0,0,1,.1-1,17.6,17.6,0,0,1,.2-1.9,8.5,8.5,0,0,0,.3-2.3,15,15,0,0,1,.4-2.4c.1-.8.1-1.5.2-2.1a7.5,7.5,0,0,1,.2-1.1c0-.3.1-.6.1-.9a2.8,2.8,0,0,0-.1-.9,3.6,3.6,0,0,0-.7-1.9,3.2,3.2,0,0,0-1.9-1.1h-1.5a2.9,2.9,0,0,0-1.4.4.6.6,0,0,0-.4.8,2.4,2.4,0,0,1,0,.9,10.9,10.9,0,0,1-.1,1.7,21.5,21.5,0,0,1-.2,2.3c-.1.8-.1,1.6-.2,2.4l-.9,2.8-1.2,3.1a17.6,17.6,0,0,1-.9,2l-1,1.7a3.5,3.5,0,0,1-.9,1.1c-.2.2-.3.1-.4-.2a5.5,5.5,0,0,1,.2-2.1l1.3-8.2c.3-1.4.4-2.5.5-3.3a4.8,4.8,0,0,0,0-1.7,3.4,3.4,0,0,0-.6-1.5,3.1,3.1,0,0,0-1.1-.9l-1.3-.5h-1.2l-1.2.4c-.3.1-.3.3-.3.5a9.2,9.2,0,0,1-.1,2.8l-.6,4.2a1.3,1.3,0,0,0-.1.6l-.3.5a24.4,24.4,0,0,1-1.4,2.8,17.7,17.7,0,0,1-1.6,2.2,7.7,7.7,0,0,1-1.9,1.4,35.7,35.7,0,0,0,1.2-4,18.4,18.4,0,0,0,.5-2.5,9.5,9.5,0,0,0,.1-2.9,6.4,6.4,0,0,0-1.2-3.5,3.7,3.7,0,0,0-3.5-1.3,8.2,8.2,0,0,0-2.6,1,9.1,9.1,0,0,0-2.1,1.8,5.1,5.1,0,0,0-1.6-.9,1.3,1.3,0,0,0-1.2,0,20.6,20.6,0,0,0-3,2.9,19.2,19.2,0,0,0-2.3,3.5,17.1,17.1,0,0,0-1.3,3.8c0,.1-.1.2-.1.3a27.1,27.1,0,0,1-3.5,4c.2-.9.5-1.7.6-2.4a19.4,19.4,0,0,0,.5-2,14.2,14.2,0,0,0,.4-2c.2-.7.3-1.5.5-2.3a8.5,8.5,0,0,0,.3-2.3,6.5,6.5,0,0,0-.5-2,3.4,3.4,0,0,0-1.6-1.3h-1.6l-1.4.3a.6.6,0,0,0-.4.8,15.4,15.4,0,0,1-.3,1.6l-.7,3h.1c-.4,1.1-1,2.4-1.6,3.9s-1.3,2.9-2,4.3l-1.1,1.9a7.4,7.4,0,0,1-1.2,1.6,3,3,0,0,1-.9,1c-.2.1-.3,0-.4-.3a8.8,8.8,0,0,1,.3-2c.8-2.7,1.3-4.9,1.7-6.5l.9-3.6c.2-.8.3-1.3.4-1.6v-.7a4.6,4.6,0,0,0-.5-2,2.4,2.4,0,0,0-1.6-1.3l-.7-.2h-.8a3.2,3.2,0,0,0-1.4.3.6.6,0,0,0-.5.7,6.6,6.6,0,0,1-.1,1.1c-.1.6-.3,1.3-.5,2.1l-.6,2.7-.6,2.7h0l-.2.7c-.3,1-.5,2-.7,2.9a14.1,14.1,0,0,0-.3,2.8,7.9,7.9,0,0,0,.8,3.2,5.9,5.9,0,0,0,3,2.5,3.8,3.8,0,0,0,1.5.1,3.5,3.5,0,0,0,1.4-.6,6.3,6.3,0,0,0,1.3-1.1,7.6,7.6,0,0,0,1.1-1.4h0a5.1,5.1,0,0,1-.2,1.3,3.6,3.6,0,0,1-.2,1h.2l-1.7.8-1.6,1a37.2,37.2,0,0,0-4.3,2.6,9.3,9.3,0,0,0-2.8,2.8,6.8,6.8,0,0,0-.9,3.5,6,6,0,0,0,.8,2.9,3.6,3.6,0,0,0,2.1,1.9,7.8,7.8,0,0,0,2.2.3,5.3,5.3,0,0,0,2.4-.6,9.8,9.8,0,0,0,2.2-1.3,8.1,8.1,0,0,0,1.9-1.8,9,9,0,0,0,1.4-2,39.7,39.7,0,0,0,2.3-5.3c.8-2,1.5-4.2,2.2-6.4h-.1a38.6,38.6,0,0,0,5-4.9,14.1,14.1,0,0,0,.6,2.2,7.3,7.3,0,0,0,1.6,2.3,6.6,6.6,0,0,0,2.5,1.3,7.6,7.6,0,0,0,3.4.2,8,8,0,0,0,4.2-1.8,16.2,16.2,0,0,0,3.1-3.3,9.6,9.6,0,0,0,3.8-1.4,11,11,0,0,0,2.2-2.1,6.1,6.1,0,0,0,.1,1.4,8.2,8.2,0,0,0,1.2,3.3,6.2,6.2,0,0,0,3.4,2.3,2.5,2.5,0,0,0,1.9-.1,4.9,4.9,0,0,0,1.5-1.4,9.1,9.1,0,0,0,1.3-1.9,22.9,22.9,0,0,0,1-2.3,7.1,7.1,0,0,0,1.3,2.6,6.2,6.2,0,0,0,3.1,1.8,2.3,2.3,0,0,0,2.1-.4,5.9,5.9,0,0,0,1.8-2,17.1,17.1,0,0,0,1.4-2.7c.5-1,.8-1.9,1.2-2.8a28,28,0,0,0,1.3-4.1c.4-1.3.8-2.5,1-3.4l.3-1.1a2,2,0,0,0-.2-.9A1.2,1.2,0,0,0,162.6,106.5Zm-59.7,30.3h0a4.1,4.1,0,0,1-1.4,1.5,5.8,5.8,0,0,1-1.6.5c-.7,0-1-.2-1-.7a4.9,4.9,0,0,1,.6-1.9,13.9,13.9,0,0,1,2.4-2.5,32.2,32.2,0,0,1,3.6-2.4A47.9,47.9,0,0,1,102.9,136.8ZM130,122.5a11.8,11.8,0,0,1-1.8,1.3l-1.9.6a2.8,2.8,0,0,1-1.8-.6,3.4,3.4,0,0,1-.9-2.4,8.7,8.7,0,0,1,.1-2.3,6.5,6.5,0,0,1,.5-2,7.2,7.2,0,0,0,2,3.6,8.7,8.7,0,0,0,4,1.8Zm4.6-10c-.2.8-.3,1.4-.4,1.7l-.9,2.6a9.4,9.4,0,0,1-1,2.3,3.3,3.3,0,0,1-2.4-1.3,7.4,7.4,0,0,1-1.1-3.2,7.2,7.2,0,0,1,.2-1.9,12.7,12.7,0,0,1,.8-2.3,5.3,5.3,0,0,1,1.3-2,2.1,2.1,0,0,1,1.6-.9c.7-.1,1.2.1,1.4.6a6.4,6.4,0,0,1,.6,1.8A22.6,22.6,0,0,1,134.6,112.5Z"/><text class="a60e5e14-1c7b-4d15-93e4-3e712565e97f" transform="matrix(0.96, -0.28, 0.28, 0.96, 114.69, 100.84)">S</text><text class="a60e5e14-1c7b-4d15-93e4-3e712565e97f" transform="matrix(0.98, -0.22, 0.22, 0.98, 121.27, 98.93)">p</text><text class="a60e5e14-1c7b-4d15-93e4-3e712565e97f" transform="translate(127.6 97.5) rotate(-9.3)">e</text><text class="a60e5e14-1c7b-4d15-93e4-3e712565e97f" transform="matrix(0.99, -0.1, 0.1, 0.99, 133.69, 96.49)">c</text><text class="a60e5e14-1c7b-4d15-93e4-3e712565e97f" transform="translate(139.8 95.9) rotate(-3.1)">i</text><text class="a60e5e14-1c7b-4d15-93e4-3e712565e97f" transform="matrix(1, 0, 0, 1, 142.94, 95.69)">a</text><text class="a60e5e14-1c7b-4d15-93e4-3e712565e97f" transform="translate(149.1 95.7) rotate(2.9)">l</text><text class="a60e5e14-1c7b-4d15-93e4-3e712565e97f" transform="matrix(1, 0.08, -0.08, 1, 152.26, 95.88)"> </text><text class="a60e5e14-1c7b-4d15-93e4-3e712565e97f" transform="translate(154 95.9) rotate(7.8)">G</text><text class="a60e5e14-1c7b-4d15-93e4-3e712565e97f" transform="translate(161.4 97) rotate(11.7)">i</text><text class="a60e5e14-1c7b-4d15-93e4-3e712565e97f" transform="translate(164.5 97.6) rotate(14.7)">f</text><text class="a60e5e14-1c7b-4d15-93e4-3e712565e97f" transform="translate(169.1 98.8) rotate(18.5)">t</text></svg>