<svg id="e7690b33-95ee-4864-9612-859a57773793" data-name="Layer 1" xmlns="http://www.w3.org/2000/svg" viewBox="0 0 206 206"><defs><style>.\35 e6dbf88-936b-4aff-b8a6-4f18fd2efa8a{fill:#e1221a;}.ff388980-eba3-4be1-86ef-d1770866db77{fill:#fff;}</style></defs><title>GreetingM-smile-</title><rect class="5e6dbf88-936b-4aff-b8a6-4f18fd2efa8a" width="206.1" height="206.08"/><path class="ff388980-eba3-4be1-86ef-d1770866db77" d="M37.4,108.1a12.6,12.6,0,0,0,6.8,3.4,17.1,17.1,0,0,0,8.6-1.4,11.7,11.7,0,0,0,5.1-4.4,12.3,12.3,0,0,0,1.6-5.7,9,9,0,0,0-1.4-5.2,6.5,6.5,0,0,0-4-3.1c-1.8-.6-3.9-.3-6.4.8A6.4,6.4,0,0,0,45,94.9,6.6,6.6,0,0,0,44,98a2.3,2.3,0,0,0,.8,2.1c.5.4,1.2.3,2.3-.5a2.3,2.3,0,0,0,.6-1.2,2.2,2.2,0,0,1,1.1-2,2.3,2.3,0,0,1,2,0,5.2,5.2,0,0,1,1.9,1.1,3,3,0,0,1,.9,1.5,5.9,5.9,0,0,1-6.8,6.6c-2.1-.2-4.1-1.4-6.2-3.4a10.7,10.7,0,0,1-2.5-5.6,16.8,16.8,0,0,1,.2-6.7,14.8,14.8,0,0,1,2.3-5.7,5.2,5.2,0,0,1,3.9-2.4c1.5-.1,3.1.9,4.9,3s2.3,2.4,2.9,2.4,1.1-.4,1.3-1.4a9.1,9.1,0,0,0,0-3.3,17,17,0,0,0-.7-3.4c-.7-2.4-1.9-3.9-3.6-4.6a7.7,7.7,0,0,0-5.6,0,18.5,18.5,0,0,0-5.9,3.8A19.6,19.6,0,0,0,31.4,93a24.1,24.1,0,0,0,1.6,8.4A18.2,18.2,0,0,0,37.4,108.1Z"/><path class="ff388980-eba3-4be1-86ef-d1770866db77" d="M63.3,100.6a9.2,9.2,0,0,0,5.4,3.4,12,12,0,0,0,7.2-1.7,10.6,10.6,0,0,0,3.6-5,13.3,13.3,0,0,0,.3-6.3,12.1,12.1,0,0,0-2.5-5.8,9.6,9.6,0,0,0-5-3.3,7.9,7.9,0,0,0-5.4,1.2,14.3,14.3,0,0,0-4.8,4.7,10.9,10.9,0,0,0-1.3,6.6A12.6,12.6,0,0,0,63.3,100.6ZM67,90.3c1.3-1.8,2.7-2.7,4.1-2.6s2.7,1.2,3.7,3.2a6.2,6.2,0,0,1,.5,3.8,4.3,4.3,0,0,1-2.2,3.1,4.9,4.9,0,0,1-2.8.9,3.4,3.4,0,0,1-2.4-1.4,8.8,8.8,0,0,1-1.5-3.4A5,5,0,0,1,67,90.3Z"/><path class="ff388980-eba3-4be1-86ef-d1770866db77" d="M139.8,77.6c-.2-.6-.9-.2-2.1,1s-1.3,1.5-2,2.3a27.6,27.6,0,0,1-2.1,2.5,5.2,5.2,0,0,1-1.8,1.4,14.3,14.3,0,0,1-.5-2.8c-.1-1.4-.4-2.8-.6-4.3a19.2,19.2,0,0,0-1-3.7c-.4-1-1-1.2-1.6-.9s-1.5,1.7-2.4,4.1l-.3.8c-.6,1.6-1.3,3.2-2,4.8a17.7,17.7,0,0,1-2.4,4.1,5.1,5.1,0,0,1-2.9,2.2,2.2,2.2,0,0,1-2.5-.9,5.4,5.4,0,0,1-.4-2.9,16.1,16.1,0,0,1,1-3.6,11.6,11.6,0,0,1,2.4-3.4,3.8,3.8,0,0,1,2.1-1.2,5.5,5.5,0,0,1,1.8.1h.4a1.7,1.7,0,0,0,1.3-.2c.3-.3.3-1-.1-2.1a2,2,0,0,0-1.5-1.4,3.9,3.9,0,0,0-2.8.1,16.3,16.3,0,0,0-4,2.4,21.1,21.1,0,0,0-3,2.8,11.4,11.4,0,0,0-2.8,5.9.1.1,0,0,0-.1.1,22.2,22.2,0,0,1-2.5,4.2,4.2,4.2,0,0,1-2.7,2.1,1.8,1.8,0,0,1-1.9-1.2,11.4,11.4,0,0,1-.8-3.2,14.4,14.4,0,0,0-.9-4,7.9,7.9,0,0,0-2.4-3.7A10,10,0,0,0,93.5,77a7.8,7.8,0,0,0-5.4,1.4,7.6,7.6,0,0,0-3.2,4.7,1.3,1.3,0,0,0-1.3-.6,2.7,2.7,0,0,0-1.6.6,2.4,2.4,0,0,0-.9,1.5,7.8,7.8,0,0,0,.4,3.1,37.6,37.6,0,0,1,1,4.8c.2,1.2.4,2.5.7,3.9a9.2,9.2,0,0,0,.8,2.5,2.9,2.9,0,0,0,1.4,1.1c1.2.5,2,.4,2.4-.1a4.3,4.3,0,0,0,.6-2.4,21.6,21.6,0,0,0-.3-3.5,26.2,26.2,0,0,1-.3-3.7c.1-1.4.3-2.7.5-3.9a10.4,10.4,0,0,1,1.2-3,3.2,3.2,0,0,1,2.2-1.2,3.1,3.1,0,0,1,2.7,1.9,20.5,20.5,0,0,1,1.5,4.4,27.7,27.7,0,0,0,1.2,4.1,7.1,7.1,0,0,0,2.2,3.3,5.2,5.2,0,0,0,3.8,1.3,8.1,8.1,0,0,0,4.6-1.9,15.2,15.2,0,0,0,3.4-4.1c0-.1.1-.2.1-.3v.2a8,8,0,0,0,4.3,3.4,7.3,7.3,0,0,0,5.7-.6,10.5,10.5,0,0,0,3.2-2.7,18.6,18.6,0,0,0,2.2-3.5c.1.2.1.4.2.6a4.3,4.3,0,0,0,.1.5c0,.2.1.4.1.7l-.3.2-2.5,3.2a49.7,49.7,0,0,0-3.1,5.6,23.2,23.2,0,0,0-1.8,5.8,17.9,17.9,0,0,0-.1,6.1,7.5,7.5,0,0,0,2.5,4.8c1.6,1.4,3.1,2,4.3,1.7a5.5,5.5,0,0,0,3.2-2.9,27.5,27.5,0,0,0,2.1-5.6,52.2,52.2,0,0,0,1.1-6.9c.3-2.4.4-4.6.5-6.7s0-3.6-.1-4.7a17.4,17.4,0,0,0,4-4.5,19,19,0,0,0,2.5-4.9A5.5,5.5,0,0,0,139.8,77.6ZM127.9,98.3c-.1,1.4-.3,3-.5,4.7a41.2,41.2,0,0,1-.8,4.5,4.7,4.7,0,0,1-.9,2.3,5.8,5.8,0,0,1-.8-4.2,22.7,22.7,0,0,1,1-5.8,11.8,11.8,0,0,1,1.9-4.2A16.4,16.4,0,0,1,127.9,98.3Z"/><path class="ff388980-eba3-4be1-86ef-d1770866db77" d="M103.6,134h.3l1.1-.2a4,4,0,0,0,1.2-1.1,11,11,0,0,0,1.4-2.7c.8-2.3,1-4.2.4-5.6a3.3,3.3,0,0,0-2.6-2.4c-1.3-.2-2.5.3-3.8,1.6a4.1,4.1,0,0,0-.9,2.5,15.3,15.3,0,0,0,0,3.7,12.1,12.1,0,0,0,1,3.2A1.9,1.9,0,0,0,103.6,134Z"/><path class="ff388980-eba3-4be1-86ef-d1770866db77" d="M121.8,140.5a65.9,65.9,0,0,1-5.3,7.3c-1.8,2.1-3.1,3.4-4.1,3.8s-1.7-.2-2.4-1.7a35.5,35.5,0,0,1-1.5-7.8,7,7,0,0,0-1.3-3,3,3,0,0,0-1.7-1.1,4.7,4.7,0,0,0-1.7.1q-1.5.3-1.8,2.4a18.4,18.4,0,0,0,0,4.7,6.9,6.9,0,0,1,.2,1.3l-1.1,1.6a4.9,4.9,0,0,1-2.7,1.8,3.2,3.2,0,0,1-2.4-1,15.1,15.1,0,0,1-2.6-2.9l-2.1-3.4c-.7-1.2-1.2-1.8-1.7-1.9h-.9c-.6.1-1.1.8-1.5,2a28.9,28.9,0,0,0-1.1,3.5c-1.2,4.1-2.3,7-3.5,8.7a4.4,4.4,0,0,1-3,2.1c-1.2.2-2.1-.7-2.5-2.7a10.2,10.2,0,0,1,1-6.8,15.6,15.6,0,0,1,3.6-5.4l.4-.2a2.7,2.7,0,0,1,1.3.4,1.3,1.3,0,0,0,1.2.4l.5-.2c.4-.4.6-.7.5-1.1v-.5a4,4,0,0,0-.9-1.7,5.4,5.4,0,0,0-2.4-1.2c-1.1-.3-2.5,0-4.3.9a11.8,11.8,0,0,0-4.7,4.5,18.1,18.1,0,0,0-2.4,7.1,2.8,2.8,0,0,0-.1.9l-2.4,3.6a20.4,20.4,0,0,1-4.9,4.8,11,11,0,0,1-6.2,2.1c-2.2,0-4.3-1.1-6.4-3.3a11.2,11.2,0,0,1-2.4-5.8,16.9,16.9,0,0,1,.4-6.7,13.8,13.8,0,0,1,2.5-5.6,5.2,5.2,0,0,1,4.1-2.3c1.5,0,3.1,1.1,4.8,3.2a12.2,12.2,0,0,0,2,2.3c.6.5,1.2.6,1.6.2s.8-1.6,1.1-3.4a13.2,13.2,0,0,0-.6-4.7c-.7-2.5-1.9-4.1-3.6-4.9a8.7,8.7,0,0,0-6-.3,17.6,17.6,0,0,0-6.6,3.5,19.6,19.6,0,0,0-5.3,6.4,17.4,17.4,0,0,0-2.1,8.4,22.5,22.5,0,0,0,1.6,8.5,18.4,18.4,0,0,0,4.7,7.1,13.1,13.1,0,0,0,7,3.8c4.8.4,8.6-.2,11.5-1.7a14.5,14.5,0,0,0,6.4-6.8,5.4,5.4,0,0,0,.5-1.1,7.3,7.3,0,0,0,3.6,3.2,6.9,6.9,0,0,0,3.9.4,7.3,7.3,0,0,0,3-1.1,14.3,14.3,0,0,0,4.5-4.9,14.6,14.6,0,0,0,2.2-6.1,15,15,0,0,0,1.9,2.5,9.1,9.1,0,0,0,3.3,2.4,7.5,7.5,0,0,0,4.5.4,5.6,5.6,0,0,0,3.4-2.2,8.3,8.3,0,0,0,.8-1.2,22,22,0,0,0,1.5,3.1,6.1,6.1,0,0,0,4,3.1,6.7,6.7,0,0,0,5-1.1,13.9,13.9,0,0,0,4.8-4.6,29.3,29.3,0,0,0,3.6-6.8,10.4,10.4,0,0,0,.6-3.2,5.1,5.1,0,0,0-.3-2.1C122.5,140,122.2,140,121.8,140.5Z"/><path class="ff388980-eba3-4be1-86ef-d1770866db77" d="M30.7,127.2a99.9,99.9,0,0,0,.9-10q0-4.4-.3-4.8c-.7-.3-1.3,0-1.7.9a12.9,12.9,0,0,0-1.2,3.9c-.4,1.7-.7,3.6-1.1,5.7a2,2,0,0,1-.1.7c-1.3-1.5-2.6-2.7-3.7-3.8a13.7,13.7,0,0,0-2.9-2.2c-.8-.3-1.3-.2-1.6.5s.6,1.5,2.1,3.6a80.6,80.6,0,0,0,5.3,6.7c-.4,2.1-.9,4-1.4,5.9a18.5,18.5,0,0,1-2,4.7,2.9,2.9,0,0,0,2.9-.2,5.8,5.8,0,0,0,2.2-2.6,16.2,16.2,0,0,0,1.6-4.4,20.8,20.8,0,0,0,3.6,2.8,6.2,6.2,0,0,0,3.2,1,2.8,2.8,0,0,0,2.4-1.4,32,32,0,0,1-4-3C33.5,130,32.1,128.6,30.7,127.2Z"/><path class="ff388980-eba3-4be1-86ef-d1770866db77" d="M36.8,112.7a2.9,2.9,0,0,0-2.1,1.2,2.8,2.8,0,0,0-.3,1.5,7.6,7.6,0,0,0,.3,2.1,4.3,4.3,0,0,0,.8,1.8.9.9,0,0,0,1.1.5h.2c.2-.1.4-.1.6-.3a1.4,1.4,0,0,0,.6-.7,4,4,0,0,0,.7-1.6,5,5,0,0,0-.2-3.3A2.1,2.1,0,0,0,36.8,112.7Z"/><path class="ff388980-eba3-4be1-86ef-d1770866db77" d="M44.2,132.4a12.2,12.2,0,0,0,2.5-2.9,15,15,0,0,0,1.5-4.2,4.3,4.3,0,0,0,.2-1.9,6.8,6.8,0,0,0-.3-1.2c-.2-.2-.4-.1-.6.1a38.2,38.2,0,0,1-2.5,4.6,7.6,7.6,0,0,1-2.1,2.4c-.6.3-1.1.1-1.5-.8a16.6,16.6,0,0,1-1.5-4.4,3.1,3.1,0,0,0-.9-1.6,1.6,1.6,0,0,0-1-.5,1.6,1.6,0,0,0-1,.2c-.6.1-.9.6-.9,1.4a9.5,9.5,0,0,0,.4,2.8,11.5,11.5,0,0,0,.9,2.8,9.1,9.1,0,0,0,1.5,2.7,3.3,3.3,0,0,0,2.5,1.5A4,4,0,0,0,44.2,132.4Z"/><path class="ff388980-eba3-4be1-86ef-d1770866db77" d="M62.3,110.3a2,2,0,0,1,1-.7h.3l1.7-.6,2-1.1a6.9,6.9,0,0,0,1.6-1.8,10.4,10.4,0,0,0-3.1-.1,11.3,11.3,0,0,0-3.6.6,12.8,12.8,0,0,0-3.1,1.5,3.8,3.8,0,0,0-1.4,2.4,11.9,11.9,0,0,0,0,2.7,38,38,0,0,0,.5,4.3,7.1,7.1,0,0,0-2.8,1.9l1.5.4h1.7a24.4,24.4,0,0,0,1.4,5,8.7,8.7,0,0,0,2.2,3.4,2.9,2.9,0,0,0,3,.4c-.3-1.4-.8-2.8-1.2-4.4s-.9-3.1-1.3-4.7l2.7-.5a5.1,5.1,0,0,0,2.2-1.2,2.2,2.2,0,0,0,.2-2.4,4.9,4.9,0,0,0-1.9,0l-3.9.9a13.4,13.4,0,0,1-.2-4.4A2.6,2.6,0,0,1,62.3,110.3Z"/><path class="ff388980-eba3-4be1-86ef-d1770866db77" d="M78.8,114.9c-.3.6-.5,1.3-.8,2a16.4,16.4,0,0,1-2.2,4.9A2.7,2.7,0,0,1,74,123c-.7,0-1.2-.5-1.4-1.6a6.8,6.8,0,0,1,.8-4,9.7,9.7,0,0,1,2.3-3h.2l.7.3.7.3.3-.2a.9.9,0,0,0,.3-.6v-.3a1.9,1.9,0,0,0-.5-1,3.6,3.6,0,0,0-1.3-.8,4.1,4.1,0,0,0-2.5.4,6.3,6.3,0,0,0-2.8,2.6,9.5,9.5,0,0,0-1.7,4,8.8,8.8,0,0,0,.6,4.5,4.5,4.5,0,0,0,2.1,2.2,5.1,5.1,0,0,0,2.3.4,6.4,6.4,0,0,0,1.8-.6,8.7,8.7,0,0,0,2.7-2.7,7.8,7.8,0,0,0,1.4-3.5,6.3,6.3,0,0,0,1.1,1.5,4.5,4.5,0,0,0,1.8,1.5,4.4,4.4,0,0,0,2.6.4,3.5,3.5,0,0,0,2.1-1.2,6.6,6.6,0,0,0,1.3-2.5,8.7,8.7,0,0,0,.4-2.6,2.4,2.4,0,0,0-.3-1.3h-.1c-.1,0-.4.4-.8,1.2a7.4,7.4,0,0,1-1.4,2.2,3.7,3.7,0,0,1-1.6,1,1.9,1.9,0,0,1-1.4-.7,8.5,8.5,0,0,1-1.4-1.7c-.4-.8-.8-1.4-1.1-2.1s-.7-1.1-1-1.1h-.5C79.4,113.8,79.1,114.2,78.8,114.9Z"/><path class="ff388980-eba3-4be1-86ef-d1770866db77" d="M153.9,39.3A7.7,7.7,0,0,0,160,51.4a7.7,7.7,0,0,0,4.5-1.5h.2l3.8-3.8,6.3,6.3h0l-3.4,3.4a6.9,6.9,0,0,0,0,9.8l.4.4a7.1,7.1,0,0,0,4.9,2.1h0a6.9,6.9,0,0,0,5-2.1l.3-.3a6.9,6.9,0,0,0,0-9.8l-3.4-3.5,6.7-6.7,3.2,3.3a7.6,7.6,0,0,0,4.9,2.2h.1a7.2,7.2,0,0,0,5-2.3,7.1,7.1,0,0,0,.4-10.2l-3.3-3.3,3.1-3.1c1.7-1.7,3.9-5.9,0-9.8a7.5,7.5,0,0,0-5.2-2.5h0a7.6,7.6,0,0,0-5,2.1l-3,3.1-6.9-6.9a.1.1,0,0,0,.1-.1l3.3-3.3a7,7,0,0,0,.1-9.9l-.5-.4a7,7,0,0,0-9.8,0l-.4.3a7.1,7.1,0,0,0,0,9.9l3.5,3.4h0L168.2,25l-3.7-3.7c-1.8-1.5-6.2-3.4-9.8.2a7.4,7.4,0,0,0-.5,10.1h.1l3.6,3.7Zm12.5-12.5-6.7,6.7L156.2,30c-.4-.6-2.6-3.8.3-6.7s5.8-.5,6.3,0Zm-4.9,8.6,6.7-6.7,6.9,6.8-6.7,6.7Zm8.7,8.7,6.7-6.7,6.5,6.5-6.5,6.5h-.4Zm15.1-2-6.5-6.6,6.7-6.7,6.5,6.6Zm-8.4-25.7c-.1,0-.1,0-.1.1h-.1l-3.4-3.5a4.3,4.3,0,0,1,0-6.1l.3-.4a4.6,4.6,0,0,1,6.2,0l.4.5a4.3,4.3,0,0,1,0,6.1ZM183.6,27l-6.7,6.7-6.8-6.9,6.6-6.5h.2Zm13.3,3.5-3.1,3L187.3,27l3.1-3.1c.3-.3,3.2-2.9,6.5.4A4.2,4.2,0,0,1,196.9,30.5Zm-9.8,13.4,6.7-6.7,3.2,3.3c.4.4,2.9,3.3-.4,6.5a4.3,4.3,0,0,1-3.2,1.6,4.6,4.6,0,0,1-3-1.4ZM176.6,54.2h.1l3.5,3.5a4.4,4.4,0,0,1,0,6.2l-.4.3a4.4,4.4,0,0,1-3.1,1.3h0a4.3,4.3,0,0,1-3-1.3l-.5-.4a4.4,4.4,0,0,1,0-6.2ZM156,40.9l3.7-3.7,7,7-3.8,3.7a5,5,0,0,1-6.9-7Z"/><path class="ff388980-eba3-4be1-86ef-d1770866db77" d="M169.9,84.4a6.8,6.8,0,0,1,5.5-6V70.9H178v7.5a6.7,6.7,0,0,1,5.2,6h0v74.9h-2.6V85.1h0a4,4,0,0,0-2.6-4V159h-2.6V81a4.2,4.2,0,0,0-2.9,3.8h0v74.5h-2.6V84.4Z"/></svg>