<svg id="7753ce25-df35-4dba-b87d-44a55e66a4b0" data-name="Layer 1" xmlns="http://www.w3.org/2000/svg" viewBox="0 0 206 206"><defs><style>.a5438e4f-ca83-467c-b04e-dbfc2990eda1{fill:#0089ce;}.\32 904cd92-bb0f-4251-aa05-93381ac8c65d,.\33 3b16284-d8f7-4919-ac89-ce05f85e8711{fill:#fff;}.\33 3b16284-d8f7-4919-ac89-ce05f85e8711{opacity:0.14;}</style></defs><title>GreetingM-smile-</title><rect class="a5438e4f-ca83-467c-b04e-dbfc2990eda1" width="206" height="206.02"/><path class="33b16284-d8f7-4919-ac89-ce05f85e8711" d="M206,95.8c-10.6,6.9-20.5,15.6-29.9,24.6-17.2,16.1-34.3,33.5-54.8,42.7-22.8,10.3-47.9,9.5-72.2,11.6C31.3,176.3,15,180.4,0,189v17H206Z"/><path class="2904cd92-bb0f-4251-aa05-93381ac8c65d" d="M85.6,138.1a2.5,2.5,0,0,1-2.8-1.2c-.8-1.2-1.7-4.3-2.8-9.2a24.3,24.3,0,0,1-4.2,1.5,5.4,5.4,0,0,1-1.8,0c.7,4.4.9,7.3.5,8.9a2.8,2.8,0,0,1-2.5,2.2,3.2,3.2,0,0,1-2.8-.6c-1-.8-1.9-3-2.8-6.4s-1.1-4.4-1.6-6.6c-1.1-5.8-1.4-9.6-.9-11.3a3,3,0,0,1,2.5-2,2.9,2.9,0,0,1,2.3.3,3.5,3.5,0,0,1,1.4,1.7,17.5,17.5,0,0,1,1.1,2.4c.3.9.5,1.7.7,2.4s.4,1.3.5,1.8.7,2.6,1.1,4.6a4.1,4.1,0,0,1,1.1-.7l1.9-.8,2.7-.8-.3-1.3a68.1,68.1,0,0,1-1.3-9.8v-1.1a2.3,2.3,0,0,1,2-1.9,2.4,2.4,0,0,1,2.6.8c.8,1,1.7,3.6,2.7,7.9l1.3,5.5c1.1,5.8,1.6,9.5,1.4,11.3A2.3,2.3,0,0,1,85.6,138.1Z"/><path class="2904cd92-bb0f-4251-aa05-93381ac8c65d" d="M103.9,131a11,11,0,0,1-5.3.5,8.6,8.6,0,0,1-4.3-1.8,11,11,0,0,1-4.2-5.7,20.7,20.7,0,0,1-.6-2.6,11.2,11.2,0,0,1,.4-3.9,9.7,9.7,0,0,1,2.4-4.3,7.5,7.5,0,0,1,3.2-2.1,3.2,3.2,0,0,1,1.9-.1,8.8,8.8,0,0,1,2.1-1.2,6.4,6.4,0,0,1,3.6-.2,7.1,7.1,0,0,1,3.3,1.5,9.6,9.6,0,0,1,2.6,2.7,17.3,17.3,0,0,1,1.7,3.3,20,20,0,0,1,.6,4,9.1,9.1,0,0,1-.8,4.1C109.4,128,107.2,129.9,103.9,131Zm0-3.9q2.7-.9,3-4.2a15,15,0,0,0-1.4-6.3,10.2,10.2,0,0,0-1.4-2.2,4,4,0,0,0-1.8-1.5,3.1,3.1,0,0,0-1.9-.1l-.7.4c-.4.3-.6.5-.8.5h-.4a4.4,4.4,0,0,0-1.5,3,10.9,10.9,0,0,0,.6,5,11.1,11.1,0,0,0,1.3,2.7,5.8,5.8,0,0,0,2.2,2.2A3.1,3.1,0,0,0,103.9,127.1Z"/><path class="2904cd92-bb0f-4251-aa05-93381ac8c65d" d="M123,123.6c-1.7.8-3.1.9-4.3.1a8.5,8.5,0,0,1-2.5-2.5,54.7,54.7,0,0,1-4.1-7.8,53.8,53.8,0,0,1-3.3-8.7c-.7-2.6-.2-4.2,1.5-5s3.3-.1,4.9,2a55.9,55.9,0,0,1,4,7.6,71.5,71.5,0,0,1,3.7,9.7,11.7,11.7,0,0,1,3.3-.9,1.7,1.7,0,0,1,1.3,1c.3.7,0,1.4-.8,2.1A13.1,13.1,0,0,1,123,123.6Z"/><path class="2904cd92-bb0f-4251-aa05-93381ac8c65d" d="M124,98.3a3.9,3.9,0,0,1-3.1.4,3.2,3.2,0,0,1-1.5-1.3,3.1,3.1,0,0,1,.5-3.7l1.3-1a3.7,3.7,0,0,1,3-.4,3.7,3.7,0,0,1,1.3,1.2,3.3,3.3,0,0,1-.2,3.7A3.5,3.5,0,0,1,124,98.3Zm11.2,19.8a3.8,3.8,0,0,1-2.3.6,4.1,4.1,0,0,1-1.8-1.3,31.9,31.9,0,0,1-4.1-5.9l-1.1-2a40.2,40.2,0,0,1-2.2-4.9,7.5,7.5,0,0,1-.4-2.4,2.9,2.9,0,0,1,1.6-2.1,2.5,2.5,0,0,1,2.6-.3,4.7,4.7,0,0,1,1.9,1.6,43.7,43.7,0,0,1,4.8,6.9,41.1,41.1,0,0,1,2.6,5.9,4.2,4.2,0,0,1,.1,2.2A3.1,3.1,0,0,1,135.2,118.1Z"/><path class="2904cd92-bb0f-4251-aa05-93381ac8c65d" d="M155,104.3a1.7,1.7,0,0,1-1.1.4,3.1,3.1,0,0,1-2.1-.4,6.6,6.6,0,0,1-1.3,2.5,12.1,12.1,0,0,1-1.9,2,6.4,6.4,0,0,1-4.2,1.4,8,8,0,0,1-3.8-1.1,12,12,0,0,1-3.9-3.5,13.3,13.3,0,0,1-2.6-6,10.2,10.2,0,0,1,.7-5.8,9.5,9.5,0,0,1,2.8-3.3l.9-.6a26.9,26.9,0,0,1-1.6-2.9c-1.2-2.3-1.1-4.1.5-5.3a3.1,3.1,0,0,1,2.4-.7,5.8,5.8,0,0,1,2.7,1.9,107.2,107.2,0,0,1,7.6,9.3c.6.9,1.8,2.3,3.6,4.5l2.1,2.6a5.5,5.5,0,0,1,.8,1.5,3.2,3.2,0,0,1-.7,2.6A7.6,7.6,0,0,1,155,104.3Zm-6.9.4a10.1,10.1,0,0,0,1.7-1.5,41.5,41.5,0,0,1-7.9-8.2L140,92.2c-1.8,3-1.3,6.4,1.4,10a8.4,8.4,0,0,0,3.5,3A3.3,3.3,0,0,0,148.1,104.7Z"/><path class="2904cd92-bb0f-4251-aa05-93381ac8c65d" d="M173.2,87.3a3,3,0,0,1-.8.7,3.4,3.4,0,0,1-1.7.8,4,4,0,0,1-1.9.1,5.7,5.7,0,0,1-1.8,4.3c-1.9,2-3.9,2.8-5.9,2.4a4.9,4.9,0,0,1-2.7-1.3,6.5,6.5,0,0,1-2-4.4,6.7,6.7,0,0,1,2.1-4.9,12,12,0,0,1,2-1.8l-.7-.6L157.9,81a7.1,7.1,0,0,0-2.2-1.3c-.7-.3-1.3-.3-1.6,0a2.1,2.1,0,0,0-.5,1.2,2.8,2.8,0,0,0,.3,1.3,5.4,5.4,0,0,0,.7,1.3,1.8,1.8,0,0,1-.4,2.4,1.7,1.7,0,0,1-1.3.7,1.3,1.3,0,0,1-1-.4,5.7,5.7,0,0,1-1.8-2.9c-.1-.3-.1-.7-.2-1.2a9.6,9.6,0,0,1,.5-2.8,7,7,0,0,1,1.7-2.3,8.9,8.9,0,0,1,5.5-2.8,7.8,7.8,0,0,1,3.7.6,12.3,12.3,0,0,1,3.3,1.9l3.2,2.7a32.7,32.7,0,0,0,5.2,3.9l.5.4.7.9a2,2,0,0,1-.1,1.5A4.7,4.7,0,0,1,173.2,87.3Zm-7.7,2.4a4,4,0,0,0,1-1.6,6.2,6.2,0,0,1-2-1.1l-1.2-1-1-.9a4.7,4.7,0,0,0-1.3,2.5,2.7,2.7,0,0,0,.9,2.3,3.1,3.1,0,0,0,1.5.8A2.3,2.3,0,0,0,165.5,89.7Z"/><path class="2904cd92-bb0f-4251-aa05-93381ac8c65d" d="M186.5,79.4a2.3,2.3,0,0,1-1.2,1,1.7,1.7,0,0,1-1.4,0,3.1,3.1,0,0,1-1.2-2.1,16,16,0,0,0-1.1-2.9,31,31,0,0,0-1.8-2.6c-3,2.5-7,3.1-11.9,1.8a10.9,10.9,0,0,1-3.5-1.5c-1.6-1.1-2.6-2-2.9-2.8a2.2,2.2,0,0,1,.2-2.2,2.8,2.8,0,0,1,1.6-1.2,3.1,3.1,0,0,1,1.9.3c4.2,2.5,8.2,3.4,11.9,2.8a62.3,62.3,0,0,0-5-4.1l-3.2-2.6a5.3,5.3,0,0,1-2-2.8,3.4,3.4,0,0,1,.4-2.6,2.5,2.5,0,0,1,2.2-1.3c1.7,0,4.3,1.1,7.8,3.4l2,1.5a20.2,20.2,0,0,1,3.8,3.5,21.5,21.5,0,0,1,3.3,4.6,10.1,10.1,0,0,1,1.1,7.3A8.2,8.2,0,0,1,186.5,79.4Z"/><path class="2904cd92-bb0f-4251-aa05-93381ac8c65d" d="M76.2,101.8a2.4,2.4,0,0,1-2.9-1.1c-.9-1.1-2-4.1-3.5-8.9a19,19,0,0,1-4.1,1.8l-1.8.2c1.1,4.2,1.5,7.2,1.2,8.8a2.8,2.8,0,0,1-2.3,2.3,3.5,3.5,0,0,1-2.9-.3c-1-.8-2.1-2.8-3.2-6.2s-1.5-4.4-2.1-6.5c-1.6-5.7-2.2-9.4-1.8-11.2a3.4,3.4,0,0,1,2.4-2.2,3.2,3.2,0,0,1,2.4.2,5.3,5.3,0,0,1,1.5,1.5,10.8,10.8,0,0,1,1.2,2.4,17.8,17.8,0,0,1,.9,2.3l.6,1.8c.4,1.1.9,2.6,1.4,4.5a5.9,5.9,0,0,1,1.1-.8l1.9-.9,2.6-1.1-.4-1.2a72.9,72.9,0,0,1-2.1-9.7V76.4a2.3,2.3,0,0,1,1.9-2,2.2,2.2,0,0,1,2.6.5q1.4,1.5,3.3,7.8c.7,2,1.2,3.8,1.6,5.4,1.6,5.7,2.4,9.4,2.3,11.1A2.6,2.6,0,0,1,76.2,101.8Z"/><path class="2904cd92-bb0f-4251-aa05-93381ac8c65d" d="M98.1,92l-1.1.3a3.5,3.5,0,0,1-1.8.1,5.6,5.6,0,0,1-1.8-.7A6.3,6.3,0,0,1,90,94.9c-2.6,1-4.7,1-6.4-.2a4.3,4.3,0,0,1-1.9-2.3,6.6,6.6,0,0,1-.1-4.8q.8-2.4,3.9-3.6l2.5-.9-.4-.9a19.5,19.5,0,0,0-1-2.2,17.3,17.3,0,0,0-1.5-2q-.9-.9-1.5-.6a1.8,1.8,0,0,0-1,.9,5.1,5.1,0,0,0-.2,1.3,7.1,7.1,0,0,0,.1,1.4,1.9,1.9,0,0,1-1.3,2.1,2.7,2.7,0,0,1-1.5.1,2,2,0,0,1-.8-.8,5.8,5.8,0,0,1-.4-3.4,3.5,3.5,0,0,1,.3-1.2,8.7,8.7,0,0,1,1.6-2.3A6.2,6.2,0,0,1,82.8,74a9.2,9.2,0,0,1,6.1-.3,7.6,7.6,0,0,1,3.2,2,11.9,11.9,0,0,1,2.3,3.1c.7,1.2,1.3,2.5,1.9,3.8a28.7,28.7,0,0,0,3.1,5.6l.4.6a3.1,3.1,0,0,1,.2,1.1,1.7,1.7,0,0,1-.7,1.3ZM90,91.1A4.8,4.8,0,0,0,91.5,90a12.9,12.9,0,0,1-1.3-1.8l-.7-1.4L89,85.6a4.6,4.6,0,0,0-2.3,1.7,2.5,2.5,0,0,0,0,2.5A2.2,2.2,0,0,0,90,91.1Z"/><path class="2904cd92-bb0f-4251-aa05-93381ac8c65d" d="M111,92c-1.6,1-3.3.4-5-1.8a61.9,61.9,0,0,1-5.7-8.4l-.7-1.1a60.9,60.9,0,0,1-4-8.1,5.6,5.6,0,0,1-.5-2.7,2.5,2.5,0,0,1,1.5-2.2c1.2-.7,2.2-.8,3-.2a2.9,2.9,0,0,1,1.6-1.7,8.9,8.9,0,0,1,2.9-1.2,9.3,9.3,0,0,1,4.7.1,9.8,9.8,0,0,1,5.5,4.5,14.2,14.2,0,0,1,1.4,4,12.2,12.2,0,0,1-.8,6,11.3,11.3,0,0,1-4,5.2l1.2,2.7a6.3,6.3,0,0,1,.4,2.7A2.7,2.7,0,0,1,111,92Zm-1.9-11.1a9.7,9.7,0,0,0,1.2-6.1,7.7,7.7,0,0,0-1-2.8q-2.5-4.4-8.1-3.3l.3.3a70.6,70.6,0,0,1,5.3,7.8C107.6,78.1,108.4,79.5,109.1,80.9Z"/><path class="2904cd92-bb0f-4251-aa05-93381ac8c65d" d="M131.9,78.4c-1.4,1.2-3.2.9-5.2-1a70.3,70.3,0,0,1-7-7.4l-.8-1a55.3,55.3,0,0,1-5.3-7.4,4.5,4.5,0,0,1-.9-2.6,2.6,2.6,0,0,1,1.2-2.3,2.5,2.5,0,0,1,2.8-.7,3.3,3.3,0,0,1,1.3-2,12.8,12.8,0,0,1,2.7-1.6,9.7,9.7,0,0,1,4.7-.6,9.5,9.5,0,0,1,6.1,3.6,10.6,10.6,0,0,1,2,3.7,10.8,10.8,0,0,1,.2,6,10.4,10.4,0,0,1-3.1,5.8l1.6,2.5A5,5,0,0,1,133,76,2.5,2.5,0,0,1,131.9,78.4Zm-3.6-10.7a9.4,9.4,0,0,0,.1-6.2,7.2,7.2,0,0,0-1.4-2.6c-2.1-2.6-5-3.3-8.5-1.9l.3.2a61.4,61.4,0,0,1,6.6,6.8Z"/><path class="2904cd92-bb0f-4251-aa05-93381ac8c65d" d="M151.8,59.7a3.8,3.8,0,0,1-1.3.9,1.9,1.9,0,0,1-1.5-.2,3.4,3.4,0,0,1-.9-2.2,20.5,20.5,0,0,0-.7-3.1,18.2,18.2,0,0,0-1.5-2.7c-3.3,2.1-7.3,2.1-12,.2a10.9,10.9,0,0,1-3.3-1.9c-1.4-1.3-2.3-2.3-2.5-3.1a2.4,2.4,0,0,1,.4-2.2,2.7,2.7,0,0,1,1.8-1,3.3,3.3,0,0,1,1.9.6q5.9,4.3,11.4,4.2c-2.4-2.6-3.8-4.2-4.4-4.7l-2.9-2.9a5.6,5.6,0,0,1-1.6-3,3,3,0,0,1,.7-2.6,2.6,2.6,0,0,1,2.4-1c1.7.2,4.1,1.6,7.2,4.3l1.9,1.7a28.1,28.1,0,0,1,3.3,4,21.9,21.9,0,0,1,2.7,5,10.3,10.3,0,0,1,.2,7.3A8.9,8.9,0,0,1,151.8,59.7Z"/><path class="2904cd92-bb0f-4251-aa05-93381ac8c65d" d="M12.4,117.6a9.2,9.2,0,0,1,4.7-5.6,9.1,9.1,0,0,1,7-.7,9.2,9.2,0,0,1,5,3.7l5.2-2.7h0l7.9-4.3c-.3-1.4-.7-2.8-1-4-.8-2.8-1.3-4.8-1.4-5.3a4.5,4.5,0,0,1-.2-.8c-.2-.7-.3-1,.1-1.5a2,2,0,0,1,1.3-.6l1.1-.2,5.3-1.2a.5.5,0,0,1,.7.6,1,1,0,0,1-.7.9l-5.3,1.3-1,.2c.1.1.1.3.2.5a54.3,54.3,0,0,0,1.4,5.4c.3,1.2.6,2.5,1,3.9l3.8-2c.4-.2.8-.1.9.3h0l11.8,37.4a1.1,1.1,0,0,1-.5,1.1h-.1L46,151.3a.7.7,0,0,1-.9-.1L20.6,120.6a.9.9,0,0,1,.2-1.1c.1-.1.2-.1.2-.2h0l6.6-3.5a7.5,7.5,0,0,0-4.2-3,7.6,7.6,0,0,0-5.9.5,7.7,7.7,0,0,0-3,10.4,7,7,0,0,0,3.3,3.3,8.1,8.1,0,0,0,4.6.9c.4-.1.7.2.6.7s-.4.8-.8.8a8.7,8.7,0,0,1-5.3-1,8.5,8.5,0,0,1-3.8-3.7A9.3,9.3,0,0,1,12.4,117.6ZM40.8,97.3c0-.1.1-.2,0-.1S40.7,97.3,40.8,97.3ZM26.9,125.7a7.7,7.7,0,0,0,2.1-4.1,8.3,8.3,0,0,0-.7-4.6l-5.8,3.2Zm19.3-8.8,3.5-1.9-2.5-8-3.1,1.6C44.8,111.2,45.5,114,46.2,116.9Zm-15.7,4.6a10.2,10.2,0,0,1-2.8,5.3l18.4,22.8L58.5,143l-8.4-26.6-3.5,1.9c.9,3.6,1.8,7.3,2.6,10.4a1.1,1.1,0,0,1-.6,1.1.6.6,0,0,1-.9-.4c-.7-3.1-1.6-6.7-2.6-10.4l-13.2,7.1c-.4.2-.8.1-.9-.3a1,1,0,0,1,.5-1.1l13.3-7.1c-.8-2.8-1.5-5.6-2.2-8.2l-7.9,4.3h0l-4.9,2.6A8.6,8.6,0,0,1,30.5,121.5Z"/></svg>