<svg id="7153e97d-e6fb-4cf2-a343-ef943466a0ae" data-name="Layer 1" xmlns="http://www.w3.org/2000/svg" xmlns:xlink="http://www.w3.org/1999/xlink" viewBox="0 0 206 206"><defs><style>.c957c5c0-649d-440d-8e88-80b5b68bda95{fill:none;}.\38 24be68c-9553-4710-86b2-b851cde04714{clip-path:url(#264114e4-bdbb-4d5c-a27a-8aacff73f9e4);}.\30 102ce78-83f4-4b59-a405-3ca017fcaeba{fill:url(#fac6981b-a573-474e-83ab-493b211033af);}.\34 59df9fb-43e1-4448-875e-acd0ec1891a6{fill:url(#06c3770e-e4b8-457e-ad1c-a7f26ddc31a2);}.\38 c6ebeed-b49b-49e9-8389-e50e092f80f6{fill:url(#f4b9f5b0-af5a-4d5b-9187-e30dea6648ac);}</style><clipPath id="264114e4-bdbb-4d5c-a27a-8aacff73f9e4"><rect class="c957c5c0-649d-440d-8e88-80b5b68bda95" width="206" height="206"/></clipPath><radialGradient id="fac6981b-a573-474e-83ab-493b211033af" cx="108" cy="103" r="289.11" gradientUnits="userSpaceOnUse"><stop offset="0" stop-color="#db1417"/><stop offset="0.25" stop-color="#cb1013"/><stop offset="0.72" stop-color="#a20607"/><stop offset="1" stop-color="#800"/></radialGradient><linearGradient id="06c3770e-e4b8-457e-ad1c-a7f26ddc31a2" x1="93.26" y1="116.82" x2="178.74" y2="116.82" gradientUnits="userSpaceOnUse"><stop offset="0.01" stop-color="#f3e0bf"/><stop offset="1" stop-color="#e5d285"/></linearGradient><linearGradient id="f4b9f5b0-af5a-4d5b-9187-e30dea6648ac" x1="-348.7" y1="210.4" x2="-348.7" y2="-0.01" gradientTransform="matrix(-1, 0, 0, 1, -355.2, 0)" gradientUnits="userSpaceOnUse"><stop offset="0" stop-color="#b9752a"/><stop offset="0.25" stop-color="#c98d33"/><stop offset="0.39" stop-color="#ad752a"/><stop offset="0.47" stop-color="#c3842b"/><stop offset="0.86" stop-color="#f9d876"/></linearGradient></defs><title>Icon Kirim 02</title><g class="824be68c-9553-4710-86b2-b851cde04714"><rect class="0102ce78-83f4-4b59-a405-3ca017fcaeba" x="-87" y="-92" width="390" height="390"/></g><path class="459df9fb-43e1-4448-875e-acd0ec1891a6" d="M104,114.4l3.5-.7V103h-6.4v3.4H104v2.8H99.7q-1.9.2-1.8-1.4v-7.6h8.6l.6-3.6H94.5l-1.2,3.6h3.1l-2.1,1.1v7.2a5.4,5.4,0,0,0,.8,3.1,3.5,3.5,0,0,0,2.5,1.3h5.2l1.3-1.3Zm7.2-1.6h9.2q2-.1,2.2-1.4V100.6q.1-3.7-1.4-4.1h-7.9l-.9,1.6V96.4l-3.5.7V111A2,2,0,0,0,111.2,112.8Zm1.2-12.8h6.7v9.3h-6.7Zm21.2,2.5-.2-.5a9.5,9.5,0,0,0-2.3-2.5,11.2,11.2,0,0,0-3.4-1.4l-.4,1V96.5h-3.5v16.4h3.5V101.5a10.1,10.1,0,0,1,3.6,2.1,7.7,7.7,0,0,1,2.3,2.5,4.8,4.8,0,0,1,.4,1.8q.2,1.5-1,1.6v3.4q2.7.1,3.6-.9a2.7,2.7,0,0,0,.8-2V96.5h-3.5Zm12.5,4H149v2.8h-4.3q-1.9.2-1.8-1.4v-7.6h8.6l.6-3.6H139.5l-1.2,3.6h3.1l-2.1,1.1v7.2a5.4,5.4,0,0,0,.8,3.1,3.5,3.5,0,0,0,2.5,1.3h5.2l1.3-1.3v2.9l3.5-.7V103h-6.4Zm24.6-10.1a26.5,26.5,0,0,1-3.4,6.7l-5.2-7-2.9,2.3,5.8,7.7a36.1,36.1,0,0,1-6.1,4.7l2.5,2.6a19.7,19.7,0,0,0,3.2-2.1,20.1,20.1,0,0,0,2.3-2.4l3.8,5.2,3-2.4-4.4-5.9a31.1,31.1,0,0,0,4.6-8.1Zm4.4.6v15.9h3.6V96.4ZM103,124.3h3.1l-1.7.8v12.4l3.6-.8v-6.5l4.2.8.7-3.6-4.4-.9-.4,1.6v-4h5.5l.8-3.5H103.6Zm17.1,11,1.8,2,3.4-3.4-1.8-2Zm8.8-9.9.5-3.6h-4.8l.3-1.2-3-1.1-.9,2.3h-4.5l-.3,3.5h3.4L115,136.5l3.2,1,4.7-11.2,4.2,11.3,3.2-1.1-4.1-11Zm37.5,0,.5-3.6h-4.8l.3-1.2-3-1.1-.9,2.3H154l-.3,3.5h3.4l-4.7,11.1,3.2,1,4.7-11.2,4.2,11.3,3.2-1.1-4.1-11Zm-19.8,8.3a4.5,4.5,0,0,1-2.7-.4,5.3,5.3,0,0,1-1.8-1.8,4.6,4.6,0,0,1-.8-2.8,13.1,13.1,0,0,1,1.4-4.3H147q1.6-.1,1.6,1.1h3.2q-.2-4-3.4-4.7h-9.1l-.5,1.4-.3,1.1-.2,1.1h2.9l-2.4,1.1a7.4,7.4,0,0,0-.7,3.4,7.9,7.9,0,0,0,1.2,4.8,7.5,7.5,0,0,0,2.9,2.9,7.7,7.7,0,0,0,3.5.7,6.9,6.9,0,0,0,3.1-.6,14.6,14.6,0,0,0,3-2.4l-2.1-2.7A4.6,4.6,0,0,1,146.6,133.8Zm22.5,3.4h3.6V120.8l-3.6.6Zm-11.4-1.8,1.8,2,3.4-3.4-1.8-2Z"/><g class="824be68c-9553-4710-86b2-b851cde04714"><path class="8c6ebeed-b49b-49e9-8389-e50e092f80f6" d="M-131.1,89.2a46.5,46.5,0,0,0,4.9,12.8,46.5,46.5,0,0,0,16.4,17.3l.5-1a24.9,24.9,0,0,1,2-3.1l2.4-2.8,2.6-2.5c-.8.9-1.5,1.9-2.2,2.8s-1.4,2-2,3a25.1,25.1,0,0,0-2,4.4h.1a31.2,31.2,0,0,0-1.1,8.3,31.1,31.1,0,0,0,8.8,21.7h0c-.6,2.2-.9,4.1-3.3,4.9s-4.3.3-6.4.8a3.7,3.7,0,0,0-2.4,1.7c-.9,1.8.3,4,.9,5.7s1.2,3.5,1.7,5.3a24.6,24.6,0,0,1,.6,3.7A76.7,76.7,0,0,1-114,193c-1.5,4.2-3.3,8.6-2.7,13a13.2,13.2,0,0,0,4.4,2.5,29.1,29.1,0,0,0,9.4.5c3.8-.3,6.9-2.2,6.8-2.4s.1-2.5-.7-3.6a27.8,27.8,0,0,1-2.6-5.2c-4.4,2.1-9.3,1.9-12.8-.9l-1.3-1.3c3.9,2.1,8.9,1.6,13.1-1.2-1.6-6.6-.8-13.7,3-19.2a15.9,15.9,0,0,1,3.8-4c2.9-2,6.4-2.8,9.8-3.5,5.5-1.2,11-2.5,16-4.9a35.2,35.2,0,0,0,4.3-2.4h0a71.3,71.3,0,0,0,6.2-4.2,29.1,29.1,0,0,0,7.5-9.2,22.7,22.7,0,0,0,2.2-13.8,24,24,0,0,0-6.4-13.7l-1.1-1-.8-.6a15.3,15.3,0,0,0-5.4-2.4h-5l-1.7.3a13.3,13.3,0,0,0-4.7,2.1l-.5.3-1.4,1.3a16.4,16.4,0,0,0-3.7,6.9,12.9,12.9,0,0,0,.1,7.8c1,2.5,3.7,3.8,6.3,4.4a11.6,11.6,0,0,1-3.8-1.3,6.7,6.7,0,0,1-2.8-2.9,13.5,13.5,0,0,1-.6-8.2,17.5,17.5,0,0,1,3.5-7.5l.7-.8a14.7,14.7,0,0,1,6.3-3.8A17.5,17.5,0,0,1-52,117.5l.2.2a20.6,20.6,0,0,1,4.3,4.6,29.6,29.6,0,0,1,3.5,10v.2a27.7,27.7,0,0,1,.3,6.4,29.1,29.1,0,0,1-14.8,22.8A87.4,87.4,0,0,0,3.5,176.7c-7.1-3.9-14.8-6.5-20.2-12.2a47,47,0,0,1-7.1-10.2c-2.8-6.4-3.3-15.1-1.7-21.9s8.1-10.1,15.1-8.3c3,.8,6.2,2.9,5.7,6-.3-2.4-5-4.7-7.5-4.6-4,.1-7.3,1.6-9.4,5.1a16.1,16.1,0,0,0-1.7,7c0,7.3,1.4,14.1,5.9,20.2,9.1,12.6,27.2,15.2,37.6,26.7a13.6,13.6,0,0,1,3.3,5.5c.9,3.4-.3,7-.5,10.6s1.1,7.8,4.6,8.6h.2c5,1.9,11.2,1.6,16.2.7,1.6-.3,3.3-.4,4.4-1.7s1.1-1.7.8-1.7a2.6,2.6,0,0,0-.5-1.5l-6.2-9.9c-5.4,2.8-11.5,2.3-15.1-1.6a10.1,10.1,0,0,1-1.1-1.5c3.9,2.8,9.5,2.8,14.4,0L19,157.3a16.7,16.7,0,0,1-1.8-5.6c-.8-3.8,1.2-6.6,2.2-10.3s.9-11.5.1-16.3a20.8,20.8,0,0,0-.7-3.4c0-.1,0-.2,0-.3a29.4,29.4,0,0,1,1.6,2.9c2.1,5.7,2.9,11.5,1.5,17.5-.7,2.9-2,5.6-2.3,8.6a9,9,0,0,0,1.1,5,75.2,75.2,0,0,0,4.7,6.9l2.7,3.9,4.2-2.1a104.7,104.7,0,0,0,17.6-12.5c5-4.4,10-9.9,13.4-16l-.2,1.1a27.1,27.1,0,0,1-4.5,9.2c-.6.8-3.4,5-4.6,4.8l19.7,2.4a17,17,0,0,1-4.5,14c-1.7,1.7-3.7,3.1-5.2,5.1s-2.2,4.8-.8,6.8a12.3,12.3,0,0,0,3.4,3.4c2.2,1.5,6,2.5,8.6,1.4l.4-.2.3-.3a5.1,5.1,0,0,0,.9-1.7l1.9-6.7a11,11,0,0,1-7.7-4.4,10.1,10.1,0,0,1-.9-1.6,12.1,12.1,0,0,0,9.5,3.1q3.1-11.3,5.8-22.7a4.9,4.9,0,0,0-2.9-6.7c-5.8-3.4-11.7-6.7-17.6-10.1,5.1-11.5,7.4-20.3,8.4-26.6l1-3.8a17.5,17.5,0,0,1,1.2-3.2,10.6,10.6,0,0,1,1.8-2.9A11.7,11.7,0,0,1,79.6,94a13.5,13.5,0,0,1-3,.8,7.5,7.5,0,0,1-2.7-.2c-5.5-1.7-10.1-6.4-9.6-12a5.9,5.9,0,0,1,2.3-4.6c1.5-1,3.8-.7,4.6.9a2.5,2.5,0,0,1-1.5,3.2,1.6,1.6,0,0,1-1-.1,1.6,1.6,0,0,0,1,.1,1.5,1.5,0,0,0,.9-1.8,2.1,2.1,0,0,0-3.1-.7A4,4,0,0,0,66,83c-.2,4.6,4.1,8.6,8.7,9.2s9.2-1.4,12.9-4.1,7-6.1,10.6-9c-3.3.4-6.1-3.7-4.6-6.6a5.3,5.3,0,1,1-1.6-10.4,5.2,5.2,0,0,0,4.3,9.3c-1.2,1.1-.3,3,.9,4.1a7,7,0,0,0,5.5,1.8c3.8-.4,6.9-1.9,10.2-3.6s6.2-5.6,6-9.4a2.1,2.1,0,0,0-.5-1.5c-2.1-1.7-2.6.9-3.7,2.1a24.9,24.9,0,0,1-7.3,5.2c-3,1.4-6.6,1.9-9.4.3a5.9,5.9,0,0,0,4.1.2,2.8,2.8,0,0,0,1.7-3.4c-.5-1.3-2.8-1.5-3.3-.1s-1.4-2.8.1-3.2,3,.8,4.4,1.7,3.3,1.6,4.4.4.5-2.8.3-4.2.2-3.3,1.7-3.2.3.6.3,1a1.9,1.9,0,0,0,2.4,1.9,3.1,3.1,0,0,0,2.2-2.9c-.1-2.2-2.1-4.5-4.3-4.6s-5.2,1.3-7.2,2.3-4.4,2.5-6.8,3.7-5.3,4-3.7,6.2c-2-2,.4-5.3,2.7-6.9a46.3,46.3,0,0,1,17-7.2c-3.3-2.7-8.1-1.2-12.3-.9A19.6,19.6,0,0,1,87.6,46l1.3,3.4-4.1-5L87,42.8l-3.2.5,2.6-1.8-3.3,1.4,2.5-2.8-3,2.5,2.1-3.5-3.2,3.1,2-4.3-3.6,4.4,1.8-4.4-2.9,4.5c1.3-8.1,15.5-9.3,15.9-17.5,4.2,6.8,1.3,16.9-5.8,20.5a15.3,15.3,0,0,0,9.5-11.9,15.3,15.3,0,0,0-5.8-14.1c1.3,2.8-.1,6-2.4,8.2A24.9,24.9,0,0,0,91.5,23a16.1,16.1,0,0,0-.8-9.2,16.7,16.7,0,0,0-5.2-6.4A21.9,21.9,0,0,0,75.5,3a2.6,2.6,0,0,0-1.5.1,1,1,0,0,0-.6,1.3,1.4,1.4,0,0,0,.7.5c2.6,1.2,5.5,1.8,7.7,3.5a10.8,10.8,0,0,1,3.7,6.4,15.6,15.6,0,0,1-2.2,11.4,21.8,21.8,0,0,1-6.2,6.2c-3.7,2.5-8.3,3.9-11.1,7.3a9.3,9.3,0,0,0-1.5,4.1l-1.6.5a40.4,40.4,0,0,0-11.9,7.2,7.2,7.2,0,0,0-3.8-3.6c-3.1-1.1-6.3.6-8.9,1.7s-4.3,1.6-6.4.6A5,5,0,0,1,29.2,46c-.2-3.5,2.8-5.5,5.4-7,8.5-5.3,20.7-16.8,12.8-28.8-1.9-3.1-2.7-.9-2.9.2s.2,4.3-.2,6.1a18,18,0,0,1-2.6,5.3c-2.6,3.5-6.8,5.4-10.8,7.3-7,3.5-13.7,7.8-18,14.2S9.8,56.3,14.8,62.2a26.6,26.6,0,0,0,12.5,8.2c1-1,2.1-2.1,3.3-3.2a24.9,24.9,0,0,1,5.2-3.2l2.7-1.2a17.2,17.2,0,0,1,2.9-.8,51.7,51.7,0,0,1,5.8-.7,51.4,51.4,0,0,0-5.6,1.5A16.1,16.1,0,0,0,39.1,64l-2.4,1.5a22.7,22.7,0,0,0-4.2,3.6l-1.6,2h.1l-1,1.2h-.1L29,73.9C27,77.4,25.9,81.4,24,85s-5.2,6.9-9.2,7.2c7.8,3,16.6,4.3,24.6,2S54.8,85.8,57,77.7c-5.7,11.8-20.8,18-33.2,13.7,5.3-2.7,8.2-8.3,11.6-13.1s8.9-9.3,14.6-8l-7.3,2.3,7.4-1-8.5,3.8,9.1-2.2-8.9,4.6,9.6-3.6-8.6,5.5L52,75.6l-7.6,5.9,8.7-5.1-7.3,6.5,8.5-5.5-6.2,7.2,7.5-6.5-3.8,5.4,5.8-7c.5,8.3-4.9,17.9-12.7,20.4l-2.2.5A53.6,53.6,0,0,1,18,96.3a37.8,37.8,0,0,1-8.4-4.1h0a44.6,44.6,0,0,0,7.1-3.3,12.9,12.9,0,0,0,4.9-5.3,69.9,69.9,0,0,0,2.6-6.8,10.6,10.6,0,0,1,2.4-3.4l-1-.3a86.3,86.3,0,0,0-18-6.8C-1.8,63.9-8.7,63.9-16,68.8A38.3,38.3,0,0,0-26,78.1c-3.2,4.3-6.6,8.5-9.6,12.9s-4,6.3-7.5,7.7a15,15,0,0,1-6.1.7c-13.1-.5-27.4-4.8-40.2-.2-8.5,3-12.9,8.8-12.7,8.9a33.4,33.4,0,0,1-14-12.2c-3.9-5.8-6.2-12.8-5.6-19.3a18.1,18.1,0,0,1,3.3-8.9,22.3,22.3,0,0,1,7.7-6.4c6.6-3.4,14.3-5.4,22.1-7s15.9-3,23.8-5.7a45.9,45.9,0,0,0,11.3-5.4c6.6-4.6,11.3-13.3,8.5-21.4-1.9-5.5-7.9-8.5-13.6-9.9a32,32,0,0,1-6.2-1.9,7.9,7.9,0,0,1-4.3-4.6c-.6-2.1.3-4.7,2.3-5.5-3.7.6-5.9,4.5-6.7,8.2v.9a6.4,6.4,0,0,0,1.4,2.8A10.5,10.5,0,0,0-66,15.1c2.4.4,4.9.3,7.5.6a15.4,15.4,0,0,1,3.7.8,6.9,6.9,0,0,1,3.1,2.1,6.7,6.7,0,0,0-3.2-1.9,15.1,15.1,0,0,0-3.7-.6c-2.5-.1-5,.1-7.5-.1a11.5,11.5,0,0,1-7.1-3.1l-.8-1A21.8,21.8,0,0,0-72.4,22a13.1,13.1,0,0,0,5.2.2,32.1,32.1,0,0,0,5.4-1.6c1.8-.5,4-.7,5.6.4a4.7,4.7,0,0,0-2.7-.6,8.5,8.5,0,0,0-2.7.6,32.5,32.5,0,0,1-5.4,2,15.4,15.4,0,0,1-4.6.4,16.8,16.8,0,0,0,2,3,15.1,15.1,0,0,0,4.3,3.4,6,6,0,0,0,1.8-1.4l1.8-1.8a6.4,6.4,0,0,1,2.3-1.3,7.5,7.5,0,0,1,5,0,7.3,7.3,0,0,0-4.9.4c-1.6.6-2.5,2-3.5,3.3a6.5,6.5,0,0,1-1.4,1.3,13.5,13.5,0,0,0,12-.2c1.5-.9,2.9-2.1,4.6-2.6s.9,1.9.5,3.7a11.3,11.3,0,0,1-2.3,4.8A19.4,19.4,0,0,1-55,40.8a42.6,42.6,0,0,1-10.9,4.1c-7.6,1.9-15.5,2.6-23.6,3.6s-16.4,2.3-24.4,5.6a30.8,30.8,0,0,0-11.3,8,27.5,27.5,0,0,0-6.2,13A36,36,0,0,0-131.1,89.2Zm78.9-64.1a2.9,2.9,0,0,1,2.3-.2l-1.4.2h1.1l-1.2.5,1.2-.3-1.2.7,1.2-.4-1,.7,1.1-.5-.9.8,1.1-.7-.8.9,1-.8-.5,1,.9-1.1a2.8,2.8,0,0,1-1.2,1.9,1.6,1.6,0,0,1-2.2-.5A1.6,1.6,0,0,1-52.3,25.1Zm2.9-1.8-.8-1.2.4,1-1-1,.7,1-1.1-.9.8,1-1.1-.7.9.9-1.1-.6,1.1.8-1.2-.4,1.2.7h-1.1l1.4.4a3,3,0,0,1-2.3-.5,1.6,1.6,0,0,1-.4-2.2,1.6,1.6,0,0,1,2.2-.2A3.1,3.1,0,0,1-49.4,23.3Zm0,.8a.9.9,0,0,1,1.3-.2,1,1,0,0,1,.2,1.3.9.9,0,0,1-1.3.2A1,1,0,0,1-49.4,24Zm1.7-.3.9-1.1-.8.7.5-1.2-.7,1,.4-1.3-.6,1.1.2-1.2-.4,1.2V21.6l-.3,1.3V21.7l-.2,1.3-.3-1.1v1.4a3,3,0,0,1-.4-2.3,1.5,1.5,0,0,1,2-1.1,1.7,1.7,0,0,1,1.1,2A2.8,2.8,0,0,1-47.7,23.7ZM110,55.6a3.2,3.2,0,0,1,4.1,1.6,3,3,0,0,1,.2.7,3.2,3.2,0,0,0-3.7-1,3.1,3.1,0,0,0-1.9,3.3l-.4-.7A3.1,3.1,0,0,1,110,55.6ZM98,61.6c2.1-1.2,4.5-.9,5.5.5a2.2,2.2,0,0,1,.3.7,4.6,4.6,0,0,0-4.9.1c-1.7,1-2.6,2.6-2.3,4l-.6-.6C95.1,64.8,96,62.7,98,61.6ZM72.8,174.5a20,20,0,0,0,4.2,1.4L74.8,182l.9-4.6-1.9,4.2.8-5.1-2.5,4.6,1.4-5-3.2,4.3,1.7-5.1L69,179.5l1.7-5.1-3.2,4,2-5-4.2,3.4,3-4.7L64.3,175l4.3-4.6A10.2,10.2,0,0,0,72.8,174.5Zm1.1-11.7a1.6,1.6,0,0,1,1.3,0c1,.4,1,1.7.9,2.5a2.3,2.3,0,0,0,.7,2.5,4.7,4.7,0,0,0,1.7.9c.5.1,1.2,0,1.6.3l-.7.2H75.9c-1.7-.5-4-3.1-3.3-5.1A2.1,2.1,0,0,1,73.9,162.8ZM26.9,206.1l1.3-8.2a13.5,13.5,0,0,0,7.6,1.3,26.5,26.5,0,0,0,5.7-1.6l2.1,8.4-2.4-5.7,1.1,6-2.9-6.2L40,207l-2.3-6.5-.3,7.1-2-6.8v6.7l-1.9-6.9-.5,6.8-1.5-6.9-2,6.9-.2-7.4ZM26.6,185a2,2,0,0,1,1.3-.8c1.3-.1,2.1,1.2,2.5,2.2s.9,2,2.2,2.3a5.8,5.8,0,0,0,2.4,0c.6-.1,1.3-.7,1.9-.6l-.7.7-1.2.8a9.6,9.6,0,0,1-2,.9l-.6.2c-2.2.5-6.2-.9-6.6-3.5A2.6,2.6,0,0,1,26.6,185Zm-70.8-80.2a2.5,2.5,0,0,0-3.3.1,2.4,2.4,0,0,0-.6,3.1l-.2-.2a2.3,2.3,0,0,1,.4-3.3,2.5,2.5,0,0,1,3.4.1Zm1.6,4.3-.7-1.9.3,1.5-1-1.6.7,1.6-1.2-1.5.9,1.5-1.3-1.2,1,1.4-1.4-1,1.3,1.4-1.5-.9,1.5,1.2-1.5-.5,1.8.9a4.2,4.2,0,0,1-3-1.3,2.2,2.2,0,0,1,.2-3.1,2.3,2.3,0,0,1,3.2.2A4,4,0,0,1-42.6,109.1Zm.8,3.1a1.4,1.4,0,0,1-1.8-.8,1.3,1.3,0,0,1,.8-1.7,1.4,1.4,0,0,1,1.8.8A1.3,1.3,0,0,1-41.8,112.2Zm1.9,3.5a2.3,2.3,0,0,1-2.3,2.2,2.2,2.2,0,0,1-2.2-2.3,4.1,4.1,0,0,1,1.5-2.9l-.8,1.9.9-1.3-.3,1.8.6-1.6v1.9l.4-1.7v1.7l.2-1.7.3,1.7v-1.9l.5,1.6-.2-1.9.8,1.3-.7-1.9A4,4,0,0,1-40,115.7Zm3.1,17.6a4.5,4.5,0,0,1,5,4.4,9.9,9.9,0,0,1-2.4,6.8l1.1-4.4-1.4,3.2.2-4.2-.9,3.8-.2-4.2-.4,3.9-.6-3.8v3.9l-1-3.7.4,4.2-1.5-3.5.9,4-1.9-2.7,1.8,3.9a8.7,8.7,0,0,1-3.4-6A5.2,5.2,0,0,1-36.8,133.3ZM-41.7,157l2.3.9a4.8,4.8,0,0,1-3.8-1.1,2.8,2.8,0,0,1-.1-3.9,2.7,2.7,0,0,1,3.9-.2,5,5,0,0,1,1.4,3.7l-1.1-2.2.5,1.9-1.4-1.8,1,1.9-1.6-1.6,1.2,1.7-1.7-1.3,1.4,1.6-1.8-1.1,1.7,1.5-1.9-.8,1.9,1.3Zm7.5-3.1-1.2,1.9.7-2.1-1,2,.4-2.2-.9,2.3.2-2.2-.6,2.3-.3-1.9v2.5a5.2,5.2,0,0,1-.2-4,2.9,2.9,0,0,1,3.6-1.7,2.7,2.7,0,0,1,1.4,3.6,5.5,5.5,0,0,1-3,2.8l1.7-1.9-1.5,1.2,1.2-2.1-1.4,1.7Zm1.2-4.6a3,3,0,0,0-3.8,1.3v-.3a3,3,0,0,1,3.9-1.6,2.9,2.9,0,0,1,1.7,3.7v.3A2.9,2.9,0,0,0-33,149.3Zm-2.8,10.5a1.6,1.6,0,0,1-2.3.2,1.7,1.7,0,0,1-.1-2.4,1.6,1.6,0,0,1,2.3-.2A1.7,1.7,0,0,1-35.8,159.8ZM-20.4,96l-1.2-.4-1.6-.9a12.7,12.7,0,0,1-2.3-1.7l-.5-.6c-1.9-2.3-2.7-7.8.2-9.8A3.5,3.5,0,0,1-23,82a2.7,2.7,0,0,1,1.7,1.1c.9,1.5-.2,3.2-1.1,4.2s-1.8,2.2-1.3,3.9a7.7,7.7,0,0,0,1.5,2.8C-21.8,94.7-20.7,95.2-20.4,96Zm3-2.6-.3-.4c-1.3-2-.5-4.9,1.7-6.5s5.2-1.2,6.6.8l.2.4a4.7,4.7,0,0,0-6.3-.5A4.9,4.9,0,0,0-17.4,93.4Zm4.2,3,3.2,2.2a7.7,7.7,0,0,1-5.4-3.1,4.5,4.5,0,0,1,1.3-6.2A4.4,4.4,0,0,1-8,90.4a7.9,7.9,0,0,1,.8,6.3l-.8-3.8v3.1l-1.5-3.3.8,3.3-1.9-3.1,1.2,3.2-2.1-2.6,1.6,3-2.4-2.4,2.1,3-2.7-2,2.4,2.7Zm11.1-3-2.2,3.2,1.1-3.3L-5,96.6l.3-3.1-1.1,3.9a8.3,8.3,0,0,1,1.3-6.3,4.6,4.6,0,0,1,6.2-1.3,4.3,4.3,0,0,1,.8,6.1,8.7,8.7,0,0,1-5.7,3.3L.3,96.9l-2.9,1.3L.1,95.5l-2.8,2.1,2.3-3.1L-3,96.9l1.8-3-2.3,2.7ZM-8.4,75l1,2.7a5.9,5.9,0,0,1-1.9-4.1,3.2,3.2,0,0,1,3.1-3.2,3.1,3.1,0,0,1,3,3.2,6,6,0,0,1-1.9,4.2l1-2.7-1.1,1.9.4-2.6-.8,2.3V73.9L-6,76.3l-.2-2.5-.2,2.5-.5-2.4v2.7l-.8-2.3.4,2.6Zm3.9,5.5a1.9,1.9,0,0,1-1.8,1.9,1.9,1.9,0,0,1-1.8-1.9,1.9,1.9,0,0,1,1.8-1.9A1.9,1.9,0,0,1-4.4,80.5ZM-5.1,103a2.6,2.6,0,0,1-3.7-.6,2.7,2.7,0,0,1,.8-3.7,2.6,2.6,0,0,1,3.7.6A2.7,2.7,0,0,1-5.1,103Zm2.6,6.6a4.7,4.7,0,0,1-4.3,4.8,4.2,4.2,0,0,1-4.5-4.1,8.5,8.5,0,0,1,2.6-5.9l-1.3,3.8,1.5-2.8-.5,3.7,1-3.3v3.7l.6-3.4.4,3.4.2-3.5.8,3.3-.2-3.7,1.2,3.1-.7-3.6,1.7,2.5-1.5-3.6A7.6,7.6,0,0,1-2.5,109.7ZM-13.1,74.4a3.3,3.3,0,0,0-3.8,2.3,3.5,3.5,0,0,0,1.4,4.3h-.3a3.4,3.4,0,0,1-1.7-4.4,3.3,3.3,0,0,1,4.1-2.2Zm1.7,1.1a5.7,5.7,0,0,1,3.1,3.3l-2.1-1.9L-9,78.6l-2.2-1.3,1.8,1.6-2.4-1,2,1.3-2.3-.7,2.2,1.1-2.4-.4,2.5.9h-2.4l2.5.6-2.1.4h2.8a5.5,5.5,0,0,1-4.4.4,3.2,3.2,0,0,1-1.8-4.1A3.1,3.1,0,0,1-11.3,75.4Zm8.5-4.4c0,.1,0,.2,0,.4a3.3,3.3,0,0,0-3.4-2.9,3.4,3.4,0,0,0-3.4,2.9c0-.1,0-.2,0-.4a3.4,3.4,0,0,1,3.4-3.2A3.3,3.3,0,0,1-2.8,71.1Zm5.4,6A3.3,3.3,0,0,1,.7,81.2a5.5,5.5,0,0,1-4.4-.3H-.9L-3,80.5l2.5-.6H-2.9l2.5-.9-2.4.4,2.2-1.1-2.3.7,2-1.4-2.4,1,1.8-1.6-2.3,1.3,1.3-1.8-2.1,1.9a5.9,5.9,0,0,1,3.1-3.3A3,3,0,0,1,2.6,77.1ZM3,80.7H2.7a3.5,3.5,0,0,0,1.4-4.3A3.3,3.3,0,0,0,.3,74.3H.6a3.2,3.2,0,0,1,4.1,2.1A3.5,3.5,0,0,1,3,80.7ZM5,93.4l-.3.4a4.6,4.6,0,0,0-1.5-6,4.9,4.9,0,0,0-6.3.6l.3-.4a4.8,4.8,0,0,1,6.6-1A4.6,4.6,0,0,1,5,93.4Zm.9,12.4A4.6,4.6,0,0,1,0,108,7.6,7.6,0,0,1-4,103.2l2.7,2.8-1.7-2.5,3,2-2.4-2.3L1,104.7l-2.7-2,3.2,1.1-3-1.7,3.4.7-3.4-1.4,3.4.3-3.5-1,3.1-.4-4-.2a8.2,8.2,0,0,1,6.4-.1A4.2,4.2,0,0,1,5.9,105.8ZM-.8,151.3-2,148.5a5.9,5.9,0,0,1,2.2,4.3,3.6,3.6,0,0,1-3.3,3.7,3.2,3.2,0,0,1-3.5-3.2,6.6,6.6,0,0,1,2-4.6l-1,2.9,1.2-2.1-.3,2.9.8-2.6v2.9l.5-2.6.3,2.6L-3,150l.6,2.6-.2-2.9.9,2.4-.5-2.8Zm-3.1-7a2,2,0,0,1,2.8.5,2.1,2.1,0,0,1-.6,2.8,2,2,0,0,1-2.8-.5A2.1,2.1,0,0,1-3.9,144.3Zm2.7-5.9a3.5,3.5,0,0,1,4.8-1,3.3,3.3,0,0,1,.6,4.7,6.7,6.7,0,0,1-4.4,2.5l2.6-1.8-2.2,1,2-2.1L0,143.4l1.8-2.4-2,1.9,1.4-2.3-1.8,2.1,1.1-2.5-1.7,2.4.8-2.5-1.4,2.6.2-2.4-.8,3A6.4,6.4,0,0,1-1.3,138.4Zm5.9-2.5a3.7,3.7,0,0,0-4.9.5L0,136a3.7,3.7,0,0,1,5.1-.8,3.5,3.5,0,0,1,1,5l-.2.3A3.5,3.5,0,0,0,4.6,135.9Zm2.5-35c2.2,1,3,3.8,1.8,6.3s-4,3.7-6.2,2.7l-.4-.2a5,5,0,0,0,5.8-2.8,4.6,4.6,0,0,0-1.4-6.1ZM8.3,83.3l-1-.2c.5-.5,1.5-.4,2.1-.7a6.5,6.5,0,0,0,2.2-1.5c1-1.1.9-2.1.5-3.5s-.5-2.9.8-3.6a2.3,2.3,0,0,1,1.7-.2,2.9,2.9,0,0,1,1.9,1.4c1.4,2.6-1.4,6.5-3.6,7.4l-.6.2a10.7,10.7,0,0,1-2.4.4ZM15.5,127a13.9,13.9,0,0,1-2,9.1,6.8,6.8,0,0,1-1.5,2c-.9.6-.7-.7-.5-1.1a14.1,14.1,0,0,1,.8-1.3c2.1-3.5,2.6-9.6-.8-12.9-1.7-1.7-4.3-2.3-6.2-.9.4-.3,1.3.9,1.5,1.2a2.4,2.4,0,0,1,0,2.3c-1.1,2.1-4.5,2.4-6.3.7a5.2,5.2,0,0,1-1.1-5.6,5.9,5.9,0,0,1,4.2-3.1,9.8,9.8,0,0,1,5.2.1C12.7,118.8,15,123.1,15.5,127ZM7.4,145.9h.3a3.5,3.5,0,0,1,1.4,4.8,3.8,3.8,0,0,1-4.8,2l-.3-.2a3.9,3.9,0,0,0,4.5-2.2A3.5,3.5,0,0,0,7.4,145.9Zm7.1,22.7a1.3,1.3,0,0,1,1.9.1,1.4,1.4,0,0,1-.1,1.9,1.3,1.3,0,0,1-1.9-.1A1.4,1.4,0,0,1,14.5,168.6Zm9-65.4a7.5,7.5,0,0,1-6,4.1,7.6,7.6,0,0,1-5.7-1.9,8.3,8.3,0,0,0,3.1.3,7,7,0,0,0,4.6-2.1,7.2,7.2,0,0,0-5-1.2,8.1,8.1,0,0,0-2.9.9,7.4,7.4,0,0,1,5.2-2.9A7.8,7.8,0,0,1,23.5,103.1ZM43,128.6a9.3,9.3,0,0,0-.5-3.4,7.8,7.8,0,0,0-3.5-4.5,8.1,8.1,0,0,0,0,5.7,9.1,9.1,0,0,0,1.7,3,8.3,8.3,0,0,1-4.5-4.9,8.7,8.7,0,0,1,1.3-8.1,8.4,8.4,0,0,1,6,5.4A8.6,8.6,0,0,1,43,128.6ZM31.1,140.3l-.4-.4a5.8,5.8,0,0,1,0-8,5.3,5.3,0,0,1,7.7-.6l.4.4a5.4,5.4,0,0,0-7.3,1A5.9,5.9,0,0,0,31.1,140.3Zm5.7,2.4,4.3,1.8a9.3,9.3,0,0,1-7.1-2.3,5.5,5.5,0,0,1-.4-7.5,5,5,0,0,1,7.3-.2,10.1,10.1,0,0,1,2.8,7.1l-2.1-4.3,1,3.6-2.7-3.5,1.9,3.6-3.2-3.2,2.4,3.4-3.2-2.6,2.7,3.1-3.5-2.2,3.3,3L36.7,141l3.6,2.5Zm22.6-33.1-.8.9L57,111.6a12.7,12.7,0,0,1-2.5,1.3l-.8.2c-2.8.8-8.2-.9-8.8-4.3a3.5,3.5,0,0,1,.8-2.7,2.7,2.7,0,0,1,1.7-1.1c1.7-.2,2.8,1.5,3.3,2.8s1.2,2.6,3,2.9a7.7,7.7,0,0,0,3.1-.2C57.7,110.3,58.6,109.6,59.4,109.6ZM50.3,52.1a10.5,10.5,0,0,0-2.5,3.2,21.7,21.7,0,0,0-1.2,4.5L35.1,62,45,59.2l-9.2.5,8.9-2.3L36.6,57l8.9-1.2L38,54.2l8.2.3-6-2.4,6.5.8-4.5-2.5,5.9,1.3L45.5,49Zm28,4.5a9,9,0,0,1,.2.9c-1.9-5.2-8.6-8.1-15.4-6.5S51.9,58.3,52.7,63.8l-.3-.9c-1.5-5.9,3.1-12,10.2-13.8S76.9,50.8,78.4,56.7Zm-3-.8a2.1,2.1,0,0,0-1,1,2.4,2.4,0,0,0-.3.8,2.2,2.2,0,0,1,1.8-2.8A2.2,2.2,0,0,1,74.6,58l.5-.7A2.1,2.1,0,0,0,75.4,55.9Zm.7,7.1a2.4,2.4,0,0,1-3.4.2,2.5,2.5,0,0,1-.4-3.5,2.4,2.4,0,0,1,3.4-.2A2.5,2.5,0,0,1,76.1,63Zm-4.4-5.7a3,3,0,0,1,1.2-4.5,3,3,0,0,1-.4,4.6,3.3,3.3,0,0,0,.4-1.1,2.8,2.8,0,0,0-.3-2,2.8,2.8,0,0,0-.9,1.8A3.3,3.3,0,0,0,71.6,57.2Zm5.6,6.5a3.3,3.3,0,0,0,1-2.2,5.1,5.1,0,0,1-1.6,4.8,4.8,4.8,0,1,1-6.6-7.1,5.2,5.2,0,0,1,3.3-1.4,3.3,3.3,0,0,0-1.1.6,3.6,3.6,0,0,0,4.9,5.3ZM68,56.1a4.3,4.3,0,0,0,.3,1.5,3.9,3.9,0,0,1,.3-6.1,3.9,3.9,0,0,1,.8,6.1,4.3,4.3,0,0,0,.2-1.6,3.7,3.7,0,0,0-.9-2.4A3.7,3.7,0,0,0,68,56.1ZM78.3,61a5.6,5.6,0,0,1,.4,5,9.7,9.7,0,0,1-3.4,4,8.3,8.3,0,0,1-3.7,1.7c-2.8.4-5.5-1.3-7.9-2.7a78,78,0,0,0-9.7-4.9l.9-.4c1.4-.7,2.7-1.7,4.1-2.5a28.2,28.2,0,0,1,5.7-2.8,7.8,7.8,0,0,1,4.7-.2,3.6,3.6,0,0,0-1.4.3l-1.4.5L64,60.5a54.4,54.4,0,0,1-5.9,3.2c3,.8,5.2,2.9,7.9,4.4a11.9,11.9,0,0,0,4.5,1.5,7.3,7.3,0,0,0,4.5-.9,8.4,8.4,0,0,0,3.5-4.3A5.2,5.2,0,0,0,78.3,61ZM64.2,56.3a4.3,4.3,0,0,0,.8,1.4,3.9,3.9,0,0,1-1.5-5.9A3.9,3.9,0,0,1,66,57.3a4.3,4.3,0,0,0-.2-1.6,3.7,3.7,0,0,0-1.6-2.1A3.7,3.7,0,0,0,64.2,56.3Zm-7.6,1.5a3.5,3.5,0,0,0,.9,2.3,4.1,4.1,0,0,0,1.1,1,3.7,3.7,0,0,1-3.3-4.7,3.7,3.7,0,0,1,4,4.1,4.1,4.1,0,0,0-.7-1.3A3.5,3.5,0,0,0,56.6,57.8Zm2.2-4.1a3.9,3.9,0,0,1,3.7,4.8,4.4,4.4,0,0,0-.6-1.5,3.7,3.7,0,0,0-2-1.6,3.7,3.7,0,0,0,.6,2.5,4.3,4.3,0,0,0,1.1,1.2,3.9,3.9,0,0,1-2.8-5.4ZM53.4,60a2.5,2.5,0,0,1,3.4,1.9l-.7-.7a2.4,2.4,0,0,0-1.6-.4,2.4,2.4,0,0,0,1,1.3l.9.4a2.5,2.5,0,0,1-3-2.5ZM78.6,37.1a11.2,11.2,0,0,0-2.4,2.3,12.8,12.8,0,0,0-.8,3,26.8,26.8,0,0,0-5-.1,19.8,19.8,0,0,0-4.2,1.1l1.6-2.9L69.7,38c.1-.1-.8,3-.8,3l2.6-3.7-1.5,4.1,3.3-4.7-1.8,4.7L75,36.6,73.4,41l3.2-4.3-1.9,4.4a25.3,25.3,0,0,1,1.5-2.2Zm5.3,11.2a2.7,2.7,0,0,0-3.4.1,2.8,2.8,0,0,0-.6,3.4l-.5-.5a2.9,2.9,0,0,1,.2-4,2.7,2.7,0,0,1,3.9.3Zm-2,10.5a1.1,1.1,0,1,1-.1,1.5A1.1,1.1,0,0,1,81.9,58.8Zm10.8-4a2.7,2.7,0,0,1,3.8-.7l.5.5a2.7,2.7,0,0,0-3.2,1,2.9,2.9,0,0,0,.2,3.5l-.6-.3A2.9,2.9,0,0,1,92.7,54.8Zm-4.8-1.4a2.7,2.7,0,0,1,3.8-1l.5.4a2.7,2.7,0,0,0-3.1,1.3,2.9,2.9,0,0,0,.5,3.4l-.6-.3A2.9,2.9,0,0,1,87.9,53.4Zm-3.2-1.3a2.9,2.9,0,0,0,.5,3.4l-.6-.3a2.9,2.9,0,0,1-1.1-3.9,2.7,2.7,0,0,1,3.8-1l.5.4A2.7,2.7,0,0,0,84.7,52.1Zm0,7.2a.7.7,0,1,1-.1,1A.7.7,0,0,1,84.7,59.3ZM82.6,80.4a6.7,6.7,0,0,1,5.2.1l-3.2.2,2.5.3-2.9.8,2.8-.2-2.8,1.1,2.7-.6-2.4,1.3,2.6-.9-2.2,1.6,2.7-1.3-2,1.9,2.5-1.6-1.4,2L88.9,83a6.2,6.2,0,0,1-3.2,3.9,3.7,3.7,0,0,1-4.8-1.8A3.4,3.4,0,0,1,82.6,80.4ZM80.5,60.3a1.3,1.3,0,1,1,.1-1.9A1.3,1.3,0,0,1,80.5,60.3Zm-5.5,23A6.7,6.7,0,0,1,79.3,86l-2.9-1.5,2,1.5-2.9-.8,2.5,1.2-3-.4,2.6.9H75l2.7.6-2.7.3,3,.3-2.6.6h3l-2.2,1.1,3-.8a6.2,6.2,0,0,1-4.8,1.7,3.7,3.7,0,0,1-3.3-4A3.4,3.4,0,0,1,74.9,83.3Zm-11.5-8,1-2.8-2,2.2,1-2.8-2.2,2.5,1.3-3.1-2.8,2.4,2-2.9-3.2,2.4,2.2-2.9-3.4,2.2,2.4-3-3.4,2.1,2.3-2.8-3.8,2,2.4-2.6-4,1.6,2.6-2.6-3.7,1.6,2.2-2.3-4.1,1,2.7-2-4.9.5,4.4-1.7c.1-.1.9.5,1,.5l2.4,1.3c2,1.1,4,2.1,5.8,3.3A22.3,22.3,0,0,0,69,72.9a8,8,0,0,0,5.5-1.2,12.4,12.4,0,0,0,4.6-4c.3-.4.9-1.1.9-1.6v3.1L79,68.2v2.3l-.9-1.2v2L77.6,70l-.2,2.1-.6-1.2-.3,2-.6-1.3-.4,2L75,72.1l-.5,2.2-.8-1.6L73,75.1l-.4-1.7-1,2.6c.1-.1-.1-2.6-.1-2.6l-1,2.8-.3-2.3-.6,2.5L69.2,74l-.8,2.2V73.7l-1.2,2.5.3-2.8-1.5,2.7.6-3.1-1.8,3,.6-3.1ZM59.6,91.9a6.1,6.1,0,0,1,3.3,3.3,7,7,0,0,1,.3,4.9,6.1,6.1,0,0,1-3.3-3.3A7,7,0,0,1,59.6,91.9Zm7.3,14.3-1.7-1.5,1.1,1.4-1.8-1.1,1.5,1.3-2-.9,1.6,1.1-1.9-.6,1.8.9-1.9-.4,2,.8H63.6l2.1.5-1.7.2h2.3a4.7,4.7,0,0,1-3.6.1,2.5,2.5,0,0,1-1.5-3.2,2.5,2.5,0,0,1,3.3-1.3A4.8,4.8,0,0,1,66.8,106.1Zm4.7-4.8A2.8,2.8,0,0,0,68.8,99a2.6,2.6,0,0,0-2.8,2.1,2.6,2.6,0,0,1,0-.3,2.6,2.6,0,0,1,2.8-2.4,2.7,2.7,0,0,1,2.8,2.6Zm-1.9,4.7.8-2-.9,1.4.3-2-.6,1.8v-2.1l-.4,1.9-.2-1.9-.2,1.9-.4-1.9v2.1l-.6-1.8.3,2.1-.9-1.5.8,2.1a4.7,4.7,0,0,1-1.5-3.3,2.4,2.4,0,0,1,2.5-2.4,2.6,2.6,0,0,1,2.5,2.6A4.3,4.3,0,0,1,69.6,106.1ZM68,109.2a1.5,1.5,0,0,1-.8-1.9,1.5,1.5,0,0,1,1.9-.8,1.5,1.5,0,0,1,.8,1.9A1.5,1.5,0,0,1,68,109.2ZM67,113.4a2.5,2.5,0,0,1-3.5.1,2.4,2.4,0,0,1-.1-3.5,4.5,4.5,0,0,1,3.3-1.2l-2,.9,1.7-.4-1.6,1.3,1.7-.9-1.5,1.5,1.6-1.1-1.2,1.5,1.5-1.3-1,1.6,1.4-1.5-.8,1.7,1.2-1.7-.3,1.7.8-2A4.4,4.4,0,0,1,67,113.4Zm1.9,28.8a3.8,3.8,0,0,1-2.9.7l1.8-.6-1.4.2,1.5-.9-1.5.6,1.4-1.1-1.4.8,1.1-1.2-1.3.9,1-1.3-1.3,1.2.8-1.4-1.1,1.3.4-1.4-.9,1.6a3.7,3.7,0,0,1,1.2-2.7,2.1,2.1,0,0,1,3,.2A2.1,2.1,0,0,1,68.9,142.2Zm-3.3,2.9,1.3,1.4-.8-1.3,1.4,1.1-1.1-1.2,1.6.9L66.6,145l1.5.7-1.4-.9,1.6.5-1.6-.8,1.6.3-1.7-.6h1.5l-1.9-.3a3.9,3.9,0,0,1,3,.2,2.1,2.1,0,0,1,.9,2.8,2.1,2.1,0,0,1-2.9.8A4,4,0,0,1,65.6,145.1Zm-2.4-.2-.9,1.6.9-1.1-.5,1.7.7-1.4-.2,1.7.5-1.5v1.6l.3-1.6.2,1.6.2-1.8.3,1.6v-1.7l.6,1.3-.5-1.8a3.9,3.9,0,0,1,1,2.9,2,2,0,0,1-2.3,1.8,2.2,2.2,0,0,1-1.8-2.4A3.7,3.7,0,0,1,63.2,144.9Zm1.6-2.5a1.3,1.3,0,0,1,.5,1.7,1.2,1.2,0,0,1-1.7.5,1.3,1.3,0,0,1-.5-1.7A1.2,1.2,0,0,1,64.8,142.4Zm-3-31.3.2-.2a2.6,2.6,0,0,0,.5,3.5,2.7,2.7,0,0,0,3.6.3l-.2.2a2.7,2.7,0,0,1-3.8-.1A2.6,2.6,0,0,1,61.8,111.2Zm-1.1-3.7a2.7,2.7,0,0,1-1.4-3.5,2.6,2.6,0,0,1,3.4-1.5h.3a2.6,2.6,0,0,0-3.1,1.6,2.7,2.7,0,0,0,1.1,3.4Zm-4.4,15.7a7,7,0,0,1-4.7-1.1,6.1,6.1,0,0,1,4.1-2.2,7,7,0,0,1,4.7,1.1A6.1,6.1,0,0,1,56.2,123.2Zm0,12.2a5.8,5.8,0,0,0-3.6-6.7,5.4,5.4,0,0,0-7,2.3l.2-.6a5.3,5.3,0,0,1,7.2-2.8,5.8,5.8,0,0,1,3.4,7.2Zm-4.7,3.1L49,141.6l1.7-4.2-2.2,3.5,1.1-4-1.8,3.7.7-4.1L47,140.7l.2-4.1-1,4.3-.6-3.7v4.8a10.1,10.1,0,0,1-.5-7.7,5,5,0,0,1,6.6-3,5.4,5.4,0,0,1,2.8,7,9.5,9.5,0,0,1-5.4,5.2l3.1-3.5-2.8,2.2Zm-7.8,10.2a3.3,3.3,0,0,1-.2-4.5,3,3,0,0,1,4.3-.2,3.3,3.3,0,0,1,.2,4.5A3,3,0,0,1,43.7,148.7Zm-12.1,5.4a5.4,5.4,0,0,1,2.4-7.1,9.2,9.2,0,0,1,7.4-.1l-4.6.5,3.6.3L36.2,149l3.9-.5-4,1.9,3.9-1-3.4,2.2,3.8-1.5-3.2,2.6,3.9-2.1-2.8,2.9,3.5-2.5-1.9,3.1,3.1-3.5a9.6,9.6,0,0,1-4.6,6A5.1,5.1,0,0,1,31.5,154.1Zm-1.4-5.9.5-.2a5.8,5.8,0,0,0-1.6,7.4,5.5,5.5,0,0,0,6.7,3.1l-.5.3c-2.6,1.3-5.8,0-7.2-2.9S27.6,149.5,30.1,148.2ZM13.7,112.8a6.8,6.8,0,0,1-1.3-2.2c-.2-1,.9-.3,1.2,0a14,14,0,0,1,.9,1.3c2.4,3.3,7.8,6.1,12.2,4.2,2.2-1,3.8-3.1,3.2-5.4.1.5-1.3.9-1.7.9a2.4,2.4,0,0,1-2.1-.9c-1.5-1.8-.5-5.1,1.8-6.1a5.2,5.2,0,0,1,5.6,1.1,5.9,5.9,0,0,1,1.3,5,9.8,9.8,0,0,1-2.1,4.7c-2.7,3.2-7.5,3.7-11.4,2.7A13.9,13.9,0,0,1,13.7,112.8Zm6.9,57.1a4.2,4.2,0,0,1-3.3-.3h2l-1.6-.3,1.9-.4H18l1.8-.6-1.7.2,1.6-.8-1.7.5,1.5-.9-1.8.7L19,167l-1.6.9,1-1.2L16.8,168a4,4,0,0,1,2.2-2.3,2.3,2.3,0,0,1,3,1.4A2.2,2.2,0,0,1,20.7,169.9Zm-4.5,1.8.8,1.9-.3-1.6,1.1,1.6-.7-1.7,1.3,1.5-.9-1.6,1.3,1.3-1.1-1.5,1.4,1.1-1.3-1.4,1.5.9-1.5-1.3,1.5.5-1.8-1a4.3,4.3,0,0,1,3,1.4,2.3,2.3,0,0,1-.1,3.2,2.3,2.3,0,0,1-3.2-.3A4.4,4.4,0,0,1,16.2,171.7Zm-4.9.9a4,4,0,0,1,2.6-2L12.4,172l1.3-.8-1.1,1.5,1.2-1.2-.9,1.7,1.1-1.4-.6,1.7.9-1.5-.5,1.7.8-1.7-.2,1.8.6-1.8v1.6l.2-2a4.3,4.3,0,0,1-.1,3.3,2.2,2.2,0,0,1-3,1A2.4,2.4,0,0,1,11.3,172.6ZM2.5,157.2H3.8l1.9.2a12.7,12.7,0,0,1,2.7.7l.7.3c2.6,1.4,5.5,6.2,3.6,9.2a3.5,3.5,0,0,1-2.4,1.5,2.7,2.7,0,0,1-2-.3c-1.4-1-1.1-3-.6-4.3s.9-2.8-.3-4.2a7.7,7.7,0,0,0-2.4-2C4.3,157.8,3.1,157.8,2.5,157.2Zm-.4-5.7a5.9,5.9,0,0,1-3-3.7l2.1,2.2L-.1,148l2.4,1.5L.4,147.7,3,149,.9,147.4l2.5.9L1.1,147l2.6.6L1,146.4l2.6.2-2.7-.8,2.4-.3-3.1-.2a6.4,6.4,0,0,1,4.9-.1,3.3,3.3,0,0,1,1.6,4.5A3.6,3.6,0,0,1,2.2,151.5Zm-9,4.4a3.7,3.7,0,0,1,0-.4A3.5,3.5,0,0,0-3,158.3,3.9,3.9,0,0,0,.7,155v.4A3.9,3.9,0,0,1-3,159.1,3.4,3.4,0,0,1-6.9,155.9Zm-6-11a3.8,3.8,0,0,0-2.3,4.4,3.5,3.5,0,0,0,3.8,2.9h-.4a3.5,3.5,0,0,1-4.2-2.8,3.8,3.8,0,0,1,2.7-4.5Zm2.3-.2a6.2,6.2,0,0,1,4.8.9l-3-.3,2.3.7-2.9.3,2.6.2-2.9.6H-7l-2.6.9,2.7-.4-2.5,1.2,2.8-.8-2.3,1.4,2.7-1.1-1.8,1.7,2.6-1.8a6.8,6.8,0,0,1-4,3.1,3.3,3.3,0,0,1-4.1-2.4A3.6,3.6,0,0,1-10.6,144.7Zm5.7-8.9a3.7,3.7,0,0,0-4.9-.4,3.8,3.8,0,0,0-1.5,4.7l-.2-.3a3.7,3.7,0,0,1,1.3-5,3.6,3.6,0,0,1,5.1.6Zm.9,2a6.1,6.1,0,0,1,.6,4.8l-.6-3v2.4l-1.2-2.6.6,2.5L-6,139.7l.9,2.4-1.6-2,1.2,2.3-1.9-1.8,1.6,2.3-2.1-1.6,1.9,2.1-2.1-1,2.5,1.7a5.9,5.9,0,0,1-4.2-2.4,3.5,3.5,0,0,1,1-4.8A3.4,3.4,0,0,1-4,137.9Zm-7.7-24.2a4.7,4.7,0,0,1,0-.5,4.5,4.5,0,0,0,5,3.6,5.1,5.1,0,0,0,4.8-4.4,4.7,4.7,0,0,1,0,.5,5,5,0,0,1-4.8,4.8A4.4,4.4,0,0,1-11.7,113.7Zm-8.4-9.1a4.7,4.7,0,0,1,3.5-5.3,8,8,0,0,1,6.2,1.2l-3.9-.4,2.9.9-3.7.4,3.4.3-3.7.8,3.5-.2-3.3,1.1,3.5-.6-3.2,1.5,3.7-1-3,1.9,3.5-1.4-2.3,2.2,3.4-2.3a8.7,8.7,0,0,1-5.1,4A4.2,4.2,0,0,1-20.1,104.6Zm0,10.5a7,7,0,0,1,4.1-2.6,6.1,6.1,0,0,1-1.3,4.4,7,7,0,0,1-4.1,2.6A6.1,6.1,0,0,1-20.1,115.1Zm.1-15.5h.5a5,5,0,0,0-3,5.7,4.5,4.5,0,0,0,4.9,3.7H-18a4.5,4.5,0,0,1-5.4-3.6A4.9,4.9,0,0,1-20,99.6Zm-5.4-.3-1.1-.2c-3.1-.4-7.4,1-8.7,4.4A3.7,3.7,0,0,0-34,108c-.3-.2.2-1.2.4-1.4A1.8,1.8,0,0,1-32,106a3.2,3.2,0,0,1,2.4,4.2,3.9,3.9,0,0,1-3.6,2.4,4.5,4.5,0,0,1-3.4-2,7.4,7.4,0,0,1-1.5-3.6c-.3-3.1,2-6,4.6-7.6a10.5,10.5,0,0,1,6.9-1.3,5.1,5.1,0,0,1,1.9.5C-24,99-25,99.3-25.4,99.3Zm-3.9,26.2a4.5,4.5,0,0,1-5.4-3.9,9.9,9.9,0,0,1,1.8-7l-.8,4.4,1.2-3.3v4.2l.5-3.8.6,4.2v-3.9l1,3.7-.3-3.9,1.4,3.6-.8-4.1,1.8,3.3-1.3-3.9,2.1,2.5-2.2-3.8a8.7,8.7,0,0,1,3.9,5.7A5.2,5.2,0,0,1-29.3,125.5Zm.7,42.8A8.3,8.3,0,0,0-26,170a7,7,0,0,0,5.1.3,7.2,7.2,0,0,0-3.8-3.4,8.1,8.1,0,0,0-3-.6,7.4,7.4,0,0,1,5.9-.1,7.8,7.8,0,0,1,4.6,5.7,7.5,7.5,0,0,1-7.2.8A7.6,7.6,0,0,1-28.5,168.3Zm-1.8-5.6a3.1,3.1,0,0,0,3.1-2.6,2.9,2.9,0,0,0-1.8-3.5h.3a2.8,2.8,0,0,1,2,3.6,3.1,3.1,0,0,1-3.4,2.5Zm-1.7-.6a4.8,4.8,0,0,1-3.1-2.3L-33,161l-1.4-1.3,2.2.8-1.8-1.1,2.3.5-2-.8,2.1.2-2.1-.6h2.2l-2.3-.4,2.1-.3H-34l1.8-.7-2.5.5a5.2,5.2,0,0,1,3.9-1,2.7,2.7,0,0,1,2.1,3.2A2.9,2.9,0,0,1-32,162.1Zm-6.3,4.9a2.8,2.8,0,0,0,3.6,1.5,3.2,3.2,0,0,0,2.3-3.4v.3a3.1,3.1,0,0,1-2.2,3.7,2.8,2.8,0,0,1-3.7-1.7Zm.5-5.8-.2,2.5.5-1.9.3,2.3v-2.2l.6,2.3V162l.8,2-.4-2.1,1,1.9-.7-2.2,1.2,1.7-.9-2.1,1.4,1.3-1.5-2a4.8,4.8,0,0,1,2.6,2.9,2.9,2.9,0,0,1-1.9,3.6,2.6,2.6,0,0,1-3.4-1.8A5.3,5.3,0,0,1-37.8,161.2Zm-3.2,2.9a2.6,2.6,0,0,1-3.7-1.1,2.9,2.9,0,0,1,1.4-3.8,5,5,0,0,1,4-.2l-2.5.3h1.9l-2.2.8,2.1-.3-2.1,1.1,2.1-.6-1.9,1.2,2-.9-1.7,1.4,2.1-1.2-1.5,1.6,1.9-1.4-1.1,1.7,1.7-1.9A5.5,5.5,0,0,1-41,164.1Zm-4.4-4.2h.3a3.1,3.1,0,0,0-1,3.9,2.8,2.8,0,0,0,3.6,1.5l-.3.2a2.8,2.8,0,0,1-3.8-1.4A3.1,3.1,0,0,1-45.4,159.9Zm4.6-9,.2.2a3,3,0,0,0-3.9.7,3.1,3.1,0,0,0-.3,4l-.2-.2a3,3,0,0,1,.1-4.2A2.9,2.9,0,0,1-40.7,150.9Zm-4.1-33.6v-.2a2.4,2.4,0,0,0,2.5,2,2.5,2.5,0,0,0,2.6-2,2.4,2.4,0,0,1,0,.2,2.5,2.5,0,0,1-2.6,2.2A2.4,2.4,0,0,1-44.8,117.3Zm-4.4-3.9a2.2,2.2,0,0,1,1.4-2.8,4.3,4.3,0,0,1,3.3.3h-2.1l1.6.3-1.9.4h1.8l-1.9.6,1.8-.3-1.6.7,1.7-.5-1.5.9,1.8-.7-1.4,1.1,1.7-.9-1,1.2,1.6-1.3a4.3,4.3,0,0,1-2.4,2.3A2.3,2.3,0,0,1-49.2,113.4Zm-.3-2.5h.2a2.4,2.4,0,0,0-1.1,3,2.4,2.4,0,0,0,2.8,1.6h-.2a2.4,2.4,0,0,1-3-1.5A2.4,2.4,0,0,1-49.5,110.9ZM-112,206.3l1.1-6.6a10.9,10.9,0,0,0,6.1,1.1,21.4,21.4,0,0,0,4.6-1.3l1.7,6.8-1.9-4.6.8,4.9-2.4-5,.5,5.6-1.8-5.3-.3,5.7-1.6-5.6v5.5l-1.5-5.6-.4,5.5-1.2-5.6-1.7,5.5-.2-6Zm17-90.8a4.5,4.5,0,0,0-2.8,5.1,4.2,4.2,0,0,0,4.2,3.8H-94a4.2,4.2,0,0,1-4.6-3.7,4.4,4.4,0,0,1,3.2-5.2Zm-5.2,23.5a2.5,2.5,0,0,0,2.7,2.1h-.3a2.5,2.5,0,0,1-3-2,2.7,2.7,0,0,1,1.9-3.2h.3A2.8,2.8,0,0,0-100.2,139Zm3.3-3.3a4.4,4.4,0,0,1,3.5.7l-2.2-.2,1.6.5-2.1.2h1.9l-2.1.5h1.9l-1.9.6,1.9-.3-1.8.8,2-.6-1.7,1,1.9-.8-1.3,1.2,1.9-1.3a4.8,4.8,0,0,1-2.8,2.2,2.3,2.3,0,0,1-2.9-1.7A2.6,2.6,0,0,1-96.9,135.7Zm12.9.8h.2a2.5,2.5,0,0,1,1,3.5,2.7,2.7,0,0,1-3.5,1.5h-.2a2.8,2.8,0,0,0,3.2-1.6A2.5,2.5,0,0,0-84,136.6Zm-3.8,4a4.2,4.2,0,0,1-2.2-2.7l1.5,1.5-.9-1.4,1.7,1.1-1.3-1.3,1.8.9-1.5-1.1,1.8.6-1.6-.9,1.9.4-1.9-.8,1.9.2-2-.5,1.7-.2h-2.2a4.6,4.6,0,0,1,3.6-.1,2.3,2.3,0,0,1,1.1,3.2A2.6,2.6,0,0,1-87.7,140.6Zm-7.3-6.4,1.8,1.2a4.3,4.3,0,0,1-3-1.7,2.5,2.5,0,0,1,.7-3.4,2.4,2.4,0,0,1,3.4.6,4.4,4.4,0,0,1,.4,3.5l-.4-2.1v1.7l-.8-1.8.4,1.8-1.1-1.7.7,1.8-1.2-1.5.9,1.7-1.3-1.3,1.2,1.7-1.5-1.1,1.4,1.5Zm5,1.6a1.5,1.5,0,0,1-.5,2,1.4,1.4,0,0,1-2-.4,1.5,1.5,0,0,1,.5-2A1.4,1.4,0,0,1-90.1,135.8Zm-.1-4.6a2.5,2.5,0,0,1,3.4-.7,2.4,2.4,0,0,1,.5,3.4,4.8,4.8,0,0,1-3.1,1.8l1.9-1.3-1.6.7,1.5-1.5-1.6,1.2,1.3-1.7-1.4,1.3,1-1.7-1.3,1.5.8-1.8-1.2,1.8.6-1.8-1,1.9.2-1.7-.6,2.1A4.6,4.6,0,0,1-90.2,131.2Zm.7-1.5.2-.2a2.7,2.7,0,0,1,3.7-.6,2.5,2.5,0,0,1,.7,3.6l-.2.2a2.5,2.5,0,0,0-.8-3.3A2.7,2.7,0,0,0-89.5,129.7Zm.4,11.8a2.6,2.6,0,0,1-2.4,2.7,2.3,2.3,0,0,1-2.5-2.3,4.7,4.7,0,0,1,1.4-3.3l-.7,2.1.8-1.5-.3,2,.6-1.8v2.1l.3-1.9.2,1.9v-1.9l.4,1.8v-2.1l.7,1.7-.4-2,.9,1.4-.8-2A4.2,4.2,0,0,1-89.1,141.5Zm-7.5-12.8a2.6,2.6,0,0,1,3.6.5v.2a2.6,2.6,0,0,0-3.5-.3,2.7,2.7,0,0,0-1.1,3.4l-.2-.2A2.7,2.7,0,0,1-96.6,128.7Zm4.1-13.2A7,7,0,0,1-87,117l-3.5-.7,2.6,1h-3.3l3,.5-3.3.5h3.1l-3,.8,3.1-.3-2.9,1.2,3.3-.7-2.7,1.5,3.1-1.1-2.1,1.9,3.1-1.9a7.4,7.4,0,0,1-4.7,3.4,3.9,3.9,0,0,1-4.6-3.2A4.1,4.1,0,0,1-92.4,115.5Zm6.9-10.1a4.1,4.1,0,0,0-5.5-.9A4.5,4.5,0,0,0-93,110l-.2-.4a4.4,4.4,0,0,1,1.7-5.9,4.1,4.1,0,0,1,5.8,1.2Zm1.4,8.4-.6-3.6V113l-1.2-3.2.6,3.1-1.6-3,1,3-1.8-2.6,1.3,2.9-2.1-2.3,1.8,2.9-2.3-2,2.1,2.6-2.4-1.3,2.8,2.3a7.1,7.1,0,0,1-4.7-3.3,4.2,4.2,0,0,1,1.3-5.6,3.8,3.8,0,0,1,5.4,1.5A7.7,7.7,0,0,1-84.1,113.7Zm2.5,2.6a2.5,2.5,0,0,1-.8,3.3,2.3,2.3,0,0,1-3.2-.8,2.5,2.5,0,0,1,.8-3.3A2.3,2.3,0,0,1-81.6,116.4Zm20.5-14.5v.2a2,2,0,0,0-2-1.8,2.1,2.1,0,0,0-2.1,1.7v-.2a2,2,0,0,1,2.1-1.9A2,2,0,0,1-61.1,101.9Zm-3.4,2.3.6,1.6a3.6,3.6,0,0,1-1.1-2.5,1.9,1.9,0,0,1,1.9-1.9,1.9,1.9,0,0,1,1.8,2,3.7,3.7,0,0,1-1.2,2.5l.6-1.6-.7,1.2.3-1.6-.5,1.4v-1.6l-.3,1.5v-1.5l-.2,1.5-.3-1.5v1.6l-.4-1.4.2,1.6Zm6.7,3.6a2.1,2.1,0,0,0,.9-2.6,2,2,0,0,0-2.3-1.4h.2a2,2,0,0,1,2.5,1.3,2.1,2.1,0,0,1-1.1,2.7Zm-2.5-2.2-1.4.8.8-1.1-1.3,1.1a3.6,3.6,0,0,1,1.9-2,1.8,1.8,0,0,1,2.4,1.1,2,2,0,0,1-1.2,2.5,3.3,3.3,0,0,1-2.7-.2H-60l-1.3-.2,1.5-.3h-1.4l1.5-.5-1.4.2,1.3-.7-1.4.4,1.2-.8-1.5.6Zm-4,2a1.2,1.2,0,0,1,1.1-1.1,1.1,1.1,0,0,1,1.1,1.2,1.2,1.2,0,0,1-1.1,1.1A1.1,1.1,0,0,1-64.4,107.6Zm-4.4-2.1a1.9,1.9,0,0,1,2.4-1.1,3.5,3.5,0,0,1,1.8,2l-1.2-1.2.8,1.1-1.4-.8,1.1,1-1.5-.6,1.2.8-1.4-.4,1.3.7-1.4-.3,1.5.6h-1.4l1.5.4-1.3.2H-65a3.3,3.3,0,0,1-2.7.2A1.9,1.9,0,0,1-68.7,105.5ZM-70,105a2,2,0,0,1,2.5-1.3h.2a2,2,0,0,0-2.3,1.3,2.1,2.1,0,0,0,.8,2.6h-.2A2.1,2.1,0,0,1-70,105Zm-4.6,1.2a4.1,4.1,0,0,0-5.6.1l.3-.4a4.1,4.1,0,0,1,5.9-.5,4.4,4.4,0,0,1,.9,6l-.3.3A4.5,4.5,0,0,0-74.6,106.2Zm-5.9,10.1,3-1.9-2.6,1,2.4-2.4-2.6,1.7,2.2-2.7-2.4,2.1,1.7-2.7-2.1,2.3,1.4-2.9-2,2.8,1-3-1.7,3,.4-2.8-1.1,3.5a7.8,7.8,0,0,1,1.3-5.7A3.9,3.9,0,0,1-76,108a4.2,4.2,0,0,1,.5,5.7A7.2,7.2,0,0,1-80.5,116.3Zm10,12.3a3.1,3.1,0,0,0-1.9,3.6,2.8,2.8,0,0,0,3.1,2.3h-.3a2.8,2.8,0,0,1-3.4-2.3,3.1,3.1,0,0,1,2.2-3.7Zm1.8-.1a5,5,0,0,1,3.9.8l-2.5-.3,1.8.6-2.3.2,2.1.2-2.3.5h2.2l-2.1.7,2.2-.3-2,.9,2.3-.6-1.9,1.2,2.2-.9-1.4,1.4,2.1-1.4a5.5,5.5,0,0,1-3.2,2.5,2.6,2.6,0,0,1-3.3-2A2.9,2.9,0,0,1-68.7,128.5Zm7.9,5.3-.9-2.3a4.8,4.8,0,0,1,1.8,3.5,2.9,2.9,0,0,1-2.7,3,2.6,2.6,0,0,1-2.8-2.6,5.3,5.3,0,0,1,1.6-3.7l-.8,2.4,1-1.7-.3,2.3.6-2.1V135l.4-2.1.3,2.1v-2.2l.5,2.1v-2.3l.7,2-.4-2.3Zm1.2,3v.3a3.1,3.1,0,0,1-3,3,2.8,2.8,0,0,1-3.2-2.6,3,3,0,0,1,0-.3,2.8,2.8,0,0,0,3.1,2.3A3.2,3.2,0,0,0-59.5,136.8Zm-4.5-15.5a3,3,0,0,0-3.9-.3,3.1,3.1,0,0,0-1.2,3.8l-.2-.2a3,3,0,0,1,1.1-4.1,2.9,2.9,0,0,1,4.1.5Zm1.2,5.6-.5-2.4v1.9l-.9-2.1.5,2.1-1.2-2,.8,2-1.3-1.7,1,1.9-1.5-1.5,1.3,1.9-1.7-1.3,1.5,1.7-1.7-.8,2,1.4a4.8,4.8,0,0,1-3.4-2,2.8,2.8,0,0,1,.8-3.9,2.7,2.7,0,0,1,3.8.7A5,5,0,0,1-62.9,126.9Zm1.9,1.7a1.7,1.7,0,0,1-.5,2.3,1.6,1.6,0,0,1-2.3-.4,1.7,1.7,0,0,1,.5-2.3A1.6,1.6,0,0,1-61,128.6Zm3.8-6a2.7,2.7,0,0,1,.5,3.8,5.5,5.5,0,0,1-3.5,2l2.1-1.4-1.8.8,1.7-1.7-1.8,1.3,1.5-1.9-1.6,1.5,1.1-1.9-1.5,1.7.9-2-1.4,2,.7-2.1-1.1,2.1.2-1.9-.7,2.4a5.2,5.2,0,0,1,.8-3.9A2.9,2.9,0,0,1-57.2,122.6Zm2.1,2.3-.2.2a2.9,2.9,0,0,0-1-3.8,3,3,0,0,0-4,.4l.2-.3a3,3,0,0,1,4.2-.6A2.9,2.9,0,0,1-55.2,124.9Zm.6,7.8a2.9,2.9,0,0,1-3.8,1.4,4.8,4.8,0,0,1-2.5-3l1.7,1.7-1-1.6,1.9,1.2-1.5-1.5,2.1,1-1.7-1.3,2,.7-1.9-1.1,2.1.5-2.1-.9,2.1.2-2.2-.6,1.9-.2h-2.5a5.2,5.2,0,0,1,4-.1A2.7,2.7,0,0,1-54.6,132.6Zm-2,2.5h-.3a3.1,3.1,0,0,0,3.6-1.8,2.9,2.9,0,0,0-.9-3.8h.3a2.8,2.8,0,0,1,1.1,3.9A3.1,3.1,0,0,1-56.6,135.2Zm-11.9,14.8a4.5,4.5,0,0,1-1.6-3.6,3.9,3.9,0,0,1,2.9-3.3,3.2,3.2,0,0,1,3.9,2.8,1.8,1.8,0,0,1-.9,1.5c-.2.1-1.3.6-1.4.2a3.7,3.7,0,0,0,4.4,1.8c3.5-.9,5.5-5,5.4-8.1a10.6,10.6,0,0,1-.1-1.1c0-.3.4-1.3.7-.5a5.1,5.1,0,0,1,.2,1.9,10.5,10.5,0,0,1-2.1,6.7c-1.8,2.4-5,4.3-8,3.6A7.4,7.4,0,0,1-68.5,149.9Zm-8.5,6.7a6.1,6.1,0,0,1,4.3-1.8,7,7,0,0,1,4.6,1.5,6.1,6.1,0,0,1-4.3,1.8A7,7,0,0,1-77,156.7Zm-5.7-7.9a4.5,4.5,0,0,1,4.2-5.2,9.9,9.9,0,0,1,6.9,2.1l-4.4-1,3.2,1.3H-77l3.8.8-4.2.4,3.9.3-3.8.8h3.9l-3.6,1.2,4.2-.6-3.4,1.6,4-1-2.7,2,3.9-2a8.7,8.7,0,0,1-5.9,3.6A5.2,5.2,0,0,1-82.8,148.8Zm-7.2,9.5a7,7,0,0,0,2.2,1.4,5.9,5.9,0,0,0,4.3.3,6.1,6.1,0,0,0-3.2-2.9,6.9,6.9,0,0,0-2.5-.6,6.3,6.3,0,0,1,5-.1,6.6,6.6,0,0,1,3.8,4.9,6.4,6.4,0,0,1-6.1.6A6.5,6.5,0,0,1-90,158.3ZM-91.4,146a2.5,2.5,0,0,1-2.8-2.3,2.6,2.6,0,0,1,0-.3,2.5,2.5,0,0,0,2.8,2,2.8,2.8,0,0,0,2.7-2.4v.3A2.8,2.8,0,0,1-91.4,146ZM-108,190.8c.4,1,.7,1.7,1.9,1.9a5,5,0,0,0,2,0c.5-.1,1.1-.6,1.6-.5l-.6.6-1,.7-1.7.8h-.5c-1.8.4-5.2-.8-5.6-3a2.2,2.2,0,0,1,.6-1.7,1.7,1.7,0,0,1,1.1-.7C-109,188.8-108.3,189.9-108,190.8Zm1.9-23.5.7-1.4a3.3,3.3,0,0,1-.9,2.4,1.8,1.8,0,0,1-2.5.1,1.7,1.7,0,0,1,.1-2.5,3.4,3.4,0,0,1,2.4-.9l-1.5.7,1.2-.3-1.2.9,1.2-.6-1.1,1,1.2-.8-.9,1.1,1.1-.9-.8,1.2,1.1-1.1-.6,1.2.9-1.2Zm.5-4.2-1.1-1.1.7,1-1.2-.8,1,.9-1.3-.6,1.1.8-1.3-.4,1.2.7-1.3-.3,1.4.5H-108l1.4.4-1.2.2h1.6a3.3,3.3,0,0,1-2.6.1,1.7,1.7,0,0,1-.9-2.3,1.8,1.8,0,0,1,2.4-.9A3.1,3.1,0,0,1-105.6,163Zm1.6,1.9a1.1,1.1,0,0,1-1.5,0,1,1,0,0,1,0-1.5,1.1,1.1,0,0,1,1.5,0A1,1,0,0,1-104,165Zm.8,2.4-.4-1.3.8,1.1-.6-1.3.9,1-.8-1.2,1,.7-1.1-1.1a3.1,3.1,0,0,1,1.9,1.6,1.8,1.8,0,0,1-.9,2.3,1.7,1.7,0,0,1-2.3-.9,3.2,3.2,0,0,1,.1-2.5v1.6l.2-1.2.4,1.4v-1.4l.6,1.4-.3-1.3Zm5.3-9.5a1.8,1.8,0,0,1,.2,1.7c-.1.2-.7,1.2-1,1a3.7,3.7,0,0,0,4.6-1.2c2.3-2.8,1.4-7.3-.4-9.8l-.7-.9c-.2-.3-.4-1.3.3-.9a5.1,5.1,0,0,1,1.3,1.4,10.5,10.5,0,0,1,2.3,6.7c-.1,3-1.5,6.4-4.3,7.7a7.4,7.4,0,0,1-3.9.5,4.5,4.5,0,0,1-3.4-2,3.9,3.9,0,0,1,.4-4.3A3.2,3.2,0,0,1-97.9,157.9Zm-3.6-32.5a4.7,4.7,0,0,0,1.9.4c.5,0,1.2-.3,1.6-.1l-.6.4-1.1.4-1.7.4h-.5c-1.8,0-4.7-1.8-4.5-3.9a2.1,2.1,0,0,1,.9-1.5,1.6,1.6,0,0,1,1.2-.4c1,.1,1.4,1.3,1.5,2.2S-102.5,124.9-101.5,125.4Z"/></g></svg>