<svg id="a59a99ea-3050-42a9-9f0d-c083c5ccb1ec" data-name="Layer 1" xmlns="http://www.w3.org/2000/svg" xmlns:xlink="http://www.w3.org/1999/xlink" viewBox="0 0 206 206"><defs><style>.f17c9f8b-5885-44a2-b7e7-1209c8267fb7{fill:url(#d9ffe88e-d00b-40b6-9c9e-fd10e72639c7);}.f6c47f96-c51a-432a-8793-b832bf9b1830{fill:none;}.d9b9dd56-1863-4b23-ba8e-eacf6f48ca3e{fill:#e78f8f;}.\35 771aefc-3b56-41ce-9d93-3a60597c2800{fill:#ffc4c8;}.c613446b-6b08-4eea-8974-4cbf1e37807d{fill:#ffb0b6;}.ab090d27-4f6f-4a1f-8120-05523c3969d7{font-size:25.4px;font-family:Armonioso, Armonioso;}.\37 7bdcea6-0046-44cb-8d02-cb882345d865,.ab090d27-4f6f-4a1f-8120-05523c3969d7{fill:#db1417;}.\37 7bdcea6-0046-44cb-8d02-cb882345d865{font-size:12px;font-family:SukhumvitSet-Medium, Sukhumvit Set;letter-spacing:0.5em;}.\36 933dda0-9879-46dd-b3bb-199472881d4f{letter-spacing:0.49em;}</style><radialGradient id="d9ffe88e-d00b-40b6-9c9e-fd10e72639c7" cx="-126.55" cy="-91.16" r="392.32" gradientTransform="translate(105.5 142.9) scale(1.33 0.82)" gradientUnits="userSpaceOnUse"><stop offset="0" stop-color="#fcf7f8"/><stop offset="1" stop-color="#f3b2be"/></radialGradient></defs><title>Icon Kirim 01</title><rect class="f17c9f8b-5885-44a2-b7e7-1209c8267fb7" width="206" height="206"/><rect class="f6c47f96-c51a-432a-8793-b832bf9b1830" x="-38" y="-31" width="276.5" height="268"/><path class="d9b9dd56-1863-4b23-ba8e-eacf6f48ca3e" d="M85.6,12.8c-2.8-3.2-7.8-8-15.1-7.1-9.1,1.1-11.9,7.8-11.5,13.1.7,9.5,8.6,17.8,16.7,23.9a54.8,54.8,0,0,0,12.6,6.9Z"/><path class="d9b9dd56-1863-4b23-ba8e-eacf6f48ca3e" d="M88.2,49.5a54.8,54.8,0,0,0,11.5-8.6c7.1-7.2,13.8-16.5,13.1-26-.4-5.3-4.1-11.5-13.3-11.3-7.4.1-11.7,5.6-14,9.2Z"/><path class="5771aefc-3b56-41ce-9d93-3a60597c2800" d="M105.6,99.7c-1-1.6-2.9-4-6.1-4.1s-5.7,2.6-5.9,4.9c-.3,4.2,2.6,8.4,5.7,11.5a24.2,24.2,0,0,0,5,3.9Z"/><path class="5771aefc-3b56-41ce-9d93-3a60597c2800" d="M104.3,115.9a24.2,24.2,0,0,0,5.6-3c3.6-2.6,7.1-6.3,7.5-10.5.2-2.3-1-5.3-5-5.8s-5.5,1.7-6.7,3.1Z"/><path class="d9b9dd56-1863-4b23-ba8e-eacf6f48ca3e" d="M79.9,69.7c1.1-1.8,3.3-4.6,7-4.7s6.5,2.9,6.7,5.6c.4,4.8-2.9,9.5-6.5,13.2a27.6,27.6,0,0,1-5.7,4.4Z"/><path class="d9b9dd56-1863-4b23-ba8e-eacf6f48ca3e" d="M81.4,88.1A27.6,27.6,0,0,1,75,84.7c-4.1-3-8.1-7.2-8.5-11.9-.2-2.7,1.2-6,5.7-6.6s6.2,1.9,7.7,3.5Z"/><path class="5771aefc-3b56-41ce-9d93-3a60597c2800" d="M132.7,26.4c2.1-1.5,5.7-3.6,9.9-2s5.9,6.3,4.9,9.3c-1.8,5.5-7.6,9.2-13.2,11.6a33.2,33.2,0,0,1-8.4,2.2Z"/><path class="5771aefc-3b56-41ce-9d93-3a60597c2800" d="M125.9,47.6a33.2,33.2,0,0,1-5.5-6.7c-3.2-5.2-5.8-11.7-4-17.2,1-3.1,4.1-6.2,9.4-4.7s6.1,5,6.9,7.4Z"/><path class="c613446b-6b08-4eea-8974-4cbf1e37807d" d="M117.6,53.5c1.9-1.5,5.2-3.6,9.1-2.4s5.8,5.5,5,8.4c-1.4,5.2-6.6,9-11.7,11.5a30.9,30.9,0,0,1-7.7,2.5Z"/><path class="c613446b-6b08-4eea-8974-4cbf1e37807d" d="M112.3,73.5a30.9,30.9,0,0,1-5.5-6c-3.2-4.7-5.9-10.6-4.6-15.8.8-2.9,3.5-5.9,8.5-4.9s5.9,4.3,6.8,6.6Z"/><path class="d9b9dd56-1863-4b23-ba8e-eacf6f48ca3e" d="M118.4,82.7a3.2,3.2,0,0,1,3-.9,2.2,2.2,0,0,1,1.7,2.7c-.4,1.7-2.1,3-3.8,3.9a10.2,10.2,0,0,1-2.5.9Z"/><path class="d9b9dd56-1863-4b23-ba8e-eacf6f48ca3e" d="M116.8,89.4a10.2,10.2,0,0,1-1.9-1.9c-1.1-1.5-2.1-3.4-1.7-5.2a2.2,2.2,0,0,1,2.8-1.7,3.2,3.2,0,0,1,2.3,2.1Z"/><path class="d9b9dd56-1863-4b23-ba8e-eacf6f48ca3e" d="M137.6,45.7c.8-1.2,2.4-2.9,4.9-2.8a4.1,4.1,0,0,1,4.3,4.1c0,3.2-2.4,6.3-5,8.5a18.6,18.6,0,0,1-4.1,2.7Z"/><path class="d9b9dd56-1863-4b23-ba8e-eacf6f48ca3e" d="M137.7,58.2a18.6,18.6,0,0,1-4.1-2.6c-2.6-2.2-5.1-5.2-5.2-8.4a4.1,4.1,0,0,1,4.2-4.2c2.5-.2,4.1,1.6,5,2.7Z"/><path class="c613446b-6b08-4eea-8974-4cbf1e37807d" d="M51.4,43.6a5.1,5.1,0,0,1,4.1-2.7,3.5,3.5,0,0,1,3.9,3.4c.2,2.8-1.8,5.5-3.9,7.6a16.1,16.1,0,0,1-3.4,2.5Z"/><path class="c613446b-6b08-4eea-8974-4cbf1e37807d" d="M52.1,54.4a16.1,16.1,0,0,1-3.7-2.1c-2.4-1.8-4.7-4.3-4.9-7.1A3.5,3.5,0,0,1,47,41.4a5.1,5.1,0,0,1,4.4,2.1Z"/><path class="c613446b-6b08-4eea-8974-4cbf1e37807d" d="M16.9-2.5c1.3-1.4,3.5-3.6,6.8-3.2S29.1-2.3,28.9.1c-.3,4.3-3.9,8-7.5,10.8A24.8,24.8,0,0,1,15.7,14Z"/><path class="c613446b-6b08-4eea-8974-4cbf1e37807d" d="M15.7,14a24.7,24.7,0,0,1-5.2-3.9C7.3,6.9,4.3,2.7,4.6-1.6c.2-2.4,1.9-5.2,6-5.1s5.3,2.5,6.3,4.2Z"/><path class="d9b9dd56-1863-4b23-ba8e-eacf6f48ca3e" d="M154.2.9c1.4-1.6,3.9-4,7.6-3.6s6,3.9,5.8,6.5c-.3,4.8-4.3,8.9-8.4,12a27.4,27.4,0,0,1-6.3,3.5Z"/><path class="d9b9dd56-1863-4b23-ba8e-eacf6f48ca3e" d="M152.9,19.2a27.4,27.4,0,0,1-5.7-4.3c-3.6-3.6-6.9-8.3-6.6-13,.2-2.7,2.1-5.7,6.6-5.7s5.8,2.8,7,4.6Z"/><path class="c613446b-6b08-4eea-8974-4cbf1e37807d" d="M190.6-2c.9-1.4,2.7-3.5,5.6-3.4s5,2.5,5,4.6c.2,3.7-2.6,7.3-5.4,10a21.4,21.4,0,0,1-4.6,3.2Z"/><path class="c613446b-6b08-4eea-8974-4cbf1e37807d" d="M191.2,12.4a21.4,21.4,0,0,1-4.8-2.8c-3.1-2.5-6.1-5.8-6.2-9.5-.1-2.1,1.1-4.6,4.7-5s4.8,1.7,5.8,3Z"/><text class="ab090d27-4f6f-4a1f-8120-05523c3969d7" transform="translate(33.3 149.6)">Valentine’s<tspan x="44.1" y="27.4">Day</tspan></text><text class="77bdcea6-0046-44cb-8d02-cb882345d865" transform="translate(70.1 125.5)">HAP<tspan class="6933dda0-9879-46dd-b3bb-199472881d4f" x="40.2" y="0">P</tspan><tspan x="52.9" y="0">Y</tspan></text></svg>