<svg id="cbeba5f1-6b8f-42ba-85ea-862f59339c30" data-name="Layer 1" xmlns="http://www.w3.org/2000/svg" viewBox="0 0 206.1 206.1"><defs><style>.\37 4620a27-41a9-4221-b273-9ea54b442010{fill:#017c56;}.b8294c46-1779-41bc-8d23-20075ba99ed8{fill:#fef802;}</style></defs><title>lebaran</title><rect class="74620a27-41a9-4221-b273-9ea54b442010" width="206.1" height="206.07" transform="translate(0 206.1) rotate(-90)"/><polygon class="b8294c46-1779-41bc-8d23-20075ba99ed8" points="44.3 99.4 31.7 150.1 44.3 139.2 50.3 159.4 57.9 99.4 44.3 99.4"/><rect class="b8294c46-1779-41bc-8d23-20075ba99ed8" x="48.5" width="13.4" height="59.84"/><path class="b8294c46-1779-41bc-8d23-20075ba99ed8" d="M99.1,80.2,87.8,91.3,72.3,106.4,60.6,117.9a7,7,0,0,1-9.8-.1L39.9,107,24.4,91.7,12.8,80.3a7,7,0,0,1,0-9.9l12.1-12,15-15L50.8,32.6a7.1,7.1,0,0,1,9.9,0L72,43.7,87.8,59.1,99.1,70.2A6.8,6.8,0,0,1,99.1,80.2Z"/><path class="74620a27-41a9-4221-b273-9ea54b442010" d="M41.9,74.8l-.2.3L25.8,91l-11-10.9a6.6,6.6,0,0,1,0-9.5L26.3,59.2,41.8,74.6Z"/><polygon class="b8294c46-1779-41bc-8d23-20075ba99ed8" points="55.4 108.5 64.7 156.3 70.1 142.6 83.7 149.7 65 98.5 55.4 108.5"/><path class="74620a27-41a9-4221-b273-9ea54b442010" d="M97.2,80,86.4,90.6,71,75.2,86.4,59.8,97.2,70.4A6.7,6.7,0,0,1,97.2,80Z"/><path class="74620a27-41a9-4221-b273-9ea54b442010" d="M71.3,45.1,56.1,60.3,40.6,44.9,51.1,34.5a6.6,6.6,0,0,1,9.3,0Z"/><path class="74620a27-41a9-4221-b273-9ea54b442010" d="M71.6,105,60.4,115.9a6.5,6.5,0,0,1-9.3,0L40.6,105.6,56.4,89.8Z"/><rect class="74620a27-41a9-4221-b273-9ea54b442010" x="45.6" y="64.8" width="21.1" height="20.54" transform="translate(69.6 -17.7) rotate(45)"/><path class="b8294c46-1779-41bc-8d23-20075ba99ed8" d="M111.6,117.5l.9-.2.8-.4a1.6,1.6,0,0,0,.6-.8,2,2,0,0,0,.2-1.1,2,2,0,0,0-.4-1.3,4.5,4.5,0,0,0-1-.9l-1.5-.6-1.6-.4-1.5-.5-1.6-.6-1.4-.9a3.4,3.4,0,0,1-.9-1.2,4.7,4.7,0,0,1-.5-1,4.9,4.9,0,0,1-.1-1.2,5.5,5.5,0,0,1,.3-1.7,4.4,4.4,0,0,1,1-1.5,4.2,4.2,0,0,1,1.7-1.1,7.6,7.6,0,0,1,2.7-.5l1.8.2,1.2.3.8.4.3.2a.4.4,0,0,1,.1.3v2.3h-.4a5.4,5.4,0,0,0-.5-1.1l-.8-.9a4.1,4.1,0,0,0-1.1-.7l-1.7-.2a2.9,2.9,0,0,0-1.9.6,1.7,1.7,0,0,0-.7,1.5,2.4,2.4,0,0,0,.4,1.5,5.3,5.3,0,0,0,1.1.9l1.7.5,2.2.6,1.7.4,1.4.6,1.2.7.9,1,.6,1.3a7,7,0,0,1,.2,1.6,4.6,4.6,0,0,1-.5,2,4.4,4.4,0,0,1-1.2,1.5,5.1,5.1,0,0,1-1.8.9,7.1,7.1,0,0,1-2.1.3h-1.7l-1.7-.5-1.7-.5-1.8-.6-1.9-.4a7.8,7.8,0,0,0-2.2-.2H99.3l-1.7.2-1.4.4-1.3.5c-.1.1-.3.1-.3,0v-.3a10.9,10.9,0,0,1,.8-1.5,6.8,6.8,0,0,1,1.2-1.2,4.8,4.8,0,0,1,1.6-.8,5.8,5.8,0,0,1,1.9-.3,10.9,10.9,0,0,1,2.6.3l2.1.8,1.8,1.1,1.7,1.1,1.6.8A3.5,3.5,0,0,0,111.6,117.5Z"/><path class="b8294c46-1779-41bc-8d23-20075ba99ed8" d="M122,111.7c-.1,0-.2.1-.2.3a10.3,10.3,0,0,0,.2,2,5.2,5.2,0,0,0,.7,1.5,2.7,2.7,0,0,0,1,.8,3.2,3.2,0,0,0,1.4.2h1.1l.9-.3.6-.3.3-.2h.3v.3l-.2.3-.4.5-.6.6-.8.5-1.2.4-1.4.2a6.5,6.5,0,0,1-2.1-.4,5,5,0,0,1-1.7-1.1,6.2,6.2,0,0,1-1.1-1.7,8.8,8.8,0,0,1-.3-2.4,6.1,6.1,0,0,1,.4-2.4,5.2,5.2,0,0,1,1.2-1.9,5.4,5.4,0,0,1,1.8-1.1,5.8,5.8,0,0,1,1.9-.4,3.8,3.8,0,0,1,1.6.3l1.3.7a2.4,2.4,0,0,1,.8.9,5.3,5.3,0,0,1,.6,1l.3.9a5.6,5.6,0,0,0,.1.7v.2H122Zm-.1-.7h2.9l.4-.2c.2-.1.2-.2.2-.5a2.5,2.5,0,0,0-.1-.8,1.6,1.6,0,0,0-.3-.9,1.5,1.5,0,0,0-.5-.6,1.1,1.1,0,0,0-.8-.3.7.7,0,0,0-.6.2l-.5.5-.3.7a1.9,1.9,0,0,0-.2.7,6.4,6.4,0,0,1-.2.7Z"/><path class="b8294c46-1779-41bc-8d23-20075ba99ed8" d="M134,116.1c0,.4,0,.6.2.8l.5.5.5.2h-5.7l.6-.2.4-.5c.2-.2.2-.4.2-.8V102.8c0-.1,0-.2-.1-.2h-1.2c0-.1,0-.2.2-.2l1-.3,1.1-.4,1-.5.9-.6h.4Z"/><path class="b8294c46-1779-41bc-8d23-20075ba99ed8" d="M146.7,117h.3a.2.2,0,0,1,0,.3c0,.1-.1.2-.2.3l-.4.4-.7.2h-.9a2.1,2.1,0,0,1-1.2-.3,1.4,1.4,0,0,1-.7-.6h-.3c0,.1-.1.1-.2.2l-.6.4-.8.3-1.1.2a4.8,4.8,0,0,1-1.8-.3l-1.1-.8a4.1,4.1,0,0,1-.7-1.1,4.3,4.3,0,0,1-.2-1.1,2.5,2.5,0,0,1,.6-1.7,3.2,3.2,0,0,1,1.3-1,3.8,3.8,0,0,1,1-.3h1l.9-.3a1.8,1.8,0,0,0,.9-.4,1.3,1.3,0,0,0,.6-.7,1.8,1.8,0,0,0,.2-1,2.2,2.2,0,0,0-.1-.8l-.3-.6-.4-.4h-.5c-.4,0-.6,0-.8.2l-.4.6c-.1.3-.1.6-.2.8a1.6,1.6,0,0,1-.4.7.6.6,0,0,1-.6.3l-.6.2h-.6l-.4-.3-.3-.5a4.3,4.3,0,0,1-.1-.5,1.9,1.9,0,0,1,.2-.7,1.3,1.3,0,0,1,.6-.7l1.3-.5,2-.2a7.3,7.3,0,0,1,2.2.3,3.6,3.6,0,0,1,1.5.8,2.5,2.5,0,0,1,.9,1.3,4.3,4.3,0,0,1,.3,1.7c0,.8-.1,1.5-.1,2.2s-.1,1.2-.1,1.7v1.3c.1.4.2.6.4.7h.6Zm-4.1-5.4h-.2c0,.1-.1.1-.1.2a.2.2,0,0,0-.2.2c-.2.2-.4.3-.5.5l-.5.4-.5.4-.4.4a2.2,2.2,0,0,0-.5.8,2.2,2.2,0,0,0-.1.9,1.3,1.3,0,0,0,.1.6.9.9,0,0,0,.3.6,1,1,0,0,0,.5.4l.7.2.7-.2.4-.4a1.7,1.7,0,0,0,.2-.5.8.8,0,0,0,.1-.4Z"/><path class="b8294c46-1779-41bc-8d23-20075ba99ed8" d="M167.3,117.7h.1a.1.1,0,0,1,.1.1h-6.1a.1.1,0,0,1,.1-.1h.4l.4-.2.4-.5c.1-.1.1-.4.1-.7v-6.5l-.3-.9-.6-.6a1.5,1.5,0,0,0-1-.2h-.8c-.2.2-.4.3-.5.5l-.3.6c0,.3-.1.5-.1.7v6.3a1.2,1.2,0,0,0,.2.7,1,1,0,0,0,.4.5l.4.2h.4s.1.1,0,.1h-5.5l.4-.2.4-.5c.1-.1.1-.4.1-.7v-5.5a3.1,3.1,0,0,0-.1-1,2.9,2.9,0,0,0-.2-.9l-.6-.6a1.6,1.6,0,0,0-1-.2h-.8a1.2,1.2,0,0,0-.5.5.9.9,0,0,0-.3.6c0,.3-.1.5-.1.7v6.3a1.2,1.2,0,0,0,.2.7,1,1,0,0,0,.4.5l.4.2h-5.1l.4-.2.3-.5a1.2,1.2,0,0,0,.2-.7v-6.7c0-.1,0-.2-.1-.2h-1.3a.2.2,0,0,1,.2-.2l1-.3,1.1-.4,1.1-.5.9-.6h.2c.1,0,.1,0,.1.2v.8l1.3-.7a4.8,4.8,0,0,1,1.8-.3h1.2l.9.3.7.5a2.1,2.1,0,0,1,.4.6l.6-.5.8-.5a2.9,2.9,0,0,1,1-.3l1.2-.2,1.6.2,1.1.6a2.1,2.1,0,0,1,.6.8,2.2,2.2,0,0,1,.3,1,3.4,3.4,0,0,1,.1,1,2.8,2.8,0,0,1,.1.9h0v4.7c0,.3,0,.6.1.7a1,1,0,0,0,.4.5l.4.2Z"/><path class="b8294c46-1779-41bc-8d23-20075ba99ed8" d="M178.7,117h.2a.2.2,0,0,1,0,.3c0,.1-.1.2-.2.3l-.4.4-.7.2h-.9a2.1,2.1,0,0,1-1.2-.3,1.4,1.4,0,0,1-.7-.6c0-.1-.1-.1-.2-.1h-.1c0,.1-.1.1-.2.2a1,1,0,0,1-.5.4l-.9.3-1.1.2a4.8,4.8,0,0,1-1.8-.3l-1.1-.8a4.1,4.1,0,0,1-.7-1.1,4.3,4.3,0,0,1-.2-1.1,2.5,2.5,0,0,1,.6-1.7,3.2,3.2,0,0,1,1.3-1l1-.3h1l.9-.3a1.3,1.3,0,0,0,.9-.4,1.3,1.3,0,0,0,.6-.7,1.8,1.8,0,0,0,.2-1,2.2,2.2,0,0,0-.1-.8.9.9,0,0,0-.3-.6c-.1-.1-.2-.3-.4-.4h-.5c-.4,0-.6,0-.8.2l-.4.6a1.9,1.9,0,0,1-.2.8,1.6,1.6,0,0,1-.4.7.6.6,0,0,1-.6.3l-.6.2h-.6l-.4-.3-.3-.5a4.3,4.3,0,0,1-.1-.5,1.9,1.9,0,0,1,.2-.7,1.2,1.2,0,0,1,.7-.7,3.3,3.3,0,0,1,1.2-.5l2-.2a7.3,7.3,0,0,1,2.2.3,4,4,0,0,1,1.6.8,3.2,3.2,0,0,1,.8,1.3,4.3,4.3,0,0,1,.3,1.7,15.5,15.5,0,0,1-.1,2.2c0,.6-.1,1.2-.1,1.7v1.3c.1.4.2.6.4.7h.7Zm-4.2-5.4h-.2c0,.1-.1.1-.1.2a.2.2,0,0,0-.2.2l-.5.5-.5.4-.5.4c-.1.1-.3.2-.4.4a2.2,2.2,0,0,0-.5.8,2.2,2.2,0,0,0-.1.9,1.3,1.3,0,0,0,.1.6l.3.6a1,1,0,0,0,.5.4l.7.2.7-.2c.2-.1.3-.3.4-.4a1.7,1.7,0,0,0,.2-.5.8.8,0,0,0,.1-.4Z"/><path class="b8294c46-1779-41bc-8d23-20075ba99ed8" d="M186.7,116.3h.3c0,.1.1.1,0,.2a1.8,1.8,0,0,1-.5.7l-.8.6-.9.3-1.1.2-1.1-.2-1.1-.5a4.1,4.1,0,0,1-.7-1.1,4.8,4.8,0,0,1-.3-1.8v-6.7h-.8a.3.3,0,0,1-.1-.2l.2-.3.3-.2h.4v-2.8c0-.2,0-.3.2-.3l.6-.2.7-.2.7-.3.6-.4h.3c.1.1.1.1.1.3v3.9h2.7a.8.8,0,0,1-.1.4h-2.6v7.3c0,.3,0,.5.1.6l.3.4.4.3h.5l1-.2Z"/><path class="b8294c46-1779-41bc-8d23-20075ba99ed8" d="M105.2,147.6H97.3a.1.1,0,0,1,.1-.1H98a.9.9,0,0,0,.6-.3l.6-.5a2.9,2.9,0,0,0,.2-.9V128.7a2.9,2.9,0,0,0-.2-.9l-.6-.5a.9.9,0,0,0-.6-.3h-.7a.1.1,0,0,1,.1-.1h7.4l-.7.3-.5.5a1.6,1.6,0,0,0-.3.9v17.1a1.6,1.6,0,0,0,.3.9l.5.5.7.3Z"/><path class="b8294c46-1779-41bc-8d23-20075ba99ed8" d="M119.1,142.3h.2v.2h-4.7v-1.3a.1.1,0,0,0-.1-.1h-.1l-.3.5-.7.5-1.1.5-1.5.2-1.7-.2a4.7,4.7,0,0,1-1.2-.7,3.9,3.9,0,0,1-1.4-2.2l-.3-1.2c0-.4-.1-.8-.1-1.1a8.6,8.6,0,0,1,.4-2.4,3.9,3.9,0,0,1,1-1.9A4.8,4.8,0,0,1,109,132a6.1,6.1,0,0,1,2.4-.4h1.3l.9.2.5.2h.4v-4.8a.2.2,0,0,0-.2-.2h-1l-.2-.2c0-.1.1-.1.2-.2l1-.3,1.1-.4,1.1-.5.9-.5h.2c.1,0,.1.1.1.2v15.8a1.5,1.5,0,0,0,.2.8l.4.5.5.2Zm-4.6-6.8a1.3,1.3,0,0,0-.1-.6,2.2,2.2,0,0,0-.1-.8l-.3-.7a2.1,2.1,0,0,0-.4-.6l-.6-.4h-.9l-1.2.3a3.9,3.9,0,0,0-.8,1,5.4,5.4,0,0,0-.4,1.5,9.9,9.9,0,0,0-.2,1.8v.7c0,.3.1.7.1,1a3.6,3.6,0,0,0,.2,1,3,3,0,0,0,.4,1l.7.7,1.1.2a2.5,2.5,0,0,0,1.3-.3,1.6,1.6,0,0,0,.7-.7,3.6,3.6,0,0,0,.4-.9c0-.3.1-.6.1-.9Z"/><path class="b8294c46-1779-41bc-8d23-20075ba99ed8" d="M132.6,142.3h.2v.2h-4.7v-.9a4.1,4.1,0,0,1-1.3.8,4,4,0,0,1-2,.4l-1.6-.2a2,2,0,0,1-1.1-.6,2.7,2.7,0,0,1-.7-.8,1.7,1.7,0,0,1-.3-1c-.1-.3-.1-.6-.2-1v-5.6a.8.8,0,0,0-.2-.7,1,1,0,0,0-.4-.5l-.5-.2h4.1c.2,0,.2.1.2.3v7a2.8,2.8,0,0,1,.1.9l.3.9c.2.2.4.5.6.6a1.7,1.7,0,0,0,1,.3,1.8,1.8,0,0,0,1.1-.3l.6-.7a3,3,0,0,0,.2-1,3.4,3.4,0,0,0,.1-1v-5.2a1.4,1.4,0,0,0-.2-.7l-.4-.5-.5-.2h4a.3.3,0,0,1,.3.3v8.5a1.5,1.5,0,0,0,.2.8l.4.5.5.2Z"/><path class="b8294c46-1779-41bc-8d23-20075ba99ed8" d="M138.1,140.7a1.1,1.1,0,0,0,.3.8l.4.4.6.3h.4v.2h-6.7v-.2h.5c.2-.1.4-.1.5-.3a1,1,0,0,0,.5-.4,1.1,1.1,0,0,0,.2-.8V127.3c0-.1,0-.2-.1-.2h-1.1v-.2c0-.1,0-.1.1-.2a1.9,1.9,0,0,0,1-.3l1.1-.4,1.1-.5.9-.5h.2c.1,0,.1.1.1.2Z"/><path class="b8294c46-1779-41bc-8d23-20075ba99ed8" d="M161.4,126.5c.2,0,.3.1.3.2v2.6l-.2.2h-.2l-.3-.5a2.1,2.1,0,0,0-.6-.8l-.9-.6a3.2,3.2,0,0,0-1.4-.3h-1a1,1,0,0,0-.8.3c-.3.1-.4.3-.6.5a1.9,1.9,0,0,0-.1.8v5.2h1.7a1.1,1.1,0,0,0,.8-.2,1,1,0,0,0,.6-.5l.3-.6c0-.1.1-.3.1-.4h.2a.1.1,0,0,0,.1.1v4.4h-.3a4.3,4.3,0,0,1-.1-.5l-.3-.5a1,1,0,0,0-.6-.5,1.1,1.1,0,0,0-.8-.3h-1.7v5.4c0,.4,0,.7.2.9l.6.6.6.2h.6v.2h-8v-.2h.1a.1.1,0,0,0,.1-.1h.5l.6-.2.6-.6a2,2,0,0,0,.2-.9V128.2c0-.2,0-.3-.2-.4H151l-1.1.3a3.8,3.8,0,0,0-1.3.8,6.8,6.8,0,0,0-1.2,1.2,9.1,9.1,0,0,0-1.1,1.6,15.4,15.4,0,0,0-.8,1.9,7.4,7.4,0,0,0-.1,3.8,8.3,8.3,0,0,0,.4,1.2l.5.7.2.3a.4.4,0,0,1,.1.3h-.7l-1-.2a3.1,3.1,0,0,1-1.2-.5l-1.2-.9a2.8,2.8,0,0,1-.9-1.4,4.6,4.6,0,0,1-.4-2.1,5.7,5.7,0,0,1,1.1-3.3,9.3,9.3,0,0,1,2.9-2.6,16.2,16.2,0,0,1,4.4-1.7,24.9,24.9,0,0,1,5.7-.6Z"/><path class="b8294c46-1779-41bc-8d23-20075ba99ed8" d="M167,140.7c0,.4,0,.6.2.8a1,1,0,0,0,.4.5l.5.2h.4v.2h-6.5v-.2h.4l.5-.2a1,1,0,0,0,.4-.5c.2-.2.2-.4.2-.8v-6.6c0-.1,0-.2-.1-.2h-1.1v-.4a2.3,2.3,0,0,0,1.1-.3l1-.4,1.1-.5.9-.5h.2l.2.2Zm.1-13.4-.4-.6-.7-.4-.7-.2-.8.2-.7.4-.4.6a2.2,2.2,0,0,0-.1.8,1.7,1.7,0,0,0,.1.7l.4.6.6.4.8.2.8-.2.6-.4.4-.6a1.9,1.9,0,0,0,.2-.8A1.7,1.7,0,0,0,167.1,127.3Z"/><path class="b8294c46-1779-41bc-8d23-20075ba99ed8" d="M176.4,140.9h.3a.2.2,0,0,1,0,.3l-.5.7-.7.5-1,.4h-2.2a2.1,2.1,0,0,1-1-.6,2.3,2.3,0,0,1-.8-1.1,4,4,0,0,1-.3-1.7v-6.7h-.8a.8.8,0,0,1,.1-.4h.7v-2.9c0-.2.1-.3.2-.3h.7l.7-.3.6-.3.7-.3h.2c.1,0,.1.1.1.2v4h2.7c.1,0,.1.1.1.2l-.2.3-.3.2h-2.3V140c0,.2.1.4.1.6l.3.4.5.2h1.4Z"/><path class="b8294c46-1779-41bc-8d23-20075ba99ed8" d="M184.6,131.6h.8l.6.3.3.5a1.3,1.3,0,0,1,.1.6,1,1,0,0,1-.4.9,1.3,1.3,0,0,1-1,.3h-.7l-.4-.4-.4-.4h-.8l-.4.5a2.9,2.9,0,0,0-.3,1.1,7.2,7.2,0,0,0-.2,1.7v4.1a1.5,1.5,0,0,0,.2.8.8.8,0,0,0,.4.4l.4.2h.4v.2h-6v-.2h.5l.4-.2.3-.4a1.5,1.5,0,0,0,.2-.8v-6.7c0-.1,0-.2-.1-.2h-1.1l-.2-.2.2-.2a1.9,1.9,0,0,0,1-.3l1.1-.4,1.1-.5.9-.5h.2c.1,0,.1.1.1.2v1.7A3.3,3.3,0,0,1,183,132,2.7,2.7,0,0,1,184.6,131.6Z"/><path class="b8294c46-1779-41bc-8d23-20075ba99ed8" d="M191.2,140.7c0,.4,0,.6.2.8a1,1,0,0,0,.4.5l.5.2h.4v.2h-6.5v-.2h.4l.5-.2.5-.5a1.7,1.7,0,0,0,.1-.8v-6.6c0-.1,0-.2-.1-.2h-1.1v-.2l.2-.2,1-.3,1.1-.4,1-.5.9-.5h.3v9.2Zm.1-13.4-.4-.6-.6-.4-.8-.2-.8.2a.9.9,0,0,0-.6.4l-.5.6a2.2,2.2,0,0,0-.1.8,1.7,1.7,0,0,0,.1.7l.4.6.6.4.8.2.8-.2.6-.4.5-.6a1.9,1.9,0,0,0,.1-.8A1.7,1.7,0,0,0,191.3,127.3Z"/></svg>