<svg width="73" height="73" viewBox="0 0 73 73" fill="none" xmlns="http://www.w3.org/2000/svg">
<g filter="url(#filter0_d_1012_2832)">
<circle cx="36.5" cy="28.5" r="20.5" fill="white"/>
</g>
<path d="M48 23.2492C47.1387 23.637 46.2252 23.8916 45.2898 24.0044C46.2641 23.4108 47.0123 22.4708 47.3645 21.3508C46.4383 21.9095 45.4249 22.3032 44.3682 22.5147C43.5074 21.5826 42.2811 21 40.9238 21C38.3178 21 36.205 23.1476 36.205 25.7964C36.205 26.1724 36.2467 26.5385 36.3271 26.8896C32.4055 26.6895 28.9285 24.78 26.6011 21.878C26.195 22.5864 25.9623 23.4105 25.9623 24.2894C25.9623 25.9535 26.7954 27.4216 28.0615 28.2818C27.3122 28.2579 26.5793 28.0522 25.9241 27.6818C25.9239 27.7019 25.9239 27.722 25.9239 27.7421C25.9239 30.0661 27.5504 32.0048 29.709 32.4454C29.0141 32.6375 28.2853 32.6656 27.5781 32.5276C28.1785 34.4332 29.9212 35.8199 31.986 35.8587C30.371 37.1452 28.3363 37.912 26.1257 37.912C25.7447 37.912 25.3692 37.8893 25 37.845C27.0882 39.2059 29.5686 40 32.2333 40C40.9129 40 45.659 32.6911 45.659 26.3527C45.659 26.1447 45.6545 25.9378 45.6454 25.7321C46.5692 25.0533 47.3665 24.2125 48 23.2492Z" fill="#55ACEE"/>
<defs>
<filter id="filter0_d_1012_2832" x="0" y="0" width="73" height="73" filterUnits="userSpaceOnUse" color-interpolation-filters="sRGB">
<feFlood flood-opacity="0" result="BackgroundImageFix"/>
<feColorMatrix in="SourceAlpha" type="matrix" values="0 0 0 0 0 0 0 0 0 0 0 0 0 0 0 0 0 0 127 0" result="hardAlpha"/>
<feOffset dy="8"/>
<feGaussianBlur stdDeviation="8"/>
<feComposite in2="hardAlpha" operator="out"/>
<feColorMatrix type="matrix" values="0 0 0 0 0 0 0 0 0 0 0 0 0 0 0 0 0 0 0.1 0"/>
<feBlend mode="normal" in2="BackgroundImageFix" result="effect1_dropShadow_1012_2832"/>
<feBlend mode="normal" in="SourceGraphic" in2="effect1_dropShadow_1012_2832" result="shape"/>
</filter>
</defs>
</svg>
