<svg width="16" height="16" viewBox="0 0 16 16" fill="none" xmlns="http://www.w3.org/2000/svg">
<mask id="mask0_3107_8616" style="mask-type:luminance" maskUnits="userSpaceOnUse" x="1" y="1" width="14" height="14">
<path fill-rule="evenodd" clip-rule="evenodd" d="M1.33594 1.33325H14.3205V14.3179H1.33594V1.33325Z" fill="white"/>
</mask>
<g mask="url(#mask0_3107_8616)">
<path fill-rule="evenodd" clip-rule="evenodd" d="M7.8286 2.33325C4.79994 2.33325 2.33594 4.79659 2.33594 7.82525C2.33594 10.8539 4.79994 13.3179 7.8286 13.3179C10.8566 13.3179 13.3206 10.8539 13.3206 7.82525C13.3206 4.79659 10.8566 2.33325 7.8286 2.33325ZM7.8286 14.3179C4.2486 14.3179 1.33594 11.4053 1.33594 7.82525C1.33594 4.24525 4.2486 1.33325 7.8286 1.33325C11.4086 1.33325 14.3206 4.24525 14.3206 7.82525C14.3206 11.4053 11.4086 14.3179 7.8286 14.3179Z" fill="#636772"/>
</g>
<mask id="mask1_3107_8616" style="mask-type:luminance" maskUnits="userSpaceOnUse" x="11" y="11" width="4" height="5">
<path fill-rule="evenodd" clip-rule="evenodd" d="M11.4922 11.8044H14.8416V15.1476H11.4922V11.8044Z" fill="white"/>
</mask>
<g mask="url(#mask1_3107_8616)">
<path fill-rule="evenodd" clip-rule="evenodd" d="M14.3417 15.1476C14.2144 15.1476 14.0864 15.0989 13.9884 15.0016L11.639 12.6589C11.4437 12.4636 11.443 12.1469 11.6384 11.9516C11.833 11.7549 12.1497 11.7563 12.3457 11.9503L14.695 14.2936C14.8904 14.4889 14.891 14.8049 14.6957 15.0003C14.5984 15.0989 14.4697 15.1476 14.3417 15.1476Z" fill="#636772"/>
</g>
</svg>
