<?xml version="1.0" encoding="utf-8"?>
<!-- Generator: Adobe Illustrator 21.0.0, SVG Export Plug-In . SVG Version: 6.00 Build 0)  -->
<svg version="1.1" id="Layer_1" xmlns="http://www.w3.org/2000/svg" xmlns:xlink="http://www.w3.org/1999/xlink" x="0px" y="0px"
	 viewBox="0 0 68.8 62.1" style="enable-background:new 0 0 68.8 62.1;" xml:space="preserve">
<style type="text/css">
	.st0{fill:#F7F9FE;}
	.st1{fill:#A0A0A0;}
	.st2{fill-rule:evenodd;clip-rule:evenodd;fill:#38717C;}
	.st3{fill-rule:evenodd;clip-rule:evenodd;fill:#FFFFFF;stroke:#C6C6C6;stroke-width:0.75;stroke-miterlimit:10;}
	.st4{fill:#E88053;}
	.st5{fill:#FFFFFF;fill-opacity:0;}
	.st6{opacity:0.357;fill:#FFFFFF;fill-opacity:0.3;enable-background:new    ;}
	.st7{opacity:0.9;fill:#FFFFFF;enable-background:new    ;}
	.st8{fill:#FFFFFF;fill-opacity:0.3;}
	.st9{fill:#FFFFFF;}
	.st10{enable-background:new    ;}
	.st11{opacity:0.6341;}
	.st12{fill:#262626;}
	.st13{clip-path:url(#SVGID_4_);fill-rule:evenodd;clip-rule:evenodd;fill:#FFFFFF;}
	.st14{clip-path:url(#SVGID_6_);}
	.st15{clip-path:url(#SVGID_8_);fill:#FFFFFF;}
	.st16{fill:#6B6B6B;}
	.st17{fill:#F86E57;}
	.st18{clip-path:url(#SVGID_12_);fill-rule:evenodd;clip-rule:evenodd;fill:#FFFFFF;}
	.st19{clip-path:url(#SVGID_14_);}
	.st20{clip-path:url(#SVGID_16_);fill:#FFFFFF;}
	.st21{clip-path:url(#SVGID_20_);fill-rule:evenodd;clip-rule:evenodd;fill:#FFFFFF;}
	.st22{clip-path:url(#SVGID_22_);}
	.st23{clip-path:url(#SVGID_24_);fill:#FFFFFF;}
	.st24{clip-path:url(#SVGID_28_);fill-rule:evenodd;clip-rule:evenodd;fill:#FFFFFF;}
	.st25{clip-path:url(#SVGID_30_);}
	.st26{clip-path:url(#SVGID_32_);fill:#FFFFFF;}
	.st27{clip-path:url(#SVGID_36_);fill-rule:evenodd;clip-rule:evenodd;fill:#FFFFFF;}
	.st28{clip-path:url(#SVGID_38_);}
	.st29{clip-path:url(#SVGID_40_);fill:#FFFFFF;}
	.st30{clip-path:url(#SVGID_44_);fill-rule:evenodd;clip-rule:evenodd;fill:#FFFFFF;}
	.st31{clip-path:url(#SVGID_46_);}
	.st32{clip-path:url(#SVGID_48_);fill:#FFFFFF;}
	.st33{clip-path:url(#SVGID_52_);fill-rule:evenodd;clip-rule:evenodd;fill:#FFFFFF;}
	.st34{clip-path:url(#SVGID_54_);}
	.st35{clip-path:url(#SVGID_56_);fill:#FFFFFF;}
	.st36{fill-rule:evenodd;clip-rule:evenodd;fill:#444141;}
	.st37{fill-rule:evenodd;clip-rule:evenodd;fill:#E88053;}
	.st38{clip-path:url(#SVGID_60_);fill-rule:evenodd;clip-rule:evenodd;fill:#FFFFFF;}
	.st39{clip-path:url(#SVGID_62_);}
	.st40{clip-path:url(#SVGID_64_);fill:#FFFFFF;}
	.st41{fill-rule:evenodd;clip-rule:evenodd;fill:#F7F9FE;}
	.st42{fill:#EEB830;}
	.st43{fill:#38717C;}
	.st44{fill:#F29E6E;}
	.st45{fill:#F7F9FE;stroke:#E88053;stroke-width:4;stroke-miterlimit:10;}
	.st46{fill:none;stroke:#E88053;stroke-miterlimit:10;}
	.st47{fill:#97999C;}
	.st48{fill:#636467;}
	.st49{fill:#F19623;}
	.st50{fill:#FBC40C;}
	.st51{fill:#EA7025;}
	.st52{fill:#4D5252;}
	.st53{fill:#027382;}
	.st54{fill:#0C6BC2;}
	.st55{clip-path:url(#SVGID_68_);fill:#027382;}
	.st56{fill:none;stroke:#F1F2F2;stroke-width:1.04;stroke-linecap:round;stroke-miterlimit:10;}
	.st57{fill:#C3DAED;}
	.st58{fill:#7A94D3;}
	.st59{fill:#F7B58E;}
	.st60{fill:#634087;}
	.st61{fill:#F39F85;}
	.st62{fill:#2B3D82;}
	.st63{filter:url(#Adobe_OpacityMaskFilter);}
	.st64{mask:url(#mask-7_1_);fill:#2B3D82;}
	.st65{filter:url(#Adobe_OpacityMaskFilter_1_);}
	.st66{mask:url(#mask-9_1_);fill:url(#Fill-169_3_);}
	.st67{filter:url(#Adobe_OpacityMaskFilter_2_);}
	.st68{mask:url(#mask-12_2_);fill:#634087;}
	.st69{fill:#213268;}
	.st70{fill:#465DA5;}
	.st71{filter:url(#Adobe_OpacityMaskFilter_3_);}
	.st72{mask:url(#mask-14_2_);fill:#8B588E;}
	.st73{fill:#01888B;}
	.st74{filter:url(#Adobe_OpacityMaskFilter_4_);}
	.st75{mask:url(#mask-16_2_);fill:#01888B;}
	.st76{filter:url(#Adobe_OpacityMaskFilter_5_);}
	.st77{mask:url(#mask-18_2_);fill:#63C0C4;}
	.st78{fill:#FFBB99;}
	.st79{fill:#57C4C4;}
	.st80{filter:url(#Adobe_OpacityMaskFilter_6_);}
	.st81{mask:url(#mask-20_2_);fill:url(#Fill-267_3_);}
	.st82{clip-path:url(#SVGID_70_);fill:#027382;}
	.st83{filter:url(#Adobe_OpacityMaskFilter_7_);}
	.st84{mask:url(#mask-7_2_);fill:#2B3D82;}
	.st85{filter:url(#Adobe_OpacityMaskFilter_8_);}
	.st86{mask:url(#mask-9_2_);fill:url(#Fill-169_4_);}
	.st87{filter:url(#Adobe_OpacityMaskFilter_9_);}
	.st88{mask:url(#mask-12_1_);fill:#634087;}
	.st89{filter:url(#Adobe_OpacityMaskFilter_10_);}
	.st90{mask:url(#mask-14_1_);fill:#8B588E;}
	.st91{filter:url(#Adobe_OpacityMaskFilter_11_);}
	.st92{mask:url(#mask-16_1_);fill:#01888B;}
	.st93{filter:url(#Adobe_OpacityMaskFilter_12_);}
	.st94{mask:url(#mask-18_1_);fill:#63C0C4;}
	.st95{filter:url(#Adobe_OpacityMaskFilter_13_);}
	.st96{mask:url(#mask-20_1_);fill:url(#Fill-267_4_);}
	.st97{clip-path:url(#SVGID_72_);fill:#38717C;}
	.st98{opacity:0.1;}
	.st99{fill:#2D2D2D;}
	.st100{fill:#A7A9AC;}
	.st101{fill:#BCBEC0;}
	.st102{fill:#44448C;}
	.st103{fill:#77BC4A;}
	.st104{opacity:5.000000e-02;fill:#262223;}
	.st105{fill:#F7C39F;}
	.st106{fill:none;stroke:#D84439;stroke-width:0.9952;stroke-linecap:round;stroke-miterlimit:10;}
	.st107{fill:#FB7A68;}
	.st108{fill:#D84439;}
	.st109{fill:#4F4A97;}
	.st110{fill:#F4633B;}
	.st111{opacity:0.1;fill:#262223;}
	.st112{opacity:0.1;fill:#9E6A43;}
	.st113{fill:#434342;}
	.st114{fill:#D6D9DB;}
	.st115{fill:#FCCA97;}
	.st116{opacity:0.5;fill:#D89C73;}
	.st117{opacity:5.000000e-02;}
	.st118{fill:#EDE674;}
	.st119{fill:#38281A;}
	.st120{fill:#D89C73;}
	.st121{fill:#473522;}
	.st122{fill:#E6B289;}
	.st123{fill:#BD6A9E;}
	.st124{fill:#3C3C3B;}
	.st125{fill:#E18B09;}
	.st126{fill:#E6E7E8;}
	.st127{fill:#8FD2EF;}
	.st128{fill:#88CBE2;}
	.st129{fill:#5E443F;}
	.st130{fill:#FFB380;}
	.st131{fill:#F2A672;}
	.st132{fill:#A4DFFF;}
	.st133{fill:#1559AA;}
	.st134{opacity:0.1;fill:#BA6536;}
	.st135{fill:#D89832;}
	.st136{opacity:7.000000e-02;}
	.st137{fill:#2A2A2B;}
	.st138{fill:#323233;}
	.st139{fill:#DBDDD9;}
	.st140{fill:#E84D4D;}
	.st141{fill:#F4BE8E;}
	.st142{fill:#D1D3D4;}
	.st143{fill:#2A1B40;}
	.st144{opacity:0.5;fill:#EFB378;}
	.st145{fill:#7F583D;}
	.st146{fill:#005274;}
	.st147{fill:#F96767;}
	.st148{clip-path:url(#SVGID_74_);fill:#38717C;}
	.st149{fill-rule:evenodd;clip-rule:evenodd;fill:none;stroke:#C6C6C6;stroke-width:0.5;stroke-miterlimit:10;}
</style>
<g>
	<g>
		<g>
			<g>
				<g>
					<g>
						<g>
							<g>
								<g>
									<g>
										
											<ellipse transform="matrix(0.1029 -0.9947 0.9947 0.1029 -3.5076 63.4669)" class="st42" cx="33.4" cy="33.7" rx="28.4" ry="28.4"/>
									</g>
								</g>
							</g>
						</g>
					</g>
				</g>
			</g>
		</g>
	</g>
	<g>
		<g>
			<path class="st43" d="M56.1,16.2c-0.6,0-1.1-0.5-1.1-1.1V5.9c0-2.1-1.7-3.7-3.7-3.7H15.8c-1,0-1.9,0.4-2.6,1.1
				c-0.7,0.7-1.1,1.7-1.1,2.7C12.1,6.5,11.6,7,11,7S9.9,6.5,9.9,5.9v0c0,0,0,0,0,0c0-1.5,0.6-3,1.7-4.1C12.7,0.6,14.2,0,15.8,0h35.4
				c1.6,0,3.1,0.6,4.2,1.7s1.7,2.6,1.7,4.2v9.2C57.1,15.7,56.7,16.2,56.1,16.2z"/>
		</g>
		<g>
			<path class="st43" d="M56.1,59.2c-0.6,0-1.1-0.5-1.1-1.1V41.6c0-0.6,0.5-1.1,1.1-1.1c0.6,0,1.1,0.5,1.1,1.1v16.5
				C57.1,58.7,56.7,59.2,56.1,59.2z"/>
		</g>
		<g>
			<path class="st43" d="M11,59.2c-0.6,0-1.1-0.5-1.1-1.1v-31c0-0.6,0.5-1.1,1.1-1.1s1.1,0.5,1.1,1.1v31
				C12.1,58.7,11.6,59.2,11,59.2z"/>
		</g>
		<g>
			<path class="st43" d="M40.8,8.6H29.9c-0.6,0-1.1-0.5-1.1-1.1s0.5-1.1,1.1-1.1h10.9c0.6,0,1.1,0.5,1.1,1.1S41.4,8.6,40.8,8.6z"/>
		</g>
		<g>
			<path class="st43" d="M26.5,8.7C26.5,8.7,26.4,8.7,26.5,8.7c-0.1,0-0.1,0-0.1,0c0,0,0,0-0.1,0c0,0,0,0-0.1,0c0,0,0,0-0.1,0
				c0,0,0,0-0.1,0c0,0,0,0-0.1,0c0,0,0,0-0.1,0c0,0,0,0-0.1,0c0,0,0,0-0.1,0c0,0,0,0-0.1,0c0,0,0,0-0.1,0c0,0,0,0,0,0c0,0,0,0,0,0
				c0,0,0,0,0,0c0,0,0,0,0,0c0,0,0,0,0,0c0,0,0,0,0,0c0,0,0,0,0,0c0,0,0,0,0,0c0,0,0,0,0-0.1c0,0,0,0,0-0.1c0,0,0,0,0-0.1
				c0,0,0,0,0-0.1c0,0,0,0,0-0.1c0,0,0,0,0-0.1c0,0,0,0,0-0.1c0,0,0,0,0-0.1c0,0,0,0,0-0.1c0,0,0,0,0-0.1c0,0,0,0,0-0.1
				c0,0,0,0,0-0.1c0,0,0,0,0-0.1c0,0,0,0,0-0.1c0,0,0,0,0-0.1c0,0,0,0,0-0.1c0,0,0,0,0-0.1c0,0,0,0,0-0.1c0,0,0,0,0-0.1
				c0,0,0,0,0-0.1c0,0,0,0,0-0.1c0,0,0,0,0-0.1c0,0,0,0,0-0.1c0,0,0,0,0-0.1c0,0,0,0,0,0c0,0,0,0,0,0c0,0,0,0,0,0c0,0,0,0,0,0
				c0,0,0,0,0,0c0,0,0,0,0,0c0,0,0,0,0,0c0,0,0,0,0,0c0,0,0,0,0.1,0c0,0,0,0,0.1,0c0,0,0,0,0.1,0c0,0,0,0,0.1,0c0,0,0,0,0.1,0
				c0,0,0,0,0.1,0c0,0,0,0,0.1,0s0,0,0.1,0c0,0,0,0,0.1,0c0,0,0,0,0.1,0c0,0,0,0,0.1,0c0,0,0.1,0,0.1,0c0,0,0,0,0.1,0c0,0,0,0,0.1,0
				c0,0,0,0,0.1,0c0,0,0,0,0.1,0c0,0,0,0,0.1,0c0,0,0,0,0.1,0c0,0,0,0,0.1,0c0,0,0,0,0.1,0c0,0,0,0,0.1,0c0,0,0,0,0.1,0
				c0,0,0,0,0.1,0c0,0,0,0,0,0c0,0,0,0,0,0c0,0,0,0,0,0c0,0,0,0,0,0c0,0,0,0,0,0c0,0,0,0,0,0c0,0,0,0,0,0c0,0,0,0,0,0c0,0,0,0,0,0.1
				c0,0,0,0,0,0.1c0,0,0,0,0,0.1c0,0,0,0,0,0.1c0,0,0,0,0,0.1c0,0,0,0,0,0.1c0,0,0,0,0,0.1c0,0,0,0,0,0.1c0,0,0,0,0,0.1
				c0,0,0,0,0,0.1c0,0,0,0,0,0.1c0,0,0,0,0,0.1c0,0,0,0,0,0.1c0,0,0,0,0,0.1c0,0,0,0,0,0.1c0,0,0,0,0,0.1c0,0,0,0,0,0.1
				c0,0,0,0,0,0.1c0,0,0,0,0,0.1c0,0,0,0,0,0.1c0,0,0,0,0,0.1c0,0,0,0,0,0.1c0,0,0,0,0,0.1c0,0,0,0,0,0.1c0,0,0,0,0,0c0,0,0,0,0,0
				c0,0,0,0,0,0c0,0,0,0,0,0c0,0,0,0,0,0c0,0,0,0,0,0c0,0,0,0,0,0c0,0,0,0,0,0c0,0,0,0-0.1,0c0,0,0,0-0.1,0c0,0,0,0-0.1,0
				c0,0,0,0-0.1,0c0,0,0,0-0.1,0c0,0,0,0-0.1,0c0,0,0,0-0.1,0c0,0,0,0-0.1,0c0,0,0,0-0.1,0c0,0,0,0-0.1,0
				C26.6,8.7,26.6,8.7,26.5,8.7C26.5,8.7,26.5,8.7,26.5,8.7z"/>
		</g>
		<g>
			<path class="st43" d="M33.5,42.7c-1.2,0-2.4-0.2-3.5-0.7c-1.1-0.5-2-1.1-2.9-1.9c-0.8-0.8-1.5-1.8-1.9-2.9
				c-0.5-1.1-0.7-2.3-0.7-3.5c0-1.2,0.2-2.4,0.7-3.5c0.5-1.1,1.1-2,1.9-2.9c0.8-0.8,1.8-1.5,2.9-1.9c1.1-0.5,2.3-0.7,3.5-0.7
				c1.2,0,2.4,0.2,3.5,0.7c1.1,0.5,2,1.1,2.9,1.9c0.8,0.8,1.5,1.8,1.9,2.9c0.5,1.1,0.7,2.3,0.7,3.5c0,1.2-0.2,2.4-0.7,3.5
				c-0.5,1.1-1.1,2-1.9,2.9c-0.8,0.8-1.8,1.5-2.9,1.9C35.9,42.4,34.7,42.7,33.5,42.7z M33.5,26.9c-1.8,0-3.5,0.7-4.8,2
				c-1.3,1.3-2,3-2,4.8c0,1.8,0.7,3.5,2,4.8c1.3,1.3,3,2,4.8,2c1.8,0,3.5-0.7,4.8-2c1.3-1.3,2-3,2-4.8c0-1.8-0.7-3.5-2-4.8
				C37.1,27.6,35.3,26.9,33.5,26.9z"/>
		</g>
		<path class="st44" d="M33.5,26.9c-1.8,0-3.5,0.7-4.8,2c-1.3,1.3-2,3-2,4.8c0,1.8,0.7,3.5,2,4.8c1.3,1.3,3,2,4.8,2
			c1.8,0,3.5-0.7,4.8-2c1.3-1.3,2-3,2-4.8c0-1.8-0.7-3.5-2-4.8C37.1,27.6,35.3,26.9,33.5,26.9z"/>
		<g>
			<path class="st43" d="M46.4,58.8c-0.6,0-1.1-0.5-1.1-1.1v-4.5c0-3.7-2.7-6.8-5.9-6.8H28.1c-3.3,0-5.9,3-5.9,6.8v4.5
				c0,0.6-0.5,1.1-1.1,1.1S20,58.3,20,57.7v-4.5c0-2.4,0.8-4.6,2.3-6.3c0.7-0.8,1.6-1.5,2.6-1.9c1-0.5,2.1-0.7,3.2-0.7h11.3
				c1.1,0,2.2,0.2,3.2,0.7c1,0.5,1.8,1.1,2.6,1.9c1.5,1.7,2.3,3.9,2.3,6.3v4.5C47.5,58.3,47,58.8,46.4,58.8z"/>
		</g>
		<g>
			<path class="st43" d="M14.2,23.5H1.1C0.5,23.5,0,23,0,22.4V10.7c0-0.6,0.5-1.1,1.1-1.1h13.1c0.6,0,1.1,0.5,1.1,1.1v11.7
				C15.2,23,14.8,23.5,14.2,23.5z M2.2,21.3h10.9v-9.5H2.2V21.3z"/>
		</g>
		<g>
			<path class="st43" d="M20.9,23.6c-0.2,0-0.3,0-0.5-0.1l-6.7-3.4c-0.4-0.2-0.6-0.6-0.6-1v-5c0-0.4,0.2-0.8,0.6-1l6.7-3.4
				c0.3-0.2,0.7-0.2,1.1,0c0.3,0.2,0.5,0.5,0.5,0.9v11.8c0,0.4-0.2,0.7-0.5,0.9C21.3,23.5,21.1,23.6,20.9,23.6z"/>
		</g>
		<g>
			<path class="st43" d="M63.3,39.3c-0.3,0-0.6-0.1-0.8-0.3l-4.2-4.2h-7.3c-1.2,0-2.2-1-2.2-2.2V21.3c0-1.2,1-2.2,2.2-2.2h15.4
				c1.2,0,2.2,1,2.2,2.2v11.3c0,1.2-1,2.2-2.2,2.2h-2.1v3.4c0,0.4-0.3,0.8-0.7,1C63.6,39.3,63.4,39.3,63.3,39.3z M51.1,21.2
				C51,21.2,51,21.3,51.1,21.2L51,32.6c0,0,0,0.1,0.1,0.1h7.7c0.3,0,0.6,0.1,0.8,0.3l2.6,2.6v-1.9c0-0.6,0.5-1.1,1.1-1.1h3.2
				c0,0,0.1,0,0.1-0.1V21.3c0,0,0-0.1-0.1-0.1H51.1z"/>
		</g>
		<path class="st44" d="M51.1,21.2C51,21.2,51,21.3,51.1,21.2L51,32.6c0,0,0,0.1,0.1,0.1h7.7c0.3,0,0.6,0.1,0.8,0.3l2.6,2.6v-1.9
			c0-0.6,0.5-1.1,1.1-1.1h3.2c0,0,0.1,0,0.1-0.1V21.3c0,0,0-0.1-0.1-0.1H51.1z"/>
		<g>
			<path class="st43" d="M63.8,26.2h-10c-0.6,0-1.1-0.5-1.1-1.1s0.5-1.1,1.1-1.1h10c0.6,0,1.1,0.5,1.1,1.1S64.4,26.2,63.8,26.2z"/>
		</g>
		<g>
			<path class="st43" d="M62.9,29.6h-8.1c-0.6,0-1.1-0.5-1.1-1.1s0.5-1.1,1.1-1.1h8.1c0.6,0,1.1,0.5,1.1,1.1S63.5,29.6,62.9,29.6z"
				/>
		</g>
	</g>
	<rect x="2.2" y="11.8" class="st44" width="10.9" height="9.5"/>
	<polygon class="st44" points="15.2,18.4 19.8,20.7 19.8,12.5 15.2,14.7 	"/>
</g>
</svg>
