<?xml version="1.0" encoding="utf-8"?>
<!-- Generator: Adobe Illustrator 21.0.0, SVG Export Plug-In . SVG Version: 6.00 Build 0)  -->
<svg version="1.1" id="Layer_1" xmlns="http://www.w3.org/2000/svg" xmlns:xlink="http://www.w3.org/1999/xlink" x="0px" y="0px"
	 viewBox="0 0 72.3 68.7" style="enable-background:new 0 0 72.3 68.7;" xml:space="preserve">
<style type="text/css">
	.st0{fill:#F7F9FE;}
	.st1{fill:#A0A0A0;}
	.st2{fill-rule:evenodd;clip-rule:evenodd;fill:#38717C;}
	.st3{fill-rule:evenodd;clip-rule:evenodd;fill:#FFFFFF;stroke:#C6C6C6;stroke-width:0.75;stroke-miterlimit:10;}
	.st4{fill:#E88053;}
	.st5{fill:#FFFFFF;fill-opacity:0;}
	.st6{opacity:0.357;fill:#FFFFFF;fill-opacity:0.3;enable-background:new    ;}
	.st7{opacity:0.9;fill:#FFFFFF;enable-background:new    ;}
	.st8{fill:#FFFFFF;fill-opacity:0.3;}
	.st9{fill:#FFFFFF;}
	.st10{enable-background:new    ;}
	.st11{opacity:0.6341;}
	.st12{fill:#262626;}
	.st13{clip-path:url(#SVGID_4_);fill-rule:evenodd;clip-rule:evenodd;fill:#FFFFFF;}
	.st14{clip-path:url(#SVGID_6_);}
	.st15{clip-path:url(#SVGID_8_);fill:#FFFFFF;}
	.st16{fill:#6B6B6B;}
	.st17{fill:#F86E57;}
	.st18{clip-path:url(#SVGID_12_);fill-rule:evenodd;clip-rule:evenodd;fill:#FFFFFF;}
	.st19{clip-path:url(#SVGID_14_);}
	.st20{clip-path:url(#SVGID_16_);fill:#FFFFFF;}
	.st21{clip-path:url(#SVGID_20_);fill-rule:evenodd;clip-rule:evenodd;fill:#FFFFFF;}
	.st22{clip-path:url(#SVGID_22_);}
	.st23{clip-path:url(#SVGID_24_);fill:#FFFFFF;}
	.st24{clip-path:url(#SVGID_28_);fill-rule:evenodd;clip-rule:evenodd;fill:#FFFFFF;}
	.st25{clip-path:url(#SVGID_30_);}
	.st26{clip-path:url(#SVGID_32_);fill:#FFFFFF;}
	.st27{clip-path:url(#SVGID_36_);fill-rule:evenodd;clip-rule:evenodd;fill:#FFFFFF;}
	.st28{clip-path:url(#SVGID_38_);}
	.st29{clip-path:url(#SVGID_40_);fill:#FFFFFF;}
	.st30{clip-path:url(#SVGID_44_);fill-rule:evenodd;clip-rule:evenodd;fill:#FFFFFF;}
	.st31{clip-path:url(#SVGID_46_);}
	.st32{clip-path:url(#SVGID_48_);fill:#FFFFFF;}
	.st33{clip-path:url(#SVGID_52_);fill-rule:evenodd;clip-rule:evenodd;fill:#FFFFFF;}
	.st34{clip-path:url(#SVGID_54_);}
	.st35{clip-path:url(#SVGID_56_);fill:#FFFFFF;}
	.st36{fill-rule:evenodd;clip-rule:evenodd;fill:#444141;}
	.st37{fill-rule:evenodd;clip-rule:evenodd;fill:#E88053;}
	.st38{clip-path:url(#SVGID_60_);fill-rule:evenodd;clip-rule:evenodd;fill:#FFFFFF;}
	.st39{clip-path:url(#SVGID_62_);}
	.st40{clip-path:url(#SVGID_64_);fill:#FFFFFF;}
	.st41{fill-rule:evenodd;clip-rule:evenodd;fill:#F7F9FE;}
	.st42{fill:#EEB830;}
	.st43{fill:#38717C;}
	.st44{fill:#F29E6E;}
	.st45{fill:#F7F9FE;stroke:#E88053;stroke-width:4;stroke-miterlimit:10;}
	.st46{fill:none;stroke:#E88053;stroke-miterlimit:10;}
	.st47{fill:#97999C;}
	.st48{fill:#636467;}
	.st49{fill:#F19623;}
	.st50{fill:#FBC40C;}
	.st51{fill:#EA7025;}
	.st52{fill:#4D5252;}
	.st53{fill:#027382;}
	.st54{fill:#0C6BC2;}
	.st55{clip-path:url(#SVGID_68_);fill:#027382;}
	.st56{fill:none;stroke:#F1F2F2;stroke-width:1.04;stroke-linecap:round;stroke-miterlimit:10;}
	.st57{fill:#C3DAED;}
	.st58{fill:#7A94D3;}
	.st59{fill:#F7B58E;}
	.st60{fill:#634087;}
	.st61{fill:#F39F85;}
	.st62{fill:#2B3D82;}
	.st63{filter:url(#Adobe_OpacityMaskFilter);}
	.st64{mask:url(#mask-7_1_);fill:#2B3D82;}
	.st65{filter:url(#Adobe_OpacityMaskFilter_1_);}
	.st66{mask:url(#mask-9_1_);fill:url(#Fill-169_3_);}
	.st67{filter:url(#Adobe_OpacityMaskFilter_2_);}
	.st68{mask:url(#mask-12_2_);fill:#634087;}
	.st69{fill:#213268;}
	.st70{fill:#465DA5;}
	.st71{filter:url(#Adobe_OpacityMaskFilter_3_);}
	.st72{mask:url(#mask-14_2_);fill:#8B588E;}
	.st73{fill:#01888B;}
	.st74{filter:url(#Adobe_OpacityMaskFilter_4_);}
	.st75{mask:url(#mask-16_2_);fill:#01888B;}
	.st76{filter:url(#Adobe_OpacityMaskFilter_5_);}
	.st77{mask:url(#mask-18_2_);fill:#63C0C4;}
	.st78{fill:#FFBB99;}
	.st79{fill:#57C4C4;}
	.st80{filter:url(#Adobe_OpacityMaskFilter_6_);}
	.st81{mask:url(#mask-20_2_);fill:url(#Fill-267_3_);}
	.st82{clip-path:url(#SVGID_70_);fill:#027382;}
	.st83{filter:url(#Adobe_OpacityMaskFilter_7_);}
	.st84{mask:url(#mask-7_2_);fill:#2B3D82;}
	.st85{filter:url(#Adobe_OpacityMaskFilter_8_);}
	.st86{mask:url(#mask-9_2_);fill:url(#Fill-169_4_);}
	.st87{filter:url(#Adobe_OpacityMaskFilter_9_);}
	.st88{mask:url(#mask-12_1_);fill:#634087;}
	.st89{filter:url(#Adobe_OpacityMaskFilter_10_);}
	.st90{mask:url(#mask-14_1_);fill:#8B588E;}
	.st91{filter:url(#Adobe_OpacityMaskFilter_11_);}
	.st92{mask:url(#mask-16_1_);fill:#01888B;}
	.st93{filter:url(#Adobe_OpacityMaskFilter_12_);}
	.st94{mask:url(#mask-18_1_);fill:#63C0C4;}
	.st95{filter:url(#Adobe_OpacityMaskFilter_13_);}
	.st96{mask:url(#mask-20_1_);fill:url(#Fill-267_4_);}
	.st97{clip-path:url(#SVGID_72_);fill:#38717C;}
	.st98{opacity:0.1;}
	.st99{fill:#2D2D2D;}
	.st100{fill:#A7A9AC;}
	.st101{fill:#BCBEC0;}
	.st102{fill:#44448C;}
	.st103{fill:#77BC4A;}
	.st104{opacity:5.000000e-02;fill:#262223;}
	.st105{fill:#F7C39F;}
	.st106{fill:none;stroke:#D84439;stroke-width:0.9952;stroke-linecap:round;stroke-miterlimit:10;}
	.st107{fill:#FB7A68;}
	.st108{fill:#D84439;}
	.st109{fill:#4F4A97;}
	.st110{fill:#F4633B;}
	.st111{opacity:0.1;fill:#262223;}
	.st112{opacity:0.1;fill:#9E6A43;}
	.st113{fill:#434342;}
	.st114{fill:#D6D9DB;}
	.st115{fill:#FCCA97;}
	.st116{opacity:0.5;fill:#D89C73;}
	.st117{opacity:5.000000e-02;}
	.st118{fill:#EDE674;}
	.st119{fill:#38281A;}
	.st120{fill:#D89C73;}
	.st121{fill:#473522;}
	.st122{fill:#E6B289;}
	.st123{fill:#BD6A9E;}
	.st124{fill:#3C3C3B;}
	.st125{fill:#E18B09;}
	.st126{fill:#E6E7E8;}
	.st127{fill:#8FD2EF;}
	.st128{fill:#88CBE2;}
	.st129{fill:#5E443F;}
	.st130{fill:#FFB380;}
	.st131{fill:#F2A672;}
	.st132{fill:#A4DFFF;}
	.st133{fill:#1559AA;}
	.st134{opacity:0.1;fill:#BA6536;}
	.st135{fill:#D89832;}
	.st136{opacity:7.000000e-02;}
	.st137{fill:#2A2A2B;}
	.st138{fill:#323233;}
	.st139{fill:#DBDDD9;}
	.st140{fill:#E84D4D;}
	.st141{fill:#F4BE8E;}
	.st142{fill:#D1D3D4;}
	.st143{fill:#2A1B40;}
	.st144{opacity:0.5;fill:#EFB378;}
	.st145{fill:#7F583D;}
	.st146{fill:#005274;}
	.st147{fill:#F96767;}
	.st148{clip-path:url(#SVGID_74_);fill:#38717C;}
	.st149{fill-rule:evenodd;clip-rule:evenodd;fill:none;stroke:#C6C6C6;stroke-width:0.5;stroke-miterlimit:10;}
</style>
<g>
	<g>
		<g>
			<g>
				
					<ellipse transform="matrix(0.1029 -0.9947 0.9947 0.1029 -2.1045 65.0802)" class="st42" cx="35" cy="33.7" rx="26.7" ry="26.7"/>
			</g>
		</g>
		<g>
			<path class="st53" d="M60.8,11.2c-0.1,0-0.3-0.1-0.4-0.2c-0.9-1-1.9-2-2.9-2.9c-0.2-0.2-0.2-0.5,0-0.7c0.2-0.2,0.5-0.2,0.7,0
				c1.1,0.9,2.1,1.9,3,3c0.2,0.2,0.2,0.5,0,0.7C61,11.2,60.9,11.2,60.8,11.2z M54.5,5.7c-0.1,0-0.2,0-0.3-0.1
				c-1.1-0.8-2.3-1.5-3.5-2.1c-0.3-0.1-0.4-0.4-0.2-0.7c0.1-0.3,0.4-0.4,0.7-0.2c1.2,0.6,2.5,1.4,3.6,2.2c0.2,0.2,0.3,0.5,0.1,0.7
				C54.8,5.7,54.7,5.7,54.5,5.7z M47.2,1.9c-0.1,0-0.1,0-0.2,0c-0.9-0.3-1.7-0.6-2.6-0.9c-0.3-0.1-0.4-0.4-0.4-0.6s0.4-0.4,0.6-0.4
				c0.9,0.3,1.8,0.6,2.7,0.9c0.3,0.1,0.4,0.4,0.3,0.7C47.6,1.8,47.4,1.9,47.2,1.9z"/>
		</g>
		<g>
			<path class="st53" d="M35,68.7c-0.5,0-1,0-1.4,0c-0.3,0-0.5-0.3-0.5-0.5c0-0.3,0.3-0.5,0.5-0.5c1.4,0.1,2.7,0,4.1-0.1
				c0.3,0,0.5,0.2,0.6,0.5c0,0.3-0.2,0.5-0.5,0.6C36.9,68.7,36,68.7,35,68.7z M29.5,68.3C29.5,68.3,29.4,68.3,29.5,68.3
				c-1.1-0.2-2.2-0.4-3.2-0.6c-0.3-0.1-0.7-0.2-1-0.3c-0.3-0.1-0.4-0.4-0.4-0.6c0.1-0.3,0.4-0.4,0.6-0.4c0.3,0.1,0.7,0.2,1,0.3
				c1,0.3,2,0.5,3,0.6c0.3,0,0.5,0.3,0.4,0.6C30,68.1,29.7,68.3,29.5,68.3z M41.9,68.1c-0.2,0-0.5-0.2-0.5-0.4
				c-0.1-0.3,0.1-0.6,0.4-0.6c1.3-0.3,2.7-0.6,4-1.1c0.3-0.1,0.6,0.1,0.7,0.3c0.1,0.3-0.1,0.6-0.3,0.7c-1.3,0.4-2.7,0.8-4.1,1.1
				C42,68.1,41.9,68.1,41.9,68.1z M49.8,65.4c-0.2,0-0.4-0.1-0.5-0.3c-0.1-0.3,0-0.6,0.2-0.7c1.2-0.6,2.4-1.2,3.6-2
				c0.2-0.2,0.6-0.1,0.7,0.2c0.2,0.2,0.1,0.6-0.2,0.7c-1.2,0.7-2.4,1.4-3.7,2C49.9,65.4,49.8,65.4,49.8,65.4z M56.8,61
				c-0.2,0-0.3-0.1-0.4-0.2c-0.2-0.2-0.1-0.6,0.1-0.7c1.1-0.9,2.1-1.8,3-2.8c0.2-0.2,0.5-0.2,0.7,0c0.2,0.2,0.2,0.5,0,0.7
				c-1,1-2,2-3.1,2.9C57,61,56.9,61,56.8,61z"/>
		</g>
		<g>
			<path class="st53" d="M0.5,35.3c-0.3,0-0.5-0.2-0.5-0.5c0-0.4,0-0.7,0-1.1c0-1,0-2.1,0.1-3.1c0-0.3,0.3-0.5,0.6-0.5
				c0.3,0,0.5,0.3,0.5,0.6c-0.1,1-0.1,2-0.1,3c0,0.4,0,0.7,0,1.1C1.1,35.1,0.8,35.3,0.5,35.3C0.5,35.3,0.5,35.3,0.5,35.3z M1.3,27
				c0,0-0.1,0-0.1,0c-0.3-0.1-0.5-0.3-0.4-0.6c0.3-1.4,0.7-2.7,1.1-4.1C2,22.1,2.3,21.9,2.5,22c0.3,0.1,0.4,0.4,0.3,0.7
				c-0.4,1.3-0.8,2.6-1.1,3.9C1.7,26.9,1.5,27,1.3,27z M4,19.2c-0.1,0-0.2,0-0.2-0.1c-0.3-0.1-0.4-0.4-0.2-0.7
				c0.6-1.3,1.3-2.5,2.1-3.7c0.2-0.2,0.5-0.3,0.7-0.2c0.2,0.2,0.3,0.5,0.2,0.7c-0.7,1.1-1.4,2.3-2,3.6C4.3,19.1,4.2,19.2,4,19.2z"/>
		</g>
	</g>
	<g>
		<g>
			<path class="st9" d="M36.7,29.1H15.9c-2,0-3.7-1.6-3.7-3.7V4.7c0-2,1.6-3.7,3.7-3.7h20.8c2,0,3.7,1.6,3.7,3.7v20.8
				C40.4,27.5,38.7,29.1,36.7,29.1z"/>
			<path class="st53" d="M37.1,29.6H15.5c-2,0-3.7-1.7-3.7-3.7V4.2c0-2,1.7-3.7,3.7-3.7h21.6c2,0,3.7,1.7,3.7,3.7v21.6
				C40.8,27.9,39.2,29.6,37.1,29.6z M15.5,1.4c-1.6,0-2.8,1.3-2.8,2.8v21.6c0,1.6,1.3,2.8,2.8,2.8h21.6c1.6,0,2.8-1.3,2.8-2.8V4.2
				c0-1.6-1.3-2.8-2.8-2.8H15.5z"/>
		</g>
		<g>
			<path class="st42" d="M36,26.7H17.3c-1.1,0-2-0.9-2-2v-19c0-1.1,0.9-2,2-2H36c1.1,0,2,0.9,2,2v19C37.9,25.8,37.1,26.7,36,26.7z"
				/>
			<path class="st53" d="M36,27.1H17.3c-1.3,0-2.4-1.1-2.4-2.4V5.6c0-1.3,1.1-2.4,2.4-2.4H36c1.3,0,2.4,1.1,2.4,2.4v19.2
				C38.4,26,37.3,27.1,36,27.1z M17.3,4.1c-0.8,0-1.5,0.7-1.5,1.5v19.2c0,0.8,0.7,1.5,1.5,1.5H36c0.8,0,1.5-0.7,1.5-1.5V5.6
				c0-0.8-0.7-1.5-1.5-1.5H17.3z"/>
		</g>
		<g>
			<g>
				<circle class="st9" cx="32.5" cy="15.3" r="2.4"/>
				<path class="st54" d="M32.5,18.1c-1.6,0-2.8-1.3-2.8-2.8c0-1.6,1.3-2.8,2.8-2.8c1.6,0,2.8,1.3,2.8,2.8
					C35.3,16.9,34,18.1,32.5,18.1z M32.5,13.4c-1.1,0-1.9,0.9-1.9,1.9c0,1.1,0.9,1.9,1.9,1.9c1.1,0,1.9-0.9,1.9-1.9
					C34.4,14.2,33.5,13.4,32.5,13.4z"/>
			</g>
			<g>
				<circle class="st9" cx="32.5" cy="15.3" r="3.2"/>
				<path class="st53" d="M32.5,19c-2,0-3.7-1.6-3.7-3.7c0-2,1.6-3.7,3.7-3.7c2,0,3.7,1.6,3.7,3.7C36.1,17.3,34.5,19,32.5,19z
					 M32.5,12.5c-1.5,0-2.8,1.2-2.8,2.8c0,1.5,1.2,2.8,2.8,2.8c1.5,0,2.8-1.2,2.8-2.8C35.2,13.8,34,12.5,32.5,12.5z"/>
			</g>
			<g>
				<path class="st53" d="M32.5,14.7c-0.2,0-0.4-0.2-0.4-0.4v-1.3c0-0.2,0.2-0.4,0.4-0.4s0.4,0.2,0.4,0.4v1.3
					C32.9,14.5,32.7,14.7,32.5,14.7z"/>
			</g>
			<g>
				<path class="st53" d="M32.5,18.1c-0.2,0-0.4-0.2-0.4-0.4v-1.3c0-0.2,0.2-0.4,0.4-0.4s0.4,0.2,0.4,0.4v1.3
					C32.9,17.9,32.7,18.1,32.5,18.1z"/>
			</g>
			<g>
				<path class="st53" d="M34.8,15.7h-1.3c-0.2,0-0.4-0.2-0.4-0.4c0-0.2,0.2-0.4,0.4-0.4h1.3c0.2,0,0.4,0.2,0.4,0.4
					C35.3,15.5,35.1,15.7,34.8,15.7z"/>
			</g>
			<g>
				<path class="st53" d="M31.4,15.7h-1.3c-0.2,0-0.4-0.2-0.4-0.4c0-0.2,0.2-0.4,0.4-0.4h1.3c0.2,0,0.4,0.2,0.4,0.4
					C31.8,15.5,31.6,15.7,31.4,15.7z"/>
			</g>
			<g>
				<line class="st9" x1="33.2" y1="14.5" x2="34.1" y2="13.6"/>
				<path class="st53" d="M33.2,15c-0.1,0-0.2,0-0.3-0.1c-0.2-0.2-0.2-0.5,0-0.6l0.9-0.9c0.2-0.2,0.5-0.2,0.6,0s0.2,0.5,0,0.6
					l-0.9,0.9C33.4,14.9,33.3,15,33.2,15z"/>
			</g>
			<g>
				<line class="st9" x1="30.8" y1="17" x2="31.7" y2="16.1"/>
				<path class="st53" d="M30.8,17.4c-0.1,0-0.2,0-0.3-0.1c-0.2-0.2-0.2-0.5,0-0.6l0.9-0.9c0.2-0.2,0.5-0.2,0.6,0
					c0.2,0.2,0.2,0.5,0,0.6l-0.9,0.9C31,17.4,30.9,17.4,30.8,17.4z"/>
			</g>
			<g>
				<line class="st9" x1="33.2" y1="16.1" x2="34.1" y2="17"/>
				<path class="st53" d="M34.1,17.4c-0.1,0-0.2,0-0.3-0.1l-0.9-0.9c-0.2-0.2-0.2-0.5,0-0.6c0.2-0.2,0.5-0.2,0.6,0l0.9,0.9
					c0.2,0.2,0.2,0.5,0,0.6C34.4,17.4,34.3,17.4,34.1,17.4z"/>
			</g>
			<g>
				<line class="st9" x1="30.8" y1="13.6" x2="31.7" y2="14.5"/>
				<path class="st53" d="M31.7,15c-0.1,0-0.2,0-0.3-0.1l-0.9-0.9c-0.2-0.2-0.2-0.5,0-0.6c0.2-0.2,0.5-0.2,0.6,0l0.9,0.9
					c0.2,0.2,0.2,0.5,0,0.6C31.9,14.9,31.8,15,31.7,15z"/>
			</g>
			<g>
				<circle class="st9" cx="32.5" cy="15.3" r="1.2"/>
				<path class="st53" d="M32.5,16.9c-0.9,0-1.6-0.7-1.6-1.6s0.7-1.6,1.6-1.6c0.9,0,1.6,0.7,1.6,1.6S33.4,16.9,32.5,16.9z
					 M32.5,14.5c-0.4,0-0.8,0.3-0.8,0.8c0,0.4,0.3,0.8,0.8,0.8c0.4,0,0.8-0.3,0.8-0.8C33.2,14.9,32.9,14.5,32.5,14.5z"/>
			</g>
		</g>
		<g>
			<path class="st9" d="M15.3,12L15.3,12c-0.6,0-1.1-0.5-1.1-1.1V8.1c0-0.6,0.5-1.1,1.1-1.1l0,0c0.6,0,1.1,0.5,1.1,1.1v2.8
				C16.5,11.5,15.9,12,15.3,12z"/>
			<path class="st53" d="M15.3,12.5c-0.9,0-1.6-0.7-1.6-1.6V8.1c0-0.9,0.7-1.6,1.6-1.6c0.9,0,1.6,0.7,1.6,1.6v2.8
				C16.9,11.8,16.2,12.5,15.3,12.5z M15.3,7.4c-0.4,0-0.7,0.3-0.7,0.7v2.8c0,0.4,0.3,0.7,0.7,0.7s0.7-0.3,0.7-0.7V8.1
				C16,7.7,15.7,7.4,15.3,7.4z"/>
		</g>
		<g>
			<path class="st9" d="M15.3,23.2L15.3,23.2c-0.6,0-1.1-0.5-1.1-1.1v-2.8c0-0.6,0.5-1.1,1.1-1.1l0,0c0.6,0,1.1,0.5,1.1,1.1v2.8
				C16.5,22.7,15.9,23.2,15.3,23.2z"/>
			<path class="st53" d="M15.3,23.7c-0.9,0-1.6-0.7-1.6-1.6v-2.8c0-0.9,0.7-1.6,1.6-1.6c0.9,0,1.6,0.7,1.6,1.6v2.8
				C16.9,23,16.2,23.7,15.3,23.7z M15.3,18.6c-0.4,0-0.7,0.3-0.7,0.7v2.8c0,0.4,0.3,0.7,0.7,0.7s0.7-0.3,0.7-0.7v-2.8
				C16,18.9,15.7,18.6,15.3,18.6z"/>
		</g>
	</g>
	<g>
		<g>
			<path class="st9" d="M46.4,49.9V18.1c0-0.2,0.2-0.4,0.4-0.4h24.7c0.2,0,0.4,0.2,0.4,0.4v31.8c0,0.2-0.2,0.4-0.4,0.4H46.8
				C46.6,50.3,46.4,50.1,46.4,49.9z"/>
			<path class="st53" d="M71.5,50.7H46.8c-0.4,0-0.8-0.4-0.8-0.8V18.1c0-0.4,0.4-0.8,0.8-0.8h24.7c0.4,0,0.8,0.4,0.8,0.8v31.8
				C72.3,50.3,72,50.7,71.5,50.7z M46.9,49.8h24.6V18.1H46.9V49.8z"/>
		</g>
		<g>
			<path class="st53" d="M56.9,24h-7.4c-0.2,0-0.4-0.2-0.4-0.4c0-0.2,0.2-0.4,0.4-0.4h7.4c0.2,0,0.4,0.2,0.4,0.4
				C57.3,23.8,57.1,24,56.9,24z"/>
		</g>
		<g>
			<path class="st53" d="M56.9,27.5h-7.4c-0.2,0-0.4-0.2-0.4-0.4s0.2-0.4,0.4-0.4h7.4c0.2,0,0.4,0.2,0.4,0.4S57.1,27.5,56.9,27.5z"
				/>
		</g>
		<g>
			<path class="st53" d="M56.9,31.1h-7.4c-0.2,0-0.4-0.2-0.4-0.4s0.2-0.4,0.4-0.4h7.4c0.2,0,0.4,0.2,0.4,0.4S57.1,31.1,56.9,31.1z"
				/>
		</g>
		<g>
			<path class="st53" d="M67.5,34.7h-18c-0.2,0-0.4-0.2-0.4-0.4s0.2-0.4,0.4-0.4h18c0.2,0,0.4,0.2,0.4,0.4S67.7,34.7,67.5,34.7z"/>
		</g>
		<g>
			<path class="st53" d="M67.5,38.3h-18c-0.2,0-0.4-0.2-0.4-0.4s0.2-0.4,0.4-0.4h18c0.2,0,0.4,0.2,0.4,0.4S67.7,38.3,67.5,38.3z"/>
		</g>
		<g>
			<path class="st53" d="M67.5,41.8h-18c-0.2,0-0.4-0.2-0.4-0.4s0.2-0.4,0.4-0.4h18c0.2,0,0.4,0.2,0.4,0.4S67.7,41.8,67.5,41.8z"/>
		</g>
		<g>
			<path class="st53" d="M67.5,45.4h-18c-0.2,0-0.4-0.2-0.4-0.4s0.2-0.4,0.4-0.4h18c0.2,0,0.4,0.2,0.4,0.4S67.7,45.4,67.5,45.4z"/>
		</g>
		<g>
			<g>
				<g>
					<g>
						<path class="st9" d="M49.9,55.3H41c-1.7,0-3-1.3-3-3V36.2c0-1.2,0.9-2.1,2.1-2.1h10.7c1.2,0,2.1,0.9,2.1,2.1v16.2
							C52.9,54,51.5,55.3,49.9,55.3z"/>
						<path class="st53" d="M50.9,55.8H40c-1.3,0-2.4-1.1-2.4-2.4V36.1c0-1.3,1.1-2.4,2.4-2.4h10.9c1.3,0,2.4,1.1,2.4,2.4v17.3
							C53.3,54.7,52.2,55.8,50.9,55.8z M40,34.5c-0.8,0-1.5,0.7-1.5,1.5v17.3c0,0.8,0.7,1.5,1.5,1.5h10.9c0.8,0,1.5-0.7,1.5-1.5
							V36.1c0-0.8-0.7-1.5-1.5-1.5H40z"/>
					</g>
					<g>
						<rect x="39.5" y="35.8" class="st44" width="11.8" height="17.6"/>
						<path class="st53" d="M51.3,53.8H39.5c-0.2,0-0.4-0.2-0.4-0.4V35.8c0-0.2,0.2-0.4,0.4-0.4h11.8c0.2,0,0.4,0.2,0.4,0.4v17.5
							C51.8,53.6,51.6,53.8,51.3,53.8z M40,52.9h10.9V36.3H40V52.9z"/>
					</g>
				</g>
			</g>
		</g>
		<g>
			<g>
				<g>
					<circle class="st42" cx="63.6" cy="27.4" r="4.2"/>
					<path class="st53" d="M63.6,32.1c-2.6,0-4.7-2.1-4.7-4.7c0-2.6,2.1-4.7,4.7-4.7c2.6,0,4.7,2.1,4.7,4.7
						C68.3,30,66.2,32.1,63.6,32.1z M63.6,23.6c-2.1,0-3.8,1.7-3.8,3.8c0,2.1,1.7,3.8,3.8,3.8c2.1,0,3.8-1.7,3.8-3.8
						C67.4,25.3,65.7,23.6,63.6,23.6z"/>
				</g>
			</g>
			<g>
				<path class="st53" d="M62.7,26c0.2,0,0.3,0,0.4,0c0.1,0,0.2,0.1,0.3,0.1c0.1,0.1,0.2,0.1,0.2,0.3c0,0.1,0.1,0.2,0.1,0.4
					c0,0.2,0,0.3-0.1,0.4c-0.1,0.1-0.2,0.2-0.3,0.3l0.4,0.8c0,0,0,0,0,0c0,0,0,0,0,0.1c0,0,0,0-0.1,0h-0.5c0,0-0.1,0-0.1,0
					c0,0,0,0,0-0.1l-0.4-0.7h-0.3v0.7c0,0,0,0,0,0.1c0,0,0,0-0.1,0h-0.5c0,0,0,0-0.1,0c0,0,0,0,0-0.1v-2.3c0,0,0,0,0-0.1
					c0,0,0,0,0.1,0H62.7z M62.3,27h0.4c0.1,0,0.2,0,0.2-0.1c0.1,0,0.1-0.1,0.1-0.2c0-0.1,0-0.2-0.1-0.2c-0.1,0-0.1-0.1-0.2-0.1h-0.4
					V27z"/>
				<path class="st53" d="M65.1,28.4c-0.1,0-0.1,0-0.2,0c-0.1,0-0.1,0-0.1-0.1c0,0-0.1,0-0.1-0.1c0,0,0,0-0.1-0.1V29c0,0,0,0,0,0.1
					c0,0,0,0-0.1,0h-0.4c0,0,0,0-0.1,0c0,0,0,0,0-0.1v-2.3c0,0,0,0,0-0.1s0,0,0.1,0h0.4c0,0,0,0,0.1,0c0,0,0,0,0,0.1v0.1
					c0,0,0,0,0.1-0.1c0,0,0.1,0,0.1-0.1c0,0,0.1,0,0.1,0c0.1,0,0.1,0,0.2,0c0.1,0,0.2,0,0.3,0c0.1,0,0.2,0.1,0.2,0.1
					c0.1,0.1,0.1,0.2,0.2,0.3c0,0.1,0.1,0.2,0.1,0.4c0,0,0,0.1,0,0.1c0,0.1,0,0.1,0,0.1c0,0.1,0,0.3-0.1,0.4c0,0.1-0.1,0.2-0.2,0.3
					c-0.1,0.1-0.2,0.1-0.2,0.1C65.3,28.4,65.2,28.4,65.1,28.4z M65.3,27.6c0-0.1,0-0.1,0-0.2c0-0.1,0-0.2-0.1-0.2
					c0-0.1-0.1-0.1-0.2-0.1c-0.1,0-0.1,0-0.1,0c0,0-0.1,0-0.1,0.1c0,0,0,0.1-0.1,0.1c0,0,0,0.1,0,0.1c0,0,0,0.1,0,0.1
					c0,0,0,0.1,0,0.1c0,0,0,0.1,0,0.1c0,0,0,0.1,0.1,0.1c0,0,0.1,0,0.1,0.1c0,0,0.1,0,0.1,0c0.1,0,0.2,0,0.2-0.1
					C65.2,27.8,65.3,27.7,65.3,27.6z"/>
			</g>
		</g>
	</g>
	<g>
		<g>
			<g>
				<circle class="st9" cx="7.5" cy="38.4" r="3.2"/>
				<path class="st53" d="M7.5,42c-2,0-3.7-1.6-3.7-3.7c0-2,1.6-3.7,3.7-3.7c2,0,3.7,1.6,3.7,3.7C11.1,40.4,9.5,42,7.5,42z
					 M7.5,35.6c-1.5,0-2.8,1.2-2.8,2.8c0,1.5,1.2,2.8,2.8,2.8c1.5,0,2.8-1.2,2.8-2.8C10.2,36.8,9,35.6,7.5,35.6z"/>
			</g>
			<g>
				<circle class="st42" cx="7.5" cy="47.9" r="3.2"/>
				<path class="st53" d="M7.5,51.5c-2,0-3.7-1.6-3.7-3.7s1.6-3.7,3.7-3.7c2,0,3.7,1.6,3.7,3.7S9.5,51.5,7.5,51.5z M7.5,45.1
					c-1.5,0-2.8,1.2-2.8,2.8c0,1.5,1.2,2.8,2.8,2.8c1.5,0,2.8-1.2,2.8-2.8C10.2,46.4,9,45.1,7.5,45.1z"/>
			</g>
			<g>
				<circle class="st9" cx="7.5" cy="57.4" r="3.2"/>
				<path class="st53" d="M7.5,61c-2,0-3.7-1.6-3.7-3.7c0-2,1.6-3.7,3.7-3.7c2,0,3.7,1.6,3.7,3.7C11.1,59.4,9.5,61,7.5,61z
					 M7.5,54.6c-1.5,0-2.8,1.2-2.8,2.8c0,1.5,1.2,2.8,2.8,2.8c1.5,0,2.8-1.2,2.8-2.8C10.2,55.9,9,54.6,7.5,54.6z"/>
			</g>
			<g>
				<rect x="13.8" y="36.1" class="st9" width="18.7" height="4.5"/>
				<path class="st53" d="M32.5,41H13.8c-0.2,0-0.4-0.2-0.4-0.4v-4.5c0-0.2,0.2-0.4,0.4-0.4h18.7c0.2,0,0.4,0.2,0.4,0.4v4.5
					C33,40.8,32.8,41,32.5,41z M14.2,40.1h17.8v-3.6H14.2V40.1z"/>
			</g>
			<g>
				<rect x="13.8" y="42.7" class="st44" width="20.4" height="10.3"/>
				<path class="st53" d="M34.2,53.4H13.8c-0.2,0-0.4-0.2-0.4-0.4V42.7c0-0.2,0.2-0.4,0.4-0.4h20.4c0.2,0,0.4,0.2,0.4,0.4V53
					C34.7,53.2,34.5,53.4,34.2,53.4z M14.2,52.5h19.5v-9.4H14.2V52.5z"/>
			</g>
			<g>
				<rect x="13.8" y="55.5" class="st9" width="18.7" height="4.6"/>
				<path class="st53" d="M32.5,60.6H13.8c-0.2,0-0.4-0.2-0.4-0.4v-4.6c0-0.2,0.2-0.4,0.4-0.4h18.7c0.2,0,0.4,0.2,0.4,0.4v4.6
					C33,60.4,32.8,60.6,32.5,60.6z M14.2,59.7h17.8V56H14.2V59.7z"/>
			</g>
			<g>
				<path class="st9" d="M23.9,55.9l-5.3-4.1c0,0-0.1,0-0.1,0l0.4,6.7c0,0.1,0.1,0.2,0.2,0.1l1.5-0.8c0.2-0.1,0.4,0,0.5,0.2l2.1,4
					l1.1-0.6l-2.1-4c-0.1-0.2,0-0.4,0.2-0.5l1.5-0.8C24,56.1,24,56,23.9,55.9z"/>
				<path class="st53" d="M23.2,62.5c0,0-0.1,0-0.1,0c-0.1,0-0.2-0.1-0.3-0.2l-2.1-4L19.3,59c-0.2,0.1-0.4,0.1-0.6,0
					c-0.2-0.1-0.3-0.3-0.3-0.5l-0.4-6.7c0-0.2,0.1-0.4,0.3-0.4c0.2-0.1,0.4-0.1,0.5,0l5.3,4.1l0,0c0.2,0.1,0.2,0.3,0.2,0.5
					c0,0.2-0.1,0.4-0.3,0.5l-1.4,0.8l2.1,4c0.1,0.2,0,0.5-0.2,0.6l-1.1,0.6C23.4,62.5,23.3,62.5,23.2,62.5z M20.8,57.4
					c0.3,0,0.6,0.2,0.7,0.4l1.9,3.6l0.3-0.1l-1.9-3.6c-0.1-0.2-0.1-0.4-0.1-0.6s0.2-0.4,0.4-0.5l1.1-0.6L19,52.7l0.3,5.4l1.1-0.6
					C20.5,57.4,20.7,57.4,20.8,57.4z"/>
			</g>
			<g>
				<circle class="st9" cx="7.5" cy="47.9" r="1.5"/>
				<path class="st53" d="M7.5,49.8c-1.1,0-1.9-0.9-1.9-1.9S6.4,46,7.5,46s1.9,0.9,1.9,1.9S8.5,49.8,7.5,49.8z M7.5,46.9
					c-0.6,0-1,0.5-1,1s0.5,1,1,1s1-0.5,1-1S8,46.9,7.5,46.9z"/>
			</g>
			<g>
				<path class="st53" d="M19.3,45.8h-3.2c-0.2,0-0.4-0.2-0.4-0.4s0.2-0.4,0.4-0.4h3.2c0.2,0,0.4,0.2,0.4,0.4S19.6,45.8,19.3,45.8z"
					/>
			</g>
			<g>
				<path class="st53" d="M24.5,45.8h-3.2c-0.2,0-0.4-0.2-0.4-0.4s0.2-0.4,0.4-0.4h3.2c0.2,0,0.4,0.2,0.4,0.4S24.8,45.8,24.5,45.8z"
					/>
			</g>
			<g>
				<path class="st53" d="M31.8,45.8h-5.3c-0.2,0-0.4-0.2-0.4-0.4s0.2-0.4,0.4-0.4h5.3c0.2,0,0.4,0.2,0.4,0.4S32.1,45.8,31.8,45.8z"
					/>
			</g>
			<g>
				<path class="st53" d="M26.4,48.2H16.1c-0.2,0-0.4-0.2-0.4-0.4s0.2-0.4,0.4-0.4h10.4c0.2,0,0.4,0.2,0.4,0.4S26.7,48.2,26.4,48.2z
					"/>
			</g>
			<g>
				<path class="st53" d="M24.1,50.6h-8c-0.2,0-0.4-0.2-0.4-0.4s0.2-0.4,0.4-0.4h8c0.2,0,0.4,0.2,0.4,0.4S24.3,50.6,24.1,50.6z"/>
			</g>
		</g>
	</g>
</g>
</svg>
