<svg width="24" height="24" viewBox="0 0 24 24" fill="none" xmlns="http://www.w3.org/2000/svg">
<path d="M11.9946 3.13086C7.1023 3.13086 3.125 7.10816 3.125 12.0004C3.125 16.8927 7.1023 20.87 11.9946 20.87C16.8868 20.87 20.8641 16.8927 20.8641 12.0004C20.8641 7.10816 16.8868 3.13086 11.9946 3.13086ZM15.8412 10.4319L11.8078 15.2308C11.6398 15.4362 11.397 15.5482 11.1356 15.5482C10.8742 15.5482 10.6314 15.4362 10.4634 15.2308L8.14804 12.4673C7.83062 12.0939 7.88663 11.5523 8.26006 11.2348C8.63348 10.9174 9.17506 10.9734 9.49249 11.3469L11.1356 13.3075L14.4967 9.31156C14.8141 8.93814 15.3557 8.90076 15.7291 9.19954C16.1026 9.51696 16.1586 10.0586 15.8411 10.432L15.8412 10.4319Z" fill="#FA9D1C"/>
</svg>
