<svg id="Layer_1" data-name="Layer 1" xmlns="http://www.w3.org/2000/svg" viewBox="0 0 42.04 41.5"><defs><style>.cls-1{fill:#ae5099;stroke:#ae5099;stroke-width:0.5px;}</style></defs><title>split bill</title><g id="bill-_1_" data-name="bill-(1)"><path id="Path" class="cls-1" d="M11.59,7.26H22.16a.64.64,0,1,0,0-1.29H11.59a.64.64,0,1,0,0,1.29Z"/><path id="Path-2" data-name="Path" class="cls-1" d="M23.66,10.88H17a.64.64,0,1,0,0,1.29h6.62a.64.64,0,1,0,0-1.29Z"/><path id="Path-3" data-name="Path" class="cls-1" d="M11.59,12.17h2.88a.64.64,0,1,0,0-1.29H11.59a.64.64,0,1,0,0,1.29Z"/><path id="Path-4" data-name="Path" class="cls-1" d="M28.93,6.61A.64.64,0,0,0,28.29,6H24.71a.64.64,0,1,0,0,1.29h3.58a.64.64,0,0,0,.64-.64Z"/><path id="Shape" class="cls-1" d="M40.5,4.65V11H34.28V4.65a3.11,3.11,0,0,1,6.22,0ZM6.92,40a5.46,5.46,0,0,1-5.38-5.52V31.1H20.93v3.35A6.84,6.84,0,0,0,23.71,40ZM33,25.75v8.7a5.39,5.39,0,1,1-10.77,0v-4a.64.64,0,0,0-.64-.64h-14L7.81,5.15a3.66,3.66,0,0,1,3.65-3.61H34.28A4.39,4.39,0,0,0,33,4.65V17.52h1.29V12.27h6.87a.64.64,0,0,0,.64-.64v-7a4.41,4.41,0,0,0-4.4-4.4H11.46A5,5,0,0,0,6.52,5.14L6.3,29.81H.89a.64.64,0,0,0-.64.64v4a6.75,6.75,0,0,0,6.39,6.8h21a6.75,6.75,0,0,0,6.67-6.8v-8.7Z"/></g><path class="cls-1" d="M41.15,21H23.65l3.58-3.58a.64.64,0,0,0-.91-.91l-4.68,4.68a.64.64,0,0,0,0,.91l4.68,4.68a.64.64,0,1,0,.91-.91l-3.58-3.58h17.5a.64.64,0,0,0,0-1.29Z"/></svg>