<svg width="58" height="53" viewBox="0 0 58 53" fill="none" xmlns="http://www.w3.org/2000/svg">
<rect width="48" height="48" rx="14" fill="#A04B9E"/>
<path d="M12.7484 12.001C12.5502 12.0014 12.3604 12.0802 12.2201 12.2202C12.0799 12.3601 12.0007 12.5499 12 12.7481V18.6115C12 18.8796 12.143 19.1274 12.3753 19.2615C12.6075 19.3956 12.8938 19.3956 13.126 19.2615C13.3583 19.1274 13.5013 18.8796 13.5013 18.6115V13.5011H18.6104C18.8744 13.4952 19.1159 13.3511 19.2462 13.1214C19.3766 12.8917 19.3766 12.6105 19.2462 12.3808C19.1159 12.1512 18.8744 12.007 18.6104 12.0012L12.7484 12.001ZM29.3177 12.001C29.054 12.0196 28.8195 12.1753 28.7002 12.4112C28.581 12.647 28.5944 12.9282 28.7357 13.1516C28.8769 13.375 29.1252 13.5076 29.3895 13.5009H34.4986V18.6113C34.4986 18.8795 34.6416 19.1272 34.874 19.2613C35.1061 19.3954 35.3924 19.3954 35.6246 19.2613C35.8569 19.1272 35.9999 18.8795 35.9999 18.6113V12.748C35.9992 12.5489 35.9194 12.3586 35.7783 12.2185C35.637 12.0784 35.446 12 35.2471 12.0009H29.3897C29.3658 11.9997 29.3416 11.9999 29.3177 12.001ZM12.7369 28.6321C12.539 28.6354 12.3505 28.7171 12.2126 28.8589C12.0745 29.0007 11.9981 29.1914 12.0002 29.3892V35.247C11.9993 35.4461 12.0778 35.6374 12.2183 35.7785C12.3586 35.9198 12.5494 35.9995 12.7486 35.9998H18.6107C18.8126 36.0043 19.0076 35.9273 19.1519 35.7862C19.2962 35.6451 19.3775 35.4517 19.3775 35.2498C19.3775 35.048 19.2962 34.8546 19.1519 34.7135C19.0076 34.5724 18.8126 34.4954 18.6107 34.4999H13.5016V29.3895C13.5036 29.1868 13.4234 28.9919 13.2794 28.8493C13.1355 28.7067 12.9396 28.6281 12.7369 28.6321ZM35.2355 28.6321C35.0376 28.6354 34.8491 28.7171 34.7112 28.8589C34.5731 29.0007 34.4968 29.1914 34.4988 29.3892V34.4996H29.3897C29.1257 34.5055 28.8841 34.6496 28.7539 34.8793C28.6235 35.109 28.6235 35.3902 28.7539 35.6199C28.8841 35.8496 29.1257 35.9937 29.3897 35.9995H35.247C35.4469 36.0004 35.6389 35.9212 35.7802 35.7799C35.9216 35.6385 36.0006 35.4466 35.9998 35.2468V29.389C36.0018 29.1863 35.9216 28.9914 35.7776 28.8488C35.6337 28.7062 35.4382 28.6281 35.2355 28.6321Z" fill="white"/>
<path d="M15.4297 15.4287H21.144V21.1431H15.4297V15.4287ZM22.7766 15.4287H23.5929V16.2451H24.4093L24.4092 15.4287H26.0418V16.2451H25.2254V17.0614H26.0418V17.8778H25.2254V18.6942H24.4091L24.4092 17.0613H23.5928V18.6939L22.7766 18.694V17.8777H21.9602V17.0613H22.7766V15.4287ZM26.8581 15.4287H32.5724V21.1431H26.8581V15.4287ZM16.2461 16.2451V20.3266H20.3276V16.2451H16.2461ZM27.6745 16.2451V20.3266H31.756V16.2451H27.6745ZM17.0622 17.0613H19.5112V19.5103H17.0622V17.0613ZM28.4909 17.0613H30.9399V19.5103H28.4909V17.0613ZM23.593 18.694H24.4094V19.5104H23.593V18.694ZM25.2256 18.694H26.042V21.9594H25.2256V22.7758H24.4092V24.4084H23.5929L23.593 22.7757H22.7766V23.592H21.9603V24.4084L20.3277 24.4083V25.2246H21.9603V26.041H19.5113V24.4084L18.6951 24.4083V23.5919H19.5114L19.5113 22.7757H18.6951V21.9593H21.9605L21.9603 20.3267H22.7767V21.1431H23.5931V21.9594H24.4094L24.4093 21.1431H25.2257L25.2256 18.694ZM23.593 20.3266H24.4094V21.143H23.593V20.3266ZM15.4297 21.9592H17.8786V22.7756H16.246V23.592H17.0624V24.4083H18.695V26.0409H17.8786V25.2246H16.246V24.4082H15.4297V21.9592ZM26.042 21.9592H27.6746V22.7756H26.042V21.9592ZM30.1235 21.9592H30.9398V22.7756H30.1235V21.9592ZM20.3276 22.7756V23.592H21.144V22.7756H20.3276ZM27.6745 22.7756H30.1235V23.592H30.9398V22.7756H32.5724V27.6735H27.6745V26.8572H26.0419V26.0408H25.2255V25.2244H26.8581V26.0408H27.6745V24.4082H25.2255V23.5918H27.6745V22.7756ZM22.7766 24.4082H23.5929V26.0408H25.2255V27.6734H26.8581V28.4898H25.2255V29.3061H24.4092V26.8572H23.5928V29.3061H21.9602V26.0407H22.7766V24.4082ZM29.307 24.4082V25.2246H28.4907V26.0409H29.307V26.8573H30.1234V26.0409H31.756V24.4083L29.307 24.4082ZM15.4297 26.8572H21.144V32.5715H15.4297V26.8572ZM16.246 27.6735V31.755H20.3275V27.6735H16.246ZM17.0623 28.4899H19.5113V30.9388H17.0623V28.4899ZM26.8581 28.4899H29.3071V30.1225H30.1235V30.9388H29.3071V31.7552H28.4907V32.5716H26.8581V30.939H27.6745V30.1226H28.4909V29.3062H27.6745V30.1226H26.8581V28.4899ZM23.5931 29.3061H24.4094V32.5715H23.5931V29.3061ZM30.1235 29.3061H31.7561V30.1225H30.1235V29.3061ZM21.9602 30.1225H22.7766V32.5714H21.9602V30.1225ZM25.2256 30.1225H26.042V30.9388H25.2256V30.1225ZM31.7561 30.1225H32.5724V30.9388H31.7561V30.1225ZM30.9398 30.9388H31.7562V31.7552H32.5725V32.5716H30.9399L30.9398 30.9388ZM25.2255 31.7551H26.0418V32.5714H25.2255V31.7551Z" fill="white"/>
<rect x="29.25" y="24.25" width="28.5" height="28.5" rx="13.75" fill="white" stroke="#F0EAF0" stroke-width="0.5"/>
<path d="M50.651 31.0001H39.3029C39.0974 31.0001 38.9395 31.1662 38.9395 31.382V35.9321C38.9395 36.148 39.0975 36.314 39.3029 36.314H41.4524V34.6866H40.6938C40.5357 34.6866 40.4094 34.5538 40.4094 34.3878V32.9264C40.4094 32.7603 40.5358 32.6276 40.6938 32.6276H49.2286C49.3867 32.6276 49.513 32.7604 49.513 32.9264V34.3878C49.513 34.5539 49.3866 34.6866 49.2286 34.6866H48.47V36.314H50.6352C50.8407 36.314 50.9987 36.1479 50.9987 35.9321L50.9988 31.382C51.0146 31.1661 50.8565 31 50.6511 31L50.651 31.0001Z" fill="#A04B9E"/>
<path d="M46.305 42.1428C46.0995 41.6113 45.5305 41.3623 45.0248 41.5615L43.0965 42.3752C42.3063 42.7073 41.4529 42.0929 41.4686 41.2128V38.3234C40.4097 38.6555 39.8091 38.9875 39.1453 39.8345C38.1812 41.08 36.4901 41.0467 36.4901 41.0467C36.253 41.0966 36.0633 41.3125 36.0475 41.5782L36 44.8994C36 45.1817 36.2055 45.4308 36.4583 45.4474C36.9641 45.4972 37.7859 45.6301 38.4656 45.8958C38.9871 46.095 39.8248 45.9621 39.9987 45.8792C40.5045 45.6799 45.7517 43.4878 45.7517 43.4878C46.2576 43.2719 46.5104 42.6741 46.305 42.1427L46.305 42.1428Z" fill="#A04B9E"/>
<path d="M47.1751 43.1307C47.1751 43.1261 47.1788 43.1224 47.1834 43.1224C47.5588 43.1178 47.8546 42.8039 47.8546 42.4084V34.8084C47.8546 33.9799 47.1831 33.3083 46.3546 33.3083H43.6016C42.7731 33.3083 42.1016 33.9799 42.1016 34.8083V41.246C42.1173 41.4452 42.2123 41.6279 42.386 41.7275C42.4808 41.7773 42.6547 41.8438 42.8602 41.7608L44.7884 40.947C45.2467 40.7478 45.7525 40.7809 46.1793 41.0467C46.5113 41.2459 46.7641 41.5449 46.8905 41.9102C47.0281 42.2714 47.0459 42.6452 46.9545 42.9879C46.9346 43.0622 46.9881 43.1391 47.065 43.1391H47.1667C47.1713 43.1391 47.175 43.1353 47.1751 43.1307ZM45.31 39.0207C45.31 39.0207 45.31 39.0208 45.31 39.0208V39.4691C45.31 39.5355 45.2626 39.5854 45.1993 39.5854H44.7568C44.6936 39.5854 44.6461 39.5356 44.6461 39.4691C44.6461 39.214 44.4416 39.0108 44.227 38.8728C43.9803 38.7141 43.8084 38.4449 43.7768 38.1241C43.7768 38.0629 43.8291 38.0082 43.8904 38.0078C43.8945 38.0078 43.8988 38.0078 43.9032 38.0078H44.3458C44.3932 38.0078 44.4406 38.041 44.4565 38.1074C44.4881 38.2403 44.5987 38.3399 44.7251 38.3399H45.1203C45.3415 38.3399 45.5312 38.1738 45.5628 37.9413C45.5786 37.8084 45.5312 37.6923 45.4521 37.6092C45.3731 37.5096 45.2625 37.4598 45.136 37.4598H44.8516C44.2668 37.4598 43.7769 37.0114 43.7136 36.4302C43.6672 35.979 43.8765 35.5725 44.2164 35.349C44.433 35.2065 44.6303 34.9957 44.6303 34.7364C44.6303 34.67 44.6777 34.6201 44.741 34.6201H45.1836C45.2467 34.6201 45.2943 34.6699 45.2943 34.7364C45.2943 34.9915 45.4988 35.1947 45.7133 35.3328C45.9601 35.4915 46.132 35.7607 46.1636 36.0815C46.1636 36.1427 46.1112 36.1973 46.05 36.1977C46.0458 36.1978 46.0415 36.1978 46.0371 36.1978H45.5946C45.5472 36.1978 45.4998 36.1645 45.4839 36.0981C45.4522 35.9653 45.3417 35.8657 45.2152 35.8657H44.8201C44.5988 35.8657 44.4092 36.0318 44.3775 36.2642C44.3618 36.3971 44.4092 36.5133 44.4882 36.5963C44.5673 36.6959 44.6779 36.7458 44.8043 36.7458H45.1363C45.4366 36.7458 45.7369 36.8786 45.9423 37.1277C46.1478 37.3767 46.2584 37.6922 46.2267 38.0078C46.1793 38.5225 45.8158 38.9211 45.31 39.0207C45.31 39.0207 45.31 39.0207 45.31 39.0207Z" fill="#A04B9E"/>
<rect x="43.5" y="33.9999" width="3.00005" height="6" fill="#A04B9E"/>
<path d="M45.875 38.8917H43.775V38.1207C43.775 37.9527 43.804 37.8147 43.862 37.7067C43.918 37.5967 43.995 37.5147 44.093 37.4607C44.189 37.4067 44.296 37.3797 44.414 37.3797C44.542 37.3797 44.659 37.4137 44.765 37.4817C44.871 37.5477 44.948 37.6517 44.996 37.7937L45.875 37.3587V37.7997L45.047 38.1897V38.5077H45.875V38.8917ZM44.765 38.5077V38.1447C44.765 38.0167 44.734 37.9227 44.672 37.8627C44.61 37.8027 44.528 37.7727 44.426 37.7727C44.326 37.7727 44.246 37.8027 44.186 37.8627C44.126 37.9207 44.096 38.0157 44.096 38.1477V38.5077H44.765ZM45.875 37.0225H43.775V36.2455C43.775 36.0775 43.803 35.9385 43.859 35.8285C43.915 35.7185 43.992 35.6365 44.09 35.5825C44.188 35.5285 44.298 35.5015 44.42 35.5015C44.536 35.5015 44.643 35.5275 44.741 35.5795C44.837 35.6315 44.915 35.7125 44.975 35.8225C45.033 35.9325 45.062 36.0735 45.062 36.2455V36.6385H45.875V37.0225ZM44.75 36.6385V36.2695C44.75 36.1355 44.721 36.0395 44.663 35.9815C44.603 35.9215 44.522 35.8915 44.42 35.8915C44.316 35.8915 44.235 35.9215 44.177 35.9815C44.117 36.0395 44.087 36.1355 44.087 36.2695V36.6385H44.75Z" fill="white"/>
</svg>
