<svg width="36" height="36" viewBox="0 0 36 36" fill="none" xmlns="http://www.w3.org/2000/svg">
<circle cx="18" cy="18" r="18" fill="#F6F8FD"/>
<path fill-rule="evenodd" clip-rule="evenodd" d="M12.6344 6.72168H23.331C23.7914 6.72168 24.181 6.89848 24.4644 7.18137C24.7831 7.46425 24.9602 7.88858 24.9602 8.31291V29.6353C24.9602 30.0597 24.7831 30.484 24.4644 30.7669C24.181 31.0498 23.7914 31.2266 23.331 31.2266H12.6344C12.2094 31.2266 11.7843 31.0498 11.501 30.7669C11.2176 30.484 11.0405 30.0597 11.0405 29.6353V8.31291C11.0405 7.88858 11.2176 7.46425 11.501 7.18137C11.7843 6.89848 12.2094 6.72168 12.6344 6.72168ZM13.6615 15.8447C14.795 14.8546 16.3888 14.3596 17.9827 14.3596C19.612 14.3596 21.2058 14.8546 22.3038 15.8447C22.6226 16.0922 22.7288 16.3398 22.7288 16.5519C22.6934 16.658 22.6226 16.7641 22.5163 16.8702C22.4101 16.9409 22.3038 17.0116 22.1267 17.0116C21.7725 17.0823 21.3121 16.9762 21.0641 16.6226C20.9579 16.5166 20.8516 16.4105 20.7099 16.3044C20.037 15.774 19.0098 15.5265 17.9827 15.5265C16.9555 15.5265 15.9284 15.774 15.2908 16.3044C15.1491 16.4105 15.0429 16.5166 14.9366 16.6226C14.6533 16.9762 14.2282 17.0823 13.8386 17.0116C13.697 17.0116 13.5553 16.9409 13.4844 16.8702C13.3782 16.7641 13.3074 16.658 13.2719 16.5519C13.2365 16.3398 13.3428 16.0922 13.6615 15.8447ZM15.3262 18.32C15.6096 17.8956 15.9284 17.5774 16.2826 17.3299C16.8138 16.9762 17.416 16.7994 17.9827 16.7994C18.5848 16.7994 19.1869 16.9762 19.6828 17.3299C20.0724 17.5774 20.3912 17.8956 20.6745 18.32C20.9579 18.6736 20.9579 18.9564 20.887 19.1686C20.8516 19.2747 20.7808 19.3808 20.6745 19.4161C20.6037 19.4868 20.4974 19.5222 20.3912 19.4868C20.1787 19.4868 19.9661 19.3808 19.8599 19.0979C19.6474 18.6736 19.3286 18.3553 18.939 18.1785C18.6556 18.0371 18.3369 17.9663 17.9827 17.9663C17.6639 17.9663 17.3451 18.0371 17.0264 18.1785C16.6722 18.3553 16.3534 18.6736 16.1409 19.0979C15.9992 19.3808 15.7867 19.4868 15.6096 19.4868C15.5033 19.5222 15.3971 19.4868 15.3262 19.4161C15.22 19.3808 15.1491 19.2747 15.1137 19.1686C15.0075 18.9564 15.0429 18.6736 15.3262 18.32ZM17.9827 19.1686C18.3014 19.1686 18.5848 19.31 18.7619 19.4868C18.9744 19.699 19.0807 19.9819 19.0807 20.2648C19.0807 20.583 18.9744 20.8306 18.7619 21.0427C18.5848 21.2195 18.3014 21.361 17.9827 21.361C17.6993 21.361 17.416 21.2195 17.2389 21.0427C17.0264 20.8306 16.9201 20.583 16.9201 20.2648C16.9201 19.9819 17.0264 19.699 17.2389 19.4868C17.416 19.31 17.6993 19.1686 17.9827 19.1686ZM18.7265 28.7513C18.5494 28.5745 18.3014 28.4684 17.9827 28.4684C17.6993 28.4684 17.4514 28.5745 17.2389 28.7513C17.0618 28.9635 16.9555 29.211 16.9555 29.4939C16.9555 29.8121 17.0618 30.0597 17.2389 30.2718C17.4514 30.4486 17.6993 30.5547 17.9827 30.5547C18.3014 30.5547 18.5494 30.4486 18.7265 30.2718C18.939 30.0597 19.0452 29.8121 19.0452 29.4939C19.0452 29.211 18.939 28.9635 18.7265 28.7513ZM17.9827 28.716C18.2306 28.716 18.4077 28.7867 18.5494 28.9281C18.6911 29.1049 18.7973 29.2817 18.7973 29.4939C18.7973 29.7414 18.6911 29.9182 18.5494 30.0597C18.4077 30.2365 18.2306 30.3072 17.9827 30.3072C17.7702 30.3072 17.5576 30.2365 17.416 30.0597C17.2743 29.9182 17.2035 29.7414 17.2035 29.4939C17.2035 29.2817 17.2743 29.1049 17.416 28.9281C17.5576 28.7867 17.7702 28.716 17.9827 28.716ZM19.3994 7.67642H16.6013C16.5305 7.67642 16.4951 7.71178 16.4597 7.71178C16.4242 7.74714 16.4242 7.81786 16.4242 7.85322C16.4242 7.88858 16.4242 7.9593 16.4597 7.9593C16.4951 7.99466 16.5305 8.03002 16.6013 8.03002H19.3994C19.4349 8.03002 19.5057 7.99466 19.5411 7.9593C19.5411 7.9593 19.5765 7.88858 19.5765 7.85322C19.5765 7.81786 19.5411 7.74714 19.5411 7.71178C19.5057 7.71178 19.4349 7.67642 19.3994 7.67642ZM23.5081 8.48971H12.4573V27.6551H23.5081V8.48971Z" fill="#FA9D1C"/>
<rect x="13.125" y="9.625" width="9.84375" height="13.5938" fill="#F6F8FD"/>
<path d="M29.0742 18.2531C29.0742 21.2988 26.5411 23.7815 23.3994 23.7815C20.2577 23.7815 17.7246 21.2988 17.7246 18.2531C17.7246 15.2073 20.2577 12.7246 23.3994 12.7246C26.5411 12.7246 29.0742 15.2073 29.0742 18.2531Z" fill="#FA9D1C" stroke="#FA9D1C" stroke-width="0.650407"/>
<path d="M20.453 20.0556C20.1313 20.0556 19.8551 19.9873 19.6244 19.8507C19.3937 19.7111 19.2162 19.5184 19.0917 19.2725C18.9673 19.0236 18.9051 18.7368 18.9051 18.412C18.9051 18.0873 18.9673 17.8004 19.0917 17.5515C19.2162 17.3027 19.3937 17.1084 19.6244 16.9688C19.8551 16.8292 20.1313 16.7594 20.453 16.7594C20.8355 16.7594 21.1481 16.855 21.3909 17.0462C21.6368 17.2344 21.7901 17.4999 21.8508 17.8429H21.2088C21.1694 17.6699 21.0844 17.5349 20.9539 17.4377C20.8264 17.3376 20.6564 17.2875 20.4439 17.2875C20.1495 17.2875 19.9188 17.3876 19.7519 17.588C19.585 17.7883 19.5015 18.063 19.5015 18.412C19.5015 18.7611 19.585 19.0358 19.7519 19.2361C19.9188 19.4334 20.1495 19.532 20.4439 19.532C20.6564 19.532 20.8264 19.4865 20.9539 19.3954C21.0844 19.3014 21.1694 19.1724 21.2088 19.0085H21.8508C21.7901 19.3363 21.6368 19.5927 21.3909 19.7779C21.1481 19.963 20.8355 20.0556 20.453 20.0556ZM23.2909 20.001L22.1253 16.814H22.7491L23.6505 19.4046L24.5565 16.814H25.1712L24.0056 20.001H23.2909ZM26.4743 20.001L25.3088 16.814H25.9325L26.834 19.4046L27.74 16.814H28.3546L27.1891 20.001H26.4743Z" fill="white"/>
</svg>
