<svg width="34" height="34" viewBox="0 0 34 34" fill="none" xmlns="http://www.w3.org/2000/svg">
<rect y="0.220703" width="34" height="31.6552" rx="15.8276" fill="url(#paint0_linear_3193_6816)"/>
<rect y="0.220703" width="34" height="31.6552" rx="15.8276" fill="url(#paint1_linear_3193_6816)"/>
<rect y="0.220703" width="34" height="31.6552" rx="15.8276" fill="url(#paint2_linear_3193_6816)"/>
<rect y="0.220703" width="34" height="31.6552" rx="15.8276" fill="url(#paint3_linear_3193_6816)"/>
<rect width="34" height="34" rx="17" fill="url(#paint4_linear_3193_6816)"/>
<path opacity="0.4" d="M25.3337 22.3421C25.3337 24.6724 23.467 26.56 21.142 26.5684H21.1337H12.8753C10.5587 26.5684 8.66699 24.6891 8.66699 22.3588V22.3505C8.66699 22.3505 8.67199 18.6537 8.67866 16.7945C8.67949 16.4454 9.07949 16.25 9.35199 16.4671C11.332 18.0415 14.8728 20.9122 14.917 20.9498C15.5087 21.425 16.2587 21.6931 17.0253 21.6931C17.792 21.6931 18.542 21.425 19.1337 20.9406C19.1778 20.9114 22.6395 18.1267 24.6495 16.5264C24.9228 16.3084 25.3245 16.5039 25.3253 16.8522C25.3337 18.6972 25.3337 22.3421 25.3337 22.3421Z" fill="#FF881B"/>
<path d="M24.8967 13.7676C24.1751 12.4045 22.7551 11.5342 21.1917 11.5342H12.8751C11.3117 11.5342 9.89173 12.4045 9.17007 13.7676C9.0084 14.0724 9.08507 14.4525 9.35423 14.668L15.5417 19.6284C15.9751 19.9792 16.5001 20.1537 17.0251 20.1537C17.0284 20.1537 17.0309 20.1537 17.0334 20.1537C17.0359 20.1537 17.0392 20.1537 17.0417 20.1537C17.5667 20.1537 18.0917 19.9792 18.5251 19.6284L24.7126 14.668C24.9817 14.4525 25.0584 14.0724 24.8967 13.7676Z" fill="#FF881B"/>
<defs>
<linearGradient id="paint0_linear_3193_6816" x1="17" y1="0.220703" x2="17" y2="31.8759" gradientUnits="userSpaceOnUse">
<stop stop-color="white"/>
<stop offset="1" stop-color="white"/>
</linearGradient>
<linearGradient id="paint1_linear_3193_6816" x1="17" y1="0.220703" x2="17" y2="31.8759" gradientUnits="userSpaceOnUse">
<stop stop-color="white"/>
<stop offset="1" stop-color="white"/>
</linearGradient>
<linearGradient id="paint2_linear_3193_6816" x1="17" y1="0.220703" x2="17" y2="31.8759" gradientUnits="userSpaceOnUse">
<stop stop-color="white"/>
<stop offset="1" stop-color="white"/>
</linearGradient>
<linearGradient id="paint3_linear_3193_6816" x1="17" y1="0.220703" x2="17" y2="31.8759" gradientUnits="userSpaceOnUse">
<stop stop-color="white"/>
<stop offset="1" stop-color="white"/>
</linearGradient>
<linearGradient id="paint4_linear_3193_6816" x1="17" y1="0" x2="17" y2="34" gradientUnits="userSpaceOnUse">
<stop stop-color="white"/>
<stop offset="1" stop-color="white"/>
</linearGradient>
</defs>
</svg>
