<svg width="512" height="512.00001" xmlns="http://www.w3.org/2000/svg">
 <g>
  <title>background</title>
  <rect x="-1" y="-1" width="514" height="514.00001" id="canvas_background" fill="none"/>
 </g>

 <g>
  <title>Layer 1</title>
  <path fill="#ffffff" d="m382.85547,0l101.76172,0c14.48437,0.01563 26.22656,11.75391 26.23828,26.23828l0,110.90625l-18.28516,0l0,-99.93359c-0.01562,-10.44531 -8.47656,-18.91016 -18.92578,-18.92578l-90.78906,0l0,-18.28516zm0,0" id="svg_2"/>
  <path fill="#ffffff" d="m383.85547,493.85937l90.78906,0c10.44922,-0.01562 18.91016,-8.48046 18.92578,-18.92578l0,-99.93359l18.28516,0l0,110.90625c-0.01172,14.48437 -11.75391,26.22266 -26.23828,26.23828l-101.76172,0l0,-18.28516zm0,0" id="svg_3"/>
  <path fill="#ffffff" d="m0,26.23828c0.01563,-14.48437 11.75391,-26.22265 26.23828,-26.23828l110.90625,0l0,18.28516l-99.93359,0c-10.44531,0.01562 -18.91016,8.48047 -18.92578,18.92578l0,99.93359l-18.28516,0l0,-110.90625zm0,0" id="svg_4" stroke-width="0"/>
  <path fill="#ffffff" d="m0,374.85547l18.28516,0l0,99.93359c0.01562,10.44532 8.48047,18.91016 18.92578,18.92578l99.93359,0l0,18.28516l-110.90625,0c-14.48437,-0.01562 -26.22265,-11.75391 -26.23828,-26.23828l0,-110.90625zm0,0" id="svg_5"/>
 </g>
</svg>