<svg id="459dbd4f-f541-48c2-b021-e4a1985b18ff" data-name="Layer 1" xmlns="http://www.w3.org/2000/svg" viewBox="0 0 513 513"><defs><style>.e5d1d316-f0cc-4e7c-88ab-de93f374ba7f{fill:#277286;}.\31 7a18934-dbb8-401f-a4d5-3fc99c183b61{fill:#ec8a5b;}.d4f97d05-c929-4bc7-a301-d22b847325e3{fill:#fff;}.\32 fbd3eab-4ad7-45aa-9604-a53ef1c2f12f{fill:#ec8a5a;}</style></defs><title>Icon QR.a BARU</title><rect class="e5d1d316-f0cc-4e7c-88ab-de93f374ba7f" x="87.8" y="74.3" width="305" height="305.01" rx="15.5" ry="15.5"/><path class="17a18934-dbb8-401f-a4d5-3fc99c183b61" d="M423.9,110.6a8,8,0,0,1-7.9-7.9V71.5a15.8,15.8,0,0,0-15.8-15.8h-21a8,8,0,0,1,0-15.9h21a31.7,31.7,0,0,1,31.7,31.7v31.2a8,8,0,0,1-8,7.9"/><path class="17a18934-dbb8-401f-a4d5-3fc99c183b61" d="M55.2,110.6a7.9,7.9,0,0,1-7.9-7.9V71.5A31.6,31.6,0,0,1,78.9,39.8h21a8,8,0,0,1,0,15.9h-21A15.8,15.8,0,0,0,63.1,71.5v31.2a7.9,7.9,0,0,1-7.9,7.9"/><path class="17a18934-dbb8-401f-a4d5-3fc99c183b61" d="M99.9,424.4h-21a31.6,31.6,0,0,1-31.6-31.6v-22a7.9,7.9,0,1,1,15.8,0v22a15.8,15.8,0,0,0,15.8,15.8h21a7.9,7.9,0,1,1,0,15.8"/><path class="d4f97d05-c929-4bc7-a301-d22b847325e3" d="M351.2,111.7a6,6,0,0,1,5.9,5.9v82.6a5.9,5.9,0,0,1-5.9,6H268.4a5.9,5.9,0,0,1-5.9-6V117.6a6,6,0,0,1,5.9-5.9Zm-6.1,11.9H274.4v70.7h70.7Z"/><path class="d4f97d05-c929-4bc7-a301-d22b847325e3" d="M213.2,111.7a5.9,5.9,0,0,1,5.9,5.9V138a6,6,0,1,1-11.9,0V123.6H136.4v70.7h70.8v-9.7a6,6,0,1,1,11.9,0v15.6a5.9,5.9,0,0,1-5.9,6H130.5a6,6,0,0,1-6-6V117.6a5.9,5.9,0,0,1,6-5.9Z"/><path class="d4f97d05-c929-4bc7-a301-d22b847325e3" d="M213.2,249.6a6,6,0,0,1,5.9,6v82.6a5.9,5.9,0,0,1-5.9,6H130.5a6,6,0,0,1-6-6V255.6a6,6,0,0,1,6-6Zm-6,12H136.4v70.7h70.8Z"/><path class="d4f97d05-c929-4bc7-a301-d22b847325e3" d="M351.2,249.6a6,6,0,0,1,5.9,6v82.6a5.9,5.9,0,0,1-5.9,6H268.4a5.9,5.9,0,0,1-5.9-6V255.6a6,6,0,0,1,5.9-6Zm-6.1,12H274.4v70.7h70.7Z"/><path class="d4f97d05-c929-4bc7-a301-d22b847325e3" d="M239.8,111.7a5.9,5.9,0,0,1,6,5.9V222.7H351.1a6,6,0,1,1,0,11.9H245.8V338.2a6,6,0,0,1-6,6,6,6,0,0,1-6-6V234.6H154.2a6,6,0,1,1,0-11.9h79.6V117.6a5.9,5.9,0,0,1,6-5.9"/><path class="17a18934-dbb8-401f-a4d5-3fc99c183b61" d="M401.1,241.9H78c-8.9,0-16.1-6.2-16.1-13.9s7.2-14,16.1-14H401.1c8.9,0,16.1,6.3,16.1,14s-7.2,13.9-16.1,13.9"/><circle class="2fbd3eab-4ad7-45aa-9604-a53ef1c2f12f" cx="367.5" cy="325.3" r="145.5"/><path class="e5d1d316-f0cc-4e7c-88ab-de93f374ba7f" d="M460.5,370.6a11.1,11.1,0,0,1-10.9,11.3l-153,.2a11.1,11.1,0,0,1-11-11.2V279.5a11.1,11.1,0,0,1,10.9-11.3l153.1-.2a11.1,11.1,0,0,1,10.9,11.2Z"/><circle class="2fbd3eab-4ad7-45aa-9604-a53ef1c2f12f" cx="401.6" cy="324.8" r="9.1"/><path class="d4f97d05-c929-4bc7-a301-d22b847325e3" d="M402.1,332.6a7.6,7.6,0,1,1,0-15.2,7.6,7.6,0,1,1,0,15.2m-5.4-26.5s-14,1-14,19S398.3,344,398.3,344h63.9a3.9,3.9,0,0,0,3.9-4V310a4,4,0,0,0-4-4Z"/></svg>