<svg width="162" height="149" viewBox="0 0 162 149" fill="none" xmlns="http://www.w3.org/2000/svg">
<g clip-path="url(#clip0_4084_8125)">
<path d="M40.682 149C40.682 149 20.6595 149 17.2921 149C13.9247 149 7.55387 139.46 9.64713 128.558C11.7404 117.655 19.5674 116.838 20.0224 106.48C20.4775 96.123 19.4763 86.3108 25.8471 77.6797C32.2179 69.0486 45.2325 75.7717 51.6943 72.4101C58.1561 69.0486 58.9752 59.8723 67.7123 55.6931C76.4494 51.5138 87.3707 53.3309 92.2853 58.6004C96.0168 62.598 97.1999 68.5034 101.659 72.0467C106.574 75.9534 112.945 75.4992 116.494 81.4047C118.497 84.6754 119.862 88.5821 122.774 91.126C126.233 94.1242 131.056 94.6693 135.607 95.487C140.157 96.3047 145.072 97.7583 147.347 101.756C149.258 105.027 148.803 109.206 147.893 112.931C147.074 116.656 145.891 120.472 146.528 124.197C147.074 127.286 148.803 130.011 150.259 132.737C151.716 135.463 153.081 138.552 152.717 141.641C152.353 144.73 150.168 146.547 147.62 147.819C143.889 149.817 138.155 148.818 133.877 148.818C128.508 148.818 123.047 148.818 117.677 148.818C105.937 148.818 94.1966 148.909 82.5471 148.909C68.5314 148.909 54.6067 148.909 40.682 149Z" fill="#D3E9FE"/>
<path d="M108.03 129.829C108.667 128.921 108.941 127.831 109.305 126.831C109.669 125.832 109.942 124.742 110.306 123.651C110.852 121.743 111.216 119.836 111.58 117.928C113.4 117.201 116.039 115.02 116.95 112.931C114.765 113.385 112.854 115.293 111.762 117.11C112.126 114.839 112.399 112.658 112.49 110.387C114.219 109.478 116.585 107.025 117.314 104.845C115.129 105.572 113.4 107.661 112.581 109.66C112.672 107.843 112.672 106.117 112.581 104.3C112.581 104.118 112.581 103.845 112.581 103.664C114.31 102.755 116.676 100.302 117.314 98.1215C115.129 98.8484 113.4 101.029 112.49 103.028C112.399 101.847 112.308 100.665 112.126 99.4843C113.582 98.6666 115.675 96.3044 116.13 94.2148C114.128 95.0325 112.672 97.3038 112.035 99.2118C111.944 98.7575 111.944 98.3032 111.853 97.7581C112.308 94.6691 111.398 89.3087 109.305 86.3105C108.03 90.3081 109.487 95.2142 111.489 98.2124C111.671 99.8477 111.762 101.483 111.853 103.118C111.034 101.12 109.305 99.0301 107.12 98.2124C107.757 100.393 110.124 102.937 111.853 103.845C111.944 105.935 111.853 107.934 111.762 110.023C111.762 110.296 111.762 110.568 111.671 110.75C110.852 108.751 109.123 106.48 106.938 105.662C107.575 107.843 109.942 110.387 111.671 111.295C111.489 113.476 111.216 115.565 110.852 117.746C110.215 115.656 108.667 113.385 106.574 112.386C107.029 114.657 109.123 117.292 110.761 118.382C110.488 119.836 110.215 121.289 109.76 122.743C109.487 123.924 109.123 125.105 108.758 126.195C108.576 126.74 108.394 127.286 108.212 127.922C108.03 128.558 107.757 129.103 107.757 129.739C107.666 129.92 107.939 130.011 108.03 129.829Z" fill="#5E871D"/>
<path d="M113.036 140.55C114.037 140.186 114.947 139.46 115.857 138.824C116.768 138.188 117.678 137.552 118.497 136.825C120.044 135.644 121.5 134.281 122.956 132.918C124.777 133.372 128.235 133.191 130.237 132.01C128.144 131.101 125.505 131.464 123.593 132.282C125.232 130.738 126.688 129.011 128.144 127.285C130.055 127.558 133.423 127.013 135.334 125.559C133.15 124.923 130.51 125.559 128.69 126.649C129.782 125.286 130.874 123.833 131.875 122.379C131.966 122.197 132.148 122.016 132.239 121.834C134.151 122.106 137.518 121.471 139.338 120.108C137.063 119.472 134.424 120.108 132.604 121.289C133.241 120.289 133.878 119.29 134.424 118.291C136.062 118.472 139.156 117.746 140.795 116.383C138.61 115.928 136.153 116.837 134.606 118.018C134.879 117.564 135.061 117.2 135.243 116.746C137.427 114.566 139.884 109.66 139.975 106.025C136.608 108.478 134.879 113.294 134.697 117.019C133.878 118.381 133.059 119.835 132.057 121.107C132.513 119.017 132.421 116.292 131.147 114.384C130.328 116.564 130.783 120.017 131.602 121.743C130.419 123.469 129.145 125.105 127.871 126.649C127.689 126.831 127.507 127.013 127.416 127.194C127.962 125.105 127.871 122.288 126.597 120.289C125.778 122.47 126.233 125.922 127.052 127.649C125.596 129.284 124.139 130.828 122.592 132.373C123.229 130.283 123.411 127.558 122.319 125.468C121.409 127.558 121.5 131.01 122.137 132.736C121.045 133.736 119.953 134.735 118.77 135.644C117.86 136.461 116.859 137.188 115.948 137.915C115.493 138.278 114.947 138.642 114.492 138.914C113.946 139.278 113.491 139.641 113.036 140.096C112.763 140.368 112.854 140.641 113.036 140.55Z" fill="#5E871D"/>
<path d="M107.302 149C108.212 147.637 112.945 141.277 121.045 136.189C131.966 129.375 141.704 129.557 141.704 129.557C136.335 140.096 126.051 145.911 118.133 149H107.302Z" fill="#8BC53F"/>
<path d="M110.215 148.999C121.591 142.73 141.705 129.557 141.705 129.557C136.335 140.096 126.051 145.91 118.133 148.999H110.215Z" fill="#B2E069"/>
<path d="M116.585 145.82C116.312 146.001 113.764 147.455 110.851 149H109.486C112.49 147.364 115.857 145.456 116.13 145.275C116.494 145.093 116.858 144.911 117.313 144.639C118.132 144.184 125.777 139.732 128.69 137.734C130.237 136.734 131.784 135.826 133.24 134.736C133.604 134.463 137.791 131.828 138.155 131.556C137.973 131.647 133.24 135.553 132.512 136.098C131.056 137.098 129.509 138.006 127.962 139.006C124.685 141.004 122.046 142.912 118.86 144.548C118.223 145.002 117.404 145.456 116.585 145.82Z" fill="#5E871D"/>
<path d="M113.127 147.455C113.218 147.273 113.127 147.182 113.127 147.001C113.127 146.819 113.127 146.637 113.127 146.546C113.127 146.274 113.127 145.91 113.127 145.547C113.127 144.911 113.218 144.275 113.309 143.639C113.309 143.548 113.127 143.457 113.127 143.639C112.945 144.275 112.763 144.911 112.763 145.547C112.763 145.91 112.763 146.183 112.763 146.546C112.763 146.728 112.763 146.91 112.763 147.001C112.763 147.182 112.763 147.364 112.854 147.455C112.854 147.637 113.127 147.637 113.127 147.455Z" fill="#5E871D"/>
<path d="M121.227 146.184C121.318 146.184 121.318 146.002 121.227 146.002C120.317 146.002 119.498 146.002 118.588 145.911C118.133 145.911 117.678 145.82 117.314 145.82C116.858 145.73 116.403 145.639 116.039 145.639C115.857 145.639 115.766 145.911 115.948 146.002C116.403 146.093 116.858 146.184 117.222 146.184C117.678 146.275 118.133 146.275 118.588 146.275C119.407 146.365 120.317 146.275 121.227 146.184Z" fill="#5E871D"/>
<path d="M118.133 144.548C118.133 144.185 117.951 143.821 117.86 143.458C117.769 143.095 117.678 142.822 117.678 142.459C117.587 142.095 117.587 141.732 117.587 141.278C117.587 140.823 117.496 140.369 117.496 140.006C117.496 139.915 117.314 139.915 117.314 140.006C117.314 140.46 117.223 140.823 117.223 141.278C117.223 141.641 117.223 142.004 117.314 142.459C117.314 142.822 117.405 143.186 117.496 143.549C117.587 143.912 117.678 144.367 117.86 144.73C117.86 144.821 118.133 144.73 118.133 144.548Z" fill="#5E871D"/>
<path d="M126.506 143.912C124.685 143.73 122.956 143.367 121.227 142.822C120.954 142.731 120.863 143.185 121.136 143.276C122.865 143.821 124.685 144.093 126.506 144.093C126.688 144.093 126.597 143.912 126.506 143.912Z" fill="#5E871D"/>
<path d="M123.138 141.913C123.138 141.64 123.138 141.459 123.047 141.186C123.047 140.913 122.956 140.732 122.956 140.459C122.956 140.005 122.865 139.46 122.865 139.005C122.865 138.097 122.956 137.098 123.138 136.189C123.138 136.007 122.956 136.007 122.956 136.189C122.683 137.188 122.592 138.188 122.501 139.187C122.501 139.641 122.501 140.187 122.501 140.641C122.501 141.095 122.501 141.64 122.683 142.004C122.865 142.185 123.138 142.095 123.138 141.913Z" fill="#5E871D"/>
<path d="M131.875 140.187C131.966 140.187 131.966 140.005 131.875 140.005C130.965 140.005 130.055 140.096 129.145 140.005C128.235 140.005 127.325 139.823 126.415 139.642C126.142 139.642 126.051 140.005 126.324 140.005C127.234 140.187 128.144 140.278 129.145 140.368C129.964 140.459 130.965 140.368 131.875 140.187Z" fill="#5E871D"/>
<path d="M128.144 138.46C128.144 137.734 128.144 137.007 128.144 136.371C128.144 135.644 128.144 134.917 128.144 134.19C128.144 134.099 127.962 134.099 127.962 134.19C127.871 134.917 127.871 135.644 127.871 136.28C127.871 137.007 127.78 137.734 127.78 138.46C127.78 138.733 128.144 138.733 128.144 138.46Z" fill="#5E871D"/>
<path d="M135.607 136.825C135.789 136.825 135.698 136.553 135.607 136.553C134.879 136.553 134.242 136.553 133.513 136.553C133.149 136.553 132.785 136.553 132.421 136.462C132.057 136.462 131.693 136.371 131.42 136.371C131.238 136.371 131.147 136.644 131.329 136.735C131.693 136.825 132.057 136.825 132.33 136.825C132.694 136.825 133.058 136.825 133.422 136.825C134.151 137.007 134.879 136.916 135.607 136.825Z" fill="#5E871D"/>
<path d="M132.421 136.099C132.421 134.827 132.512 133.555 132.785 132.283C132.785 132.101 132.603 132.101 132.512 132.283C132.148 133.555 132.057 134.827 132.057 136.099C132.057 136.28 132.421 136.28 132.421 136.099Z" fill="#5E871D"/>
<path d="M104.208 148.999H105.755H106.119H106.574H107.757C107.757 148.999 116.13 142.003 121.773 129.829C128.599 115.292 126.87 103.391 126.87 103.391C105.3 117.927 104.208 148.999 104.208 148.999Z" fill="#B2E069"/>
<path d="M104.208 148.999H106.119C110.943 135.28 126.87 103.391 126.87 103.391C105.3 117.927 104.208 148.999 104.208 148.999Z" fill="#8BC53F"/>
<path d="M105.755 148.999H106.119H106.574C108.031 144.82 111.125 137.643 111.307 137.188C111.489 136.643 111.671 136.189 111.853 135.644C112.217 134.645 116.677 124.469 118.679 120.562C119.68 118.563 120.59 116.474 121.682 114.475C121.955 113.93 124.595 108.479 124.868 107.934C124.777 108.115 120.681 114.566 120.135 115.565C119.043 117.564 118.224 119.563 117.223 121.652C115.221 126.013 113.309 129.557 111.762 133.736C111.398 134.735 110.943 135.826 110.579 136.825C110.397 137.279 107.576 143.73 105.755 148.999Z" fill="#5E871D"/>
<path d="M107.393 136.553C107.575 137.824 107.666 139.096 107.757 140.368C107.848 141.64 107.939 142.912 107.848 144.184C107.848 144.366 107.575 144.457 107.484 144.184C107.211 142.912 107.211 141.64 107.12 140.368C107.029 139.096 107.029 137.824 107.029 136.553C107.211 136.462 107.393 136.462 107.393 136.553Z" fill="#5E871D"/>
<path d="M109.032 141.277C109.214 141.186 109.396 141.186 109.578 141.186C109.76 141.186 109.942 141.186 110.215 141.186C110.579 141.186 111.034 141.095 111.398 141.004C112.126 140.913 112.945 140.732 113.673 140.459C113.855 140.368 113.855 140.641 113.764 140.641C113.036 141.004 112.217 141.277 111.398 141.458C111.034 141.549 110.579 141.64 110.215 141.64C110.033 141.64 109.851 141.64 109.578 141.64C109.396 141.64 109.214 141.64 109.032 141.64C108.85 141.64 108.85 141.368 109.032 141.277Z" fill="#5E871D"/>
<path d="M109.396 131.101C109.396 130.919 109.578 130.919 109.669 131.101C109.76 132.191 109.942 133.282 110.124 134.372C110.215 134.917 110.306 135.462 110.488 136.007C110.579 136.552 110.852 137.097 110.943 137.643C111.034 137.915 110.579 138.006 110.488 137.733C110.306 137.279 110.124 136.643 110.033 136.189C109.942 135.644 109.76 135.099 109.669 134.554C109.487 133.372 109.396 132.191 109.396 131.101Z" fill="#5E871D"/>
<path d="M111.853 134.735C112.308 134.735 112.763 134.826 113.218 134.917C113.673 134.917 114.037 135.008 114.492 135.008C114.947 135.008 115.493 135.008 115.948 135.008C116.495 135.008 117.041 134.917 117.587 134.826C117.769 134.826 117.769 135.099 117.678 135.099C117.132 135.19 116.677 135.371 116.131 135.371C115.675 135.462 115.22 135.462 114.674 135.462C114.219 135.462 113.764 135.462 113.218 135.462C112.672 135.462 112.126 135.371 111.671 135.28C111.58 135.099 111.671 134.735 111.853 134.735Z" fill="#5E871D"/>
<path d="M111.398 124.287C111.853 126.467 112.581 128.557 113.491 130.556C113.673 130.919 113.127 131.01 112.945 130.737C112.035 128.648 111.398 126.467 111.125 124.287C111.125 124.105 111.398 124.105 111.398 124.287Z" fill="#5E871D"/>
<path d="M114.401 128.103C114.674 128.012 115.038 128.103 115.311 128.103C115.584 128.103 115.948 128.103 116.221 128.103C116.858 128.103 117.405 128.012 118.042 127.921C119.225 127.739 120.408 127.467 121.5 127.103C121.682 127.012 121.773 127.285 121.591 127.376C120.408 127.83 119.225 128.193 117.951 128.375C117.314 128.466 116.767 128.557 116.13 128.557C115.584 128.557 114.947 128.648 114.31 128.466C114.128 128.466 114.219 128.193 114.401 128.103Z" fill="#5E871D"/>
<path d="M115.22 117.11C115.22 116.928 115.493 116.928 115.493 117.11C115.584 118.2 115.675 119.381 115.857 120.472C116.039 121.653 116.312 122.743 116.676 123.833C116.767 124.106 116.312 124.287 116.221 124.015C115.857 122.925 115.584 121.743 115.402 120.653C115.22 119.472 115.129 118.291 115.22 117.11Z" fill="#5E871D"/>
<path d="M117.951 121.38C118.861 121.289 119.68 121.198 120.59 121.108C121.5 121.017 122.319 120.926 123.229 120.835C123.411 120.835 123.411 121.017 123.32 121.108C122.41 121.289 121.591 121.38 120.681 121.562C119.771 121.653 118.952 121.834 118.042 121.925C117.677 121.834 117.586 121.38 117.951 121.38Z" fill="#5E871D"/>
<path d="M118.861 111.931C118.861 111.749 119.134 111.749 119.134 111.931C119.225 112.749 119.316 113.657 119.407 114.475C119.498 114.929 119.498 115.384 119.589 115.747C119.68 116.201 119.771 116.565 119.862 117.019C119.862 117.292 119.498 117.382 119.407 117.11C119.225 116.746 119.225 116.292 119.134 115.838C119.043 115.384 118.952 114.929 118.952 114.475C118.861 113.748 118.861 112.84 118.861 111.931Z" fill="#5E871D"/>
<path d="M120.226 115.746C121.864 115.565 123.411 115.201 124.868 114.747C125.05 114.656 125.141 115.02 124.959 115.02C123.502 115.656 121.864 116.019 120.226 116.11C120.044 116.201 119.953 115.837 120.226 115.746Z" fill="#5E871D"/>
<path d="M50.7841 129.829C50.147 128.921 49.874 127.831 49.51 126.831C49.1459 125.832 48.8729 124.742 48.5088 123.651C47.9628 121.743 47.5987 119.836 47.2347 117.928C45.4145 117.201 42.7751 115.02 41.865 112.931C44.0493 113.385 45.9605 115.293 47.0527 117.11C46.6886 114.839 46.4156 112.658 46.3246 110.387C44.5954 109.478 42.2291 107.025 41.501 104.845C43.6852 105.572 45.4145 107.661 46.2336 109.66C46.1425 107.843 46.1425 106.117 46.2336 104.3C46.2336 104.118 46.2336 103.845 46.2336 103.664C44.5043 102.755 42.1381 100.302 41.501 98.1215C43.6852 98.8484 45.4145 101.029 46.3246 103.028C46.4156 101.847 46.5066 100.665 46.6886 99.4843C45.2324 98.6666 43.1392 96.3044 42.6841 94.2148C44.6864 95.0325 46.1426 97.3038 46.7796 99.2118C46.8706 98.7575 46.8706 98.3032 46.9617 97.7581C46.5066 94.6691 47.4167 89.3087 49.51 86.3105C50.7841 90.3081 49.3279 95.2142 47.3257 98.2124C47.1437 99.8477 47.0527 101.483 46.9617 103.118C47.7808 101.12 49.51 99.0301 51.6942 98.2124C51.0572 100.393 48.6909 102.937 46.9617 103.845C46.8706 105.935 46.9617 107.934 47.0527 110.023C47.0527 110.296 47.0527 110.568 47.1437 110.75C47.9628 108.751 49.692 106.48 51.8763 105.662C51.2392 107.843 48.8729 110.387 47.1437 111.295C47.3257 113.476 47.5987 115.565 47.9628 117.746C48.5999 115.656 50.147 113.385 52.2403 112.386C51.7852 114.657 49.692 117.292 48.0538 118.382C48.3268 119.836 48.5999 121.289 49.0549 122.743C49.3279 123.924 49.692 125.105 50.056 126.195C50.2381 126.74 50.4201 127.286 50.6021 127.922C50.7841 128.558 51.0572 129.103 51.0572 129.739C51.1482 129.92 50.8751 130.011 50.7841 129.829Z" fill="#5E871D"/>
<path d="M45.7784 140.55C44.7773 140.186 43.8672 139.46 42.9571 138.824C42.047 138.188 41.1369 137.552 40.3178 136.825C38.7706 135.644 37.3144 134.281 35.8582 132.918C34.038 133.372 30.5796 133.191 28.5773 132.01C30.6706 131.101 33.3099 131.464 35.2211 132.282C33.5829 130.738 32.1268 129.011 30.6706 127.285C28.7593 127.558 25.3919 127.013 23.4807 125.559C25.665 124.923 28.3043 125.559 30.1245 126.649C29.0324 125.286 27.9402 123.833 26.9391 122.379C26.8481 122.197 26.6661 122.016 26.5751 121.834C24.6638 122.106 21.2964 121.471 19.4762 120.108C21.7515 119.472 24.3908 120.108 26.211 121.289C25.574 120.289 24.9369 119.29 24.3908 118.291C22.7526 118.472 19.6582 117.746 18.02 116.383C20.2043 115.928 22.6616 116.837 24.2088 118.018C23.9358 117.564 23.7537 117.2 23.5717 116.746C21.3874 114.566 18.9301 109.66 18.8391 106.025C22.2065 108.478 23.9358 113.294 24.1178 117.019C24.9369 118.381 25.756 119.835 26.7571 121.107C26.302 119.017 26.3931 116.292 27.6672 114.384C28.4863 116.564 28.0313 120.017 27.2122 121.743C28.3953 123.469 29.6695 125.105 30.9436 126.649C31.1256 126.831 31.3077 127.013 31.3987 127.194C30.8526 125.105 30.9436 122.288 32.2178 120.289C33.0369 122.47 32.5818 125.922 31.7627 127.649C33.2189 129.284 34.6751 130.828 36.2223 132.373C35.5852 130.283 35.4032 127.558 36.4953 125.468C37.4054 127.558 37.3144 131.01 36.6773 132.736C37.7695 133.736 38.8616 134.735 40.0447 135.644C40.9549 136.461 41.956 137.188 42.8661 137.915C43.3211 138.278 43.8672 138.642 44.3223 138.914C44.8683 139.278 45.3234 139.641 45.7784 140.096C46.0515 140.368 45.9605 140.641 45.7784 140.55Z" fill="#5E871D"/>
<path d="M51.5121 149C50.602 147.637 45.8694 141.277 37.7694 136.189C26.8481 129.375 17.1099 129.557 17.1099 129.557C22.4795 140.096 32.7638 145.911 40.6818 149H51.5121Z" fill="#8BC53F"/>
<path d="M48.5998 149C37.2233 142.731 17.1099 129.558 17.1099 129.558C22.4795 140.097 32.7638 145.911 40.6818 149H48.5998Z" fill="#B2E069"/>
<path d="M42.2288 145.82C42.5019 146.001 45.0502 147.455 47.9625 149H49.3277C46.3243 147.364 42.9569 145.456 42.6839 145.275C42.3199 145.093 41.9558 144.911 41.5007 144.639C40.6816 144.184 33.0367 139.732 30.1243 137.734C28.5772 136.734 27.03 135.826 25.5738 134.736C25.2097 134.463 21.0232 131.828 20.6592 131.556C20.8412 131.647 25.5738 135.553 26.3019 136.098C27.7581 137.098 29.3052 138.006 30.8524 139.006C34.1288 141.004 36.7682 142.912 39.9536 144.548C40.5906 145.002 41.4097 145.456 42.2288 145.82Z" fill="#5E871D"/>
<path d="M45.6874 147.455C45.5964 147.273 45.6874 147.182 45.6874 147.001C45.6874 146.819 45.6874 146.637 45.6874 146.546C45.6874 146.274 45.6874 145.91 45.6874 145.547C45.6874 144.911 45.5964 144.275 45.5054 143.639C45.5054 143.548 45.6874 143.457 45.6874 143.639C45.8694 144.275 46.0514 144.911 46.0514 145.547C46.0514 145.91 46.0514 146.183 46.0514 146.546C46.0514 146.728 46.0514 146.91 46.0514 147.001C46.0514 147.182 46.0514 147.364 45.9604 147.455C45.9604 147.637 45.7784 147.637 45.6874 147.455Z" fill="#5E871D"/>
<path d="M37.5873 146.184C37.4963 146.184 37.4963 146.002 37.5873 146.002C38.4974 146.002 39.3165 146.002 40.2266 145.911C40.6817 145.911 41.1367 145.82 41.5008 145.82C41.9558 145.73 42.4109 145.639 42.7749 145.639C42.957 145.639 43.048 145.911 42.866 146.002C42.4109 146.093 41.9558 146.184 41.5918 146.184C41.1367 146.275 40.6817 146.275 40.2266 146.275C39.4075 146.365 38.4974 146.275 37.5873 146.184Z" fill="#5E871D"/>
<path d="M40.6816 144.548C40.6816 144.185 40.8637 143.821 40.9547 143.458C41.0457 143.095 41.1367 142.822 41.1367 142.459C41.2277 142.095 41.2277 141.732 41.2277 141.278C41.2277 140.823 41.3187 140.369 41.3187 140.006C41.3187 139.915 41.5007 139.915 41.5007 140.006C41.5007 140.46 41.5918 140.823 41.5918 141.278C41.5918 141.641 41.5918 142.004 41.5007 142.459C41.5007 142.822 41.4097 143.186 41.3187 143.549C41.2277 143.912 41.1367 144.367 40.9547 144.73C41.0457 144.821 40.6816 144.73 40.6816 144.548Z" fill="#5E871D"/>
<path d="M32.309 143.912C34.1292 143.73 35.8584 143.367 37.5876 142.822C37.8607 142.731 37.9517 143.185 37.6786 143.276C35.9494 143.821 34.1292 144.093 32.309 144.093C32.218 144.093 32.218 143.912 32.309 143.912Z" fill="#5E871D"/>
<path d="M35.6763 141.913C35.6763 141.64 35.6763 141.459 35.7673 141.186C35.7673 140.913 35.8583 140.732 35.8583 140.459C35.8583 140.005 35.9493 139.46 35.9493 139.005C35.9493 138.097 35.8583 137.098 35.6763 136.189C35.6763 136.007 35.8583 136.007 35.8583 136.189C36.1313 137.188 36.2223 138.188 36.3133 139.187C36.3133 139.641 36.3133 140.187 36.3133 140.641C36.3133 141.095 36.3133 141.64 36.1313 142.004C35.9493 142.185 35.7673 142.095 35.6763 141.913Z" fill="#5E871D"/>
<path d="M26.9389 140.187C26.8479 140.187 26.8479 140.005 26.9389 140.005C27.849 140.005 28.7591 140.096 29.6692 140.005C30.5793 140.005 31.4894 139.823 32.3995 139.642C32.6726 139.642 32.7636 140.005 32.4905 140.005C31.5804 140.187 30.6703 140.278 29.6692 140.368C28.8501 140.459 27.849 140.368 26.9389 140.187Z" fill="#5E871D"/>
<path d="M30.6704 138.46C30.6704 137.734 30.6704 137.007 30.6704 136.371C30.6704 135.644 30.6704 134.917 30.6704 134.19C30.6704 134.099 30.8524 134.099 30.8524 134.19C30.9434 134.917 30.9434 135.644 30.9434 136.28C30.9434 137.007 31.0345 137.734 31.0345 138.46C31.0345 138.733 30.6704 138.733 30.6704 138.46Z" fill="#5E871D"/>
<path d="M23.2076 136.825C23.0256 136.825 23.1166 136.553 23.2076 136.553C23.9357 136.553 24.5728 136.553 25.3009 136.553C25.6649 136.553 26.029 136.553 26.393 136.462C26.7571 136.462 27.1211 136.371 27.3941 136.371C27.5762 136.371 27.6672 136.644 27.4852 136.735C27.1211 136.825 26.7571 136.825 26.484 136.825C26.12 136.825 25.7559 136.825 25.3919 136.825C24.6638 137.007 23.9357 136.916 23.2076 136.825Z" fill="#5E871D"/>
<path d="M26.3929 136.099C26.3929 134.827 26.3018 133.555 26.0288 132.283C26.0288 132.101 26.2108 132.101 26.3018 132.283C26.6659 133.555 26.7569 134.827 26.7569 136.099C26.7569 136.28 26.3929 136.28 26.3929 136.099Z" fill="#5E871D"/>
<path d="M54.6064 148.999H53.0592H52.6951H52.2401H51.0569C51.0569 148.999 42.6839 142.003 37.0412 129.829C30.2154 115.292 31.9446 103.391 31.9446 103.391C53.5142 117.927 54.6064 148.999 54.6064 148.999Z" fill="#B2E069"/>
<path d="M54.6061 148.999H52.6949C47.8713 135.28 31.9443 103.391 31.9443 103.391C53.514 117.927 54.6061 148.999 54.6061 148.999Z" fill="#8BC53F"/>
<path d="M53.0591 148.999H52.6951H52.24C50.7839 144.82 47.6895 137.643 47.5075 137.188C47.3254 136.643 47.1434 136.189 46.9614 135.644C46.5973 134.645 42.1378 124.469 40.1355 120.562C39.1344 118.563 38.2243 116.474 37.1322 114.475C36.8591 113.93 34.2198 108.479 33.9468 107.934C34.0378 108.115 38.1333 114.566 38.6794 115.565C39.7715 117.564 40.5906 119.563 41.5917 121.652C43.594 126.013 45.5052 129.557 47.0524 133.736C47.4164 134.735 47.8715 135.826 48.2355 136.825C48.4176 137.279 51.2389 143.73 53.0591 148.999Z" fill="#5E871D"/>
<path d="M51.421 136.553C51.239 137.824 51.1479 139.096 51.0569 140.368C50.9659 141.64 50.8749 142.912 50.9659 144.184C50.9659 144.366 51.239 144.457 51.33 144.184C51.603 142.912 51.603 141.64 51.694 140.368C51.785 139.096 51.785 137.824 51.785 136.553C51.603 136.462 51.421 136.462 51.421 136.553Z" fill="#5E871D"/>
<path d="M49.7826 141.277C49.6006 141.186 49.4186 141.186 49.2365 141.186C49.0545 141.186 48.8725 141.186 48.5995 141.186C48.2354 141.186 47.7804 141.095 47.4163 141.004C46.6882 140.913 45.8691 140.732 45.141 140.459C44.959 140.368 44.959 140.641 45.05 140.641C45.7781 141.004 46.5972 141.277 47.4163 141.458C47.7804 141.549 48.2354 141.64 48.5995 141.64C48.7815 141.64 48.9635 141.64 49.2365 141.64C49.4186 141.64 49.6006 141.64 49.7826 141.64C49.9646 141.64 49.9646 141.368 49.7826 141.277Z" fill="#5E871D"/>
<path d="M49.4185 131.101C49.4185 130.919 49.2365 130.919 49.1455 131.101C49.0545 132.191 48.8725 133.282 48.6904 134.372C48.5994 134.917 48.5084 135.462 48.3264 136.007C48.2354 136.552 47.9624 137.097 47.8713 137.643C47.7803 137.915 48.2354 138.006 48.3264 137.733C48.5084 137.279 48.6904 136.643 48.7815 136.189C48.8725 135.644 49.0545 135.099 49.1455 134.554C49.3275 133.372 49.4185 132.191 49.4185 131.101Z" fill="#5E871D"/>
<path d="M46.9616 134.735C46.5066 134.735 46.0515 134.826 45.5965 134.917C45.1414 134.917 44.7774 135.008 44.3223 135.008C43.8673 135.008 43.3212 135.008 42.8661 135.008C42.3201 135.008 41.774 134.917 41.2279 134.826C41.0459 134.826 41.0459 135.099 41.1369 135.099C41.683 135.19 42.1381 135.371 42.6841 135.371C43.1392 135.462 43.5942 135.462 44.1403 135.462C44.5954 135.462 45.0504 135.462 45.5965 135.462C46.1425 135.462 46.6886 135.371 47.1437 135.28C47.2347 135.099 47.1437 134.735 46.9616 134.735Z" fill="#5E871D"/>
<path d="M47.4165 124.287C46.9615 126.467 46.2334 128.557 45.3233 130.556C45.1412 130.919 45.6873 131.01 45.8693 130.737C46.7794 128.648 47.4165 126.467 47.6895 124.287C47.6895 124.105 47.4165 124.105 47.4165 124.287Z" fill="#5E871D"/>
<path d="M44.4131 128.103C44.1401 128.012 43.776 128.103 43.503 128.103C43.23 128.103 42.8659 128.103 42.5929 128.103C41.9558 128.103 41.4098 128.012 40.7727 127.921C39.5895 127.739 38.4064 127.467 37.3143 127.103C37.1322 127.012 37.0412 127.285 37.2232 127.376C38.4064 127.83 39.5895 128.193 40.8637 128.375C41.5008 128.466 42.0468 128.557 42.6839 128.557C43.23 128.557 43.8671 128.648 44.5041 128.466C44.6862 128.466 44.5951 128.193 44.4131 128.103Z" fill="#5E871D"/>
<path d="M43.5941 117.11C43.5941 116.928 43.3211 116.928 43.3211 117.11C43.2301 118.2 43.1391 119.381 42.957 120.472C42.775 121.653 42.502 122.743 42.1379 123.833C42.0469 124.106 42.502 124.287 42.593 124.015C42.957 122.925 43.2301 121.743 43.4121 120.653C43.5941 119.472 43.6851 118.291 43.5941 117.11Z" fill="#5E871D"/>
<path d="M40.9548 121.38C40.0447 121.289 39.2256 121.198 38.3155 121.108C37.4054 121.017 36.5863 120.926 35.6762 120.835C35.4942 120.835 35.4942 121.017 35.5852 121.108C36.4953 121.289 37.3144 121.38 38.2245 121.562C39.1346 121.653 39.9537 121.834 40.8638 121.925C41.1369 121.834 41.2279 121.38 40.9548 121.38Z" fill="#5E871D"/>
<path d="M39.9538 111.931C39.9538 111.749 39.6807 111.749 39.6807 111.931C39.5897 112.749 39.4987 113.657 39.4077 114.475C39.3167 114.929 39.3167 115.384 39.2257 115.747C39.1347 116.201 39.0436 116.565 38.9526 117.019C38.9526 117.292 39.3167 117.382 39.4077 117.11C39.5897 116.746 39.5897 116.292 39.6807 115.838C39.7717 115.384 39.8627 114.929 39.8627 114.475C39.9538 113.748 39.9538 112.84 39.9538 111.931Z" fill="#5E871D"/>
<path d="M38.5886 115.746C36.9504 115.565 35.4032 115.201 33.9471 114.747C33.765 114.656 33.674 115.02 33.8561 115.02C35.3122 115.656 36.9504 116.019 38.5886 116.11C38.7707 116.201 38.8617 115.837 38.5886 115.746Z" fill="#5E871D"/>
<path d="M52.9687 110.205C52.9687 110.205 50.7844 124.287 51.9676 134.917C53.1507 145.547 54.6979 148.817 54.6979 148.817H77.7237L77.3597 131.01L83.0934 131.192L89.0091 148.817H111.762C111.762 148.817 104.845 114.475 101.569 107.661C98.2013 100.756 57.1552 105.662 52.9687 110.205Z" fill="#252526"/>
<path d="M81.4552 127.831C81.3642 128.739 81.3642 129.739 81.2732 130.647C81.2732 130.738 81.1822 130.829 81.0912 130.829C81.0001 130.829 81.0001 130.829 80.9091 130.829C80.8181 130.829 80.7271 130.738 80.7271 130.647C80.5451 129.829 80.4541 128.83 80.3631 128.012C80.2721 127.104 80.2721 126.195 80.181 125.287C80.181 124.923 80.181 124.469 80.181 124.106C80.181 123.742 80.181 123.288 80.181 122.925C80.181 122.016 80.09 121.108 80.09 120.199C80.09 118.473 79.999 116.656 79.999 114.929C79.999 114.021 79.999 113.203 80.09 112.295C80.181 111.386 80.4541 110.478 80.5451 109.569C80.5451 109.478 80.6361 109.478 80.6361 109.569C80.7271 110.387 81.0912 111.204 81.1822 112.113C81.2732 112.931 81.3642 113.748 81.3642 114.566C81.4552 116.383 81.4552 118.109 81.4552 119.926C81.4552 121.108 81.5462 122.289 81.5462 123.47C81.5462 123.833 81.5462 124.197 81.5462 124.56C81.5462 124.833 81.5462 125.014 81.5462 125.287C81.4552 126.104 81.4552 126.922 81.4552 127.831Z" fill="#111112"/>
<path d="M81.4548 124.469C80.9998 124.378 80.5447 124.196 80.0897 124.015C79.5436 123.742 78.9975 123.47 78.5425 123.106C77.4503 122.198 76.9043 120.835 76.8133 119.472C76.6312 117.746 76.6312 116.02 76.5402 114.293C76.5402 113.476 76.4492 112.658 76.4492 111.84C76.4492 111.386 76.4492 110.932 76.4492 110.478C76.4492 110.023 76.6312 109.66 76.6312 109.206C76.6312 109.024 76.9043 109.024 76.9043 109.206C76.9953 109.569 77.1773 109.932 77.2683 110.296C77.3593 110.659 77.3593 111.114 77.3593 111.477C77.4503 112.295 77.4503 113.021 77.5414 113.839C77.7234 115.475 77.8144 117.201 77.9054 118.836C77.9964 120.108 78.1784 121.471 79.1796 122.379C79.4526 122.561 79.7256 122.743 79.9987 122.925C80.4537 123.197 80.9088 123.379 81.3638 123.47C81.4548 123.742 81.4548 124.106 81.4548 124.469Z" fill="#111112"/>
<path d="M72.0809 14.9905C72.0809 14.9905 69.4416 14.5362 67.1663 18.8972C64.891 23.2582 66.8933 35.9777 65.4371 37.5222C63.9809 39.0667 62.3427 41.1563 61.7966 43.7002C61.2506 46.2442 59.8854 47.9704 58.1562 49.0606C56.518 50.06 53.5146 54.8752 54.2427 58.6911C54.9708 62.4161 59.8854 77.1344 74.3562 76.4984C88.827 75.8624 108.485 62.4161 107.666 57.1466C106.847 51.9679 105.118 52.1496 105.118 49.8783C105.118 47.607 107.029 45.8807 105.573 43.5185C104.117 41.0655 100.021 39.0667 98.9292 32.9795C97.8371 26.8923 95.1977 16.0807 91.0112 12.6283C86.8247 9.26671 76.4494 8.99415 72.0809 14.9905Z" fill="#32191C"/>
<path d="M102.934 52.1494C102.934 52.1494 107.302 52.3311 109.851 56.8738C112.399 61.4165 123.684 83.1305 126.324 90.5805C128.963 98.0305 128.053 102.846 126.233 103.936C124.412 105.026 112.217 93.0336 107.302 85.7653C102.479 78.497 101.114 69.3208 101.387 66.2317C101.66 63.1427 102.934 52.1494 102.934 52.1494Z" fill="#29666E"/>
<path d="M106.483 74.7725C106.483 74.7725 125.504 87.2194 125.049 96.6682C108.758 88.4914 104.299 81.4048 104.299 81.4048L106.483 74.7725Z" fill="#1B555A"/>
<path d="M105.755 55.5107C105.755 55.5107 107.666 58.5089 107.757 68.0485C107.848 77.5882 107.029 84.3114 107.029 84.3114C107.029 84.3114 98.3828 75.226 98.4739 75.1351C98.5649 75.1351 104.208 59.4174 104.208 59.1449C104.117 58.9632 105.755 55.5107 105.755 55.5107Z" fill="#1B555A"/>
<path d="M68.5315 36.7041C68.5315 36.7041 69.5326 39.7023 67.9854 42.2462C66.4382 44.6992 60.3405 47.0614 58.8843 52.2401C67.4393 54.3297 70.6247 52.1492 70.7157 51.7858C70.8067 51.4224 74.1742 45.7895 74.0832 44.9718C73.9921 44.1541 70.8068 37.5218 70.8068 37.5218L68.5315 36.7041Z" fill="#251115"/>
<path d="M94.4695 33.252C94.4695 33.252 95.0156 38.0672 97.1088 41.2471C99.1111 44.427 100.567 48.2428 98.747 52.5129C96.9268 56.7831 92.4672 51.1501 92.4672 50.8776C92.4672 50.605 92.5583 37.0678 92.4672 36.6135C92.3762 36.0684 94.4695 33.252 94.4695 33.252Z" fill="#251115"/>
<path d="M94.0146 53.6036C94.0146 53.6036 87.8259 62.053 79.9079 62.053C71.9899 62.1439 67.3483 55.0573 67.2573 54.8756L71.5348 46.6079L74.2652 41.2475L86.7337 39.9756C86.7337 39.9756 86.7337 43.428 87.1888 46.4262C87.3708 47.789 87.6438 48.9701 88.0079 49.8786C89.191 52.6042 94.0146 53.6036 94.0146 53.6036Z" fill="#EEA77F"/>
<path d="M92.4672 112.113C92.4672 112.113 67.2571 112.658 66.711 112.658C66.256 112.658 67.0751 71.865 67.2571 58.5095C67.3481 55.8747 67.3481 54.3302 67.3481 54.3302C67.3481 54.3302 72.8088 60.9625 80.0897 60.7808C87.3706 60.5991 92.1942 53.9668 92.1942 53.9668V58.1461L92.4672 112.113Z" fill="#FDCD0D"/>
<path d="M92.1944 58.0552C88.736 61.2351 84.4584 63.5973 79.5438 63.4156C74.6292 63.143 70.5337 61.0534 67.2573 58.5095C67.3483 55.8747 67.3483 54.3302 67.3483 54.3302C67.3483 54.3302 72.809 60.9625 80.0899 60.7808C87.3708 60.5991 92.1944 53.9668 92.1944 53.9668V58.0552Z" fill="#FAAD18"/>
<path d="M114.947 129.102C100.021 131.283 88.8271 114.657 87.5529 109.206C87.2799 108.206 87.1889 105.753 87.0979 102.21C86.7338 86.3104 87.917 50.4232 87.917 50.4232C87.917 50.4232 89.1912 50.3323 91.1024 50.4232C95.835 50.514 104.572 51.0592 106.392 54.3299C107.029 55.511 107.029 59.236 106.665 63.9604C106.119 70.5019 104.845 79.2238 103.753 86.2195C102.661 93.2153 101.751 98.6665 101.842 98.939C102.115 99.8476 105.664 107.116 114.947 129.102Z" fill="#29666E"/>
<path d="M91.0111 76.589L95.5616 78.9512C95.5616 78.9512 89.2819 95.7591 87.0066 102.301C86.6425 86.4012 87.8257 50.514 87.8257 50.514C87.8257 50.514 89.0998 50.4232 91.0111 50.514L95.6527 75.6805L91.0111 76.589Z" fill="#1B555A"/>
<path d="M72.172 89.4904C71.99 94.4873 71.899 99.3026 71.717 103.482C71.4439 107.934 71.1709 111.75 70.5338 114.203C69.4417 119.018 58.7934 127.285 48.6001 128.012C49.0552 124.378 49.6922 120.381 50.4203 116.565C51.4214 111.568 52.6046 106.662 53.6057 102.846C54.7889 98.1215 55.79 95.0324 55.79 95.0324C55.79 95.0324 54.3338 74.8629 53.7877 68.6849C53.3327 62.5068 53.4237 55.1477 54.7889 53.6032C55.0619 53.3306 55.699 52.9672 56.7001 52.5129C59.6125 51.241 64.8911 49.5147 68.4405 49.333C70.2608 49.2422 71.4439 49.2422 71.4439 49.2422C71.4439 49.2422 72.5361 76.2257 72.172 89.4904Z" fill="#29666E"/>
<path d="M56.6087 52.6943C56.6087 52.6943 51.5121 55.0565 49.2368 59.4175C47.0525 63.7785 37.4054 102.391 41.0458 105.935C45.0503 109.387 54.5155 105.662 55.5166 95.6681C56.6087 85.6742 61.1593 56.601 56.6087 52.6943Z" fill="#1B555A"/>
<path d="M67.439 100.574C67.439 100.574 60.3401 111.749 50.4199 116.655C51.421 111.658 52.6042 106.752 53.6053 102.936C60.3401 103.027 67.439 100.574 67.439 100.574Z" fill="#1B555A"/>
<path d="M72.1718 89.4903C71.9898 94.4872 71.8988 99.3025 71.7168 103.482C70.3516 98.939 64.6179 79.9506 63.3438 76.4982C68.2584 76.589 69.6235 76.8616 69.6235 76.8616L63.9808 73.3183C63.9808 73.3183 67.4393 54.6933 68.3494 49.6055C70.1696 49.5146 71.3527 49.5146 71.3527 49.5146C71.3527 49.5146 72.5359 76.2256 72.1718 89.4903Z" fill="#1B555A"/>
<path d="M73.355 56.42C73.628 56.3291 85.9145 56.2383 85.9145 56.2383C85.9145 56.2383 83.0932 57.7828 79.0887 57.4194C75.0842 57.056 73.355 56.42 73.355 56.42Z" fill="#F37E57"/>
<path d="M87.1886 46.4262C85.1864 47.4256 82.092 48.6975 79.9077 48.6975C76.5403 48.6067 71.8077 46.6988 71.5347 46.6079L74.265 41.2475L86.7335 39.9756C86.7335 39.9756 86.7335 43.428 87.1886 46.4262Z" fill="#F37E57"/>
<path d="M74.9021 42.9735C74.9021 42.9735 75.7212 46.6985 74.083 50.1509C72.4448 53.6033 69.0773 55.2387 69.3504 58.3277C69.6234 61.4168 70.7155 64.9601 70.8066 66.9588C70.8976 68.9576 69.1684 72.9552 62.9796 74.2271C64.1627 71.5015 64.4358 69.5027 62.7976 66.7771C61.0684 64.1424 58.7021 58.2369 59.7942 53.9668C60.8863 49.6966 65.1639 47.0619 66.8931 45.5174C68.6223 43.9729 69.8054 41.7015 69.8054 39.9753C69.7144 38.2491 68.9863 35.4326 68.9863 35.4326L72.5358 35.7052L75.1751 41.7015L74.9021 42.9735Z" fill="#32191C"/>
<path d="M95.5619 31.7987C95.5619 31.7987 93.5597 35.5237 95.835 40.7932C98.1103 46.0627 98.4743 48.2432 97.2911 51.3322C96.108 54.4212 95.1979 55.0572 95.2889 56.3291C96.017 59.9633 97.2911 61.6895 97.4732 63.3249C97.6552 64.9602 96.5631 67.4133 94.1968 69.3212C91.8305 71.32 89.4642 74.3182 90.6473 77.2255C87.4619 75.4993 87.2799 74.0456 87.644 70.9566C88.099 67.8676 89.1911 66.8682 88.281 64.8694C87.2799 62.8706 83.6395 58.3279 84.0035 55.148C84.3676 51.9682 87.735 49.5151 88.008 47.3346C88.281 45.1541 87.5529 42.7919 87.3709 38.7944C87.2799 34.7968 88.6451 29.2547 90.5563 28.8005C92.3765 28.3462 95.744 27.6194 95.5619 31.7987Z" fill="#32191C"/>
<path d="M93.1044 40.5205C93.4684 42.1559 93.3774 43.7912 93.0134 45.3358C92.6493 46.7894 92.1033 48.3339 91.1932 49.6059C90.283 50.9687 88.8269 51.8772 87.9168 53.24C87.4617 53.876 87.1887 54.6028 87.0977 55.3297C87.0977 55.6931 87.0977 56.1473 87.0977 56.4199C87.1887 56.7833 87.4617 57.1467 87.6437 57.4193C87.6437 57.5101 87.7347 57.4193 87.7347 57.3284C87.4617 56.5108 87.8257 55.4205 88.2808 54.6937C88.6449 53.9669 89.3729 53.4217 89.919 52.8766C91.1022 51.7864 92.1943 50.6961 93.0134 49.2425C93.7415 47.8797 94.1055 46.426 94.1055 44.8815C94.1055 43.4278 93.6505 41.8833 93.1044 40.5205Z" fill="#251115"/>
<path d="M92.4677 48.2434C92.3766 47.1532 91.8306 46.1538 91.4665 45.0636C91.0115 43.9733 90.7384 42.8831 90.6474 41.702C90.6474 40.5209 91.0115 39.4306 91.3755 38.3404C91.3755 38.2495 91.2845 38.1587 91.1935 38.2495C90.1014 39.8849 89.7373 42.338 90.1014 44.3367C90.2834 45.5178 90.9205 46.5172 91.1935 47.6075C91.4665 48.6069 91.5575 49.6063 91.1935 50.5148C91.1935 50.6056 91.2845 50.6965 91.3755 50.6056C92.1946 50.1514 92.5587 49.152 92.4677 48.2434Z" fill="#251115"/>
<path d="M97.2914 51.2416C96.5633 52.5135 96.0172 53.8763 95.2891 55.1483C94.652 56.4202 93.8329 57.6922 93.3779 59.055C93.0138 60.2361 92.9228 61.4172 93.1959 62.5983C93.3779 63.2342 93.5599 63.8702 94.015 64.3245C94.197 64.5062 94.379 64.7787 94.561 64.9605C94.7431 65.1422 94.9251 65.233 95.1981 65.4147C95.3801 65.5056 95.5622 65.3239 95.3801 65.233C95.1071 64.8696 94.8341 64.3245 94.7431 63.8702C94.652 63.3251 94.379 62.8708 94.288 62.3257C94.015 61.2355 94.106 60.0544 94.379 58.9641C94.7431 57.6013 95.2891 56.3294 95.8352 54.9666C96.3813 53.6946 96.9273 52.5135 97.2914 51.2416C97.3824 51.2416 97.2914 51.1507 97.2914 51.2416Z" fill="#251115"/>
<path d="M88.0081 72.4106C88.0081 71.0478 88.3721 69.7759 88.7362 68.5039C89.3732 66.2326 89.8283 63.6887 88.8272 61.4173C88.8272 61.3265 88.6452 61.4173 88.7362 61.4173C88.8272 62.7801 89.0092 64.1429 88.7362 65.4149C88.4631 66.6868 88.0991 67.9588 87.735 69.2307C87.462 70.321 87.007 71.6838 87.28 72.8649C87.371 73.3192 87.553 73.7734 87.735 74.2277C88.0081 74.7728 88.2811 75.0454 88.7362 75.4088C88.7362 75.4088 88.8272 75.4088 88.8272 75.3179C88.0081 74.682 88.0081 73.5009 88.0081 72.4106Z" fill="#251115"/>
<path d="M69.8968 33.5242C69.8058 33.4334 68.3496 30.0718 65.8923 31.0712C63.617 31.9797 65.1642 35.523 66.8024 36.795C68.5316 38.1578 69.8968 38.8846 70.8069 37.9761C71.717 37.0675 69.8968 33.5242 69.8968 33.5242Z" fill="#EEA77F"/>
<path d="M67.8032 36.4316C67.8032 36.4316 69.6234 38.2487 70.7156 37.431C70.6246 37.0676 70.6246 37.0676 70.6246 37.0676C70.6246 37.0676 69.4414 37.5219 67.8032 36.4316Z" fill="#F37E57"/>
<path d="M66.62 35.1604C66.62 35.2513 65.6189 34.2519 65.8009 33.0708C65.983 31.7988 66.8931 31.7988 67.3481 31.9805C68.1672 32.2531 69.8054 34.2519 70.0785 34.3427C70.2605 34.797 70.1695 34.8879 70.1695 34.8879C70.1695 34.8879 69.2594 34.161 68.5313 33.5251C67.7122 32.7982 67.4391 32.4348 66.8021 32.5257C66.074 32.7074 66.074 34.3427 66.62 35.1604Z" fill="#F37E57"/>
<path d="M68.8957 33.6152C68.8957 33.6152 68.3496 34.4329 68.3496 35.3415C68.3496 36.25 70.4429 36.886 70.4429 36.886C70.4429 36.886 70.3519 36.1591 70.2608 36.1591C70.2608 36.1591 68.9867 36.0683 68.7137 35.3415C68.4406 34.7055 69.0777 33.7061 68.9867 33.7061L68.8957 33.6152Z" fill="#F37E57"/>
<path d="M68.7134 30.3447C68.7134 30.3447 70.1696 38.9758 72.5359 41.7922C74.9022 44.6087 78.5426 46.5166 80.2718 46.2441C81.91 46.0623 85.9145 43.791 87.8258 40.8837C88.7359 39.43 89.464 37.0678 89.919 35.069C90.3741 33.1611 89.2819 31.1623 87.4617 30.5264C86.0965 30.0721 84.6404 29.4361 83.4572 28.6184C80.7269 26.8014 80.6359 20.805 78.9977 19.8056C77.3595 18.8971 75.5392 19.3514 74.5381 22.3495C72.6269 21.441 71.8078 21.9861 71.7168 22.5312C71.6258 23.0764 71.8078 25.9837 71.4437 26.6197C71.0797 27.4373 68.5314 28.9819 68.7134 30.3447Z" fill="#FBC09A"/>
<path d="M79.1798 29.7998C79.1798 29.7998 79.7259 32.0711 79.3618 33.7974C79.0888 34.9785 78.4517 36.1596 78.0877 36.7955C77.9967 36.9772 78.1787 37.159 78.3607 37.159C78.3607 37.159 80.909 36.9772 80.909 36.7955C81 36.6138 79.2708 36.523 79.2708 36.523C79.2708 36.523 79.8169 34.9785 80.0899 33.3431C80.272 31.6169 79.1798 29.7998 79.1798 29.7998Z" fill="#F37E57"/>
<path d="M72.4447 44.7908C72.3537 44.6999 72.3537 44.6999 72.4447 44.7908C72.1717 45.4268 71.8987 46.1536 71.5346 46.6079C71.1706 47.0621 70.6245 47.5164 70.1694 47.789C69.0773 48.6066 67.8942 49.1518 66.9841 50.0603C65.1638 51.7865 64.4357 54.1487 64.3447 56.6018C64.3447 56.6926 64.5268 56.6926 64.5268 56.6018C64.7998 54.1487 66.347 51.7865 68.3492 50.242C69.3503 49.5152 70.6245 48.9701 71.5346 47.9707C71.9897 47.5164 72.3537 46.7896 72.6268 46.1536C72.7178 45.6993 72.6267 45.2451 72.4447 44.7908Z" fill="#251115"/>
<path d="M73.9918 50.1509C73.6278 50.4234 73.4458 50.8777 73.0817 51.1503C72.8087 51.4228 72.5357 51.6045 72.2626 51.9679C71.8076 52.5131 71.3525 52.9673 70.8064 53.4216C69.7143 54.421 68.7132 55.6929 67.9851 57.0558C67.348 58.3277 67.075 59.7814 67.166 61.235C67.257 62.507 67.8031 63.4155 68.7132 64.2332C67.8941 63.3247 67.621 61.9619 67.621 60.7808C67.621 59.5088 68.3491 58.2369 68.9862 57.1466C69.7143 55.9655 70.6244 54.9661 71.4435 53.8759C71.8986 53.2399 72.3536 52.6948 72.7177 52.1497C72.9907 51.8771 73.0817 51.5137 73.3548 51.2411C73.5368 50.9686 73.9008 50.696 74.0828 50.3326C74.1739 50.1509 74.0828 50.06 73.9918 50.1509Z" fill="#251115"/>
<path d="M67.1663 67.2311C66.5292 66.3226 65.6191 65.7774 64.982 64.8689C64.1629 63.8695 63.5259 62.4158 63.9809 61.1439C63.9809 61.1439 63.9809 61.053 63.8899 61.1439C62.9798 63.1427 64.527 64.8689 65.5281 66.4134C66.4382 67.8671 67.9854 69.9567 66.5292 71.5921C66.4382 71.6829 66.5292 71.8646 66.7113 71.7738C67.4393 71.4104 67.8944 70.5927 67.9854 69.8658C68.0764 68.9573 67.6214 67.9579 67.1663 67.2311Z" fill="#251115"/>
<path d="M90.1922 31.162C88.372 29.9809 86.1877 29.2541 84.3675 27.9821C82.7293 26.8919 81.4551 25.3474 81.2731 23.4394C81.1821 22.5309 81.0911 21.5315 80.545 20.7138C79.9079 19.987 79.1798 19.4419 78.2697 19.2602C77.1776 19.0785 76.3585 19.4419 75.6304 20.1687C74.9933 20.8047 74.7203 21.3498 74.4473 22.3492C74.4473 22.44 75.4484 20.623 76.2675 20.2596C77.0866 19.987 77.9057 19.8961 78.7248 20.3504C80.545 21.259 79.9079 23.4394 80.545 25.0748C82.0012 28.7998 86.0967 29.89 89.1911 31.6163C90.0102 32.0705 90.8293 32.6157 91.5574 33.2516C92.3765 33.8876 92.8315 34.7961 93.2866 35.7047C93.3776 35.7955 93.4686 35.7047 93.4686 35.6138C93.1956 33.7968 91.6484 32.1614 90.1922 31.162Z" fill="#251115"/>
<path d="M87.9169 27.7101C87.9169 27.7101 85.5506 26.9833 81.4551 27.8918C82.2742 26.3473 83.2753 26.3473 84.0944 26.1656C85.1865 25.9839 86.9158 26.6198 87.9169 27.7101Z" fill="#251115"/>
<path d="M70.4429 131.465C70.4429 131.465 92.5586 131.828 92.1946 131.465C91.8305 131.101 79.635 126.831 70.4429 131.465Z" fill="#111112"/>
<path d="M82.6382 31.7986C82.6382 31.7986 83.4573 30.7992 85.0955 30.7992C86.7337 30.7083 88.0078 31.7077 88.0078 31.7077C88.0078 31.7077 87.5528 29.8907 85.2775 29.7998C83.2753 29.7998 82.6382 31.7986 82.6382 31.7986Z" fill="#32191C"/>
<path d="M84.9134 33.616C85.5166 33.616 86.0056 33.1279 86.0056 32.5258C86.0056 31.9237 85.5166 31.4355 84.9134 31.4355C84.3103 31.4355 83.8213 31.9237 83.8213 32.5258C83.8213 33.1279 84.3103 33.616 84.9134 33.616Z" fill="#32191C"/>
<path d="M83.1841 34.2519C83.1841 34.2519 86.5515 33.8885 87.4616 33.7976C86.9155 33.3433 84.6403 32.9799 83.1841 34.2519Z" fill="#EEA77F"/>
<path d="M77.8145 31.7986C77.8145 31.7986 76.9954 30.7992 75.3572 30.7992C73.719 30.7083 72.4448 31.7077 72.4448 31.7077C72.4448 31.7077 72.8999 29.8907 75.1752 29.7998C77.1774 29.7998 77.8145 31.7986 77.8145 31.7986Z" fill="#32191C"/>
<path d="M75.4481 33.616C76.0513 33.616 76.5402 33.1279 76.5402 32.5258C76.5402 31.9237 76.0513 31.4355 75.4481 31.4355C74.8449 31.4355 74.356 31.9237 74.356 32.5258C74.356 33.1279 74.8449 33.616 75.4481 33.616Z" fill="#32191C"/>
<path d="M77.3593 34.1606C77.3593 34.1606 73.9008 34.2514 72.9907 34.1606C73.4458 33.7063 75.7211 33.0703 77.3593 34.1606Z" fill="#EEA77F"/>
<path d="M71.626 27.8012C71.626 27.8012 73.9923 26.9835 78.0878 27.8012C77.2687 26.2567 76.1765 26.2567 75.4485 26.1658C74.3563 26.075 72.6271 26.7109 71.626 27.8012Z" fill="#32191C"/>
<path d="M104.208 73.5909C104.208 73.5909 115.675 86.7647 116.403 87.4915C114.31 91.3982 108.303 93.8513 107.12 93.397C100.841 83.1306 97.4731 75.408 97.4731 75.408C97.4731 75.408 98.8383 70.411 104.208 73.5909Z" fill="#F37E57"/>
<path d="M93.1954 75.7718C93.1954 75.7718 89.828 78.4974 88.7359 78.9516C87.6437 79.4059 88.1898 81.0413 90.8291 80.7687C93.4684 80.4962 95.0156 77.2254 96.2898 77.0437C95.1066 75.6809 93.1954 75.7718 93.1954 75.7718Z" fill="#F37E57"/>
<path d="M96.7449 66.4136C95.4708 65.3233 94.1056 64.6873 92.8314 65.505C91.6483 66.2318 84.2764 79.6782 85.1865 80.405C86.0966 81.1318 86.4606 80.1325 87.0067 79.8599C87.5528 79.5873 90.9202 74.4087 90.9202 74.4087C90.9202 74.4087 91.8303 76.1349 93.1955 75.7715C94.0146 77.4977 96.0168 77.0434 96.0168 77.0434C96.0168 77.0434 97.109 78.5879 98.0191 78.7697C98.9292 78.8605 99.7483 77.2251 99.7483 77.2251C99.7483 77.2251 103.753 79.0422 104.936 77.7703C106.119 76.4983 105.755 75.4081 104.845 74.4087C104.026 73.3184 98.5651 67.9581 96.7449 66.4136Z" fill="#FBC09A"/>
<path d="M93.8327 68.1402C93.8327 68.0494 93.8327 67.9585 93.7417 68.0494C93.0136 68.6853 92.5586 69.4122 92.1035 70.2298C91.6485 71.0475 91.1934 72.0469 90.9204 72.9555C90.7384 73.864 90.7384 74.7725 91.2844 75.4993C91.7395 76.1353 92.6496 76.6804 93.3777 76.2262C93.5597 76.1353 93.5597 75.8628 93.3777 75.7719C92.8316 75.4994 92.2856 75.3176 92.0125 74.6817C91.6485 73.9548 91.7395 73.1372 91.9215 72.4103C92.1945 70.775 93.0136 69.503 93.8327 68.1402Z" fill="#F37E57"/>
<path d="M96.6539 76.953C96.2898 76.6804 95.8348 76.7713 95.4707 76.6804C95.1977 76.5896 94.8337 76.5896 94.6516 76.4078C94.0146 76.0444 94.1056 75.2267 94.1966 74.5908C94.3786 73.7731 94.5606 73.0463 94.8337 72.3194C95.0157 72.0469 95.1067 71.6835 95.2887 71.4109C95.4707 71.0475 95.6528 70.6841 95.8348 70.3207C95.8348 70.3207 95.8348 70.2298 95.7438 70.3207C95.3797 70.6841 95.1067 70.9566 94.8337 71.4109C94.5606 71.7743 94.3786 72.1377 94.1966 72.592C93.8325 73.4097 93.3775 74.2274 93.1955 75.1359C93.1044 75.9536 93.2865 76.6804 94.0146 77.1347C94.2876 77.3164 94.6516 77.4072 95.0157 77.4981C95.4707 77.5889 96.3808 77.4072 96.6539 77.0438V76.953Z" fill="#F37E57"/>
<path d="M100.385 77.679C100.112 78.4058 99.293 78.9509 98.4739 79.1326C97.3818 79.3144 96.3806 78.4058 96.1076 77.4064C95.7436 76.3162 95.9256 75.1351 96.2896 74.0448C96.4717 73.4997 96.7447 73.0455 97.0177 72.5912C97.3818 72.1369 97.7458 71.8644 98.2009 71.5918C98.2919 71.5918 98.2919 71.5918 98.2919 71.6826C97.8368 72.3186 97.3818 72.9546 97.0177 73.6814C96.6537 74.4991 96.6537 75.2259 96.7447 76.0436C96.8357 76.7705 97.1087 77.679 97.8368 77.9516C98.2919 78.1333 98.7469 78.1333 99.111 77.8607C99.384 77.679 99.475 77.3156 99.566 77.043C99.566 76.9522 99.566 76.8613 99.6571 76.7705C99.6571 76.5887 99.8391 76.4979 100.021 76.4979L100.476 76.7705C100.476 76.7705 100.476 76.7705 100.476 76.8613C100.476 77.2247 100.476 77.4973 100.385 77.679Z" fill="#F37E57"/>
<path d="M104.208 78.4067C103.662 78.6793 102.934 78.5884 102.388 78.4976C101.751 78.4067 101.114 78.225 100.477 77.8616C100.386 77.8616 100.386 77.7707 100.295 77.7707C100.022 77.589 99.7485 77.4073 99.5664 77.2256C99.4754 77.1348 99.2934 76.9531 99.2024 76.8622C99.0204 76.5896 98.8384 76.4079 98.6563 76.1354C98.5653 75.8628 98.4743 75.6811 98.3833 75.4085C98.3833 75.4085 98.3833 75.3177 98.4743 75.4085C98.8384 75.8628 99.3844 76.3171 99.8395 76.6805C99.9305 76.6805 99.9305 76.7713 100.022 76.7713L100.477 77.0439C100.659 77.1348 100.932 77.3165 101.114 77.4073C101.66 77.6799 102.206 77.7707 102.752 77.8616C103.207 77.9524 103.753 77.7707 104.208 77.9524C104.39 77.7707 104.572 78.225 104.208 78.4067Z" fill="#F37E57"/>
<path d="M102.934 87.9454C102.934 87.9454 110.397 85.6741 111.58 79.6777C116.858 85.4924 125.413 95.7588 126.961 98.0302C128.508 100.302 126.506 107.116 120.226 107.297C113.946 107.479 107.757 99.4838 102.934 87.9454Z" fill="#29666E"/>
<path d="M78.4517 39.2492C78.4517 39.2492 79.2258 39.7726 80.5 39.5C81.6831 39.3183 82.0011 38.7041 82.0011 38.7041C82.0011 38.7041 79.4528 39.4309 78.4517 39.2492Z" fill="#AF593E"/>
<path d="M107.575 86.1296C107.302 87.4015 106.938 88.6735 106.938 88.7643C106.938 88.7643 106.847 90.4905 106.119 91.0357C105.937 91.1265 105.755 91.2174 105.482 91.2174C105.209 92.4893 104.572 93.0344 104.208 93.2161C104.117 93.2161 104.026 93.307 104.026 93.307C103.844 93.7613 103.571 94.2155 103.297 94.4881C102.842 95.0332 102.387 95.3058 101.932 95.2149C101.204 95.1241 97.3817 95.2149 96.6536 94.8515C95.9256 94.4881 96.2896 92.1259 96.2896 92.1259C96.2896 92.1259 92.1941 91.6716 90.1918 90.7631C89.3727 91.2174 88.4626 91.6716 87.5525 92.2168C87.0065 92.4893 86.4604 92.8527 85.9143 93.1253C81.8188 95.3966 77.8143 97.4863 76.8132 97.5771C75.448 97.668 70.8975 93.5796 72.5357 87.8558C72.5357 87.8558 79.7256 85.9479 84.3671 84.8576C85.1862 84.6759 85.9143 84.4942 86.4604 84.3125C86.5514 84.3125 86.7334 84.2216 86.8244 84.2216C90.4649 83.4039 93.2862 83.3131 95.3795 82.9497C100.021 82.132 106.938 83.0405 107.666 83.7674C107.848 84.0399 107.757 85.0393 107.575 86.1296Z" fill="#FBC09A"/>
<path d="M90.0097 90.3083C89.2816 90.5808 88.6445 90.9443 88.0074 91.3077C87.2793 91.6711 86.6423 92.0345 85.9142 92.3979C84.549 93.1247 83.1838 93.8516 81.8187 94.5784C79.0883 96.0321 76.358 97.5766 73.7187 99.1211C73.6277 99.1211 73.7187 99.2119 73.7187 99.2119C76.54 97.8491 79.2704 96.5772 82.0917 95.1235C83.4569 94.3967 84.731 93.7607 86.0962 93.0339C86.8243 92.6705 87.4614 92.3071 88.1895 91.9436C88.8265 91.5802 89.6456 91.2168 90.2827 90.7626C90.3737 90.5808 90.2827 90.2174 90.0097 90.3083Z" fill="#F37E57"/>
<path d="M100.749 82.4952C99.8389 82.4043 98.9288 82.4043 97.9276 82.4043C97.0175 82.4043 96.1074 82.4952 95.1973 82.586C93.3771 82.7677 91.5569 82.9494 89.7366 83.222C86.0962 83.858 82.5467 84.6756 79.0883 85.675C77.0861 86.2202 75.1748 86.8561 73.2636 87.583C73.1726 87.583 73.2636 87.6738 73.2636 87.6738C76.813 86.8561 80.3625 85.9476 84.0029 85.0391C87.5524 84.2214 91.1018 83.4945 94.6512 83.0403C95.6524 82.8586 96.7445 82.8586 97.7456 82.7677C98.7467 82.6769 99.7479 82.6769 100.749 82.4952C100.84 82.6769 100.84 82.4952 100.749 82.4952Z" fill="#F37E57"/>
<path d="M104.207 92.6712C104.207 92.8529 104.207 93.0346 104.207 93.1255C104.116 93.1255 104.025 93.2163 104.025 93.2163C103.843 93.6706 103.57 94.1249 103.297 94.3974C103.297 94.2157 103.388 94.1249 103.388 93.9432C103.479 93.4889 103.57 93.0346 103.57 92.4895C103.57 91.9444 103.57 91.4901 103.661 90.945C103.661 90.3999 103.752 89.6731 103.661 89.1279C103.752 89.4005 103.843 89.6731 103.934 89.9456C104.025 90.309 104.116 90.5816 104.116 90.945C104.207 91.581 104.207 92.1261 104.207 92.6712Z" fill="#F37E57"/>
<path d="M106.119 91.0357C105.937 91.1265 105.755 91.2174 105.482 91.2174C105.482 91.2174 105.664 88.4918 105.3 88.0375C104.936 87.5832 102.114 87.0381 102.023 86.9473C102.023 86.9473 105.664 86.9473 106.119 87.6741C106.574 88.1284 106.301 89.9454 106.119 91.0357Z" fill="#F37E57"/>
<path d="M107.575 86.1297C107.302 87.4017 106.938 88.6736 106.938 88.7645C106.938 88.7645 107.302 86.7657 106.847 86.1297C106.392 85.4938 103.479 84.8578 103.479 84.8578C104.39 84.5852 105.937 84.8578 106.938 85.2212C107.302 85.3121 107.484 85.6755 107.575 86.1297Z" fill="#F37E57"/>
<path d="M100.84 91.7623C99.02 92.1257 97.0178 91.8531 95.1976 91.6714C94.1964 91.5806 93.2863 91.308 92.2852 91.0355C91.8302 90.9446 91.2841 90.7629 90.829 90.5812C90.374 90.3995 89.8279 90.3995 89.4639 90.2178C89.9189 90.4903 90.283 90.8537 90.738 91.1263C91.1931 91.308 91.6481 91.4897 92.1032 91.6714C93.0133 92.0348 94.0144 92.2165 94.9245 92.3983C96.9268 92.58 98.929 92.2166 100.84 91.7623C100.931 91.7623 100.931 91.6714 100.84 91.7623Z" fill="#F37E57"/>
<path d="M99.293 91.9444C99.293 91.9444 99.657 93.398 100.294 93.7614C100.021 92.4895 100.021 91.8535 100.021 91.8535L99.293 91.9444Z" fill="#F37E57"/>
<path d="M99.748 92.1253C99.748 92.1253 98.2918 92.6704 98.0188 94.0332C97.7458 93.3973 98.3828 92.2162 98.7469 92.0345C99.384 91.8528 99.657 91.9436 99.657 91.9436L99.748 92.1253Z" fill="#F37E57"/>
<path d="M87.8256 92.3985C87.2795 92.6711 86.6424 93.0345 86.0964 93.307C83.275 91.1266 83.184 86.2205 84.1851 84.7668C85.0042 84.5851 85.7323 84.4034 86.2784 84.2217C86.1874 84.8577 86.0054 86.1296 86.1874 88.2192C86.3694 90.218 87.3705 91.6717 87.8256 92.3985Z" fill="#AF593E"/>
<path d="M87.4614 85.6751L87.1883 84.7666L85.8232 85.13C85.4591 85.13 85.1861 85.2209 84.731 85.3117C84.367 85.4026 84.0029 85.4934 83.7299 85.6751L82.3647 86.0385L82.6378 86.9471C82.8198 87.4922 84.0029 87.6739 85.2771 87.3105C86.6423 86.9471 87.6434 86.2203 87.4614 85.6751Z" fill="#FAAD18"/>
<path d="M85.0845 86.4482C86.3943 86.0936 87.3387 85.3744 87.194 84.8417C87.0494 84.309 85.8703 84.1646 84.5605 84.5192C83.2507 84.8737 82.3063 85.593 82.451 86.1256C82.5957 86.6583 83.7747 86.8027 85.0845 86.4482Z" fill="#FFEFAE"/>
<path d="M86.7332 84.9486C86.8242 85.2211 86.0051 85.6754 85.004 85.948C83.9119 86.2205 83.0017 86.2205 82.9107 85.948C82.8197 85.6754 83.6388 85.2211 84.6399 84.9486C85.7321 84.676 86.6422 84.676 86.7332 84.9486Z" fill="black"/>
<path d="M41.0458 95.7594C42.229 93.0338 56.4267 90.7624 60.9773 89.5813C65.5279 88.4002 75.1751 86.2197 75.1751 86.2197C75.1751 86.2197 74.538 89.3088 75.9032 92.9429C76.9043 95.7594 79.2706 97.6673 79.2706 97.6673C79.2706 97.6673 60.1582 107.207 52.8773 110.023C42.7751 113.93 36.9503 105.117 41.0458 95.7594Z" fill="#29666E"/>
<path d="M112.854 4.54313C112.854 2.81691 114.219 1.4541 115.948 1.4541H140.885C140.885 1.4541 141.067 6.26935 140.885 6.17849C140.612 6.17849 112.854 4.54313 112.854 4.54313Z" fill="#FAAD18"/>
<path d="M145.527 3.45244V38.2494H116.585V0.0908537L142.069 0L145.527 3.45244Z" fill="#D3E9FE"/>
<path d="M145.527 3.45244H142.068V0L145.527 3.45244Z" fill="#9FBFD1"/>
<path d="M112.854 4.54297H139.247C140.157 4.54297 140.885 5.2698 140.885 6.17833V22.7137L142.069 23.2588C142.797 23.5314 143.161 24.2582 143.161 24.985V37.6137C143.161 38.5222 142.433 39.2491 141.523 39.2491H114.583C113.582 39.2491 112.854 38.4314 112.854 37.5228V4.54297Z" fill="#FDCD0D"/>
<path d="M136.972 28.71H126.415V30.2545H136.972V28.71Z" fill="#32191C"/>
<path d="M136.972 31.4355H126.415V32.9801H136.972V31.4355Z" fill="#32191C"/>
<path d="M136.972 34.0703H126.415V35.6148H136.972V34.0703Z" fill="#32191C"/>
<path d="M112.945 44.882C117.469 44.882 121.136 41.2211 121.136 36.7052C121.136 32.1892 117.469 28.5283 112.945 28.5283C108.421 28.5283 104.754 32.1892 104.754 36.7052C104.754 41.2211 108.421 44.882 112.945 44.882Z" fill="#F44A56"/>
<path d="M112.945 42.3381C116.061 42.3381 118.588 39.8162 118.588 36.7052C118.588 33.5942 116.061 31.0723 112.945 31.0723C109.829 31.0723 107.302 33.5942 107.302 36.7052C107.302 39.8162 109.829 42.3381 112.945 42.3381Z" fill="white"/>
<path d="M116.012 34.9374L115.074 34.001L110.001 39.0653L110.939 40.0017L116.012 34.9374Z" fill="#F44A56"/>
<path d="M110.938 34.0001L110 34.9365L115.073 40.0008L116.011 39.0644L110.938 34.0001Z" fill="#F44A56"/>
</g>
<defs>
<clipPath id="clip0_4084_8125">
<rect width="162" height="149" fill="white"/>
</clipPath>
</defs>
</svg>
