<svg width="164" height="131" viewBox="0 0 164 131" fill="none" xmlns="http://www.w3.org/2000/svg">
<path d="M39.4334 112.772C38.1435 112.68 20.6379 114.245 15.939 95.4624C11.2401 76.6795 34.6424 58.6331 37.13 49.1496C39.6176 39.666 44.1323 15.5429 60.6244 12.8728C77.1165 10.2026 81.4469 16.1874 90.9367 21.1593C100.427 26.1313 128.251 27.9728 137.833 36.2593C147.323 44.5459 141.15 58.8173 148.797 63.513C156.352 68.1167 166.948 80.1782 163.263 92.9764C159.577 105.775 145.296 113.693 129.449 112.864H39.4334V112.772Z" fill="#D3E9FE"/>
<path d="M124.658 112.956H78.3144C74.9976 112.956 72.3257 110.286 72.3257 106.972V6.24355C72.3257 2.92891 74.9976 0.258789 78.3144 0.258789H124.566C127.883 0.258789 130.555 2.92891 130.555 6.24355V106.88C130.647 110.286 127.975 112.956 124.658 112.956Z" fill="#858783"/>
<path d="M121.802 112.956H75.5503C72.2334 112.956 69.5615 110.286 69.5615 106.972V6.24355C69.5615 2.92891 72.2334 0.258789 75.5503 0.258789H121.802C125.119 0.258789 127.791 2.92891 127.791 6.24355V106.88C127.791 110.286 125.119 112.956 121.802 112.956Z" fill="#D3E9FE"/>
<path d="M121.802 112.956H75.5503C72.2334 112.956 69.5615 110.286 69.5615 106.972V6.24355C69.5615 2.92891 72.2334 0.258789 75.5503 0.258789H121.802C125.119 0.258789 127.791 2.92891 127.791 6.24355V106.88C127.791 110.286 125.119 112.956 121.802 112.956Z" fill="#A1A1A1"/>
<path d="M75.5502 3.02051C73.8918 3.02051 72.5098 4.40161 72.5098 6.05892V106.695C72.5098 108.352 73.8918 109.733 75.5502 109.733H121.802C123.46 109.733 124.842 108.352 124.842 106.695V6.05892C124.842 4.40161 123.46 3.02051 121.802 3.02051H75.5502Z" fill="white"/>
<path d="M106.508 10.4791H90.8446C89.9233 10.4791 89.2783 9.74253 89.2783 8.91388C89.2783 7.99314 90.0154 7.34863 90.8446 7.34863H106.508C107.429 7.34863 108.074 8.08522 108.074 8.91388C108.166 9.83461 107.429 10.4791 106.508 10.4791Z" fill="#858783"/>
<path d="M130.463 29.8139H129.173V15.3584H130.463C131.384 15.3584 132.029 16.095 132.029 16.9236V28.1566C132.029 29.0773 131.384 29.8139 130.463 29.8139Z" fill="#A1A1A1"/>
<path d="M130.463 47.0317H129.173V32.5762H130.463C131.384 32.5762 132.029 33.3128 132.029 34.1414V45.3743C132.029 46.2951 131.384 47.0317 130.463 47.0317Z" fill="#A1A1A1"/>
<path d="M98.0311 21.9876L92.9637 21.8955L88.0806 32.8522H92.9637L95.4514 27.512L98.0311 21.9876Z" fill="#FFC20E"/>
<path d="M105.863 22.0804L100.795 21.9883L103.283 27.6968L105.679 33.0371H110.562L105.863 22.0804Z" fill="#505154"/>
<path d="M101.625 30.7348C101.625 30.6427 101.625 30.6427 101.625 30.7348C101.625 30.6427 101.625 30.5506 101.625 30.5506V30.4586V30.3665C101.532 30.0903 101.44 29.9061 101.348 29.6299C101.164 29.1695 100.98 28.7092 100.795 28.3409L99.5055 25.3945L98.1235 28.3409C97.9392 28.8012 97.755 29.1695 97.4786 29.6299C97.3864 29.9061 97.2943 30.0903 97.2021 30.3665V30.4586V30.5506V30.6427V30.7348V30.8268V30.9189C97.2021 31.011 97.2021 31.1031 97.2943 31.1951L97.4786 31.6555L97.5707 31.8397L97.6628 31.9317L97.755 32.0238L97.8471 32.1159L97.9392 32.2079L98.0314 32.3L98.1235 32.3921C98.1235 32.3921 98.2156 32.3921 98.2156 32.4842C98.2156 32.4842 98.3078 32.4842 98.3078 32.5762C98.3999 32.5762 98.3999 32.5762 98.492 32.6683C98.5842 32.6683 98.5842 32.6683 98.6763 32.6683C98.7684 32.6683 98.7684 32.6683 98.8606 32.6683C98.9527 32.6683 98.9527 32.6683 99.0448 32.6683C99.137 32.6683 99.137 32.6683 99.2291 32.6683C99.3212 32.6683 99.3213 32.6683 99.4134 32.6683C99.5055 32.6683 99.5055 32.6683 99.5977 32.6683C99.6898 32.6683 99.6898 32.6683 99.7819 32.6683C99.8741 32.6683 99.8741 32.6683 99.9662 32.6683C100.058 32.6683 100.058 32.6683 100.15 32.5762C100.15 32.5762 100.243 32.5762 100.335 32.4842C100.335 32.4842 100.427 32.4842 100.427 32.3921C100.427 32.3921 100.519 32.3921 100.519 32.3L100.611 32.2079L100.703 32.1159L100.795 32.0238L100.888 31.9317L100.98 31.8397L101.072 31.7476C101.072 31.7476 101.072 31.6555 101.164 31.6555L101.256 31.3793C101.256 31.3793 101.256 31.3793 101.256 31.2872C101.256 31.2872 101.256 31.2872 101.256 31.1951C101.256 31.1031 101.256 31.011 101.348 30.9189V30.8268V30.7348C101.625 30.8268 101.625 30.7348 101.625 30.7348Z" fill="#E05826"/>
<path d="M98.0309 21.9883L95.4512 27.6047L96.6489 30.1828L97.1096 31.2877C97.1096 31.1956 97.1096 31.1035 97.0175 31.0115V30.9194V30.8273V30.7352V30.6432V30.5511V30.459C97.1096 30.1828 97.2017 29.9986 97.2939 29.7224C97.4781 29.2621 97.6624 28.8938 97.9388 28.4334L99.3208 25.395L98.0309 21.9883Z" fill="#F89A59"/>
<path d="M100.795 22.0801L103.283 27.7886L102.085 30.3667L101.532 31.4715C101.532 31.3795 101.532 31.2874 101.624 31.1953V31.1033V31.0112V30.9191V30.827V30.735V30.6429C101.532 30.3667 101.44 30.1825 101.348 29.9063C101.164 29.4459 100.98 29.0776 100.795 28.6173L99.5054 25.5789L100.795 22.0801Z" fill="#848689"/>
<path d="M92.5952 39.4816C92.2267 39.4816 91.8582 39.3895 91.5818 39.2054C91.3054 39.0212 91.2132 38.745 91.1211 38.3767H91.766C91.766 38.5609 91.8582 38.6529 92.0424 38.745C92.1346 38.8371 92.3188 38.9292 92.5031 38.9292C92.6874 38.9292 92.8717 38.9291 92.9638 38.8371C93.0559 38.745 93.1481 38.6529 93.1481 38.5609C93.1481 38.3767 93.0559 38.2846 92.9638 38.1926C92.8717 38.1005 92.6874 38.1005 92.411 38.0084C92.2267 38.0084 92.0424 37.9163 91.8582 37.8243C91.6739 37.7322 91.5818 37.6401 91.3975 37.5481C91.3054 37.456 91.2132 37.2718 91.2132 37.0877C91.2132 36.8115 91.3054 36.5352 91.5818 36.4432C91.766 36.259 92.1346 36.167 92.5031 36.167C92.8717 36.167 93.1481 36.259 93.3323 36.4432C93.5166 36.6273 93.7009 36.9035 93.7009 37.1798H93.0559C93.0559 37.0877 92.9638 36.9035 92.8717 36.8115C92.7795 36.7194 92.5953 36.7194 92.411 36.7194C92.2267 36.7194 92.1346 36.7194 92.0424 36.8115C91.9503 36.9035 91.8582 36.9956 91.8582 37.0877C91.8582 37.1798 91.9503 37.2718 92.0424 37.3639C92.1346 37.456 92.3188 37.456 92.5952 37.5481C92.7795 37.6401 92.9638 37.6401 93.1481 37.7322C93.3323 37.8243 93.5166 37.9163 93.6087 38.0084C93.7009 38.1005 93.793 38.2846 93.793 38.5609C93.793 38.8371 93.7009 39.1133 93.4245 39.2974C93.3323 39.3895 93.0559 39.4816 92.5952 39.4816ZM94.7144 39.3895V36.167H95.3593L95.4514 36.6273C95.5436 36.4432 95.7278 36.3511 95.82 36.259C96.0042 36.167 96.1885 36.167 96.3728 36.167C96.8335 36.167 97.202 36.3511 97.3863 36.8115C97.4784 36.6273 97.6627 36.4432 97.8469 36.3511C98.0312 36.259 98.2155 36.167 98.4919 36.167C98.8604 36.167 99.229 36.259 99.4132 36.5352C99.5975 36.8115 99.7818 37.1798 99.7818 37.6401V39.4816H99.1368V37.7322C99.1368 37.0877 98.9526 36.8115 98.3997 36.8115C98.1233 36.8115 97.9391 36.9035 97.8469 37.0877C97.6627 37.2718 97.6627 37.5481 97.5705 37.8243V39.4816H96.9256V37.7322C96.9256 37.0877 96.7413 36.8115 96.1885 36.8115C95.9121 36.8115 95.7278 36.9035 95.6357 37.0877C95.4514 37.2718 95.4514 37.5481 95.3593 37.8243V39.4816L94.7144 39.3895ZM101.072 35.6145C100.98 35.6145 100.795 35.6145 100.795 35.5224C100.703 35.4304 100.703 35.3383 100.703 35.2462C100.703 35.1542 100.703 35.0621 100.795 34.97C100.887 34.8779 100.98 34.8779 101.072 34.8779C101.164 34.8779 101.348 34.8779 101.348 34.97C101.44 35.0621 101.44 35.1542 101.44 35.2462C101.44 35.3383 101.44 35.4304 101.348 35.5224C101.348 35.6145 101.256 35.6145 101.072 35.6145ZM100.703 39.4816V36.259H101.348V39.4816H100.703ZM102.454 39.4816V34.8779H103.099V39.4816H102.454ZM105.494 39.5737C105.218 39.5737 104.941 39.4816 104.665 39.3895C104.389 39.2054 104.204 39.0212 104.112 38.8371C104.02 38.5609 103.928 38.2846 103.928 38.0084C103.928 37.6401 104.02 37.3639 104.112 37.0877C104.296 36.8115 104.481 36.6273 104.665 36.5352C104.941 36.3511 105.218 36.3511 105.494 36.3511C105.771 36.3511 106.047 36.4432 106.323 36.5352C106.508 36.7194 106.692 36.9035 106.876 37.0877C106.968 37.3639 107.06 37.5481 107.06 37.8243C107.06 37.8243 107.06 37.9163 107.06 38.0084C107.06 38.1005 107.06 38.1005 107.06 38.1926H104.573C104.573 38.4688 104.665 38.745 104.849 38.9292C105.033 39.1133 105.218 39.2054 105.494 39.2054C105.678 39.2054 105.863 39.2054 105.955 39.1133C106.047 39.0212 106.231 38.9291 106.231 38.745H106.876C106.784 39.0212 106.6 39.2974 106.323 39.4816C106.231 39.4816 105.863 39.5737 105.494 39.5737ZM105.586 36.8115C105.402 36.8115 105.126 36.9035 104.941 36.9956C104.757 37.0877 104.665 37.3639 104.573 37.6401H106.415C106.415 37.3639 106.323 37.1798 106.139 37.0877C106.047 36.9035 105.771 36.8115 105.586 36.8115Z" fill="#636466"/>
<path d="M99.321 50.623L80.157 56.3316C77.3008 68.0249 75.5502 80.9151 80.4334 88.0048C85.4087 95.0023 92.4109 100.435 99.321 103.197C99.321 74.2859 99.321 50.623 99.321 50.623Z" fill="#8BC53F"/>
<path d="M99.3208 50.623L118.485 56.3316C121.341 68.0249 123.092 80.9151 118.208 88.0048C113.233 95.0023 106.231 100.435 99.3208 103.197C99.3208 74.2859 99.3208 50.623 99.3208 50.623Z" fill="#5E871D"/>
<path d="M83.7501 59.0938C83.7501 59.0938 79.8805 74.1938 82.7367 82.2962C85.5928 90.3987 92.503 95.4627 99.3209 98.409C99.3209 78.0609 99.3209 55.5029 99.3209 55.5029L83.7501 59.0938Z" fill="#B2E069"/>
<path d="M114.892 59.0938C114.892 59.0938 118.761 74.1938 115.905 82.2962C113.049 90.3987 106.139 95.4627 99.3208 98.409C99.3208 78.0609 99.3208 55.5029 99.3208 55.5029L114.892 59.0938Z" fill="#8BC53F"/>
<path d="M107.521 73.6406H91.0288V78.2443H107.521V73.6406Z" fill="white"/>
<path d="M101.55 84.112V67.6309H96.9436V84.112H101.55Z" fill="white"/>
<path d="M146.033 87.3596C139.492 85.7023 136.267 91.7791 136.267 91.7791C136.267 91.7791 133.042 85.7023 126.501 87.3596C119.959 89.0169 120.051 97.3956 121.802 101.079C123.553 104.854 133.135 112.496 136.267 112.864C139.4 112.496 148.982 104.761 150.732 101.079C152.391 97.3956 152.483 89.0169 146.033 87.3596Z" fill="#F44A56"/>
<path d="M153.681 100.434C153.589 100.249 153.404 100.065 153.128 100.065C151.193 99.9732 149.258 100.065 147.323 100.065C145.941 100.065 144.559 100.249 143.085 100.157C142.717 100.157 142.44 100.157 142.256 99.9732C142.072 99.7891 141.98 99.5129 141.887 99.2367C141.703 98.7763 141.611 98.408 141.427 97.9476C141.242 97.5793 141.15 97.119 140.966 96.7507C140.782 96.3824 140.69 96.0141 140.505 95.6458C140.413 95.0934 139.492 95.0013 139.4 95.6458L139.031 99.3287C138.939 99.9732 138.939 100.526 138.847 101.17C138.847 101.354 138.847 101.538 138.755 101.815C137.926 100.434 137.373 98.9604 136.82 97.3952C136.636 96.8428 135.807 97.119 135.714 97.5793C135.346 99.697 134.885 101.815 134.424 103.932C133.319 101.538 132.398 99.0525 131.568 96.5665C131.384 96.0141 130.647 95.922 130.463 96.4745C130.186 97.3031 129.91 98.0397 129.541 98.7763C129.265 99.3287 129.081 100.249 128.344 100.526C127.975 100.618 127.607 100.618 127.238 100.618C126.593 100.618 125.948 100.618 125.303 100.618C124.75 100.618 124.198 100.526 123.737 100.526C121.986 100.526 120.144 100.526 118.393 100.434C117.564 100.434 117.472 101.631 118.301 101.723C120.144 101.815 121.894 101.815 123.737 101.815C124.382 101.815 125.027 101.907 125.764 101.907C126.593 101.907 127.33 101.907 128.159 101.815C128.436 101.815 128.712 101.815 128.896 101.723C129.357 101.538 129.541 101.078 129.726 100.71C130.002 100.249 130.278 99.697 130.463 99.1446C130.555 98.8684 130.739 98.5922 130.831 98.3159C131.66 100.894 132.674 103.472 133.964 105.866C134.24 106.418 134.977 106.234 135.069 105.682C135.438 103.656 135.899 101.723 136.267 99.697C136.82 100.986 137.373 102.275 138.294 103.288C138.478 103.564 138.939 103.564 139.123 103.288C139.676 102.275 139.676 100.894 139.768 99.7891C139.86 99.1446 139.953 98.408 139.953 97.7635C140.045 98.0397 140.137 98.408 140.229 98.6842C140.321 99.0525 140.413 99.3287 140.505 99.697C140.598 99.9732 140.598 100.342 140.69 100.618C140.782 100.894 141.058 101.17 141.335 101.354C141.795 101.538 142.256 101.538 142.717 101.446C144.099 101.262 145.573 101.354 146.955 101.354C148.798 101.354 150.732 101.446 152.667 101.354C152.851 101.354 153.128 101.262 153.22 101.078C153.22 101.078 153.22 100.986 153.312 100.986C153.773 100.802 153.773 100.526 153.681 100.434Z" fill="white"/>
<mask id="mask0_4084_6624" style="mask-type:luminance" maskUnits="userSpaceOnUse" x="0" y="31" width="54" height="44">
<path d="M40.7235 73.9174L1.47405 57.6205C0.460567 57.1601 -0.184377 56.2394 0.0920274 55.5949L9.76618 31.9321C10.0426 31.1955 11.1482 31.0113 12.1617 31.4717L51.6875 47.9528C52.701 48.4132 53.346 49.3339 53.0696 49.9784L43.119 73.4571C42.8426 74.1016 41.8291 74.3778 40.7235 73.9174Z" fill="white"/>
</mask>
<g mask="url(#mask0_4084_6624)">
<path d="M42.6582 74.6538L-0.460938 56.7916L10.3188 30.5508L53.6222 48.5971L42.6582 74.6538Z" fill="#5A4B9F"/>
</g>
<mask id="mask1_4084_6624" style="mask-type:luminance" maskUnits="userSpaceOnUse" x="0" y="31" width="54" height="44">
<path d="M40.7235 73.9174L1.47405 57.6205C0.460567 57.1601 -0.184377 56.2394 0.0920274 55.5949L9.76618 31.9321C10.0426 31.1955 11.1482 31.0113 12.1617 31.4717L51.6875 47.9528C52.701 48.4132 53.346 49.3339 53.0696 49.9784L43.119 73.4571C42.8426 74.1016 41.8291 74.3778 40.7235 73.9174Z" fill="white"/>
</mask>
<g mask="url(#mask1_4084_6624)">
<g opacity="0.52">
<g opacity="0.7">
<path d="M18.0583 33.7734L13.083 43.5332L14.2808 36.1673L18.0583 33.7734Z" fill="white"/>
<path d="M35.9323 62.408H27.0874L32.5234 56.6074L35.9323 62.408Z" fill="white"/>
<path d="M27.0871 62.4077L17.5972 64.2492L26.7185 56.0547L27.0871 62.4077Z" fill="white"/>
<path d="M23.0335 51.2673L18.0582 48.5972L17.5054 42.8887L23.0335 51.2673Z" fill="white"/>
<path d="M39.8018 58.9094L35.6558 54.3978L36.7614 41.5996L37.7749 48.6892L39.8018 58.9094Z" fill="white"/>
<path d="M10.5029 52.1881L7.18604 46.6637L13.0827 43.5332L10.5029 52.1881Z" fill="white"/>
<path d="M15.5704 57.5286L6.17266 54.4902L2.76367 48.9658L15.5704 57.5286Z" fill="white"/>
<path d="M49.1074 59.0938L39.8018 58.9096L43.6714 55.5029L49.1074 59.0938Z" fill="white"/>
<path d="M49.1074 59.0938L39.8018 58.9096L43.6714 55.5029L49.1074 59.0938Z" fill="white"/>
</g>
<g opacity="0.31">
<path d="M18.0582 33.7733L14.2806 36.1672L10.3188 30.5508L18.0582 33.7733Z" fill="white"/>
<path d="M25.9818 46.848L17.5054 42.8888L23.6784 38.9297L25.9818 46.848Z" fill="white"/>
<path d="M43.9477 44.638L37.7747 48.6892L36.7612 41.5996L43.9477 44.638Z" fill="white"/>
<path d="M35.656 54.3978L32.5234 56.6076L28.9302 52.6484L35.656 54.3978Z" fill="white"/>
<path d="M17.5974 64.2497L11.1479 61.5795L15.5704 57.5283L17.5974 64.2497Z" fill="white"/>
<path d="M34.5501 71.3393L24.231 67.0119L27.0871 62.4082L34.5501 71.3393Z" fill="white"/>
<path d="M49.1073 59.0939L43.6713 55.503L41.8286 49.6104L49.1073 59.0939Z" fill="white"/>
<path d="M49.1073 59.0939L43.6713 55.503L41.8286 49.6104L49.1073 59.0939Z" fill="white"/>
<path d="M10.503 52.1885L2.76367 48.9659L7.18614 46.6641L10.503 52.1885Z" fill="white"/>
<path d="M26.7186 56.0555L15.5703 57.5286L17.5051 53.8457L26.7186 56.0555Z" fill="white"/>
</g>
<g opacity="0.12">
<path d="M23.6785 38.9295L13.083 43.5332L18.0583 33.7734L23.6785 38.9295Z" fill="white"/>
<path d="M35.6556 54.3975L25.9814 46.8475L32.7073 46.5713L35.6556 54.3975Z" fill="white"/>
<path d="M32.5232 56.6071L27.0873 62.4077L26.7188 56.0547L32.5232 56.6071Z" fill="white"/>
<path d="M15.5705 57.5286L2.4873 57.989L6.1727 54.4902L15.5705 57.5286Z" fill="white"/>
<path d="M25.9818 46.8478L23.0335 51.2673L17.5054 42.8887L25.9818 46.8478Z" fill="white"/>
<path d="M51.7797 52.7408L49.1078 59.0939L41.8291 49.6104L51.7797 52.7408Z" fill="white"/>
<path d="M39.8018 58.909L35.9322 62.4078L35.6558 54.3975L39.8018 58.909Z" fill="white"/>
<path d="M42.5661 74.6539L27.0874 62.4082L34.8267 65.0783L42.5661 74.6539Z" fill="white"/>
<path d="M23.0333 51.2678L10.5029 52.1885L18.058 48.5977L23.0333 51.2678Z" fill="white"/>
<path d="M49.1074 59.0933L44.3164 63.697L39.8018 58.9092L49.1074 59.0933Z" fill="white"/>
</g>
<g opacity="0.6">
<path d="M35.9324 62.4078L32.5234 56.6072L35.656 54.3975L35.9324 62.4078Z" fill="white"/>
<path d="M32.5232 56.6076L26.7188 56.0551L28.93 52.6484L32.5232 56.6076Z" fill="white"/>
<path d="M18.058 48.5972L10.5029 52.1881L17.5052 42.8887L18.058 48.5972Z" fill="white"/>
<path d="M18.058 48.5972L10.5029 52.1881L17.5052 42.8887L18.058 48.5972Z" fill="white"/>
<path d="M26.7187 56.0554L17.5052 53.8456L10.5029 52.1883L23.0333 51.2676L26.7187 56.0554Z" fill="white"/>
<path d="M53.5297 48.5973L51.7792 52.7406L49.0151 46.7559L53.5297 48.5973Z" fill="white"/>
<path d="M42.5658 74.6537L39.8018 58.9092L44.3164 63.697L42.5658 74.6537Z" fill="white"/>
<path d="M36.7612 41.5996L32.7073 46.5716L25.9814 46.8478L36.7612 41.5996Z" fill="white"/>
<path d="M15.5704 57.5286L2.76367 48.9658L10.503 52.1884L15.5704 57.5286Z" fill="white"/>
<path d="M18.058 48.5972L10.5029 52.1881L17.5052 42.8887L18.058 48.5972Z" fill="white"/>
</g>
<g opacity="0.49">
<path d="M26.9952 37.5484L23.6783 38.9295L18.0581 33.7734L26.9952 37.5484Z" fill="white"/>
<path opacity="0.69" d="M43.9479 44.6377L41.8288 49.6096L37.7749 48.6889L43.9479 44.6377Z" fill="white"/>
<path d="M35.9323 62.4082L34.8267 65.0783L27.0874 62.4082H35.9323Z" fill="white"/>
<path d="M2.48738 57.989L-0.460938 56.792L2.76378 48.9658L2.48738 57.989Z" fill="white"/>
<path d="M35.6558 54.3978L32.7075 46.5716L36.7615 41.5996L35.6558 54.3978Z" fill="white"/>
</g>
<g opacity="0.54">
<path opacity="0.64" d="M26.7186 56.0547L17.5973 64.2492L15.5703 57.5279L26.7186 56.0547Z" fill="white"/>
<path d="M27.0871 62.4082L24.2309 67.0119L17.5972 64.2497L27.0871 62.4082Z" fill="white"/>
</g>
<path opacity="0.25" d="M42.5658 74.6537L39.8018 58.9092L44.3164 63.697L42.5658 74.6537Z" fill="white"/>
<path opacity="0.2" d="M42.5658 74.6537L35.9321 62.408L39.8018 58.9092L42.5658 74.6537Z" fill="white"/>
<path opacity="0.27" d="M35.6557 54.3977L28.9298 52.6483L23.0332 51.2672L25.9815 46.8477L35.6557 54.3977Z" fill="white"/>
<path opacity="0.62" d="M39.8019 58.9096L37.7749 48.6895L41.8288 49.6102L39.8019 58.9096Z" fill="white"/>
<path opacity="0.67" d="M49.0156 46.7554L41.8291 49.6096L43.9482 44.6377L49.0156 46.7554Z" fill="white"/>
<path opacity="0.24" d="M49.1075 59.0938L42.5659 74.6541L44.3165 63.6974L49.1075 59.0938Z" fill="white"/>
<path opacity="0.12" d="M13.0831 43.5327L5.06738 43.2565L7.55502 37.1797L13.0831 43.5327Z" fill="white"/>
<path opacity="0.3" d="M13.0831 43.5327L5.06738 43.2565L7.55502 37.1797L13.0831 43.5327Z" fill="white"/>
<path opacity="0.4" d="M13.0831 43.5331L7.18648 46.6635L5.06738 43.2568L13.0831 43.5331Z" fill="white"/>
<path opacity="0.23" d="M36.7614 41.6L23.6782 38.9299L26.9951 37.5488L36.7614 41.6Z" fill="white"/>
<path opacity="0.39" d="M51.7797 52.7406L41.8291 49.6101L49.0156 46.7559L51.7797 52.7406Z" fill="white"/>
<path opacity="0.33" d="M49.1078 59.0939L43.6718 55.503L41.8291 49.6104L49.1078 59.0939Z" fill="white"/>
<path opacity="0.5" d="M13.0829 43.5331L10.3188 30.5508L14.2806 36.1672L13.0829 43.5331Z" fill="white"/>
<path opacity="0.4" d="M15.5705 57.5283L11.148 61.5795L2.4873 57.9887L15.5705 57.5283Z" fill="white"/>
<path opacity="0.5" d="M17.5052 42.8887L10.5029 52.1881L13.0827 43.5332L17.5052 42.8887Z" fill="white"/>
<path opacity="0.22" d="M23.6785 38.9297L17.5055 42.8888L13.083 43.5333L23.6785 38.9297Z" fill="white"/>
<path opacity="0.35" d="M23.0335 51.2673L18.0582 48.5972L17.5054 42.8887L23.0335 51.2673Z" fill="white"/>
<path opacity="0.59" d="M23.6785 38.9297L17.5055 42.8888L13.083 43.5333L23.6785 38.9297Z" fill="white"/>
<path opacity="0.27" d="M13.0829 43.5331L10.3188 30.5508L14.2806 36.1672L13.0829 43.5331Z" fill="white"/>
<path opacity="0.37" d="M49.1074 59.0938L39.8018 58.9096L43.6714 55.5029L49.1074 59.0938Z" fill="white"/>
<path opacity="0.06" d="M42.5658 74.6537L39.8018 58.9092L44.3164 63.697L42.5658 74.6537Z" fill="white"/>
<path opacity="0.39" d="M42.5661 74.6539L27.0874 62.4082L34.8267 65.0783L42.5661 74.6539Z" fill="white"/>
<path opacity="0.27" d="M35.9323 62.4082L34.8267 65.0783L27.0874 62.4082H35.9323Z" fill="white"/>
<path opacity="0.39" d="M25.9818 46.848L17.5054 42.8888L23.6784 38.9297L25.9818 46.848Z" fill="white"/>
<path opacity="0.44" d="M10.503 52.1885L2.76367 48.9659L7.18614 46.6641L10.503 52.1885Z" fill="white"/>
<path opacity="0.56" d="M15.5705 57.5286L2.4873 57.989L6.1727 54.4902L15.5705 57.5286Z" fill="white"/>
<path opacity="0.55" d="M15.5704 57.5286L2.76367 48.9658L10.503 52.1884L15.5704 57.5286Z" fill="white"/>
<path opacity="0.59" d="M36.7614 41.6L23.6782 38.9299L26.9951 37.5488L36.7614 41.6Z" fill="white"/>
<path opacity="0.48" d="M13.0831 43.5327L5.06738 43.2565L7.55502 37.1797L13.0831 43.5327Z" fill="white"/>
<g opacity="0.06">
<g opacity="0.7">
<path d="M18.0583 33.7734L13.083 43.5332L14.2808 36.1673L18.0583 33.7734Z" fill="white"/>
<path d="M35.9323 62.408H27.0874L32.5234 56.6074L35.9323 62.408Z" fill="white"/>
<path d="M27.0871 62.4077L17.5972 64.2492L26.7185 56.0547L27.0871 62.4077Z" fill="white"/>
<path d="M23.0335 51.2673L18.0582 48.5972L17.5054 42.8887L23.0335 51.2673Z" fill="white"/>
<path d="M39.8018 58.9094L35.6558 54.3978L36.7614 41.5996L37.7749 48.6892L39.8018 58.9094Z" fill="white"/>
<path d="M10.5029 52.1881L7.18604 46.6637L13.0827 43.5332L10.5029 52.1881Z" fill="white"/>
<path d="M15.5704 57.5286L6.17266 54.4902L2.76367 48.9658L15.5704 57.5286Z" fill="white"/>
<path d="M49.1074 59.0938L39.8018 58.9096L43.6714 55.5029L49.1074 59.0938Z" fill="white"/>
<path d="M49.1074 59.0938L39.8018 58.9096L43.6714 55.5029L49.1074 59.0938Z" fill="white"/>
</g>
<g opacity="0.31">
<path d="M18.0582 33.7733L14.2806 36.1672L10.3188 30.5508L18.0582 33.7733Z" fill="white"/>
<path d="M25.9818 46.848L17.5054 42.8888L23.6784 38.9297L25.9818 46.848Z" fill="white"/>
<path d="M43.9477 44.638L37.7747 48.6892L36.7612 41.5996L43.9477 44.638Z" fill="white"/>
<path d="M35.656 54.3978L32.5234 56.6076L28.9302 52.6484L35.656 54.3978Z" fill="white"/>
<path d="M17.5974 64.2497L11.1479 61.5795L15.5704 57.5283L17.5974 64.2497Z" fill="white"/>
<path d="M34.5501 71.3393L24.231 67.0119L27.0871 62.4082L34.5501 71.3393Z" fill="white"/>
<path d="M49.1073 59.0939L43.6713 55.503L41.8286 49.6104L49.1073 59.0939Z" fill="white"/>
<path d="M49.1073 59.0939L43.6713 55.503L41.8286 49.6104L49.1073 59.0939Z" fill="white"/>
<path d="M10.503 52.1885L2.76367 48.9659L7.18614 46.6641L10.503 52.1885Z" fill="white"/>
<path d="M26.7186 56.0555L15.5703 57.5286L17.5051 53.8457L26.7186 56.0555Z" fill="white"/>
</g>
<g opacity="0.12">
<path d="M23.6785 38.9295L13.083 43.5332L18.0583 33.7734L23.6785 38.9295Z" fill="white"/>
<path d="M35.6556 54.3975L25.9814 46.8475L32.7073 46.5713L35.6556 54.3975Z" fill="white"/>
<path d="M32.5232 56.6071L27.0873 62.4077L26.7188 56.0547L32.5232 56.6071Z" fill="white"/>
<path d="M15.5705 57.5286L2.4873 57.989L6.1727 54.4902L15.5705 57.5286Z" fill="white"/>
<path d="M25.9818 46.8478L23.0335 51.2673L17.5054 42.8887L25.9818 46.8478Z" fill="white"/>
<path d="M51.7797 52.7408L49.1078 59.0939L41.8291 49.6104L51.7797 52.7408Z" fill="white"/>
<path d="M39.8018 58.909L35.9322 62.4078L35.6558 54.3975L39.8018 58.909Z" fill="white"/>
<path d="M42.5661 74.6539L27.0874 62.4082L34.8267 65.0783L42.5661 74.6539Z" fill="white"/>
<path d="M23.0333 51.2678L10.5029 52.1885L18.058 48.5977L23.0333 51.2678Z" fill="white"/>
<path d="M49.1074 59.0933L44.3164 63.697L39.8018 58.9092L49.1074 59.0933Z" fill="white"/>
</g>
<g opacity="0.6">
<path d="M35.9324 62.4078L32.5234 56.6072L35.656 54.3975L35.9324 62.4078Z" fill="white"/>
<path d="M32.5232 56.6076L26.7188 56.0551L28.93 52.6484L32.5232 56.6076Z" fill="white"/>
<path d="M18.058 48.5972L10.5029 52.1881L17.5052 42.8887L18.058 48.5972Z" fill="white"/>
<path d="M18.058 48.5972L10.5029 52.1881L17.5052 42.8887L18.058 48.5972Z" fill="white"/>
<path d="M26.7187 56.0554L17.5052 53.8456L10.5029 52.1883L23.0333 51.2676L26.7187 56.0554Z" fill="white"/>
<path d="M53.5297 48.5973L51.7792 52.7406L49.0151 46.7559L53.5297 48.5973Z" fill="white"/>
<path d="M42.5658 74.6537L39.8018 58.9092L44.3164 63.697L42.5658 74.6537Z" fill="white"/>
<path d="M36.7612 41.5996L32.7073 46.5716L25.9814 46.8478L36.7612 41.5996Z" fill="white"/>
<path d="M15.5704 57.5286L2.76367 48.9658L10.503 52.1884L15.5704 57.5286Z" fill="white"/>
<path d="M18.058 48.5972L10.5029 52.1881L17.5052 42.8887L18.058 48.5972Z" fill="white"/>
</g>
<g opacity="0.49">
<path d="M26.9952 37.5484L23.6783 38.9295L18.0581 33.7734L26.9952 37.5484Z" fill="white"/>
<path opacity="0.69" d="M43.9479 44.6377L41.8288 49.6096L37.7749 48.6889L43.9479 44.6377Z" fill="white"/>
<path d="M35.9323 62.4082L34.8267 65.0783L27.0874 62.4082H35.9323Z" fill="white"/>
<path d="M2.48738 57.989L-0.460938 56.792L2.76378 48.9658L2.48738 57.989Z" fill="white"/>
<path d="M35.6558 54.3978L32.7075 46.5716L36.7615 41.5996L35.6558 54.3978Z" fill="white"/>
</g>
<g opacity="0.54">
<path opacity="0.64" d="M26.7186 56.0547L17.5973 64.2492L15.5703 57.5279L26.7186 56.0547Z" fill="white"/>
<path d="M27.0871 62.4082L24.2309 67.0119L17.5972 64.2497L27.0871 62.4082Z" fill="white"/>
</g>
<path opacity="0.25" d="M42.5658 74.6537L39.8018 58.9092L44.3164 63.697L42.5658 74.6537Z" fill="white"/>
<path opacity="0.2" d="M42.5658 74.6537L35.9321 62.408L39.8018 58.9092L42.5658 74.6537Z" fill="white"/>
<path opacity="0.27" d="M35.6557 54.3977L28.9298 52.6483L23.0332 51.2672L25.9815 46.8477L35.6557 54.3977Z" fill="white"/>
<path opacity="0.62" d="M39.8019 58.9096L37.7749 48.6895L41.8288 49.6102L39.8019 58.9096Z" fill="white"/>
<path opacity="0.67" d="M49.0156 46.7554L41.8291 49.6096L43.9482 44.6377L49.0156 46.7554Z" fill="white"/>
<path opacity="0.24" d="M49.1075 59.0938L42.5659 74.6541L44.3165 63.6974L49.1075 59.0938Z" fill="white"/>
<path opacity="0.12" d="M13.0831 43.5327L5.06738 43.2565L7.55502 37.1797L13.0831 43.5327Z" fill="white"/>
<path opacity="0.3" d="M13.0831 43.5327L5.06738 43.2565L7.55502 37.1797L13.0831 43.5327Z" fill="white"/>
<path opacity="0.4" d="M13.0831 43.5331L7.18648 46.6635L5.06738 43.2568L13.0831 43.5331Z" fill="white"/>
<path opacity="0.23" d="M36.7614 41.6L23.6782 38.9299L26.9951 37.5488L36.7614 41.6Z" fill="white"/>
<path opacity="0.39" d="M51.7797 52.7406L41.8291 49.6101L49.0156 46.7559L51.7797 52.7406Z" fill="white"/>
<path opacity="0.33" d="M49.1078 59.0939L43.6718 55.503L41.8291 49.6104L49.1078 59.0939Z" fill="white"/>
<path opacity="0.5" d="M13.0829 43.5331L10.3188 30.5508L14.2806 36.1672L13.0829 43.5331Z" fill="white"/>
<path opacity="0.4" d="M15.5705 57.5283L11.148 61.5795L2.4873 57.9887L15.5705 57.5283Z" fill="white"/>
<path opacity="0.5" d="M17.5052 42.8887L10.5029 52.1881L13.0827 43.5332L17.5052 42.8887Z" fill="white"/>
<path opacity="0.22" d="M23.6785 38.9297L17.5055 42.8888L13.083 43.5333L23.6785 38.9297Z" fill="white"/>
<path opacity="0.35" d="M23.0335 51.2673L18.0582 48.5972L17.5054 42.8887L23.0335 51.2673Z" fill="white"/>
<path opacity="0.59" d="M23.6785 38.9297L17.5055 42.8888L13.083 43.5333L23.6785 38.9297Z" fill="white"/>
<path opacity="0.27" d="M13.0829 43.5331L10.3188 30.5508L14.2806 36.1672L13.0829 43.5331Z" fill="white"/>
<path opacity="0.37" d="M49.1074 59.0938L39.8018 58.9096L43.6714 55.5029L49.1074 59.0938Z" fill="white"/>
<path opacity="0.06" d="M42.5658 74.6537L39.8018 58.9092L44.3164 63.697L42.5658 74.6537Z" fill="white"/>
<path opacity="0.39" d="M42.5661 74.6539L27.0874 62.4082L34.8267 65.0783L42.5661 74.6539Z" fill="white"/>
<path opacity="0.27" d="M35.9323 62.4082L34.8267 65.0783L27.0874 62.4082H35.9323Z" fill="white"/>
<path opacity="0.39" d="M25.9818 46.848L17.5054 42.8888L23.6784 38.9297L25.9818 46.848Z" fill="white"/>
<path opacity="0.44" d="M10.503 52.1885L2.76367 48.9659L7.18614 46.6641L10.503 52.1885Z" fill="white"/>
<path opacity="0.56" d="M15.5705 57.5286L2.4873 57.989L6.1727 54.4902L15.5705 57.5286Z" fill="white"/>
<path opacity="0.55" d="M15.5704 57.5286L2.76367 48.9658L10.503 52.1884L15.5704 57.5286Z" fill="white"/>
<path opacity="0.59" d="M36.7614 41.6L23.6782 38.9299L26.9951 37.5488L36.7614 41.6Z" fill="white"/>
<path opacity="0.48" d="M13.0831 43.5327L5.06738 43.2565L7.55502 37.1797L13.0831 43.5327Z" fill="white"/>
</g>
</g>
</g>
<path opacity="0.74" d="M40.7234 73.9177L1.47394 57.6207C0.368326 57.1604 -0.184483 56.2397 0.0919216 55.5031L9.76608 31.8403C10.0425 31.1037 11.1481 30.9195 12.2537 31.3799L51.6874 47.861C52.793 48.3214 53.3459 49.2421 53.0695 49.9787L43.211 73.3653C42.8425 74.1018 41.7369 74.286 40.7234 73.9177Z" fill="url(#paint0_radial_4084_6624)"/>
<path d="M45.238 51.7277L44.6852 52.188V51.4514L44.4088 51.3594L43.856 52.6484L44.1324 52.7405L44.4088 52.096L44.5009 52.4643C44.5009 52.5563 44.5009 52.5563 44.593 52.5563H44.6852L44.9616 52.3722L44.6852 53.0167L44.9616 53.1088L45.5144 51.8197L45.238 51.7277Z" fill="white"/>
<path d="M45.3301 53.2011L45.8829 51.9121L46.8042 52.2804L46.7121 52.5566L46.0672 52.3725L45.975 52.5566L46.4357 52.7408L46.3436 53.017L45.8829 52.8328L45.7908 53.017L46.3436 53.2932L46.2514 53.5694L45.3301 53.2011Z" fill="white"/>
<path d="M47.265 53.8454C47.0807 53.9375 46.9886 53.8454 46.8043 53.8454C46.62 53.7533 46.5279 53.6612 46.5279 53.5692C46.4358 53.385 46.5279 53.2009 46.62 53.0167C46.7122 52.8326 46.8043 52.6484 46.9886 52.5564C47.0807 52.4643 47.265 52.4643 47.4493 52.5564C47.8178 52.6484 47.8178 52.9247 47.8178 53.2009L47.5414 53.1088C47.5414 53.0167 47.5414 52.9247 47.4493 52.9247C47.3571 52.9247 47.3571 52.9247 47.265 52.9247C47.265 52.9247 47.1729 53.0167 47.0807 53.2009C46.9886 53.385 46.9886 53.4771 46.9886 53.5692C46.9886 53.5692 46.9886 53.6612 47.0807 53.6612C47.1729 53.6612 47.1729 53.6612 47.265 53.6612C47.3571 53.6612 47.3571 53.5692 47.3571 53.5692L47.1729 53.4771L47.265 53.2009L47.7257 53.385L47.6335 53.5692C47.5414 53.6612 47.4493 53.7533 47.265 53.8454Z" fill="white"/>
<path d="M48.6468 53.1087L48.3704 53.0166L47.3569 54.0294L47.7255 54.1215L47.9097 53.9373L48.2783 54.1215V54.3056L48.6468 54.3977V53.1087ZM48.094 53.8453L48.3704 53.569V53.9373L48.094 53.8453Z" fill="white"/>
<path d="M39.7097 50.899L39.249 50.7148L39.8018 49.4258L40.2625 49.6099C40.4468 49.702 40.631 49.8861 40.5389 50.0703C40.4468 50.1624 40.3546 50.2544 40.2625 50.2544C40.3546 50.3465 40.4468 50.5307 40.3546 50.6227C40.1704 50.8989 39.9861 50.991 39.7097 50.899ZM40.1704 49.702L39.8018 49.6099L39.6176 50.0703L39.9861 50.2544C40.1704 50.3465 40.2625 50.2544 40.3546 50.1624C40.3546 49.8861 40.2625 49.7941 40.1704 49.702ZM39.9861 50.2544L39.6176 50.1624L39.4333 50.6227L39.8018 50.8069C39.9861 50.899 40.0782 50.8069 40.1704 50.7148C40.1704 50.5307 40.0782 50.3465 39.9861 50.2544Z" fill="white"/>
<path d="M41.0918 51.4514V51.0831L40.539 50.899L40.3547 51.1752L40.1704 51.0831L41.1839 50.0703L41.276 50.1624V51.6356L41.0918 51.4514ZM41.1839 50.2545L40.6311 50.8069L41.0918 50.991L41.1839 50.2545Z" fill="white"/>
<path d="M42.1975 51.9122L41.9211 50.6232L41.5526 51.636L41.4604 51.5439L42.0133 50.2549L42.1054 50.347L42.3818 51.636L42.7503 50.6232L42.8425 50.7152L42.3818 52.0043L42.1975 51.9122Z" fill="white"/>
<path d="M43.4874 52.3719L43.3031 51.6353L42.9346 51.8194L42.7503 52.1877L42.6582 52.0957L43.211 50.8066L43.3031 50.8987L43.0267 51.6353L43.9481 51.1749L44.1324 51.267L43.4874 51.5432L43.6717 52.464L43.4874 52.3719Z" fill="white"/>
<path d="M45.4219 47.124L43.9478 46.4795L41.2759 49.0575L42.75 49.61L44.0399 48.413L45.4219 47.124Z" fill="#FFC20E"/>
<path d="M47.7256 48.0449L46.2515 47.4004L46.3436 49.3339L46.4357 51.1754L47.9099 51.7278L47.7256 48.0449Z" fill="#505154"/>
<path d="M45.5143 50.07C45.5143 49.9779 45.5143 49.9779 45.5143 49.9779C45.5143 49.8858 45.5143 49.7938 45.5143 49.7017C45.5143 49.5175 45.5143 49.4255 45.5143 49.2413L45.4222 48.2285L44.6851 48.873C44.593 48.9651 44.5009 49.0572 44.3166 49.1492C44.2245 49.2413 44.2245 49.2413 44.1323 49.3334V49.4255V49.6096V49.7017C44.1323 49.7017 44.1323 49.7017 44.2245 49.7017C44.2245 49.7017 44.2245 49.7017 44.3166 49.7017C44.3166 49.7017 44.3166 49.7017 44.4087 49.7017C44.4087 49.7017 44.4087 49.7017 44.5009 49.7017C44.5009 49.7017 44.5009 49.7017 44.593 49.7017C44.593 49.7017 44.593 49.7017 44.6851 49.7017C44.6851 49.7017 44.6851 49.7017 44.7773 49.7017L44.8694 49.6096C44.8694 49.6096 44.8694 49.6096 44.9615 49.5175C45.5143 50.1621 45.5143 50.1621 45.5143 50.07Z" fill="#E05826"/>
<path d="M45.4221 47.124L44.04 48.413V49.3338V49.7021V49.61C44.1322 49.5179 44.1322 49.5179 44.2243 49.4259C44.3164 49.3338 44.4086 49.2417 44.5929 49.1496L45.3299 48.413L45.4221 47.124Z" fill="#F89A59"/>
<path d="M46.2511 47.4922L46.3432 49.4257L45.6983 49.9782L45.4219 50.2544C45.4219 50.2544 45.4219 50.1623 45.514 50.1623C45.514 50.0702 45.514 49.9782 45.514 49.8861C45.514 49.7019 45.514 49.6099 45.514 49.4257V48.4129L46.2511 47.4922Z" fill="#848689"/>
<path d="M14.1881 53.2931L7.09375 50.4388L7.73869 48.6895L14.9252 51.6358L14.1881 53.2931Z" fill="white"/>
<path d="M14.7411 60.659L4.51416 56.4236L5.06697 54.8584L15.3861 59.0938L14.7411 60.659Z" fill="white"/>
<path d="M9.95034 53.3855L6.44922 51.9124L6.81776 51.1758L10.3189 52.649L9.95034 53.3855Z" fill="white"/>
<path d="M8.19967 53.8455L6.08057 53.0169L6.35697 52.2803L8.47607 53.1089L8.19967 53.8455Z" fill="white"/>
<path d="M7.09379 54.6738L5.61963 54.1214L5.89603 53.3848L7.46233 53.9372L7.09379 54.6738Z" fill="white"/>
<path d="M23.6784 57.2524L16.584 54.306L17.3211 52.5566L24.4154 55.503L23.6784 57.2524Z" fill="white"/>
<path d="M26.7446 56.5304L26.0435 58.2334L33.1156 61.1412L33.8167 59.4382L26.7446 56.5304Z" fill="white"/>
<path d="M36.2856 60.4435L35.5845 62.1465L42.6566 65.0543L43.3577 63.3513L36.2856 60.4435Z" fill="white"/>
<path d="M40.5391 68.024C40.6312 68.024 40.7234 68.1161 40.8155 68.1161C40.8155 68.1161 40.8155 68.1161 40.8155 68.2081C40.7234 68.4844 40.7234 68.7606 40.6312 69.0368C40.5391 69.4972 40.447 70.0496 40.3548 70.51C40.3548 70.602 40.3548 70.6941 40.2627 70.8783C40.0784 70.7862 39.8942 70.6941 39.7099 70.6941C39.7099 70.6941 39.7099 70.6941 39.7099 70.602C39.7099 70.51 39.7099 70.4179 39.802 70.2337C39.802 70.2337 39.802 70.2337 39.802 70.1417C39.5256 70.0496 39.2492 69.9575 38.9728 69.7734C38.9728 69.7734 38.9728 69.7734 38.8807 69.7734C38.7885 69.8655 38.6964 69.9575 38.6043 70.0496C38.6043 70.0496 38.6043 70.0496 38.5121 70.0496C38.3279 69.9575 38.0515 69.8655 37.8672 69.7734C38.3279 69.313 38.7885 68.8526 39.2492 68.4844C39.4335 68.3002 39.6178 68.1161 39.802 67.9319C39.8942 67.8398 40.0784 67.8398 40.1706 67.8398C40.3548 67.9319 40.447 67.9319 40.5391 68.024ZM40.0784 68.5764C39.802 68.8526 39.6178 69.0368 39.3413 69.313C39.5256 69.4051 39.6178 69.4051 39.802 69.4972C39.802 69.2209 39.8942 69.0368 39.8942 68.7606C40.0784 68.7606 40.0784 68.6685 40.0784 68.5764Z" fill="white"/>
<path d="M34.1816 67.2877C34.2737 67.1957 34.3659 67.1036 34.458 67.0115C34.8265 66.6432 35.103 66.367 35.4715 65.9987L35.5636 65.9066C35.7479 65.9987 36.0243 66.0908 36.2086 66.1829C36.0243 66.367 35.84 66.5511 35.6558 66.7353C35.3794 67.0115 35.103 67.2877 34.8265 67.564C34.6423 67.7481 34.3659 67.9322 34.1816 68.2085C34.1816 68.2085 34.1816 68.2085 34.0895 68.2085C33.9052 68.1164 33.6288 68.0243 33.4445 67.9322C33.4445 67.9322 33.4445 67.9322 33.4445 67.8402C33.5367 67.1957 33.6288 66.6432 33.7209 65.9987C33.7209 65.8146 33.7209 65.7225 33.8131 65.5383C33.8131 65.4463 33.8131 65.3542 33.7209 65.3542C33.5367 65.17 33.4445 65.078 33.2603 64.8938V64.8018C33.6288 64.9859 33.9973 65.078 34.3659 65.2621C34.5501 65.3542 34.6423 65.5383 34.5501 65.6304C34.458 65.9066 34.458 66.2749 34.3659 66.5511C34.1816 66.9194 34.1816 67.1036 34.1816 67.2877Z" fill="white"/>
<path d="M36.8534 69.4053C36.577 69.3133 36.3928 69.2212 36.2085 69.0371C36.2085 69.0371 36.2085 69.0371 36.2085 68.945C36.3006 68.8529 36.3006 68.7608 36.3928 68.7608C36.4849 68.6688 36.4849 68.5767 36.577 68.5767C36.577 68.5767 36.577 68.5767 36.6692 68.5767C36.7613 68.6688 36.8534 68.7608 37.0377 68.8529C37.1298 68.945 37.3141 69.0371 37.4984 69.0371C37.5905 69.0371 37.5905 69.0371 37.6827 69.0371C37.8669 69.0371 37.8669 68.8529 37.8669 68.7608C37.8669 68.6688 37.7748 68.6688 37.7748 68.5767C37.6827 68.4846 37.5905 68.3925 37.4984 68.3005C37.4063 68.2084 37.4062 68.1163 37.3141 68.0242C37.222 67.8401 37.3141 67.656 37.4062 67.4718C37.4984 67.2877 37.6827 67.1956 37.9591 67.1035C38.1433 67.1035 38.4197 67.1035 38.604 67.1035C38.6961 67.1035 38.7883 67.1956 38.9725 67.1956C39.1568 67.2877 39.3411 67.3797 39.4332 67.4718C39.3411 67.656 39.2489 67.748 39.1568 67.9322C38.9725 67.748 38.7883 67.656 38.604 67.5639C38.5119 67.5639 38.4197 67.4718 38.3276 67.5639C38.2355 67.5639 38.1433 67.656 38.1433 67.748V67.8401C38.2355 67.9322 38.2355 68.0242 38.3276 68.0242C38.4197 68.1163 38.5119 68.2084 38.604 68.3925C38.6961 68.5767 38.7883 68.6688 38.6961 68.8529C38.6961 69.0371 38.604 69.2212 38.4197 69.3133C38.2355 69.4974 38.0512 69.4974 37.7748 69.4974C37.222 69.5895 37.0377 69.4974 36.8534 69.4053Z" fill="white"/>
<path d="M35.2871 68.7608C35.195 68.7608 35.1029 68.6687 35.0107 68.6687C35.2871 68.2084 35.6557 67.748 35.9321 67.2876C36.1164 67.0114 36.3006 66.7352 36.4849 66.459C36.4849 66.459 36.4849 66.459 36.577 66.459C36.7613 66.5511 36.9456 66.6431 37.222 66.7352C36.8534 67.2876 36.4849 67.748 36.1164 68.3004C35.9321 68.4846 35.84 68.7608 35.6557 68.945C35.6557 68.945 35.6557 68.945 35.5635 68.945C35.4714 68.8529 35.3793 68.7608 35.2871 68.7608Z" fill="white"/>
<path d="M20.5457 58.909L18.3345 58.0803L18.703 57.3438L20.8221 58.1724L20.5457 58.909Z" fill="white"/>
<path d="M21.5704 58.4306L21.0449 59.708L24.8796 61.2833L25.4051 60.0059L21.5704 58.4306Z" fill="white"/>
<path d="M19.44 59.7373L17.9658 59.0928L18.2422 58.4482L19.7164 59.0007L19.44 59.7373Z" fill="white"/>
<path fill-rule="evenodd" clip-rule="evenodd" d="M19.9931 48.8731C19.7167 49.5176 19.3482 50.0701 18.7954 50.5304C18.7032 50.6225 18.6111 50.6225 18.519 50.6225C18.4268 50.5304 18.3347 50.4384 18.4268 50.2542L18.519 50.1621C19.0718 49.7018 19.4403 49.1493 19.7167 48.4128C19.8089 47.9524 19.901 47.492 19.8089 47.0317C19.8089 46.9396 19.8089 46.9396 19.8089 46.8475C19.8089 46.7554 19.901 46.5713 19.9931 46.5713C20.0853 46.5713 20.1774 46.6634 20.2695 46.7554C20.2695 47.0317 20.3617 47.4 20.2695 47.6762C20.1774 48.2286 20.0853 48.5969 19.9931 48.8731Z" fill="#231F20"/>
<path fill-rule="evenodd" clip-rule="evenodd" d="M19.0716 48.7809C18.8874 49.1492 18.611 49.5175 18.1503 49.8858C18.0581 49.9779 18.0581 49.9779 17.966 49.9779C17.8739 49.9779 17.7817 49.8858 17.7817 49.7937C17.7817 49.7016 17.7817 49.6096 17.8739 49.6096C17.966 49.5175 17.966 49.5175 18.0581 49.5175C18.3345 49.3334 18.5188 49.0571 18.611 48.7809C18.8874 48.3206 18.9795 47.7681 18.8874 47.3077V47.2157C18.8874 47.1236 18.9795 47.0315 19.0716 46.9395C19.1638 46.9395 19.2559 47.0315 19.348 47.1236C19.348 47.3078 19.348 47.3998 19.348 47.584C19.348 47.8602 19.2559 48.2285 19.0716 48.7809Z" fill="#231F20"/>
<path fill-rule="evenodd" clip-rule="evenodd" d="M18.2423 46.8477C18.3344 46.8477 18.3344 46.9397 18.3344 47.0318C18.3344 47.308 18.3344 47.4922 18.3344 47.7684C18.2423 48.3208 17.9659 48.7812 17.5052 49.1495C17.4131 49.2416 17.321 49.2416 17.2288 49.1495C17.0446 49.0574 17.0446 48.9653 17.1367 48.7812L17.2288 48.6891C17.7816 48.2288 17.9659 47.7684 17.8738 47.0318V46.9397C17.9659 46.9397 18.1502 46.8477 18.2423 46.8477Z" fill="#231F20"/>
<path fill-rule="evenodd" clip-rule="evenodd" d="M17.5053 47.952C17.4132 48.2282 17.2289 48.4124 16.9525 48.5965C16.8604 48.6886 16.7683 48.6886 16.6761 48.5965C16.584 48.5044 16.584 48.4123 16.584 48.3203C16.584 48.2282 16.6761 48.2282 16.6761 48.1361C16.7683 48.0441 16.8604 47.952 16.9525 47.8599C17.0447 47.6758 17.0447 47.4916 17.0447 47.3075V47.2154C17.0447 47.1233 17.1368 47.0312 17.2289 47.0312C17.3211 47.0312 17.4132 47.0313 17.5053 47.2154C17.5975 47.3995 17.5975 47.5837 17.5053 47.7678C17.5053 47.7678 17.5053 47.8599 17.5053 47.952Z" fill="#231F20"/>
<path fill-rule="evenodd" clip-rule="evenodd" d="M16.2152 45.5589L15.0174 48.6894C14.8332 49.1498 14.3725 49.3339 13.9118 49.1498L9.21293 47.3083C8.75225 47.1241 8.56798 46.6638 8.75225 46.2034L10.0421 43.0729C10.2264 42.6126 10.6871 42.4284 11.1478 42.6126L15.8466 44.454C16.2152 44.5461 16.3994 45.0985 16.2152 45.5589Z" fill="#FBC800"/>
<path fill-rule="evenodd" clip-rule="evenodd" d="M12.622 43.1653L12.3456 43.9019C12.2535 44.1781 12.1614 44.3623 12.0692 44.6385C12.0692 44.7306 11.9771 44.8226 11.9771 44.9147C11.885 45.0989 11.885 45.1909 11.7928 45.3751C11.7007 45.6513 11.6085 45.8354 11.5164 46.1117C11.5164 46.2037 11.4243 46.2958 11.4243 46.3879C11.24 46.8482 11.0557 47.3086 10.8715 47.769H10.5029C10.6872 47.3086 10.8715 46.8482 11.0557 46.3879C11.0557 46.2958 11.1479 46.2037 11.1479 46.1117C11.24 45.8354 11.3321 45.5592 11.4243 45.3751C11.5164 45.1909 11.5164 45.0989 11.6085 44.9147C11.6085 44.8226 11.7007 44.7306 11.7007 44.6385C11.7928 44.3623 11.885 44.086 11.9771 43.8098C12.0692 43.5336 12.1614 43.3495 12.2535 43.0732L12.622 43.1653Z" fill="#F99900"/>
<path fill-rule="evenodd" clip-rule="evenodd" d="M12.5298 48.5974L12.2534 48.5053C12.4377 48.0449 12.622 47.5846 12.8062 47.1242C12.8062 47.0321 12.8984 46.9401 12.8984 46.848C12.9905 46.6638 13.0826 46.3876 13.1748 46.2035C13.2669 46.0193 13.2669 45.8352 13.359 45.651C13.359 45.559 13.4512 45.4669 13.4512 45.3748C13.5433 45.0986 13.6354 44.9144 13.7276 44.6382C13.8197 44.362 13.9118 44.1779 14.004 43.9016V43.8096L14.2804 43.9016L14.1882 44.0858C14.0961 44.362 14.004 44.5462 13.9118 44.8224C13.8197 45.0065 13.7276 45.2827 13.6354 45.4669L13.5433 45.7431C13.4512 45.9273 13.359 46.1114 13.359 46.2955C13.2669 46.4797 13.1748 46.7559 13.0826 46.9401C13.0826 47.0321 12.9905 47.1242 12.9905 47.2163C12.8984 47.6766 12.7141 48.137 12.5298 48.5974Z" fill="#F99900"/>
<path d="M11.977 44.6385C11.977 44.7306 11.8849 44.8227 11.8849 44.9147L9.58154 43.994L9.67368 43.7178L11.977 44.6385Z" fill="#F99900"/>
<path d="M11.4243 46.203C11.4243 46.295 11.3322 46.3871 11.3322 46.4792L9.02881 45.5584L9.12094 45.2822L11.4243 46.203Z" fill="#F99900"/>
<path d="M15.9387 46.2032L15.8465 46.4795L13.3589 45.4666C13.3589 45.3746 13.451 45.2825 13.451 45.1904L15.9387 46.2032Z" fill="#F99900"/>
<path d="M15.3859 47.7687L15.2938 48.0449L12.8062 47.0321C12.8062 46.94 12.8983 46.8479 12.8983 46.7559L15.3859 47.7687Z" fill="#F99900"/>
<path d="M62.2827 80.9144V111.206C62.2827 112.127 61.5456 112.956 60.5321 112.956H11.0557C10.1344 112.956 9.30518 112.219 9.30518 111.206V80.9144C9.30518 79.9937 10.0423 79.165 11.0557 79.165H60.6243C61.5456 79.2571 62.2827 79.9937 62.2827 80.9144Z" fill="#231F20"/>
<path d="M62.2828 103.197V109.089C61.1772 109.273 59.6109 109.458 57.6761 109.181C53.7143 108.721 49.5682 103.841 48.3704 99.6058C47.1727 95.3704 46.3435 91.5954 49.3839 86.1631C52.0558 81.4673 55.557 80.6387 55.557 80.6387C55.557 80.6387 51.6873 86.5314 54.7278 94.7259C56.5705 99.6057 59.7952 102 62.2828 103.197Z" fill="#D6D5D5"/>
<path d="M42.1973 88.4642C42.1973 88.4642 44.5006 84.8733 49.4759 86.2544C54.2669 81.6508 55.649 80.73 55.649 80.73C55.649 80.73 51.1343 79.5331 47.5411 82.8477C43.9478 85.9782 42.1973 88.4642 42.1973 88.4642Z" fill="#BCBCBD"/>
<path d="M47.5411 82.848C47.9097 82.4797 45.7906 84.2291 45.9748 87.82C46.067 91.5029 48.9231 104.669 45.0535 109.089C38.3276 106.327 38.3276 100.526 38.3276 100.526C38.3276 100.526 39.8018 98.5005 39.7097 96.5669C39.7097 94.6334 39.1569 91.5029 40.5389 89.2011C41.6445 87.7279 47.1726 83.1242 47.5411 82.848Z" fill="#F9F9F8"/>
<path d="M32.0624 84.7807C32.0624 84.7807 35.2871 85.6093 37.0377 88.4636C38.604 91.2258 40.8152 99.5124 41.4602 101.354C42.1051 103.195 43.6714 107.799 45.1456 109.088C44.6849 109.825 43.4871 110.929 42.2894 111.022C41.0916 111.114 38.4197 109.917 37.0377 108.443C35.6557 106.878 33.813 104.3 32.2467 100.065C30.6804 95.8295 28.2849 85.9776 26.6265 84.5045C28.4692 83.6758 32.0624 84.7807 32.0624 84.7807Z" fill="#D6D5D5"/>
<path d="M13.2671 83.2159C13.2671 83.2159 16.1233 81.0061 21.0064 81.3744C23.3098 81.5586 26.9952 83.2159 32.0626 84.7811C27.9165 84.3208 24.9682 85.0573 21.9278 87.4512C16.3075 84.7811 13.2671 83.2159 13.2671 83.2159Z" fill="#BCBCBD"/>
<path d="M27.1796 112.955H13.82C16.492 111.114 19.8088 107.891 20.638 102.735C22.1122 93.896 18.0583 86.346 13.3594 83.3076C13.4515 83.3076 20.2695 84.8729 23.3099 86.6223C23.4021 86.6223 23.4021 86.7143 23.4942 86.7143C26.7189 89.2924 30.5886 93.4357 30.9571 102.183C31.1414 106.418 29.2066 110.193 27.1796 112.955Z" fill="#D6D5D5"/>
<path d="M54.9123 86.5303L54.5437 87.1748L54.1752 86.5303H53.8066V88.0955H54.1752V87.3589L54.3594 87.7272C54.3594 87.8193 54.4516 87.8193 54.4516 87.8193C54.5437 87.8193 54.5437 87.8193 54.5437 87.7272C54.5437 87.6352 54.728 87.3589 54.728 87.3589V88.0955H55.2808V86.5303H54.9123Z" fill="white"/>
<path d="M55.5571 88.0955V86.5303H56.6627V86.8986H55.9257V87.1748H56.4785V87.5431H55.9257V87.8193H56.6627V88.1876L55.5571 88.0955Z" fill="white"/>
<path d="M57.9528 87.9116C57.8607 88.0037 57.6764 88.0958 57.4921 88.0958C57.3078 88.0958 57.1236 88.0037 57.0314 87.9116C56.8472 87.7275 56.8472 87.5434 56.8472 87.2671C56.8472 86.9909 56.8472 86.8068 57.0314 86.6226C57.1236 86.5305 57.3078 86.4385 57.4921 86.4385C57.8607 86.4385 58.0449 86.7147 58.1371 86.9909H57.7685C57.7685 86.8988 57.6764 86.8068 57.5842 86.8068C57.4921 86.8068 57.4921 86.8068 57.4 86.8988C57.4 86.8988 57.3078 86.9909 57.3078 87.2671C57.3078 87.5434 57.3078 87.6354 57.4 87.6354C57.4 87.6354 57.4921 87.7275 57.5842 87.7275C57.6764 87.7275 57.7685 87.7275 57.7685 87.6354C57.7685 87.6354 57.8606 87.5434 57.8606 87.4513H57.5842V87.1751H58.2292V87.3592C58.1371 87.6354 58.0449 87.8196 57.9528 87.9116Z" fill="white"/>
<path d="M59.0582 86.5303H58.7818L58.229 88.0955H58.5975L58.6897 87.8193H59.1503L59.2425 88.0955H59.611L59.0582 86.5303ZM58.7818 87.5431L58.9661 87.0827L59.1503 87.5431H58.7818Z" fill="white"/>
<path d="M48.6469 88.0955H48.002V86.5303H48.6469C48.9233 86.5303 49.1076 86.7144 49.1076 86.8986C49.1076 87.0827 49.0154 87.1748 48.8312 87.2669C49.0154 87.3589 49.1076 87.451 49.1076 87.6352C49.1076 87.9114 48.9233 88.0955 48.6469 88.0955ZM48.6469 86.7144H48.1862V87.2669H48.6469C48.8312 87.2669 48.9233 87.1748 48.9233 86.9906C48.9233 86.8065 48.8312 86.7144 48.6469 86.7144ZM48.6469 87.3589H48.1862V87.9114H48.6469C48.8312 87.9114 48.9233 87.8193 48.9233 87.6352C49.0154 87.451 48.8312 87.3589 48.6469 87.3589Z" fill="white"/>
<path d="M50.3976 88.0955L50.3055 87.7272H49.5684L49.4763 88.0955H49.292L49.8448 86.5303H50.0291L50.5819 88.0955H50.3976ZM49.9369 86.8065L49.6605 87.6352H50.2133L49.9369 86.8065Z" fill="white"/>
<path d="M51.7796 88.0955L50.9504 86.8986V88.0955H50.7661V86.5303H50.9504L51.7796 87.7272V86.5303H51.9639V88.0955H51.7796Z" fill="white"/>
<path d="M53.2537 88.0955L52.793 87.2669L52.4245 87.6352V88.0955H52.2402V86.5303H52.4245V87.451L53.1616 86.5303H53.438L52.9773 87.1748L53.5301 88.0955H53.2537Z" fill="white"/>
<path d="M53.0693 81.5586H51.2266L49.4761 85.4257H51.2266L52.0558 83.5842L53.0693 81.5586Z" fill="#FFC20E"/>
<path d="M55.9257 81.6504H54.083L55.0044 83.676L55.8336 85.5175H57.5841L55.9257 81.6504Z" fill="#505154"/>
<path d="M54.4512 84.6891C54.4512 84.597 54.4512 84.597 54.4512 84.597C54.4512 84.505 54.3591 84.4129 54.3591 84.3208C54.2669 84.1367 54.1748 84.0446 54.1748 83.8605L53.7141 82.8477L53.2535 83.8605C53.1613 84.0446 53.0692 84.1367 53.0692 84.3208C53.0692 84.4129 52.9771 84.505 52.9771 84.597C52.9771 84.597 52.9771 84.597 52.9771 84.6891C52.9771 84.6891 52.9771 84.6891 52.9771 84.7812V84.8733L53.0692 85.0574L53.1613 85.1495C53.1613 85.1495 53.1613 85.1495 53.2535 85.1495C53.2535 85.1495 53.2535 85.1495 53.3456 85.1495C53.3456 85.1495 53.3456 85.1495 53.4377 85.1495C53.4377 85.1495 53.4377 85.1495 53.5299 85.1495C53.5299 85.1495 53.5299 85.1495 53.622 85.1495C53.622 85.1495 53.622 85.1495 53.7141 85.1495C53.7141 85.1495 53.7141 85.1495 53.8063 85.1495C53.8063 85.1495 53.8063 85.1495 53.8984 85.1495C53.8984 85.1495 53.8984 85.1495 53.9905 85.1495C53.9905 85.1495 53.9905 85.1495 54.0827 85.1495C54.0827 85.1495 54.0827 85.1495 54.1748 85.1495C54.1748 85.1495 54.1748 85.1495 54.2669 85.1495C54.2669 85.1495 54.2669 85.1495 54.3591 85.1495C54.3591 85.1495 54.3591 85.1495 54.4512 85.1495V85.0574V84.9653C54.4512 84.7812 54.4512 84.7812 54.4512 84.6891Z" fill="#E05826"/>
<path d="M53.0693 81.5586L52.1479 83.5842L52.6086 84.5049L52.7929 84.8732V84.7812C52.7929 84.7812 52.7929 84.7812 52.7929 84.6891C52.7929 84.597 52.885 84.5049 52.885 84.4129C52.9772 84.2287 53.0693 84.1366 53.0693 83.9525L53.53 82.8476L53.0693 81.5586Z" fill="#F89A59"/>
<path d="M54.0827 81.5586L55.0041 83.5842L54.5434 84.5049L54.3591 84.8732V84.7812C54.3591 84.7812 54.3591 84.7812 54.3591 84.6891C54.3591 84.597 54.267 84.5049 54.267 84.4129C54.1749 84.2287 54.0827 84.1366 54.0827 83.9525L53.6221 82.8476L54.0827 81.5586Z" fill="#848689"/>
<path d="M22.6648 102.368H13.8198V100.25H22.6648V102.368Z" fill="white"/>
<path d="M26.3503 109.825H13.6357V107.892H26.3503V109.825Z" fill="white"/>
<path d="M18.1502 104.209H13.8198V103.288H18.1502V104.209Z" fill="white"/>
<path d="M16.4917 105.498L13.8198 105.59V104.669H16.4917V105.498Z" fill="white"/>
<path d="M15.7547 106.879H13.8198V105.958H15.7547V106.879Z" fill="white"/>
<path d="M34.3661 102.368H25.6133V100.25H34.3661V102.368Z" fill="white"/>
<path d="M46.1589 100.25H37.314V102.368H46.1589V100.25Z" fill="white"/>
<path d="M57.9524 100.25H49.1074V102.368H57.9524V100.25Z" fill="white"/>
<path d="M56.9389 106.418C57.0311 106.418 57.2153 106.418 57.3075 106.418C57.3075 106.418 57.3075 106.418 57.3996 106.418C57.4917 106.787 57.5839 107.063 57.5839 107.431C57.676 107.983 57.8603 108.536 57.9524 109.088C57.9524 109.18 58.0445 109.365 58.0445 109.457C57.7681 109.457 57.5839 109.457 57.3075 109.457C57.3075 109.457 57.3075 109.457 57.2153 109.457C57.2153 109.365 57.1232 109.18 57.1232 109.088C57.1232 109.088 57.1232 109.088 57.0311 109.088C56.6625 109.088 56.3861 109.088 56.0176 109.088H55.9254C55.8333 109.18 55.8333 109.365 55.7412 109.457C55.7412 109.457 55.7412 109.457 55.649 109.457C55.3726 109.457 55.0962 109.457 54.8198 109.457C55.0962 108.812 55.3726 108.168 55.649 107.431C55.7412 107.155 55.9254 106.879 56.0176 106.602C56.1097 106.418 56.2018 106.326 56.3861 106.326C56.7547 106.418 56.8468 106.418 56.9389 106.418ZM56.7547 107.247C56.6625 107.247 56.6625 107.339 56.7547 107.247C56.5704 107.615 56.4782 107.983 56.294 108.352C56.4782 108.352 56.6625 108.352 56.8468 108.352C56.7547 108.076 56.7547 107.799 56.6625 107.523C56.7547 107.431 56.7547 107.339 56.7547 107.247Z" fill="white"/>
<path d="M49.8445 108.536C49.9366 108.352 49.9366 108.26 50.0287 108.076C50.213 107.616 50.3973 107.063 50.6737 106.603C50.6737 106.603 50.6737 106.511 50.7658 106.511C51.0422 106.511 51.3186 106.511 51.595 106.511C51.5029 106.787 51.3186 107.063 51.2265 107.339C51.0422 107.8 50.8579 108.168 50.6737 108.628C50.5815 108.905 50.3973 109.273 50.3051 109.549C50.3051 109.549 50.3051 109.549 50.213 109.549C49.9366 109.549 49.6602 109.549 49.3838 109.549C49.3838 109.549 49.3838 109.549 49.2916 109.549C49.1074 108.905 48.9231 108.168 48.7388 107.524C48.7388 107.339 48.6467 107.247 48.6467 107.063C48.6467 106.971 48.5546 106.879 48.4624 106.879C48.2782 106.787 48.0018 106.695 47.7254 106.603C47.6332 106.603 47.6332 106.511 47.7254 106.511C48.186 106.511 48.6467 106.511 49.1074 106.511C49.2916 106.511 49.4759 106.603 49.568 106.879C49.6602 107.247 49.7523 107.616 49.7523 107.984C49.7523 108.076 49.8445 108.26 49.8445 108.536C49.8445 108.444 49.8445 108.444 49.8445 108.536Z" fill="white"/>
<path d="M53.622 109.549C53.3456 109.549 53.0692 109.549 52.7928 109.457C52.7928 109.457 52.7928 109.457 52.7007 109.457C52.7007 109.457 52.7007 109.457 52.7007 109.365C52.7007 109.273 52.7928 109.181 52.7928 109.089C52.7928 108.997 52.7928 108.905 52.885 108.813C52.885 108.72 52.885 108.72 52.9771 108.813C53.1614 108.905 53.2535 108.905 53.4378 108.997C53.622 108.997 53.8063 108.997 53.9906 108.997C54.0827 108.997 54.0827 108.997 54.1748 108.905C54.3591 108.813 54.3591 108.628 54.1748 108.536C54.0827 108.444 54.0827 108.444 53.9906 108.444C53.8984 108.352 53.7142 108.352 53.622 108.26C53.5299 108.168 53.3456 108.076 53.2535 107.984C53.0692 107.8 53.0692 107.616 53.0692 107.339C53.1614 107.063 53.2535 106.879 53.5299 106.787C53.7142 106.695 53.9906 106.603 54.1748 106.511C54.267 106.511 54.4512 106.511 54.5434 106.511C54.7276 106.511 55.0041 106.603 55.1883 106.603C55.1883 106.787 55.0962 106.971 55.0962 107.155C54.8198 107.063 54.6355 106.971 54.3591 107.063C54.267 107.063 54.1748 107.063 54.0827 107.155C53.9906 107.247 53.9906 107.339 53.9906 107.431L54.0827 107.524C54.1748 107.616 54.267 107.616 54.3591 107.708C54.5434 107.8 54.6355 107.892 54.7277 107.984C54.9119 108.076 55.0041 108.26 55.0962 108.444C55.1883 108.628 55.0962 108.905 55.0041 109.089C54.9119 109.365 54.6355 109.457 54.4512 109.641C54.0827 109.549 53.8984 109.549 53.622 109.549Z" fill="white"/>
<path d="M51.6874 109.549C51.5953 109.549 51.411 109.549 51.3188 109.549C51.5031 108.905 51.5953 108.26 51.7795 107.708C51.8717 107.339 51.9638 106.971 52.0559 106.511C52.3323 106.511 52.6087 106.511 52.793 106.511C52.6087 107.247 52.5166 107.984 52.3323 108.628C52.2402 108.905 52.2402 109.181 52.1481 109.457C52.1481 109.549 52.1481 109.549 52.0559 109.549C51.9638 109.549 51.7795 109.549 51.6874 109.549Z" fill="white"/>
<path d="M31.7862 105.498H29.1143V104.669H31.7862V105.498Z" fill="white"/>
<path d="M37.4064 104.577H32.7075V106.142H37.4064V104.577Z" fill="white"/>
<path d="M30.957 106.879H29.1143V105.958H30.957V106.879Z" fill="white"/>
<path fill-rule="evenodd" clip-rule="evenodd" d="M26.8109 95.1857C26.8109 96.0143 26.6267 96.7509 26.2581 97.4875C26.166 97.5796 26.0738 97.6716 25.9817 97.6716C25.7974 97.6716 25.7053 97.4875 25.7974 97.3954C25.7974 97.3954 25.7974 97.3034 25.8896 97.3034C26.2581 96.5668 26.4424 95.7381 26.3503 94.9094C26.2581 94.357 26.166 93.8966 25.8896 93.4363C25.8896 93.3442 25.7974 93.3442 25.7974 93.2521C25.7053 93.1601 25.7974 92.9759 25.8896 92.8838C25.9817 92.7918 26.166 92.8838 26.2581 92.9759C26.4424 93.2521 26.5345 93.6204 26.7188 93.8966C26.7188 94.357 26.8109 94.7253 26.8109 95.1857Z" fill="#231F20"/>
<path fill-rule="evenodd" clip-rule="evenodd" d="M25.7973 95.3697C25.7973 95.83 25.613 96.3825 25.3366 96.9349C25.3366 97.027 25.2444 97.1191 25.1523 97.1191C25.0602 97.1191 24.968 97.1191 24.8759 97.027C24.7838 96.9349 24.7838 96.8429 24.8759 96.7508C24.8759 96.6587 24.968 96.5666 24.968 96.5666C25.1523 96.1983 25.2444 95.8301 25.2444 95.4618C25.3366 94.8173 25.1523 94.2648 24.8759 93.7124C24.8759 93.7124 24.8759 93.6203 24.7838 93.6203C24.6916 93.5282 24.7838 93.3441 24.8759 93.252C24.968 93.1599 25.1523 93.252 25.2444 93.3441C25.3366 93.5282 25.4287 93.6203 25.5208 93.8044C25.7051 94.2648 25.7973 94.7252 25.7973 95.3697Z" fill="#231F20"/>
<path fill-rule="evenodd" clip-rule="evenodd" d="M24.1388 93.7129C24.2309 93.7129 24.3231 93.805 24.4152 93.897C24.5073 94.1733 24.6916 94.3574 24.6916 94.6336C24.7837 95.2781 24.6916 95.9226 24.4152 96.4751C24.3231 96.5672 24.3231 96.6592 24.1388 96.6592C23.9545 96.6592 23.8624 96.4751 23.8624 96.2909C23.8624 96.2909 23.8624 96.1989 23.9545 96.1989C24.3231 95.5544 24.3231 94.9098 23.9545 94.1733C23.9545 94.1733 23.9545 94.0812 23.8624 94.0812C23.7703 93.897 23.9545 93.7129 24.1388 93.7129Z" fill="#231F20"/>
<path fill-rule="evenodd" clip-rule="evenodd" d="M23.7704 95.1861C23.7704 95.4623 23.6782 95.8306 23.494 96.0147C23.4018 96.1068 23.3097 96.1068 23.2176 96.1068C23.1254 96.1068 23.0333 96.0147 23.0333 95.9227C23.0333 95.8306 23.0333 95.7385 23.1254 95.7385C23.2176 95.6464 23.3097 95.4623 23.3097 95.2781C23.3097 95.0019 23.3097 94.8178 23.1254 94.6336L23.0333 94.5416C22.9411 94.4495 23.0333 94.2653 23.1254 94.2653C23.2176 94.1733 23.4018 94.1733 23.494 94.2653C23.6782 94.4495 23.7704 94.6336 23.7704 94.9099C23.6782 95.0019 23.6782 95.094 23.7704 95.1861Z" fill="#231F20"/>
<path fill-rule="evenodd" clip-rule="evenodd" d="M21.3749 93.1603L21.4671 97.0273C21.4671 97.5798 21.0064 98.0401 20.4536 98.0401H14.6491C14.0963 98.0401 13.6356 97.5798 13.6356 97.0273L13.5435 93.1603C13.5435 92.6078 14.0041 92.1475 14.5569 92.1475H20.3614C20.9142 92.2395 21.3749 92.6078 21.3749 93.1603Z" fill="#FBC800"/>
<path fill-rule="evenodd" clip-rule="evenodd" d="M16.4917 92.2395V93.1603C16.4917 93.4365 16.4917 93.8048 16.4917 94.081C16.4917 94.1731 16.4917 94.3572 16.4917 94.4493C16.4917 94.6334 16.4917 94.8176 16.4917 95.0017C16.4917 95.278 16.4917 95.6462 16.4917 95.9225C16.4917 96.0145 16.4917 96.1987 16.4917 96.2908C16.4917 96.8432 16.4917 97.3956 16.4917 98.0401H16.2153C16.2153 97.4877 16.2153 96.9353 16.2153 96.2908C16.2153 96.1987 16.2153 96.0145 16.2153 95.9225C16.2153 95.6462 16.2153 95.278 16.2153 95.0017C16.2153 94.8176 16.2153 94.6334 16.2153 94.4493C16.2153 94.3572 16.2153 94.1731 16.2153 94.081C16.2153 93.7127 16.2153 93.4365 16.2153 93.0682C16.2153 92.792 16.2153 92.5158 16.2153 92.1475L16.4917 92.2395Z" fill="#F99900"/>
<path fill-rule="evenodd" clip-rule="evenodd" d="M18.795 98.0401H18.5186C18.5186 97.4877 18.5186 96.9353 18.5186 96.2908C18.5186 96.1987 18.5186 96.0145 18.5186 95.9225C18.5186 95.6462 18.5186 95.37 18.5186 95.0938C18.5186 94.9097 18.5186 94.6334 18.5186 94.4493C18.5186 94.3572 18.5186 94.1731 18.5186 94.081C18.5186 93.8048 18.5186 93.5286 18.5186 93.1603C18.5186 92.8841 18.5186 92.5158 18.5186 92.2395V92.1475H18.795V92.3316C18.795 92.6078 18.795 92.9761 18.795 93.2523C18.795 93.5286 18.795 93.8048 18.795 93.9889V94.3572C18.795 94.6334 18.795 94.8176 18.795 95.0938C18.795 95.37 18.795 95.6462 18.795 95.8304C18.795 95.9225 18.795 96.1066 18.795 96.1987C18.795 96.9353 18.795 97.4877 18.795 98.0401Z" fill="#F99900"/>
<path d="M16.4919 94.0811C16.4919 94.1731 16.4919 94.3573 16.4919 94.4493H13.6357V94.0811H16.4919Z" fill="#F99900"/>
<path d="M16.5837 96.0146C16.5837 96.1067 16.5837 96.2909 16.5837 96.3829H13.7275V96.0146H16.5837Z" fill="#F99900"/>
<path d="M21.3749 94.0811V94.4493H18.3345C18.3345 94.3573 18.3345 94.1731 18.3345 94.0811H21.3749Z" fill="#F99900"/>
<path d="M21.4672 95.9229V96.2911H18.4268C18.4268 96.1991 18.4268 96.0149 18.4268 95.9229H21.4672Z" fill="#F99900"/>
<path d="M121.342 130.174H36.0247C32.7079 130.174 29.9438 127.504 29.9438 124.097C29.9438 120.783 32.6158 118.021 36.0247 118.021H121.249C124.566 118.021 127.33 120.691 127.33 124.097C127.422 127.412 124.658 130.174 121.342 130.174Z" fill="#252526"/>
<path d="M87.9883 124.097C87.9883 125.018 87.6198 125.847 86.9749 126.491C86.3299 127.136 85.5007 127.504 84.5794 127.504H36.6692C35.9322 127.504 35.2872 127.228 34.7344 126.859C33.9052 126.215 33.2603 125.202 33.2603 124.097C33.2603 123.176 33.6288 122.348 34.2737 121.703C34.9187 121.059 35.7479 120.69 36.6692 120.69H84.5794C85.5007 120.69 86.3299 121.059 86.9749 121.703C87.6198 122.256 87.9883 123.176 87.9883 124.097Z" fill="#8BC53F"/>
<path d="M46.5278 120.69L41.7368 127.504H36.7615C36.0244 127.504 35.3795 127.228 34.8267 126.859L39.157 120.69H46.5278Z" fill="#5E871D"/>
<path d="M60.256 120.69L55.465 127.504H48.0942L52.7931 120.69H60.256Z" fill="#5E871D"/>
<path d="M73.9841 120.69L69.1931 127.504H61.8223L66.5211 120.69H73.9841Z" fill="#5E871D"/>
<path d="M86.975 121.703L82.9211 127.504H75.5503L80.3413 120.69H84.6716C85.593 120.69 86.4222 121.059 86.975 121.703Z" fill="#5E871D"/>
<defs>
<radialGradient id="paint0_radial_4084_6624" cx="0" cy="0" r="1" gradientUnits="userSpaceOnUse" gradientTransform="translate(26.4661 52.6226) rotate(22.587) scale(31.2565 18.409)">
<stop stop-color="#0D0A10" stop-opacity="0"/>
<stop offset="1" stop-color="#0C090F"/>
</radialGradient>
</defs>
</svg>
