<svg id="b1f72176-8307-45b5-aeb1-bdcb6f6d4ec1" data-name="Layer 1" xmlns="http://www.w3.org/2000/svg" viewBox="0 0 513 513"><defs><style>.\38 8943639-5fc1-4072-90c4-32a34438f545{fill:#277286;}.\38 4cf4c90-3941-41a3-b516-e6f670f58563{fill:#ec8a5b;}.\32 61d3b82-6a7e-4752-9698-20a0e08d05d9{fill:#fff;}</style></defs><title>Icon QR.a BARU</title><rect class="88943639-5fc1-4072-90c4-32a34438f545" x="87.8" y="74.3" width="305" height="305.01" rx="15.5" ry="15.5"/><path class="84cf4c90-3941-41a3-b516-e6f670f58563" d="M423.9,110.6a8,8,0,0,1-7.9-7.9V71.5a15.8,15.8,0,0,0-15.8-15.8h-21a8,8,0,0,1,0-15.9h21a31.7,31.7,0,0,1,31.7,31.7v31.2a8,8,0,0,1-8,7.9"/><path class="84cf4c90-3941-41a3-b516-e6f670f58563" d="M55.2,110.6a7.9,7.9,0,0,1-7.9-7.9V71.5A31.6,31.6,0,0,1,78.9,39.8h21a8,8,0,0,1,0,15.9h-21A15.8,15.8,0,0,0,63.1,71.5v31.2a7.9,7.9,0,0,1-7.9,7.9"/><path class="84cf4c90-3941-41a3-b516-e6f670f58563" d="M99.9,424.4h-21a31.6,31.6,0,0,1-31.6-31.6v-22a7.9,7.9,0,1,1,15.8,0v22a15.8,15.8,0,0,0,15.8,15.8h21a7.9,7.9,0,1,1,0,15.8"/><path class="261d3b82-6a7e-4752-9698-20a0e08d05d9" d="M351.2,111.7a6,6,0,0,1,5.9,5.9v82.6a5.9,5.9,0,0,1-5.9,6H268.4a5.9,5.9,0,0,1-5.9-6V117.6a6,6,0,0,1,5.9-5.9Zm-6.1,11.9H274.4v70.7h70.7Z"/><path class="261d3b82-6a7e-4752-9698-20a0e08d05d9" d="M213.2,111.7a5.9,5.9,0,0,1,5.9,5.9V138a6,6,0,1,1-11.9,0V123.6H136.4v70.7h70.8v-9.7a6,6,0,1,1,11.9,0v15.6a5.9,5.9,0,0,1-5.9,6H130.5a6,6,0,0,1-6-6V117.6a5.9,5.9,0,0,1,6-5.9Z"/><path class="261d3b82-6a7e-4752-9698-20a0e08d05d9" d="M213.2,249.6a6,6,0,0,1,5.9,6v82.6a5.9,5.9,0,0,1-5.9,6H130.5a6,6,0,0,1-6-6V255.6a6,6,0,0,1,6-6Zm-6,12H136.4v70.7h70.8Z"/><path class="261d3b82-6a7e-4752-9698-20a0e08d05d9" d="M351.2,249.6a6,6,0,0,1,5.9,6v82.6a5.9,5.9,0,0,1-5.9,6H268.4a5.9,5.9,0,0,1-5.9-6V255.6a6,6,0,0,1,5.9-6Zm-6.1,12H274.4v70.7h70.7Z"/><path class="261d3b82-6a7e-4752-9698-20a0e08d05d9" d="M239.8,111.7a5.9,5.9,0,0,1,6,5.9V222.7H351.1a6,6,0,1,1,0,11.9H245.8V338.2a6,6,0,0,1-6,6,6,6,0,0,1-6-6V234.6H154.2a6,6,0,1,1,0-11.9h79.6V117.6a5.9,5.9,0,0,1,6-5.9"/><path class="84cf4c90-3941-41a3-b516-e6f670f58563" d="M401.1,241.9H78c-8.9,0-16.1-6.2-16.1-13.9s7.2-14,16.1-14H401.1c8.9,0,16.1,6.3,16.1,14s-7.2,13.9-16.1,13.9"/><circle class="84cf4c90-3941-41a3-b516-e6f670f58563" cx="367.8" cy="329.6" r="145.2"/><path class="88943639-5fc1-4072-90c4-32a34438f545" d="M445.4,379.4l-51.1-49.6A71.6,71.6,0,1,0,363,361.1l51.1,49.7a22.2,22.2,0,1,0,31.3-31.4ZM292.9,334.9a53.1,53.1,0,1,1,75.2,0A53.2,53.2,0,0,1,292.9,334.9Z"/><path class="261d3b82-6a7e-4752-9698-20a0e08d05d9" d="M292.9,334.9a53.1,53.1,0,1,1,75.2,0A53.2,53.2,0,0,1,292.9,334.9Z"/></svg>