<svg width="60" height="60" viewBox="0 0 60 60" fill="none" xmlns="http://www.w3.org/2000/svg">
<g filter="url(#filter0_d_352_77)">
<rect x="8" y="4" width="44" height="44" rx="10" fill="white"/>
</g>
<path fill-rule="evenodd" clip-rule="evenodd" d="M35.4926 28.352L42.3496 35.2086C43.2173 36.0762 43.216 37.4842 42.3507 38.3494C41.4836 39.2165 40.079 39.2176 39.2097 38.3483L32.3527 31.4917C28.7192 33.7131 23.908 33.2517 20.7638 30.1076C17.0787 26.4228 17.0787 20.4485 20.7638 16.7636C24.4488 13.0788 30.4234 13.0788 34.1084 16.7636C37.2527 19.9077 37.7141 24.7187 35.4926 28.352ZM22.3337 28.5377C19.5158 25.7199 19.5158 21.1513 22.3337 18.3335C25.1517 15.5157 29.7205 15.5157 32.5385 18.3335C35.3564 21.1513 35.3564 25.7199 32.5385 28.5377C29.7205 31.3555 25.1517 31.3555 22.3337 28.5377Z" fill="#797979"/>
<path d="M31.8889 23.115C31.8889 23.7287 31.3914 24.2261 30.7778 24.2261H24.1111C23.4975 24.2261 23 23.7287 23 23.115C23 22.5014 23.4975 22.0039 24.1111 22.0039H30.7778C31.3914 22.0039 31.8889 22.5014 31.8889 23.115Z" fill="#797979"/>
<path d="M27.4441 18.6668C28.0578 18.6668 28.5552 19.1642 28.5552 19.7779L28.5552 26.4446C28.5552 27.0582 28.0578 27.5557 27.4441 27.5557C26.8305 27.5557 26.333 27.0582 26.333 26.4446L26.333 19.7779C26.333 19.1642 26.8305 18.6668 27.4441 18.6668Z" fill="#797979"/>
<defs>
<filter id="filter0_d_352_77" x="0" y="0" width="60" height="60" filterUnits="userSpaceOnUse" color-interpolation-filters="sRGB">
<feFlood flood-opacity="0" result="BackgroundImageFix"/>
<feColorMatrix in="SourceAlpha" type="matrix" values="0 0 0 0 0 0 0 0 0 0 0 0 0 0 0 0 0 0 127 0" result="hardAlpha"/>
<feOffset dy="4"/>
<feGaussianBlur stdDeviation="4"/>
<feComposite in2="hardAlpha" operator="out"/>
<feColorMatrix type="matrix" values="0 0 0 0 0.633494 0 0 0 0 0.633494 0 0 0 0 0.633494 0 0 0 0.25 0"/>
<feBlend mode="normal" in2="BackgroundImageFix" result="effect1_dropShadow_352_77"/>
<feBlend mode="normal" in="SourceGraphic" in2="effect1_dropShadow_352_77" result="shape"/>
</filter>
</defs>
</svg>
