<svg width="60" height="60" viewBox="0 0 60 60" fill="none" xmlns="http://www.w3.org/2000/svg">
<g filter="url(#filter0_d_354_80)">
<rect x="8" y="4" width="44" height="44" rx="10" fill="white"/>
</g>
<path fill-rule="evenodd" clip-rule="evenodd" d="M34.4926 28.3481L41.3496 35.2047C42.2173 36.0723 42.216 37.4803 41.3507 38.3455C40.4836 39.2126 39.079 39.2137 38.2097 38.3444L31.3527 31.4878C27.7192 33.7092 22.908 33.2478 19.7638 30.1037C16.0787 26.4188 16.0787 20.4446 19.7638 16.7597C23.4488 13.0749 29.4234 13.0749 33.1084 16.7597C36.2527 19.9038 36.7141 24.7148 34.4926 28.3481ZM21.3337 28.5338C18.5158 25.716 18.5158 21.1474 21.3337 18.3296C24.1517 15.5118 28.7205 15.5118 31.5385 18.3296C34.3564 21.1474 34.3564 25.716 31.5385 28.5338C28.7205 31.3516 24.1517 31.3516 21.3337 28.5338ZM29.7778 24.5517C30.3914 24.5517 30.8889 24.0542 30.8889 23.4405C30.8889 22.8269 30.3914 22.3294 29.7778 22.3294H23.1111C22.4975 22.3294 22 22.8269 22 23.4405C22 24.0542 22.4975 24.5517 23.1111 24.5517H29.7778Z" fill="#797979"/>
<defs>
<filter id="filter0_d_354_80" x="0" y="0" width="60" height="60" filterUnits="userSpaceOnUse" color-interpolation-filters="sRGB">
<feFlood flood-opacity="0" result="BackgroundImageFix"/>
<feColorMatrix in="SourceAlpha" type="matrix" values="0 0 0 0 0 0 0 0 0 0 0 0 0 0 0 0 0 0 127 0" result="hardAlpha"/>
<feOffset dy="4"/>
<feGaussianBlur stdDeviation="4"/>
<feComposite in2="hardAlpha" operator="out"/>
<feColorMatrix type="matrix" values="0 0 0 0 0.633494 0 0 0 0 0.633494 0 0 0 0 0.633494 0 0 0 0.25 0"/>
<feBlend mode="normal" in2="BackgroundImageFix" result="effect1_dropShadow_354_80"/>
<feBlend mode="normal" in="SourceGraphic" in2="effect1_dropShadow_354_80" result="shape"/>
</filter>
</defs>
</svg>
