<svg width="49" height="50" viewBox="0 0 49 50" fill="none" xmlns="http://www.w3.org/2000/svg">
<g filter="url(#filter0_d_2_6835)">
<rect x="14.7273" y="9.58185" width="16" height="16.426" fill="#9E9FA3"/>
<path d="M25 5.00002C28.9782 5.00002 32.7936 6.58037 35.6066 9.39341C38.4196 12.2065 40 16.0218 40 20C40 23.9783 38.4196 27.7936 35.6066 30.6066C32.7936 33.4197 28.9782 35 25 35C21.0218 35 17.2064 33.4197 14.3934 30.6066C11.5804 27.7936 10 23.9783 10 20C10 16.0218 11.5804 12.2065 14.3934 9.39341C17.2064 6.58037 21.0218 5.00002 25 5.00002ZM25 18.1807L21.5157 14.6964C21.2745 14.4552 20.9473 14.3197 20.6061 14.3197C20.2649 14.3197 19.9377 14.4552 19.6964 14.6964C19.4552 14.9377 19.3196 15.2649 19.3196 15.6061C19.3196 15.9473 19.4552 16.2745 19.6964 16.5157L23.1807 20L19.6964 23.4843C19.577 23.6038 19.4822 23.7456 19.4176 23.9016C19.3529 24.0577 19.3196 24.225 19.3196 24.3939C19.3196 24.5629 19.3529 24.7302 19.4176 24.8862C19.4822 25.0423 19.577 25.1841 19.6964 25.3036C19.8159 25.423 19.9577 25.5178 20.1138 25.5824C20.2699 25.6471 20.4371 25.6804 20.6061 25.6804C20.775 25.6804 20.9423 25.6471 21.0984 25.5824C21.2544 25.5178 21.3963 25.423 21.5157 25.3036L25 21.8193L28.4843 25.3036C28.6037 25.423 28.7456 25.5178 28.9016 25.5824C29.0577 25.6471 29.225 25.6804 29.3939 25.6804C29.5629 25.6804 29.7301 25.6471 29.8862 25.5824C30.0423 25.5178 30.1841 25.423 30.3036 25.3036C30.423 25.1841 30.5178 25.0423 30.5824 24.8862C30.6471 24.7302 30.6804 24.5629 30.6804 24.3939C30.6804 24.225 30.6471 24.0577 30.5824 23.9016C30.5178 23.7456 30.423 23.6038 30.3036 23.4843L26.8193 20L30.3036 16.5157C30.423 16.3963 30.5178 16.2545 30.5824 16.0984C30.6471 15.9423 30.6804 15.775 30.6804 15.6061C30.6804 15.4372 30.6471 15.2699 30.5824 15.1138C30.5178 14.9577 30.423 14.8159 30.3036 14.6964C30.1841 14.577 30.0423 14.4822 29.8862 14.4176C29.7301 14.3529 29.5629 14.3197 29.3939 14.3197C29.225 14.3197 29.0577 14.3529 28.9016 14.4176C28.7456 14.4822 28.6037 14.577 28.4843 14.6964L25 18.1807Z" fill="white"/>
</g>
<defs>
<filter id="filter0_d_2_6835" x="0" y="1.52588e-05" width="50" height="50" filterUnits="userSpaceOnUse" color-interpolation-filters="sRGB">
<feFlood flood-opacity="0" result="BackgroundImageFix"/>
<feColorMatrix in="SourceAlpha" type="matrix" values="0 0 0 0 0 0 0 0 0 0 0 0 0 0 0 0 0 0 127 0" result="hardAlpha"/>
<feOffset dy="5"/>
<feGaussianBlur stdDeviation="5"/>
<feComposite in2="hardAlpha" operator="out"/>
<feColorMatrix type="matrix" values="0 0 0 0 0 0 0 0 0 0 0 0 0 0 0 0 0 0 0.1 0"/>
<feBlend mode="normal" in2="BackgroundImageFix" result="effect1_dropShadow_2_6835"/>
<feBlend mode="normal" in="SourceGraphic" in2="effect1_dropShadow_2_6835" result="shape"/>
</filter>
</defs>
</svg>
