<svg width="14" height="14" viewBox="0 0 14 14" fill="none" xmlns="http://www.w3.org/2000/svg">
<path d="M13.285 0.718876C12.9517 0.378209 12.4583 0.252209 11.9983 0.385543L1.27165 3.48488C0.786321 3.61954 0.442321 4.00421 0.349654 4.49221C0.254987 4.98954 0.585654 5.62154 1.01765 5.88554L4.37165 7.93355C4.71565 8.14421 5.15965 8.09155 5.44432 7.80621L9.28499 3.96554C9.47832 3.76488 9.79832 3.76488 9.99166 3.96554C10.185 4.15821 10.185 4.47221 9.99166 4.67221L6.14432 8.51288C5.85899 8.79821 5.80566 9.24088 6.01566 9.58555L8.06499 12.9522C8.30499 13.3515 8.71832 13.5789 9.17166 13.5789C9.22499 13.5789 9.28499 13.5789 9.33832 13.5715C9.85832 13.5055 10.2717 13.1515 10.425 12.6515L13.605 2.00554C13.745 1.55221 13.6183 1.05888 13.285 0.718876Z" fill="#FA9D1C"/>
</svg>
