<svg width="14" height="14" viewBox="0 0 14 14" fill="none" xmlns="http://www.w3.org/2000/svg">
<path d="M10.9457 8.54675C10.773 8.71408 10.6937 8.95608 10.733 9.19341L11.3257 12.4734C11.3757 12.7514 11.2584 13.0327 11.0257 13.1934C10.7977 13.3601 10.4944 13.3801 10.2457 13.2467L7.29305 11.7067C7.19038 11.6521 7.07638 11.6227 6.95971 11.6194H6.77905C6.71638 11.6287 6.65505 11.6487 6.59905 11.6794L3.64571 13.2267C3.49971 13.3001 3.33438 13.3261 3.17238 13.3001C2.77771 13.2254 2.51438 12.8494 2.57905 12.4527L3.17238 9.17275C3.21171 8.93341 3.13238 8.69008 2.95971 8.52008L0.55238 6.18675C0.351047 5.99141 0.281047 5.69808 0.373047 5.43341C0.46238 5.16941 0.69038 4.97675 0.965714 4.93341L4.27905 4.45275C4.53105 4.42675 4.75238 4.27341 4.86571 4.04675L6.32571 1.05341C6.36038 0.986748 6.40505 0.925415 6.45905 0.873415L6.51905 0.826748C6.55038 0.792081 6.58638 0.763415 6.62638 0.740081L6.69905 0.713415L6.81238 0.666748H7.09305C7.34371 0.692748 7.56438 0.842748 7.67971 1.06675L9.15905 4.04675C9.26571 4.26475 9.47305 4.41608 9.71238 4.45275L13.0257 4.93341C13.3057 4.97341 13.5397 5.16675 13.6324 5.43341C13.7197 5.70075 13.6444 5.99408 13.439 6.18675L10.9457 8.54675Z" fill="#FA9D1C"/>
</svg>
