<svg width="511.976" height="511.976" xmlns="http://www.w3.org/2000/svg">

 <g>
  <title>background</title>
  <rect fill="none" id="canvas_background" height="492.1" width="492.1" y="-1" x="-1"/>
 </g>
 <g>
  <title>Layer 1</title>
  <g id="svg_1">
   <g id="svg_2">
    <path fill="#ffffff" id="svg_3" d="m208,381.988c-26.464,0 -48,21.536 -48,48s21.536,48 48,48s48,-21.536 48,-48s-21.536,-48 -48,-48zm0,64c-8.832,0 -16,-7.168 -16,-16c0,-8.832 7.168,-16 16,-16c8.832,0 16,7.168 16,16c0,8.832 -7.168,16 -16,16z"/>
   </g>
  </g>
  <g id="svg_4">
   <g id="svg_5">
    <path fill="#ffffff" id="svg_6" d="m400,381.988c-26.464,0 -48,21.536 -48,48s21.536,48 48,48s48,-21.536 48,-48s-21.536,-48 -48,-48zm0,64c-8.832,0 -16,-7.168 -16,-16c0,-8.832 7.168,-16 16,-16c8.832,0 16,7.168 16,16c0,8.832 -7.168,16 -16,16z"/>
   </g>
  </g>
  <g stroke="null" id="svg_7">
   <g stroke="null" id="svg_8">
    <path fill="#ffffff" stroke="null" id="svg_9" d="m481.662925,109.604363c-2.678985,-3.326727 -6.697462,-5.252727 -10.915438,-5.252727l-334.930095,0l-12.397429,-47.537182c-1.652991,-6.390818 -7.295958,-10.826454 -13.765422,-10.826454l-66.404622,0c-7.865955,0 -14.249919,6.536727 -14.249919,14.590909c0,8.054182 6.383964,14.590909 14.249919,14.590909l55.460685,0l73.273083,280.991726c1.652991,6.390818 7.295958,10.826454 13.765422,10.826454l227.998703,0c7.865955,0 14.249919,-6.536727 14.249919,-14.590909c0,-8.054182 -6.383964,-14.590909 -14.249919,-14.590909l-217.054765,0l-8.350452,-32.041636l254.532052,-11.731091c6.640462,-0.321 12.197931,-5.281909 13.366424,-11.964545l28.499838,-160.499999c0.769496,-4.260545 -0.370498,-8.637818 -3.077982,-11.964545zm-51.385208,155.801726l-249.487581,11.497636l-37.363287,-143.370272l310.249235,0l-23.398367,131.872636z"/>
   </g>
  </g>
  <g id="svg_13"/>
  <g id="svg_14"/>
  <g id="svg_15"/>
  <g id="svg_16"/>
  <g id="svg_17"/>
  <g id="svg_18"/>
  <g id="svg_19"/>
  <g id="svg_20"/>
  <g id="svg_21"/>
  <g id="svg_22"/>
  <g id="svg_23"/>
  <g id="svg_24"/>
  <g id="svg_25"/>
  <g id="svg_26"/>
  <g id="svg_27"/>
  <line stroke-linecap="undefined" stroke-linejoin="undefined" id="svg_28" y2="194.4255" x2="362.488007" y1="180.4255" x1="189.488007" stroke-width="1.5" stroke="#ffffff" fill="none"/>
  <path stroke="#ffffff" id="svg_31" d="m191.490583,190.576385l227.99998,0l0,21.000006l-227.99998,0l0,-21.000006z" stroke-width="1.5" fill="#ffffff"/>
  <path stroke="#ffffff" id="svg_32" d="m228.49056,222.576385l159.00001,0l0,21.000006l-159.00001,0l0,-21.000006z" stroke-width="1.5" fill="#ffffff"/>
 </g>
</svg>