<svg width="682.66669" height="682" xmlns="http://www.w3.org/2000/svg">

 <g>
  <title>background</title>
  <rect fill="none" id="canvas_background" height="402" width="582" y="-1" x="-1"/>
 </g>
 <g>
  <title>Layer 1</title>
  <path fill="#ffffff" id="svg_1" d="m96.28906,90.60547l0,173.5625c0,6.93359 5.6211,12.55078 12.55078,12.55078l173.56641,0c6.92969,0 12.55078,-5.61719 12.55078,-12.55078l0,-32.91016c0,-6.93359 -5.62109,-12.55078 -12.55078,-12.55078s-12.54687,5.61719 -12.54687,12.55078l0,20.36328l-148.46875,0l0,-148.46875l148.46875,0l0,30.21485c0,6.93359 5.61718,12.55468 12.54687,12.55468s12.55078,-5.62109 12.55078,-12.55468l0,-42.76172c0,-6.9336 -5.62109,-12.55078 -12.55078,-12.55078l-173.56641,0c-6.92968,0 -12.55078,5.61718 -12.55078,12.55078zm0,0"/>
  <path fill="#ffffff" id="svg_2" d="m169.58984,138.80469c-6.93359,0 -12.54687,5.61719 -12.54687,12.54687l0,52.07032c0,6.92968 5.61328,12.55078 12.54687,12.55078l52.07032,0c6.92968,0 12.55078,-5.6211 12.55078,-12.55078l0,-52.07032c0,-6.92968 -5.6211,-12.54687 -12.55078,-12.54687l-52.07032,0zm39.52344,52.07031l-26.97265,0l0,-26.97266l26.97265,0l0,26.97266zm0,0"/>
  <path fill="#ffffff" id="svg_3" d="m282.40625,366.34375l-173.56641,0c-6.92968,0 -12.55078,5.61719 -12.55078,12.54688l0,173.57031c0,6.92968 5.6211,12.54687 12.55078,12.54687l173.56641,0c6.92969,0 12.55078,-5.61718 12.55078,-12.54687l0,-173.57032c0,-6.92968 -5.62109,-12.54687 -12.55078,-12.54687zm-12.54687,173.56641l-148.46875,0l0,-148.46875l148.46875,0l0,148.46875zm0,0"/>
  <path fill="#ffffff" id="svg_4" d="m398,276.71875l173.57031,0c6.92578,0 12.54688,-5.61719 12.54688,-12.55078l0,-173.5625c0,-6.9336 -5.6211,-12.55078 -12.54688,-12.55078l-173.57031,0c-6.92969,0 -12.55078,5.61718 -12.55078,12.55078l0,173.5625c0,6.93359 5.62109,12.55078 12.55078,12.55078zm12.54688,-173.56641l148.46875,0l0,148.46875l-148.46875,0l0,-148.46875zm0,0"/>
  <path fill="#ffffff" id="svg_5" d="m584.11719,552.46094l0,-173.57031c0,-6.92969 -5.6211,-12.54688 -12.54688,-12.54688l-173.57031,0c-6.92969,0 -12.55078,5.61719 -12.55078,12.54688l0,173.57031c0,6.92969 5.62109,12.54687 12.55078,12.54687l173.57031,0c6.92578,0 12.54688,-5.61718 12.54688,-12.54687zm-25.10156,-12.55078l-148.46875,0l0,-148.46875l148.46875,0l0,148.46875zm0,0"/>
  <path fill="#ffffff" id="svg_6" d="m571.57031,334.83984c6.92578,0 12.54688,-5.62109 12.54688,-12.55078c0,-6.93359 -5.6211,-12.54687 -12.54688,-12.54687l-220.03125,0l0,-220.52735c0,-6.92968 -5.62109,-12.55078 -12.54687,-12.55078c-6.9375,0 -12.55469,5.6211 -12.55469,12.55078l0,220.52735l-166.57031,0c-6.92578,0 -12.54688,5.61719 -12.54688,12.54687c0,6.9336 5.6211,12.55078 12.54688,12.55078l166.57031,0l0,217.6211c0,6.92969 5.61719,12.54687 12.55469,12.54687c6.92578,0 12.54687,-5.61718 12.54687,-12.54687l0,-217.6211l220.03125,0zm0,0"/>
  <path fill="#ffffff" id="svg_7" d="m169.58984,505.19531l52.07032,0c6.92968,0 12.55078,-5.62109 12.55078,-12.55078l0,-52.07031c0,-6.93359 -5.6211,-12.54688 -12.55078,-12.54688l-52.07032,0c-6.93359,0 -12.54687,5.61329 -12.54687,12.54688l0,52.07031c0,6.92969 5.61328,12.55078 12.54687,12.55078zm12.55079,-52.07031l26.97265,0l0,26.97266l-26.97265,0l0,-26.97266zm0,0"/>
  <path fill="#ffffff" id="svg_8" d="m510.81641,138.80469l-52.07032,0c-6.92968,0 -12.55078,5.61719 -12.55078,12.54687l0,52.07032c0,6.92968 5.6211,12.55078 12.55078,12.55078l52.07032,0c6.93359,0 12.55078,-5.6211 12.55078,-12.55078l0,-52.07032c0,-6.92968 -5.61719,-12.54687 -12.55078,-12.54687zm-12.55078,52.07031l-26.96485,0l0,-26.97266l26.96485,0l0,26.97266zm0,0"/>
  <path fill="#ffffff" id="svg_9" d="m458.74609,505.19531l52.07032,0c6.93359,0 12.55078,-5.62109 12.55078,-12.55078l0,-52.07031c0,-6.93359 -5.61719,-12.54688 -12.55078,-12.54688l-52.07032,0c-6.92968,0 -12.55078,5.61329 -12.55078,12.54688l0,52.07031c0,6.92969 5.6211,12.55078 12.55078,12.55078zm12.55469,-52.07031l26.96485,0l0,26.97266l-26.96485,0l0,-26.97266zm0,0"/>
  <path fill="#ffffff" id="svg_10" d="m106.30078,309.79297l-0.67578,0.15625c-6.74609,1.59375 -10.92578,8.35156 -9.33594,15.09766c1.36328,5.77734 6.51563,9.67578 12.20313,9.67578c0.95703,0 1.92187,-0.11328 2.89062,-0.34375l0.67188,-0.15625c6.75,-1.58985 10.92969,-8.34766 9.33594,-15.09375c-1.58594,-6.74219 -8.34375,-10.92188 -15.08985,-9.33594zm0,0"/>
  <path fill="#ffffff" id="svg_11" d="m279.87891,169.78906l-0.67578,0.16016c-6.7461,1.58203 -10.92969,8.33594 -9.34766,15.08594c1.35156,5.78515 6.50781,9.6875 12.20703,9.6875c0.94531,0 1.90625,-0.10938 2.875,-0.33985l0.67188,-0.15625c6.75,-1.58203 10.93359,-8.33984 9.35156,-15.08203c-1.58203,-6.74609 -8.33985,-10.9375 -15.08203,-9.35547zm0,0"/>
 </g>
</svg>