<svg width="35" height="29" viewBox="0 0 35 29" fill="none" xmlns="http://www.w3.org/2000/svg">
<circle cx="8.14648" cy="23.4499" r="1.53096" transform="rotate(168.645 8.14648 23.4499)" stroke="#86D1F0" stroke-width="0.222849"/>
<path d="M8.76624 8.93793C8.76624 8.93793 6.81934 9.31687 6.44049 11.2637C6.44049 11.2637 6.06165 9.31678 4.11475 8.93793C6.06155 8.55908 6.44049 6.61218 6.44049 6.61218C6.81934 8.55908 8.76624 8.93793 8.76624 8.93793ZM9.25503 7.62604C9.25503 7.62604 9.16649 8.08095 8.7116 8.16947C9.16651 8.258 9.25503 8.7129 9.25503 8.7129C9.34357 8.25799 9.79846 8.16947 9.79846 8.16947C9.79846 8.16947 9.34355 8.08093 9.25503 7.62604ZM8.40823 10.1249C8.40823 10.1249 8.24181 10.9802 7.38638 11.1467C8.24181 11.3131 8.40823 12.1685 8.40823 12.1685C8.57474 11.3131 9.43008 11.1466 9.43008 11.1466C9.43008 11.1466 8.57474 10.9802 8.40823 10.1249ZM11.5217 9.53057L11.2907 8.70867L11.0597 9.53057L10.2378 9.76156L11.0597 9.99254L11.2907 10.8144L11.5217 9.99254L12.3436 9.76156L11.5217 9.53057Z" fill="#86D1F0"/>
<path d="M1.66842 16.0728C1.66734 16.0736 1.66617 16.0741 1.66489 16.0743C1.66352 16.0745 1.66215 16.0747 1.66059 16.0747C1.65637 16.0747 1.65295 16.0736 1.6504 16.0712C1.64776 16.0689 1.64648 16.0656 1.64648 16.0614C1.64648 16.0575 1.64776 16.0544 1.6504 16.052C1.65295 16.0495 1.65637 16.0481 1.66059 16.0481C1.66215 16.0481 1.66352 16.0484 1.66489 16.0489C1.66617 16.0492 1.66734 16.0496 1.66842 16.0501V16.0555C1.66734 16.0546 1.66617 16.0539 1.66489 16.0536C1.66352 16.0531 1.66225 16.0528 1.66098 16.0528C1.65863 16.0528 1.65677 16.0536 1.65549 16.0551C1.65412 16.0567 1.65353 16.0589 1.65353 16.0614C1.65353 16.0641 1.65412 16.0661 1.65549 16.0677C1.65677 16.0692 1.65863 16.07 1.66098 16.07C1.66225 16.07 1.66352 16.0699 1.66489 16.0696C1.66617 16.0691 1.66734 16.0685 1.66842 16.0677V16.0728Z" fill="#86D1F0"/>
<path d="M1.68362 16.0593C1.68305 16.0591 1.68257 16.0589 1.6821 16.0589C1.68153 16.0587 1.68105 16.0585 1.68058 16.0585C1.67905 16.0585 1.67772 16.0591 1.67677 16.06C1.67601 16.0611 1.67563 16.0625 1.67563 16.0642V16.073H1.66992V16.0543H1.67563V16.0574C1.67639 16.0561 1.67725 16.0553 1.67829 16.0547C1.67924 16.0542 1.68058 16.054 1.6821 16.054H1.68248H1.68362L1.68362 16.0593Z" fill="#86D1F0"/>
<path d="M1.70913 16.0635V16.0654H1.69505C1.69505 16.0667 1.69543 16.0677 1.69619 16.0684C1.69715 16.0692 1.69848 16.0696 1.7 16.0696C1.70124 16.0696 1.70247 16.0695 1.7038 16.0692C1.70533 16.0687 1.70666 16.068 1.70799 16.0673V16.0718C1.70666 16.0724 1.70533 16.0728 1.7038 16.073C1.70247 16.0732 1.70114 16.0734 1.69962 16.0734C1.69629 16.0734 1.69363 16.0726 1.69163 16.0711C1.68982 16.0694 1.68896 16.0668 1.68896 16.0635C1.68896 16.0604 1.68982 16.0581 1.69163 16.0566C1.69334 16.0549 1.69591 16.054 1.69924 16.054C1.70228 16.054 1.70466 16.0549 1.70647 16.0566C1.70818 16.0584 1.70913 16.0607 1.70913 16.0635H1.70913ZM1.70304 16.0616C1.70304 16.0606 1.70266 16.0597 1.7019 16.0589C1.70114 16.0581 1.70019 16.0578 1.69924 16.0578C1.69791 16.0578 1.69696 16.0581 1.69619 16.0589C1.69562 16.0595 1.69524 16.0603 1.69505 16.0616H1.70304Z" fill="#86D1F0"/>
<path d="M1.71741 16.0646C1.71608 16.0646 1.71513 16.0649 1.71437 16.0654C1.7138 16.0657 1.71361 16.0661 1.71361 16.0669C1.71361 16.0677 1.7138 16.0683 1.71437 16.0688C1.71484 16.0694 1.71551 16.0696 1.71627 16.0696C1.71751 16.0696 1.71855 16.0692 1.71931 16.0684C1.72008 16.0675 1.72046 16.0664 1.72046 16.0654V16.0646H1.71741ZM1.72654 16.0623V16.073H1.72046V16.0703C1.7197 16.0714 1.71874 16.0721 1.71779 16.0726C1.71675 16.0731 1.71551 16.0734 1.71399 16.0734C1.7119 16.0734 1.71028 16.0729 1.70904 16.0718C1.708 16.0706 1.70752 16.0691 1.70752 16.0673C1.70752 16.0653 1.70828 16.0638 1.7098 16.0627C1.71132 16.0615 1.7137 16.0608 1.71703 16.0608H1.72046V16.0604C1.72046 16.0597 1.72008 16.0591 1.71931 16.0585C1.71855 16.058 1.71741 16.0578 1.71589 16.0578C1.71456 16.0578 1.71332 16.058 1.71209 16.0581C1.71104 16.0584 1.70999 16.0588 1.70904 16.0593V16.0547C1.71028 16.0545 1.71151 16.0543 1.71285 16.0543C1.71408 16.0541 1.71551 16.054 1.71703 16.054C1.72027 16.054 1.72274 16.0546 1.72426 16.0559C1.72578 16.0572 1.72654 16.0593 1.72654 16.0623L1.72654 16.0623Z" fill="#86D1F0"/>
<path d="M1.73765 16.0493V16.0546H1.74374V16.0588H1.73765V16.0668C1.73765 16.0676 1.73774 16.0682 1.73803 16.0687C1.73822 16.069 1.73898 16.0691 1.74031 16.0691H1.74335V16.0733H1.73803C1.73574 16.0733 1.73403 16.0728 1.73308 16.0718C1.73204 16.0708 1.73156 16.0691 1.73156 16.0668V16.0588H1.72852V16.0546H1.73156V16.0493L1.73765 16.0493Z" fill="#86D1F0"/>
<path d="M1.76821 16.0635V16.0654H1.75413C1.75413 16.0667 1.75452 16.0677 1.75528 16.0684C1.75623 16.0692 1.75756 16.0696 1.75908 16.0696C1.76032 16.0696 1.76155 16.0695 1.76289 16.0692C1.76441 16.0687 1.76574 16.068 1.76707 16.0673V16.0718C1.76574 16.0724 1.76441 16.0728 1.76289 16.073C1.76155 16.0732 1.76022 16.0734 1.7587 16.0734C1.75537 16.0734 1.75271 16.0726 1.75071 16.0711C1.7489 16.0694 1.74805 16.0668 1.74805 16.0635C1.74805 16.0604 1.7489 16.0581 1.75071 16.0566C1.75242 16.0549 1.75499 16.054 1.75832 16.054C1.76136 16.054 1.76374 16.0549 1.76555 16.0566C1.76726 16.0584 1.76821 16.0607 1.76821 16.0635H1.76821ZM1.76213 16.0616C1.76213 16.0606 1.76174 16.0597 1.76098 16.0589C1.76022 16.0581 1.75927 16.0578 1.75832 16.0578C1.75699 16.0578 1.75604 16.0581 1.75528 16.0589C1.75471 16.0595 1.75432 16.0603 1.75413 16.0616H1.76213Z" fill="#86D1F0"/>
<path d="M1.78695 16.0579V16.0477H1.79322V16.0744H1.78695V16.0716C1.78617 16.0727 1.78519 16.0735 1.78421 16.074C1.78313 16.0745 1.78196 16.0748 1.78069 16.0748C1.77834 16.0748 1.77638 16.0739 1.77481 16.072C1.77324 16.0703 1.77246 16.0677 1.77246 16.0646C1.77246 16.0617 1.77324 16.0594 1.77481 16.0575C1.77638 16.0558 1.77834 16.0548 1.78069 16.0548C1.78196 16.0548 1.78313 16.0551 1.78421 16.0556C1.78519 16.0562 1.78617 16.0569 1.78695 16.0579V16.0579ZM1.78304 16.0704C1.78431 16.0704 1.78519 16.07 1.78578 16.0689C1.78656 16.0679 1.78695 16.0664 1.78695 16.0646C1.78695 16.0628 1.78656 16.0614 1.78578 16.0607C1.78519 16.0597 1.78431 16.0591 1.78304 16.0591C1.78167 16.0591 1.78069 16.0597 1.7799 16.0607C1.77912 16.0614 1.77873 16.0628 1.77873 16.0646C1.77873 16.0664 1.77912 16.0679 1.7799 16.0689C1.78069 16.07 1.78167 16.0704 1.78304 16.0704Z" fill="#86D1F0"/>
<path d="M1.81487 16.0704C1.81614 16.0704 1.81703 16.07 1.81761 16.0689C1.8184 16.0679 1.81879 16.0664 1.81879 16.0646C1.81879 16.0628 1.8184 16.0614 1.81761 16.0607C1.81703 16.0597 1.81614 16.0591 1.81487 16.0591C1.8135 16.0591 1.81252 16.0597 1.81174 16.0607C1.81095 16.0614 1.81056 16.0628 1.81056 16.0646C1.81056 16.0664 1.81095 16.0679 1.81174 16.0689C1.81252 16.07 1.8135 16.0704 1.81487 16.0704ZM1.81056 16.0579C1.81154 16.0569 1.81252 16.0562 1.8133 16.0556C1.81428 16.0551 1.81565 16.0548 1.81722 16.0548C1.81957 16.0548 1.82133 16.0558 1.82271 16.0575C1.82427 16.0594 1.82506 16.0617 1.82506 16.0646C1.82506 16.0677 1.82427 16.0703 1.82271 16.072C1.82133 16.0739 1.81957 16.0748 1.81722 16.0748C1.81565 16.0748 1.81428 16.0745 1.8133 16.074C1.81252 16.0735 1.81154 16.0727 1.81056 16.0716V16.0744H1.80469V16.0477H1.81056V16.0579Z" fill="#86D1F0"/>
<path d="M1.8291 16.0543H1.83537L1.84046 16.0672L1.84477 16.0543H1.85104L1.84281 16.0755C1.84203 16.0775 1.84105 16.079 1.84007 16.0798C1.83899 16.0806 1.83752 16.081 1.83576 16.081H1.83224V16.077H1.83419C1.83517 16.077 1.83596 16.0768 1.83654 16.0766C1.83703 16.0764 1.83742 16.0757 1.83772 16.0747V16.0743L1.8291 16.0543Z" fill="#86D1F0"/>
<path d="M1.87073 16.0595C1.8723 16.0595 1.87327 16.0594 1.87386 16.0591C1.87435 16.0586 1.87465 16.0577 1.87465 16.0563C1.87465 16.0553 1.87435 16.0546 1.87386 16.054C1.87327 16.0535 1.8723 16.0532 1.87073 16.0532H1.86799V16.0595L1.87073 16.0595ZM1.86799 16.0642V16.0739H1.86133V16.0481H1.87151C1.87484 16.0481 1.87739 16.0488 1.87895 16.0501C1.88052 16.0511 1.8813 16.0528 1.8813 16.0551C1.8813 16.057 1.88091 16.0585 1.88013 16.0595C1.87935 16.0605 1.87817 16.0613 1.8766 16.0618C1.87739 16.0621 1.87817 16.0626 1.87895 16.0634C1.87974 16.0642 1.88033 16.0652 1.88091 16.0665L1.88483 16.0739H1.87739L1.87425 16.0677C1.87367 16.0664 1.87308 16.0655 1.8723 16.0649C1.87171 16.0644 1.87092 16.0642 1.86995 16.0642L1.86799 16.0642Z" fill="#86D1F0"/>
<path d="M1.88818 16.0552H1.89406V16.0744H1.88818V16.0552ZM1.88818 16.0477H1.89406V16.0524H1.88818V16.0477Z" fill="#86D1F0"/>
<path d="M1.91137 16.0477V16.0516H1.90784C1.90706 16.0516 1.90637 16.0518 1.90588 16.052C1.90559 16.0523 1.90549 16.0528 1.90549 16.0536V16.0552H1.91098V16.0595H1.90549V16.0744H1.89962V16.0595H1.89648V16.0552H1.89962V16.0536C1.89962 16.0515 1.90011 16.0501 1.90118 16.0493C1.90246 16.0483 1.90432 16.0477 1.90667 16.0477L1.91137 16.0477Z" fill="#86D1F0"/>
<path d="M1.92298 16.0646C1.92165 16.0646 1.9207 16.0649 1.91993 16.0654C1.91936 16.0657 1.91917 16.0661 1.91917 16.0669C1.91917 16.0677 1.91936 16.0683 1.91993 16.0688C1.92041 16.0694 1.92108 16.0696 1.92184 16.0696C1.92307 16.0696 1.92412 16.0692 1.92488 16.0684C1.92564 16.0675 1.92602 16.0664 1.92602 16.0654V16.0646H1.92298ZM1.93211 16.0623V16.073H1.92602V16.0703C1.92526 16.0714 1.92431 16.0721 1.92336 16.0726C1.92231 16.0731 1.92108 16.0734 1.91955 16.0734C1.91746 16.0734 1.91584 16.0729 1.91461 16.0718C1.91356 16.0706 1.91309 16.0691 1.91309 16.0673C1.91309 16.0653 1.91385 16.0638 1.91537 16.0627C1.91689 16.0615 1.91927 16.0608 1.9226 16.0608H1.92602V16.0604C1.92602 16.0597 1.92564 16.0591 1.92488 16.0585C1.92412 16.058 1.92298 16.0578 1.92146 16.0578C1.92013 16.0578 1.91889 16.058 1.91765 16.0581C1.91661 16.0584 1.91556 16.0588 1.91461 16.0593V16.0547C1.91584 16.0545 1.91708 16.0543 1.91841 16.0543C1.91965 16.0541 1.92108 16.054 1.9226 16.054C1.92583 16.054 1.92831 16.0546 1.92983 16.0559C1.93135 16.0572 1.93211 16.0593 1.93211 16.0623L1.93211 16.0623Z" fill="#86D1F0"/>
<path d="M1.93408 16.0552H1.93996V16.0744H1.93408V16.0552ZM1.93408 16.0477H1.93996V16.0524H1.93408V16.0477Z" fill="#86D1F0"/>
<path d="M1.66137 16.0804V16.0844H1.65784C1.65706 16.0844 1.65637 16.0846 1.65588 16.0848C1.65559 16.085 1.65549 16.0855 1.65549 16.0863V16.0879H1.66098V16.0922H1.65549V16.1071H1.64962V16.0922H1.64648V16.0879H1.64962V16.0863C1.64962 16.0843 1.65011 16.0828 1.65118 16.082C1.65246 16.081 1.65432 16.0804 1.65667 16.0804L1.66137 16.0804Z" fill="#86D1F0"/>
<path d="M1.67532 16.0918C1.67475 16.0916 1.67427 16.0914 1.6738 16.0914C1.67323 16.0912 1.67275 16.091 1.67228 16.091C1.67075 16.091 1.66942 16.0916 1.66847 16.0925C1.66771 16.0936 1.66733 16.095 1.66733 16.0967V16.1055H1.66162V16.0868H1.66733V16.0899C1.66809 16.0886 1.66895 16.0878 1.66999 16.0872C1.67094 16.0867 1.67228 16.0864 1.6738 16.0864H1.67418H1.67532L1.67532 16.0918Z" fill="#86D1F0"/>
<path d="M1.6885 16.0906C1.68716 16.0906 1.68621 16.0912 1.68545 16.0921C1.68469 16.0929 1.68431 16.0942 1.68431 16.0959C1.68431 16.098 1.68469 16.0996 1.68545 16.1005C1.68621 16.1013 1.68716 16.1016 1.6885 16.1016C1.68973 16.1016 1.69078 16.1013 1.69154 16.1005C1.6923 16.0996 1.69268 16.098 1.69268 16.0959C1.69268 16.0942 1.6923 16.0929 1.69154 16.0921C1.69078 16.0912 1.68973 16.0906 1.6885 16.0906ZM1.6885 16.0864C1.69173 16.0864 1.6943 16.0874 1.69611 16.0891C1.69782 16.0906 1.69877 16.0929 1.69877 16.0959C1.69877 16.0993 1.69782 16.1018 1.69611 16.1035C1.6943 16.1051 1.69173 16.1058 1.6885 16.1058C1.68517 16.1058 1.6826 16.1051 1.68089 16.1035C1.67908 16.1018 1.67822 16.0993 1.67822 16.0959C1.67822 16.0929 1.67908 16.0906 1.68089 16.0891C1.6826 16.0874 1.68517 16.0864 1.6885 16.0864Z" fill="#86D1F0"/>
<path d="M1.72052 16.0898C1.72128 16.0886 1.72213 16.0877 1.72317 16.0872C1.72411 16.0867 1.72525 16.0864 1.72657 16.0864C1.72884 16.0864 1.73045 16.0871 1.73149 16.0883C1.73272 16.0896 1.73338 16.0915 1.73338 16.094V16.1053H1.72733V16.0955V16.0944C1.72733 16.0931 1.72704 16.0923 1.72657 16.0917C1.72629 16.091 1.72563 16.0906 1.72468 16.0906C1.72364 16.0906 1.72279 16.0912 1.72203 16.0921C1.72147 16.0931 1.72128 16.0946 1.72128 16.0963V16.1053H1.71523V16.0955C1.71523 16.0935 1.71494 16.0923 1.71447 16.0917C1.71419 16.091 1.71371 16.0906 1.71296 16.0906C1.71163 16.0906 1.71069 16.0912 1.70993 16.0921C1.70936 16.0931 1.70918 16.0946 1.70918 16.0963V16.1053H1.70312V16.0868H1.70918V16.0895C1.70993 16.0885 1.71078 16.0877 1.71182 16.0872C1.71277 16.0867 1.71381 16.0864 1.71485 16.0864C1.71608 16.0864 1.71721 16.0868 1.71825 16.0876C1.7192 16.0881 1.71995 16.0889 1.72052 16.0898L1.72052 16.0898Z" fill="#86D1F0"/>
<path d="M1.7523 16.0823V16.0876H1.75838V16.0918H1.7523V16.0998C1.7523 16.1005 1.75239 16.1012 1.75268 16.1017C1.75287 16.102 1.75363 16.1021 1.75496 16.1021H1.758V16.1062H1.75268C1.75039 16.1062 1.74868 16.1058 1.74773 16.1047C1.74668 16.1038 1.74621 16.1021 1.74621 16.0998V16.0918H1.74316V16.0876H1.74621V16.0823L1.7523 16.0823Z" fill="#86D1F0"/>
<path d="M1.78335 16.0951V16.1068H1.77709V16.0978V16.0947C1.77709 16.0939 1.77689 16.0934 1.77669 16.0931C1.7764 16.0926 1.77601 16.0922 1.77552 16.092C1.77523 16.0918 1.77483 16.0916 1.77434 16.0916C1.77297 16.0916 1.77199 16.0921 1.77121 16.0931C1.77043 16.0942 1.77004 16.0957 1.77004 16.0974V16.1068H1.76416V16.0802H1.77004V16.0904C1.77101 16.0894 1.77209 16.0886 1.77317 16.088C1.77415 16.0875 1.77532 16.0873 1.77669 16.0873C1.77875 16.0873 1.78032 16.0879 1.78139 16.0892C1.78267 16.0906 1.78335 16.0925 1.78335 16.0951L1.78335 16.0951Z" fill="#86D1F0"/>
<path d="M1.80337 16.0959V16.0978H1.78929C1.78929 16.0992 1.78967 16.1001 1.79043 16.1009C1.79138 16.1016 1.79272 16.102 1.79424 16.102C1.79547 16.102 1.79671 16.1019 1.79804 16.1016C1.79956 16.1012 1.8009 16.1005 1.80223 16.0997V16.1043C1.8009 16.1049 1.79956 16.1053 1.79804 16.1055C1.79671 16.1056 1.79538 16.1058 1.79386 16.1058C1.79053 16.1058 1.78786 16.1051 1.78587 16.1035C1.78406 16.1018 1.7832 16.0993 1.7832 16.0959C1.7832 16.0929 1.78406 16.0906 1.78587 16.0891C1.78758 16.0874 1.79015 16.0864 1.79348 16.0864C1.79652 16.0864 1.7989 16.0874 1.80071 16.0891C1.80242 16.0909 1.80337 16.0932 1.80337 16.0959H1.80337ZM1.79728 16.094C1.79728 16.0931 1.7969 16.0921 1.79614 16.0914C1.79538 16.0906 1.79443 16.0902 1.79348 16.0902C1.79214 16.0902 1.79119 16.0906 1.79043 16.0914C1.78986 16.0919 1.78948 16.0928 1.78929 16.094H1.79728Z" fill="#86D1F0"/>
<path d="M1.8208 16.0811H1.82824L1.83764 16.0987V16.0811H1.84391V16.1069H1.83647L1.82707 16.0893V16.1069H1.8208V16.0811Z" fill="#86D1F0"/>
<path d="M1.85842 16.0906C1.85709 16.0906 1.85614 16.0912 1.85537 16.0921C1.85461 16.0929 1.85423 16.0942 1.85423 16.0959C1.85423 16.098 1.85461 16.0996 1.85537 16.1005C1.85614 16.1013 1.85709 16.1016 1.85842 16.1016C1.85965 16.1016 1.8607 16.1013 1.86146 16.1005C1.86222 16.0996 1.8626 16.098 1.8626 16.0959C1.8626 16.0942 1.86222 16.0929 1.86146 16.0921C1.8607 16.0912 1.85965 16.0906 1.85842 16.0906ZM1.85842 16.0864C1.86165 16.0864 1.86422 16.0874 1.86603 16.0891C1.86774 16.0906 1.86869 16.0929 1.86869 16.0959C1.86869 16.0993 1.86774 16.1018 1.86603 16.1035C1.86422 16.1051 1.86165 16.1058 1.85842 16.1058C1.85509 16.1058 1.85252 16.1051 1.85081 16.1035C1.849 16.1018 1.84814 16.0993 1.84814 16.0959C1.84814 16.0929 1.849 16.0906 1.85081 16.0891C1.85252 16.0874 1.85509 16.0864 1.85842 16.0864Z" fill="#86D1F0"/>
<path d="M1.86914 16.0987V16.0873H1.87523V16.0892V16.093V16.096V16.0995C1.87523 16.1 1.87532 16.1004 1.87561 16.1006C1.8758 16.1012 1.87608 16.1015 1.87637 16.1017H1.87789C1.87913 16.1017 1.88017 16.1014 1.88094 16.1006C1.8817 16.0996 1.88208 16.0982 1.88208 16.0964V16.0873H1.88817V16.1059H1.88208V16.1033C1.88103 16.1043 1.87998 16.1051 1.87903 16.1055C1.87799 16.106 1.87685 16.1063 1.87561 16.1063C1.87352 16.1063 1.8719 16.1057 1.87066 16.1044C1.86962 16.1032 1.86914 16.1013 1.86914 16.0987L1.86914 16.0987Z" fill="#86D1F0"/>
<path d="M1.91318 16.094V16.1055H1.90709V16.0967V16.0937C1.90709 16.0929 1.9069 16.0924 1.90671 16.0921C1.90642 16.0917 1.90604 16.0913 1.90557 16.091C1.90528 16.0908 1.9049 16.0906 1.90442 16.0906C1.90309 16.0906 1.90214 16.0912 1.90138 16.0921C1.90062 16.0932 1.90024 16.0946 1.90024 16.0963V16.1055H1.89453V16.0868H1.90024V16.0895C1.90119 16.0885 1.90224 16.0878 1.90328 16.0872C1.90423 16.0867 1.90538 16.0864 1.90671 16.0864C1.9087 16.0864 1.91023 16.0871 1.91127 16.0883C1.91251 16.0897 1.91318 16.0916 1.91318 16.094L1.91318 16.094Z" fill="#86D1F0"/>
<path d="M1.92969 16.0809H1.94065C1.94398 16.0809 1.94653 16.0817 1.9481 16.0833C1.94986 16.0848 1.95084 16.087 1.95084 16.0895C1.95084 16.0922 1.94986 16.0942 1.9481 16.0958C1.94653 16.0972 1.94398 16.0978 1.94065 16.0978H1.93635V16.1068H1.92969V16.0809ZM1.93635 16.086V16.0931H1.94026C1.94124 16.0931 1.94222 16.0929 1.943 16.0923C1.94379 16.0915 1.94418 16.0906 1.94418 16.0895C1.94418 16.0883 1.94379 16.0874 1.943 16.0868C1.94222 16.0863 1.94124 16.086 1.94026 16.086L1.93635 16.086Z" fill="#86D1F0"/>
<path d="M1.96682 16.0918C1.96625 16.0916 1.96578 16.0914 1.9653 16.0914C1.96473 16.0912 1.96425 16.091 1.96378 16.091C1.96226 16.091 1.96093 16.0916 1.95997 16.0925C1.95921 16.0936 1.95883 16.095 1.95883 16.0967V16.1055H1.95312V16.0868H1.95883V16.0899C1.95959 16.0886 1.96045 16.0878 1.9615 16.0872C1.96245 16.0867 1.96378 16.0864 1.9653 16.0864H1.96568H1.96682L1.96682 16.0918Z" fill="#86D1F0"/>
<path d="M1.97805 16.0906C1.97672 16.0906 1.97576 16.0912 1.975 16.0921C1.97424 16.0929 1.97386 16.0942 1.97386 16.0959C1.97386 16.098 1.97424 16.0996 1.975 16.1005C1.97576 16.1013 1.97672 16.1016 1.97805 16.1016C1.97928 16.1016 1.98033 16.1013 1.98109 16.1005C1.98185 16.0996 1.98223 16.098 1.98223 16.0959C1.98223 16.0942 1.98185 16.0929 1.98109 16.0921C1.98033 16.0912 1.97928 16.0906 1.97805 16.0906ZM1.97805 16.0864C1.98128 16.0864 1.98385 16.0874 1.98566 16.0891C1.98737 16.0906 1.98832 16.0929 1.98832 16.0959C1.98832 16.0993 1.98737 16.1018 1.98566 16.1035C1.98385 16.1051 1.98128 16.1058 1.97805 16.1058C1.97472 16.1058 1.97215 16.1051 1.97044 16.1035C1.96863 16.1018 1.96777 16.0993 1.96777 16.0959C1.96777 16.0929 1.96863 16.0906 1.97044 16.0891C1.97215 16.0874 1.97472 16.0864 1.97805 16.0864Z" fill="#86D1F0"/>
<path d="M1.99281 16.0871H1.99832V16.1047C1.99832 16.1071 1.99768 16.1089 1.99648 16.1102C1.99547 16.1114 1.99391 16.112 1.99171 16.112H1.98877V16.1084H1.98987C1.99079 16.1084 1.99152 16.1081 1.99208 16.1076C1.99254 16.1071 1.99281 16.1062 1.99281 16.1047L1.99281 16.0871ZM1.99281 16.0801H1.99832V16.0845H1.99281V16.0801Z" fill="#86D1F0"/>
<path d="M2.02163 16.0959V16.0978H2.00755C2.00755 16.0992 2.00793 16.1001 2.00869 16.1009C2.00965 16.1016 2.01098 16.102 2.0125 16.102C2.01374 16.102 2.01497 16.1019 2.0163 16.1016C2.01783 16.1012 2.01916 16.1005 2.02049 16.0997V16.1043C2.01916 16.1049 2.01783 16.1053 2.0163 16.1055C2.01497 16.1056 2.01364 16.1058 2.01212 16.1058C2.00879 16.1058 2.00613 16.1051 2.00413 16.1035C2.00232 16.1018 2.00146 16.0993 2.00146 16.0959C2.00146 16.0929 2.00232 16.0906 2.00413 16.0891C2.00584 16.0874 2.00841 16.0864 2.01174 16.0864C2.01478 16.0864 2.01716 16.0874 2.01897 16.0891C2.02068 16.0909 2.02163 16.0932 2.02163 16.0959H2.02163ZM2.01554 16.094C2.01554 16.0931 2.01516 16.0921 2.0144 16.0914C2.01364 16.0906 2.01269 16.0902 2.01174 16.0902C2.01041 16.0902 2.00946 16.0906 2.00869 16.0914C2.00812 16.0919 2.00774 16.0928 2.00755 16.094H2.01554Z" fill="#86D1F0"/>
<path d="M2.03687 16.0872V16.0921C2.03611 16.0917 2.03535 16.0913 2.03459 16.091C2.03383 16.0908 2.03287 16.0906 2.03192 16.0906C2.0304 16.0906 2.02907 16.0912 2.02812 16.0921C2.02707 16.0932 2.0266 16.0944 2.0266 16.0959C2.0266 16.0977 2.02707 16.0992 2.02812 16.1001C2.02907 16.1012 2.0304 16.1016 2.03192 16.1016C2.03287 16.1016 2.03383 16.1016 2.03459 16.1013C2.03554 16.1011 2.0363 16.1007 2.03687 16.1001V16.1051C2.03611 16.1054 2.03516 16.1055 2.03421 16.1055C2.03316 16.1056 2.03211 16.1058 2.03116 16.1058C2.02783 16.1058 2.02517 16.1051 2.02317 16.1035C2.02136 16.1018 2.02051 16.0993 2.02051 16.0959C2.02051 16.0929 2.02136 16.0906 2.02317 16.0891C2.02517 16.0874 2.02783 16.0864 2.03116 16.0864C2.03211 16.0864 2.03316 16.0866 2.03421 16.0868C2.03516 16.0868 2.03611 16.087 2.03687 16.0872V16.0872Z" fill="#86D1F0"/>
<path d="M2.0521 16.0823V16.0876H2.05819V16.0918H2.0521V16.0998C2.0521 16.1005 2.0522 16.1012 2.05248 16.1017C2.05267 16.102 2.05343 16.1021 2.05476 16.1021H2.05781V16.1062H2.05248C2.0502 16.1062 2.04849 16.1058 2.04753 16.1047C2.04649 16.1038 2.04601 16.1021 2.04601 16.0998V16.0918H2.04297V16.0876H2.04601V16.0823L2.0521 16.0823Z" fill="#86D1F0"/>
<circle cx="17.6524" cy="1.7494" r="1.48594" transform="rotate(168.645 17.6524 1.7494)" fill="#86D1F0"/>
<rect width="13.3646" height="14.8685" rx="1.68587" transform="matrix(0.694653 0.719345 -0.72355 0.690272 20.1133 6.54797)" fill="#FA9D1C" fill-opacity="0.1"/>
<path d="M31.6523 19.6379C31.6523 24.7213 27.506 28.8438 22.3893 28.8438C17.2727 28.8438 13.1264 24.7213 13.1264 19.6379C13.1264 14.5546 17.2727 10.4321 22.3893 10.4321C27.506 10.4321 31.6523 14.5546 31.6523 19.6379Z" fill="white" stroke="#FA9D1C" stroke-width="0.312344"/>
<path d="M20.6082 15.3506C20.4182 15.3506 20.2642 15.5041 20.2642 15.6937C20.2642 15.8832 20.4182 16.0365 20.6082 16.0365H23.7135C23.9035 16.0365 24.0574 15.8833 24.0574 15.6937C24.0574 15.5042 23.9036 15.3506 23.7135 15.3506H20.6082ZM23.6594 16.33H20.6912C20.2448 17.2806 17.8303 18.4604 17.8517 21.2464C17.8697 23.5619 19.6026 23.9437 22.1686 23.9437H22.1755H22.1826C24.7483 23.9437 26.4814 23.5619 26.4993 21.2464C26.5206 18.4603 24.1063 17.2806 23.6598 16.33H23.6594ZM22.3398 17.7763V18.0431C22.5162 18.0615 22.668 18.0977 22.7937 18.1515C22.9204 18.2063 23.0301 18.2879 23.1245 18.3982C23.1988 18.4822 23.2561 18.569 23.2967 18.6575C23.3371 18.7466 23.3574 18.8274 23.3574 18.9014C23.3574 18.9839 23.3269 19.0554 23.2671 19.1153C23.2064 19.1749 23.1338 19.2053 23.0478 19.2053C22.8858 19.2053 22.7803 19.1177 22.733 18.9435C22.6783 18.7381 22.5473 18.6011 22.3399 18.5337V19.5594C22.5441 19.6151 22.7077 19.6663 22.8285 19.7126C22.9498 19.7581 23.0588 19.8246 23.1542 19.9121C23.2562 20.0021 23.3355 20.1108 23.3912 20.2361C23.4459 20.3622 23.4739 20.4996 23.4739 20.6492C23.4739 20.8369 23.4299 21.0118 23.3415 21.1753C23.2528 21.3395 23.1229 21.4723 22.9517 21.5767C22.7796 21.68 22.5762 21.7416 22.34 21.7608V22.1258C22.34 22.2225 22.3303 22.2931 22.3113 22.3379C22.2923 22.3822 22.2513 22.4044 22.1864 22.4044C22.1275 22.4044 22.0858 22.3868 22.0616 22.3505C22.0376 22.3146 22.0263 22.258 22.0263 22.1821V21.7659C21.8338 21.7449 21.665 21.6996 21.5208 21.6305C21.3766 21.5615 21.2558 21.4756 21.1598 21.373C21.0635 21.2696 20.9917 21.1627 20.9463 21.0525C20.8998 20.9414 20.8769 20.832 20.8769 20.7249C20.8769 20.6469 20.9074 20.5752 20.9698 20.5122C21.0314 20.449 21.1082 20.4171 21.2002 20.4171C21.2743 20.4171 21.3368 20.4339 21.3884 20.4683C21.4388 20.5029 21.4744 20.5517 21.4946 20.614C21.5384 20.7486 21.5773 20.852 21.6102 20.9236C21.644 20.9952 21.6936 21.0608 21.7604 21.1197C21.827 21.1787 21.9156 21.2241 22.0263 21.2552V20.109C21.805 20.0475 21.6212 19.9802 21.4726 19.9053C21.3242 19.8304 21.2036 19.7243 21.1116 19.5864C21.0197 19.4484 20.9732 19.2708 20.9732 19.0536C20.9732 18.7709 21.0634 18.5386 21.244 18.3586C21.4246 18.1776 21.6852 18.0723 22.0262 18.043V17.7813C22.0262 17.6432 22.0784 17.5741 22.1821 17.5741C22.2877 17.5741 22.3399 17.6415 22.3399 17.7762L22.3398 17.7763ZM22.0261 19.4679V18.5237C21.8876 18.5648 21.7795 18.6187 21.7019 18.6861C21.6243 18.7533 21.5855 18.8561 21.5855 18.9924C21.5855 19.1219 21.6217 19.2205 21.6942 19.287C21.7669 19.3535 21.8774 19.414 22.0259 19.468L22.0261 19.4679ZM22.3398 20.1999V21.2805C22.5059 21.2477 22.6342 21.1812 22.7253 21.0811C22.8156 20.98 22.8611 20.8639 22.8611 20.73C22.8611 20.587 22.8173 20.4767 22.7287 20.3985C22.6409 20.3202 22.511 20.2538 22.3398 20.1999L22.3398 20.1999ZM20.7496 15.1353H23.6376C24.068 13.6867 24.7548 13.8049 24.2031 13.2834C23.6516 12.7615 21.785 12.4089 20.5614 13.0759C19.3378 13.7428 20.3194 13.6867 20.7498 15.1354L20.7496 15.1353Z" fill="#FA9D1C"/>
<ellipse cx="22.3572" cy="20.265" rx="2.01639" ry="2.74257" fill="#FA9D1C"/>
<path d="M21.5978 21.1792L21.1264 20.3131H20.786V21.1792H20.3408V18.9868H21.2923C21.3936 18.9803 21.4954 18.9927 21.5911 19.0232C21.6868 19.0537 21.7743 19.1017 21.8482 19.164C21.922 19.2264 21.9806 19.3018 22.0202 19.3854C22.0597 19.4691 22.0794 19.5592 22.0779 19.65C22.0815 19.775 22.0402 19.8977 21.9601 20.0002C21.88 20.1027 21.7653 20.1795 21.6327 20.2195L22.1739 21.1558L21.5978 21.1792ZM21.2137 19.3925H20.7685V19.962H21.2137C21.26 19.9689 21.3073 19.9667 21.3525 19.9555C21.3978 19.9444 21.4397 19.9246 21.4755 19.8975C21.5112 19.8704 21.54 19.8366 21.5597 19.7986C21.5794 19.7606 21.5896 19.7192 21.5896 19.6773C21.5896 19.6354 21.5794 19.5939 21.5597 19.5559C21.54 19.5179 21.5112 19.4842 21.4755 19.4571C21.4397 19.43 21.3978 19.4101 21.3525 19.399C21.3073 19.3878 21.26 19.3856 21.2137 19.3925Z" fill="#FBEBD5"/>
<path d="M23.8133 21.1976C23.6971 21.2946 23.5452 21.3457 23.3895 21.3402C23.3119 21.3452 23.2342 21.3336 23.1622 21.3061C23.0902 21.2786 23.0259 21.2361 22.9742 21.1818V21.9105H22.542V19.7164H22.9657V19.8907C23.0192 19.8337 23.086 19.789 23.161 19.7601C23.236 19.7313 23.3171 19.719 23.398 19.7244C23.5537 19.7188 23.7056 19.7699 23.8217 19.8669C23.9697 20.0624 24.0332 20.3028 23.9997 20.5402C24.0256 20.7733 23.9593 21.0071 23.8133 21.1976ZM23.2709 20.057C23.0166 20.057 22.9827 20.255 22.9827 20.5164C22.9827 20.7778 22.9827 20.9758 23.2709 20.9758C23.559 20.9758 23.559 20.7778 23.559 20.5164C23.559 20.255 23.4997 20.057 23.2454 20.057H23.2709Z" fill="#FBEBD5"/>
</svg>
