<svg width="56" height="56" viewBox="0 0 56 56" fill="none" xmlns="http://www.w3.org/2000/svg">
<g opacity="0.1" filter="url(#filter0_d_382_31011)">
<rect x="8" y="4" width="40" height="40" rx="20" fill="url(#paint0_linear_382_31011)" shape-rendering="crispEdges"/>
</g>
<g clip-path="url(#clip0_382_31011)">
<path d="M38.6829 22.5357C38.0106 16.862 33.4768 12.4609 27.9998 12.4609C23.7598 12.4609 20.0768 15.1164 18.3952 19.3016C15.0906 20.3598 12.6152 23.7027 12.6152 27.2961C12.6152 31.8406 16.066 35.5379 20.3075 35.5379H37.2306C40.6245 35.5379 43.3845 32.5807 43.3845 28.9445C43.3821 27.4669 42.9177 26.0328 42.0655 24.8711C41.2133 23.7094 40.0224 22.8872 38.6829 22.5357ZM29.5383 27.2961V32.2412H26.4614V27.2961H21.846L27.9998 19.0543L34.1537 27.2961H29.5383Z" fill="#FA9D1C"/>
</g>
<defs>
<filter id="filter0_d_382_31011" x="0" y="0" width="56" height="56" filterUnits="userSpaceOnUse" color-interpolation-filters="sRGB">
<feFlood flood-opacity="0" result="BackgroundImageFix"/>
<feColorMatrix in="SourceAlpha" type="matrix" values="0 0 0 0 0 0 0 0 0 0 0 0 0 0 0 0 0 0 127 0" result="hardAlpha"/>
<feOffset dy="4"/>
<feGaussianBlur stdDeviation="4"/>
<feComposite in2="hardAlpha" operator="out"/>
<feColorMatrix type="matrix" values="0 0 0 0 0 0 0 0 0 0 0 0 0 0 0 0 0 0 0.25 0"/>
<feBlend mode="normal" in2="BackgroundImageFix" result="effect1_dropShadow_382_31011"/>
<feBlend mode="normal" in="SourceGraphic" in2="effect1_dropShadow_382_31011" result="shape"/>
</filter>
<linearGradient id="paint0_linear_382_31011" x1="28" y1="4" x2="28" y2="44" gradientUnits="userSpaceOnUse">
<stop stop-color="#6F6D6B"/>
<stop offset="1" stop-opacity="0"/>
</linearGradient>
<clipPath id="clip0_382_31011">
<rect width="30.7692" height="30.7692" fill="white" transform="translate(12.6152 8.61523)"/>
</clipPath>
</defs>
</svg>
