<svg viewBox="0 0 566 181" width="566" height="181" xmlns="http://www.w3.org/2000/svg">
    <defs>
        <mask id="v_left" style="mask-type: alpha;">
            <g transform="translate(-18.1818 -21.3636) scale(1.32 1.32)">
                <path stroke-miterlimit="4"
                      stroke-width="53" stroke="white"
                      stroke-dashoffset="-190.531" stroke-dasharray="190.531"
                      class="v-left"
                      d="m12.41675,17.67319c34,3 58,13.5 64.5,35c3.365,11.132 24.5,110 24.5,110"
                />
            </g>
        </mask>

        <mask id="Mask-2" style="mask-type: alpha;">
            <g class="v-right">
                <rect id="svg_2" height="178.56682" width="134.99652" y="0.39051" x="81.812" fill="white"/>
            </g>
        </mask>
    </defs>

    <g>
        <g mask="url(#v_left)">
            <path fill="white" transform="translate(721.618 530.182) scale(1.32 1.32)" d="m-457.25923,-309.45503c0,0 -13.524,-76.353 -13.524,-76.353c-1.587,-8.528 -8.281,-13.451 -15.79,-13.451c0,0 -58.973,0 -58.973,0c0,0 -0.87,3.826 -0.87,3.826c12.064,2.595 25.762,6.771 34.03,11.228c5.063,2.726 6.484,5.106 8.071,11.589c0,0 26.156,105.299 26.156,105.299c0,0 28.363,0 28.363,0c0,0 -7.463,-42.138 -7.463,-42.138z" id="path"/>
        </g>
        <g mask="url(#Mask-2)">
            <path fill="white" transform="translate(812.637 530.182) scale(1.32 1.32)" d="m-452.48623,-399.22521c0,0 -36.399,0 -36.399,0c0,0 -54.841,131.942 -54.841,131.942c0,0 33.243,0 33.243,0c0,0 57.997,-131.942 57.997,-131.942z" id="path_1"/>
        </g>
        <g class="i">
            <path fill="white" d="m281.00378,3.59691c0,0 -40.248,174.098 -40.248,174.098c0,0 -45.74,0 -45.74,0c0,0 40.27,-174.098 40.27,-174.098c0,0 45.718,0 45.718,0z" id="path_2"/>
        </g>
        <g class="s">
            <path fill="white" d="m403.41175,120.84791c0.844,-45.939 -63.827,-48.482 -63.091,-69.004c0.228,-6.244 6.358,-12.882 19.597,-14.581c6.557,-0.844 24.634,-1.494 44.966,7.785c0,0 8.558,-36.915 8.558,-36.915c-10.956,-3.938 -25.054,-7.715 -42.672,-7.715c-45.198,0 -77.341,23.665 -78.071,57.545c-0.65,25.072 22.16,39.047 39.371,47.384c17.693,8.527 23.59,14.003 23.416,21.631c-0.297,11.686 -14.445,16.837 -27.609,17.043c-22.994,0.351 -36.244,-6.125 -46.805,-11.005c0,0 -8.814,38.154 -8.814,38.154c10.605,4.826 30.266,9.041 50.717,9.246c48.04,0 79.783,-23.362 80.437,-59.568z" id="path_3"/>
        </g>
        <g class="a">
            <path fill="white" d="m471.80376,116.00489c0,0 24.985,-65.368 24.985,-65.368c0,0 12.935,65.368 12.935,65.368c0,0 -37.92,0 -37.92,0zm57.967,-112.406c0,0 -39.021,0 -39.021,0c-8.78,0 -16.253,5.026 -19.645,12.769c0,0 -70.875,161.327 -70.875,161.327c0,0 48.005,0 48.005,0c0,0 9.901,-26.013 9.901,-26.013c0,0 58.66,0 58.66,0c0,0 5.162,26.013 5.162,26.013c0,0 42.292,0 42.292,0c0,0 -34.479,-174.096 -34.479,-174.096z" id="path_4"/>
        </g>
    </g>

</svg>