<svg xmlns="http://www.w3.org/2000/svg" fill="none" viewBox="0 0 340 270"><path d="M0 20.766c0-11.046 8.954-20 20-20h327c11.046 0 20 8.954 20 20v229c0 11.045-8.954 20-20 20H20c-11.046 0-20-8.955-20-20v-229Z" fill="#DEE3F0" fill-opacity=".23"/><path d="M21.362 30.934c-.97 0-1.81-.21-2.52-.63a4.337 4.337 0 0 1-1.624-1.778c-.383-.766-.574-1.648-.574-2.646 0-1.008.191-1.89.574-2.646a4.318 4.318 0 0 1 1.624-1.792c.71-.43 1.55-.644 2.52-.644 1.148 0 2.086.28 2.814.84.728.56 1.19 1.344 1.386 2.352H23.91c-.13-.57-.41-1.022-.84-1.358-.43-.336-1.003-.504-1.722-.504-.98 0-1.755.336-2.324 1.008-.57.662-.854 1.577-.854 2.744 0 1.157.285 2.067.854 2.73.57.662 1.344.994 2.324.994.719 0 1.293-.159 1.722-.476.43-.318.71-.752.84-1.302h1.652c-.196.97-.658 1.731-1.386 2.282-.728.55-1.666.826-2.814.826Zm8.127 0c-.588 0-1.073-.098-1.456-.294-.382-.196-.667-.453-.854-.77a2.109 2.109 0 0 1-.28-1.064c0-.672.262-1.204.784-1.596.523-.392 1.27-.588 2.24-.588h1.82v-.126c0-.542-.15-.948-.448-1.218-.29-.271-.667-.406-1.134-.406-.41 0-.77.102-1.078.308-.298.196-.48.49-.546.882h-1.484c.047-.504.215-.934.504-1.288a2.83 2.83 0 0 1 1.12-.826 3.763 3.763 0 0 1 1.498-.294c.97 0 1.722.256 2.254.77.532.504.798 1.194.798 2.072v4.27H31.94l-.126-1.19c-.196.382-.48.704-.854.966-.373.261-.863.392-1.47.392Zm.294-1.204c.402 0 .738-.094 1.008-.28a1.92 1.92 0 0 0 .644-.77 2.97 2.97 0 0 0 .294-1.05h-1.652c-.588 0-1.008.102-1.26.308a.968.968 0 0 0-.364.77.92.92 0 0 0 .35.756c.243.177.57.266.98.266Zm5.175 1.036v-6.944h1.33l.126 1.316a2.739 2.739 0 0 1 1.008-1.078c.438-.271.966-.406 1.582-.406v1.554h-.407c-.41 0-.779.07-1.105.21a1.59 1.59 0 0 0-.77.686c-.187.317-.28.76-.28 1.33v3.332h-1.484Zm7.67.168c-.588 0-1.073-.098-1.456-.294-.383-.196-.667-.453-.854-.77a2.108 2.108 0 0 1-.28-1.064c0-.672.261-1.204.784-1.596.523-.392 1.27-.588 2.24-.588h1.82v-.126c0-.542-.15-.948-.448-1.218-.29-.271-.667-.406-1.134-.406-.41 0-.77.102-1.078.308-.299.196-.48.49-.546.882h-1.484c.047-.504.215-.934.504-1.288a2.83 2.83 0 0 1 1.12-.826 3.763 3.763 0 0 1 1.498-.294c.97 0 1.722.256 2.254.77.532.504.798 1.194.798 2.072v4.27h-1.288l-.126-1.19c-.196.382-.48.704-.854.966-.373.261-.863.392-1.47.392Zm.294-1.204c.401 0 .737-.094 1.008-.28a1.92 1.92 0 0 0 .644-.77 2.97 2.97 0 0 0 .294-1.05h-1.652c-.588 0-1.008.102-1.26.308a.968.968 0 0 0-.364.77.92.92 0 0 0 .35.756c.243.177.57.266.98.266Zm8.758 1.036v-9.8h1.75l3.318 6.524 3.303-6.524h1.75v9.8h-1.483v-7.238l-2.996 5.838h-1.149l-3.01-5.824v7.224H51.68Zm15.305.168c-.681 0-1.288-.15-1.82-.448a3.3 3.3 0 0 1-1.232-1.274c-.299-.542-.448-1.172-.448-1.89 0-.728.145-1.368.434-1.918.299-.551.71-.98 1.232-1.288.532-.308 1.148-.462 1.848-.462.681 0 1.274.154 1.778.462.504.298.896.7 1.176 1.204.28.504.42 1.059.42 1.666 0 .093-.005.196-.014.308 0 .102-.005.219-.014.35H64.94c.046.672.266 1.185.658 1.54.401.345.863.518 1.386.518.42 0 .77-.094 1.05-.28.29-.196.504-.458.644-.784h1.484a3.141 3.141 0 0 1-1.12 1.638c-.55.438-1.237.658-2.058.658Zm0-6.062c-.495 0-.933.149-1.316.448-.383.289-.616.728-.7 1.316h3.92c-.028-.542-.22-.971-.574-1.288-.355-.318-.798-.476-1.33-.476Zm4.928 5.894v-10.08h1.484v10.08h-1.484Zm5.715.168c-.588 0-1.073-.098-1.456-.294-.383-.196-.667-.453-.854-.77a2.108 2.108 0 0 1-.28-1.064c0-.672.261-1.204.784-1.596.523-.392 1.27-.588 2.24-.588h1.82v-.126c0-.542-.15-.948-.448-1.218-.29-.271-.667-.406-1.134-.406-.41 0-.77.102-1.078.308-.299.196-.48.49-.546.882h-1.484c.047-.504.215-.934.504-1.288a2.83 2.83 0 0 1 1.12-.826 3.763 3.763 0 0 1 1.498-.294c.97 0 1.722.256 2.254.77.532.504.798 1.194.798 2.072v4.27h-1.288l-.126-1.19c-.196.382-.48.704-.854.966-.373.261-.863.392-1.47.392Zm.294-1.204c.401 0 .737-.094 1.008-.28a1.92 1.92 0 0 0 .644-.77 2.97 2.97 0 0 0 .294-1.05h-1.652c-.588 0-1.008.102-1.26.308a.968.968 0 0 0-.364.77.92.92 0 0 0 .35.756c.243.177.57.266.98.266Zm5.174 1.036v-10.08h1.484v6.006l2.66-2.87h1.778l-2.954 3.15 3.388 3.794h-1.876L84.58 27.21v3.556h-1.484Zm10.068.168c-.84 0-1.503-.262-1.988-.784-.476-.523-.714-1.302-.714-2.338v-3.99h1.484v3.836c0 1.344.55 2.016 1.652 2.016.55 0 1.003-.196 1.358-.588.355-.392.532-.952.532-1.68v-3.584h1.484v6.944h-1.316l-.112-1.218c-.215.429-.532.77-.952 1.022-.41.242-.887.364-1.428.364Zm5.696-.168v-10.08h1.484v6.006l2.66-2.87h1.778l-2.954 3.15 3.388 3.794h-1.876l-2.996-3.556v3.556H98.86Zm9.707.168c-.588 0-1.073-.098-1.456-.294-.382-.196-.667-.453-.854-.77a2.115 2.115 0 0 1-.28-1.064c0-.672.262-1.204.784-1.596.523-.392 1.27-.588 2.24-.588h1.82v-.126c0-.542-.149-.948-.448-1.218-.289-.271-.667-.406-1.134-.406a1.9 1.9 0 0 0-1.078.308c-.298.196-.48.49-.546.882h-1.484c.047-.504.215-.934.504-1.288a2.83 2.83 0 0 1 1.12-.826 3.766 3.766 0 0 1 1.498-.294c.971 0 1.722.256 2.254.77.532.504.798 1.194.798 2.072v4.27h-1.288l-.126-1.19c-.196.382-.48.704-.854.966-.373.261-.863.392-1.47.392Zm.294-1.204c.402 0 .738-.094 1.008-.28a1.92 1.92 0 0 0 .644-.77c.159-.318.257-.668.294-1.05h-1.652c-.588 0-1.008.102-1.26.308a.97.97 0 0 0-.364.77.92.92 0 0 0 .35.756c.243.177.57.266.98.266Zm5.175 1.036v-6.944h1.316l.112 1.218a2.38 2.38 0 0 1 .938-1.008c.42-.252.9-.378 1.442-.378.84 0 1.498.261 1.974.784.485.522.728 1.302.728 2.338v3.99h-1.47V26.93c0-1.344-.551-2.016-1.652-2.016-.551 0-1.008.196-1.372.588-.355.392-.532.952-.532 1.68v3.584h-1.484Zm14.739 0-3.626-9.8h1.582l2.94 8.26 2.954-8.26h1.568l-3.626 9.8h-1.792Zm9.003.168c-.682 0-1.288-.15-1.82-.448a3.292 3.292 0 0 1-1.232-1.274c-.299-.542-.448-1.172-.448-1.89 0-.728.144-1.368.434-1.918.298-.551.709-.98 1.232-1.288.532-.308 1.148-.462 1.848-.462.681 0 1.274.154 1.778.462.504.298.896.7 1.176 1.204.28.504.42 1.059.42 1.666 0 .093-.005.196-.014.308 0 .102-.005.219-.014.35h-5.404c.046.672.266 1.185.658 1.54.401.345.863.518 1.386.518.42 0 .77-.094 1.05-.28a1.77 1.77 0 0 0 .644-.784h1.484a3.141 3.141 0 0 1-1.12 1.638c-.551.438-1.237.658-2.058.658Zm0-6.062c-.495 0-.934.149-1.316.448-.383.289-.616.728-.7 1.316h3.92c-.028-.542-.22-.971-.574-1.288-.355-.318-.798-.476-1.33-.476Zm4.928 5.894v-6.944h1.33l.126 1.316a2.729 2.729 0 0 1 1.008-1.078c.438-.271.966-.406 1.582-.406v1.554h-.406c-.411 0-.78.07-1.106.21a1.6 1.6 0 0 0-.77.686c-.187.317-.28.76-.28 1.33v3.332h-1.484Zm6.158-8.26c-.28 0-.513-.084-.7-.252a.895.895 0 0 1-.266-.658.85.85 0 0 1 .266-.644.977.977 0 0 1 .7-.266c.28 0 .509.088.686.266.187.168.28.382.28.644a.87.87 0 0 1-.28.658c-.177.168-.406.252-.686.252Zm-.742 8.26v-6.944h1.484v6.944h-1.484Zm3.793 0v-5.698h-.994v-1.246h.994v-1.008c0-.756.187-1.298.56-1.624.383-.336.919-.504 1.61-.504h.728v1.26h-.504c-.327 0-.56.07-.7.21-.14.13-.21.354-.21.672v.994h4.396v6.944h-1.484v-5.698h-2.912v5.698h-1.484Zm5.152-8.106c-.28 0-.513-.084-.7-.252a.912.912 0 0 1-.266-.672.85.85 0 0 1 .266-.644c.187-.168.42-.252.7-.252.28 0 .509.084.686.252.187.168.28.382.28.644 0 .27-.093.494-.28.672-.177.168-.406.252-.686.252Zm2.701 8.106v-10.08h1.484v6.006l2.66-2.87h1.778l-2.954 3.15 3.388 3.794h-1.876l-2.996-3.556v3.556h-1.484Zm9.708.168c-.588 0-1.074-.098-1.456-.294-.383-.196-.668-.453-.854-.77a2.104 2.104 0 0 1-.28-1.064c0-.672.261-1.204.784-1.596.522-.392 1.269-.588 2.24-.588h1.82v-.126c0-.542-.15-.948-.448-1.218-.29-.271-.668-.406-1.134-.406-.411 0-.77.102-1.078.308-.299.196-.481.49-.546.882h-1.484c.046-.504.214-.934.504-1.288a2.83 2.83 0 0 1 1.12-.826 3.76 3.76 0 0 1 1.498-.294c.97 0 1.722.256 2.254.77.532.504.798 1.194.798 2.072v4.27h-1.288l-.126-1.19a2.64 2.64 0 0 1-.854.966c-.374.261-.864.392-1.47.392Zm.294-1.204c.401 0 .737-.094 1.008-.28.28-.196.494-.453.644-.77a3 3 0 0 0 .294-1.05h-1.652c-.588 0-1.008.102-1.26.308a.967.967 0 0 0-.364.77c0 .317.116.569.35.756.242.177.569.266.98.266Zm7.946 1.204c-.877 0-1.601-.215-2.17-.644a2.413 2.413 0 0 1-.98-1.708h1.498c.075.317.252.592.532.826.28.224.649.336 1.106.336.448 0 .775-.094.98-.28.205-.187.308-.402.308-.644 0-.355-.145-.593-.434-.714-.28-.131-.672-.248-1.176-.35a9.27 9.27 0 0 1-1.176-.336 2.707 2.707 0 0 1-.966-.588c-.252-.262-.378-.612-.378-1.05 0-.607.233-1.111.7-1.512.467-.411 1.12-.616 1.96-.616.775 0 1.4.186 1.876.56.485.373.77.9.854 1.582h-1.428a1.022 1.022 0 0 0-.42-.7c-.224-.168-.527-.252-.91-.252-.373 0-.663.079-.868.238a.695.695 0 0 0-.308.588c0 .242.14.434.42.574.289.14.667.266 1.134.378.467.102.896.224 1.288.364.401.13.723.326.966.588.243.261.364.644.364 1.148.009.634-.238 1.162-.742 1.582-.495.42-1.171.63-2.03.63Zm5.232-8.428c-.28 0-.513-.084-.7-.252a.895.895 0 0 1-.266-.658.85.85 0 0 1 .266-.644.977.977 0 0 1 .7-.266c.28 0 .509.088.686.266.187.168.28.382.28.644a.87.87 0 0 1-.28.658c-.177.168-.406.252-.686.252Zm-.742 8.26v-6.944h1.484v6.944h-1.484Zm9.028.014-2.646-9.814h1.596l1.946 8.12 2.24-8.12h1.638l2.17 8.12 1.946-8.12h1.596l-2.688 9.8h-1.736l-2.142-7.686-2.212 7.686-1.708.014Zm13.406.154c-.588 0-1.074-.098-1.456-.294-.383-.196-.668-.453-.854-.77a2.104 2.104 0 0 1-.28-1.064c0-.672.261-1.204.784-1.596.522-.392 1.269-.588 2.24-.588h1.82v-.126c0-.542-.15-.948-.448-1.218-.29-.271-.668-.406-1.134-.406-.411 0-.77.102-1.078.308-.299.196-.481.49-.546.882h-1.484c.046-.504.214-.934.504-1.288a2.83 2.83 0 0 1 1.12-.826 3.76 3.76 0 0 1 1.498-.294c.97 0 1.722.256 2.254.77.532.504.798 1.194.798 2.072v4.27h-1.288l-.126-1.19a2.64 2.64 0 0 1-.854.966c-.374.261-.864.392-1.47.392Zm.294-1.204c.401 0 .737-.094 1.008-.28.28-.196.494-.453.644-.77a3 3 0 0 0 .294-1.05h-1.652c-.588 0-1.008.102-1.26.308a.967.967 0 0 0-.364.77c0 .317.116.569.35.756.242.177.569.266.98.266Zm6.056-7.224c-.28 0-.513-.084-.7-.252a.895.895 0 0 1-.266-.658.85.85 0 0 1 .266-.644.977.977 0 0 1 .7-.266c.28 0 .509.088.686.266.187.168.28.382.28.644a.87.87 0 0 1-.28.658c-.177.168-.406.252-.686.252Zm-2.212 11.34v-1.26h.546c.327 0 .56-.07.7-.21.14-.131.21-.355.21-.672v-7.882h1.484v7.896c0 .756-.191 1.297-.574 1.624-.383.336-.915.504-1.596.504h-.77Zm7.25-2.912c-.588 0-1.073-.098-1.456-.294-.382-.196-.667-.453-.854-.77a2.115 2.115 0 0 1-.28-1.064c0-.672.262-1.204.784-1.596.523-.392 1.27-.588 2.24-.588h1.82v-.126c0-.542-.149-.948-.448-1.218-.289-.271-.667-.406-1.134-.406a1.9 1.9 0 0 0-1.078.308c-.298.196-.48.49-.546.882h-1.484c.047-.504.215-.934.504-1.288a2.83 2.83 0 0 1 1.12-.826 3.766 3.766 0 0 1 1.498-.294c.971 0 1.722.256 2.254.77.532.504.798 1.194.798 2.072v4.27h-1.288l-.126-1.19c-.196.382-.48.704-.854.966-.373.261-.863.392-1.47.392Zm.294-1.204c.402 0 .738-.094 1.008-.28a1.92 1.92 0 0 0 .644-.77c.159-.318.257-.668.294-1.05h-1.652c-.588 0-1.008.102-1.26.308a.97.97 0 0 0-.364.77.92.92 0 0 0 .35.756c.243.177.57.266.98.266Zm5.175 1.036v-10.08h1.484v4.256c.233-.402.555-.714.966-.938.42-.234.882-.35 1.386-.35.83 0 1.484.261 1.96.784.476.522.714 1.302.714 2.338v3.99h-1.47V26.93c0-1.344-.537-2.016-1.61-2.016-.56 0-1.027.196-1.4.588-.364.392-.546.952-.546 1.68v3.584h-1.484Z" fill="#506698"/><rect fill="#fff" width="300" height="36" x="16" y="50.766" rx="6"/><mask id="b" width="148" height="37" x="16" y="50" maskUnits="userSpaceOnUse" style="mask-type:alpha"><mask id="a" width="148" height="37" x="16" y="50" maskUnits="userSpaceOnUse" style="mask-type:alpha"><rect fill="#fff" width="147.613" height="36" x="16" y="50.766" rx="6"/><rect width="146.613" height="35" x="16.5" y="51.266" stroke="#C6CBDA" stroke-opacity=".5" rx="5.5"/></mask><g mask="url(#a)"><rect fill="#fff" width="148" height="36" x="16" y="50.766" rx="6"/><rect width="147" height="35" x="16.5" y="51.266" stroke="#C6CBDA" stroke-opacity=".5" rx="5.5"/></g></mask><g mask="url(#b)"><path d="M82 46.223c-15.886 22.1-52.706 24.33-88.508 24.33C-42.309 70.553-64 57.622-64 34.233-64 10.847-34.977-8.113.824-8.113S82 22.835 82 46.223Zm-122.784-11.99c0 15.012 11.297 30.034 34.276 30.034 22.98 0 53.332-3.032 53.332-18.044s-23.02-39.17-46-39.17-41.608 12.169-41.608 27.18Z" fill="#FA9D1C" fill-opacity=".1"/></g><circle fill="url(#c)" cx="299" cy="61.766" r="5"/><circle fill="url(#d)" cx="307" cy="69.766" r="3"/><path d="M65.888 71.766v-8.4h2.76c.656 0 1.196.108 1.62.324.424.216.736.508.936.876.208.368.312.784.312 1.248 0 .456-.1.868-.3 1.236-.2.368-.512.664-.936.888-.424.216-.968.324-1.632.324h-1.752v3.504h-1.008Zm1.008-4.356h1.728c.672 0 1.148-.14 1.428-.42.288-.288.432-.68.432-1.176 0-.504-.144-.896-.432-1.176-.28-.288-.756-.432-1.428-.432h-1.728v3.204Zm7.58 4.5c-.496 0-.908-.084-1.236-.252a1.713 1.713 0 0 1-.972-1.584c0-.608.232-1.076.696-1.404.464-.328 1.096-.492 1.896-.492h1.608v-.072c0-.52-.136-.912-.408-1.176-.272-.272-.636-.408-1.092-.408-.392 0-.732.1-1.02.3-.28.192-.456.476-.528.852h-1.032c.04-.432.184-.796.432-1.092.256-.296.572-.52.948-.672.376-.16.776-.24 1.2-.24.832 0 1.456.224 1.872.672.424.44.636 1.028.636 1.764v3.66h-.9l-.06-1.068a2.39 2.39 0 0 1-.744.864c-.32.232-.752.348-1.296.348Zm.156-.852c.384 0 .712-.1.984-.3.28-.2.492-.46.636-.78a2.43 2.43 0 0 0 .216-1.008v-.012h-1.524c-.592 0-1.012.104-1.26.312-.24.2-.36.452-.36.756 0 .312.112.564.336.756.232.184.556.276.972.276Zm6.636.852c-.712 0-1.304-.18-1.776-.54-.472-.36-.748-.848-.828-1.464h1.032c.064.312.228.584.492.816.272.224.636.336 1.092.336.424 0 .736-.088.936-.264.2-.184.3-.4.3-.648 0-.36-.132-.6-.396-.72-.256-.12-.62-.228-1.092-.324a6.189 6.189 0 0 1-.96-.276 2.221 2.221 0 0 1-.804-.504c-.216-.224-.324-.516-.324-.876 0-.52.192-.944.576-1.272.392-.336.92-.504 1.584-.504.632 0 1.148.16 1.548.48.408.312.644.76.708 1.344h-.996a1.008 1.008 0 0 0-.396-.708c-.216-.176-.508-.264-.876-.264-.36 0-.64.076-.84.228a.728.728 0 0 0-.288.6c0 .24.124.428.372.564.256.136.6.252 1.032.348.368.08.716.18 1.044.3.336.112.608.284.816.516.216.224.324.552.324.984.008.536-.196.98-.612 1.332-.408.344-.964.516-1.668.516Zm5.803-.144c-.544 0-.972-.132-1.284-.396-.312-.264-.468-.74-.468-1.428v-3.276h-1.032v-.852h1.032l.132-1.428h.876v1.428h1.752v.852h-1.752v3.276c0 .376.076.632.228.768.152.128.42.192.804.192h.624v.864h-.912Zm2.9-7.272a.707.707 0 0 1-.504-.192.707.707 0 0 1-.192-.504c0-.192.064-.352.192-.48a.707.707 0 0 1 .504-.192c.192 0 .356.064.492.192a.632.632 0 0 1 .204.48c0 .2-.068.368-.204.504a.692.692 0 0 1-.492.192Zm-.504 7.272v-5.952h1.008v5.952h-1.008Zm2.763 0v-8.64h1.008v5.196l2.436-2.508h1.236l-2.64 2.688 2.976 3.264h-1.284l-2.724-3.084v3.084H92.23Zm7.98.144c-.496 0-.908-.084-1.236-.252a1.713 1.713 0 0 1-.972-1.584c0-.608.232-1.076.696-1.404.464-.328 1.096-.492 1.896-.492h1.608v-.072c0-.52-.136-.912-.408-1.176-.272-.272-.636-.408-1.092-.408-.392 0-.732.1-1.02.3-.28.192-.456.476-.528.852h-1.032c.04-.432.184-.796.432-1.092.256-.296.572-.52.948-.672.376-.16.776-.24 1.2-.24.832 0 1.456.224 1.872.672.424.44.636 1.028.636 1.764v3.66h-.9l-.06-1.068a2.39 2.39 0 0 1-.744.864c-.32.232-.752.348-1.296.348Zm.156-.852c.384 0 .712-.1.984-.3.28-.2.492-.46.636-.78a2.43 2.43 0 0 0 .216-1.008v-.012h-1.524c-.592 0-1.012.104-1.26.312-.24.2-.36.452-.36.756 0 .312.112.564.336.756.232.184.556.276.972.276Zm4.357.708v-5.952h.912l.06 1.068c.192-.376.468-.672.828-.888.36-.216.768-.324 1.224-.324.704 0 1.264.216 1.68.648.424.424.636 1.08.636 1.968v3.48h-1.008v-3.372c0-1.24-.512-1.86-1.536-1.86-.512 0-.94.188-1.284.564-.336.368-.504.896-.504 1.584v3.084h-1.008Zm11.243 0-1.74-5.952h1.008l1.26 4.668 1.392-4.668h1.14l1.404 4.668 1.248-4.668h1.02l-1.74 5.952h-1.032l-1.464-4.908-1.464 4.908h-1.032Zm9.615.144c-.496 0-.908-.084-1.236-.252a1.713 1.713 0 0 1-.972-1.584c0-.608.232-1.076.696-1.404.464-.328 1.096-.492 1.896-.492h1.608v-.072c0-.52-.136-.912-.408-1.176-.272-.272-.636-.408-1.092-.408-.392 0-.732.1-1.02.3-.28.192-.456.476-.528.852h-1.032c.04-.432.184-.796.432-1.092.256-.296.572-.52.948-.672.376-.16.776-.24 1.2-.24.832 0 1.456.224 1.872.672.424.44.636 1.028.636 1.764v3.66h-.9l-.06-1.068a2.39 2.39 0 0 1-.744.864c-.32.232-.752.348-1.296.348Zm.156-.852c.384 0 .712-.1.984-.3.28-.2.492-.46.636-.78a2.43 2.43 0 0 0 .216-1.008v-.012h-1.524c-.592 0-1.012.104-1.26.312-.24.2-.36.452-.36.756 0 .312.112.564.336.756.232.184.556.276.972.276Zm5.017-6.564a.692.692 0 0 1-.492-.192.685.685 0 0 1-.204-.504c0-.192.068-.352.204-.48a.692.692 0 0 1 .492-.192c.192 0 .352.064.48.192a.632.632 0 0 1 .204.48c0 .2-.068.368-.204.504a.651.651 0 0 1-.48.192Zm-1.824 9.912v-.864h.468c.296 0 .508-.064.636-.192.136-.12.204-.328.204-.624v-6.912h1.008v6.936c0 .576-.144.996-.432 1.26-.288.264-.708.396-1.26.396h-.624Zm6.05-2.496c-.496 0-.908-.084-1.236-.252a1.713 1.713 0 0 1-.972-1.584c0-.608.232-1.076.696-1.404.464-.328 1.096-.492 1.896-.492h1.608v-.072c0-.52-.136-.912-.408-1.176-.272-.272-.636-.408-1.092-.408-.392 0-.732.1-1.02.3-.28.192-.456.476-.528.852h-1.032c.04-.432.184-.796.432-1.092.256-.296.572-.52.948-.672.376-.16.776-.24 1.2-.24.832 0 1.456.224 1.872.672.424.44.636 1.028.636 1.764v3.66h-.9l-.06-1.068a2.39 2.39 0 0 1-.744.864c-.32.232-.752.348-1.296.348Zm.156-.852c.384 0 .712-.1.984-.3.28-.2.492-.46.636-.78a2.43 2.43 0 0 0 .216-1.008v-.012h-1.524c-.592 0-1.012.104-1.26.312-.24.2-.36.452-.36.756 0 .312.112.564.336.756.232.184.556.276.972.276Zm4.356.708v-8.64h1.008v3.708c.2-.368.484-.652.852-.852a2.398 2.398 0 0 1 1.2-.312c.688 0 1.24.216 1.656.648.416.424.624 1.08.624 1.968v3.48h-.996v-3.372c0-1.24-.5-1.86-1.5-1.86-.52 0-.956.188-1.308.564-.352.368-.528.896-.528 1.584v3.084h-1.008Zm9.575 0 3.096-8.4h1.068l3.084 8.4h-1.068l-.768-2.16h-3.576l-.78 2.16h-1.056Zm2.136-2.976h2.976l-1.488-4.152-1.488 4.152Zm6.301 2.976v-5.952h.912l.06 1.068c.192-.376.468-.672.828-.888.36-.216.768-.324 1.224-.324.704 0 1.264.216 1.68.648.424.424.636 1.08.636 1.968v3.48h-1.008v-3.372c0-1.24-.512-1.86-1.536-1.86-.512 0-.94.188-1.284.564-.336.368-.504.896-.504 1.584v3.084h-1.008Zm9.567.144c-.592 0-1.112-.136-1.56-.408a2.835 2.835 0 0 1-1.032-1.116c-.24-.472-.36-1.008-.36-1.608 0-.6.124-1.132.372-1.596a2.75 2.75 0 0 1 1.032-1.104c.44-.272.96-.408 1.56-.408.488 0 .92.1 1.296.3.376.2.668.48.876.84v-3.684h1.008v8.64h-.912l-.096-.984c-.192.288-.468.548-.828.78-.36.232-.812.348-1.356.348Zm.108-.876c.4 0 .752-.092 1.056-.276.312-.192.552-.456.72-.792.176-.336.264-.728.264-1.176 0-.448-.088-.84-.264-1.176a1.837 1.837 0 0 0-.72-.78 1.935 1.935 0 0 0-1.056-.288c-.392 0-.744.096-1.056.288a1.942 1.942 0 0 0-.72.78c-.168.336-.252.728-.252 1.176 0 .448.084.84.252 1.176.176.336.416.6.72.792a2.04 2.04 0 0 0 1.056.276Zm6.707.876c-.496 0-.908-.084-1.236-.252a1.713 1.713 0 0 1-.972-1.584c0-.608.232-1.076.696-1.404.464-.328 1.096-.492 1.896-.492h1.608v-.072c0-.52-.136-.912-.408-1.176-.272-.272-.636-.408-1.092-.408-.392 0-.732.1-1.02.3-.28.192-.456.476-.528.852h-1.032c.04-.432.184-.796.432-1.092.256-.296.572-.52.948-.672.376-.16.776-.24 1.2-.24.832 0 1.456.224 1.872.672.424.44.636 1.028.636 1.764v3.66h-.9l-.06-1.068a2.39 2.39 0 0 1-.744.864c-.32.232-.752.348-1.296.348Zm.156-.852c.384 0 .712-.1.984-.3.28-.2.492-.46.636-.78a2.43 2.43 0 0 0 .216-1.008v-.012h-1.524c-.592 0-1.012.104-1.26.312-.24.2-.36.452-.36.756 0 .312.112.564.336.756.232.184.556.276.972.276Zm9.884.708c-.544 0-.972-.132-1.284-.396-.312-.264-.468-.74-.468-1.428v-3.276h-1.032v-.852h1.032l.132-1.428h.876v1.428h1.752v.852h-1.752v3.276c0 .376.076.632.228.768.152.128.42.192.804.192h.624v.864h-.912Zm4.801.144c-.568 0-1.072-.128-1.512-.384a2.856 2.856 0 0 1-1.044-1.092c-.248-.464-.372-1.012-.372-1.644 0-.624.124-1.168.372-1.632a2.667 2.667 0 0 1 1.032-1.092c.448-.264.964-.396 1.548-.396.576 0 1.072.132 1.488.396.424.256.748.596.972 1.02a2.885 2.885 0 0 1 .324 1.632v.3h-4.74c.024.456.128.836.312 1.14.192.296.428.52.708.672.288.152.592.228.912.228.416 0 .764-.096 1.044-.288.28-.192.484-.452.612-.78h.996a2.705 2.705 0 0 1-.924 1.38c-.448.36-1.024.54-1.728.54Zm0-5.388c-.48 0-.908.148-1.284.444-.368.288-.58.712-.636 1.272h3.744c-.024-.536-.208-.956-.552-1.26-.344-.304-.768-.456-1.272-.456Zm4.156 5.244v-5.952h.912l.084 1.14c.184-.392.464-.704.84-.936.376-.232.84-.348 1.392-.348v1.056h-.276c-.352 0-.676.064-.972.192-.296.12-.532.328-.708.624-.176.296-.264.704-.264 1.224v3h-1.008Zm4.359 0v-8.64h1.008v8.64h-1.008Zm3.272-7.272a.707.707 0 0 1-.504-.192.707.707 0 0 1-.192-.504c0-.192.064-.352.192-.48a.707.707 0 0 1 .504-.192c.192 0 .356.064.492.192a.632.632 0 0 1 .204.48c0 .2-.068.368-.204.504a.692.692 0 0 1-.492.192Zm-.504 7.272v-5.952h1.008v5.952h-1.008Zm2.763 0v-8.64h1.008v3.708c.2-.368.484-.652.852-.852a2.398 2.398 0 0 1 1.2-.312c.688 0 1.24.216 1.656.648.416.424.624 1.08.624 1.968v3.48h-.996v-3.372c0-1.24-.5-1.86-1.5-1.86-.52 0-.956.188-1.308.564-.352.368-.528.896-.528 1.584v3.084h-1.008Zm8.848.144c-.496 0-.908-.084-1.236-.252a1.713 1.713 0 0 1-.972-1.584c0-.608.232-1.076.696-1.404.464-.328 1.096-.492 1.896-.492h1.608v-.072c0-.52-.136-.912-.408-1.176-.272-.272-.636-.408-1.092-.408-.392 0-.732.1-1.02.3-.28.192-.456.476-.528.852h-1.032c.04-.432.184-.796.432-1.092.256-.296.572-.52.948-.672.376-.16.776-.24 1.2-.24.832 0 1.456.224 1.872.672.424.44.636 1.028.636 1.764v3.66h-.9l-.06-1.068a2.39 2.39 0 0 1-.744.864c-.32.232-.752.348-1.296.348Zm.156-.852c.384 0 .712-.1.984-.3.28-.2.492-.46.636-.78a2.43 2.43 0 0 0 .216-1.008v-.012h-1.524c-.592 0-1.012.104-1.26.312-.24.2-.36.452-.36.756 0 .312.112.564.336.756.232.184.556.276.972.276Zm6.544.708c-.544 0-.972-.132-1.284-.396-.312-.264-.468-.74-.468-1.428v-3.276h-1.032v-.852h1.032l.132-1.428h.876v1.428h1.752v.852h-1.752v3.276c0 .376.076.632.228.768.152.128.42.192.804.192h.624v.864h-.912Zm6.124-7.272a.692.692 0 0 1-.492-.192.685.685 0 0 1-.204-.504c0-.192.068-.352.204-.48a.692.692 0 0 1 .492-.192c.192 0 .352.064.48.192a.632.632 0 0 1 .204.48c0 .2-.068.368-.204.504a.651.651 0 0 1-.48.192Zm-1.824 9.912v-.864h.468c.296 0 .508-.064.636-.192.136-.12.204-.328.204-.624v-6.912h1.008v6.936c0 .576-.144.996-.432 1.26-.288.264-.708.396-1.26.396h-.624Zm6.746-2.496c-.568 0-1.072-.128-1.512-.384a2.856 2.856 0 0 1-1.044-1.092c-.248-.464-.372-1.012-.372-1.644 0-.624.124-1.168.372-1.632a2.667 2.667 0 0 1 1.032-1.092c.448-.264.964-.396 1.548-.396.576 0 1.072.132 1.488.396.424.256.748.596.972 1.02a2.885 2.885 0 0 1 .324 1.632v.3h-4.74c.024.456.128.836.312 1.14.192.296.428.52.708.672.288.152.592.228.912.228.416 0 .764-.096 1.044-.288.28-.192.484-.452.612-.78h.996a2.705 2.705 0 0 1-.924 1.38c-.448.36-1.024.54-1.728.54Zm0-5.388c-.48 0-.908.148-1.284.444-.368.288-.58.712-.636 1.272h3.744c-.024-.536-.208-.956-.552-1.26-.344-.304-.768-.456-1.272-.456Zm4.156 5.244v-8.64h1.008v8.64h-1.008Zm4.64.144c-.496 0-.908-.084-1.236-.252a1.713 1.713 0 0 1-.972-1.584c0-.608.232-1.076.696-1.404.464-.328 1.096-.492 1.896-.492h1.608v-.072c0-.52-.136-.912-.408-1.176-.272-.272-.636-.408-1.092-.408-.392 0-.732.1-1.02.3-.28.192-.456.476-.528.852h-1.032c.04-.432.184-.796.432-1.092.256-.296.572-.52.948-.672.376-.16.776-.24 1.2-.24.832 0 1.456.224 1.872.672.424.44.636 1.028.636 1.764v3.66h-.9l-.06-1.068a2.39 2.39 0 0 1-.744.864c-.32.232-.752.348-1.296.348Zm.156-.852c.384 0 .712-.1.984-.3.28-.2.492-.46.636-.78a2.43 2.43 0 0 0 .216-1.008v-.012h-1.524c-.592 0-1.012.104-1.26.312-.24.2-.36.452-.36.756 0 .312.112.564.336.756.232.184.556.276.972.276Zm6.637.852c-.712 0-1.304-.18-1.776-.54-.472-.36-.748-.848-.828-1.464h1.032c.064.312.228.584.492.816.272.224.636.336 1.092.336.424 0 .736-.088.936-.264.2-.184.3-.4.3-.648 0-.36-.132-.6-.396-.72-.256-.12-.62-.228-1.092-.324a6.189 6.189 0 0 1-.96-.276 2.221 2.221 0 0 1-.804-.504c-.216-.224-.324-.516-.324-.876 0-.52.192-.944.576-1.272.392-.336.92-.504 1.584-.504.632 0 1.148.16 1.548.48.408.312.644.76.708 1.344h-.996a1.008 1.008 0 0 0-.396-.708c-.216-.176-.508-.264-.876-.264-.36 0-.64.076-.84.228a.728.728 0 0 0-.288.6c0 .24.124.428.372.564.256.136.6.252 1.032.348.368.08.716.18 1.044.3.336.112.608.284.816.516.216.224.324.552.324.984.008.536-.196.98-.612 1.332-.408.344-.964.516-1.668.516Z" fill="#2D2D2D"/><path d="M36.452 68.766a3.332 3.332 0 1 0 0-6.666 3.332 3.332 0 1 0 0 6.666Zm0-5c.916 0 1.666.75 1.666 1.667s-.75 1.667-1.666 1.667c-.917 0-1.667-.75-1.667-1.667s.75-1.667 1.667-1.667Zm0 5.834c-2.225 0-6.667 1.116-6.667 3.333V74.6c0 .458.375.833.834.833h11.666a.836.836 0 0 0 .834-.833v-1.667c0-2.217-4.442-3.333-6.667-3.333Zm5 4.166h-10v-.825c.166-.6 2.75-1.675 5-1.675s4.833 1.075 5 1.667v.833Z" fill="#FA9D1C"/><path d="M41.336 57.941h12.897v6.65H41.336z" stroke="#FA9D1C" stroke-width=".35"/><rect fill="#FA9D1C" width="7.948" height="1.027" x="42.751" y="58.792" rx=".513"/><rect fill="#FA9D1C" width="4.239" height="1.027" x="42.751" y="60.846" rx=".513"/><rect fill="#FA9D1C" width="4.239" height="1.027" x="42.751" y="62.386" rx=".513"/><path d="M50.169 60.332h2.649v3.08h-2.649z" fill="#FA9D1C"/><rect fill="#fff" width="300" height="36" x="16" y="96.766" rx="6"/><mask id="f" width="148" height="37" x="16" y="96" maskUnits="userSpaceOnUse" style="mask-type:alpha"><mask id="e" width="148" height="37" x="16" y="96" maskUnits="userSpaceOnUse" style="mask-type:alpha"><rect fill="#fff" width="147.613" height="36" x="16" y="96.766" rx="6"/><rect width="146.613" height="35" x="16.5" y="97.266" stroke="#C6CBDA" stroke-opacity=".5" rx="5.5"/></mask><g mask="url(#e)"><rect fill="#fff" width="148" height="36" x="16" y="96.766" rx="6"/><rect width="147" height="35" x="16.5" y="97.266" stroke="#C6CBDA" stroke-opacity=".5" rx="5.5"/></g></mask><g mask="url(#f)"><path d="M82 92.223c-15.886 22.099-52.706 24.33-88.508 24.33-35.801 0-57.492-12.931-57.492-36.32C-64 56.847-34.977 37.887.824 37.887S82 68.835 82 92.223Zm-122.784-11.99c0 15.012 11.297 30.034 34.276 30.034 22.98 0 53.332-3.032 53.332-18.044s-23.02-39.17-46-39.17-41.608 12.169-41.608 27.18Z" fill="#FA9D1C" fill-opacity=".1"/></g><circle fill="url(#g)" cx="299" cy="107.766" r="5"/><circle fill="url(#h)" cx="307" cy="115.766" r="3"/><path d="M65.888 117.766v-8.4h2.76c.656 0 1.196.108 1.62.324.424.216.736.508.936.876.208.368.312.784.312 1.248 0 .456-.1.868-.3 1.236-.2.368-.512.664-.936.888-.424.216-.968.324-1.632.324h-1.752v3.504h-1.008Zm1.008-4.356h1.728c.672 0 1.148-.14 1.428-.42.288-.288.432-.68.432-1.176 0-.504-.144-.896-.432-1.176-.28-.288-.756-.432-1.428-.432h-1.728v3.204Zm7.58 4.5c-.496 0-.908-.084-1.236-.252a1.713 1.713 0 0 1-.972-1.584c0-.608.232-1.076.696-1.404.464-.328 1.096-.492 1.896-.492h1.608v-.072c0-.52-.136-.912-.408-1.176-.272-.272-.636-.408-1.092-.408-.392 0-.732.1-1.02.3-.28.192-.456.476-.528.852h-1.032c.04-.432.184-.796.432-1.092.256-.296.572-.52.948-.672.376-.16.776-.24 1.2-.24.832 0 1.456.224 1.872.672.424.44.636 1.028.636 1.764v3.66h-.9l-.06-1.068a2.39 2.39 0 0 1-.744.864c-.32.232-.752.348-1.296.348Zm.156-.852c.384 0 .712-.1.984-.3.28-.2.492-.46.636-.78a2.43 2.43 0 0 0 .216-1.008v-.012h-1.524c-.592 0-1.012.104-1.26.312-.24.2-.36.452-.36.756 0 .312.112.564.336.756.232.184.556.276.972.276Zm6.636.852c-.712 0-1.304-.18-1.776-.54-.472-.36-.748-.848-.828-1.464h1.032c.064.312.228.584.492.816.272.224.636.336 1.092.336.424 0 .736-.088.936-.264.2-.184.3-.4.3-.648 0-.36-.132-.6-.396-.72-.256-.12-.62-.228-1.092-.324a6.189 6.189 0 0 1-.96-.276 2.221 2.221 0 0 1-.804-.504c-.216-.224-.324-.516-.324-.876 0-.52.192-.944.576-1.272.392-.336.92-.504 1.584-.504.632 0 1.148.16 1.548.48.408.312.644.76.708 1.344h-.996a1.008 1.008 0 0 0-.396-.708c-.216-.176-.508-.264-.876-.264-.36 0-.64.076-.84.228a.728.728 0 0 0-.288.6c0 .24.124.428.372.564.256.136.6.252 1.032.348.368.08.716.18 1.044.3.336.112.608.284.816.516.216.224.324.552.324.984.008.536-.196.98-.612 1.332-.408.344-.964.516-1.668.516Zm5.803-.144c-.544 0-.972-.132-1.284-.396-.312-.264-.468-.74-.468-1.428v-3.276h-1.032v-.852h1.032l.132-1.428h.876v1.428h1.752v.852h-1.752v3.276c0 .376.076.632.228.768.152.128.42.192.804.192h.624v.864h-.912Zm2.9-7.272a.707.707 0 0 1-.504-.192.707.707 0 0 1-.192-.504c0-.192.064-.352.192-.48a.707.707 0 0 1 .504-.192c.192 0 .356.064.492.192a.632.632 0 0 1 .204.48c0 .2-.068.368-.204.504a.692.692 0 0 1-.492.192Zm-.504 7.272v-5.952h1.008v5.952h-1.008Zm2.763 0v-8.64h1.008v5.196l2.436-2.508h1.236l-2.64 2.688 2.976 3.264h-1.284l-2.724-3.084v3.084H92.23Zm7.98.144c-.496 0-.908-.084-1.236-.252a1.713 1.713 0 0 1-.972-1.584c0-.608.232-1.076.696-1.404.464-.328 1.096-.492 1.896-.492h1.608v-.072c0-.52-.136-.912-.408-1.176-.272-.272-.636-.408-1.092-.408-.392 0-.732.1-1.02.3-.28.192-.456.476-.528.852h-1.032c.04-.432.184-.796.432-1.092.256-.296.572-.52.948-.672.376-.16.776-.24 1.2-.24.832 0 1.456.224 1.872.672.424.44.636 1.028.636 1.764v3.66h-.9l-.06-1.068a2.39 2.39 0 0 1-.744.864c-.32.232-.752.348-1.296.348Zm.156-.852c.384 0 .712-.1.984-.3.28-.2.492-.46.636-.78a2.43 2.43 0 0 0 .216-1.008v-.012h-1.524c-.592 0-1.012.104-1.26.312-.24.2-.36.452-.36.756 0 .312.112.564.336.756.232.184.556.276.972.276Zm4.357.708v-5.952h.912l.06 1.068c.192-.376.468-.672.828-.888.36-.216.768-.324 1.224-.324.704 0 1.264.216 1.68.648.424.424.636 1.08.636 1.968v3.48h-1.008v-3.372c0-1.24-.512-1.86-1.536-1.86-.512 0-.94.188-1.284.564-.336.368-.504.896-.504 1.584v3.084h-1.008Zm10.367 0v-5.1h-.9v-.852h.9v-1.032c0-.576.144-.996.431-1.26.289-.264.709-.396 1.261-.396h.6v.864h-.444c-.304 0-.52.064-.648.192-.128.12-.192.328-.192.624v1.008h1.464v.852h-1.464v5.1h-1.008Zm6.149.144c-.56 0-1.064-.128-1.512-.384a2.827 2.827 0 0 1-1.068-1.08c-.256-.472-.384-1.024-.384-1.656 0-.632.132-1.18.396-1.644.264-.472.62-.836 1.068-1.092a3.06 3.06 0 0 1 1.524-.384c.56 0 1.064.128 1.512.384.448.256.8.62 1.056 1.092.264.464.396 1.012.396 1.644 0 .632-.132 1.184-.396 1.656a2.802 2.802 0 0 1-1.08 1.08 2.993 2.993 0 0 1-1.512.384Zm0-.864c.344 0 .664-.084.96-.252a1.88 1.88 0 0 0 .72-.756c.184-.336.276-.752.276-1.248s-.092-.912-.276-1.248a1.803 1.803 0 0 0-.708-.756 1.89 1.89 0 0 0-.948-.252c-.344 0-.664.084-.96.252a1.88 1.88 0 0 0-.72.756c-.184.336-.276.752-.276 1.248s.092.912.276 1.248c.184.336.42.588.708.756.296.168.612.252.948.252Zm6.507.72c-.544 0-.972-.132-1.284-.396-.312-.264-.468-.74-.468-1.428v-3.276h-1.032v-.852h1.032l.132-1.428h.876v1.428h1.752v.852h-1.752v3.276c0 .376.076.632.228.768.152.128.42.192.804.192h.624v.864h-.912Zm4.837.144c-.56 0-1.064-.128-1.512-.384a2.827 2.827 0 0 1-1.068-1.08c-.256-.472-.384-1.024-.384-1.656 0-.632.132-1.18.396-1.644.264-.472.62-.836 1.068-1.092a3.06 3.06 0 0 1 1.524-.384c.56 0 1.064.128 1.512.384.448.256.8.62 1.056 1.092.264.464.396 1.012.396 1.644 0 .632-.132 1.184-.396 1.656a2.802 2.802 0 0 1-1.08 1.08 2.993 2.993 0 0 1-1.512.384Zm0-.864c.344 0 .664-.084.96-.252a1.88 1.88 0 0 0 .72-.756c.184-.336.276-.752.276-1.248s-.092-.912-.276-1.248a1.803 1.803 0 0 0-.708-.756 1.89 1.89 0 0 0-.948-.252c-.344 0-.664.084-.96.252a1.88 1.88 0 0 0-.72.756c-.184.336-.276.752-.276 1.248s.092.912.276 1.248c.184.336.42.588.708.756.296.168.612.252.948.252Zm7.097.72 3.096-8.4h1.068l3.084 8.4h-1.068l-.768-2.16h-3.576l-.78 2.16h-1.056Zm2.136-2.976h2.976l-1.488-4.152-1.488 4.152Zm6.301 2.976v-5.952h.912l.06 1.068c.192-.376.468-.672.828-.888.36-.216.768-.324 1.224-.324.704 0 1.264.216 1.68.648.424.424.636 1.08.636 1.968v3.48h-1.008v-3.372c0-1.24-.512-1.86-1.536-1.86-.512 0-.94.188-1.284.564-.336.368-.504.896-.504 1.584v3.084h-1.008Zm9.567.144c-.592 0-1.112-.136-1.56-.408a2.835 2.835 0 0 1-1.032-1.116c-.24-.472-.36-1.008-.36-1.608 0-.6.124-1.132.372-1.596a2.75 2.75 0 0 1 1.032-1.104c.44-.272.96-.408 1.56-.408.488 0 .92.1 1.296.3.376.2.668.48.876.84v-3.684h1.008v8.64h-.912l-.096-.984c-.192.288-.468.548-.828.78-.36.232-.812.348-1.356.348Zm.108-.876c.4 0 .752-.092 1.056-.276.312-.192.552-.456.72-.792.176-.336.264-.728.264-1.176 0-.448-.088-.84-.264-1.176a1.837 1.837 0 0 0-.72-.78 1.935 1.935 0 0 0-1.056-.288c-.392 0-.744.096-1.056.288a1.942 1.942 0 0 0-.72.78c-.168.336-.252.728-.252 1.176 0 .448.084.84.252 1.176.176.336.416.6.72.792a2.04 2.04 0 0 0 1.056.276Zm6.707.876c-.496 0-.908-.084-1.236-.252a1.713 1.713 0 0 1-.972-1.584c0-.608.232-1.076.696-1.404.464-.328 1.096-.492 1.896-.492h1.608v-.072c0-.52-.136-.912-.408-1.176-.272-.272-.636-.408-1.092-.408-.392 0-.732.1-1.02.3-.28.192-.456.476-.528.852h-1.032c.04-.432.184-.796.432-1.092.256-.296.572-.52.948-.672.376-.16.776-.24 1.2-.24.832 0 1.456.224 1.872.672.424.44.636 1.028.636 1.764v3.66h-.9l-.06-1.068a2.39 2.39 0 0 1-.744.864c-.32.232-.752.348-1.296.348Zm.156-.852c.384 0 .712-.1.984-.3.28-.2.492-.46.636-.78a2.43 2.43 0 0 0 .216-1.008v-.012h-1.524c-.592 0-1.012.104-1.26.312-.24.2-.36.452-.36.756 0 .312.112.564.336.756.232.184.556.276.972.276Zm8.192-6.564a.692.692 0 0 1-.492-.192.685.685 0 0 1-.204-.504c0-.192.068-.352.204-.48a.692.692 0 0 1 .492-.192c.192 0 .352.064.48.192a.632.632 0 0 1 .204.48c0 .2-.068.368-.204.504a.651.651 0 0 1-.48.192Zm-1.824 9.912v-.864h.468c.296 0 .508-.064.636-.192.136-.12.204-.328.204-.624v-6.912h1.008v6.936c0 .576-.144.996-.432 1.26-.288.264-.708.396-1.26.396h-.624Zm6.747-2.496c-.568 0-1.072-.128-1.512-.384a2.856 2.856 0 0 1-1.044-1.092c-.248-.464-.372-1.012-.372-1.644 0-.624.124-1.168.372-1.632a2.667 2.667 0 0 1 1.032-1.092c.448-.264.964-.396 1.548-.396.576 0 1.072.132 1.488.396.424.256.748.596.972 1.02a2.885 2.885 0 0 1 .324 1.632v.3h-4.74c.024.456.128.836.312 1.14.192.296.428.52.708.672.288.152.592.228.912.228.416 0 .764-.096 1.044-.288.28-.192.484-.452.612-.78h.996a2.705 2.705 0 0 1-.924 1.38c-.448.36-1.024.54-1.728.54Zm0-5.388c-.48 0-.908.148-1.284.444-.368.288-.58.712-.636 1.272h3.744c-.024-.536-.208-.956-.552-1.26-.344-.304-.768-.456-1.272-.456Zm4.156 5.244v-5.952h.912l.084 1.14c.184-.392.464-.704.84-.936.376-.232.84-.348 1.392-.348v1.056h-.276c-.352 0-.676.064-.972.192-.296.12-.532.328-.708.624-.176.296-.264.704-.264 1.224v3h-1.008Zm4.359 0v-5.952h.912l.06 1.068c.192-.376.468-.672.828-.888.36-.216.768-.324 1.224-.324.704 0 1.264.216 1.68.648.424.424.636 1.08.636 1.968v3.48h-1.008v-3.372c0-1.24-.512-1.86-1.536-1.86-.512 0-.94.188-1.284.564-.336.368-.504.896-.504 1.584v3.084h-1.008Zm7.479-7.272a.707.707 0 0 1-.504-.192.707.707 0 0 1-.192-.504c0-.192.064-.352.192-.48a.707.707 0 0 1 .504-.192c.192 0 .356.064.492.192a.632.632 0 0 1 .204.48c0 .2-.068.368-.204.504a.692.692 0 0 1-.492.192Zm-.504 7.272v-5.952h1.008v5.952h-1.008Zm2.763 0v-8.64h1.008v3.708c.2-.368.484-.652.852-.852a2.398 2.398 0 0 1 1.2-.312c.688 0 1.24.216 1.656.648.416.424.624 1.08.624 1.968v3.48h-.996v-3.372c0-1.24-.5-1.86-1.5-1.86-.52 0-.956.188-1.308.564-.352.368-.528.896-.528 1.584v3.084h-1.008Z" fill="#2D2D2D"/><path d="M46.666 108.098v10h-10v-10h10Zm0-1.666h-10c-.916 0-1.666.75-1.666 1.666v10c0 .917.75 1.667 1.666 1.667h10c.917 0 1.667-.75 1.667-1.667v-10c0-.916-.75-1.666-1.666-1.666Zm-7.083 8.058 1.409 1.883 2.066-2.583 2.775 3.475H37.5l2.083-2.775Zm-7.916-4.725v11.667c0 .916.75 1.666 1.666 1.666H45v-1.666H33.333v-11.667h-1.666Z" fill="#FA9D1C"/><rect fill="#fff" width="300" height="52" x="16" y="142.766" rx="6"/><mask id="j" width="148" height="37" x="16" y="142" maskUnits="userSpaceOnUse" style="mask-type:alpha"><mask id="i" width="148" height="37" x="16" y="142" maskUnits="userSpaceOnUse" style="mask-type:alpha"><rect fill="#fff" width="147.613" height="36" x="16" y="142.766" rx="6"/><rect width="146.613" height="35" x="16.5" y="143.266" stroke="#C6CBDA" stroke-opacity=".5" rx="5.5"/></mask><g mask="url(#i)"><rect fill="#fff" width="148" height="52" x="16" y="142.766" rx="6"/><rect width="147" height="51" x="16.5" y="143.266" stroke="#C6CBDA" stroke-opacity=".5" rx="5.5"/></g></mask><g mask="url(#j)"><path d="M91 141.223c-15.886 22.099-52.706 24.329-88.508 24.329-35.801 0-57.492-12.931-57.492-36.319 0-23.388 29.023-42.347 64.824-42.347S91 117.835 91 141.223Zm-122.784-11.99c0 15.012 11.297 30.034 34.276 30.034 22.98 0 53.332-3.033 53.332-18.044 0-15.012-23.02-39.171-46-39.171s-41.608 12.17-41.608 27.181Z" fill="#FA9D1C" fill-opacity=".1"/></g><circle fill="url(#k)" cx="299" cy="153.766" r="5"/><circle fill="url(#l)" cx="307" cy="161.766" r="3"/><path d="M37.884 162.2c2.125 3.525 5.858 3.225 5.983 3.216l-.475-1.041-4.058-1.859.708-.325A6.163 6.163 0 0 0 39 162.1c-.383 0-.758.041-1.116.1Zm-2.15.758a6.705 6.705 0 0 0-3.05 3.7 6.705 6.705 0 0 0 3.05-3.7Z" fill="#FA9D1C" opacity=".3"/><path d="M45.575 167.723c.059.342.092.684.092 1.042A6.676 6.676 0 0 1 39 175.432a6.676 6.676 0 0 1-6.666-6.667c0-.042.008-.083 0-.117a8.343 8.343 0 0 0 4.783-4.625c2.817 3.45 6.642 3.109 7.492 3.009l-.742-1.609c-.108.009-3.85.317-5.983-3.216.841-.134 1.425-.125 2.158-.009l1.767-.808.533-.242a8.022 8.022 0 0 0-3.342-.716 8.336 8.336 0 0 0-8.333 8.333c0 4.6 3.733 8.333 8.333 8.333a8.336 8.336 0 0 0 7.634-11.675l-1.059 2.3Zm-9.841-4.766a6.708 6.708 0 0 1-3.05 3.7 6.705 6.705 0 0 1 3.05-3.7Z" fill="#FA9D1C"/><path d="M36.5 170.64a1.041 1.041 0 1 0 0-2.083 1.041 1.041 0 0 0 0 2.083Zm5 0a1.041 1.041 0 1 0 0-2.083 1.041 1.041 0 0 0 0 2.083Zm4.666-9.04-.916-2-.917 2-2 .916 2 .917.917 2 .916-2 2-.917-2-.916Z" fill="#FA9D1C"/><rect fill="#fff" width="300" height="49" x="16" y="204.766" rx="6"/><mask id="n" width="148" height="37" x="16" y="204" maskUnits="userSpaceOnUse" style="mask-type:alpha"><mask id="m" width="148" height="37" x="16" y="204" maskUnits="userSpaceOnUse" style="mask-type:alpha"><rect fill="#fff" width="147.613" height="36" x="16" y="204.766" rx="6"/><rect width="146.613" height="35" x="16.5" y="205.266" stroke="#C6CBDA" stroke-opacity=".5" rx="5.5"/></mask><g mask="url(#m)"><rect fill="#fff" width="148" height="36" x="16" y="204.766" rx="6"/><rect width="147" height="35" x="16.5" y="205.266" stroke="#C6CBDA" stroke-opacity=".5" rx="5.5"/></g></mask><g mask="url(#n)"><path d="M82 200.223c-15.886 22.099-52.706 24.33-88.508 24.33-35.801 0-57.492-12.931-57.492-36.319 0-23.388 29.023-42.348 64.824-42.348S82 176.835 82 200.223Zm-122.784-11.989c0 15.011 11.297 30.033 34.276 30.033 22.98 0 53.332-3.032 53.332-18.044s-23.02-39.171-46-39.171-41.608 12.17-41.608 27.182Z" fill="#FA9D1C" fill-opacity=".1"/></g><circle fill="url(#o)" cx="299" cy="215.766" r="5"/><circle fill="url(#p)" cx="307" cy="223.766" r="3"/><path d="M65.888 163.766v-8.4h2.76c.656 0 1.196.108 1.62.324.424.216.736.508.936.876.208.368.312.784.312 1.248 0 .456-.1.868-.3 1.236-.2.368-.512.664-.936.888-.424.216-.968.324-1.632.324h-1.752v3.504h-1.008Zm1.008-4.356h1.728c.672 0 1.148-.14 1.428-.42.288-.288.432-.68.432-1.176 0-.504-.144-.896-.432-1.176-.28-.288-.756-.432-1.428-.432h-1.728v3.204Zm7.58 4.5c-.496 0-.908-.084-1.236-.252a1.713 1.713 0 0 1-.972-1.584c0-.608.232-1.076.696-1.404.464-.328 1.096-.492 1.896-.492h1.608v-.072c0-.52-.136-.912-.408-1.176-.272-.272-.636-.408-1.092-.408-.392 0-.732.1-1.02.3-.28.192-.456.476-.528.852h-1.032c.04-.432.184-.796.432-1.092.256-.296.572-.52.948-.672.376-.16.776-.24 1.2-.24.832 0 1.456.224 1.872.672.424.44.636 1.028.636 1.764v3.66h-.9l-.06-1.068a2.39 2.39 0 0 1-.744.864c-.32.232-.752.348-1.296.348Zm.156-.852c.384 0 .712-.1.984-.3.28-.2.492-.46.636-.78a2.43 2.43 0 0 0 .216-1.008v-.012h-1.524c-.592 0-1.012.104-1.26.312-.24.2-.36.452-.36.756 0 .312.112.564.336.756.232.184.556.276.972.276Zm6.636.852c-.712 0-1.304-.18-1.776-.54-.472-.36-.748-.848-.828-1.464h1.032c.064.312.228.584.492.816.272.224.636.336 1.092.336.424 0 .736-.088.936-.264.2-.184.3-.4.3-.648 0-.36-.132-.6-.396-.72-.256-.12-.62-.228-1.092-.324a6.189 6.189 0 0 1-.96-.276 2.221 2.221 0 0 1-.804-.504c-.216-.224-.324-.516-.324-.876 0-.52.192-.944.576-1.272.392-.336.92-.504 1.584-.504.632 0 1.148.16 1.548.48.408.312.644.76.708 1.344h-.996a1.008 1.008 0 0 0-.396-.708c-.216-.176-.508-.264-.876-.264-.36 0-.64.076-.84.228a.728.728 0 0 0-.288.6c0 .24.124.428.372.564.256.136.6.252 1.032.348.368.08.716.18 1.044.3.336.112.608.284.816.516.216.224.324.552.324.984.008.536-.196.98-.612 1.332-.408.344-.964.516-1.668.516Zm5.803-.144c-.544 0-.972-.132-1.284-.396-.312-.264-.468-.74-.468-1.428v-3.276h-1.032v-.852h1.032l.132-1.428h.876v1.428h1.752v.852h-1.752v3.276c0 .376.076.632.228.768.152.128.42.192.804.192h.624v.864h-.912Zm2.9-7.272a.707.707 0 0 1-.504-.192.707.707 0 0 1-.192-.504c0-.192.064-.352.192-.48a.707.707 0 0 1 .504-.192c.192 0 .356.064.492.192a.632.632 0 0 1 .204.48c0 .2-.068.368-.204.504a.692.692 0 0 1-.492.192Zm-.504 7.272v-5.952h1.008v5.952h-1.008Zm2.763 0v-8.64h1.008v5.196l2.436-2.508h1.236l-2.64 2.688 2.976 3.264h-1.284l-2.724-3.084v3.084H92.23Zm7.98.144c-.496 0-.908-.084-1.236-.252a1.713 1.713 0 0 1-.972-1.584c0-.608.232-1.076.696-1.404.464-.328 1.096-.492 1.896-.492h1.608v-.072c0-.52-.136-.912-.408-1.176-.272-.272-.636-.408-1.092-.408-.392 0-.732.1-1.02.3-.28.192-.456.476-.528.852h-1.032c.04-.432.184-.796.432-1.092.256-.296.572-.52.948-.672.376-.16.776-.24 1.2-.24.832 0 1.456.224 1.872.672.424.44.636 1.028.636 1.764v3.66h-.9l-.06-1.068a2.39 2.39 0 0 1-.744.864c-.32.232-.752.348-1.296.348Zm.156-.852c.384 0 .712-.1.984-.3.28-.2.492-.46.636-.78a2.43 2.43 0 0 0 .216-1.008v-.012h-1.524c-.592 0-1.012.104-1.26.312-.24.2-.36.452-.36.756 0 .312.112.564.336.756.232.184.556.276.972.276Zm4.357.708v-5.952h.912l.06 1.068c.192-.376.468-.672.828-.888.36-.216.768-.324 1.224-.324.704 0 1.264.216 1.68.648.424.424.636 1.08.636 1.968v3.48h-1.008v-3.372c0-1.24-.512-1.86-1.536-1.86-.512 0-.94.188-1.284.564-.336.368-.504.896-.504 1.584v3.084h-1.008Zm11.243 0-1.74-5.952h1.008l1.26 4.668 1.392-4.668h1.14l1.404 4.668 1.248-4.668h1.02l-1.74 5.952h-1.032l-1.464-4.908-1.464 4.908h-1.032Zm9.615.144c-.496 0-.908-.084-1.236-.252a1.713 1.713 0 0 1-.972-1.584c0-.608.232-1.076.696-1.404.464-.328 1.096-.492 1.896-.492h1.608v-.072c0-.52-.136-.912-.408-1.176-.272-.272-.636-.408-1.092-.408-.392 0-.732.1-1.02.3-.28.192-.456.476-.528.852h-1.032c.04-.432.184-.796.432-1.092.256-.296.572-.52.948-.672.376-.16.776-.24 1.2-.24.832 0 1.456.224 1.872.672.424.44.636 1.028.636 1.764v3.66h-.9l-.06-1.068a2.39 2.39 0 0 1-.744.864c-.32.232-.752.348-1.296.348Zm.156-.852c.384 0 .712-.1.984-.3.28-.2.492-.46.636-.78a2.43 2.43 0 0 0 .216-1.008v-.012h-1.524c-.592 0-1.012.104-1.26.312-.24.2-.36.452-.36.756 0 .312.112.564.336.756.232.184.556.276.972.276Zm5.017-6.564a.692.692 0 0 1-.492-.192.685.685 0 0 1-.204-.504c0-.192.068-.352.204-.48a.692.692 0 0 1 .492-.192c.192 0 .352.064.48.192a.632.632 0 0 1 .204.48c0 .2-.068.368-.204.504a.651.651 0 0 1-.48.192Zm-1.824 9.912v-.864h.468c.296 0 .508-.064.636-.192.136-.12.204-.328.204-.624v-6.912h1.008v6.936c0 .576-.144.996-.432 1.26-.288.264-.708.396-1.26.396h-.624Zm6.05-2.496c-.496 0-.908-.084-1.236-.252a1.713 1.713 0 0 1-.972-1.584c0-.608.232-1.076.696-1.404.464-.328 1.096-.492 1.896-.492h1.608v-.072c0-.52-.136-.912-.408-1.176-.272-.272-.636-.408-1.092-.408-.392 0-.732.1-1.02.3-.28.192-.456.476-.528.852h-1.032c.04-.432.184-.796.432-1.092.256-.296.572-.52.948-.672.376-.16.776-.24 1.2-.24.832 0 1.456.224 1.872.672.424.44.636 1.028.636 1.764v3.66h-.9l-.06-1.068a2.39 2.39 0 0 1-.744.864c-.32.232-.752.348-1.296.348Zm.156-.852c.384 0 .712-.1.984-.3.28-.2.492-.46.636-.78a2.43 2.43 0 0 0 .216-1.008v-.012h-1.524c-.592 0-1.012.104-1.26.312-.24.2-.36.452-.36.756 0 .312.112.564.336.756.232.184.556.276.972.276Zm4.356.708v-8.64h1.008v3.708c.2-.368.484-.652.852-.852a2.398 2.398 0 0 1 1.2-.312c.688 0 1.24.216 1.656.648.416.424.624 1.08.624 1.968v3.48h-.996v-3.372c0-1.24-.5-1.86-1.5-1.86-.52 0-.956.188-1.308.564-.352.368-.528.896-.528 1.584v3.084h-1.008Zm9.575 0 3.096-8.4h1.068l3.084 8.4h-1.068l-.768-2.16h-3.576l-.78 2.16h-1.056Zm2.136-2.976h2.976l-1.488-4.152-1.488 4.152Zm6.301 2.976v-5.952h.912l.06 1.068c.192-.376.468-.672.828-.888.36-.216.768-.324 1.224-.324.704 0 1.264.216 1.68.648.424.424.636 1.08.636 1.968v3.48h-1.008v-3.372c0-1.24-.512-1.86-1.536-1.86-.512 0-.94.188-1.284.564-.336.368-.504.896-.504 1.584v3.084h-1.008Zm9.567.144c-.592 0-1.112-.136-1.56-.408a2.835 2.835 0 0 1-1.032-1.116c-.24-.472-.36-1.008-.36-1.608 0-.6.124-1.132.372-1.596a2.75 2.75 0 0 1 1.032-1.104c.44-.272.96-.408 1.56-.408.488 0 .92.1 1.296.3.376.2.668.48.876.84v-3.684h1.008v8.64h-.912l-.096-.984c-.192.288-.468.548-.828.78-.36.232-.812.348-1.356.348Zm.108-.876c.4 0 .752-.092 1.056-.276.312-.192.552-.456.72-.792.176-.336.264-.728.264-1.176 0-.448-.088-.84-.264-1.176a1.837 1.837 0 0 0-.72-.78 1.935 1.935 0 0 0-1.056-.288c-.392 0-.744.096-1.056.288a1.942 1.942 0 0 0-.72.78c-.168.336-.252.728-.252 1.176 0 .448.084.84.252 1.176.176.336.416.6.72.792a2.04 2.04 0 0 0 1.056.276Zm6.707.876c-.496 0-.908-.084-1.236-.252a1.713 1.713 0 0 1-.972-1.584c0-.608.232-1.076.696-1.404.464-.328 1.096-.492 1.896-.492h1.608v-.072c0-.52-.136-.912-.408-1.176-.272-.272-.636-.408-1.092-.408-.392 0-.732.1-1.02.3-.28.192-.456.476-.528.852h-1.032c.04-.432.184-.796.432-1.092.256-.296.572-.52.948-.672.376-.16.776-.24 1.2-.24.832 0 1.456.224 1.872.672.424.44.636 1.028.636 1.764v3.66h-.9l-.06-1.068a2.39 2.39 0 0 1-.744.864c-.32.232-.752.348-1.296.348Zm.156-.852c.384 0 .712-.1.984-.3.28-.2.492-.46.636-.78a2.43 2.43 0 0 0 .216-1.008v-.012h-1.524c-.592 0-1.012.104-1.26.312-.24.2-.36.452-.36.756 0 .312.112.564.336.756.232.184.556.276.972.276Zm9.884.708c-.544 0-.972-.132-1.284-.396-.312-.264-.468-.74-.468-1.428v-3.276h-1.032v-.852h1.032l.132-1.428h.876v1.428h1.752v.852h-1.752v3.276c0 .376.076.632.228.768.152.128.42.192.804.192h.624v.864h-.912Zm2.901-7.272a.707.707 0 0 1-.504-.192.707.707 0 0 1-.192-.504c0-.192.064-.352.192-.48a.707.707 0 0 1 .504-.192c.192 0 .356.064.492.192a.632.632 0 0 1 .204.48c0 .2-.068.368-.204.504a.692.692 0 0 1-.492.192Zm-.504 7.272v-5.952h1.008v5.952h-1.008Zm5.463.144c-.592 0-1.112-.136-1.56-.408a2.835 2.835 0 0 1-1.032-1.116c-.24-.472-.36-1.008-.36-1.608 0-.6.124-1.132.372-1.596a2.75 2.75 0 0 1 1.032-1.104c.44-.272.96-.408 1.56-.408.488 0 .92.1 1.296.3.376.2.668.48.876.84v-3.684h1.008v8.64h-.912l-.096-.984c-.192.288-.468.548-.828.78-.36.232-.812.348-1.356.348Zm.108-.876c.4 0 .752-.092 1.056-.276.312-.192.552-.456.72-.792.176-.336.264-.728.264-1.176 0-.448-.088-.84-.264-1.176a1.837 1.837 0 0 0-.72-.78 1.935 1.935 0 0 0-1.056-.288c-.392 0-.744.096-1.056.288a1.942 1.942 0 0 0-.72.78c-.168.336-.252.728-.252 1.176 0 .448.084.84.252 1.176.176.336.416.6.72.792a2.04 2.04 0 0 0 1.056.276Zm6.707.876c-.496 0-.908-.084-1.236-.252a1.713 1.713 0 0 1-.972-1.584c0-.608.232-1.076.696-1.404.464-.328 1.096-.492 1.896-.492h1.608v-.072c0-.52-.136-.912-.408-1.176-.272-.272-.636-.408-1.092-.408-.392 0-.732.1-1.02.3-.28.192-.456.476-.528.852h-1.032c.04-.432.184-.796.432-1.092.256-.296.572-.52.948-.672.376-.16.776-.24 1.2-.24.832 0 1.456.224 1.872.672.424.44.636 1.028.636 1.764v3.66h-.9l-.06-1.068a2.39 2.39 0 0 1-.744.864c-.32.232-.752.348-1.296.348Zm.156-.852c.384 0 .712-.1.984-.3.28-.2.492-.46.636-.78a2.43 2.43 0 0 0 .216-1.008v-.012h-1.524c-.592 0-1.012.104-1.26.312-.24.2-.36.452-.36.756 0 .312.112.564.336.756.232.184.556.276.972.276Zm4.356.708v-8.64h1.008v5.196l2.436-2.508h1.236l-2.64 2.688 2.976 3.264h-1.284l-2.724-3.084v3.084h-1.008Zm11.575 0c-.544 0-.972-.132-1.284-.396-.312-.264-.468-.74-.468-1.428v-3.276h-1.032v-.852h1.032l.132-1.428h.876v1.428h1.752v.852h-1.752v3.276c0 .376.076.632.228.768.152.128.42.192.804.192h.624v.864h-.912Zm4.8.144c-.568 0-1.072-.128-1.512-.384a2.856 2.856 0 0 1-1.044-1.092c-.248-.464-.372-1.012-.372-1.644 0-.624.124-1.168.372-1.632a2.667 2.667 0 0 1 1.032-1.092c.448-.264.964-.396 1.548-.396.576 0 1.072.132 1.488.396.424.256.748.596.972 1.02a2.885 2.885 0 0 1 .324 1.632v.3h-4.74c.024.456.128.836.312 1.14.192.296.428.52.708.672.288.152.592.228.912.228.416 0 .764-.096 1.044-.288.28-.192.484-.452.612-.78h.996a2.705 2.705 0 0 1-.924 1.38c-.448.36-1.024.54-1.728.54Zm0-5.388c-.48 0-.908.148-1.284.444-.368.288-.58.712-.636 1.272h3.744c-.024-.536-.208-.956-.552-1.26-.344-.304-.768-.456-1.272-.456Zm4.156 5.244v-5.952h.912l.084 1.14c.184-.392.464-.704.84-.936.376-.232.84-.348 1.392-.348v1.056h-.276c-.352 0-.676.064-.972.192-.296.12-.532.328-.708.624-.176.296-.264.704-.264 1.224v3h-1.008Zm4.36 0v-8.64h1.008v3.708c.2-.368.484-.652.852-.852a2.398 2.398 0 0 1 1.2-.312c.688 0 1.24.216 1.656.648.416.424.624 1.08.624 1.968v3.48h-.996v-3.372c0-1.24-.5-1.86-1.5-1.86-.52 0-.956.188-1.308.564-.352.368-.528.896-.528 1.584v3.084h-1.008Zm8.847.144c-.496 0-.908-.084-1.236-.252a1.713 1.713 0 0 1-.972-1.584c0-.608.232-1.076.696-1.404.464-.328 1.096-.492 1.896-.492h1.608v-.072c0-.52-.136-.912-.408-1.176-.272-.272-.636-.408-1.092-.408-.392 0-.732.1-1.02.3-.28.192-.456.476-.528.852h-1.032c.04-.432.184-.796.432-1.092.256-.296.572-.52.948-.672.376-.16.776-.24 1.2-.24.832 0 1.456.224 1.872.672.424.44.636 1.028.636 1.764v3.66h-.9l-.06-1.068a2.39 2.39 0 0 1-.744.864c-.32.232-.752.348-1.296.348Zm.156-.852c.384 0 .712-.1.984-.3.28-.2.492-.46.636-.78a2.43 2.43 0 0 0 .216-1.008v-.012h-1.524c-.592 0-1.012.104-1.26.312-.24.2-.36.452-.36.756 0 .312.112.564.336.756.232.184.556.276.972.276Zm4.356.708v-8.64h1.008v8.64h-1.008Zm4.64.144c-.496 0-.908-.084-1.236-.252a1.713 1.713 0 0 1-.972-1.584c0-.608.232-1.076.696-1.404.464-.328 1.096-.492 1.896-.492h1.608v-.072c0-.52-.136-.912-.408-1.176-.272-.272-.636-.408-1.092-.408-.392 0-.732.1-1.02.3-.28.192-.456.476-.528.852h-1.032c.04-.432.184-.796.432-1.092.256-.296.572-.52.948-.672.376-.16.776-.24 1.2-.24.832 0 1.456.224 1.872.672.424.44.636 1.028.636 1.764v3.66h-.9l-.06-1.068a2.39 2.39 0 0 1-.744.864c-.32.232-.752.348-1.296.348Zm.156-.852c.384 0 .712-.1.984-.3.28-.2.492-.46.636-.78a2.43 2.43 0 0 0 .216-1.008v-.012h-1.524c-.592 0-1.012.104-1.26.312-.24.2-.36.452-.36.756 0 .312.112.564.336.756.232.184.556.276.972.276Zm4.357.708v-5.952h.912l.06 1.068c.192-.376.468-.672.828-.888.36-.216.768-.324 1.224-.324.704 0 1.264.216 1.68.648.424.424.635 1.08.635 1.968v3.48h-1.007v-3.372c0-1.24-.512-1.86-1.536-1.86-.512 0-.94.188-1.284.564-.336.368-.504.896-.504 1.584v3.084h-1.008Zm9.219-1.872a3.07 3.07 0 0 1-.924-.132l-.6.564c.088.064.196.12.324.168.136.04.328.08.576.12.248.032.596.068 1.044.108.8.056 1.372.24 1.716.552.344.312.516.72.516 1.224 0 .344-.096.672-.288.984-.184.312-.472.568-.864.768-.384.2-.88.3-1.488.3a4.356 4.356 0 0 1-1.428-.216c-.416-.136-.74-.348-.972-.636-.232-.28-.348-.636-.348-1.068 0-.224.06-.468.18-.732.12-.256.344-.5.672-.732a3.022 3.022 0 0 1-.456-.228 2.898 2.898 0 0 1-.336-.288v-.276l1.02-1.008c-.472-.4-.708-.928-.708-1.584 0-.392.092-.748.276-1.068.184-.32.452-.572.804-.756.352-.192.78-.288 1.284-.288.344 0 .656.048.936.144h2.196v.756l-1.116.048c.232.336.348.724.348 1.164 0 .392-.096.748-.288 1.068-.184.32-.452.576-.804.768-.344.184-.768.276-1.272.276Zm0-.828c.424 0 .76-.108 1.008-.324.256-.224.384-.544.384-.96 0-.408-.128-.72-.384-.936-.248-.224-.584-.336-1.008-.336-.432 0-.776.112-1.032.336-.248.216-.372.528-.372.936 0 .416.124.736.372.96.256.216.6.324 1.032.324Zm-1.752 3.468c0 .4.168.696.504.888.336.2.756.3 1.26.3.496 0 .892-.108 1.188-.324a1.01 1.01 0 0 0 .456-.864.888.888 0 0 0-.312-.672c-.208-.184-.592-.292-1.152-.324-.44-.032-.82-.072-1.14-.12-.328.176-.544.364-.648.564-.104.208-.156.392-.156.552ZM65.828 179.766v-5.952h.912l.072.864c.192-.32.448-.568.768-.744.32-.176.68-.264 1.08-.264.472 0 .876.096 1.212.288.344.192.608.484.792.876.208-.36.492-.644.852-.852a2.375 2.375 0 0 1 1.188-.312c.712 0 1.28.216 1.704.648.424.424.636 1.08.636 1.968v3.48h-.996v-3.372c0-.616-.124-1.08-.372-1.392-.248-.312-.604-.468-1.068-.468-.48 0-.88.188-1.2.564-.312.368-.468.896-.468 1.584v3.084h-1.008v-3.372c0-.616-.124-1.08-.372-1.392-.248-.312-.604-.468-1.068-.468-.472 0-.868.188-1.188.564-.312.368-.468.896-.468 1.584v3.084h-1.008Zm12.714.144c-.496 0-.908-.084-1.236-.252a1.713 1.713 0 0 1-.972-1.584c0-.608.232-1.076.696-1.404.464-.328 1.096-.492 1.896-.492h1.608v-.072c0-.52-.136-.912-.408-1.176-.272-.272-.636-.408-1.092-.408-.392 0-.732.1-1.02.3-.28.192-.456.476-.528.852h-1.032c.04-.432.184-.796.432-1.092.256-.296.572-.52.948-.672.376-.16.776-.24 1.2-.24.832 0 1.456.224 1.872.672.424.44.636 1.028.636 1.764v3.66h-.9l-.06-1.068a2.39 2.39 0 0 1-.744.864c-.32.232-.752.348-1.296.348Zm.156-.852c.384 0 .712-.1.984-.3.28-.2.492-.46.636-.78a2.43 2.43 0 0 0 .216-1.008v-.012H79.01c-.592 0-1.012.104-1.26.312-.24.2-.36.452-.36.756 0 .312.112.564.336.756.232.184.556.276.972.276Zm6.637.852c-.712 0-1.304-.18-1.776-.54-.472-.36-.748-.848-.828-1.464h1.032c.064.312.228.584.492.816.272.224.636.336 1.092.336.424 0 .736-.088.936-.264.2-.184.3-.4.3-.648 0-.36-.132-.6-.396-.72-.256-.12-.62-.228-1.092-.324a6.189 6.189 0 0 1-.96-.276 2.221 2.221 0 0 1-.804-.504c-.216-.224-.324-.516-.324-.876 0-.52.192-.944.576-1.272.392-.336.92-.504 1.584-.504.632 0 1.148.16 1.548.48.408.312.644.76.708 1.344h-.996a1.008 1.008 0 0 0-.396-.708c-.216-.176-.508-.264-.876-.264-.36 0-.64.076-.84.228a.728.728 0 0 0-.288.6c0 .24.124.428.372.564.256.136.6.252 1.032.348.368.08.716.18 1.044.3.336.112.608.284.816.516.216.224.324.552.324.984.008.536-.196.98-.612 1.332-.408.344-.964.516-1.668.516Zm3.72-.144v-8.64h1.008v5.196l2.436-2.508h1.236l-2.64 2.688 2.976 3.264h-1.284l-2.724-3.084v3.084h-1.008Zm8.289.144c-.568 0-1.072-.128-1.512-.384a2.856 2.856 0 0 1-1.044-1.092c-.248-.464-.372-1.012-.372-1.644 0-.624.124-1.168.372-1.632a2.667 2.667 0 0 1 1.032-1.092c.448-.264.964-.396 1.548-.396.576 0 1.072.132 1.488.396.424.256.748.596.972 1.02a2.883 2.883 0 0 1 .324 1.632v.3h-4.74c.024.456.128.836.312 1.14.192.296.428.52.708.672.288.152.592.228.912.228.416 0 .764-.096 1.044-.288.28-.192.484-.452.612-.78h.996a2.705 2.705 0 0 1-.924 1.38c-.448.36-1.024.54-1.728.54Zm0-5.388c-.48 0-.908.148-1.284.444-.368.288-.58.712-.636 1.272h3.744c-.024-.536-.208-.956-.552-1.26-.344-.304-.768-.456-1.272-.456Zm4.156 5.244v-5.952h.912l.084 1.14c.184-.392.464-.704.84-.936.376-.232.84-.348 1.392-.348v1.056h-.276c-.352 0-.676.064-.972.192-.296.12-.532.328-.708.624-.176.296-.264.704-.264 1.224v3H101.5Zm3.18 1.428.696-2.652h1.044l-1.044 2.652h-.696Zm6.113-1.428v-8.64h1.008v5.196l2.436-2.508h1.236l-2.64 2.688 2.976 3.264h-1.284l-2.724-3.084v3.084h-1.008Zm7.98.144c-.496 0-.908-.084-1.236-.252a1.713 1.713 0 0 1-.972-1.584c0-.608.232-1.076.696-1.404.464-.328 1.096-.492 1.896-.492h1.608v-.072c0-.52-.136-.912-.408-1.176-.272-.272-.636-.408-1.092-.408-.392 0-.732.1-1.02.3-.28.192-.456.476-.528.852h-1.032c.04-.432.184-.796.432-1.092.256-.296.572-.52.948-.672.376-.16.776-.24 1.2-.24.832 0 1.456.224 1.872.672.424.44.636 1.028.636 1.764v3.66h-.9l-.06-1.068a2.39 2.39 0 0 1-.744.864c-.32.232-.752.348-1.296.348Zm.156-.852c.384 0 .712-.1.984-.3.28-.2.492-.46.636-.78a2.43 2.43 0 0 0 .216-1.008v-.012h-1.524c-.592 0-1.012.104-1.26.312-.24.2-.36.452-.36.756 0 .312.112.564.336.756.232.184.556.276.972.276Zm7.092.852c-.568 0-1.08-.128-1.536-.384a2.916 2.916 0 0 1-1.068-1.092c-.256-.472-.384-1.02-.384-1.644 0-.624.128-1.168.384-1.632.264-.472.62-.836 1.068-1.092a3.01 3.01 0 0 1 1.536-.396c.704 0 1.296.184 1.776.552.488.368.796.86.924 1.476h-1.032a1.301 1.301 0 0 0-.588-.852 1.922 1.922 0 0 0-1.092-.312 1.89 1.89 0 0 0-.948.252 1.88 1.88 0 0 0-.72.756c-.184.336-.276.752-.276 1.248s.092.912.276 1.248c.184.336.424.592.72.768.296.168.612.252.948.252.416 0 .78-.1 1.092-.3.312-.208.508-.5.588-.876h1.032c-.12.6-.424 1.088-.912 1.464-.488.376-1.084.564-1.788.564Zm6.088 0c-.496 0-.908-.084-1.236-.252a1.713 1.713 0 0 1-.972-1.584c0-.608.232-1.076.696-1.404.464-.328 1.096-.492 1.896-.492h1.608v-.072c0-.52-.136-.912-.408-1.176-.272-.272-.636-.408-1.092-.408-.392 0-.732.1-1.02.3-.28.192-.456.476-.528.852h-1.032c.04-.432.184-.796.432-1.092.256-.296.572-.52.948-.672.376-.16.776-.24 1.2-.24.832 0 1.456.224 1.872.672.424.44.636 1.028.636 1.764v3.66h-.9l-.06-1.068a2.39 2.39 0 0 1-.744.864c-.32.232-.752.348-1.296.348Zm.156-.852c.384 0 .712-.1.984-.3.28-.2.492-.46.636-.78a2.43 2.43 0 0 0 .216-1.008v-.012h-1.524c-.592 0-1.012.104-1.26.312-.24.2-.36.452-.36.756 0 .312.112.564.336.756.232.184.556.276.972.276Zm4.356.708v-5.952h.912l.072.864c.192-.32.448-.568.768-.744.32-.176.68-.264 1.08-.264.472 0 .876.096 1.212.288.344.192.608.484.792.876.208-.36.492-.644.852-.852a2.375 2.375 0 0 1 1.188-.312c.712 0 1.28.216 1.704.648.424.424.636 1.08.636 1.968v3.48h-.996v-3.372c0-.616-.124-1.08-.372-1.392-.248-.312-.604-.468-1.068-.468-.48 0-.88.188-1.2.564-.312.368-.468.896-.468 1.584v3.084h-1.008v-3.372c0-.616-.124-1.08-.372-1.392-.248-.312-.604-.468-1.068-.468-.472 0-.868.188-1.188.564-.312.368-.468.896-.468 1.584v3.084h-1.008Zm12.714.144c-.496 0-.908-.084-1.236-.252a1.713 1.713 0 0 1-.972-1.584c0-.608.232-1.076.696-1.404.464-.328 1.096-.492 1.896-.492h1.608v-.072c0-.52-.136-.912-.408-1.176-.272-.272-.636-.408-1.092-.408-.392 0-.732.1-1.02.3-.28.192-.456.476-.528.852h-1.032c.04-.432.184-.796.432-1.092.256-.296.572-.52.948-.672.376-.16.776-.24 1.2-.24.832 0 1.456.224 1.872.672.424.44.636 1.028.636 1.764v3.66h-.9l-.06-1.068a2.39 2.39 0 0 1-.744.864c-.32.232-.752.348-1.296.348Zm.156-.852c.384 0 .712-.1.984-.3.28-.2.492-.46.636-.78a2.43 2.43 0 0 0 .216-1.008v-.012h-1.524c-.592 0-1.012.104-1.26.312-.24.2-.36.452-.36.756 0 .312.112.564.336.756.232.184.556.276.972.276Zm6.544.708c-.544 0-.972-.132-1.284-.396-.312-.264-.468-.74-.468-1.428v-3.276h-1.032v-.852h1.032l.132-1.428h.876v1.428h1.752v.852h-1.752v3.276c0 .376.076.632.228.768.152.128.42.192.804.192h.624v.864h-.912Zm4.269.144c-.496 0-.908-.084-1.236-.252a1.713 1.713 0 0 1-.972-1.584c0-.608.232-1.076.696-1.404.464-.328 1.096-.492 1.896-.492h1.608v-.072c0-.52-.136-.912-.408-1.176-.272-.272-.636-.408-1.092-.408-.392 0-.732.1-1.02.3-.28.192-.456.476-.528.852h-1.032c.04-.432.184-.796.432-1.092.256-.296.572-.52.948-.672.376-.16.776-.24 1.2-.24.832 0 1.456.224 1.872.672.424.44.636 1.028.636 1.764v3.66h-.9l-.06-1.068a2.39 2.39 0 0 1-.744.864c-.32.232-.752.348-1.296.348Zm.156-.852c.384 0 .712-.1.984-.3.28-.2.492-.46.636-.78a2.43 2.43 0 0 0 .216-1.008v-.012h-1.524c-.592 0-1.012.104-1.26.312-.24.2-.36.452-.36.756 0 .312.112.564.336.756.232.184.556.276.972.276Zm9.512.852c-.496 0-.908-.084-1.236-.252a1.713 1.713 0 0 1-.972-1.584c0-.608.232-1.076.696-1.404.464-.328 1.096-.492 1.896-.492h1.608v-.072c0-.52-.136-.912-.408-1.176-.272-.272-.636-.408-1.092-.408-.392 0-.732.1-1.02.3-.28.192-.456.476-.528.852h-1.032c.04-.432.184-.796.432-1.092.256-.296.572-.52.948-.672.376-.16.776-.24 1.2-.24.832 0 1.456.224 1.872.672.424.44.636 1.028.636 1.764v3.66h-.9l-.06-1.068a2.39 2.39 0 0 1-.744.864c-.32.232-.752.348-1.296.348Zm.156-.852c.384 0 .712-.1.984-.3.28-.2.492-.46.636-.78a2.43 2.43 0 0 0 .216-1.008v-.012h-1.524c-.592 0-1.012.104-1.26.312-.24.2-.36.452-.36.756 0 .312.112.564.336.756.232.184.556.276.972.276Zm6.544.708c-.544 0-.972-.132-1.284-.396-.312-.264-.468-.74-.468-1.428v-3.276h-1.032v-.852h1.032l.132-1.428h.876v1.428h1.752v.852h-1.752v3.276c0 .376.076.632.228.768.152.128.42.192.804.192h.624v.864h-.912Zm4.269.144c-.496 0-.908-.084-1.236-.252a1.713 1.713 0 0 1-.972-1.584c0-.608.232-1.076.696-1.404.464-.328 1.096-.492 1.896-.492h1.608v-.072c0-.52-.136-.912-.408-1.176-.272-.272-.636-.408-1.092-.408-.392 0-.732.1-1.02.3-.28.192-.456.476-.528.852h-1.032c.04-.432.184-.796.432-1.092.256-.296.572-.52.948-.672.376-.16.776-.24 1.2-.24.832 0 1.456.224 1.872.672.424.44.636 1.028.636 1.764v3.66h-.9l-.06-1.068a2.39 2.39 0 0 1-.744.864c-.32.232-.752.348-1.296.348Zm.156-.852c.384 0 .712-.1.984-.3.28-.2.492-.46.636-.78a2.43 2.43 0 0 0 .216-1.008v-.012h-1.524c-.592 0-1.012.104-1.26.312-.24.2-.36.452-.36.756 0 .312.112.564.336.756.232.184.556.276.972.276Zm6.528.852c-.704 0-1.264-.212-1.68-.636-.416-.432-.624-1.092-.624-1.98v-3.48h1.008v3.372c0 1.24.508 1.86 1.524 1.86.52 0 .948-.184 1.284-.552.344-.376.516-.908.516-1.596v-3.084h1.008v5.952h-.912l-.072-1.068c-.184.376-.46.672-.828.888-.36.216-.768.324-1.224.324Zm7.871-.144v-8.64h1.008v8.64h-1.008Zm4.64.144c-.496 0-.908-.084-1.236-.252a1.713 1.713 0 0 1-.972-1.584c0-.608.232-1.076.696-1.404.464-.328 1.096-.492 1.896-.492h1.608v-.072c0-.52-.136-.912-.408-1.176-.272-.272-.636-.408-1.092-.408-.392 0-.732.1-1.02.3-.28.192-.456.476-.528.852h-1.032c.04-.432.184-.796.432-1.092.256-.296.572-.52.948-.672.376-.16.776-.24 1.2-.24.832 0 1.456.224 1.872.672.424.44.636 1.028.636 1.764v3.66h-.9l-.06-1.068a2.39 2.39 0 0 1-.744.864c-.32.232-.752.348-1.296.348Zm.156-.852c.384 0 .712-.1.984-.3.28-.2.492-.46.636-.78a2.43 2.43 0 0 0 .216-1.008v-.012h-1.524c-.592 0-1.012.104-1.26.312-.24.2-.36.452-.36.756 0 .312.112.564.336.756.232.184.556.276.972.276Zm4.968-6.564a.707.707 0 0 1-.504-.192.707.707 0 0 1-.192-.504c0-.192.064-.352.192-.48a.707.707 0 0 1 .504-.192c.192 0 .356.064.492.192a.632.632 0 0 1 .204.48c0 .2-.068.368-.204.504a.692.692 0 0 1-.492.192Zm-.504 7.272v-5.952h1.008v5.952h-1.008Zm2.763 0v-5.952h.912l.06 1.068c.192-.376.468-.672.828-.888.36-.216.768-.324 1.224-.324.704 0 1.264.216 1.68.648.424.424.636 1.08.636 1.968v3.48h-1.008v-3.372c0-1.24-.512-1.86-1.536-1.86-.512 0-.94.188-1.284.564-.336.368-.504.896-.504 1.584v3.084h-1.008Zm6.868 0v-5.952h.912l.06 1.068c.192-.376.468-.672.828-.888.36-.216.768-.324 1.224-.324.704 0 1.264.216 1.68.648.424.424.636 1.08.636 1.968v3.48h-1.008v-3.372c0-1.24-.512-1.86-1.536-1.86-.512 0-.94.188-1.284.564-.336.368-.504.896-.504 1.584v3.084h-1.008Zm7.339 2.64 1.476-3.216h-.348l-2.364-5.376h1.092l1.968 4.632 2.088-4.632h1.044l-3.9 8.592h-1.056Zm7.625-2.496c-.496 0-.908-.084-1.236-.252a1.713 1.713 0 0 1-.972-1.584c0-.608.232-1.076.696-1.404.464-.328 1.096-.492 1.896-.492h1.608v-.072c0-.52-.136-.912-.408-1.176-.272-.272-.636-.408-1.092-.408-.392 0-.732.1-1.02.3-.28.192-.456.476-.528.852h-1.032c.04-.432.184-.796.432-1.092.256-.296.572-.52.948-.672.376-.16.776-.24 1.2-.24.832 0 1.456.224 1.872.672.424.44.636 1.028.636 1.764v3.66h-.9l-.06-1.068a2.39 2.39 0 0 1-.744.864c-.32.232-.752.348-1.296.348Zm.156-.852c.384 0 .712-.1.984-.3.28-.2.492-.46.636-.78a2.43 2.43 0 0 0 .216-1.008v-.012h-1.524c-.592 0-1.012.104-1.26.312-.24.2-.36.452-.36.756 0 .312.112.564.336.756.232.184.556.276.972.276Z" fill="#2D2D2D"/><path d="M38.053 232.932h3.894M40 221.266v.833m5.303 1.363-.589.589m2.786 4.715h-.833m-13.334 0H32.5m2.786-4.715-.59-.589m2.357 8.25a4.163 4.163 0 0 1 .632-6.41 4.165 4.165 0 0 1 6.164 1.87 4.166 4.166 0 0 1-.902 4.54l-.457.456a2.81 2.81 0 0 0-.823 1.988v.443A1.664 1.664 0 0 1 40 236.266a1.666 1.666 0 0 1-1.667-1.667v-.443c0-.745-.296-1.461-.823-1.988l-.457-.456Z" stroke="#FA9D1C" stroke-linecap="round" stroke-linejoin="round" stroke-width="2"/><path d="M65.888 225.766v-8.4h2.76c.656 0 1.196.108 1.62.324.424.216.736.508.936.876.208.368.312.784.312 1.248 0 .456-.1.868-.3 1.236-.2.368-.512.664-.936.888-.424.216-.968.324-1.632.324h-1.752v3.504h-1.008Zm1.008-4.356h1.728c.672 0 1.148-.14 1.428-.42.288-.288.432-.68.432-1.176 0-.504-.144-.896-.432-1.176-.28-.288-.756-.432-1.428-.432h-1.728v3.204Zm7.58 4.5c-.496 0-.908-.084-1.236-.252a1.713 1.713 0 0 1-.972-1.584c0-.608.232-1.076.696-1.404.464-.328 1.096-.492 1.896-.492h1.608v-.072c0-.52-.136-.912-.408-1.176-.272-.272-.636-.408-1.092-.408-.392 0-.732.1-1.02.3-.28.192-.456.476-.528.852h-1.032c.04-.432.184-.796.432-1.092.256-.296.572-.52.948-.672.376-.16.776-.24 1.2-.24.832 0 1.456.224 1.872.672.424.44.636 1.028.636 1.764v3.66h-.9l-.06-1.068a2.39 2.39 0 0 1-.744.864c-.32.232-.752.348-1.296.348Zm.156-.852c.384 0 .712-.1.984-.3.28-.2.492-.46.636-.78a2.43 2.43 0 0 0 .216-1.008v-.012h-1.524c-.592 0-1.012.104-1.26.312-.24.2-.36.452-.36.756 0 .312.112.564.336.756.232.184.556.276.972.276Zm6.636.852c-.712 0-1.304-.18-1.776-.54-.472-.36-.748-.848-.828-1.464h1.032c.064.312.228.584.492.816.272.224.636.336 1.092.336.424 0 .736-.088.936-.264.2-.184.3-.4.3-.648 0-.36-.132-.6-.396-.72-.256-.12-.62-.228-1.092-.324a6.189 6.189 0 0 1-.96-.276 2.221 2.221 0 0 1-.804-.504c-.216-.224-.324-.516-.324-.876 0-.52.192-.944.576-1.272.392-.336.92-.504 1.584-.504.632 0 1.148.16 1.548.48.408.312.644.76.708 1.344h-.996a1.008 1.008 0 0 0-.396-.708c-.216-.176-.508-.264-.876-.264-.36 0-.64.076-.84.228a.728.728 0 0 0-.288.6c0 .24.124.428.372.564.256.136.6.252 1.032.348.368.08.716.18 1.044.3.336.112.608.284.816.516.216.224.324.552.324.984.008.536-.196.98-.612 1.332-.408.344-.964.516-1.668.516Zm5.803-.144c-.544 0-.972-.132-1.284-.396-.312-.264-.468-.74-.468-1.428v-3.276h-1.032v-.852h1.032l.132-1.428h.876v1.428h1.752v.852h-1.752v3.276c0 .376.076.632.228.768.152.128.42.192.804.192h.624v.864h-.912Zm2.9-7.272a.707.707 0 0 1-.504-.192.707.707 0 0 1-.192-.504c0-.192.064-.352.192-.48a.707.707 0 0 1 .504-.192c.192 0 .356.064.492.192a.632.632 0 0 1 .204.48c0 .2-.068.368-.204.504a.692.692 0 0 1-.492.192Zm-.504 7.272v-5.952h1.008v5.952h-1.008Zm2.763 0v-8.64h1.008v5.196l2.436-2.508h1.236l-2.64 2.688 2.976 3.264h-1.284l-2.724-3.084v3.084H92.23Zm7.98.144c-.496 0-.908-.084-1.236-.252a1.713 1.713 0 0 1-.972-1.584c0-.608.232-1.076.696-1.404.464-.328 1.096-.492 1.896-.492h1.608v-.072c0-.52-.136-.912-.408-1.176-.272-.272-.636-.408-1.092-.408-.392 0-.732.1-1.02.3-.28.192-.456.476-.528.852h-1.032c.04-.432.184-.796.432-1.092.256-.296.572-.52.948-.672.376-.16.776-.24 1.2-.24.832 0 1.456.224 1.872.672.424.44.636 1.028.636 1.764v3.66h-.9l-.06-1.068a2.39 2.39 0 0 1-.744.864c-.32.232-.752.348-1.296.348Zm.156-.852c.384 0 .712-.1.984-.3.28-.2.492-.46.636-.78a2.43 2.43 0 0 0 .216-1.008v-.012h-1.524c-.592 0-1.012.104-1.26.312-.24.2-.36.452-.36.756 0 .312.112.564.336.756.232.184.556.276.972.276Zm4.357.708v-5.952h.912l.06 1.068c.192-.376.468-.672.828-.888.36-.216.768-.324 1.224-.324.704 0 1.264.216 1.68.648.424.424.636 1.08.636 1.968v3.48h-1.008v-3.372c0-1.24-.512-1.86-1.536-1.86-.512 0-.94.188-1.284.564-.336.368-.504.896-.504 1.584v3.084h-1.008Zm9.575 0 3.096-8.4h1.068l3.084 8.4h-1.068l-.768-2.16h-3.576l-.78 2.16h-1.056Zm2.136-2.976h2.976l-1.488-4.152-1.488 4.152Zm6.3 2.976v-5.952h.912l.06 1.068c.192-.376.468-.672.828-.888.36-.216.768-.324 1.224-.324.704 0 1.264.216 1.68.648.424.424.636 1.08.636 1.968v3.48h-1.008v-3.372c0-1.24-.512-1.86-1.536-1.86-.512 0-.94.188-1.284.564-.336.368-.504.896-.504 1.584v3.084h-1.008Zm9.567.144c-.592 0-1.112-.136-1.56-.408a2.835 2.835 0 0 1-1.032-1.116c-.24-.472-.36-1.008-.36-1.608 0-.6.124-1.132.372-1.596a2.75 2.75 0 0 1 1.032-1.104c.44-.272.96-.408 1.56-.408.488 0 .92.1 1.296.3.376.2.668.48.876.84v-3.684h1.008v8.64h-.912l-.096-.984c-.192.288-.468.548-.828.78-.36.232-.812.348-1.356.348Zm.108-.876c.4 0 .752-.092 1.056-.276.312-.192.552-.456.72-.792.176-.336.264-.728.264-1.176 0-.448-.088-.84-.264-1.176a1.837 1.837 0 0 0-.72-.78 1.935 1.935 0 0 0-1.056-.288c-.392 0-.744.096-1.056.288a1.942 1.942 0 0 0-.72.78c-.168.336-.252.728-.252 1.176 0 .448.084.84.252 1.176.176.336.416.6.72.792a2.04 2.04 0 0 0 1.056.276Zm6.708.876c-.496 0-.908-.084-1.236-.252a1.713 1.713 0 0 1-.972-1.584c0-.608.232-1.076.696-1.404.464-.328 1.096-.492 1.896-.492h1.608v-.072c0-.52-.136-.912-.408-1.176-.272-.272-.636-.408-1.092-.408-.392 0-.732.1-1.02.3-.28.192-.456.476-.528.852h-1.032c.04-.432.184-.796.432-1.092.256-.296.572-.52.948-.672.376-.16.776-.24 1.2-.24.832 0 1.456.224 1.872.672.424.44.636 1.028.636 1.764v3.66h-.9l-.06-1.068a2.39 2.39 0 0 1-.744.864c-.32.232-.752.348-1.296.348Zm.156-.852c.384 0 .712-.1.984-.3.28-.2.492-.46.636-.78a2.43 2.43 0 0 0 .216-1.008v-.012h-1.524c-.592 0-1.012.104-1.26.312-.24.2-.36.452-.36.756 0 .312.112.564.336.756.232.184.556.276.972.276Zm10.712.852c-.488 0-.924-.1-1.308-.3-.376-.2-.664-.48-.864-.84l-.096.996h-.912v-8.64h1.008v3.672c.192-.288.464-.548.816-.78.36-.232.816-.348 1.368-.348.592 0 1.108.136 1.548.408.44.272.78.644 1.02 1.116.248.472.372 1.008.372 1.608 0 .6-.124 1.136-.372 1.608-.24.464-.584.832-1.032 1.104-.44.264-.956.396-1.548.396Zm-.108-.876c.4 0 .752-.092 1.056-.276.304-.192.544-.456.72-.792.176-.336.264-.728.264-1.176 0-.448-.088-.84-.264-1.176a1.942 1.942 0 0 0-.72-.78 1.935 1.935 0 0 0-1.056-.288c-.4 0-.752.096-1.056.288a1.942 1.942 0 0 0-.72.78c-.176.336-.264.728-.264 1.176 0 .448.088.84.264 1.176.176.336.416.6.72.792.304.184.656.276 1.056.276Zm7.139.876c-.568 0-1.072-.128-1.512-.384a2.856 2.856 0 0 1-1.044-1.092c-.248-.464-.372-1.012-.372-1.644 0-.624.124-1.168.372-1.632a2.667 2.667 0 0 1 1.032-1.092c.448-.264.964-.396 1.548-.396.576 0 1.072.132 1.488.396.424.256.748.596.972 1.02a2.885 2.885 0 0 1 .324 1.632v.3h-4.74c.024.456.128.836.312 1.14.192.296.428.52.708.672.288.152.592.228.912.228.416 0 .764-.096 1.044-.288.28-.192.484-.452.612-.78h.996a2.705 2.705 0 0 1-.924 1.38c-.448.36-1.024.54-1.728.54Zm0-5.388c-.48 0-.908.148-1.284.444-.368.288-.58.712-.636 1.272h3.744c-.024-.536-.208-.956-.552-1.26-.344-.304-.768-.456-1.272-.456Zm4.156 5.244v-5.952h.912l.084 1.14c.184-.392.464-.704.84-.936.376-.232.84-.348 1.392-.348v1.056h-.276c-.352 0-.676.064-.972.192-.296.12-.532.328-.708.624-.176.296-.264.704-.264 1.224v3h-1.008Zm6.339.144c-.496 0-.908-.084-1.236-.252a1.713 1.713 0 0 1-.972-1.584c0-.608.232-1.076.696-1.404.464-.328 1.096-.492 1.896-.492h1.608v-.072c0-.52-.136-.912-.408-1.176-.272-.272-.636-.408-1.092-.408-.392 0-.732.1-1.02.3-.28.192-.456.476-.528.852h-1.032c.04-.432.184-.796.432-1.092.256-.296.572-.52.948-.672.376-.16.776-.24 1.2-.24.832 0 1.456.224 1.872.672.424.44.636 1.028.636 1.764v3.66h-.9l-.06-1.068a2.39 2.39 0 0 1-.744.864c-.32.232-.752.348-1.296.348Zm.156-.852c.384 0 .712-.1.984-.3.28-.2.492-.46.636-.78a2.43 2.43 0 0 0 .216-1.008v-.012h-1.524c-.592 0-1.012.104-1.26.312-.24.2-.36.452-.36.756 0 .312.112.564.336.756.232.184.556.276.972.276Zm7.056.852c-.592 0-1.112-.136-1.56-.408a2.835 2.835 0 0 1-1.032-1.116c-.24-.472-.36-1.008-.36-1.608 0-.6.124-1.132.372-1.596a2.75 2.75 0 0 1 1.032-1.104c.44-.272.96-.408 1.56-.408.488 0 .92.1 1.296.3.376.2.668.48.876.84v-3.684h1.008v8.64h-.912l-.096-.984c-.192.288-.468.548-.828.78-.36.232-.812.348-1.356.348Zm.108-.876c.4 0 .752-.092 1.056-.276.312-.192.552-.456.72-.792.176-.336.264-.728.264-1.176 0-.448-.088-.84-.264-1.176a1.837 1.837 0 0 0-.72-.78 1.935 1.935 0 0 0-1.056-.288c-.392 0-.744.096-1.056.288a1.942 1.942 0 0 0-.72.78c-.168.336-.252.728-.252 1.176 0 .448.084.84.252 1.176.176.336.416.6.72.792a2.04 2.04 0 0 0 1.056.276Zm6.707.876c-.496 0-.908-.084-1.236-.252a1.713 1.713 0 0 1-.972-1.584c0-.608.232-1.076.696-1.404.464-.328 1.096-.492 1.896-.492h1.608v-.072c0-.52-.136-.912-.408-1.176-.272-.272-.636-.408-1.092-.408-.392 0-.732.1-1.02.3-.28.192-.456.476-.528.852h-1.032c.04-.432.184-.796.432-1.092.256-.296.572-.52.948-.672.376-.16.776-.24 1.2-.24.832 0 1.456.224 1.872.672.424.44.636 1.028.636 1.764v3.66h-.9l-.06-1.068a2.39 2.39 0 0 1-.744.864c-.32.232-.752.348-1.296.348Zm.156-.852c.384 0 .712-.1.984-.3.28-.2.492-.46.636-.78a2.43 2.43 0 0 0 .216-1.008v-.012h-1.524c-.592 0-1.012.104-1.26.312-.24.2-.36.452-.36.756 0 .312.112.564.336.756.232.184.556.276.972.276Zm10.232.852c-.592 0-1.112-.136-1.56-.408a2.835 2.835 0 0 1-1.032-1.116c-.24-.472-.36-1.008-.36-1.608 0-.6.124-1.132.372-1.596a2.75 2.75 0 0 1 1.032-1.104c.44-.272.96-.408 1.56-.408.488 0 .92.1 1.296.3.376.2.668.48.876.84v-3.684h1.008v8.64h-.912l-.096-.984c-.192.288-.468.548-.828.78-.36.232-.812.348-1.356.348Zm.108-.876c.4 0 .752-.092 1.056-.276.312-.192.552-.456.72-.792.176-.336.264-.728.264-1.176 0-.448-.088-.84-.264-1.176a1.837 1.837 0 0 0-.72-.78 1.935 1.935 0 0 0-1.056-.288c-.392 0-.744.096-1.056.288a1.942 1.942 0 0 0-.72.78c-.168.336-.252.728-.252 1.176 0 .448.084.84.252 1.176.176.336.416.6.72.792a2.04 2.04 0 0 0 1.056.276Zm5.34-6.54a.707.707 0 0 1-.504-.192.707.707 0 0 1-.192-.504c0-.192.064-.352.192-.48a.707.707 0 0 1 .504-.192c.192 0 .356.064.492.192a.632.632 0 0 1 .204.48c0 .2-.068.368-.204.504a.692.692 0 0 1-.492.192Zm-.504 7.272v-5.952h1.008v5.952h-1.008Zm8.29 0c-.544 0-.972-.132-1.284-.396-.312-.264-.468-.74-.468-1.428v-3.276h-1.032v-.852h1.032l.132-1.428h.876v1.428h1.752v.852h-1.752v3.276c0 .376.076.632.228.768.152.128.42.192.804.192h.624v.864h-.912Zm4.801.144c-.568 0-1.072-.128-1.512-.384a2.856 2.856 0 0 1-1.044-1.092c-.248-.464-.372-1.012-.372-1.644 0-.624.124-1.168.372-1.632a2.667 2.667 0 0 1 1.032-1.092c.448-.264.964-.396 1.548-.396.576 0 1.072.132 1.488.396.424.256.748.596.972 1.02a2.885 2.885 0 0 1 .324 1.632v.3h-4.74c.024.456.128.836.312 1.14.192.296.428.52.708.672.288.152.592.228.912.228.416 0 .764-.096 1.044-.288.28-.192.484-.452.612-.78h.996a2.705 2.705 0 0 1-.924 1.38c-.448.36-1.024.54-1.728.54Zm0-5.388c-.48 0-.908.148-1.284.444-.368.288-.58.712-.636 1.272h3.744c-.024-.536-.208-.956-.552-1.26-.344-.304-.768-.456-1.272-.456Zm4.156 5.244v-5.952h.912l.072.864c.192-.32.448-.568.768-.744.32-.176.68-.264 1.08-.264.472 0 .876.096 1.212.288.344.192.608.484.792.876.208-.36.492-.644.852-.852a2.375 2.375 0 0 1 1.188-.312c.712 0 1.28.216 1.704.648.424.424.636 1.08.636 1.968v3.48h-.996v-3.372c0-.616-.124-1.08-.372-1.392-.248-.312-.604-.468-1.068-.468-.48 0-.88.188-1.2.564-.312.368-.468.896-.468 1.584v3.084h-1.008v-3.372c0-.616-.124-1.08-.372-1.392-.248-.312-.604-.468-1.068-.468-.472 0-.868.188-1.188.564-.312.368-.468.896-.468 1.584v3.084h-1.008Zm10.734 2.64v-8.592h.912l.096.984c.192-.288.464-.548.816-.78.36-.232.816-.348 1.368-.348.592 0 1.108.136 1.548.408.44.272.78.644 1.02 1.116.248.472.372 1.008.372 1.608 0 .6-.124 1.136-.372 1.608-.24.464-.584.832-1.032 1.104-.44.264-.956.396-1.548.396-.488 0-.924-.1-1.308-.3-.376-.2-.664-.48-.864-.84v3.636h-1.008Zm3.072-3.372c.4 0 .752-.092 1.056-.276.304-.192.544-.456.72-.792.176-.336.264-.728.264-1.176 0-.448-.088-.84-.264-1.176a1.942 1.942 0 0 0-.72-.78 1.935 1.935 0 0 0-1.056-.288c-.4 0-.752.096-1.056.288a1.942 1.942 0 0 0-.72.78c-.176.336-.264.728-.264 1.176 0 .448.088.84.264 1.176.176.336.416.6.72.792.304.184.656.276 1.056.276Zm6.444.876c-.496 0-.908-.084-1.236-.252a1.713 1.713 0 0 1-.972-1.584c0-.608.232-1.076.696-1.404.464-.328 1.096-.492 1.896-.492h1.608v-.072c0-.52-.136-.912-.408-1.176-.272-.272-.636-.408-1.092-.408-.392 0-.732.1-1.02.3-.28.192-.456.476-.528.852h-1.032c.04-.432.184-.796.432-1.092.256-.296.572-.52.948-.672.376-.16.776-.24 1.2-.24.832 0 1.456.224 1.872.672.424.44.636 1.028.636 1.764v3.66h-.9l-.06-1.068a2.39 2.39 0 0 1-.744.864c-.32.232-.752.348-1.296.348Zm.156-.852c.384 0 .712-.1.984-.3.28-.2.492-.46.636-.78a2.43 2.43 0 0 0 .216-1.008v-.012h-1.524c-.592 0-1.012.104-1.26.312-.24.2-.36.452-.36.756 0 .312.112.564.336.756.232.184.556.276.972.276Zm6.544.708c-.544 0-.972-.132-1.284-.396-.312-.264-.468-.74-.468-1.428v-3.276h-1.032v-.852h1.032l.132-1.428h.876v1.428h1.752v.852h-1.752v3.276c0 .376.076.632.228.768.152.128.42.192.804.192h.624v.864h-.912Zm-172.887 16c-.544 0-.972-.132-1.284-.396-.312-.264-.468-.74-.468-1.428v-3.276h-1.032v-.852h1.032l.132-1.428h.876v1.428h1.752v.852h-1.752v3.276c0 .376.076.632.228.768.152.128.42.192.804.192h.624v.864h-.912Zm4.8.144c-.567 0-1.071-.128-1.511-.384a2.856 2.856 0 0 1-1.044-1.092c-.248-.464-.372-1.012-.372-1.644 0-.624.124-1.168.372-1.632a2.667 2.667 0 0 1 1.032-1.092c.448-.264.964-.396 1.548-.396.576 0 1.072.132 1.488.396.424.256.748.596.972 1.02a2.885 2.885 0 0 1 .324 1.632v.3h-4.74c.024.456.128.836.312 1.14.192.296.428.52.708.672.288.152.592.228.912.228.416 0 .764-.096 1.044-.288.28-.192.484-.452.612-.78h.996a2.705 2.705 0 0 1-.924 1.38c-.448.36-1.024.54-1.728.54Zm0-5.388c-.48 0-.907.148-1.283.444-.368.288-.58.712-.636 1.272h3.744c-.024-.536-.208-.956-.552-1.26-.344-.304-.768-.456-1.272-.456Zm4.157 5.244v-5.952h.912l.084 1.14c.184-.392.464-.704.84-.936.376-.232.84-.348 1.392-.348v1.056h-.276c-.352 0-.676.064-.972.192-.296.12-.532.328-.708.624-.176.296-.264.704-.264 1.224v3h-1.008Zm6.339.144c-.496 0-.908-.084-1.236-.252a1.713 1.713 0 0 1-.972-1.584c0-.608.232-1.076.696-1.404.464-.328 1.096-.492 1.896-.492h1.608v-.072c0-.52-.136-.912-.408-1.176-.272-.272-.636-.408-1.092-.408-.392 0-.732.1-1.02.3-.28.192-.456.476-.528.852h-1.032c.04-.432.184-.796.432-1.092.256-.296.572-.52.948-.672.376-.16.776-.24 1.2-.24.832 0 1.456.224 1.872.672.424.44.636 1.028.636 1.764v3.66h-.9l-.06-1.068a2.39 2.39 0 0 1-.744.864c-.32.232-.752.348-1.296.348Zm.156-.852c.384 0 .712-.1.984-.3.28-.2.492-.46.636-.78a2.43 2.43 0 0 0 .216-1.008v-.012h-1.524c-.592 0-1.012.104-1.26.312-.24.2-.36.452-.36.756 0 .312.112.564.336.756.232.184.556.276.972.276Zm4.356.708v-5.952h.912l.06 1.068c.192-.376.468-.672.828-.888.36-.216.768-.324 1.224-.324.704 0 1.264.216 1.68.648.424.424.636 1.08.636 1.968v3.48H92.32v-3.372c0-1.24-.512-1.86-1.536-1.86-.512 0-.94.188-1.284.564-.336.368-.504.896-.504 1.584v3.084h-1.008Zm9.22-1.872a3.07 3.07 0 0 1-.925-.132l-.6.564c.088.064.196.12.324.168.136.04.328.08.576.12.248.032.596.068 1.044.108.8.056 1.372.24 1.716.552.344.312.516.72.516 1.224 0 .344-.096.672-.288.984-.184.312-.472.568-.864.768-.384.2-.88.3-1.488.3a4.356 4.356 0 0 1-1.428-.216c-.416-.136-.74-.348-.972-.636-.232-.28-.348-.636-.348-1.068 0-.224.06-.468.18-.732.12-.256.344-.5.672-.732a3.022 3.022 0 0 1-.456-.228 2.898 2.898 0 0 1-.336-.288v-.276l1.02-1.008c-.472-.4-.708-.928-.708-1.584 0-.392.092-.748.276-1.068.184-.32.452-.572.804-.756.352-.192.78-.288 1.284-.288.344 0 .656.048.936.144h2.196v.756l-1.116.048c.232.336.348.724.348 1.164 0 .392-.096.748-.288 1.068-.184.32-.452.576-.804.768-.344.184-.768.276-1.272.276Zm0-.828c.423 0 .76-.108 1.007-.324.256-.224.384-.544.384-.96 0-.408-.128-.72-.384-.936-.248-.224-.584-.336-1.008-.336-.432 0-.776.112-1.032.336-.248.216-.372.528-.372.936 0 .416.124.736.372.96.256.216.6.324 1.032.324Zm-1.753 3.468c0 .4.168.696.504.888.336.2.756.3 1.26.3.496 0 .892-.108 1.188-.324a1.01 1.01 0 0 0 .456-.864.888.888 0 0 0-.312-.672c-.208-.184-.592-.292-1.152-.324-.44-.032-.82-.072-1.14-.12-.328.176-.544.364-.648.564-.104.208-.156.392-.156.552Z" fill="#000"/><defs><linearGradient id="c" x1="299" x2="299" y1="60.828" y2="64.891" gradientUnits="userSpaceOnUse"><stop stop-color="#FA9D1C" stop-opacity=".82"/><stop offset="1" stop-color="#FFCA08"/></linearGradient><linearGradient id="d" x1="307" x2="307" y1="69.203" y2="71.641" gradientUnits="userSpaceOnUse"><stop stop-color="#FA9D1C" stop-opacity=".82"/><stop offset="1" stop-color="#FFCA08"/></linearGradient><linearGradient id="g" x1="299" x2="299" y1="106.828" y2="110.891" gradientUnits="userSpaceOnUse"><stop stop-color="#FA9D1C" stop-opacity=".82"/><stop offset="1" stop-color="#FFCA08"/></linearGradient><linearGradient id="h" x1="307" x2="307" y1="115.203" y2="117.641" gradientUnits="userSpaceOnUse"><stop stop-color="#FA9D1C" stop-opacity=".82"/><stop offset="1" stop-color="#FFCA08"/></linearGradient><linearGradient id="k" x1="299" x2="299" y1="152.828" y2="156.891" gradientUnits="userSpaceOnUse"><stop stop-color="#FA9D1C" stop-opacity=".82"/><stop offset="1" stop-color="#FFCA08"/></linearGradient><linearGradient id="l" x1="307" x2="307" y1="161.203" y2="163.641" gradientUnits="userSpaceOnUse"><stop stop-color="#FA9D1C" stop-opacity=".82"/><stop offset="1" stop-color="#FFCA08"/></linearGradient><linearGradient id="o" x1="299" x2="299" y1="214.828" y2="218.891" gradientUnits="userSpaceOnUse"><stop stop-color="#FA9D1C" stop-opacity=".82"/><stop offset="1" stop-color="#FFCA08"/></linearGradient><linearGradient id="p" x1="307" x2="307" y1="223.203" y2="225.641" gradientUnits="userSpaceOnUse"><stop stop-color="#FA9D1C" stop-opacity=".82"/><stop offset="1" stop-color="#FFCA08"/></linearGradient></defs></svg>