<svg width="48" height="48" viewBox="0 0 48 48" fill="none" xmlns="http://www.w3.org/2000/svg">
<rect opacity="0.2" width="48" height="48" rx="14" fill="#FA9D1C"/>
<path fill-rule="evenodd" clip-rule="evenodd" d="M30.1763 18.5062C30.1763 21.9328 27.429 24.6803 24 24.6803C20.5722 24.6803 17.8237 21.9328 17.8237 18.5062C17.8237 15.0797 20.5722 12.3333 24 12.3333C27.429 12.3333 30.1763 15.0797 30.1763 18.5062ZM24 35.6667C18.9395 35.6667 14.6667 34.8442 14.6667 31.6708C14.6667 28.4963 18.9663 27.7029 24 27.7029C29.0617 27.7029 33.3334 28.5254 33.3334 31.6988C33.3334 34.8733 29.0337 35.6667 24 35.6667Z" fill="#FA9D1C"/>
<rect x="25.75" y="31.75" width="12.5" height="8.5" rx="1.25" fill="#FA9D1C" stroke="#FEEBD2" stroke-width="1.5"/>
<path fill-rule="evenodd" clip-rule="evenodd" d="M34.0833 38.1817C33.8622 38.3796 33.5701 38.5 33.25 38.5C32.5596 38.5 32 37.9404 32 37.25C32 36.5596 32.5596 36 33.25 36C33.5701 36 33.8622 36.1204 34.0833 36.3183C34.3045 36.1204 34.5965 36 34.9167 36C35.607 36 36.1667 36.5596 36.1667 37.25C36.1667 37.9404 35.607 38.5 34.9167 38.5C34.5965 38.5 34.3045 38.3796 34.0833 38.1817Z" fill="#FEEBD2"/>
</svg>
