<svg width="48" height="48" viewBox="0 0 48 48" fill="none" xmlns="http://www.w3.org/2000/svg">
<rect opacity="0.2" width="48" height="48" rx="14" fill="#FA9D1C"/>
<path d="M18.2055 14.6316C17.4106 14.5428 16.5894 14.5428 15.7945 14.6316C15.1958 14.6985 14.7107 15.1697 14.6398 15.7758C14.5446 16.5892 14.5446 17.4108 14.6398 18.2242C14.7107 18.8303 15.1958 19.3015 15.7945 19.3684C16.5894 19.4572 17.4106 19.4572 18.2055 19.3684C18.8042 19.3015 19.2893 18.8303 19.3602 18.2242C19.4554 17.4108 19.4554 16.5892 19.3602 15.7758C19.2893 15.1697 18.8042 14.6985 18.2055 14.6316Z" fill="#FA9D1C"/>
<path d="M25.2055 14.6316C24.4106 14.5428 23.5894 14.5428 22.7945 14.6316C22.1958 14.6985 21.7106 15.1697 21.6398 15.7758C21.5446 16.5892 21.5446 17.4108 21.6398 18.2242C21.7106 18.8303 22.1958 19.3015 22.7945 19.3684C23.5894 19.4572 24.4106 19.4572 25.2055 19.3684C25.8042 19.3015 26.2893 18.8303 26.3602 18.2242C26.4553 17.4108 26.4553 16.5892 26.3602 15.7758C26.2893 15.1697 25.8042 14.6985 25.2055 14.6316Z" fill="#FA9D1C"/>
<path d="M32.2055 14.6316C31.4106 14.5428 30.5894 14.5428 29.7945 14.6316C29.1958 14.6985 28.7106 15.1697 28.6398 15.7758C28.5446 16.5892 28.5446 17.4108 28.6398 18.2242C28.7106 18.8303 29.1958 19.3015 29.7945 19.3684C30.5894 19.4572 31.4106 19.4572 32.2055 19.3684C32.8042 19.3015 33.2893 18.8303 33.3602 18.2242C33.4553 17.4108 33.4553 16.5892 33.3602 15.7758C33.2893 15.1697 32.8042 14.6985 32.2055 14.6316Z" fill="#FA9D1C"/>
<path d="M18.2055 21.6316C17.4106 21.5428 16.5894 21.5428 15.7945 21.6316C15.1958 21.6985 14.7107 22.1697 14.6398 22.7758C14.5446 23.5892 14.5446 24.4108 14.6398 25.2242C14.7107 25.8303 15.1958 26.3015 15.7945 26.3684C16.5894 26.4572 17.4106 26.4572 18.2055 26.3684C18.8042 26.3015 19.2893 25.8303 19.3602 25.2242C19.4554 24.4108 19.4554 23.5892 19.3602 22.7758C19.2893 22.1697 18.8042 21.6985 18.2055 21.6316Z" fill="#FA9D1C"/>
<path d="M25.2055 21.6316C24.4106 21.5428 23.5894 21.5428 22.7945 21.6316C22.1958 21.6985 21.7106 22.1697 21.6398 22.7758C21.5446 23.5892 21.5446 24.4108 21.6398 25.2242C21.7106 25.8303 22.1958 26.3015 22.7945 26.3684C23.5894 26.4572 24.4106 26.4572 25.2055 26.3684C25.8042 26.3015 26.2893 25.8303 26.3602 25.2242C26.4553 24.4108 26.4553 23.5892 26.3602 22.7758C26.2893 22.1697 25.8042 21.6985 25.2055 21.6316Z" fill="#FA9D1C"/>
<path d="M32.2055 21.6316C31.4106 21.5428 30.5894 21.5428 29.7945 21.6316C29.1958 21.6985 28.7106 22.1697 28.6398 22.7758C28.5446 23.5892 28.5446 24.4108 28.6398 25.2242C28.7106 25.8303 29.1958 26.3015 29.7945 26.3684C30.5894 26.4572 31.4106 26.4572 32.2055 26.3684C32.8042 26.3015 33.2893 25.8303 33.3602 25.2242C33.4553 24.4108 33.4553 23.5892 33.3602 22.7758C33.2893 22.1697 32.8042 21.6985 32.2055 21.6316Z" fill="#FA9D1C"/>
<path d="M18.2055 28.6316C17.4106 28.5428 16.5894 28.5428 15.7945 28.6316C15.1958 28.6985 14.7107 29.1697 14.6398 29.7758C14.5446 30.5892 14.5446 31.4108 14.6398 32.2242C14.7107 32.8303 15.1958 33.3015 15.7945 33.3684C16.5894 33.4572 17.4106 33.4572 18.2055 33.3684C18.8042 33.3015 19.2893 32.8303 19.3602 32.2242C19.4554 31.4108 19.4554 30.5892 19.3602 29.7758C19.2893 29.1697 18.8042 28.6985 18.2055 28.6316Z" fill="#FA9D1C"/>
<path d="M25.2055 28.6316C24.4106 28.5428 23.5894 28.5428 22.7945 28.6316C22.1958 28.6985 21.7106 29.1697 21.6398 29.7758C21.5446 30.5892 21.5446 31.4108 21.6398 32.2242C21.7106 32.8303 22.1958 33.3015 22.7945 33.3684C23.5894 33.4572 24.4106 33.4572 25.2055 33.3684C25.8042 33.3015 26.2893 32.8303 26.3602 32.2242C26.4553 31.4108 26.4553 30.5892 26.3602 29.7758C26.2893 29.1697 25.8042 28.6985 25.2055 28.6316Z" fill="#FA9D1C"/>
<path d="M32.2055 28.6316C31.4106 28.5428 30.5894 28.5428 29.7945 28.6316C29.1958 28.6985 28.7106 29.1697 28.6398 29.7758C28.5446 30.5892 28.5446 31.4108 28.6398 32.2242C28.7106 32.8303 29.1958 33.3015 29.7945 33.3684C30.5894 33.4572 31.4106 33.4572 32.2055 33.3684C32.8042 33.3015 33.2893 32.8303 33.3602 32.2242C33.4553 31.4108 33.4553 30.5892 33.3602 29.7758C33.2893 29.1697 32.8042 28.6985 32.2055 28.6316Z" fill="#FA9D1C"/>
</svg>
