<svg width="193" height="75" viewBox="0 0 193 75" fill="none" xmlns="http://www.w3.org/2000/svg">
<rect width="193" height="75" rx="8" fill="#FA9D1C" fill-opacity="0.15"/>
<path d="M55.816 61V52.6H57.352V59.8H61.072V61H55.816ZM63.2174 54.124C62.9374 54.124 62.7054 54.04 62.5214 53.872C62.3454 53.704 62.2574 53.492 62.2574 53.236C62.2574 52.98 62.3454 52.772 62.5214 52.612C62.7054 52.444 62.9374 52.36 63.2174 52.36C63.4974 52.36 63.7254 52.444 63.9014 52.612C64.0854 52.772 64.1774 52.98 64.1774 53.236C64.1774 53.492 64.0854 53.704 63.9014 53.872C63.7254 54.04 63.4974 54.124 63.2174 54.124ZM62.4494 61V55.048H63.9854V61H62.4494ZM65.5886 61V52.36H67.1246V55.96C67.3246 55.632 67.5926 55.376 67.9286 55.192C68.2726 55 68.6646 54.904 69.1046 54.904C69.8406 54.904 70.4086 55.136 70.8086 55.6C71.2166 56.064 71.4206 56.744 71.4206 57.64V61H69.8966V57.784C69.8966 57.272 69.7926 56.88 69.5846 56.608C69.3846 56.336 69.0646 56.2 68.6246 56.2C68.1926 56.2 67.8326 56.352 67.5446 56.656C67.2646 56.96 67.1246 57.384 67.1246 57.928V61H65.5886ZM74.9414 61.144C74.4294 61.144 74.0094 61.064 73.6814 60.904C73.3534 60.736 73.1094 60.516 72.9494 60.244C72.7894 59.972 72.7094 59.672 72.7094 59.344C72.7094 58.792 72.9254 58.344 73.3574 58C73.7894 57.656 74.4374 57.484 75.3014 57.484H76.8134V57.34C76.8134 56.932 76.6974 56.632 76.4654 56.44C76.2334 56.248 75.9454 56.152 75.6014 56.152C75.2894 56.152 75.0174 56.228 74.7854 56.38C74.5534 56.524 74.4094 56.74 74.3534 57.028H72.8534C72.8934 56.596 73.0374 56.22 73.2854 55.9C73.5414 55.58 73.8694 55.336 74.2694 55.168C74.6694 54.992 75.1174 54.904 75.6134 54.904C76.4614 54.904 77.1294 55.116 77.6174 55.54C78.1054 55.964 78.3494 56.564 78.3494 57.34V61H77.0414L76.8974 60.04C76.7214 60.36 76.4734 60.624 76.1534 60.832C75.8414 61.04 75.4374 61.144 74.9414 61.144ZM75.2894 59.944C75.7294 59.944 76.0694 59.8 76.3094 59.512C76.5574 59.224 76.7134 58.868 76.7774 58.444H75.4694C75.0614 58.444 74.7694 58.52 74.5934 58.672C74.4174 58.816 74.3294 58.996 74.3294 59.212C74.3294 59.444 74.4174 59.624 74.5934 59.752C74.7694 59.88 75.0014 59.944 75.2894 59.944ZM82.3851 61C81.7611 61 81.2611 60.848 80.8851 60.544C80.5091 60.24 80.3211 59.7 80.3211 58.924V56.332H79.3011V55.048H80.3211L80.5011 53.452H81.8571V55.048H83.4651V56.332H81.8571V58.936C81.8571 59.224 81.9171 59.424 82.0371 59.536C82.1651 59.64 82.3811 59.692 82.6851 59.692H83.4291V61H82.3851ZM87.6793 61V52.6H89.2153V55.996L92.3233 52.6H94.2193L91.1233 55.936L94.3033 61H92.4193L90.0193 57.112L89.2153 57.988V61H87.6793ZM96.9609 61.144C96.4489 61.144 96.0289 61.064 95.7009 60.904C95.3729 60.736 95.1289 60.516 94.9689 60.244C94.8089 59.972 94.7289 59.672 94.7289 59.344C94.7289 58.792 94.9449 58.344 95.3769 58C95.8089 57.656 96.4569 57.484 97.3209 57.484H98.8329V57.34C98.8329 56.932 98.7169 56.632 98.4849 56.44C98.2529 56.248 97.9649 56.152 97.6209 56.152C97.3089 56.152 97.0369 56.228 96.8049 56.38C96.5729 56.524 96.4289 56.74 96.3729 57.028H94.8729C94.9129 56.596 95.0569 56.22 95.3049 55.9C95.5609 55.58 95.8889 55.336 96.2889 55.168C96.6889 54.992 97.1369 54.904 97.6329 54.904C98.4809 54.904 99.1489 55.116 99.6369 55.54C100.125 55.964 100.369 56.564 100.369 57.34V61H99.0609L98.9169 60.04C98.7409 60.36 98.4929 60.624 98.1729 60.832C97.8609 61.04 97.4569 61.144 96.9609 61.144ZM97.3089 59.944C97.7489 59.944 98.0889 59.8 98.3289 59.512C98.5769 59.224 98.7329 58.868 98.7969 58.444H97.4889C97.0809 58.444 96.7889 58.52 96.6129 58.672C96.4369 58.816 96.3489 58.996 96.3489 59.212C96.3489 59.444 96.4369 59.624 96.6129 59.752C96.7889 59.88 97.0209 59.944 97.3089 59.944ZM101.835 61V52.36H103.371V61H101.835ZM107.832 61.144C107.232 61.144 106.7 61.016 106.236 60.76C105.772 60.504 105.408 60.144 105.144 59.68C104.88 59.216 104.748 58.68 104.748 58.072C104.748 57.456 104.876 56.908 105.132 56.428C105.396 55.948 105.756 55.576 106.212 55.312C106.676 55.04 107.22 54.904 107.844 54.904C108.428 54.904 108.944 55.032 109.392 55.288C109.84 55.544 110.188 55.896 110.436 56.344C110.692 56.784 110.82 57.276 110.82 57.82C110.82 57.908 110.816 58 110.808 58.096C110.808 58.192 110.804 58.292 110.796 58.396H106.272C106.304 58.86 106.464 59.224 106.752 59.488C107.048 59.752 107.404 59.884 107.82 59.884C108.132 59.884 108.392 59.816 108.6 59.68C108.816 59.536 108.976 59.352 109.08 59.128H110.64C110.528 59.504 110.34 59.848 110.076 60.16C109.82 60.464 109.5 60.704 109.116 60.88C108.74 61.056 108.312 61.144 107.832 61.144ZM107.844 56.152C107.468 56.152 107.136 56.26 106.848 56.476C106.56 56.684 106.376 57.004 106.296 57.436H109.26C109.236 57.044 109.092 56.732 108.828 56.5C108.564 56.268 108.236 56.152 107.844 56.152ZM112.112 61V55.048H113.468L113.588 56.056C113.772 55.704 114.036 55.424 114.38 55.216C114.732 55.008 115.144 54.904 115.616 54.904C116.352 54.904 116.924 55.136 117.332 55.6C117.74 56.064 117.944 56.744 117.944 57.64V61H116.408V57.784C116.408 57.272 116.304 56.88 116.096 56.608C115.888 56.336 115.564 56.2 115.124 56.2C114.692 56.2 114.336 56.352 114.056 56.656C113.784 56.96 113.648 57.384 113.648 57.928V61H112.112ZM122.149 61.144C121.589 61.144 121.089 61.008 120.649 60.736C120.209 60.464 119.861 60.092 119.605 59.62C119.349 59.148 119.221 58.612 119.221 58.012C119.221 57.412 119.349 56.88 119.605 56.416C119.861 55.944 120.209 55.576 120.649 55.312C121.089 55.04 121.589 54.904 122.149 54.904C122.597 54.904 122.989 54.988 123.325 55.156C123.661 55.324 123.933 55.56 124.141 55.864V52.36H125.677V61H124.309L124.141 60.148C123.949 60.412 123.693 60.644 123.373 60.844C123.061 61.044 122.653 61.144 122.149 61.144ZM122.473 59.8C122.969 59.8 123.373 59.636 123.685 59.308C124.005 58.972 124.165 58.544 124.165 58.024C124.165 57.504 124.005 57.08 123.685 56.752C123.373 56.416 122.969 56.248 122.473 56.248C121.985 56.248 121.581 56.412 121.261 56.74C120.941 57.068 120.781 57.492 120.781 58.012C120.781 58.532 120.941 58.96 121.261 59.296C121.581 59.632 121.985 59.8 122.473 59.8ZM130.133 61.144C129.533 61.144 129.001 61.016 128.537 60.76C128.073 60.504 127.709 60.144 127.445 59.68C127.181 59.216 127.049 58.68 127.049 58.072C127.049 57.456 127.177 56.908 127.433 56.428C127.697 55.948 128.057 55.576 128.513 55.312C128.977 55.04 129.521 54.904 130.145 54.904C130.729 54.904 131.245 55.032 131.693 55.288C132.141 55.544 132.489 55.896 132.737 56.344C132.993 56.784 133.121 57.276 133.121 57.82C133.121 57.908 133.117 58 133.109 58.096C133.109 58.192 133.105 58.292 133.097 58.396H128.573C128.605 58.86 128.765 59.224 129.053 59.488C129.349 59.752 129.705 59.884 130.121 59.884C130.433 59.884 130.693 59.816 130.901 59.68C131.117 59.536 131.277 59.352 131.381 59.128H132.941C132.829 59.504 132.641 59.848 132.377 60.16C132.121 60.464 131.801 60.704 131.417 60.88C131.041 61.056 130.613 61.144 130.133 61.144ZM130.145 56.152C129.769 56.152 129.437 56.26 129.149 56.476C128.861 56.684 128.677 57.004 128.597 57.436H131.561C131.537 57.044 131.393 56.732 131.129 56.5C130.865 56.268 130.537 56.152 130.145 56.152ZM134.413 61V55.048H135.781L135.925 56.164C136.141 55.78 136.433 55.476 136.801 55.252C137.177 55.02 137.617 54.904 138.121 54.904V56.524H137.689C137.353 56.524 137.053 56.576 136.789 56.68C136.525 56.784 136.317 56.964 136.165 57.22C136.021 57.476 135.949 57.832 135.949 58.288V61H134.413Z" fill="#FA9D1C"/>
<circle cx="97" cy="28" r="14" fill="white"/>
<path fill-rule="evenodd" clip-rule="evenodd" d="M100.339 21.0513V21.8275C102.596 22.0464 103.75 23.2936 103.75 25.5358V31.7386C103.75 34.2329 102.328 35.5 99.5304 35.5H94.4696C91.6717 35.5 90.25 34.2329 90.25 31.7386V25.5358C90.25 24.0432 90.7587 22.9751 91.8022 22.3516C91.9667 22.2393 92.1795 22.2314 92.3515 22.3313C92.5236 22.4312 92.6251 22.6216 92.6138 22.8227C92.6024 23.0239 92.48 23.2012 92.2978 23.2803C91.6065 23.6916 91.2804 24.4081 91.2804 25.5358V25.7349H100.796C101.08 25.7349 101.311 25.9695 101.311 26.2589C101.311 26.5484 101.08 26.783 100.796 26.783H91.2804V31.7386C91.2804 33.6425 92.2065 34.4319 94.4696 34.4452H99.5304C101.761 34.4452 102.713 33.6359 102.713 31.7319V25.5292C102.713 23.8707 101.989 23.068 100.339 22.8756V23.3798C100.301 23.6485 100.07 23.8447 99.803 23.8345C99.5363 23.8243 99.3202 23.6109 99.3022 23.34V21.0049C99.3072 20.8646 99.3674 20.7323 99.4691 20.6376C99.5709 20.5428 99.7057 20.4935 99.8435 20.5007C100.128 20.5185 100.347 20.7619 100.339 21.0513ZM94.5316 23.7196C94.4335 23.8181 94.3008 23.8725 94.163 23.8707C93.8811 23.8635 93.6572 23.6269 93.6609 23.34V21.0513C93.6905 20.7828 93.9137 20.5798 94.1793 20.5798C94.445 20.5798 94.6682 20.7828 94.6978 21.0513V21.7744H97.6457C97.9302 21.7744 98.1609 22.009 98.1609 22.2985C98.1609 22.5879 97.9302 22.8226 97.6457 22.8226H94.6848V23.3466C94.6848 23.4868 94.6296 23.6211 94.5316 23.7196ZM100.143 28.4614C99.7833 28.4614 99.4913 28.7584 99.4913 29.1248C99.4913 29.4912 99.7833 29.7882 100.143 29.7882C100.504 29.7882 100.796 29.4912 100.796 29.1248C100.796 28.9477 100.726 28.7779 100.602 28.6533C100.479 28.5287 100.311 28.4596 100.137 28.4614H100.143ZM96.3609 29.1248C96.3609 28.7584 96.6529 28.4614 97.013 28.4614C97.3732 28.4614 97.6652 28.7584 97.6652 29.1248C97.6652 29.4912 97.3732 29.7882 97.013 29.7882C96.6529 29.7882 96.3609 29.4912 96.3609 29.1248ZM93.8891 28.4614C93.5289 28.4614 93.237 28.7584 93.237 29.1248C93.237 29.4912 93.5289 29.7882 93.8891 29.7882C94.2493 29.7882 94.5413 29.4912 94.5413 29.1248C94.5413 28.9477 94.4717 28.7779 94.348 28.6533C94.2243 28.5287 94.0567 28.4596 93.8826 28.4614H93.8891ZM99.4913 31.8115C99.4913 31.4452 99.7833 31.1481 100.143 31.1481H100.137C100.311 31.1464 100.479 31.2155 100.602 31.3401C100.726 31.4647 100.796 31.6344 100.796 31.8115C100.796 32.1779 100.504 32.4749 100.143 32.4749C99.7833 32.4749 99.4913 32.1779 99.4913 31.8115ZM97.013 31.1481C96.6529 31.1481 96.3609 31.4452 96.3609 31.8115C96.3609 32.1779 96.6529 32.4749 97.013 32.4749C97.3732 32.4749 97.6652 32.1779 97.6652 31.8115C97.6652 31.4452 97.3732 31.1481 97.013 31.1481ZM93.237 31.8115C93.237 31.4452 93.5289 31.1481 93.8891 31.1481H93.8826C94.0567 31.1464 94.2243 31.2155 94.348 31.3401C94.4717 31.4647 94.5413 31.6344 94.5413 31.8115C94.5413 32.1779 94.2493 32.4749 93.8891 32.4749C93.5289 32.4749 93.237 32.1779 93.237 31.8115Z" fill="#FA9D1C"/>
</svg>
