<svg width="48" height="48" viewBox="0 0 48 48" fill="none" xmlns="http://www.w3.org/2000/svg">
<rect width="48" height="48" rx="14" fill="#FF881B"/>
<path fill-rule="evenodd" clip-rule="evenodd" d="M35 23.3333C35 29.7721 29.7733 35 23.3333 35C16.8816 35 11.6666 29.7721 11.6666 23.3333C11.6666 16.8921 16.8816 11.6666 23.3333 11.6666C29.7733 11.6666 35 16.8921 35 23.3333ZM24.36 27.755C24.36 28.3138 23.8933 28.7816 23.3333 28.7816C22.7733 28.7816 22.3183 28.3138 22.3183 27.755V22.5983C22.3183 22.0371 22.7733 21.5833 23.3333 21.5833C23.8933 21.5833 24.36 22.0371 24.36 22.5983V27.755ZM23.3216 17.8721C23.8933 17.8721 24.3483 18.3388 24.3483 18.8988C24.3483 19.4588 23.8933 19.9138 23.3333 19.9138C22.7616 19.9138 22.3066 19.4588 22.3066 18.8988C22.3066 18.3388 22.7616 17.8721 23.3216 17.8721Z" fill="white"/>
</svg>
