<svg width="48" height="48" viewBox="0 0 48 48" fill="none" xmlns="http://www.w3.org/2000/svg">
<rect width="48" height="48" rx="14" fill="#FF881B"/>
<path fill-rule="evenodd" clip-rule="evenodd" d="M30.043 15.1457C30.043 13.594 31.303 12.334 32.8546 12.334C34.4063 12.334 35.6663 13.594 35.6663 15.1457C35.6663 16.6973 34.4063 17.9573 32.8546 17.9573C31.303 17.9573 30.043 16.6973 30.043 15.1457ZM25.551 27.2198L28.9226 22.8693L28.876 22.8927C29.0626 22.636 29.0976 22.3093 28.9693 22.0177C28.8421 21.726 28.561 21.5277 28.2588 21.5043C27.9426 21.4693 27.6288 21.6093 27.441 21.866L24.6188 25.5177L21.386 22.9743C21.1876 22.8227 20.9543 22.7632 20.721 22.7877C20.4888 22.8227 20.2788 22.9498 20.1376 23.1365L16.6855 27.6293L16.6143 27.7343C16.416 28.1065 16.5093 28.5848 16.8593 28.8427C17.0226 28.9477 17.1976 29.0177 17.396 29.0177C17.6655 29.0293 17.921 28.8882 18.0843 28.6677L21.0126 24.8982L24.3376 27.396L24.4426 27.4648C24.816 27.6632 25.2826 27.571 25.551 27.2198ZM28.0237 14.4111C27.977 14.7028 27.9537 14.9945 27.9537 15.2861C27.9537 17.9111 30.077 20.0333 32.6904 20.0333C32.982 20.0333 33.262 19.9995 33.5537 19.9528V29.3666C33.5537 33.3228 31.2204 35.6678 27.2537 35.6678H18.6332C14.6654 35.6678 12.332 33.3228 12.332 29.3666V20.7345C12.332 16.7678 14.6654 14.4111 18.6332 14.4111H28.0237Z" fill="white"/>
</svg>
