<svg width="48" height="48" viewBox="0 0 48 48" fill="none" xmlns="http://www.w3.org/2000/svg">
<rect width="48" height="48" rx="14" fill="#A04B9E"/>
<path d="M12.7484 12.001C12.5502 12.0014 12.3604 12.0802 12.2201 12.2202C12.0799 12.3601 12.0007 12.5499 12 12.7481V18.6115C12 18.8796 12.143 19.1274 12.3753 19.2615C12.6075 19.3956 12.8938 19.3956 13.126 19.2615C13.3583 19.1274 13.5013 18.8796 13.5013 18.6115V13.5011H18.6104C18.8744 13.4952 19.1159 13.3511 19.2462 13.1214C19.3766 12.8917 19.3766 12.6105 19.2462 12.3808C19.1159 12.1512 18.8744 12.007 18.6104 12.0012L12.7484 12.001ZM29.3177 12.001C29.054 12.0196 28.8195 12.1753 28.7002 12.4112C28.581 12.647 28.5944 12.9282 28.7357 13.1516C28.8769 13.375 29.1252 13.5076 29.3895 13.5009H34.4986V18.6113C34.4986 18.8795 34.6416 19.1272 34.874 19.2613C35.1061 19.3954 35.3924 19.3954 35.6246 19.2613C35.8569 19.1272 35.9999 18.8795 35.9999 18.6113V12.748C35.9992 12.5489 35.9194 12.3586 35.7783 12.2185C35.637 12.0784 35.446 12 35.2471 12.0009H29.3897C29.3658 11.9997 29.3416 11.9999 29.3177 12.001ZM12.7369 28.6321C12.539 28.6354 12.3505 28.7171 12.2126 28.8589C12.0745 29.0007 11.9981 29.1914 12.0002 29.3892V35.247C11.9993 35.4461 12.0778 35.6374 12.2183 35.7785C12.3586 35.9198 12.5494 35.9995 12.7486 35.9998H18.6107C18.8126 36.0043 19.0076 35.9273 19.1519 35.7862C19.2962 35.6451 19.3775 35.4517 19.3775 35.2498C19.3775 35.048 19.2962 34.8546 19.1519 34.7135C19.0076 34.5724 18.8126 34.4954 18.6107 34.4999H13.5016V29.3895C13.5036 29.1868 13.4234 28.9919 13.2794 28.8493C13.1355 28.7067 12.9396 28.6281 12.7369 28.6321ZM35.2355 28.6321C35.0376 28.6354 34.8491 28.7171 34.7112 28.8589C34.5731 29.0007 34.4968 29.1914 34.4988 29.3892V34.4996H29.3897C29.1257 34.5055 28.8841 34.6496 28.7539 34.8793C28.6235 35.109 28.6235 35.3902 28.7539 35.6199C28.8841 35.8496 29.1257 35.9937 29.3897 35.9995H35.247C35.4469 36.0004 35.6389 35.9212 35.7802 35.7799C35.9216 35.6385 36.0006 35.4466 35.9998 35.2468V29.389C36.0018 29.1863 35.9216 28.9914 35.7776 28.8488C35.6337 28.7062 35.4382 28.6281 35.2355 28.6321Z" fill="white"/>
<path d="M15.4285 15.4286H21.1429V21.143H15.4285V15.4286ZM22.7754 15.4286H23.5918V16.245H24.4081L24.408 15.4286H26.0406V16.245H25.2243V17.0614H26.0406V17.8777H25.2243V18.6941H24.4079L24.408 17.0613H23.5917V18.6939L22.7754 18.694V17.8776H21.9591V17.0612H22.7754V15.4286ZM26.8569 15.4286H32.5713V21.143H26.8569V15.4286ZM16.245 16.245V20.3265H20.3265V16.245H16.245ZM27.6733 16.245V20.3265H31.7548V16.245H27.6733ZM17.0611 17.0613H19.51V19.5102H17.0611V17.0613ZM28.4898 17.0613H30.9387V19.5102H28.4898V17.0613ZM23.5918 18.694H24.4082V19.5103H23.5918V18.694ZM25.2244 18.694H26.0408V21.9594H25.2244V22.7757H24.4081V24.4083H23.5917L23.5918 22.7756H22.7755V23.592H21.9591V24.4083L20.3265 24.4082V25.2246H21.9591V26.0409H19.5101V24.4083L18.6939 24.4082V23.5918H19.5103L19.5102 22.7756H18.6939V21.9592H21.9593L21.9592 20.3266H22.7755V21.143H23.5919V21.9594H24.4083L24.4081 21.143H25.2245L25.2244 18.694ZM23.5918 20.3266H24.4082V21.1429H23.5918V20.3266ZM15.4285 21.9592H17.8775V22.7755H16.2449V23.5919H17.0613V24.4083H18.6939V26.0409H17.8775V25.2245H16.2449V24.4081H15.4285V21.9592ZM26.0408 21.9592H27.6734V22.7755H26.0408V21.9592ZM30.1223 21.9592H30.9387V22.7755H30.1223V21.9592ZM20.3265 22.7755V23.5919H21.1428V22.7755H20.3265ZM27.6733 22.7755H30.1223V23.5919H30.9387V22.7755H32.5713V27.6735H27.6733V26.8571H26.0407V26.0407H25.2244V25.2244H26.857V26.0407H27.6733V24.4081H25.2244V23.5918H27.6733V22.7755ZM22.7754 24.4081H23.5918V26.0407H25.2244V27.6733H26.857V28.4897H25.2244V29.3061H24.408V26.8571H23.5917V29.3061H21.9591V26.0407H22.7754V24.4081ZM29.3059 24.4081V25.2245H28.4895V26.0409H29.3059V26.8572H30.1222V26.0409H31.7548V24.4083L29.3059 24.4081ZM15.4285 26.8571H21.1429V32.5714H15.4285V26.8571ZM16.2449 27.6735V31.755H20.3264V27.6735H16.2449ZM17.0611 28.4898H19.5101V30.9388H17.0611V28.4898ZM26.857 28.4898H29.3059V30.1224H30.1223V30.9388H29.3059V31.7551H28.4896V32.5715H26.857V30.9389H27.6733V30.1225H28.4897V29.3062H27.6733V30.1225H26.857V28.4898ZM23.5919 29.3061H24.4083V32.5714H23.5919V29.3061ZM30.1224 29.3061H31.755V30.1224H30.1224V29.3061ZM21.9591 30.1224H22.7754V32.5714H21.9591V30.1224ZM25.2244 30.1224H26.0408V30.9388H25.2244V30.1224ZM31.7549 30.1224H32.5713V30.9388H31.7549V30.1224ZM30.9387 30.9388H31.755V31.7551H32.5714V32.5715H30.9388L30.9387 30.9388ZM25.2243 31.755H26.0407V32.5714H25.2243V31.755Z" fill="white"/>
</svg>
