<svg width="48" height="48" viewBox="0 0 48 48" fill="none" xmlns="http://www.w3.org/2000/svg">
<rect opacity="0.2" width="48" height="48" rx="14" fill="#FA9D1C"/>
<path d="M33.6358 23.9041V20.4764C33.6358 19.9629 33.4317 19.4703 33.0686 19.107C32.7053 18.7439 32.2127 18.5398 31.6992 18.5398H15.2382C14.8922 18.5398 14.5725 18.3553 14.3996 18.0557C14.2267 17.7561 14.2267 17.387 14.3996 17.0874C14.5725 16.7878 14.8922 16.6032 15.2382 16.6032H30.7309C31.0769 16.6032 31.3966 16.4187 31.5695 16.1191C31.7424 15.8195 31.7424 15.4504 31.5695 15.1508C31.3966 14.8512 31.0769 14.6667 30.7309 14.6667H14.2699C13.7564 14.6667 13.2638 14.8707 12.9005 15.2338C12.5373 15.5971 12.3333 16.0897 12.3333 16.6032V30.1593C12.3333 30.6729 12.5373 31.1655 12.9005 31.5288C13.2638 31.8919 13.7564 32.0959 14.2699 32.0959H25.444C26.497 33.3253 28.0152 34.06 29.6325 34.1224C31.2501 34.1849 32.8203 33.5698 33.965 32.4251C35.1097 31.2804 35.7248 29.7102 35.6623 28.0926C35.5999 26.4753 34.8652 24.9571 33.6358 23.9041ZM29.7626 32.6188C28.6093 32.6188 27.5029 32.1614 26.6861 31.347C25.8693 30.5326 25.4089 29.4277 25.4054 28.2742C25.402 27.1209 25.8561 26.0132 26.6681 25.194C27.4799 24.3749 28.5835 23.911 29.737 23.9043C30.8903 23.8974 31.9993 24.3481 32.8208 25.1577C33.6424 25.9671 34.1097 27.0694 34.1199 28.2228C34.1224 29.3791 33.6642 30.4889 32.8464 31.3066C32.0287 32.1244 30.9188 32.5826 29.7625 32.5801L29.7626 32.6188Z" fill="#FA9D1C"/>
<circle cx="29.5" cy="28.5" r="5.75" fill="#FEEBD2" stroke="#FA9D1C" stroke-width="1.5"/>
<path fill-rule="evenodd" clip-rule="evenodd" d="M26 28.9681V28.0229C26 27.7822 26.1962 27.586 26.4459 27.586H28.586V25.4459C28.586 25.1962 28.7822 25 29.0229 25H29.9681C30.2178 25 30.414 25.1962 30.414 25.4459V27.586H32.5541C32.7949 27.586 33 27.7822 33 28.0229V28.9681C33 29.2178 32.7949 29.414 32.5541 29.414H30.414V31.5541C30.414 31.7949 30.2178 32 29.9681 32H29.0229C28.7822 32 28.586 31.7949 28.586 31.5541V29.414H26.4459C26.1962 29.414 26 29.2178 26 28.9681V28.9681Z" fill="#FA9D1C"/>
</svg>
