<svg width="62" height="62" viewBox="0 0 62 62" fill="none" xmlns="http://www.w3.org/2000/svg">
<g filter="url(#filter0_d_340_6226)">
<circle cx="31" cy="23" r="16" fill="white"/>
</g>
<path fill-rule="evenodd" clip-rule="evenodd" d="M31.1311 25.413H30.8688C29.0662 25.413 27.6052 23.9695 27.6052 22.1902V18.7228C27.6052 16.9428 29.0662 15.5 30.8688 15.5H31.1311C32.9336 15.5 34.3954 16.9428 34.3954 18.7228V22.1902C34.3954 23.9695 32.9336 25.413 31.1311 25.413ZM35.9219 22.0871C35.9219 21.6904 36.2474 21.3697 36.6485 21.3697C37.0495 21.3697 37.375 21.6904 37.375 22.0871C37.375 25.315 34.9004 27.9803 31.7269 28.3383V29.7825C31.7269 30.1786 31.4014 30.5 31.0004 30.5C30.5986 30.5 30.2738 30.1786 30.2738 29.7825V28.3383C27.0996 27.9803 24.625 25.315 24.625 22.0871C24.625 21.6904 24.9505 21.3697 25.3515 21.3697C25.7526 21.3697 26.0781 21.6904 26.0781 22.0871C26.0781 24.7668 28.286 26.9472 31.0004 26.9472C33.714 26.9472 35.9219 24.7668 35.9219 22.0871Z" fill="#FA9D1C"/>
<defs>
<filter id="filter0_d_340_6226" x="0" y="0" width="62" height="62" filterUnits="userSpaceOnUse" color-interpolation-filters="sRGB">
<feFlood flood-opacity="0" result="BackgroundImageFix"/>
<feColorMatrix in="SourceAlpha" type="matrix" values="0 0 0 0 0 0 0 0 0 0 0 0 0 0 0 0 0 0 127 0" result="hardAlpha"/>
<feOffset dy="8"/>
<feGaussianBlur stdDeviation="7.5"/>
<feComposite in2="hardAlpha" operator="out"/>
<feColorMatrix type="matrix" values="0 0 0 0 0 0 0 0 0 0 0 0 0 0 0 0 0 0 0.05 0"/>
<feBlend mode="normal" in2="BackgroundImageFix" result="effect1_dropShadow_340_6226"/>
<feBlend mode="normal" in="SourceGraphic" in2="effect1_dropShadow_340_6226" result="shape"/>
</filter>
</defs>
</svg>
