<svg width="29" height="21" viewBox="0 0 29 21" fill="none" xmlns="http://www.w3.org/2000/svg">
<path d="M10.4479 11.0007C12.2896 11.0007 13.7812 9.50898 13.7812 7.66732C13.7812 5.82565 12.2896 4.33398 10.4479 4.33398C8.60625 4.33398 7.11458 5.82565 7.11458 7.66732C7.11458 9.50898 8.60625 11.0007 10.4479 11.0007ZM10.4479 6.00065C11.3646 6.00065 12.1146 6.75065 12.1146 7.66732C12.1146 8.58398 11.3646 9.33398 10.4479 9.33398C9.53125 9.33398 8.78125 8.58398 8.78125 7.66732C8.78125 6.75065 9.53125 6.00065 10.4479 6.00065ZM10.4479 11.834C8.22292 11.834 3.78125 12.9507 3.78125 15.1673V16.834C3.78125 17.2923 4.15625 17.6673 4.61458 17.6673H16.2812C16.7396 17.6673 17.1146 17.2923 17.1146 16.834V15.1673C17.1146 12.9507 12.6729 11.834 10.4479 11.834ZM15.4479 16.0006H5.44792V15.1757C5.61458 14.5757 8.19792 13.5007 10.4479 13.5007C12.6979 13.5007 15.2812 14.5757 15.4479 15.1673V16.0006Z" fill="#FA9D1C"/>
<rect x="15.3391" y="0.175" width="12.8973" height="6.65" stroke="#FA9D1C" stroke-width="0.35"/>
<rect x="16.75" y="1.02637" width="7.94839" height="1.02667" rx="0.513333" fill="#FA9D1C"/>
<rect x="16.75" y="3.08008" width="4.23914" height="1.02667" rx="0.513333" fill="#FA9D1C"/>
<rect x="16.75" y="4.62012" width="4.23914" height="1.02667" rx="0.513333" fill="#FA9D1C"/>
<rect x="24.1719" y="2.56641" width="2.64946" height="3.08" fill="#FA9D1C"/>
</svg>
