<svg width="20" height="20" viewBox="0 0 20 20" fill="none" xmlns="http://www.w3.org/2000/svg">
<path d="M16.6719 3.33268V13.3327H6.67188V3.33268H16.6719ZM16.6719 1.66602H6.67188C5.75521 1.66602 5.00521 2.41602 5.00521 3.33268V13.3327C5.00521 14.2493 5.75521 14.9993 6.67188 14.9993H16.6719C17.5885 14.9993 18.3385 14.2493 18.3385 13.3327V3.33268C18.3385 2.41602 17.5885 1.66602 16.6719 1.66602ZM9.58854 9.72435L10.9969 11.6077L13.0635 9.02435L15.8385 12.4993H7.50521L9.58854 9.72435ZM1.67188 4.99935V16.666C1.67188 17.5827 2.42188 18.3327 3.33854 18.3327H15.0052V16.666H3.33854V4.99935H1.67188Z" fill="#FA9D1C"/>
</svg>
