<svg width="23" height="23" viewBox="0 0 23 23" fill="none" xmlns="http://www.w3.org/2000/svg">
<g clip-path="url(#clip0_322_6791)">
<g clip-path="url(#clip1_322_6791)">
<mask id="mask0_322_6791" style="mask-type:alpha" maskUnits="userSpaceOnUse" x="4" y="3" width="20" height="17">
<path fill-rule="evenodd" clip-rule="evenodd" d="M6.92986 6.84492C7.71062 5.61629 8.61214 4.45128 10.0326 4.00387C11.3636 3.58462 12.6642 4.09615 13.9048 4.64792C15.3852 5.30636 16.7122 6.03932 17.5771 7.35937C20.0118 11.0755 26.1291 15.2112 23.1214 18.7156C20.1918 22.129 15.1132 16.5383 10.845 15.2033C8.54522 14.4839 5.39054 14.9672 4.40402 12.8611C3.45643 10.8382 5.69076 8.7948 6.92986 6.84492Z" fill="#FCEA60"/>
</mask>
<g mask="url(#mask0_322_6791)">
<rect x="1.71887" y="5.43262" width="22.1992" height="22.1992" transform="rotate(-14.5168 1.71887 5.43262)" fill="#FCEA60"/>
</g>
</g>
<path d="M13.9066 16.5895V16.4675C13.9066 15.4226 14.2923 14.4197 14.9928 13.6438C15.7697 12.7815 16.1978 11.6683 16.1978 10.5094C16.1978 9.22172 15.6595 7.97756 14.7211 7.09566C13.769 6.20108 12.5231 5.7534 11.2139 5.83462C8.79823 5.9848 6.87266 8.00152 6.83052 10.4259C6.81039 11.6098 7.23386 12.748 8.02285 13.6313C8.73036 14.4211 9.11998 15.4048 9.11998 16.4014V16.5899C9.11998 16.9327 9.39966 17.2116 9.74327 17.2116H13.2836C13.6272 17.2114 13.9069 16.9325 13.9069 16.5897L13.9066 16.5895ZM10.2935 10.1302H9.79885C9.66853 10.1302 9.54515 10.0732 9.46054 9.97375C9.38313 9.88274 9.3494 9.76997 9.36572 9.6557C9.36585 9.65475 9.36613 9.65353 9.36653 9.65257C9.36776 9.64808 9.36871 9.64346 9.36953 9.6387C9.40775 9.4224 9.58555 9.24462 9.80212 9.2061C9.80647 9.20529 9.81069 9.20433 9.81505 9.20338C9.81641 9.20325 9.81817 9.20284 9.81953 9.20243C9.93408 9.18638 10.0462 9.21998 10.137 9.29738C10.2365 9.382 10.2935 9.50525 10.2935 9.6357L10.2932 10.1302L10.2935 10.1302ZM12.3432 16.8211H10.6835V10.5202H12.3432V16.8211ZM13.5167 16.5894C13.5167 16.7172 13.4119 16.8211 13.2834 16.8211H12.7332V10.5202H13.2278C13.4726 10.5202 13.7041 10.4132 13.863 10.2267C14.0153 10.0478 14.0816 9.8142 14.045 9.58606C14.0438 9.57872 14.0423 9.57137 14.0401 9.56416C13.9709 9.18857 13.6739 8.89187 13.2983 8.82305C13.2915 8.82115 13.2847 8.81952 13.2776 8.81856C13.05 8.78183 12.816 8.84795 12.637 9.00031C12.4504 9.1592 12.3434 9.39073 12.3434 9.63572V10.1301H10.6837V9.63572C10.6837 9.391 10.5766 9.15932 10.3901 9.00031C10.2111 8.84781 9.97687 8.7817 9.74953 8.81856C9.74245 8.81979 9.73552 8.82128 9.72885 8.82305C9.35285 8.89189 9.05562 9.18913 8.98666 9.56514C8.98476 9.57194 8.98313 9.57901 8.98217 9.58595C8.94544 9.81408 9.01156 10.0475 9.16419 10.2266C9.32308 10.4132 9.55461 10.5201 9.79933 10.5201H10.2939L10.2937 16.821H9.74354C9.61499 16.821 9.51024 16.717 9.51024 16.5893V16.4008C9.51024 15.3081 9.08514 14.2318 8.31356 13.3706C7.59038 12.561 7.20216 11.5175 7.22065 10.4322C7.25928 8.20985 9.02392 6.36121 11.2384 6.2233C11.3314 6.21746 11.4241 6.21473 11.5163 6.21473C12.6148 6.21473 13.6495 6.62271 14.4545 7.37931C15.3274 8.19975 15.8082 9.31115 15.8082 10.5089C15.8082 11.5709 15.4159 12.5915 14.7036 13.3821C13.9384 14.2299 13.5171 15.3252 13.5171 16.4671V16.5891L13.5167 16.5894ZM12.7332 10.1301V9.63577C12.7332 9.50545 12.7902 9.38207 12.8897 9.29745C12.9805 9.21978 13.0925 9.18631 13.2076 9.20264C13.2088 9.20277 13.2099 9.20304 13.2111 9.20345C13.2156 9.20468 13.2201 9.20563 13.2247 9.20645C13.441 9.24467 13.6188 9.42247 13.657 9.63904C13.658 9.64407 13.6589 9.64924 13.6603 9.65428C13.6604 9.65509 13.6607 9.65577 13.6608 9.65659C13.6769 9.77072 13.6433 9.88322 13.5659 9.97409C13.4813 10.0734 13.358 10.1305 13.2277 10.1305L12.7332 10.1303L12.7332 10.1301Z" fill="black"/>
<path d="M13.1365 18.7242H9.88963C9.61946 18.7242 9.39978 18.944 9.39978 19.214V19.3016C9.39978 19.5718 9.61961 19.7915 9.88963 19.7915H13.1365C13.4067 19.7915 13.6263 19.5716 13.6263 19.3016L13.6265 19.214C13.6265 18.944 13.4068 18.7242 13.1365 18.7242H13.1365ZM13.2363 19.3016C13.2363 19.3566 13.1914 19.4015 13.1365 19.4015H9.88963C9.83467 19.4015 9.78978 19.3566 9.78978 19.3016V19.214C9.78978 19.1591 9.83467 19.1142 9.88963 19.1142H13.1365C13.1914 19.1142 13.2363 19.1591 13.2363 19.214V19.3016Z" fill="black"/>
<path d="M13.6265 17.9293C13.6265 17.6591 13.4066 17.4394 13.1366 17.4394L9.88963 17.4393C9.61946 17.4393 9.39978 17.6591 9.39978 17.9291V18.0167C9.39978 18.2869 9.61961 18.5066 9.88963 18.5066H13.1365C13.4067 18.5066 13.6263 18.2867 13.6263 18.0167L13.6265 17.9293ZM13.2363 18.0166C13.2363 18.0715 13.1914 18.1164 13.1365 18.1164H9.88962C9.83466 18.1164 9.78977 18.0715 9.78977 18.0166V17.929C9.78977 17.874 9.83466 17.8291 9.88962 17.8291H13.1365C13.1914 17.8291 13.2363 17.874 13.2363 17.929V18.0166Z" fill="black"/>
<path d="M11.7088 4.78001V2.50455C11.7088 2.39695 11.6214 2.30948 11.5137 2.30948C11.4061 2.30948 11.3186 2.39681 11.3186 2.50455V4.78001C11.3186 4.88761 11.4059 4.97509 11.5137 4.97509C11.6213 4.97509 11.7088 4.88775 11.7088 4.78001Z" fill="black"/>
<path d="M16.9452 3.03291C16.8689 2.9566 16.7456 2.9566 16.6694 3.03291L15.0603 4.64207C14.984 4.71838 14.984 4.84163 15.0603 4.91781C15.0984 4.9559 15.1483 4.97494 15.1982 4.97494C15.2482 4.97494 15.2981 4.9559 15.3362 4.91781L16.9453 3.30866C17.0215 3.23261 17.0215 3.10923 16.9452 3.03291H16.9452Z" fill="black"/>
<path d="M7.96728 4.91778C8.04359 4.84146 8.04359 4.71822 7.96728 4.64204L6.35813 3.03288C6.28181 2.95657 6.15856 2.95657 6.08238 3.03288C6.00607 3.1092 6.00607 3.23245 6.08238 3.30863L7.69154 4.91778C7.72963 4.95587 7.77955 4.97491 7.82947 4.97491C7.87926 4.97491 7.92919 4.956 7.96728 4.91778H7.96728Z" fill="black"/>
</g>
<defs>
<clipPath id="clip0_322_6791">
<rect width="22.2941" height="22.2941" fill="white" transform="translate(0.0800781 0.0800781)"/>
</clipPath>
<clipPath id="clip1_322_6791">
<rect width="16.4971" height="16.4971" fill="white" transform="translate(1.56641 4.95837) rotate(-14.5168)"/>
</clipPath>
</defs>
</svg>
