<svg width="40" height="40" viewBox="0 0 40 40" fill="none" xmlns="http://www.w3.org/2000/svg">
<path opacity="0.1" d="M36.6663 19.9997C36.6663 29.2063 29.2047 36.6663 19.9997 36.6663C10.7947 36.6663 3.33301 29.2063 3.33301 19.9997C3.33301 10.7963 10.7947 3.33301 19.9997 3.33301C29.2047 3.33301 36.6663 10.7963 36.6663 19.9997Z" fill="#FF1D1E"/>
<path fill-rule="evenodd" clip-rule="evenodd" d="M21.4499 21.0511C21.4499 21.8544 20.7949 22.5094 19.9915 22.5094C19.1882 22.5094 18.5332 21.8544 18.5332 21.0511V13.6844C18.5332 12.8811 19.1882 12.2261 19.9915 12.2261C20.7949 12.2261 21.4499 12.8811 21.4499 13.6844V21.0511ZM18.5415 26.3391C18.5415 25.5357 19.1932 24.8807 19.9915 24.8807C20.8132 24.8807 21.4665 25.5357 21.4665 26.3391C21.4665 27.1424 20.8132 27.7974 20.0082 27.7974C19.1999 27.7974 18.5415 27.1424 18.5415 26.3391Z" fill="#FF1D1E"/>
</svg>
