<svg width="46" height="46" viewBox="0 0 46 46" fill="none" xmlns="http://www.w3.org/2000/svg">
<path opacity="0.1" d="M37.4937 0H8.50628C3.80839 0 0 3.80839 0 8.50628V37.4916C0 42.1895 3.80839 45.9979 8.50628 45.9979H37.4937C42.1916 45.9979 46 42.1895 46 37.4916V8.50628C46 3.80839 42.1916 0 37.4937 0Z" fill="#FA9D1C"/>
<path fill-rule="evenodd" clip-rule="evenodd" d="M25.6528 13.8791L25.8243 15.4229L25.4772 15.4506C24.9931 15.4893 24.5979 15.8531 24.5194 16.3323C24.3386 17.4368 24.3386 18.5633 24.5194 19.6678C24.5979 20.147 24.9931 20.5108 25.4772 20.5495L26.2253 20.6092C27.4063 20.7035 28.593 20.7035 29.7741 20.6092L30.5222 20.5495C31.0062 20.5108 31.4015 20.147 31.4799 19.6678C31.6608 18.5633 31.6608 17.4368 31.4799 16.3323C31.4015 15.8531 31.0062 15.4893 30.5222 15.4506L30.175 15.4229L30.3465 13.8791C30.3668 13.6971 30.3668 13.5135 30.3465 13.3315L30.3352 13.229C30.2144 12.1423 29.3601 11.2825 28.2742 11.1548C28.0918 11.1333 27.9075 11.1333 27.7251 11.1548C26.6392 11.2825 25.7849 12.1423 25.6642 13.229L25.6528 13.3315C25.6325 13.5135 25.6325 13.6971 25.6528 13.8791ZM28.1866 11.8996C28.0624 11.885 27.9369 11.885 27.8127 11.8996C27.0734 11.9866 26.4918 12.572 26.4096 13.3119L26.3982 13.4143C26.3841 13.5413 26.3841 13.6694 26.3982 13.7963L26.5726 15.3659C27.523 15.305 28.4763 15.305 29.4267 15.3659L29.6011 13.7963C29.6152 13.6694 29.6152 13.5413 29.6011 13.4143L29.5897 13.3119C29.5075 12.572 28.9259 11.9866 28.1866 11.8996ZM27.9997 17.2501C27.5855 17.2501 27.2497 17.5858 27.2497 18.0001C27.2497 18.4143 27.5855 18.7501 27.9997 18.7501C28.4139 18.7501 28.7497 18.4143 28.7497 18.0001C28.7497 17.5858 28.4139 17.2501 27.9997 17.2501Z" fill="#FF881B"/>
<g clip-path="url(#clip0_1694_19860)">
<path d="M19.4561 27.467C20.6158 28.6435 22.0191 29.5518 23.5672 30.1281L25.6617 28.4615C25.7238 28.4187 25.7974 28.3958 25.8728 28.3958C25.9482 28.3958 26.0218 28.4187 26.0839 28.4615L29.9728 30.967C30.1204 31.0558 30.2454 31.1776 30.3378 31.323C30.4303 31.4684 30.4877 31.6332 30.5055 31.8046C30.5232 31.9759 30.5009 32.1491 30.4403 32.3103C30.3797 32.4716 30.2824 32.6165 30.1561 32.7337L28.3339 34.5337C28.0729 34.7915 27.7522 34.9808 27.4003 35.0845C27.0484 35.1882 26.6763 35.2032 26.3172 35.1281C22.7351 34.3883 19.4334 32.6556 16.7895 30.1281C14.2042 27.5755 12.4152 24.3275 11.6395 20.7781C11.5628 20.4246 11.5788 20.0573 11.6859 19.7117C11.793 19.3662 11.9875 19.0542 12.2506 18.8059L14.1395 16.9837C14.2563 16.8636 14.3989 16.7714 14.5564 16.7142C14.714 16.657 14.8824 16.6362 15.0491 16.6533C15.2159 16.6704 15.3766 16.725 15.5192 16.813C15.6618 16.901 15.7827 17.0201 15.8728 17.1615L18.4617 21.0003C18.5063 21.0606 18.5304 21.1337 18.5304 21.2087C18.5304 21.2837 18.5063 21.3567 18.4617 21.417L16.7561 23.467C17.3481 24.9842 18.2704 26.3506 19.4561 27.467Z" fill="#FA9D1C"/>
</g>
<defs>
<clipPath id="clip0_1694_19860">
<rect width="20" height="20" fill="white" transform="translate(11 16)"/>
</clipPath>
</defs>
</svg>
