<svg width="36" height="36" viewBox="0 0 36 36" fill="none" xmlns="http://www.w3.org/2000/svg">
<g clip-path="url(#clip0_1694_18643)">
<g clip-path="url(#clip1_1694_18643)">
<mask id="mask0_1694_18643" style="mask-type:alpha" maskUnits="userSpaceOnUse" x="9" y="10" width="22" height="14">
<path fill-rule="evenodd" clip-rule="evenodd" d="M9.98288 16.2035C10.0447 14.7491 10.243 13.2894 11.2494 12.1918C12.1924 11.1632 13.5746 10.9559 14.9248 10.8134C16.5362 10.6434 18.0519 10.6147 19.4609 11.3255C23.4274 13.3264 30.793 13.8493 29.9405 18.388C29.1101 22.809 21.9165 20.5066 17.5527 21.4845C15.2013 22.0114 12.7109 24.0073 10.8035 22.6766C8.97142 21.3985 9.88473 18.5117 9.98288 16.2035Z" fill="#FCEA60"/>
</mask>
<g mask="url(#mask0_1694_18643)">
<rect x="4.76343" y="17.5859" width="22.1992" height="22.1992" transform="rotate(-44.5168 4.76343 17.5859)" fill="#FBAE17"/>
</g>
</g>
<path d="M29.7905 13.9536H26.1627V13.3955C26.1627 13.0255 26.0157 12.6705 25.7541 12.4088C25.4923 12.1471 25.1374 12.0001 24.7673 12.0001H16.3953C16.0253 12.0001 15.6704 12.1472 15.4086 12.4088C15.147 12.6705 15 13.0255 15 13.3955V18.9768C15 19.3468 15.147 19.7018 15.4086 19.9635C15.6704 20.2252 16.0253 20.3721 16.3953 20.3721H16.9535V21.7675C16.9471 21.8791 17.0154 21.9815 17.1209 22.0186H17.2325C17.3068 22.021 17.3784 21.9904 17.4279 21.9349L19.0186 20.3721H20.0232V20.9303C20.0232 21.3003 20.1702 21.6552 20.4318 21.917C20.6936 22.1786 21.0485 22.3256 21.4185 22.3256H27.1673L28.758 23.9163C28.8075 23.9717 28.8791 24.0024 28.9533 24H29.065C29.1817 23.9606 29.2526 23.8424 29.2324 23.721V22.3256H29.7905C30.1606 22.3256 30.5155 22.1786 30.7773 21.917C31.0389 21.6553 31.1859 21.3003 31.1859 20.9303V15.3489C31.1859 14.9789 31.0389 14.624 30.7773 14.3622C30.5155 14.1006 30.1606 13.9536 29.7905 13.9536ZM18.9069 19.814C18.8327 19.8116 18.761 19.8423 18.7116 19.8977L17.5116 21.0977V20.0931C17.5207 20.0166 17.4943 19.9402 17.4398 19.8858C17.3854 19.8313 17.309 19.8049 17.2325 19.814H16.3953C16.171 19.8219 15.9535 19.7363 15.7947 19.5774C15.6359 19.4187 15.5503 19.2012 15.5581 18.9768V13.3955C15.5503 13.1711 15.6359 12.9536 15.7947 12.7949C15.9534 12.636 16.171 12.5504 16.3953 12.5583H24.7673C24.9917 12.5504 25.2092 12.636 25.368 12.7949C25.5268 12.9536 25.6124 13.1711 25.6045 13.3955V18.9768C25.6124 19.2012 25.5268 19.4187 25.368 19.5774C25.2092 19.7363 24.9917 19.8219 24.7673 19.814H18.9069ZM30.6277 20.9303C30.6356 21.1547 30.55 21.3722 30.3912 21.5309C30.2324 21.6897 30.0149 21.7753 29.7905 21.7675H28.9533C28.8768 21.7584 28.8005 21.7848 28.746 21.8392C28.6916 21.8937 28.6652 21.9701 28.6743 22.0465V23.0512L27.4743 21.8512C27.4248 21.7958 27.3532 21.7651 27.2789 21.7675H21.4185C21.1942 21.7753 20.9767 21.6897 20.8179 21.5309C20.6591 21.3722 20.5735 21.1547 20.5813 20.9303V20.3721H24.7673C25.1374 20.3721 25.4923 20.2251 25.7541 19.9635C26.0157 19.7018 26.1627 19.3468 26.1627 18.9768V14.5117H29.7905C30.0149 14.5039 30.2324 14.5895 30.3912 14.7483C30.55 14.9071 30.6356 15.1246 30.6277 15.3489V20.9303Z" fill="black"/>
<path d="M21.4185 16.1862C21.4185 15.9642 21.3303 15.7511 21.1733 15.5942C21.0164 15.4372 20.8033 15.349 20.5813 15.349C20.3593 15.349 20.1463 15.4372 19.9893 15.5942C19.8324 15.7511 19.7441 15.9642 19.7441 16.1862C19.7441 16.4081 19.8323 16.6212 19.9893 16.7782C20.1463 16.9351 20.3593 17.0233 20.5813 17.0233C20.8057 17.0312 21.0232 16.9456 21.1819 16.7868C21.3408 16.628 21.4264 16.4105 21.4185 16.1861L21.4185 16.1862ZM20.3022 16.1862C20.3022 16.0733 20.3703 15.9715 20.4745 15.9284C20.5788 15.8852 20.6988 15.909 20.7786 15.9888C20.8585 16.0687 20.8823 16.1886 20.8391 16.2929C20.796 16.3972 20.6942 16.4652 20.5813 16.4652C20.5048 16.4743 20.4284 16.4479 20.374 16.3935C20.3196 16.339 20.2931 16.2626 20.3022 16.1862Z" fill="black"/>
<path d="M22.8142 17.0233C23.0362 17.0233 23.2493 16.9351 23.4062 16.7781C23.5632 16.6212 23.6514 16.4081 23.6514 16.1861C23.6514 15.9642 23.5632 15.7511 23.4062 15.5941C23.2493 15.4372 23.0362 15.349 22.8142 15.349C22.5923 15.349 22.3792 15.4372 22.2222 15.5941C22.0653 15.7511 21.9771 15.9642 21.9771 16.1861C21.9692 16.4105 22.0548 16.628 22.2136 16.7868C22.3724 16.9456 22.5899 17.0312 22.8143 17.0233L22.8142 17.0233ZM22.8142 15.9071C22.9271 15.9071 23.0289 15.9751 23.072 16.0794C23.1152 16.1836 23.0914 16.3036 23.0116 16.3835C22.9317 16.4633 22.8118 16.4871 22.7075 16.4439C22.6032 16.4008 22.5352 16.299 22.5352 16.1861C22.5261 16.1096 22.5525 16.0333 22.6069 15.9788C22.6614 15.9244 22.7378 15.898 22.8142 15.9071Z" fill="black"/>
<path d="M18.3489 15.349C18.1269 15.349 17.9138 15.4372 17.7569 15.5941C17.6 15.7511 17.5117 15.9642 17.5117 16.1861C17.5117 16.4081 17.5999 16.6212 17.7569 16.7782C17.9139 16.9351 18.1269 17.0233 18.3489 17.0233C18.5709 17.0233 18.784 16.9351 18.9409 16.7782C19.0979 16.6212 19.1861 16.4081 19.1861 16.1861C19.1939 15.9618 19.1083 15.7443 18.9495 15.5855C18.7908 15.4267 18.5733 15.3411 18.3489 15.3489L18.3489 15.349ZM18.3489 16.4652C18.236 16.4652 18.1342 16.3972 18.0911 16.2929C18.0479 16.1887 18.0717 16.0687 18.1516 15.9888C18.2314 15.909 18.3514 15.8852 18.4557 15.9284C18.5599 15.9715 18.628 16.0733 18.628 16.1862C18.6371 16.2627 18.6107 16.339 18.5562 16.3935C18.5018 16.4479 18.4254 16.4743 18.3489 16.4652Z" fill="black"/>
</g>
<defs>
<clipPath id="clip0_1694_18643">
<rect width="26.2913" height="26.2913" fill="white" transform="translate(0 13.1457) rotate(-30)"/>
</clipPath>
<clipPath id="clip1_1694_18643">
<rect width="19.4549" height="19.4549" fill="white" transform="translate(4.39429 17.2515) rotate(-44.5168)"/>
</clipPath>
</defs>
</svg>
