<svg width="231" height="231" viewBox="0 0 231 231" fill="none" xmlns="http://www.w3.org/2000/svg">
<path d="M115.5 231C179.289 231 231 179.289 231 115.5C231 51.7111 179.289 0 115.5 0C51.7111 0 0 51.7111 0 115.5C0 179.289 51.7111 231 115.5 231Z" fill="url(#paint0_linear)"/>
<g filter="url(#filter0_d)">
<path d="M50.3176 115.655C50.3176 107.194 44.6689 101.672 36.9391 101.672C29.0606 101.672 23.2633 107.447 23.2633 115.503C23.2633 123.559 29.0111 129.385 37.8805 129.385C42.4391 129.385 46.1554 127.865 48.5338 124.977L45.2139 121.076C43.331 123.052 41.0022 124.015 38.0292 124.015C33.421 124.015 30.2003 121.481 29.457 117.53H50.2185C50.268 116.922 50.3176 116.162 50.3176 115.655ZM36.9391 106.738C41.0022 106.738 43.9256 109.423 44.4211 113.324H29.4075C30.0021 109.373 32.9255 106.738 36.9391 106.738Z" fill="white"/>
<path d="M79.3747 129.03L69.0188 115.199L78.9288 101.976H72.2395L65.7485 110.842L59.2574 101.976H52.37L62.2304 115.3L51.9241 129.03H58.7619L65.5998 119.657L72.3882 129.03H79.3747Z" fill="white"/>
<path d="M98.6121 101.672C94.9949 101.672 91.9228 102.938 89.8417 105.522V101.976H83.9453V138.859H90.139V125.737C92.2697 128.22 95.2427 129.385 98.6121 129.385C106.342 129.385 112.04 123.913 112.04 115.503C112.04 107.143 106.342 101.672 98.6121 101.672ZM97.9184 123.964C93.4589 123.964 90.0399 120.671 90.0399 115.503C90.0399 110.335 93.4589 107.042 97.9184 107.042C102.378 107.042 105.747 110.335 105.747 115.503C105.747 120.671 102.378 123.964 97.9184 123.964Z" fill="white"/>
<path d="M117.914 129.03H124.108V91.4375H117.914V129.03Z" fill="white"/>
<path d="M144.129 129.385C152.354 129.385 158.251 123.609 158.251 115.503C158.251 107.397 152.354 101.672 144.129 101.672C136.003 101.672 130.057 107.397 130.057 115.503C130.057 123.609 136.003 129.385 144.129 129.385ZM144.129 123.964C139.67 123.964 136.3 120.671 136.3 115.503C136.3 110.335 139.67 107.042 144.129 107.042C148.638 107.042 152.008 110.335 152.008 115.503C152.008 120.671 148.638 123.964 144.129 123.964Z" fill="white"/>
<path d="M170.07 105.927V101.976H164.174V129.03H170.367V115.908C170.367 110.386 173.34 107.549 178.048 107.549C178.493 107.549 178.939 107.599 179.484 107.701V101.672C175.075 101.672 171.854 103.09 170.07 105.927Z" fill="white"/>
<path d="M209.371 115.655C209.371 107.194 203.722 101.672 195.992 101.672C188.114 101.672 182.317 107.447 182.317 115.503C182.317 123.559 188.064 129.385 196.934 129.385C201.492 129.385 205.209 127.865 207.587 124.977L204.267 121.076C202.384 123.052 200.055 124.015 197.082 124.015C192.474 124.015 189.254 121.481 188.51 117.53H209.272C209.321 116.922 209.371 116.162 209.371 115.655ZM195.992 106.738C200.055 106.738 202.979 109.423 203.474 113.324H188.461C189.055 109.373 191.979 106.738 195.992 106.738Z" fill="white"/>
</g>
<defs>
<filter id="filter0_d" x="8.26331" y="76.4375" width="216.108" height="77.4216" filterUnits="userSpaceOnUse" color-interpolation-filters="sRGB">
<feFlood flood-opacity="0" result="BackgroundImageFix"/>
<feColorMatrix in="SourceAlpha" type="matrix" values="0 0 0 0 0 0 0 0 0 0 0 0 0 0 0 0 0 0 127 0" result="hardAlpha"/>
<feOffset/>
<feGaussianBlur stdDeviation="7.5"/>
<feColorMatrix type="matrix" values="0 0 0 0 0.795833 0 0 0 0 0.795833 0 0 0 0 0.795833 0 0 0 1 0"/>
<feBlend mode="normal" in2="BackgroundImageFix" result="effect1_dropShadow"/>
<feBlend mode="normal" in="SourceGraphic" in2="effect1_dropShadow" result="shape"/>
</filter>
<linearGradient id="paint0_linear" x1="132.934" y1="230.778" x2="131.208" y2="10.6064" gradientUnits="userSpaceOnUse">
<stop stop-color="#333333"/>
<stop offset="1" stop-color="#333333"/>
</linearGradient>
</defs>
</svg>
