<svg width="35" height="35" viewBox="0 0 35 35" fill="none" xmlns="http://www.w3.org/2000/svg">
<path opacity="0.4" d="M30.338 21.9823C30.338 25.8297 27.2491 28.9463 23.4016 28.9601H23.3878H9.72182C5.88817 28.9601 2.75781 25.8573 2.75781 22.0099V21.9961C2.75781 21.9961 2.76609 15.8926 2.77712 12.8229C2.7785 12.2465 3.44042 11.9238 3.89136 12.2823C7.16789 14.8818 13.0273 19.6214 13.1004 19.6835C14.0795 20.4681 15.3206 20.9108 16.5893 20.9108C17.858 20.9108 19.0991 20.4681 20.0782 19.6683C20.1513 19.62 25.8797 15.0224 29.2059 12.3802C29.6582 12.0203 30.3229 12.343 30.3242 12.918C30.338 15.9643 30.338 21.9823 30.338 21.9823Z" fill="#50B74A"/>
<path d="M29.6151 7.8242C28.4209 5.57365 26.071 4.13672 23.484 4.13672H9.72147C7.13445 4.13672 4.78461 5.57365 3.59039 7.8242C3.32286 8.32754 3.44973 8.95499 3.89515 9.31077L14.1343 17.5007C14.8514 18.0799 15.7202 18.3681 16.5889 18.3681C16.5945 18.3681 16.5986 18.3681 16.6027 18.3681C16.6069 18.3681 16.6124 18.3681 16.6165 18.3681C17.4853 18.3681 18.3541 18.0799 19.0712 17.5007L29.3103 9.31077C29.7557 8.95499 29.8826 8.32754 29.6151 7.8242Z" fill="#50B74A"/>
<path d="M26.5075 33.6567C25.9913 33.6567 25.4757 33.4607 25.0817 33.0693L24.5916 32.5793C24.4016 32.39 24.1472 32.2852 23.8773 32.2846H23.1879C22.0735 32.2846 21.1666 31.3776 21.1666 30.2633V29.5731C21.1659 29.304 21.0612 29.0495 20.8712 28.8582L20.3892 28.3769C19.5997 27.5921 19.5964 26.3092 20.3818 25.5191L20.8719 25.0284C21.0612 24.8384 21.1659 24.584 21.1666 24.3141V23.6253C21.1666 22.5103 22.0735 21.6034 23.1879 21.6034H23.878C24.1472 21.6034 24.401 21.4986 24.5923 21.3073L25.0749 20.826C25.8597 20.0365 27.1419 20.0325 27.9327 20.8186L28.4228 21.3087C28.6134 21.4986 28.8672 21.6034 29.1364 21.6034H29.8265C30.9409 21.6034 31.8478 22.5103 31.8478 23.6253V24.3148C31.8485 24.584 31.9532 24.8384 32.1432 25.0297L32.6252 25.5117C33.0071 25.8917 33.2186 26.3979 33.2206 26.9383C33.222 27.4753 33.0152 27.9808 32.6386 28.3628C32.6319 28.3695 32.6258 28.3769 32.6191 28.3829L32.1425 28.8595C31.9532 29.0495 31.8485 29.304 31.8478 29.5738V30.2633C31.8478 31.3776 30.9409 32.2846 29.8265 32.2846H29.1364C28.8672 32.2852 28.6128 32.39 28.4221 32.5799L27.9394 33.0619C27.546 33.458 27.0264 33.6567 26.5075 33.6567Z" fill="#50B74A"/>
<path d="M25.6208 28.4987C25.4911 28.4994 25.3613 28.4526 25.2613 28.3565L23.9745 27.119C23.7758 26.9267 23.7738 26.6147 23.9705 26.4212C24.1671 26.227 24.4881 26.225 24.6875 26.4166L25.6134 27.3066L27.8741 25.0776C28.0714 24.8834 28.3924 24.8815 28.5911 25.073C28.7905 25.2652 28.7925 25.5779 28.5959 25.7708L25.9784 28.3519C25.8797 28.4493 25.7506 28.4981 25.6208 28.4987Z" fill="white"/>
</svg>
