<svg id="Layer_1" data-name="Layer 1" xmlns="http://www.w3.org/2000/svg" viewBox="0 0 24 24"><defs><style>.cls-1{fill:#fbebd5;}.cls-2{fill:#eca040;}</style></defs><title>Icon Layanan 24x24 px</title><circle class="cls-1" cx="14.81" cy="3.78" r="3.38" transform="translate(1.67 11.58) rotate(-45)"/><path class="cls-2" d="M14.81,7.35a3.57,3.57,0,1,1,2.52-1A3.55,3.55,0,0,1,14.81,7.35Zm0-6.75A3.18,3.18,0,1,0,17.07,6h0A3.18,3.18,0,0,0,14.81.6Z"/><rect class="cls-2" x="12.34" y="18.03" width="4.95" height="1.44"/><rect class="cls-2" x="12.34" y="16.14" width="4.95" height="1.44"/><rect class="cls-2" x="12.34" y="14.25" width="4.95" height="1.44"/><rect class="cls-2" x="12.34" y="12.35" width="4.95" height="1.44"/><rect class="cls-2" x="12.34" y="10.46" width="4.95" height="1.44"/><rect class="cls-2" x="12.34" y="8.57" width="4.95" height="1.44"/><rect class="cls-2" x="6.26" y="18.03" width="4.95" height="1.44"/><rect class="cls-2" x="6.26" y="16.14" width="4.95" height="1.44"/><rect class="cls-2" x="6.26" y="14.25" width="4.95" height="1.44"/><rect class="cls-2" x="6.26" y="12.35" width="4.95" height="1.44"/><rect class="cls-2" x="0.18" y="18.03" width="4.95" height="1.44"/><rect class="cls-2" x="0.18" y="16.14" width="4.95" height="1.44"/><rect class="cls-2" x="-1" y="10.55" width="10.99" height="0.58" transform="translate(-5.75 5.11) rotate(-38.27)"/><polygon class="cls-2" points="9.38 8.86 10.47 6.12 7.56 6.55 9.38 8.86"/><path class="cls-2" d="M14.44,4.81,13.9,3.7h-.39V4.81H13V2h1.09a.84.84,0,0,1,.9.85.75.75,0,0,1-.51.73l.62,1.2ZM14,2.52h-.51v.73H14a.37.37,0,1,0,0-.73Z"/><path class="cls-2" d="M17,4.65a.71.71,0,0,1-.5.18.6.6,0,0,1-.49-.2v.92h-.51V2.78H16V3a.62.62,0,0,1,.51-.21.71.71,0,0,1,.5.18,1.2,1.2,0,0,1,.21.85A1.21,1.21,0,0,1,17,4.65Zm-.64-1.44c-.3,0-.34.25-.34.58s0,.58.34.58.34-.25.34-.58S16.63,3.21,16.33,3.21Z"/><rect class="cls-2" x="8.59" y="13.07" width="15.32" height="10.62" rx="1.11" ry="1.11"/><path class="cls-2" d="M22.79,23.79H9.7a1.21,1.21,0,0,1-1.21-1.21V14.19A1.21,1.21,0,0,1,9.7,13H22.79A1.21,1.21,0,0,1,24,14.19v8.39A1.21,1.21,0,0,1,22.79,23.79ZM9.7,13.17a1,1,0,0,0-1,1v8.39a1,1,0,0,0,1,1H22.79a1,1,0,0,0,1-1V14.19a1,1,0,0,0-1-1Z"/><rect class="cls-1" x="8.59" y="15" width="15.32" height="2.19"/><path class="cls-2" d="M24,17.28H8.49V14.9H24ZM8.68,17.09H23.81v-2H8.68Z"/><rect class="cls-1" x="9.83" y="19.74" width="4.44" height="0.39"/><rect class="cls-1" x="9.83" y="21.18" width="4.44" height="0.39"/></svg>