<svg id="Layer_1" data-name="Layer 1" xmlns="http://www.w3.org/2000/svg" viewBox="0 0 24 24"><defs><style>.cls-1{fill:#fbebd5;}.cls-2{fill:#eca040;}</style></defs><title>Icon Layanan 24x24 px</title><path class="cls-1" d="M12,23.38c-8.42-3-9.4-6.75-9.4-9.33V3.88A16,16,0,0,0,12,.77a15.81,15.81,0,0,0,9.41,3.1V14C21.4,15.87,20.48,20.42,12,23.38Z"/><path class="cls-2" d="M12,1.51a16.6,16.6,0,0,0,8.82,2.93V14c0,1.69-.87,5.87-8.81,8.71C7.81,21.25,3.19,18.89,3.19,14V4.44A16.74,16.74,0,0,0,12,1.51M12,0S8.56,3.3,2,3.3V14c0,3.11,1.39,7,10,10,8.21-2.8,10-7.2,10-10V3.3C15.38,3.3,12,0,12,0Z"/><polygon class="cls-2" points="11.21 17.46 6.16 13.83 7.27 12.29 10.89 14.89 17.67 6.84 19.12 8.07 11.21 17.46"/></svg>