<svg id="Layer_1" data-name="Layer 1" xmlns="http://www.w3.org/2000/svg" viewBox="0 0 24 24"><defs><style>.cls-1{fill:#fbebd5;}.cls-2{fill:#eca040;}</style></defs><title>Icon Layanan 24x24 px</title><path class="cls-1" d="M9.69,19.55A1.45,1.45,0,0,1,8.25,18.1V2.69A1.45,1.45,0,0,1,9.69,1.25h8.55l3.44,3.44V18.1a1.45,1.45,0,0,1-1.44,1.44Z"/><path class="cls-2" d="M18.14,1.49l3.3,3.3V18.1a1.2,1.2,0,0,1-1.2,1.2H9.69a1.2,1.2,0,0,1-1.2-1.2V2.69a1.2,1.2,0,0,1,1.2-1.2h8.45m.2-.49H9.69A1.69,1.69,0,0,0,8,2.69V18.1A1.69,1.69,0,0,0,9.69,19.8H20.24a1.69,1.69,0,0,0,1.69-1.69V4.59L18.35,1Z"/><path class="cls-2" d="M20,4.46a1.57,1.57,0,0,1-1.57-1.57V1.3l3.16,3.16Z"/><path class="cls-2" d="M18.6,1.6l2.74,2.74H20A1.45,1.45,0,0,1,18.6,2.89V1.6M18.35,1v1.9A1.69,1.69,0,0,0,20,4.59h1.9L18.35,1Z"/><rect class="cls-2" x="10.6" y="12.93" width="4.83" height="0.71"/><rect class="cls-2" x="16.91" y="12.93" width="1.86" height="0.71"/><rect class="cls-2" x="13.94" y="11.1" width="4.83" height="0.71"/><rect class="cls-2" x="10.6" y="11.1" width="1.86" height="0.71"/><rect class="cls-2" x="10.6" y="14.87" width="4.83" height="0.71"/><rect class="cls-2" x="16.91" y="14.87" width="1.86" height="0.71"/><rect class="cls-2" x="13.94" y="16.69" width="4.83" height="0.71"/><rect class="cls-2" x="10.6" y="16.69" width="1.86" height="0.71"/><path class="cls-2" d="M16.3,4A1.5,1.5,0,0,1,14.8,5.5,1.55,1.55,0,0,1,13.3,4a1.54,1.54,0,0,1,1.5-1.51A1.49,1.49,0,0,1,16.3,4Zm-1.51.69a.71.71,0,0,0,.75-.7.72.72,0,1,0-.75.7Z"/><path class="cls-2" d="M17.61,7a1.48,1.48,0,0,0-2.26-1.17,1,1,0,0,1-1.16-.05,1,1,0,0,0-1.25-.07,1.76,1.76,0,0,0-1,1.59c0,.61,0,1.21,0,1.82a1,1,0,0,0,1.1,1.1c.57,0,1.15,0,1.72,0h0c.62,0,1.25,0,1.87,0s.95-.33,1-.81A19.21,19.21,0,0,0,17.61,7Zm-.82,2.31c-.19-.13-.14-.31-.14-.47a8.12,8.12,0,0,0,0-1.24c0-.21-.15-.36-.38-.35a.36.36,0,0,0-.35.39c0,.43,0,.86,0,1.29s-.12.52-.5.49a11,11,0,0,0-1.15,0c-.31,0-.44-.11-.43-.42s0-.8,0-1.2-.05-.56-.39-.55-.39.28-.4.55,0,.73,0,1.1c0,.14.06.32-.15.43-.16-.22-.09-.46-.09-.69,0-.46,0-.93,0-1.39a.92.92,0,0,1,.55-.88c.12-.05.24-.11.36,0,.3,0,.64.49,1.15.46h.1a1.65,1.65,0,0,0,.63-.21A1.36,1.36,0,0,1,16,6.32c.26-.12.73.2.79.54A11.84,11.84,0,0,1,16.79,9.27Z"/><path class="cls-1" d="M3.76,23.75a1.45,1.45,0,0,1-1.44-1.44V6.89A1.45,1.45,0,0,1,3.76,5.45h8.55l3.44,3.44V22.31a1.45,1.45,0,0,1-1.44,1.44Z"/><path class="cls-2" d="M12.21,5.7,15.5,9V22.31a1.2,1.2,0,0,1-1.2,1.2H3.76a1.2,1.2,0,0,1-1.2-1.2V6.89a1.2,1.2,0,0,1,1.2-1.2h8.45m.2-.49H3.76A1.69,1.69,0,0,0,2.06,6.89V22.31A1.69,1.69,0,0,0,3.76,24H14.31A1.69,1.69,0,0,0,16,22.31V8.79L12.41,5.2Z"/><path class="cls-2" d="M14.1,8.67A1.57,1.57,0,0,1,12.53,7.1V5.5L15.7,8.67Z"/><path class="cls-2" d="M12.66,5.8,15.4,8.54H14.1A1.45,1.45,0,0,1,12.66,7.1V5.8m-.25-.6V7.1A1.69,1.69,0,0,0,14.1,8.79H16L12.41,5.2Z"/><rect class="cls-2" x="4.66" y="17.13" width="4.83" height="0.71"/><rect class="cls-2" x="10.98" y="17.13" width="1.86" height="0.71"/><rect class="cls-2" x="8" y="15.3" width="4.83" height="0.71"/><rect class="cls-2" x="4.66" y="15.3" width="1.86" height="0.71"/><rect class="cls-2" x="4.66" y="19.07" width="4.83" height="0.71"/><rect class="cls-2" x="10.98" y="19.07" width="1.86" height="0.71"/><rect class="cls-2" x="8" y="20.9" width="4.83" height="0.71"/><rect class="cls-2" x="4.66" y="20.9" width="1.86" height="0.71"/><path class="cls-2" d="M10.36,8.21A1.5,1.5,0,0,1,8.86,9.7,1.55,1.55,0,0,1,7.36,8.2a1.54,1.54,0,0,1,1.5-1.51A1.49,1.49,0,0,1,10.36,8.21ZM8.85,8.9a.71.71,0,0,0,.75-.7.72.72,0,1,0-.75.7Z"/><path class="cls-2" d="M11.67,11.16A1.48,1.48,0,0,0,9.41,10a1,1,0,0,1-1.16-.05A1,1,0,0,0,7,9.86a1.76,1.76,0,0,0-1,1.59c0,.61,0,1.21,0,1.82a1,1,0,0,0,1.1,1.1c.57,0,1.15,0,1.72,0h0c.62,0,1.25,0,1.87,0s.95-.33,1-.81A19.21,19.21,0,0,0,11.67,11.16Zm-.82,2.31c-.19-.13-.14-.31-.14-.47a8.12,8.12,0,0,0,0-1.24c0-.21-.15-.36-.38-.35a.36.36,0,0,0-.35.39c0,.43,0,.86,0,1.29s-.12.52-.5.49a11,11,0,0,0-1.15,0c-.31,0-.44-.11-.43-.42s0-.8,0-1.2-.05-.56-.39-.55-.39.28-.4.55,0,.73,0,1.1c0,.14.06.32-.15.43-.16-.22-.09-.46-.09-.69,0-.46,0-.93,0-1.39a.92.92,0,0,1,.55-.88c.12-.05.24-.11.36,0,.3,0,.64.49,1.15.46H9a1.65,1.65,0,0,0,.63-.21,1.36,1.36,0,0,1,.48-.27c.26-.12.73.2.79.54A11.84,11.84,0,0,1,10.85,13.47Z"/><path class="cls-2" d="M18.37,23.84h-2v-.49h2a1.19,1.19,0,0,0,1.19-1.19v-.23h.49v.23A1.69,1.69,0,0,1,18.37,23.84Z"/><polygon class="cls-2" points="18.57 22.29 19.81 20.15 21.04 22.29 18.57 22.29"/><path class="cls-2" d="M3.79,4.67H3.29v-2A1.69,1.69,0,0,1,5,1h.23v.49H5A1.19,1.19,0,0,0,3.79,2.67Z"/><polygon class="cls-2" points="4.85 2.47 6.98 1.23 4.85 0 4.85 2.47"/></svg>