<svg id="Layer_1" data-name="Layer 1" xmlns="http://www.w3.org/2000/svg" viewBox="0 0 24 24"><defs><style>.cls-1{fill:#fbebd5;}.cls-2{fill:#eca040;}</style></defs><title>Icon Layanan 24x24 px</title><rect class="cls-1" x="5.82" y="1.99" width="12.24" height="3.63"/><path class="cls-2" d="M3.93,9.78q0-3.89,0-7.78A2,2,0,0,1,5.49,0a1.83,1.83,0,0,1,.4,0H18.11A2,2,0,0,1,20,1.55a2.41,2.41,0,0,1,.05.48q0,5.51,0,11c0,1.49,0,3,0,4.47a7.4,7.4,0,0,1-.35,2.25A5.37,5.37,0,0,1,16.95,23a8.61,8.61,0,0,1-2.52.8,14,14,0,0,1-2.08.19,13,13,0,0,1-4-.46,6.78,6.78,0,0,1-2.33-1.16,5.37,5.37,0,0,1-1.88-2.93,6.94,6.94,0,0,1-.24-1.66c0-.76,0-1.52,0-2.28q0-2.86,0-5.72ZM12,6.22h6a.55.55,0,0,0,.58-.57q0-1.82,0-3.64a.55.55,0,0,0-.57-.57H5.94a.61.61,0,0,0-.24,0A.54.54,0,0,0,5.37,2q0,1.8,0,3.59a.55.55,0,0,0,.6.6Zm3.54,8.41h-.8a.39.39,0,0,0-.41.42q0,.78,0,1.55a.39.39,0,0,0,.42.42h1.55a.39.39,0,0,0,.42-.41q0-.77,0-1.54a.39.39,0,0,0-.44-.44Zm1.19-2.34c0-.27,0-.53,0-.8a.39.39,0,0,0-.4-.4H14.75a.39.39,0,0,0-.41.41q0,.79,0,1.58a.39.39,0,0,0,.41.4h1.58a.39.39,0,0,0,.4-.4C16.73,12.81,16.73,12.55,16.73,12.29ZM8.47,9.94h.77a.39.39,0,0,0,.42-.42q0-.77,0-1.54a.39.39,0,0,0-.42-.42H7.69A.39.39,0,0,0,7.27,8q0,.78,0,1.56a.39.39,0,0,0,.42.41Zm-1.2,2.35c0,.26,0,.53,0,.79a.39.39,0,0,0,.41.4H9.24a.39.39,0,0,0,.42-.41q0-.78,0-1.56a.39.39,0,0,0-.42-.41H7.7a.39.39,0,0,0-.43.43C7.27,11.77,7.27,12,7.27,12.29Zm8.26-2.35h.77a.39.39,0,0,0,.42-.42q0-.77,0-1.54a.39.39,0,0,0-.43-.43H14.77a.4.4,0,0,0-.44.43q0,.76,0,1.52a.4.4,0,0,0,.44.44Zm-2.34,9.41q0-.39,0-.77a.39.39,0,0,0-.41-.43H11.22a.39.39,0,0,0-.41.4q0,.79,0,1.59a.38.38,0,0,0,.41.4h1.57a.38.38,0,0,0,.41-.41C13.19,19.87,13.19,19.61,13.19,19.35ZM7.27,15.81c0,.26,0,.52,0,.78A.39.39,0,0,0,7.7,17H9.23a.4.4,0,0,0,.43-.43q0-.76,0-1.53a.39.39,0,0,0-.42-.43H7.7a.39.39,0,0,0-.43.43C7.27,15.31,7.27,15.56,7.27,15.81Zm5.92,0c0-.26,0-.53,0-.79a.38.38,0,0,0-.4-.41H11.21a.38.38,0,0,0-.4.41q0,.79,0,1.57a.39.39,0,0,0,.41.41h1.57a.38.38,0,0,0,.4-.41C13.19,16.35,13.19,16.08,13.19,15.82Zm0-3.53c0-.27,0-.53,0-.8a.39.39,0,0,0-.41-.4H11.22a.39.39,0,0,0-.42.41q0,.78,0,1.56a.39.39,0,0,0,.42.41h1.55a.41.41,0,0,0,.42-.42C13.18,12.81,13.19,12.55,13.19,12.29Zm0-3.54c0-.26,0-.53,0-.79a.38.38,0,0,0-.41-.41H11.22A.39.39,0,0,0,10.8,8q0,.79,0,1.57a.39.39,0,0,0,.4.41h1.58a.38.38,0,0,0,.4-.41C13.19,9.27,13.19,9,13.19,8.75Zm2.34,11.79h.78a.38.38,0,0,0,.42-.42q0-.78,0-1.55a.39.39,0,0,0-.4-.42H14.75a.39.39,0,0,0-.41.42q0,.78,0,1.55a.39.39,0,0,0,.41.41Zm-7.07,0h.77a.4.4,0,0,0,.43-.42c0-.51,0-1,0-1.54a.39.39,0,0,0-.41-.42H7.67a.38.38,0,0,0-.4.41q0,.79,0,1.57a.38.38,0,0,0,.41.41Z"/><path class="cls-1" d="M12,6.22H6a.55.55,0,0,1-.6-.6q0-1.8,0-3.59a.54.54,0,0,1,.32-.53.61.61,0,0,1,.24,0H18.06a.55.55,0,0,1,.57.57q0,1.82,0,3.64a.55.55,0,0,1-.58.57Zm.74-.92V2.36h-.67v1.8L12,4.07,11,2.43s-.05-.07-.08-.07h-.65V5.29h.67V3.49l.07.1,1,1.64s.06.07.09.07Zm-5.66-1h.81A1,1,0,0,0,8.6,2.8a.94.94,0,0,0-.85-.44H6.36V5.29h.71Zm2,1h.71V2.35H9.14c-.08,0-.1,0-.1.11C9,3.37,9,4.28,9,5.2,9,5.23,9,5.26,9,5.29Zm6.15-.8L14.79,4l.64-.21-.15-.43-.63.24V2.9H14.2v.66l-.61-.23-.15.43.63.21-.4.53.37.27.38-.55.4.55Zm.47-.74.63.21-.4.53.37.27.38-.55.4.55.37-.27L17,4l.64-.21-.15-.43-.63.23V2.9h-.45v.67l-.62-.24Z"/><path class="cls-1" d="M15.54,14.62h.75a.39.39,0,0,1,.44.44q0,.77,0,1.54a.39.39,0,0,1-.42.41H14.76a.39.39,0,0,1-.42-.42q0-.78,0-1.55a.39.39,0,0,1,.41-.42Z"/><path class="cls-1" d="M16.73,12.29c0,.26,0,.53,0,.79a.39.39,0,0,1-.4.4H14.75a.39.39,0,0,1-.41-.4q0-.79,0-1.58a.39.39,0,0,1,.41-.41h1.58a.39.39,0,0,1,.4.4C16.73,11.75,16.73,12,16.73,12.29Z"/><path class="cls-1" d="M8.47,9.94H7.69a.39.39,0,0,1-.42-.41q0-.78,0-1.56a.39.39,0,0,1,.42-.41H9.24A.39.39,0,0,1,9.66,8q0,.77,0,1.54a.39.39,0,0,1-.42.42H8.47Z"/><path class="cls-1" d="M7.27,12.29c0-.26,0-.51,0-.77a.39.39,0,0,1,.43-.43H9.24a.39.39,0,0,1,.42.41q0,.78,0,1.56a.39.39,0,0,1-.42.41H7.68a.39.39,0,0,1-.41-.4C7.27,12.81,7.27,12.55,7.27,12.29Z"/><path class="cls-1" d="M15.53,9.94h-.75a.4.4,0,0,1-.44-.44q0-.76,0-1.52a.4.4,0,0,1,.44-.43H16.3a.39.39,0,0,1,.43.43q0,.77,0,1.54a.39.39,0,0,1-.42.42Z"/><path class="cls-1" d="M13.19,19.35c0,.26,0,.52,0,.78a.38.38,0,0,1-.41.41H11.21a.38.38,0,0,1-.41-.4q0-.79,0-1.59a.39.39,0,0,1,.41-.4h1.56a.39.39,0,0,1,.41.43Q13.19,19,13.19,19.35Z"/><path class="cls-1" d="M7.27,15.81c0-.25,0-.5,0-.75a.39.39,0,0,1,.43-.43H9.24a.39.39,0,0,1,.42.43q0,.76,0,1.53a.4.4,0,0,1-.43.43H7.7a.39.39,0,0,1-.43-.42C7.27,16.33,7.27,16.07,7.27,15.81Z"/><path class="cls-1" d="M13.19,15.82c0,.26,0,.52,0,.78a.38.38,0,0,1-.4.41H11.22a.39.39,0,0,1-.41-.41q0-.79,0-1.57a.38.38,0,0,1,.4-.41h1.59a.38.38,0,0,1,.4.41C13.19,15.3,13.19,15.56,13.19,15.82Z"/><path class="cls-1" d="M13.19,12.29c0,.26,0,.52,0,.77a.41.41,0,0,1-.42.42H11.22a.39.39,0,0,1-.42-.41q0-.78,0-1.56a.39.39,0,0,1,.42-.41h1.56a.39.39,0,0,1,.41.4C13.19,11.76,13.19,12,13.19,12.29Z"/><path class="cls-1" d="M13.19,8.75c0,.26,0,.52,0,.78a.38.38,0,0,1-.4.41H11.21a.39.39,0,0,1-.4-.41q0-.79,0-1.57a.39.39,0,0,1,.42-.41h1.56a.38.38,0,0,1,.41.41C13.19,8.22,13.19,8.49,13.19,8.75Z"/><path class="cls-1" d="M15.53,20.54h-.78a.39.39,0,0,1-.41-.41q0-.78,0-1.55a.39.39,0,0,1,.41-.42h1.58a.39.39,0,0,1,.4.42q0,.78,0,1.55a.38.38,0,0,1-.42.42h-.78Z"/><path class="cls-1" d="M8.46,20.54H7.68a.38.38,0,0,1-.41-.41q0-.79,0-1.57a.38.38,0,0,1,.4-.41H9.25a.39.39,0,0,1,.41.42c0,.51,0,1,0,1.54a.4.4,0,0,1-.43.42Z"/><path class="cls-2" d="M15.13,5.3h-.65s-.07,0-.09-.07l-1-1.64-.07-.1V5.29h-.67V2.36h.65s.06,0,.08.07l1,1.64.06.1V2.36h.67Z"/><path class="cls-2" d="M9.46,4.27v1H8.75V2.35h1.39A.94.94,0,0,1,11,2.8a1,1,0,0,1-.72,1.46H9.46Zm0-.57c.22,0,.44,0,.66,0a.32.32,0,0,0,.29-.34c0-.22-.08-.36-.28-.38s-.44,0-.67,0Z"/><path class="cls-2" d="M11.43,5.29s0-.06,0-.09c0-.91,0-1.83,0-2.74,0-.08,0-.11.1-.11h.61V5.29Z"/><path class="cls-2" d="M8,4.49l-.37.27-.4-.55-.38.55L6.5,4.49,6.9,4l-.63-.21.15-.43L7,3.56V2.9h.44v.67l.63-.24.15.43L7.63,4Z"/><path class="cls-2" d="M15.65,3.75l.15-.43.62.24V2.9h.45v.66l.63-.23.15.43L17,4l.4.53L17,4.76l-.4-.55-.38.55-.37-.27.4-.53Z"/></svg>