<svg width="46" height="46" viewBox="0 0 46 46" fill="none" xmlns="http://www.w3.org/2000/svg">
<path opacity="0.1" d="M37.4937 0H8.50628C3.80839 0 0 3.80839 0 8.50628V37.4916C0 42.1895 3.80839 45.9979 8.50628 45.9979H37.4937C42.1916 45.9979 46 42.1895 46 37.4916V8.50628C46 3.80839 42.1916 0 37.4937 0Z" fill="#FA9D1C"/>
<path opacity="0.4" d="M36.338 27.9823C36.338 31.8297 33.2491 34.9463 29.4016 34.9601H29.3878H15.7218C11.8882 34.9601 8.75781 31.8573 8.75781 28.0099V27.9961C8.75781 27.9961 8.76609 21.8926 8.77712 18.8229C8.7785 18.2465 9.44042 17.9238 9.89136 18.2823C13.1679 20.8818 19.0273 25.6214 19.1004 25.6835C20.0795 26.4681 21.3206 26.9108 22.5893 26.9108C23.858 26.9108 25.0991 26.4681 26.0782 25.6683C26.1513 25.62 31.8797 21.0224 35.2059 18.3802C35.6582 18.0203 36.3229 18.343 36.3242 18.918C36.338 21.9643 36.338 27.9823 36.338 27.9823Z" fill="#FA9D1C"/>
<path d="M35.6156 13.8242C34.4214 11.5736 32.0715 10.1367 29.4845 10.1367H15.722C13.1349 10.1367 10.7851 11.5736 9.59088 13.8242C9.32335 14.3275 9.45022 14.955 9.89564 15.3108L20.1348 23.5007C20.8519 24.0799 21.7207 24.3681 22.5894 24.3681C22.595 24.3681 22.5991 24.3681 22.6032 24.3681C22.6074 24.3681 22.6129 24.3681 22.617 24.3681C23.4858 24.3681 24.3546 24.0799 25.0717 23.5007L35.3108 15.3108C35.7562 14.955 35.8831 14.3275 35.6156 13.8242Z" fill="#FA9D1C"/>
</svg>
