<svg id="Layer_1" data-name="Layer 1" xmlns="http://www.w3.org/2000/svg" viewBox="0 0 24 24"><defs><style>.cls-1{fill:#eca040;}.cls-2{fill:#fbebd5;}</style></defs><title>Icon Layanan 24x24 px</title><rect class="cls-1" x="0.13" y="5.97" width="20.89" height="14.49" rx="1.52" ry="1.52"/><path class="cls-1" d="M19.5,20.59H1.65A1.65,1.65,0,0,1,0,18.94V7.5A1.65,1.65,0,0,1,1.65,5.84H19.5A1.65,1.65,0,0,1,21.16,7.5V18.94A1.65,1.65,0,0,1,19.5,20.59ZM1.65,6.11A1.39,1.39,0,0,0,.26,7.5V18.94a1.39,1.39,0,0,0,1.39,1.39H19.5a1.39,1.39,0,0,0,1.39-1.39V7.5A1.39,1.39,0,0,0,19.5,6.11Z"/><rect class="cls-2" x="0.13" y="8.6" width="20.89" height="2.98"/><path class="cls-1" d="M21.16,11.71H0V8.46H21.16ZM.26,11.45H20.89V8.73H.26Z"/><rect class="cls-2" x="1.82" y="15.06" width="6.06" height="0.53"/><rect class="cls-2" x="1.82" y="17.04" width="6.06" height="0.53"/><circle class="cls-2" cx="19.13" cy="8.28" r="4.61" transform="translate(-0.25 15.95) rotate(-45)"/><path class="cls-1" d="M19.13,13.15a4.87,4.87,0,1,1,3.44-1.43A4.84,4.84,0,0,1,19.13,13.15Zm0-9.21a4.34,4.34,0,1,0,3.07,7.42h0a4.34,4.34,0,0,0-3.07-7.42Z"/><rect class="cls-1" x="15.98" y="6.34" width="6.06" height="0.53"/><rect class="cls-1" x="15.98" y="8.01" width="6.06" height="0.53"/><rect class="cls-1" x="15.98" y="9.69" width="6.06" height="0.53"/><circle class="cls-2" cx="18.73" cy="6.6" r="0.69"/><path class="cls-1" d="M18.73,7.47a.87.87,0,1,1,.87-.87A.87.87,0,0,1,18.73,7.47Zm0-1.38a.51.51,0,1,0,.51.51A.51.51,0,0,0,18.73,6.09Z"/><circle class="cls-2" cx="20.79" cy="8.39" r="0.69"/><path class="cls-1" d="M20.79,9.26a.87.87,0,1,1,.87-.87A.87.87,0,0,1,20.79,9.26Zm0-1.38a.51.51,0,1,0,.51.51A.51.51,0,0,0,20.79,7.88Z"/><circle class="cls-2" cx="17.17" cy="9.95" r="0.69"/><path class="cls-1" d="M17.17,10.82A.87.87,0,1,1,18,10,.87.87,0,0,1,17.17,10.82Zm0-1.38a.51.51,0,1,0,.51.51A.51.51,0,0,0,17.17,9.44Z"/></svg>