<svg id="Layer_1" data-name="Layer 1" xmlns="http://www.w3.org/2000/svg" viewBox="0 0 24 24"><defs><style>.cls-1{fill:#fbebd5;}.cls-2{fill:#eca040;}.cls-3{fill:none;stroke:#eca040;stroke-miterlimit:10;stroke-width:0.63px;}</style></defs><title>Icon Layanan 24x24 px</title><path class="cls-1" d="M2.51,23.68A1.85,1.85,0,0,1,.66,21.84V2.16A1.85,1.85,0,0,1,2.51.32H13.43l4.39,4.39V21.84A1.85,1.85,0,0,1,16,23.68Z"/><path class="cls-2" d="M13.3.63l4.21,4.21v17A1.53,1.53,0,0,1,16,23.37H2.51A1.53,1.53,0,0,1,1,21.84V2.16A1.53,1.53,0,0,1,2.51.63H13.3M13.56,0H2.51A2.16,2.16,0,0,0,.35,2.16V21.84A2.16,2.16,0,0,0,2.51,24H16a2.16,2.16,0,0,0,2.16-2.16V4.58L13.56,0Z"/><path class="cls-2" d="M15.72,4.42a2,2,0,0,1-2-2v-2l4,4Z"/><path class="cls-2" d="M13.87.76l3.5,3.5H15.72a1.85,1.85,0,0,1-1.84-1.84V.76M13.56,0V2.42a2.16,2.16,0,0,0,2.16,2.16h2.42L13.56,0Z"/><line class="cls-3" x1="3.66" y1="11.01" x2="6.66" y2="11.01"/><line class="cls-3" x1="7.58" y1="11.01" x2="8.74" y2="11.01"/><line class="cls-3" x1="3.66" y1="15.68" x2="6.66" y2="15.68"/><line class="cls-3" x1="7.58" y1="15.68" x2="8.74" y2="15.68"/><line class="cls-3" x1="8.74" y1="13.35" x2="5.74" y2="13.35"/><line class="cls-3" x1="4.82" y1="13.35" x2="3.66" y2="13.35"/><line class="cls-3" x1="3.66" y1="18.16" x2="6.66" y2="18.16"/><line class="cls-3" x1="7.58" y1="18.16" x2="8.74" y2="18.16"/><line class="cls-3" x1="8.74" y1="20.49" x2="5.74" y2="20.49"/><line class="cls-3" x1="4.82" y1="20.49" x2="3.66" y2="20.49"/><line class="cls-3" x1="3.66" y1="3.87" x2="6.66" y2="3.87"/><line class="cls-3" x1="7.58" y1="3.87" x2="8.74" y2="3.87"/><line class="cls-3" x1="3.66" y1="8.54" x2="6.66" y2="8.54"/><line class="cls-3" x1="7.58" y1="8.54" x2="8.74" y2="8.54"/><line class="cls-3" x1="8.74" y1="6.2" x2="5.74" y2="6.2"/><line class="cls-3" x1="4.82" y1="6.2" x2="3.66" y2="6.2"/><circle class="cls-1" cx="17.86" cy="12.88" r="5.48"/><path class="cls-2" d="M17.86,18.68a5.8,5.8,0,0,1-5.8-5.8h.63a5.16,5.16,0,1,0,1.87-4l-.4-.49a5.8,5.8,0,1,1,3.7,10.26Z"/><polygon class="cls-2" points="16.38 9.49 12.71 11 13.23 7.07 16.38 9.49"/><polygon class="cls-2" points="18.3 17.57 17.33 17.57 17.33 12.4 21.76 12.4 21.76 13.37 18.3 13.37 18.3 17.57"/><circle class="cls-1" cx="17.86" cy="12.88" r="0.95"/><path class="cls-2" d="M17.86,14.08A1.19,1.19,0,1,1,19,12.88,1.19,1.19,0,0,1,17.86,14.08Zm0-1.9a.71.71,0,1,0,.71.71A.71.71,0,0,0,17.86,12.18Z"/></svg>