<svg id="Layer_1" data-name="Layer 1" xmlns="http://www.w3.org/2000/svg" viewBox="0 0 24 24"><defs><style>.cls-1{fill:#eca040;}.cls-2{fill:#fbebd5;}</style></defs><title>Icon Layanan 24x24 px</title><rect class="cls-1" x="0.13" y="5.97" width="20.89" height="14.49" rx="1.52" ry="1.52"/><path class="cls-1" d="M19.5,20.59H1.65A1.65,1.65,0,0,1,0,18.94V7.49A1.65,1.65,0,0,1,1.65,5.84H19.5a1.65,1.65,0,0,1,1.65,1.65V18.94A1.65,1.65,0,0,1,19.5,20.59ZM1.65,6.1A1.39,1.39,0,0,0,.26,7.49V18.94a1.39,1.39,0,0,0,1.39,1.39H19.5a1.39,1.39,0,0,0,1.39-1.39V7.49A1.39,1.39,0,0,0,19.5,6.1Z"/><rect class="cls-2" x="0.13" y="8.6" width="20.89" height="2.98"/><path class="cls-1" d="M21.16,11.71H0V8.46H21.16ZM.26,11.45H20.89V8.73H.26Z"/><rect class="cls-2" x="1.82" y="15.06" width="6.06" height="0.53"/><rect class="cls-2" x="1.82" y="17.04" width="6.06" height="0.53"/><circle class="cls-2" cx="19.13" cy="8.28" r="4.61" transform="translate(-0.25 15.95) rotate(-45)"/><path class="cls-1" d="M19.13,13.15a4.87,4.87,0,1,1,3.44-1.42h0A4.86,4.86,0,0,1,19.13,13.15Zm0-9.21A4.34,4.34,0,1,0,22.2,5.21,4.33,4.33,0,0,0,19.13,3.93Z"/><rect class="cls-1" x="15.62" y="7.88" width="7.02" height="0.8" transform="translate(-0.25 15.95) rotate(-45)"/><rect class="cls-1" x="18.73" y="4.77" width="0.8" height="7.02" transform="translate(-0.25 15.95) rotate(-45)"/></svg>