<svg id="Layer_1" data-name="Layer 1" xmlns="http://www.w3.org/2000/svg" viewBox="0 0 24 24"><defs><style>.cls-1{fill:#fbebd5;}.cls-2{fill:#eca040;}</style></defs><title>Icon Layanan 24x24 px</title><path class="cls-1" d="M2.34,23.68A1.85,1.85,0,0,1,.5,21.84V2.16A1.85,1.85,0,0,1,2.34.32H13.26l4.39,4.39V21.84a1.85,1.85,0,0,1-1.84,1.84Z"/><path class="cls-2" d="M13.13.63l4.21,4.21v17a1.53,1.53,0,0,1-1.53,1.53H2.34A1.53,1.53,0,0,1,.82,21.84V2.16A1.53,1.53,0,0,1,2.34.63H13.13M13.39,0H2.34A2.16,2.16,0,0,0,.18,2.16V21.84A2.16,2.16,0,0,0,2.34,24H15.81A2.16,2.16,0,0,0,18,21.84V4.58L13.39,0Z"/><path class="cls-2" d="M15.55,4.42a2,2,0,0,1-2-2v-2l4,4Z"/><path class="cls-2" d="M13.71.76l3.5,3.5H15.55a1.85,1.85,0,0,1-1.84-1.84V.76M13.39,0V2.42a2.16,2.16,0,0,0,2.16,2.16H18L13.39,0Z"/><rect class="cls-2" x="3.5" y="15.23" width="6.17" height="0.91"/><rect class="cls-2" x="11.56" y="15.23" width="2.38" height="0.91"/><rect class="cls-2" x="7.77" y="12.9" width="6.17" height="0.91"/><rect class="cls-2" x="3.5" y="12.9" width="2.38" height="0.91"/><rect class="cls-2" x="3.5" y="17.71" width="6.17" height="0.91"/><rect class="cls-2" x="11.56" y="17.71" width="2.38" height="0.91"/><rect class="cls-2" x="7.77" y="20.04" width="6.17" height="0.91"/><rect class="cls-2" x="3.5" y="20.04" width="2.38" height="0.91"/><path class="cls-2" d="M9.06,3.84a1.92,1.92,0,0,1-1.92,1.9A2,2,0,0,1,5.22,3.82,2,2,0,0,1,7.13,1.89,1.9,1.9,0,0,1,9.06,3.84Zm-1.93.88a.91.91,0,0,0,1-.9.88.88,0,0,0-.93-.91.88.88,0,0,0-.91.86A.88.88,0,0,0,7.13,4.72Z"/><path class="cls-2" d="M10.73,7.61a1.89,1.89,0,0,0-2.89-1.5A1.21,1.21,0,0,1,6.36,6a1.33,1.33,0,0,0-1.59-.09A2.25,2.25,0,0,0,3.52,8c0,.77,0,1.55,0,2.32a1.27,1.27,0,0,0,1.41,1.41c.73,0,1.47,0,2.2,0h0c.79,0,1.59,0,2.38,0s1.21-.42,1.23-1A24.53,24.53,0,0,0,10.73,7.61Zm-1.05,3c-.24-.16-.17-.39-.18-.6a10.36,10.36,0,0,0-.06-1.58c-.05-.27-.2-.46-.49-.44a.47.47,0,0,0-.44.5c0,.55,0,1.1,0,1.65s-.15.66-.63.63a14.08,14.08,0,0,0-1.47,0c-.39,0-.56-.14-.54-.54s0-1,0-1.53c0-.34-.07-.71-.5-.7s-.5.35-.51.7,0,.94,0,1.41c0,.18.08.41-.19.55-.2-.28-.11-.59-.12-.87,0-.59,0-1.18,0-1.77a1.17,1.17,0,0,1,.7-1.12c.15-.07.31-.15.45,0,.38.05.81.62,1.47.59h.12a2.11,2.11,0,0,0,.8-.27,1.73,1.73,0,0,1,.62-.35c.33-.15.94.25,1,.69A15.12,15.12,0,0,1,9.68,10.56Z"/><circle class="cls-1" cx="17.97" cy="12" r="5.53" transform="translate(-3.22 16.22) rotate(-45)"/><path class="cls-2" d="M18,17.84a5.84,5.84,0,1,1,4.13-1.71h0A5.82,5.82,0,0,1,18,17.84Zm0-11a5.21,5.21,0,1,0,3.68,8.89h0A5.21,5.21,0,0,0,18,6.79Z"/><polygon class="cls-2" points="17.3 14.81 14.79 13 15.34 12.23 17.14 13.53 20.52 9.52 21.24 10.13 17.3 14.81"/></svg>