<svg id="Layer_1" data-name="Layer 1" xmlns="http://www.w3.org/2000/svg" viewBox="0 0 24 24"><defs><style>.cls-1{fill:#fbebd5;}.cls-2{fill:#eca040;}</style></defs><title>Icon Layanan 24x24 px</title><path class="cls-1" d="M2,23.08A1.75,1.75,0,0,1,.3,21.33V2.67A1.75,1.75,0,0,1,2,.92H12.4l4.17,4.17V21.33a1.75,1.75,0,0,1-1.75,1.75Z"/><path class="cls-2" d="M12.28,1.22l4,4V21.33a1.45,1.45,0,0,1-1.45,1.45H2A1.45,1.45,0,0,1,.6,21.33V2.67A1.45,1.45,0,0,1,2,1.22H12.28m.25-.6H2a2,2,0,0,0-2,2V21.33a2,2,0,0,0,2,2H14.82a2,2,0,0,0,2-2V5L12.52.62Z"/><path class="cls-2" d="M14.57,4.82a1.9,1.9,0,0,1-1.9-1.9V1L16.5,4.82Z"/><path class="cls-2" d="M12.82,1.35l3.32,3.32H14.57a1.75,1.75,0,0,1-1.75-1.75V1.35m-.3-.72V2.92a2,2,0,0,0,2,2h2.29L12.52.62Z"/><rect class="cls-2" x="9.88" y="8.04" width="13.97" height="9.69" rx="1.02" ry="1.02"/><path class="cls-2" d="M22.83,17.88H10.9a1.17,1.17,0,0,1-1.17-1.17V9.06A1.17,1.17,0,0,1,10.9,7.89H22.83A1.17,1.17,0,0,1,24,9.06v7.65A1.17,1.17,0,0,1,22.83,17.88ZM10.9,8.19a.87.87,0,0,0-.87.87v7.65a.87.87,0,0,0,.87.87H22.83a.87.87,0,0,0,.87-.87V9.06a.87.87,0,0,0-.87-.87Z"/><rect class="cls-1" x="9.88" y="9.79" width="13.97" height="2"/><path class="cls-2" d="M24,11.94H9.73V9.64H24Zm-14-.3H23.7V9.94H10Z"/><rect class="cls-2" x="3.14" y="10.77" width="2.84" height="0.6"/><rect class="cls-2" x="6.86" y="10.77" width="1.1" height="0.6"/><rect class="cls-2" x="3.14" y="15.19" width="2.84" height="0.6"/><rect class="cls-2" x="6.86" y="15.19" width="1.1" height="0.6"/><rect class="cls-2" x="5.11" y="12.98" width="2.84" height="0.6"/><rect class="cls-2" x="3.14" y="12.98" width="1.1" height="0.6"/><rect class="cls-2" x="3.14" y="17.54" width="2.84" height="0.6"/><rect class="cls-2" x="6.86" y="17.54" width="1.1" height="0.6"/><rect class="cls-2" x="5.11" y="19.75" width="2.84" height="0.6"/><rect class="cls-2" x="3.14" y="19.75" width="1.1" height="0.6"/><rect class="cls-2" x="3.14" y="3.99" width="2.84" height="0.6"/><rect class="cls-2" x="6.86" y="3.99" width="1.1" height="0.6"/><rect class="cls-2" x="3.14" y="8.42" width="2.84" height="0.6"/><rect class="cls-2" x="6.86" y="8.42" width="1.1" height="0.6"/><rect class="cls-2" x="5.11" y="6.21" width="2.84" height="0.6"/><rect class="cls-2" x="3.14" y="6.21" width="1.1" height="0.6"/></svg>