<svg id="Layer_1" data-name="Layer 1" xmlns="http://www.w3.org/2000/svg" viewBox="0 0 24 24"><defs><style>.cls-1{fill:#eca040;}.cls-2{fill:#fbebd5;}</style></defs><title>Icon Layanan 24x24 px</title><polygon class="cls-1" points="0 4.98 0 21.41 10.98 21.41 11.79 20.23 9.88 17.73 11.79 15.52 9.73 13.2 11.79 10.65 9.58 8.07 11.79 6.16 10.98 4.98 0 4.98"/><rect class="cls-2" x="1.88" y="7.07" width="4.07" height="0.59"/><rect class="cls-2" x="7.2" y="7.07" width="1.57" height="0.59"/><rect class="cls-2" x="1.88" y="11.43" width="4.07" height="0.59"/><rect class="cls-2" x="7.2" y="11.43" width="1.57" height="0.59"/><rect class="cls-2" x="4.7" y="9.25" width="4.07" height="0.59"/><rect class="cls-2" x="1.88" y="9.25" width="1.57" height="0.59"/><rect class="cls-2" x="1.88" y="13.63" width="4.07" height="0.59"/><rect class="cls-2" x="7.2" y="13.63" width="1.57" height="0.59"/><rect class="cls-2" x="1.88" y="17.99" width="4.07" height="0.59"/><rect class="cls-2" x="7.2" y="17.99" width="1.57" height="0.59"/><rect class="cls-2" x="4.7" y="15.81" width="4.07" height="0.59"/><rect class="cls-2" x="1.88" y="15.81" width="1.57" height="0.59"/><polygon class="cls-1" points="24 19.02 24 2.59 13.02 2.59 12.21 3.77 14.12 6.27 12.21 8.48 14.27 10.8 12.21 13.35 14.42 15.93 12.21 17.84 13.02 19.02 24 19.02"/><rect class="cls-2" x="18.05" y="16.34" width="4.07" height="0.59"/><rect class="cls-2" x="15.23" y="16.34" width="1.57" height="0.59"/><rect class="cls-2" x="18.05" y="11.98" width="4.07" height="0.59"/><rect class="cls-2" x="15.23" y="11.98" width="1.57" height="0.59"/><rect class="cls-2" x="15.23" y="14.16" width="4.07" height="0.59"/><rect class="cls-2" x="20.55" y="14.16" width="1.57" height="0.59"/><rect class="cls-2" x="18.05" y="9.78" width="4.07" height="0.59"/><rect class="cls-2" x="15.23" y="9.78" width="1.57" height="0.59"/><rect class="cls-2" x="18.05" y="5.42" width="4.07" height="0.59"/><rect class="cls-2" x="15.23" y="5.42" width="1.57" height="0.59"/><rect class="cls-2" x="15.23" y="7.6" width="4.07" height="0.59"/><rect class="cls-2" x="20.55" y="7.6" width="1.57" height="0.59"/></svg>