<svg id="Layer_1" data-name="Layer 1" xmlns="http://www.w3.org/2000/svg" viewBox="0 0 24 24"><defs><style>.cls-1{fill:#eca040;}.cls-2{fill:#fbebd5;}</style></defs><title>Icon Layanan 24x24 px</title><rect class="cls-1" x="0.71" y="2.31" width="16.28" height="21.69" rx="1.06" ry="1.06"/><rect class="cls-2" x="3.97" y="0.27" width="1.98" height="6.36" rx="0.99" ry="0.99"/><path class="cls-1" d="M5,6.89A1.26,1.26,0,0,1,3.71,5.63V1.26a1.26,1.26,0,0,1,2.52,0V5.63A1.26,1.26,0,0,1,5,6.89ZM5,.53a.73.73,0,0,0-.73.73V5.63a.73.73,0,1,0,1.45,0V1.26A.73.73,0,0,0,5,.53Z"/><rect class="cls-2" x="11.77" y="0.27" width="1.98" height="6.36" rx="0.99" ry="0.99"/><path class="cls-1" d="M12.77,6.89a1.26,1.26,0,0,1-1.26-1.26V1.26a1.26,1.26,0,0,1,2.52,0V5.63A1.26,1.26,0,0,1,12.77,6.89Zm0-6.36a.73.73,0,0,0-.73.73V5.63a.73.73,0,1,0,1.45,0V1.26A.73.73,0,0,0,12.77.53Z"/><rect class="cls-2" x="1.99" y="3.78" width="13.73" height="3.97"/><rect class="cls-2" x="1.99" y="11.17" width="13.73" height="10.69"/><rect class="cls-1" x="2.97" y="11.79" width="2.48" height="2.73"/><path class="cls-2" d="M5.63,14.69H2.8V11.62H5.63Zm-2.48-.35H5.28V12H3.15Z"/><rect class="cls-1" x="2.97" y="15.01" width="2.48" height="2.73"/><path class="cls-2" d="M5.63,17.91H2.8V14.84H5.63Zm-2.48-.35H5.28V15.19H3.15Z"/><rect class="cls-1" x="6.16" y="11.79" width="2.48" height="2.73"/><path class="cls-2" d="M8.81,14.69H6V11.62H8.81Zm-2.48-.35H8.46V12H6.33Z"/><rect class="cls-1" x="9.21" y="11.79" width="2.48" height="2.73"/><path class="cls-2" d="M11.86,14.69H9V11.62h2.83Zm-2.48-.35h2.13V12H9.38Z"/><rect class="cls-1" x="12.26" y="11.79" width="2.48" height="2.73"/><path class="cls-2" d="M14.91,14.69H12.08V11.62h2.83Zm-2.48-.35h2.13V12H12.43Z"/><rect class="cls-1" x="6.16" y="15.01" width="2.48" height="2.73"/><path class="cls-2" d="M8.81,17.91H6V14.84H8.81Zm-2.48-.35H8.46V15.19H6.33Z"/><rect class="cls-1" x="9.21" y="15.01" width="2.48" height="2.73"/><path class="cls-2" d="M11.86,17.91H9V14.84h2.83Zm-2.48-.35h2.13V15.19H9.38Z"/><rect class="cls-1" x="12.26" y="15.01" width="2.48" height="2.73"/><path class="cls-2" d="M14.91,17.91H12.08V14.84h2.83Zm-2.48-.35h2.13V15.19H12.43Z"/><rect class="cls-1" x="2.97" y="18.51" width="2.48" height="2.73"/><path class="cls-2" d="M5.63,21.41H2.8V18.34H5.63Zm-2.48-.35H5.28V18.69H3.15Z"/><rect class="cls-1" x="6.16" y="18.51" width="2.48" height="2.73"/><path class="cls-2" d="M8.81,21.41H6V18.34H8.81Zm-2.48-.35H8.46V18.69H6.33Z"/><rect class="cls-1" x="9.21" y="18.51" width="2.48" height="2.73"/><path class="cls-2" d="M11.86,21.41H9V18.34h2.83Zm-2.48-.35h2.13V18.69H9.38Z"/><rect class="cls-1" x="12.26" y="18.51" width="2.48" height="2.73"/><path class="cls-2" d="M14.91,21.41H12.08V18.34h2.83Zm-2.48-.35h2.13V18.69H12.43Z"/><rect class="cls-2" x="0.71" y="8.84" width="16.28" height="0.53"/><circle class="cls-2" cx="17" cy="12.9" r="6.02"/><path class="cls-1" d="M17,19.19a6.29,6.29,0,1,1,6.29-6.29A6.3,6.3,0,0,1,17,19.19Zm0-12a5.76,5.76,0,1,0,5.76,5.76A5.76,5.76,0,0,0,17,7.14Z"/><polygon class="cls-1" points="21.28 13.43 16.42 13.43 16.42 7.75 17.48 7.75 17.48 12.37 21.28 12.37 21.28 13.43"/><circle class="cls-2" cx="17" cy="12.9" r="1.04"/><path class="cls-1" d="M17,14.21a1.31,1.31,0,1,1,1.31-1.31A1.31,1.31,0,0,1,17,14.21Zm0-2.09a.78.78,0,1,0,.78.78A.78.78,0,0,0,17,12.12Z"/></svg>