<svg id="Layer_1" data-name="Layer 1" xmlns="http://www.w3.org/2000/svg" viewBox="0 0 24 24"><defs><style>.cls-1{fill:#eca040;}.cls-2{fill:#fbebd5;}.cls-3{fill:#fff;}</style></defs><title>Icon Layanan 24x24 px</title><rect class="cls-1" y="0.47" width="17.31" height="23.06" rx="1.12" ry="1.12"/><rect class="cls-2" x="1.36" y="2.03" width="14.6" height="4.22"/><path class="cls-1" d="M16.1,6.39H1.21V1.89H16.1ZM1.5,6.11H15.82V2.17H1.5Z"/><rect class="cls-2" x="1.36" y="9.89" width="4.22" height="4.64"/><path class="cls-1" d="M5.72,14.67H1.21V9.75h4.5ZM1.5,14.39H5.43V10H1.5Z"/><rect class="cls-2" x="6.55" y="9.89" width="4.22" height="4.64"/><path class="cls-1" d="M10.91,14.67H6.4V9.75h4.5Zm-4.22-.28h3.94V10H6.69Z"/><rect class="cls-3" x="11.74" y="9.89" width="4.22" height="4.64"/><path class="cls-1" d="M16.1,14.67H11.6V9.75h4.5Zm-4.22-.28h3.94V10H11.88Z"/><rect class="cls-2" x="1.36" y="15.37" width="4.22" height="4.64"/><path class="cls-1" d="M5.72,20.15H1.21V15.23h4.5ZM1.5,19.87H5.43V15.51H1.5Z"/><rect class="cls-2" x="6.55" y="15.37" width="4.22" height="4.64"/><path class="cls-1" d="M10.91,20.15H6.4V15.23h4.5Zm-4.22-.28h3.94V15.51H6.69Z"/><rect class="cls-2" x="11.74" y="15.37" width="4.22" height="4.64"/><path class="cls-1" d="M16.1,20.15H11.6V15.23h4.5Zm-4.22-.28h3.94V15.51H11.88Z"/><rect class="cls-2" y="7.42" width="17.31" height="0.57"/><circle class="cls-2" cx="17.31" cy="11.72" r="6.4"/><path class="cls-1" d="M17.31,18.41A6.69,6.69,0,1,1,24,11.72,6.69,6.69,0,0,1,17.31,18.41Zm0-12.81a6.12,6.12,0,1,0,6.12,6.12A6.13,6.13,0,0,0,17.31,5.6Z"/><polygon class="cls-1" points="17.93 12.29 12.75 12.29 12.75 11.16 16.79 11.16 16.79 6.25 17.93 6.25 17.93 12.29"/><circle class="cls-2" cx="17.31" cy="11.72" r="1.11"/><path class="cls-1" d="M17.31,13.12a1.39,1.39,0,1,1,1.39-1.39A1.4,1.4,0,0,1,17.31,13.12Zm0-2.22a.83.83,0,1,0,.83.83A.83.83,0,0,0,17.31,10.9Z"/></svg>