<svg width="30" height="30" viewBox="0 0 30 30" fill="none" xmlns="http://www.w3.org/2000/svg">
<circle cx="15" cy="15" r="14.5" stroke="url(#paint0_linear_341_66)"/>
<path d="M15.104 21.192C14.2827 21.192 13.5733 21.048 12.976 20.76C12.3893 20.472 11.9253 20.0773 11.584 19.576C11.2533 19.064 11.0613 18.488 11.008 17.848H13.008C13.104 18.3067 13.3387 18.6907 13.712 19C14.0853 19.2987 14.5493 19.448 15.104 19.448C15.7013 19.448 16.1867 19.2293 16.56 18.792C16.944 18.3547 17.136 17.8107 17.136 17.16C17.136 16.488 16.944 15.9547 16.56 15.56C16.1867 15.1653 15.712 14.968 15.136 14.968C14.656 14.968 14.24 15.0853 13.888 15.32C13.536 15.5547 13.2853 15.848 13.136 16.2H11.168L12.128 9.8H18.336V11.592H13.664L13.152 14.184C13.3867 13.928 13.7067 13.72 14.112 13.56C14.5173 13.3893 14.9707 13.304 15.472 13.304C16.272 13.304 16.9387 13.4853 17.472 13.848C18.0053 14.2 18.4107 14.6693 18.688 15.256C18.9653 15.832 19.104 16.4613 19.104 17.144C19.104 17.9227 18.9333 18.616 18.592 19.224C18.2613 19.832 17.792 20.312 17.184 20.664C16.5867 21.016 15.8933 21.192 15.104 21.192Z" fill="#50B74A"/>
<defs>
<linearGradient id="paint0_linear_341_66" x1="15" y1="0" x2="15" y2="30" gradientUnits="userSpaceOnUse">
<stop stop-color="#E4DFDF"/>
<stop offset="1" stop-color="#4ECB71"/>
</linearGradient>
</defs>
</svg>
