<svg width="512" height="512" xmlns="http://www.w3.org/2000/svg">

 <g>
  <title>background</title>
  <rect fill="none" id="canvas_background" height="402" width="582" y="-1" x="-1"/>
 </g>
 <g>
  <title>Layer 1</title>
  <g id="svg_13">
   <g id="svg_14">
    <path id="svg_15" d="m503.467,494.933l-51.2,0c-5.12,0 -8.533,3.413 -8.533,8.533s3.413,8.533 8.533,8.533l51.2,0c5.12,0 8.533,-3.413 8.533,-8.533s-3.413,-8.533 -8.533,-8.533z"/>
   </g>
  </g>
  <g id="svg_16">
   <g id="svg_17">
    <path id="svg_18" d="m503.467,0l-51.2,0c-5.12,0 -8.533,3.413 -8.533,8.533s3.413,8.533 8.533,8.533l51.2,0c5.12,0 8.533,-3.413 8.533,-8.533s-3.413,-8.533 -8.533,-8.533z"/>
   </g>
  </g>
  <g id="svg_19">
   <g id="svg_20">
    <path id="svg_21" d="m59.733,494.933l-51.2,0c-5.12,0 -8.533,3.413 -8.533,8.533s3.413,8.534 8.533,8.534l51.2,0c5.12,0 8.533,-3.413 8.533,-8.533s-3.413,-8.534 -8.533,-8.534z"/>
   </g>
  </g>
  <g id="svg_22">
   <g id="svg_23">
    <path id="svg_24" d="m59.733,0l-51.2,0c-5.12,0 -8.533,3.413 -8.533,8.533s3.413,8.533 8.533,8.533l51.2,0c5.12,0 8.533,-3.413 8.533,-8.533s-3.413,-8.533 -8.533,-8.533z"/>
   </g>
  </g>
  <g id="svg_25">
   <g id="svg_26">
    <path id="svg_27" d="m8.533,0c-5.12,0 -8.533,3.413 -8.533,8.533l0,51.2c0,5.12 3.413,8.533 8.533,8.533s8.533,-3.413 8.533,-8.533l0,-51.2c0.001,-5.12 -3.413,-8.533 -8.533,-8.533z"/>
   </g>
  </g>
  <g id="svg_28">
   <g id="svg_29">
    <path id="svg_30" d="m503.467,0c-5.12,0 -8.533,3.413 -8.533,8.533l0,51.2c0,5.12 3.413,8.533 8.533,8.533s8.533,-3.413 8.533,-8.533l0,-51.2c0,-5.12 -3.413,-8.533 -8.533,-8.533z"/>
   </g>
  </g>
  <g id="svg_31">
   <g id="svg_32">
    <path id="svg_33" d="m503.467,443.733c-5.12,0 -8.533,3.413 -8.533,8.533l0,51.2c0,5.12 3.413,8.533 8.533,8.533s8.533,-3.413 8.533,-8.533l0,-51.2c0,-5.119 -3.413,-8.533 -8.533,-8.533z"/>
   </g>
  </g>
  <g id="svg_34">
   <g id="svg_35">
    <path id="svg_36" d="m8.533,443.733c-5.12,0 -8.533,3.413 -8.533,8.533l0,51.2c0,5.121 3.413,8.534 8.533,8.534s8.533,-3.413 8.533,-8.533l0,-51.2c0.001,-5.12 -3.413,-8.534 -8.533,-8.534z"/>
   </g>
  </g>
  <g id="svg_49"/>
  <g id="svg_50"/>
  <g id="svg_51"/>
  <g id="svg_52"/>
  <g id="svg_53"/>
  <g id="svg_54"/>
  <g id="svg_55"/>
  <g id="svg_56"/>
  <g id="svg_57"/>
  <g id="svg_58"/>
  <g id="svg_59"/>
  <g id="svg_60"/>
  <g id="svg_61"/>
  <g id="svg_62"/>
  <g id="svg_63"/>
  <metadata transform="matrix(0.029127110487196184,0,0,0.029127110487196184,0,0) ">Svg Vector Icons : http://www.onlinewebfonts.com/icon</metadata>
  <g stroke="null" id="svg_105">
   <g stroke="null" transform="matrix(0.4178043713820459,0,0,0.41994350353882226,-3424.608861478443,-3448.409614550395) " id="svg_103">
    <path stroke="null" id="svg_104" d="m9272.247341,9278.037774c-10.5,-191.7 -138.4,-349.9 -313,-407.8c6.3,-3.6 12.2,-7.3 18.3,-11.5l43.6,-36.7c51.4,-52.4 83.1,-124.2 83.1,-203.5c0,-160.6 -130.3,-290.9 -291,-290.9c-160.7,0 -290.9,130.3 -290.9,290.9c0,107.4 58.5,201.2 145.2,251.5c-174.7,58.1 -302.7,216.5 -313.8,408l0,0.4c1.2,16.4 15.5,29.2 32.4,29.2s30.8,-12.8 32.1,-29.2c13.6,-206 185,-367.3 394.6,-367.3c210.4,0 382,160 394.6,367.3l0,0c1.3,16.4 15.3,29.2 32.1,29.2c17,0 31.3,-12.6 32.5,-28.9l0.2,-0.7zm-459.4,-432.3c-125.4,0 -227,-101.5 -227,-227c0,-125.4 101.5,-227 227,-227c125.4,0 227,101.5 227,227c0,61.9 -24.8,117.7 -64.8,158.8l-34,28.5c-36.3,25 -80.6,39.7 -128.2,39.7z"/>
   </g>
  </g>
 </g>
</svg>