<svg width="512" height="512" xmlns="http://www.w3.org/2000/svg">

 <g>
  <title>background</title>
  <rect fill="none" id="canvas_background" height="402" width="582" y="-1" x="-1"/>
 </g>
 <g>
  <title>Layer 1</title>
  <g id="svg_13">
   <g id="svg_14">
    <path id="svg_15" d="m503.467,397.933l-51.2,0c-5.12,0 -8.533,3.413 -8.533,8.533s3.413,8.533 8.533,8.533l51.2,0c5.12,0 8.533,-3.413 8.533,-8.533s-3.413,-8.533 -8.533,-8.533z"/>
   </g>
  </g>
  <g id="svg_16">
   <g id="svg_17">
    <path id="svg_18" d="m502.467,88l-51.2,0c-5.12,0 -8.533,3.413 -8.533,8.533s3.413,8.533 8.533,8.533l51.2,0c5.12,0 8.533,-3.413 8.533,-8.533s-3.413,-8.533 -8.533,-8.533z"/>
   </g>
  </g>
  <g id="svg_19">
   <g id="svg_20">
    <path id="svg_21" d="m57.733,399.933l-51.2,0c-5.12,0 -8.533,3.413 -8.533,8.533s3.413,8.534 8.533,8.534l51.2,0c5.12,0 8.533,-3.413 8.533,-8.533s-3.413,-8.534 -8.533,-8.534z"/>
   </g>
  </g>
  <g id="svg_22">
   <g id="svg_23">
    <path id="svg_24" d="m59.733,92l-51.2,0c-5.12,0 -8.533,3.413 -8.533,8.533s3.413,8.533 8.533,8.533l51.2,0c5.12,0 8.533,-3.413 8.533,-8.533s-3.413,-8.533 -8.533,-8.533z"/>
   </g>
  </g>
  <g id="svg_25">
   <g id="svg_26">
    <path id="svg_27" d="m8.533,93c-5.12,0 -8.533,3.413 -8.533,8.533l0,51.2c0,5.12 3.413,8.533 8.533,8.533s8.533,-3.413 8.533,-8.533l0,-51.2c0.001,-5.12 -3.413,-8.533 -8.533,-8.533z"/>
   </g>
  </g>
  <g id="svg_28">
   <g id="svg_29">
    <path id="svg_30" d="m503.467,95c-5.12,0 -8.533,3.413 -8.533,8.533l0,51.2c0,5.12 3.413,8.533 8.533,8.533s8.533,-3.413 8.533,-8.533l0,-51.2c0,-5.12 -3.413,-8.533 -8.533,-8.533z"/>
   </g>
  </g>
  <g id="svg_31">
   <g id="svg_32">
    <path id="svg_33" d="m503.467,346.733c-5.12,0 -8.533,3.413 -8.533,8.533l0,51.2c0,5.12 3.413,8.533 8.533,8.533s8.533,-3.413 8.533,-8.533l0,-51.2c0,-5.119 -3.413,-8.533 -8.533,-8.533z"/>
   </g>
  </g>
  <g id="svg_34">
   <g id="svg_35">
    <path id="svg_36" d="m8.533,348.733c-5.12,0 -8.533,3.413 -8.533,8.533l0,51.2c0,5.121 3.413,8.534 8.533,8.534s8.533,-3.413 8.533,-8.533l0,-51.2c0.001,-5.12 -3.413,-8.534 -8.533,-8.534z"/>
   </g>
  </g>
  <g id="svg_49"/>
  <g id="svg_50"/>
  <g id="svg_51"/>
  <g id="svg_52"/>
  <g id="svg_53"/>
  <g id="svg_54"/>
  <g id="svg_55"/>
  <g id="svg_56"/>
  <g id="svg_57"/>
  <g id="svg_58"/>
  <g id="svg_59"/>
  <g id="svg_60"/>
  <g id="svg_61"/>
  <g id="svg_62"/>
  <g id="svg_63"/>
  <g stroke="null" id="svg_147">
   <g stroke="null" transform="matrix(1.6881255467483944,0,0,1.264496336015877,-703.950143800233,-506.11091045525677) " id="svg_145">
    <title stroke="null" transform="translate(0,-0.7908287048339844) translate(0,0.7908287048339844) translate(0,0.7908287048339844) translate(0,0.7908287048339844) translate(-0.5923730134963989,-5.684341886080802e-14) translate(0.5923730134963989,-5.684341886080802e-14) translate(0.5923730134963989,-5.684341886080802e-14) translate(0.5923730134963989,-5.684341886080802e-14) translate(0.5923730134963989,-5.684341886080802e-14) translate(0.5923730134963989,-5.684341886080802e-14) translate(0.5923730134963989,-5.684341886080802e-14) translate(0.5923730134963989,-5.684341886080802e-14) translate(0.5923730134963989,-5.684341886080802e-14) translate(0.5923730134963989,-5.684341886080802e-14) translate(0,0.7908287048339844) translate(0,0.7908287048339844) translate(0,0.7908287048339844) translate(0,0.7908287048339844) translate(0,0.7908287048339844) translate(0,0.7908287048339844) translate(0,0.7908287048339844) translate(0,-0.7908287048339844) translate(0,-0.7908287048339844) translate(0,-0.7908287048339844) translate(0,-0.7908287048339844) translate(0,-0.7908287048339844) translate(0,-0.7908287048339844) translate(0,-0.7908287048339844) translate(0,-0.7908287048339844) translate(0,-0.7908287048339844) translate(0,-0.7908287048339844) translate(0,-0.7908287048339844) translate(0,-0.7908287048339844) translate(0,-0.7908287048339844) translate(0,-0.7908287048339844) translate(0,-0.7908287048339844) translate(0,-0.7908287048339844) translate(0,-0.7908287048339844) translate(0,-0.7908287048339844) translate(0,-0.7908287048339844) translate(0,-0.7908287048339844) translate(0,-0.7908287048339844) translate(0,-0.7908287048339844) translate(0,-0.7908287048339844) translate(0,-0.7908287048339844) translate(0,-0.7908287048339844) translate(0,-0.7908287048339844) translate(0.5923730134963989,-5.684341886080802e-14) translate(0.5923730134963989,-5.684341886080802e-14) translate(0,0.7908287048339844) translate(0,0.7908287048339844) translate(0,0.7908287048339844) translate(0,0.7908287048339844) translate(0,0.7908287048339844) translate(0,0.7908287048339844) translate(0,0.7908287048339844) translate(0,0.7908287048339844) translate(0,0.7908287048339844) translate(0,0.7908287048339844) translate(0,0.7908287048339844) translate(0,0.7908287048339844) translate(0,0.7908287048339844) translate(0,0.7908287048339844) translate(0,0.7908287048339844) translate(0,0.7908287048339844) translate(0,0.7908287048339844) translate(0,0.7908287048339844) translate(0,0.7908287048339844) translate(0,0.7908287048339844) translate(0,0.7908287048339844) translate(0,0.7908287048339844) translate(0,0.7908287048339844) translate(0,0.7908287048339844) translate(0,0.7908287048339844) translate(0,0.7908287048339844) translate(0,0.7908287048339844) translate(0,0.7908287048339844) translate(0,0.7908287048339844) translate(0,0.7908287048339844) translate(0,0.7908287048339844) translate(0,0.7908287048339844) translate(0,0.7908287048339844) translate(0,0.8115841746330261) translate(0,0.8115841746330261) translate(0,0.8115841746330261) translate(0,0.8115841746330261) translate(0,0.8115841746330261) translate(0,0.8115841746330261) translate(0,0.8115841746330261) translate(0,0.8115841746330261) translate(0,0.8115841746330261) translate(0,0.8115841746330261) translate(0,0.8115841746330261) translate(0,0.8115841746330261) translate(0,0.8115841746330261) translate(0,0.8115841746330261) translate(0,0.8115841746330261) translate(0,0.8115841746330261) translate(0,0.8115841746330261) translate(0,0.8115841746330261) translate(0,0.8115841746330261) translate(0,0.8115841746330261) translate(0,0.8115841746330261) translate(0,0.8115841746330261) translate(0,0.8115841746330261) translate(0,0.8115841746330261) translate(0,0.8115841746330261) translate(0,0.8115841746330261) translate(0,0.8115841746330261) translate(0,0.8115841746330261) translate(0,0.8115841746330261) translate(0,0.8115841746330261) translate(0,0.8115841746330261) translate(0,0.8115841746330261) translate(0,0.8115841746330261) translate(0,0.8115841746330261) translate(0,0.8115841746330261) translate(0,0.8115841746330261) translate(0,0.8115841746330261) translate(0,0.8115841746330261) translate(0,0.8115841746330261) translate(0,0.8115841746330261) translate(0,0.8115841746330261) translate(0,0.8115841746330261) translate(0,0.8115841746330261) translate(0,0.8115841746330261) translate(0,0.8115841746330261) translate(0,0.8115841746330261) translate(0,0.8115841746330261) translate(0,0.8115841746330261) translate(0,0.8115841746330261) translate(0,0.8115841746330261) translate(0,0.8115841746330261) translate(0,0.8115841746330261) translate(0,0.8115841746330261) translate(0,0.8115841746330261) translate(0,0.8115841746330261) translate(0,0.8115841746330261) translate(0,0.8115841746330261) translate(0,0.8115841746330261) translate(0,0.8115841746330261) translate(0,0.8115841746330261) translate(0,0.8115841746330261) translate(0,0.8115841746330261) translate(0,0.8115841746330261) translate(0,0.8115841746330261) translate(0,0.8115841746330261) translate(0,0.8115841746330261) translate(0,0.8115841746330261) translate(0,0.8115841746330261) translate(0,0.8115841746330261) translate(0,0.8115841746330261) translate(0,0.8115841746330261) translate(0,0.8115841746330261) translate(0,0.8115841746330261) translate(0,0.8115841746330261) translate(0,0.8115841746330261) translate(0.5990803837776184,0) translate(0.5990803837776184,0) translate(0.5990803837776184,0) translate(0.5990803837776184,0) translate(0.5990803837776184,0) translate(0.5990803837776184,0) translate(0.5990803837776184,0) translate(0.5990803837776184,0) translate(0.5990803837776184,0) translate(0.5990803837776184,0) translate(0.5990803837776184,0) translate(0.5990803837776184,0) translate(0.5990803837776184,0) translate(0.5990803837776184,0) translate(0.5990803837776184,0) translate(0.5990803837776184,0) translate(0.5990803837776184,0) translate(0.5990803837776184,0) translate(0.5990803837776184,0) translate(0.5990803837776184,0) translate(0.5990803837776184,0) translate(0.5990803837776184,0) translate(0.5990803837776184,0) translate(0.5990803837776184,0) translate(0.5990803837776184,0) translate(0.5990803837776184,0) translate(0.5990803837776184,0) translate(0.5990803837776184,0) translate(0.5990803837776184,0) translate(0.5990803837776184,0) translate(0.5990803837776184,0) translate(0.5990803837776184,0) translate(0.5990803837776184,0) translate(0.5990803837776184,0) translate(0.5990803837776184,0) translate(0.5990803837776184,0) translate(0.5990803837776184,0) translate(0.5990803837776184,0) translate(0.5990803837776184,0) translate(0.5990803837776184,0) translate(0.5990803837776184,0) translate(0.5990803837776184,0) translate(0.5990803837776184,0) translate(0.5990803837776184,0) translate(0.5990803837776184,0) translate(0.5990803837776184,0) translate(0.5990803837776184,0) translate(0.5990803837776184,0) translate(0.5990803837776184,0) translate(0.5990803837776184,0) translate(0.5990803837776184,0) translate(0.5990803837776184,0) translate(0.5990803837776184,0) translate(0.5990803837776184,0) translate(0.5990803837776184,0) translate(0.5990803837776184,0) translate(0.5990803837776184,0) translate(0.5990803837776184,0) translate(0.5990803837776184,0) translate(0.5990803837776184,0) translate(0.5990803837776184,0) translate(0.5990803837776184,0) translate(0.5990803837776184,0) translate(0.5990803837776184,0) translate(0.5990803837776184,0) translate(0.5990803837776184,0) translate(0.5990803837776184,0) translate(0.5990803837776184,0) translate(0.5990803837776184,0) translate(0.5990803837776184,0) translate(0.5990803837776184,0) translate(0.5990803837776184,0) translate(0.5990803837776184,0) translate(0.5990803837776184,0) translate(0.5990803837776184,0) translate(0.5990803837776184,0) translate(0.5990803837776184,0) translate(0.5990803837776184,0) translate(0.5990803837776184,0) translate(0.5990803837776184,0) translate(0.5990803837776184,0) translate(0.5990803837776184,0) translate(0.5990803837776184,0) translate(0.5990803837776184,0) translate(0.5990803837776184,0) translate(0.5990803837776184,0) translate(0.5990803837776184,0) translate(0.5990803837776184,0) translate(0.5990803837776184,0) translate(0.5990803837776184,0) translate(0.5990803837776184,0) translate(0.5990803837776184,0) translate(0.5990803837776184,0) translate(0.5990803837776184,0) translate(0.5990803837776184,0) translate(0.5990803837776184,0) translate(0.5990803837776184,0) translate(0.5990803837776184,0) translate(0.5990803837776184,0) translate(0.5990803837776184,0) translate(0.5990803837776184,0) translate(0.5990803837776184,0) translate(0.5990803837776184,0) translate(0.5990803837776184,0) translate(0.5990803837776184,0) translate(0.5990803837776184,0) translate(0.5990803837776184,0) translate(0.5990803837776184,0) translate(0.5990803837776184,0) translate(0.5990803837776184,0) translate(0.5990803837776184,0) translate(0.5990803837776184,0) translate(0.5990803837776184,0) translate(0.5990803837776184,0) translate(0.5990803837776184,0) translate(0.5990803837776184,0) translate(0.5990803837776184,0) translate(0.5990803837776184,0) translate(0.5990803837776184,0) translate(0.5990803837776184,0) translate(0.5990803837776184,0) translate(0.5990803837776184,0) translate(0.5990803837776184,0) translate(0.5990803837776184,0) translate(0.5990803837776184,0) translate(0.5990803837776184,0) translate(0.5990803837776184,0) translate(0.5990803837776184,0) translate(0.5990803837776184,0) translate(0.5990803837776184,0) translate(0.5990803837776184,0) translate(0.5990803837776184,0) translate(0.5990803837776184,0) translate(0.5990803837776184,0) translate(0.5990803837776184,0) translate(0.5990803837776184,0) translate(0.5990803837776184,0) translate(0.5990803837776184,0) translate(0.5990803837776184,0) translate(0.5990803837776184,0) translate(0.5990803837776184,0) translate(0.5990803837776184,0) translate(0.5990803837776184,0) translate(0.5990803837776184,0) translate(0.5990803837776184,0) translate(0.5990803837776184,0) translate(0.5990803837776184,0) translate(0.5990803837776184,0) translate(0.5990803837776184,0) translate(0.5990803837776184,0) translate(0.5990803837776184,0) translate(0.5990803837776184,0) translate(0.5990803837776184,0) translate(0.5990803837776184,0) translate(0.5990803837776184,0) translate(0.5990803837776184,0) translate(0.5990803837776184,0) translate(0.5990803837776184,0) translate(0.5990803837776184,0) translate(0.5990803837776184,0) translate(0.5990803837776184,0) translate(0.5990803837776184,0) translate(0.5990803837776184,0) translate(0.5990803837776184,0) translate(0.5990803837776184,0) translate(0.5990803837776184,0) translate(0.5990803837776184,0) translate(0.5990803837776184,0) translate(0.5990803837776184,0) translate(0.5990803837776184,0) translate(0.5990803837776184,0) translate(0.5990803837776184,0) translate(0.5990803837776184,0) translate(0.5990803837776184,0) translate(0.5990803837776184,0) translate(0.5990803837776184,0) translate(0.5990803837776184,0) translate(0.5990803837776184,0) translate(0.5990803837776184,0) translate(0.5990803837776184,0) translate(0.5990803837776184,0) translate(0.5990803837776184,0) translate(0.5990803837776184,0) translate(0.5990803837776184,0) translate(0.5990803837776184,0) translate(0.5990803837776184,0) translate(0.5990803837776184,0) translate(0.5990803837776184,0) translate(0.5990803837776184,0) translate(0.5990803837776184,0) translate(0.5990803837776184,0) translate(0.5990803837776184,0) translate(0.5990803837776184,0) translate(0.5990803837776184,0) translate(0.5990803837776184,0) translate(0.5990803837776184,0) translate(0.5990803837776184,0) translate(0.5990803837776184,0) translate(0.5990803837776184,0) translate(0.5990803837776184,0) translate(0.5990803837776184,0) translate(0.5990803837776184,0) translate(0.5990803837776184,0) translate(0.5990803837776184,0) translate(0.5990803837776184,0) translate(307.1883544921875,0) translate(0,397.1883850097656) ">background</title>
    <rect stroke="null" x="434.923563" y="469.710457" width="582" height="402" id="svg_143" fill="none"/>
   </g>
   <g stroke="null" transform="matrix(1.6881255467483944,0,0,1.264496336015877,-703.950143800233,-506.11091045525677) " id="svg_146">
    <title stroke="null" transform="translate(0,-0.7908287048339844) translate(0,0.7908287048339844) translate(0,0.7908287048339844) translate(0,0.7908287048339844) translate(-0.5923730134963989,-5.684341886080802e-14) translate(0.5923730134963989,-5.684341886080802e-14) translate(0.5923730134963989,-5.684341886080802e-14) translate(0.5923730134963989,-5.684341886080802e-14) translate(0.5923730134963989,-5.684341886080802e-14) translate(0.5923730134963989,-5.684341886080802e-14) translate(0.5923730134963989,-5.684341886080802e-14) translate(0.5923730134963989,-5.684341886080802e-14) translate(0.5923730134963989,-5.684341886080802e-14) translate(0.5923730134963989,-5.684341886080802e-14) translate(0,0.7908287048339844) translate(0,0.7908287048339844) translate(0,0.7908287048339844) translate(0,0.7908287048339844) translate(0,0.7908287048339844) translate(0,0.7908287048339844) translate(0,0.7908287048339844) translate(0,-0.7908287048339844) translate(0,-0.7908287048339844) translate(0,-0.7908287048339844) translate(0,-0.7908287048339844) translate(0,-0.7908287048339844) translate(0,-0.7908287048339844) translate(0,-0.7908287048339844) translate(0,-0.7908287048339844) translate(0,-0.7908287048339844) translate(0,-0.7908287048339844) translate(0,-0.7908287048339844) translate(0,-0.7908287048339844) translate(0,-0.7908287048339844) translate(0,-0.7908287048339844) translate(0,-0.7908287048339844) translate(0,-0.7908287048339844) translate(0,-0.7908287048339844) translate(0,-0.7908287048339844) translate(0,-0.7908287048339844) translate(0,-0.7908287048339844) translate(0,-0.7908287048339844) translate(0,-0.7908287048339844) translate(0,-0.7908287048339844) translate(0,-0.7908287048339844) translate(0,-0.7908287048339844) translate(0,-0.7908287048339844) translate(0.5923730134963989,-5.684341886080802e-14) translate(0.5923730134963989,-5.684341886080802e-14) translate(0,0.7908287048339844) translate(0,0.7908287048339844) translate(0,0.7908287048339844) translate(0,0.7908287048339844) translate(0,0.7908287048339844) translate(0,0.7908287048339844) translate(0,0.7908287048339844) translate(0,0.7908287048339844) translate(0,0.7908287048339844) translate(0,0.7908287048339844) translate(0,0.7908287048339844) translate(0,0.7908287048339844) translate(0,0.7908287048339844) translate(0,0.7908287048339844) translate(0,0.7908287048339844) translate(0,0.7908287048339844) translate(0,0.7908287048339844) translate(0,0.7908287048339844) translate(0,0.7908287048339844) translate(0,0.7908287048339844) translate(0,0.7908287048339844) translate(0,0.7908287048339844) translate(0,0.7908287048339844) translate(0,0.7908287048339844) translate(0,0.7908287048339844) translate(0,0.7908287048339844) translate(0,0.7908287048339844) translate(0,0.7908287048339844) translate(0,0.7908287048339844) translate(0,0.7908287048339844) translate(0,0.7908287048339844) translate(0,0.7908287048339844) translate(0,0.7908287048339844) translate(0,0.8115841746330261) translate(0,0.8115841746330261) translate(0,0.8115841746330261) translate(0,0.8115841746330261) translate(0,0.8115841746330261) translate(0,0.8115841746330261) translate(0,0.8115841746330261) translate(0,0.8115841746330261) translate(0,0.8115841746330261) translate(0,0.8115841746330261) translate(0,0.8115841746330261) translate(0,0.8115841746330261) translate(0,0.8115841746330261) translate(0,0.8115841746330261) translate(0,0.8115841746330261) translate(0,0.8115841746330261) translate(0,0.8115841746330261) translate(0,0.8115841746330261) translate(0,0.8115841746330261) translate(0,0.8115841746330261) translate(0,0.8115841746330261) translate(0,0.8115841746330261) translate(0,0.8115841746330261) translate(0,0.8115841746330261) translate(0,0.8115841746330261) translate(0,0.8115841746330261) translate(0,0.8115841746330261) translate(0,0.8115841746330261) translate(0,0.8115841746330261) translate(0,0.8115841746330261) translate(0,0.8115841746330261) translate(0,0.8115841746330261) translate(0,0.8115841746330261) translate(0,0.8115841746330261) translate(0,0.8115841746330261) translate(0,0.8115841746330261) translate(0,0.8115841746330261) translate(0,0.8115841746330261) translate(0,0.8115841746330261) translate(0,0.8115841746330261) translate(0,0.8115841746330261) translate(0,0.8115841746330261) translate(0,0.8115841746330261) translate(0,0.8115841746330261) translate(0,0.8115841746330261) translate(0,0.8115841746330261) translate(0,0.8115841746330261) translate(0,0.8115841746330261) translate(0,0.8115841746330261) translate(0,0.8115841746330261) translate(0,0.8115841746330261) translate(0,0.8115841746330261) translate(0,0.8115841746330261) translate(0,0.8115841746330261) translate(0,0.8115841746330261) translate(0,0.8115841746330261) translate(0,0.8115841746330261) translate(0,0.8115841746330261) translate(0,0.8115841746330261) translate(0,0.8115841746330261) translate(0,0.8115841746330261) translate(0,0.8115841746330261) translate(0,0.8115841746330261) translate(0,0.8115841746330261) translate(0,0.8115841746330261) translate(0,0.8115841746330261) translate(0,0.8115841746330261) translate(0,0.8115841746330261) translate(0,0.8115841746330261) translate(0,0.8115841746330261) translate(0,0.8115841746330261) translate(0,0.8115841746330261) translate(0,0.8115841746330261) translate(0,0.8115841746330261) translate(0,0.8115841746330261) translate(0.5990803837776184,0) translate(0.5990803837776184,0) translate(0.5990803837776184,0) translate(0.5990803837776184,0) translate(0.5990803837776184,0) translate(0.5990803837776184,0) translate(0.5990803837776184,0) translate(0.5990803837776184,0) translate(0.5990803837776184,0) translate(0.5990803837776184,0) translate(0.5990803837776184,0) translate(0.5990803837776184,0) translate(0.5990803837776184,0) translate(0.5990803837776184,0) translate(0.5990803837776184,0) translate(0.5990803837776184,0) translate(0.5990803837776184,0) translate(0.5990803837776184,0) translate(0.5990803837776184,0) translate(0.5990803837776184,0) translate(0.5990803837776184,0) translate(0.5990803837776184,0) translate(0.5990803837776184,0) translate(0.5990803837776184,0) translate(0.5990803837776184,0) translate(0.5990803837776184,0) translate(0.5990803837776184,0) translate(0.5990803837776184,0) translate(0.5990803837776184,0) translate(0.5990803837776184,0) translate(0.5990803837776184,0) translate(0.5990803837776184,0) translate(0.5990803837776184,0) translate(0.5990803837776184,0) translate(0.5990803837776184,0) translate(0.5990803837776184,0) translate(0.5990803837776184,0) translate(0.5990803837776184,0) translate(0.5990803837776184,0) translate(0.5990803837776184,0) translate(0.5990803837776184,0) translate(0.5990803837776184,0) translate(0.5990803837776184,0) translate(0.5990803837776184,0) translate(0.5990803837776184,0) translate(0.5990803837776184,0) translate(0.5990803837776184,0) translate(0.5990803837776184,0) translate(0.5990803837776184,0) translate(0.5990803837776184,0) translate(0.5990803837776184,0) translate(0.5990803837776184,0) translate(0.5990803837776184,0) translate(0.5990803837776184,0) translate(0.5990803837776184,0) translate(0.5990803837776184,0) translate(0.5990803837776184,0) translate(0.5990803837776184,0) translate(0.5990803837776184,0) translate(0.5990803837776184,0) translate(0.5990803837776184,0) translate(0.5990803837776184,0) translate(0.5990803837776184,0) translate(0.5990803837776184,0) translate(0.5990803837776184,0) translate(0.5990803837776184,0) translate(0.5990803837776184,0) translate(0.5990803837776184,0) translate(0.5990803837776184,0) translate(0.5990803837776184,0) translate(0.5990803837776184,0) translate(0.5990803837776184,0) translate(0.5990803837776184,0) translate(0.5990803837776184,0) translate(0.5990803837776184,0) translate(0.5990803837776184,0) translate(0.5990803837776184,0) translate(0.5990803837776184,0) translate(0.5990803837776184,0) translate(0.5990803837776184,0) translate(0.5990803837776184,0) translate(0.5990803837776184,0) translate(0.5990803837776184,0) translate(0.5990803837776184,0) translate(0.5990803837776184,0) translate(0.5990803837776184,0) translate(0.5990803837776184,0) translate(0.5990803837776184,0) translate(0.5990803837776184,0) translate(0.5990803837776184,0) translate(0.5990803837776184,0) translate(0.5990803837776184,0) translate(0.5990803837776184,0) translate(0.5990803837776184,0) translate(0.5990803837776184,0) translate(0.5990803837776184,0) translate(0.5990803837776184,0) translate(0.5990803837776184,0) translate(0.5990803837776184,0) translate(0.5990803837776184,0) translate(0.5990803837776184,0) translate(0.5990803837776184,0) translate(0.5990803837776184,0) translate(0.5990803837776184,0) translate(0.5990803837776184,0) translate(0.5990803837776184,0) translate(0.5990803837776184,0) translate(0.5990803837776184,0) translate(0.5990803837776184,0) translate(0.5990803837776184,0) translate(0.5990803837776184,0) translate(0.5990803837776184,0) translate(0.5990803837776184,0) translate(0.5990803837776184,0) translate(0.5990803837776184,0) translate(0.5990803837776184,0) translate(0.5990803837776184,0) translate(0.5990803837776184,0) translate(0.5990803837776184,0) translate(0.5990803837776184,0) translate(0.5990803837776184,0) translate(0.5990803837776184,0) translate(0.5990803837776184,0) translate(0.5990803837776184,0) translate(0.5990803837776184,0) translate(0.5990803837776184,0) translate(0.5990803837776184,0) translate(0.5990803837776184,0) translate(0.5990803837776184,0) translate(0.5990803837776184,0) translate(0.5990803837776184,0) translate(0.5990803837776184,0) translate(0.5990803837776184,0) translate(0.5990803837776184,0) translate(0.5990803837776184,0) translate(0.5990803837776184,0) translate(0.5990803837776184,0) translate(0.5990803837776184,0) translate(0.5990803837776184,0) translate(0.5990803837776184,0) translate(0.5990803837776184,0) translate(0.5990803837776184,0) translate(0.5990803837776184,0) translate(0.5990803837776184,0) translate(0.5990803837776184,0) translate(0.5990803837776184,0) translate(0.5990803837776184,0) translate(0.5990803837776184,0) translate(0.5990803837776184,0) translate(0.5990803837776184,0) translate(0.5990803837776184,0) translate(0.5990803837776184,0) translate(0.5990803837776184,0) translate(0.5990803837776184,0) translate(0.5990803837776184,0) translate(0.5990803837776184,0) translate(0.5990803837776184,0) translate(0.5990803837776184,0) translate(0.5990803837776184,0) translate(0.5990803837776184,0) translate(0.5990803837776184,0) translate(0.5990803837776184,0) translate(0.5990803837776184,0) translate(0.5990803837776184,0) translate(0.5990803837776184,0) translate(0.5990803837776184,0) translate(0.5990803837776184,0) translate(0.5990803837776184,0) translate(0.5990803837776184,0) translate(0.5990803837776184,0) translate(0.5990803837776184,0) translate(0.5990803837776184,0) translate(0.5990803837776184,0) translate(0.5990803837776184,0) translate(0.5990803837776184,0) translate(0.5990803837776184,0) translate(0.5990803837776184,0) translate(0.5990803837776184,0) translate(0.5990803837776184,0) translate(0.5990803837776184,0) translate(0.5990803837776184,0) translate(0.5990803837776184,0) translate(0.5990803837776184,0) translate(0.5990803837776184,0) translate(0.5990803837776184,0) translate(0.5990803837776184,0) translate(0.5990803837776184,0) translate(0.5990803837776184,0) translate(0.5990803837776184,0) translate(0.5990803837776184,0) translate(0.5990803837776184,0) translate(0.5990803837776184,0) translate(0.5990803837776184,0) translate(0.5990803837776184,0) translate(0.5990803837776184,0) translate(0.5990803837776184,0) translate(0.5990803837776184,0) translate(0.5990803837776184,0) translate(0.5990803837776184,0) translate(0.5990803837776184,0) translate(0.5990803837776184,0) translate(0.5990803837776184,0) translate(0.5990803837776184,0) translate(0.5990803837776184,0) translate(0.5990803837776184,0) translate(307.1883544921875,0) translate(0,397.1883850097656) ">Layer 1</title>
    <g stroke="null" id="svg_134">
     <path stroke="null" d="m672.589563,511.592457l-212.666,0c-13.233,0 -24,10.767 -24,24l0,130.902c0,13.233 10.767,24 24,24l212.666,0c13.233,0 24,-10.767 24,-24l0,-130.902c0,-13.234 -10.767,-24 -24,-24zm9,154.902c0,4.962 -4.037,9 -9,9l-212.666,0c-4.963,0 -9,-4.038 -9,-9l0,-130.902c0,-4.962 4.037,-9 9,-9l212.666,0c4.963,0 9,4.038 9,9l0,130.902z" id="svg_142"/>
     <path stroke="null" d="m563.629123,546.413457l-84.26412,0c-4.05106,0 -7.33444,2.687 -7.33444,6s3.28338,6 7.33444,6l84.26412,0c4.05105,0 7.33444,-2.687 7.33444,-6s-3.28339,-6 -7.33444,-6z" id="svg_141"/>
     <path stroke="null" d="m636.086563,599.846457c17.004,0 30.838,-13.839 30.838,-30.849c0,-17.011 -13.834,-30.85 -30.838,-30.85c-17.009,0 -30.847,13.839 -30.847,30.85c0,17.01 13.838,30.849 30.847,30.849zm0,-46.698c8.733,0 15.838,7.11 15.838,15.85c0,8.739 -7.104,15.849 -15.838,15.849c-8.738,0 -15.847,-7.11 -15.847,-15.849c0,-8.74 7.109,-15.85 15.847,-15.85z" id="svg_140"/>
     <path stroke="null" d="m648.020563,602.390457l-23.682,0c-16.592,0 -30.09,13.497 -30.09,30.088l0,12.961c0,4.142 3.357,7.5 7.5,7.5s7.5,-3.358 7.5,-7.5l0,-12.961c0,-8.319 6.77,-15.088 15.09,-15.088l23.682,0c8.32,0 15.09,6.768 15.09,15.088l0,12.961c0,4.142 3.357,7.5 7.5,7.5s7.5,-3.358 7.5,-7.5l0,-12.961c0,-16.591 -13.499,-30.088 -30.09,-30.088z" id="svg_139"/>
     <path stroke="null" d="m562.629123,565.413457l-84.26412,0c-4.05106,0 -7.33444,2.687 -7.33444,6s3.28338,6 7.33444,6l84.26412,0c4.05105,0 7.33444,-2.687 7.33444,-6s-3.28339,-6 -7.33444,-6z" id="svg_138"/>
     <path stroke="null" d="m562.629123,587.413457l-84.26412,0c-4.05106,0 -7.33444,2.687 -7.33444,6s3.28338,6 7.33444,6l84.26412,0c4.05105,0 7.33444,-2.687 7.33444,-6s-3.28339,-6 -7.33444,-6z" id="svg_137"/>
     <path stroke="null" d="m562.629123,607.413457l-84.26412,0c-4.05106,0 -7.33444,2.687 -7.33444,6s3.28338,6 7.33444,6l84.26412,0c4.05105,0 7.33444,-2.687 7.33444,-6s-3.28339,-6 -7.33444,-6z" id="svg_136"/>
     <path stroke="null" d="m562.629123,626.413457l-84.26412,0c-4.05106,0 -7.33444,2.687 -7.33444,6s3.28338,6 7.33444,6l84.26412,0c4.05105,0 7.33444,-2.687 7.33444,-6s-3.28339,-6 -7.33444,-6z" id="svg_135"/>
    </g>
    <g stroke="null" id="svg_133"/>
    <g stroke="null" id="svg_132"/>
    <g stroke="null" id="svg_131"/>
    <g stroke="null" id="svg_130"/>
    <g stroke="null" id="svg_129"/>
    <g stroke="null" id="svg_128"/>
    <g stroke="null" id="svg_127"/>
    <g stroke="null" id="svg_126"/>
    <g stroke="null" id="svg_125"/>
    <g stroke="null" id="svg_124"/>
    <g stroke="null" id="svg_123"/>
    <g stroke="null" id="svg_122"/>
    <g stroke="null" id="svg_121"/>
    <g stroke="null" id="svg_120"/>
    <g stroke="null" id="svg_119"/>
   </g>
  </g>
 </g>
</svg>