<svg width="142" height="129" viewBox="0 0 142 129" fill="none" xmlns="http://www.w3.org/2000/svg">
<path d="M123.038 61.4743C133.51 61.4743 142 52.9988 142 42.5438C142 32.0888 133.51 23.6133 123.038 23.6133C112.565 23.6133 104.076 32.0888 104.076 42.5438C104.076 52.9988 112.565 61.4743 123.038 61.4743Z" fill="#F44A56"/>
<path d="M123.038 57.0656C131.072 57.0656 137.584 50.5638 137.584 42.5435C137.584 34.5232 131.072 28.0215 123.038 28.0215C115.004 28.0215 108.492 34.5232 108.492 42.5435C108.492 50.5638 115.004 57.0656 123.038 57.0656Z" fill="white"/>
<path d="M29.1794 128.898C29.1794 128.898 10.5636 128.898 7.4465 128.898C4.32943 128.898 -1.55837 120.081 0.346503 109.968C2.25138 99.8542 9.52455 99.0762 10.0441 89.4813C10.5636 79.8864 9.52455 70.7237 15.4124 62.7712C21.3002 54.8186 33.4221 60.9559 39.3965 57.9305C45.3709 54.8186 46.1502 46.261 54.2892 42.3712C62.4282 38.4813 72.4721 40.1237 77.0611 45.0508C80.5246 48.7678 81.6502 54.3 85.7197 57.4983C90.3087 61.1288 96.1965 60.783 99.4867 66.1423C101.392 69.1678 102.604 72.7983 105.375 75.1322C108.578 77.8983 113.081 78.4169 117.323 79.1949C121.566 79.9728 126.068 81.3559 128.233 84.9864C129.965 88.0118 129.532 91.9017 128.753 95.3593C127.973 98.8169 126.848 102.361 127.454 105.819C127.973 108.671 129.532 111.178 130.917 113.771C132.303 116.364 133.515 119.13 133.168 121.983C132.822 124.836 130.831 126.478 128.406 127.775C124.943 129.59 119.575 128.725 115.592 128.725C110.57 128.725 105.548 128.725 100.526 128.725C89.616 128.725 78.7928 128.812 67.8831 128.812C54.9819 128.812 42.0807 128.898 29.1794 128.898Z" fill="#D3E9FE"/>
<path d="M91.6938 111.177C92.2999 110.313 92.5596 109.276 92.8194 108.325C93.1657 107.374 93.4255 106.337 93.6853 105.386C94.2048 103.657 94.5511 101.842 94.8975 100.113C96.5426 99.5079 99.0536 97.4333 99.8328 95.4452C97.7548 95.8774 96.0231 97.6062 94.984 99.335C95.3304 97.2604 95.5901 95.1858 95.6767 93.1113C97.2353 92.3333 99.4865 89.9994 100.093 87.9248C98.1011 88.6163 96.456 90.518 95.6767 92.4197C95.7633 90.7774 95.7633 89.135 95.6767 87.4926C95.6767 87.3197 95.6767 87.0604 95.6767 86.8875C97.2353 86.1096 99.4865 83.7757 100.093 81.7011C98.0145 82.3926 96.456 84.3808 95.5901 86.2824C95.5036 85.1587 95.417 84.1214 95.3304 82.9977C96.7157 82.3062 98.6206 79.9723 99.0536 78.157C97.1487 78.935 95.8499 81.0096 95.3304 82.7384C95.2438 82.3062 95.2438 81.874 95.1572 81.4418C95.5901 78.5892 94.8109 73.5757 92.8194 70.8096C91.6072 74.5265 92.9926 79.0214 94.8975 81.874C95.0706 83.3435 95.1572 84.8994 95.2438 86.3689C94.4645 84.5536 92.906 82.5655 90.9145 81.7875C91.5206 83.8621 93.6853 86.196 95.3304 87.0604C95.417 88.9621 95.3304 90.8638 95.2438 92.7655C95.2438 93.0248 95.2438 93.1977 95.1572 93.457C94.3779 91.5553 92.8194 89.4808 90.7414 88.7028C91.3475 90.7774 93.5987 93.1113 95.1572 93.9757C94.984 95.9638 94.7243 97.9519 94.3779 99.9401C93.7718 98.0384 92.3865 95.8774 90.395 94.9265C90.8279 97.0011 92.8194 99.5079 94.2914 100.459C94.0316 101.842 93.7718 103.138 93.4255 104.521C93.1658 105.645 92.8194 106.682 92.4731 107.806C92.2999 108.325 92.1267 108.843 91.9536 109.362C91.7804 109.881 91.6072 110.399 91.5206 111.004C91.3475 111.177 91.6072 111.264 91.6938 111.177Z" fill="#5E871D"/>
<path d="M96.3695 121.118C97.3219 120.772 98.1877 120.081 98.967 119.562C99.8329 118.957 100.612 118.352 101.391 117.747C102.777 116.623 104.162 115.413 105.461 114.116C107.193 114.548 110.396 114.375 112.215 113.338C110.31 112.474 107.885 112.82 106.067 113.597C107.539 112.128 109.011 110.572 110.31 108.93C112.041 109.189 115.245 108.67 116.977 107.374C114.985 106.769 112.474 107.374 110.743 108.411C111.782 107.114 112.734 105.818 113.687 104.435C113.773 104.262 113.946 104.089 114.033 103.916C115.765 104.175 118.968 103.57 120.7 102.36C118.622 101.755 116.111 102.36 114.379 103.397C114.985 102.447 115.505 101.582 116.024 100.545C117.583 100.718 120.44 100.026 121.912 98.8161C119.921 98.3839 117.583 99.2483 116.111 100.286C116.284 99.8534 116.544 99.5076 116.717 99.0754C118.795 97.0009 121.046 92.506 121.046 89.1348C117.929 91.3822 116.284 95.8771 116.197 99.3348C115.418 100.631 114.639 101.928 113.773 103.138C114.206 101.15 114.119 98.6432 112.907 96.9144C112.215 98.9026 112.561 102.101 113.34 103.743C112.215 105.299 111.089 106.855 109.877 108.325C109.704 108.497 109.53 108.67 109.444 108.843C109.963 106.855 109.877 104.262 108.665 102.447C107.972 104.435 108.318 107.72 109.097 109.275C107.799 110.831 106.413 112.214 104.941 113.597C105.547 111.696 105.721 109.103 104.682 107.201C103.816 109.103 103.902 112.301 104.508 113.943C103.469 114.894 102.517 115.845 101.391 116.709C100.526 117.401 99.6597 118.092 98.7073 118.784C98.2743 119.13 97.8414 119.475 97.3219 119.735C96.889 120.081 96.3695 120.34 95.9365 120.772C96.1097 120.945 96.1963 121.204 96.3695 121.118Z" fill="#5E871D"/>
<path d="M91.0015 128.898C91.8673 127.688 96.1966 121.724 103.73 117.056C113.86 110.746 122.865 110.918 122.865 110.918C117.843 120.686 108.319 126.132 101.045 128.985H91.0015V128.898Z" fill="#8BC53F"/>
<path d="M93.6855 128.898C104.249 123.107 122.865 110.832 122.865 110.832C117.843 120.6 108.318 126.046 101.045 128.898H93.6855Z" fill="#B2E069"/>
<path d="M99.6601 125.959C99.4003 126.046 97.0625 127.429 94.3784 128.898H93.0796C95.8503 127.429 98.9674 125.614 99.2271 125.441C99.5735 125.268 99.9198 125.095 100.266 124.922C100.959 124.576 108.059 120.341 110.83 118.525C112.215 117.575 113.687 116.71 115.072 115.759C115.419 115.5 119.228 113.08 119.661 112.82C119.488 112.907 115.072 116.537 114.38 116.969C112.994 117.92 111.609 118.785 110.137 119.649C107.106 121.551 104.595 123.28 101.738 124.836C101.132 125.268 100.439 125.614 99.6601 125.959Z" fill="#5E871D"/>
<path d="M96.4562 127.515C96.5428 127.343 96.4562 127.256 96.4562 127.083C96.4562 126.91 96.4562 126.824 96.4562 126.651C96.4562 126.392 96.4562 126.046 96.4562 125.787C96.4562 125.182 96.5428 124.576 96.6294 124.058C96.6294 123.971 96.4562 123.885 96.4562 124.058C96.283 124.663 96.1099 125.268 96.1099 125.873C96.1099 126.132 96.1099 126.478 96.1099 126.737C96.1099 126.91 96.1099 126.997 96.1099 127.17C96.1099 127.343 96.1099 127.515 96.1964 127.602C96.1964 127.688 96.3696 127.688 96.4562 127.515Z" fill="#5E871D"/>
<path d="M103.989 126.305C104.076 126.305 104.076 126.132 103.989 126.132C103.21 126.132 102.344 126.132 101.565 126.045C101.132 126.045 100.786 125.959 100.353 125.959C99.9197 125.873 99.5734 125.786 99.1404 125.786C98.9673 125.786 98.8807 126.045 99.0539 126.132C99.4002 126.218 99.8331 126.305 100.266 126.305C100.699 126.391 101.045 126.391 101.478 126.391C102.258 126.478 103.123 126.391 103.989 126.305Z" fill="#5E871D"/>
<path d="M101.046 124.836C101.046 124.49 100.872 124.144 100.786 123.798C100.699 123.453 100.613 123.193 100.613 122.847C100.526 122.502 100.526 122.156 100.526 121.81C100.526 121.378 100.439 121.032 100.439 120.6C100.439 120.514 100.266 120.514 100.266 120.6C100.266 120.946 100.18 121.378 100.18 121.724C100.18 122.069 100.18 122.415 100.266 122.761C100.266 123.107 100.353 123.453 100.439 123.798C100.526 124.144 100.613 124.576 100.699 124.922C100.786 125.095 101.046 125.008 101.046 124.836Z" fill="#5E871D"/>
<path d="M108.838 124.231C107.193 124.058 105.548 123.712 103.989 123.28C103.729 123.193 103.643 123.626 103.902 123.712C105.548 124.231 107.193 124.49 108.838 124.49C109.011 124.404 108.924 124.231 108.838 124.231Z" fill="#5E871D"/>
<path d="M105.721 122.328C105.721 122.069 105.721 121.896 105.634 121.637C105.634 121.378 105.548 121.205 105.548 120.945C105.548 120.513 105.461 120.081 105.461 119.562C105.461 118.698 105.548 117.747 105.721 116.883C105.721 116.71 105.548 116.71 105.548 116.883C105.288 117.747 105.201 118.698 105.115 119.649C105.115 120.081 105.115 120.6 105.115 121.032C105.115 121.464 105.115 121.983 105.288 122.328C105.461 122.588 105.721 122.501 105.721 122.328Z" fill="#5E871D"/>
<path d="M113.86 120.773C113.946 120.773 113.946 120.6 113.86 120.6C112.994 120.6 112.128 120.686 111.349 120.6C110.483 120.6 109.617 120.427 108.751 120.254C108.491 120.254 108.405 120.6 108.665 120.6C109.531 120.773 110.396 120.859 111.262 120.945C112.041 120.945 112.994 120.945 113.86 120.773Z" fill="#5E871D"/>
<path d="M110.397 119.13C110.397 118.438 110.397 117.833 110.397 117.142C110.397 116.45 110.397 115.845 110.397 115.154C110.397 115.067 110.223 115.067 110.223 115.154C110.137 115.845 110.137 116.45 110.137 117.142C110.137 117.833 110.05 118.438 110.05 119.13C110.05 119.389 110.397 119.389 110.397 119.13Z" fill="#5E871D"/>
<path d="M117.323 117.575C117.496 117.575 117.41 117.402 117.323 117.402C116.717 117.402 116.024 117.402 115.418 117.402C115.072 117.402 114.726 117.402 114.466 117.402C114.12 117.402 113.86 117.315 113.514 117.315C113.34 117.315 113.254 117.575 113.427 117.661C113.687 117.748 114.033 117.748 114.379 117.748C114.726 117.748 115.072 117.748 115.418 117.748C115.938 117.748 116.631 117.661 117.323 117.575Z" fill="#5E871D"/>
<path d="M114.293 116.883C114.293 115.673 114.38 114.549 114.553 113.339C114.553 113.166 114.38 113.166 114.293 113.339C113.947 114.462 113.86 115.673 113.947 116.883C114.033 117.056 114.293 117.142 114.293 116.883Z" fill="#5E871D"/>
<path d="M88.144 128.898H89.616H89.9623H90.3953H91.5209C91.5209 128.898 99.3135 122.328 104.509 111.091C110.829 97.6064 109.184 86.542 109.184 86.542C89.1831 100.113 88.144 128.898 88.144 128.898Z" fill="#B2E069"/>
<path d="M88.144 128.898H89.9623C94.4648 116.191 109.184 86.542 109.184 86.542C89.1831 100.113 88.144 128.898 88.144 128.898Z" fill="#8BC53F"/>
<path d="M89.6162 128.898H89.9626H90.3955C91.6943 125.008 94.5516 118.352 94.7247 117.92C94.8979 117.488 95.0711 116.969 95.2443 116.537C95.5906 115.586 99.7467 106.164 101.565 102.533C102.517 100.632 103.383 98.7299 104.336 96.8282C104.595 96.396 107.02 91.2095 107.28 90.7773C107.193 90.9502 103.383 97.0011 102.864 97.8655C101.911 99.6807 101.045 101.582 100.18 103.484C98.2747 107.547 96.543 110.832 95.0711 114.721C94.7248 115.672 94.2918 116.623 94.0321 117.574C93.8589 118.006 91.2613 124.057 89.6162 128.898Z" fill="#5E871D"/>
<path d="M91.1745 117.401C91.3476 118.611 91.4342 119.735 91.5208 120.945C91.6074 122.155 91.694 123.279 91.6074 124.489C91.6074 124.662 91.3476 124.749 91.2611 124.489C91.0013 123.366 91.0013 122.155 90.9147 120.945C90.8281 119.735 90.8281 118.611 90.8281 117.401C90.9147 117.228 91.0879 117.228 91.1745 117.401Z" fill="#5E871D"/>
<path d="M92.6466 121.81C92.8197 121.723 92.9929 121.723 93.1661 121.723C93.3393 121.723 93.5124 121.723 93.6856 121.723C94.0319 121.723 94.3783 121.637 94.8112 121.637C95.5039 121.55 96.2832 121.378 96.9758 121.118C97.149 121.032 97.149 121.291 97.0624 121.291C96.3697 121.637 95.6771 121.896 94.8978 122.069C94.5514 122.156 94.1185 122.242 93.7722 122.242C93.599 122.242 93.4258 122.242 93.2527 122.242C93.0795 122.242 92.9063 122.242 92.7332 122.242C92.4734 122.069 92.4734 121.81 92.6466 121.81Z" fill="#5E871D"/>
<path d="M92.9927 112.302C92.9927 112.129 93.1658 112.129 93.1658 112.302C93.2524 113.339 93.4256 114.29 93.5988 115.327C93.6854 115.846 93.7719 116.278 93.9451 116.796C94.0317 117.315 94.2049 117.747 94.2915 118.266C94.378 118.525 93.9451 118.612 93.8585 118.352C93.6854 117.92 93.5122 117.402 93.4256 116.883C93.339 116.364 93.1658 115.846 93.1658 115.413C93.0793 114.376 92.9927 113.339 92.9927 112.302Z" fill="#5E871D"/>
<path d="M95.2439 115.673C95.6769 115.673 96.1098 115.759 96.5427 115.846C96.9756 115.846 97.322 115.932 97.7549 115.932C98.1878 115.932 98.6208 115.932 99.1403 115.932C99.6598 115.932 100.179 115.846 100.699 115.759C100.872 115.759 100.872 116.019 100.785 116.019C100.352 116.105 99.833 116.278 99.4 116.278C98.9671 116.364 98.5342 116.364 98.1013 116.364C97.6683 116.364 97.2354 116.364 96.8025 116.364C96.3695 116.364 95.85 116.278 95.4171 116.192C94.9842 116.019 95.0708 115.673 95.2439 115.673Z" fill="#5E871D"/>
<path d="M94.811 105.904C95.244 107.893 95.9366 109.881 96.8025 111.782C96.9757 112.128 96.4561 112.215 96.283 111.955C95.4171 110.054 94.811 108.065 94.5513 105.991C94.6379 105.818 94.811 105.818 94.811 105.904Z" fill="#5E871D"/>
<path d="M97.6683 109.535C97.928 109.449 98.1878 109.535 98.5341 109.535C98.7939 109.535 99.0537 109.535 99.4 109.535C99.9195 109.535 100.526 109.449 101.045 109.362C102.171 109.189 103.21 109.016 104.249 108.671C104.422 108.584 104.509 108.844 104.335 108.93C103.21 109.362 102.171 109.622 100.959 109.881C100.439 109.967 99.8329 110.054 99.2268 110.054C98.7073 110.054 98.1012 110.14 97.5817 109.967C97.4085 109.881 97.4951 109.622 97.6683 109.535Z" fill="#5E871D"/>
<path d="M98.3611 99.2488C98.3611 99.0759 98.6209 99.0759 98.6209 99.2488C98.7075 100.286 98.794 101.323 98.9672 102.361C99.1404 103.398 99.4001 104.435 99.7465 105.473C99.8331 105.732 99.4001 105.905 99.3136 105.645C98.9672 104.608 98.7075 103.571 98.5343 102.534C98.3611 101.496 98.2745 100.373 98.3611 99.2488Z" fill="#5E871D"/>
<path d="M100.872 103.225C101.651 103.138 102.517 103.052 103.296 102.965C104.162 102.879 104.942 102.792 105.807 102.706C105.981 102.706 105.981 102.879 105.894 102.965C105.115 103.138 104.249 103.225 103.47 103.398C102.69 103.484 101.825 103.657 101.045 103.743C100.612 103.743 100.612 103.311 100.872 103.225Z" fill="#5E871D"/>
<path d="M101.738 94.4949C101.738 94.322 101.998 94.322 101.998 94.4949C102.084 95.2729 102.171 96.1373 102.257 96.9152C102.344 97.3474 102.344 97.6932 102.43 98.1254C102.517 98.4712 102.604 98.9034 102.69 99.3356C102.69 99.5949 102.344 99.6813 102.257 99.422C102.084 99.0762 102.084 98.644 101.998 98.2983C101.911 97.8661 101.824 97.4339 101.824 97.0881C101.738 96.2237 101.738 95.3593 101.738 94.4949Z" fill="#5E871D"/>
<path d="M103.037 98.0384C104.509 97.8656 105.981 97.6062 107.366 97.174C107.539 97.0876 107.626 97.4333 107.453 97.4333C106.067 97.952 104.595 98.2978 103.123 98.4706C102.864 98.4706 102.777 98.1249 103.037 98.0384Z" fill="#5E871D"/>
<path d="M38.5306 111.177C37.9245 110.313 37.6648 109.276 37.405 108.325C37.0587 107.374 36.7989 106.337 36.5392 105.386C36.0196 103.657 35.6733 101.842 35.327 100.113C33.6818 99.5079 31.1709 97.4333 30.3916 95.4452C32.4696 95.8774 34.2013 97.6062 35.2404 99.335C34.894 97.2604 34.6343 95.1858 34.5477 93.1113C32.9892 92.3333 30.7379 89.9994 30.1318 87.9248C32.1233 88.6163 33.7684 90.518 34.5477 92.4197C34.4611 90.7774 34.4611 89.135 34.5477 87.4926C34.5477 87.3197 34.5477 87.0604 34.5477 86.8875C32.9892 86.1096 30.7379 83.7757 30.1318 81.7011C32.2099 82.3926 33.7684 84.3808 34.6343 86.2824C34.7209 85.1587 34.8074 84.1214 34.894 82.9977C33.5087 82.3062 31.6038 79.9723 31.1709 78.157C33.0757 78.935 34.3745 81.0096 34.894 82.7384C34.9806 82.3062 34.9806 81.874 35.0672 81.4418C34.6343 78.5892 35.4135 73.5757 37.405 70.8096C38.6172 74.5265 37.2318 79.0214 35.327 81.874C35.1538 83.3435 35.0672 84.8994 34.9806 86.3689C35.7599 84.5536 37.3184 82.5655 39.3099 81.7875C38.7038 83.8621 36.5392 86.196 34.894 87.0604C34.8074 88.9621 34.894 90.8638 34.9806 92.7655C34.9806 93.0248 34.9806 93.1977 35.0672 93.457C35.8465 91.5553 37.405 89.4808 39.4831 88.7028C38.877 90.7774 36.6257 93.1113 35.0672 93.9757C35.2404 95.9638 35.5001 97.9519 35.8465 99.9401C36.4526 98.0384 37.8379 95.8774 39.8294 94.9265C39.3965 97.0011 37.405 99.5079 35.9331 100.459C36.1928 101.842 36.4526 103.138 36.7989 104.521C37.0587 105.645 37.405 106.682 37.7513 107.806C37.9245 108.325 38.0977 108.843 38.2709 109.362C38.444 109.881 38.6172 110.399 38.7038 111.004C38.877 111.177 38.7038 111.264 38.5306 111.177Z" fill="#5E871D"/>
<path d="M33.8552 121.118C32.9027 120.772 32.0369 120.081 31.2576 119.562C30.3918 118.957 29.6125 118.352 28.8332 117.747C27.4479 116.623 26.0625 115.413 24.7637 114.116C23.032 114.548 19.8284 114.375 18.0101 113.338C19.9149 112.474 22.3393 112.82 24.1576 113.597C22.6857 112.128 21.2137 110.572 19.9149 108.93C18.1832 109.189 14.9796 108.67 13.2479 107.374C15.2393 106.769 17.7503 107.374 19.482 108.411C18.443 107.114 17.4905 105.818 16.5381 104.435C16.4515 104.262 16.2784 104.089 16.1918 103.916C14.4601 104.175 11.2564 103.57 9.52469 102.36C11.6027 101.755 14.1137 102.36 15.8454 103.397C15.2393 102.447 14.7198 101.582 14.2003 100.545C12.6418 100.718 9.78445 100.026 8.3125 98.8161C10.304 98.3839 12.6418 99.2483 14.1137 100.286C13.9405 99.8534 13.6808 99.5076 13.5076 99.0754C11.4296 97.0009 9.17835 92.506 9.17835 89.1348C12.2954 91.3822 13.9405 95.8771 14.0271 99.3348C14.8064 100.631 15.5857 101.928 16.4515 103.138C16.0186 101.15 16.1052 98.6432 17.3174 96.9144C18.0101 98.9026 17.6637 102.101 16.8845 103.743C18.0101 105.299 19.1357 106.855 20.3479 108.325C20.521 108.497 20.6942 108.67 20.7808 108.843C20.2613 106.855 20.3479 104.262 21.5601 102.447C22.2527 104.435 21.9064 107.72 21.1271 109.275C22.4259 110.831 23.8113 112.214 25.2832 113.597C24.6771 111.696 24.504 109.103 25.543 107.201C26.4088 109.103 26.3223 112.301 25.7162 113.943C26.7552 114.894 27.7076 115.845 28.8332 116.709C29.6991 117.401 30.5649 118.092 31.5174 118.784C31.9503 119.13 32.3832 119.475 32.9027 119.735C33.3357 120.081 33.8552 120.34 34.2881 120.772C34.1149 120.945 34.0284 121.204 33.8552 121.118Z" fill="#5E871D"/>
<path d="M39.2233 128.898C38.3574 127.688 34.0282 121.724 26.4952 117.056C16.3647 110.746 7.35986 110.918 7.35986 110.918C12.3818 120.686 21.9062 126.132 29.1794 128.985H39.2233V128.898Z" fill="#8BC53F"/>
<path d="M36.5391 128.899C25.9757 123.107 7.35986 110.919 7.35986 110.919C12.3818 120.687 21.9062 126.133 29.1794 128.985H36.5391V128.899Z" fill="#B2E069"/>
<path d="M30.5647 125.959C30.8245 126.046 33.1623 127.429 35.8464 128.898H37.1452C34.3745 127.429 31.2574 125.614 30.9976 125.441C30.6513 125.268 30.3049 125.095 29.9586 124.922C29.2659 124.576 22.1659 120.341 19.3952 118.525C18.0098 117.575 16.5379 116.71 15.1525 115.759C14.8062 115.5 10.9964 113.08 10.5635 112.82C10.7366 112.907 15.1525 116.537 15.8452 116.969C17.2305 117.92 18.6159 118.785 20.0879 119.649C23.1184 121.551 25.6293 123.28 28.4866 124.836C29.0927 125.268 29.872 125.614 30.5647 125.959Z" fill="#5E871D"/>
<path d="M33.8548 127.515C33.7682 127.343 33.8548 127.256 33.8548 127.083C33.8548 126.91 33.8548 126.824 33.8548 126.651C33.8548 126.392 33.8548 126.046 33.8548 125.787C33.8548 125.182 33.7682 124.576 33.6816 124.058C33.6816 123.971 33.8548 123.885 33.8548 124.058C34.028 124.663 34.2012 125.268 34.2012 125.873C34.2012 126.132 34.2012 126.478 34.2012 126.737C34.2012 126.91 34.2012 126.997 34.2012 127.17C34.2012 127.343 34.2012 127.515 34.1146 127.602C34.028 127.688 33.8548 127.688 33.8548 127.515Z" fill="#5E871D"/>
<path d="M26.3223 126.305C26.2357 126.305 26.2357 126.132 26.3223 126.132C27.1015 126.132 27.9674 126.132 28.7467 126.045C29.1796 126.045 29.5259 125.959 29.9588 125.959C30.3918 125.873 30.7381 125.786 31.171 125.786C31.3442 125.786 31.4308 126.045 31.2576 126.132C30.9113 126.218 30.4784 126.305 30.0454 126.305C29.6125 126.391 29.2662 126.391 28.8332 126.391C27.9674 126.478 27.1015 126.391 26.3223 126.305Z" fill="#5E871D"/>
<path d="M29.1792 124.836C29.1792 124.49 29.3524 124.144 29.439 123.798C29.5255 123.453 29.6121 123.193 29.6121 122.847C29.6987 122.502 29.6987 122.156 29.6987 121.81C29.6987 121.378 29.7853 121.032 29.7853 120.6C29.7853 120.514 29.9585 120.514 29.9585 120.6C29.9585 120.946 30.0451 121.378 30.0451 121.724C30.0451 122.069 30.0451 122.415 29.9585 122.761C29.9585 123.107 29.8719 123.453 29.7853 123.798C29.6987 124.144 29.6121 124.576 29.5255 124.922C29.439 125.095 29.1792 125.008 29.1792 124.836Z" fill="#5E871D"/>
<path d="M21.3867 124.231C23.0318 124.058 24.677 123.712 26.2355 123.28C26.4953 123.193 26.5818 123.626 26.3221 123.712C24.677 124.231 23.0318 124.49 21.3867 124.49C21.3001 124.404 21.3001 124.231 21.3867 124.231Z" fill="#5E871D"/>
<path d="M24.5903 122.328C24.5903 122.069 24.5903 121.896 24.6769 121.637C24.6769 121.378 24.7635 121.205 24.7635 120.945C24.7635 120.513 24.8501 120.081 24.8501 119.562C24.8501 118.698 24.7635 117.747 24.5903 116.883C24.5903 116.71 24.7635 116.71 24.7635 116.883C25.0233 117.747 25.1098 118.698 25.1964 119.649C25.1964 120.081 25.1964 120.6 25.1964 121.032C25.1964 121.464 25.1964 121.983 25.0233 122.328C24.7635 122.588 24.5903 122.501 24.5903 122.328Z" fill="#5E871D"/>
<path d="M16.4512 120.773C16.3646 120.773 16.3646 120.6 16.4512 120.6C17.317 120.6 18.1829 120.686 18.9621 120.6C19.828 120.6 20.6939 120.427 21.5597 120.254C21.8195 120.254 21.906 120.6 21.6463 120.6C20.7804 120.773 19.9146 120.859 19.0487 120.945C18.1829 120.945 17.317 120.945 16.4512 120.773Z" fill="#5E871D"/>
<path d="M19.8281 119.13C19.8281 118.438 19.8281 117.833 19.8281 117.142C19.8281 116.45 19.8281 115.845 19.8281 115.154C19.8281 115.067 20.0013 115.067 20.0013 115.154C20.0879 115.845 20.0879 116.45 20.0879 117.142C20.0879 117.833 20.1745 118.438 20.1745 119.13C20.1745 119.389 19.8281 119.389 19.8281 119.13Z" fill="#5E871D"/>
<path d="M12.9877 117.575C12.8145 117.575 12.9011 117.402 12.9877 117.402C13.5938 117.402 14.2865 117.402 14.8926 117.402C15.2389 117.402 15.5852 117.402 15.845 117.402C16.1913 117.402 16.4511 117.315 16.7974 117.315C16.9706 117.315 17.0572 117.575 16.884 117.661C16.6243 117.748 16.2779 117.748 15.9316 117.748C15.5852 117.748 15.2389 117.748 14.8926 117.748C14.2865 117.748 13.5938 117.661 12.9877 117.575Z" fill="#5E871D"/>
<path d="M15.9316 116.883C15.9316 115.673 15.845 114.549 15.6719 113.339C15.6719 113.166 15.845 113.166 15.9316 113.339C16.278 114.462 16.3646 115.673 16.278 116.883C16.278 117.056 15.9316 117.142 15.9316 116.883Z" fill="#5E871D"/>
<path d="M42.0807 128.898H40.6088H40.2624H39.8295H38.7039C38.7039 128.898 30.9112 122.328 25.7161 111.091C19.3953 97.6064 21.0405 86.542 21.0405 86.542C41.1283 100.113 42.0807 128.898 42.0807 128.898Z" fill="#B2E069"/>
<path d="M42.0808 128.898H40.2625C35.76 116.191 21.0405 86.542 21.0405 86.542C41.1283 100.113 42.0808 128.898 42.0808 128.898Z" fill="#8BC53F"/>
<path d="M40.6952 128.898H40.3488H39.9159C38.6171 125.008 35.7598 118.352 35.5866 117.92C35.4134 117.488 35.2403 116.969 35.0671 116.537C34.7208 115.586 30.5647 106.164 28.7464 102.533C27.7939 100.632 26.9281 98.7299 25.9756 96.8282C25.7159 96.396 23.2915 91.2095 23.0317 90.7773C23.1183 90.9502 26.9281 97.0011 27.4476 97.8655C28.4 99.6807 29.2659 101.582 30.1317 103.484C32.0366 107.547 33.7683 110.832 35.2403 114.721C35.5866 115.672 36.0195 116.623 36.2793 117.574C36.3659 118.006 39.05 124.057 40.6952 128.898Z" fill="#5E871D"/>
<path d="M39.1368 117.401C38.9636 118.611 38.877 119.735 38.7904 120.945C38.7038 122.155 38.6172 123.279 38.7038 124.489C38.7038 124.662 38.9636 124.749 39.0502 124.489C39.3099 123.366 39.3099 122.155 39.3965 120.945C39.4831 119.735 39.4831 118.611 39.4831 117.401C39.3099 117.228 39.1368 117.228 39.1368 117.401Z" fill="#5E871D"/>
<path d="M37.5782 121.81C37.405 121.723 37.2319 121.723 37.0587 121.723C36.8855 121.723 36.7123 121.723 36.5392 121.723C36.1928 121.723 35.8465 121.637 35.4136 121.637C34.7209 121.55 33.9416 121.378 33.2489 121.118C33.0758 121.032 33.0758 121.291 33.1623 121.291C33.855 121.637 34.5477 121.896 35.327 122.069C35.6733 122.156 36.1062 122.242 36.4526 122.242C36.6258 122.242 36.7989 122.242 36.9721 122.242C37.1453 122.242 37.3184 122.242 37.4916 122.242C37.7514 122.069 37.7514 121.81 37.5782 121.81Z" fill="#5E871D"/>
<path d="M37.232 112.302C37.232 112.129 37.0589 112.129 37.0589 112.302C36.9723 113.339 36.7991 114.29 36.6259 115.327C36.5394 115.846 36.4528 116.278 36.2796 116.796C36.193 117.315 36.0198 117.747 35.9333 118.266C35.8467 118.525 36.2796 118.612 36.3662 118.352C36.5394 117.92 36.7125 117.402 36.7991 116.883C36.8857 116.364 37.0589 115.846 37.0589 115.413C37.232 114.376 37.3186 113.339 37.232 112.302Z" fill="#5E871D"/>
<path d="M34.9807 115.673C34.5477 115.673 34.1148 115.759 33.6819 115.846C33.249 115.846 32.9026 115.932 32.4697 115.932C32.0368 115.932 31.6038 115.932 31.0843 115.932C30.5648 115.932 30.0453 115.846 29.5258 115.759C29.3526 115.759 29.3526 116.019 29.4392 116.019C29.8721 116.105 30.3916 116.278 30.8246 116.278C31.2575 116.364 31.6904 116.364 32.1233 116.364C32.5563 116.364 32.9892 116.364 33.4221 116.364C33.8551 116.364 34.3746 116.278 34.8075 116.192C35.2404 116.019 35.2404 115.673 34.9807 115.673Z" fill="#5E871D"/>
<path d="M35.4135 105.904C34.9806 107.893 34.2879 109.881 33.4221 111.782C33.2489 112.128 33.7684 112.215 33.9416 111.955C34.8074 110.054 35.4135 108.065 35.6733 105.991C35.6733 105.818 35.4135 105.818 35.4135 105.904Z" fill="#5E871D"/>
<path d="M32.6428 109.535C32.3831 109.449 32.1233 109.535 31.777 109.535C31.5172 109.535 31.2574 109.535 30.9111 109.535C30.3916 109.535 29.7855 109.449 29.266 109.362C28.1404 109.189 27.1014 109.016 26.0623 108.671C25.8892 108.584 25.8026 108.844 25.9757 108.93C27.1013 109.362 28.1404 109.622 29.3526 109.881C29.8721 109.967 30.4782 110.054 31.0843 110.054C31.6038 110.054 32.2099 110.14 32.7294 109.967C32.9026 109.881 32.816 109.622 32.6428 109.535Z" fill="#5E871D"/>
<path d="M31.9505 99.2488C31.9505 99.0759 31.6907 99.0759 31.6907 99.2488C31.6041 100.286 31.5175 101.323 31.3444 102.361C31.1712 103.398 30.9114 104.435 30.5651 105.473C30.4785 105.732 30.9114 105.905 30.998 105.645C31.3444 104.608 31.6041 103.571 31.7773 102.534C31.9505 101.496 31.9505 100.373 31.9505 99.2488Z" fill="#5E871D"/>
<path d="M29.3528 103.225C28.5735 103.138 27.7076 103.052 26.9284 102.965C26.0625 102.879 25.2832 102.792 24.4174 102.706C24.2442 102.706 24.2442 102.879 24.3308 102.965C25.1101 103.138 25.9759 103.225 26.7552 103.398C27.5345 103.484 28.4003 103.657 29.1796 103.743C29.6125 103.743 29.6991 103.311 29.3528 103.225Z" fill="#5E871D"/>
<path d="M28.4866 94.4949C28.4866 94.322 28.2269 94.322 28.2269 94.4949C28.1403 95.2729 28.0537 96.1373 27.9671 96.9152C27.8805 97.3474 27.8805 97.6932 27.7939 98.1254C27.7073 98.4712 27.6208 98.9034 27.5342 99.3356C27.5342 99.5949 27.8805 99.6813 27.9671 99.422C28.1403 99.0762 28.1403 98.644 28.2269 98.2983C28.3134 97.8661 28.4 97.4339 28.4 97.0881C28.4866 96.2237 28.4866 95.3593 28.4866 94.4949Z" fill="#5E871D"/>
<path d="M27.188 98.0384C25.716 97.8656 24.2441 97.6062 22.8587 97.174C22.6855 97.0876 22.599 97.4333 22.7721 97.4333C24.1575 97.952 25.6294 98.2978 27.1014 98.4706C27.3612 98.4706 27.4477 98.1249 27.188 98.0384Z" fill="#5E871D"/>
<path d="M40.6086 92.8528C40.6086 92.8528 38.6171 105.992 39.6562 115.76C40.7818 125.614 42.1672 128.726 42.1672 128.726H63.4672L63.2074 112.216L68.4891 112.388L73.944 128.812H95.0708C95.0708 128.812 88.6635 96.9156 85.5464 90.6054C82.5159 84.1223 44.505 88.7037 40.6086 92.8528Z" fill="#252526"/>
<path d="M67.0172 109.276C66.9306 110.141 66.9306 111.005 66.844 111.869C66.844 111.956 66.7574 112.042 66.6709 112.042C66.5843 112.042 66.5843 112.042 66.4977 112.042C66.4111 112.042 66.3245 111.956 66.3245 111.869C66.1513 111.092 66.0648 110.227 65.9782 109.363C65.8916 108.498 65.8916 107.72 65.805 106.856C65.805 106.51 65.805 106.078 65.805 105.732C65.805 105.386 65.805 104.954 65.805 104.608C65.805 103.744 65.7184 102.966 65.7184 102.102C65.7184 100.459 65.6318 98.8169 65.6318 97.1746C65.6318 96.3966 65.6318 95.5322 65.7184 94.7542C65.805 93.8898 66.0648 93.1119 66.1513 92.2474C66.1513 92.161 66.2379 92.161 66.2379 92.2474C66.3245 93.0254 66.6709 93.8034 66.7574 94.5813C66.844 95.3593 66.844 96.1373 66.9306 96.9152C67.0172 98.5576 67.0172 100.2 67.0172 101.842C67.0172 102.966 67.1038 104.003 67.1038 105.127C67.1038 105.473 67.1038 105.819 67.1038 106.078C67.1038 106.337 67.1038 106.51 67.1038 106.769C67.0172 107.634 67.0172 108.498 67.0172 109.276Z" fill="#111112"/>
<path d="M67.0172 106.164C66.5843 106.077 66.1514 105.905 65.8051 105.732C65.2855 105.559 64.8526 105.213 64.4197 104.867C63.3807 104.003 62.9477 102.793 62.7746 101.41C62.6014 99.7672 62.6014 98.2113 62.5148 96.5689C62.5148 95.791 62.4282 95.0995 62.4282 94.3215C62.4282 93.8893 62.4282 93.4571 62.4282 93.0249C62.4282 92.5927 62.6014 92.2469 62.6014 91.9011C62.6014 91.7283 62.8611 91.7283 62.8611 91.9011C62.9477 92.2469 63.1209 92.5062 63.2075 92.9384C63.2941 93.2842 63.2941 93.63 63.2941 93.9757C63.3807 94.6672 63.3807 95.4452 63.4673 96.1367C63.5538 97.6927 63.727 99.2486 63.8136 100.805C63.9002 102.015 63.9868 103.311 65.0258 104.089C65.2855 104.262 65.4587 104.435 65.7185 104.608C66.1514 104.867 66.4977 105.04 66.9307 105.127C67.0173 105.472 67.0172 105.818 67.0172 106.164Z" fill="#111112"/>
<path d="M58.3585 4.51003C58.3585 4.51003 55.9341 4.07782 53.7695 8.14053C51.6049 12.2032 53.5097 23.9592 52.1244 25.4287C50.739 26.8982 49.2671 28.7999 48.7475 31.2202C48.228 33.6405 46.9293 35.1965 45.3707 36.2338C43.8122 37.1846 41.0414 41.6795 41.7341 45.1371C42.4268 48.5948 47.0158 62.2524 60.4366 61.6473C73.8573 61.0422 92.1268 48.5083 91.3475 43.6677C90.5683 38.827 88.9231 38.9999 88.9231 36.9253C88.9231 34.8507 90.6549 33.2083 89.2695 30.9609C87.8841 28.7134 84.161 26.8117 83.1219 21.1066C82.0829 15.4015 79.6585 5.37443 75.7622 2.26257C72.039 -0.849297 62.3414 -1.10862 58.3585 4.51003Z" fill="#32191C"/>
<path d="M54.9819 24.6504C54.9819 24.6504 55.9344 27.4165 54.4624 29.7504C53.0771 32.0843 47.3624 34.1589 45.9771 38.9995C53.9429 40.9877 56.8002 38.9131 56.9734 38.5673C57.1466 38.2216 60.1771 33.0351 60.0905 32.2572C60.0039 31.4792 56.9734 25.3419 56.9734 25.3419L54.9819 24.6504Z" fill="#251115"/>
<path d="M79.1391 21.4521C79.1391 21.4521 79.6586 25.9471 81.5635 28.886C83.4683 31.825 84.7671 35.3691 83.122 39.3454C81.3903 43.3216 77.2342 38.0488 77.2342 37.7894C77.2342 37.5301 77.3208 24.9098 77.2342 24.4776C77.1476 24.1318 79.1391 21.4521 79.1391 21.4521Z" fill="#251115"/>
<path d="M78.7061 40.2961C78.7061 40.2961 72.9915 48.0758 65.5451 48.1622C58.1854 48.2487 53.8561 41.6792 53.7695 41.5063L57.6659 33.8131L60.1768 28.8859L71.8659 27.6758C71.8659 27.6758 71.8659 30.8741 72.2988 33.6402C72.472 34.8504 72.7317 36.0605 73.0781 36.8385C74.2037 39.4317 78.7061 40.2961 78.7061 40.2961Z" fill="#EEA77F"/>
<path d="M77.2344 94.6675C77.2344 94.6675 53.8563 95.1862 53.3368 95.1862C52.9039 95.1862 53.5966 57.3252 53.8563 44.8777C53.9429 42.4574 53.9429 40.9879 53.9429 40.9879C53.9429 40.9879 58.9649 47.2116 65.7185 46.9523C72.4722 46.7794 76.9746 40.5557 76.9746 40.5557V44.4455L77.2344 94.6675Z" fill="#FDCD0D"/>
<path d="M50.3062 78.8487C49.9598 79.0216 68.0562 67.525 79.0525 76.2555C70.2208 74.9589 61.9952 74.181 50.3062 78.8487Z" fill="#FAAD18"/>
<path d="M76.9746 44.446C73.7709 47.385 69.788 49.6324 65.2856 49.3731C60.6965 49.1138 56.8868 47.2121 53.9429 44.7918C54.0295 42.3714 54.0295 40.9019 54.0295 40.9019C54.0295 40.9019 59.0514 47.1257 65.8051 46.8663C72.5587 46.6935 77.0612 40.4697 77.0612 40.4697L76.9746 44.446Z" fill="#FAAD18"/>
<path d="M98.1016 110.486C84.248 112.474 73.8577 97.0878 72.6455 91.9878C72.3858 91.0369 72.2992 88.703 72.2126 85.5047C71.9528 70.7234 72.9919 37.4437 72.9919 37.4437C72.9919 37.4437 74.204 37.3573 75.9358 37.4437C80.3516 37.5301 88.4906 38.0488 90.1358 41.0742C90.7419 42.1979 90.7419 45.5691 90.3955 49.9776C89.876 56.1149 88.7504 64.1539 87.7114 70.6369C86.6723 77.12 85.8931 82.1335 85.9797 82.4793C86.1528 83.2573 89.5297 89.9996 98.1016 110.486Z" fill="#29666E"/>
<path d="M90.3952 49.9779C89.8757 56.1152 88.7501 64.1542 87.711 70.6372C82.5159 56.8067 85.2001 42.1982 85.2001 42.1982L90.3952 49.9779Z" fill="#1B555A"/>
<path d="M75.9358 61.6471L80.1784 63.8081C80.1784 63.8081 74.2906 79.4539 72.2126 85.5047C71.9528 70.7234 72.9919 37.4437 72.9919 37.4437C72.9919 37.4437 74.204 37.3573 75.9358 37.4437L80.265 60.8691L75.9358 61.6471Z" fill="#1B555A"/>
<path d="M43.9856 39.5186C43.9856 39.5186 38.271 41.0745 37.0588 44.9643C35.76 48.9406 22.5124 82.6525 25.8027 89.7406C28.8332 96.7423 40.6954 86.888 41.9941 80.8372C43.3795 74.7864 45.2844 48.5084 45.5441 45.3101C45.8039 41.9389 45.9771 39.5186 43.9856 39.5186Z" fill="#29666E"/>
<path d="M45.1975 46.1748C44.8512 46.607 36.3658 64.5867 42.0804 85.5918C50.9987 86.7155 50.9122 78.9358 50.9987 78.4172C51.1719 77.8985 45.1975 46.1748 45.1975 46.1748Z" fill="#1B555A"/>
<path d="M28.1406 82.2207C28.3138 81.5292 29.1797 79.8868 33.6821 77.5529C38.1845 75.3054 42.254 73.8359 42.254 73.8359L41.215 78.9359L28.1406 82.2207Z" fill="#1B555A"/>
<path d="M58.3586 73.6622C58.1854 78.33 58.0988 82.7385 57.9256 86.6283C57.7525 90.7774 57.4061 94.3215 56.8866 96.6554C55.8476 101.15 45.9769 108.844 36.5391 109.535C36.8854 106.164 37.5781 102.447 38.2708 98.9029C39.2232 94.2351 40.2622 89.7402 41.2147 86.1961C42.3403 81.874 43.2061 78.9351 43.2061 78.9351C43.2061 78.9351 41.8208 60.1774 41.3878 54.4724C40.9549 48.7673 41.0415 41.852 42.2537 40.469C42.5135 40.2096 43.1195 39.8639 43.9854 39.4317C46.6695 38.2215 51.6049 36.5791 54.8952 36.4927C56.5403 36.4062 57.6659 36.4063 57.6659 36.4063C57.6659 36.4063 58.7049 61.3876 58.3586 73.6622Z" fill="#29666E"/>
<path d="M53.6832 82.4795C53.6832 82.4795 47.5356 94.4083 38.271 98.9032C39.2234 94.2354 40.2625 89.7405 41.2149 86.1964C47.449 86.1964 53.6832 82.4795 53.6832 82.4795Z" fill="#1B555A"/>
<path d="M52.9039 83.0849C52.9039 83.0849 55.6746 75.651 51.6917 72.1934C47.5356 78.2442 50.4795 83.9493 52.9039 83.0849Z" fill="#1B555A"/>
<path d="M58.3589 73.6622C58.1857 78.33 58.0992 82.7385 57.926 86.6283C56.6272 82.3927 51.3455 64.8452 50.1333 61.5605C54.6357 61.6469 55.9345 61.8198 55.9345 61.8198L50.7394 58.5351C50.7394 58.5351 53.9431 41.2469 54.8089 36.4927C56.454 36.4062 57.5796 36.4063 57.5796 36.4063C57.5796 36.4063 58.7053 61.3876 58.3589 73.6622Z" fill="#1B555A"/>
<path d="M59.4844 42.9766C59.7441 42.8901 71.1734 42.8037 71.1734 42.8037C71.1734 42.8037 68.5758 44.1868 64.7661 43.9274C61.0429 43.6681 59.4844 42.9766 59.4844 42.9766Z" fill="#F37E57"/>
<path d="M72.2988 33.7266C70.3939 34.6775 67.5366 35.8876 65.5451 35.8012C62.3415 35.7148 58.0122 33.8995 57.7524 33.8131L60.2634 28.8859L71.8659 27.6758C71.8659 27.6758 71.9524 30.8741 72.2988 33.7266Z" fill="#F37E57"/>
<path d="M60.9564 30.4426C60.9564 30.4426 61.7357 33.9002 60.1772 37.0985C58.6186 40.2968 55.5881 41.7663 55.8479 44.7053C56.1077 47.5579 57.0601 50.929 57.1467 52.7443C57.2333 54.5595 55.6747 58.3629 49.8735 59.4867C50.9991 56.8934 51.2589 55.0782 49.7003 52.5714C48.1418 50.0646 45.8906 44.6189 46.9296 40.729C47.9686 36.7528 51.9516 34.3324 53.5101 32.9494C55.0686 31.4799 56.1942 29.4053 56.1942 27.7629C56.1077 26.1206 55.415 23.5273 55.415 23.5273L58.7052 23.7867L61.1296 29.4053L60.9564 30.4426Z" fill="#32191C"/>
<path d="M80.1782 20.0689C80.1782 20.0689 78.3599 23.5266 80.438 28.3673C82.516 33.2079 82.8624 35.2825 81.7368 38.1351C80.6111 40.9876 79.8319 41.5927 79.8319 42.8029C80.438 46.174 81.6502 47.73 81.8233 49.2859C81.9965 50.8418 80.9575 53.0893 78.7929 54.9045C76.5416 56.7198 74.377 59.4859 75.5026 62.252C72.5587 60.6096 72.299 59.313 72.7319 56.4605C73.0782 53.6079 74.2038 52.6571 73.2514 50.8418C72.2989 48.9401 69.0087 44.791 69.2685 41.852C69.6148 38.913 72.7319 36.6656 72.9916 34.591C73.2514 32.5164 72.5587 30.3554 72.4721 26.6384C72.3855 22.9215 73.6843 17.7351 75.416 17.3893C77.2343 16.8706 80.3514 16.1791 80.1782 20.0689Z" fill="#32191C"/>
<path d="M77.8405 28.1943C78.1868 29.7503 78.1002 31.2198 77.7539 32.6893C77.4075 34.0723 76.888 35.4554 76.1087 36.5791C75.2429 37.8757 73.9441 38.6537 72.9917 39.9503C72.6453 40.4689 72.299 41.1604 72.2124 41.852C72.2124 42.1977 72.2124 42.5435 72.2124 42.8893C72.299 43.235 72.4722 43.4943 72.7319 43.8401C72.7319 43.9265 72.8185 43.8401 72.8185 43.7537C72.5587 42.9757 72.9051 42.0248 73.2514 41.3333C73.5978 40.6418 74.2039 40.1232 74.81 39.6045C75.9356 38.5672 76.9746 37.5299 77.6673 36.2333C78.36 34.9367 78.7063 33.6401 78.7063 32.1706C78.7063 30.874 78.36 29.4909 77.8405 28.1943Z" fill="#251115"/>
<path d="M77.2344 35.3689C77.1478 34.3317 76.7149 33.3808 76.2819 32.43C75.849 31.3927 75.5893 30.4418 75.5893 29.3181C75.5893 28.1944 75.9356 27.2435 76.2819 26.2062C76.2819 26.1198 76.1954 26.0333 76.1088 26.1198C75.0698 27.6757 74.81 29.9232 75.1563 31.7384C75.3295 32.7757 75.9356 33.7266 76.1954 34.7639C76.4551 35.6283 76.5417 36.5791 76.1954 37.53C76.1954 37.6164 76.2819 37.7028 76.3685 37.6164C76.9746 37.1842 77.321 36.2333 77.2344 35.3689Z" fill="#251115"/>
<path d="M81.737 38.1351C81.0443 39.3453 80.5248 40.5554 79.9187 41.7656C79.3126 42.8893 78.6199 44.0995 78.187 45.3961C77.8407 46.4334 77.7541 47.5571 78.0138 48.6809C78.187 49.2859 78.3602 49.8046 78.7931 50.3232C78.9663 50.4961 79.1394 50.7554 79.3126 50.9283C79.4858 51.1012 79.6589 51.1876 79.8321 51.3605C80.0053 51.447 80.1785 51.2741 80.0053 51.1876C79.7455 50.8419 79.4858 50.3232 79.3992 49.9775C79.3126 49.4588 79.0528 49.0266 78.9663 48.5944C78.7065 47.5571 78.7931 46.5198 79.0529 45.4826C79.3992 44.1859 79.9187 43.0622 80.3516 41.7656C80.8711 40.469 81.3907 39.3453 81.737 38.1351C81.8236 38.1351 81.737 38.0487 81.737 38.1351Z" fill="#251115"/>
<path d="M73.0785 57.757C73.0785 56.5468 73.4248 55.3366 73.7711 54.1265C74.3772 51.9654 74.8102 49.6315 73.8577 47.557C73.8577 47.4705 73.7711 47.557 73.7711 47.557C73.8577 48.8536 73.9443 50.0637 73.7711 51.2739C73.5114 52.4841 73.1651 53.6943 72.8187 54.818C72.559 55.8553 72.2126 57.0654 72.4724 58.1892C72.559 58.6214 72.7321 59.0536 72.9053 59.4858C73.1651 60.0044 73.4248 60.2638 73.7711 60.6095C73.7711 60.6095 73.8577 60.6095 73.8577 60.5231C73.1651 59.918 73.0785 58.7943 73.0785 57.757Z" fill="#251115"/>
<path d="M56.2805 21.7121C56.1939 21.6257 54.8951 18.5138 52.5573 19.4647C50.3927 20.3291 51.8646 23.5274 53.4232 24.824C54.9817 26.0341 56.2805 26.7257 57.1463 25.9477C57.9256 24.9969 56.2805 21.7121 56.2805 21.7121Z" fill="#EEA77F"/>
<path d="M54.376 24.3916C54.376 24.3916 56.0211 26.1204 57.0601 25.3425C56.9735 24.9967 56.9735 24.9967 56.9735 24.9967C56.9735 24.9967 55.8479 25.4289 54.376 24.3916Z" fill="#F37E57"/>
<path d="M53.25 23.2673C53.25 23.3538 52.2976 22.4029 52.4708 21.2792C52.6439 20.069 53.4232 20.1555 53.8561 20.2419C54.6354 20.5012 56.1073 22.3165 56.3671 22.4029C56.5403 22.8351 56.4537 22.8351 56.4537 22.8351C56.4537 22.8351 55.5878 22.1436 54.8951 21.625C54.2025 21.0199 53.9427 20.5877 53.3366 20.7605C52.7305 20.9334 52.7305 22.4029 53.25 23.2673Z" fill="#F37E57"/>
<path d="M55.3281 21.7979C55.3281 21.7979 54.8086 22.5758 54.8086 23.4402C54.8086 24.3046 56.7135 24.9097 56.7135 24.9097C56.7135 24.9097 56.6269 24.2182 56.5403 24.2182C56.5403 24.2182 55.3281 24.1317 55.0683 23.5267C54.8086 22.9216 55.4147 22.0572 55.3281 22.0572C55.4147 21.8843 55.3281 21.7979 55.3281 21.7979Z" fill="#F37E57"/>
<path d="M55.1548 18.6864C55.1548 18.6864 56.4536 26.7254 58.7048 29.3186C60.9561 31.9118 64.3329 33.7271 65.8914 33.4678C67.45 33.2949 71.1731 31.2203 72.9048 28.4542C73.7707 27.0712 74.4634 24.9101 74.8097 23.0949C75.2426 21.2796 74.2036 19.4644 72.4719 18.8593C71.2597 18.4271 69.8744 17.822 68.7487 17.1305C66.1512 15.4881 66.1512 9.86947 64.5926 9.00506C63.0341 8.14065 61.389 8.57286 60.4365 11.4254C58.6183 10.561 57.839 11.0796 57.839 11.5983C57.7524 12.1169 57.9256 14.7966 57.6658 15.4017C57.4061 16.0932 54.9817 17.4762 55.1548 18.6864Z" fill="#FBC09A"/>
<path d="M68.0562 19.2051C68.0562 19.2051 69.0952 18.1678 71.433 18.1678C70.5671 17.6492 68.8354 17.5628 68.0562 19.2051Z" fill="#F37E57"/>
<path d="M67.7964 20.847C67.7964 20.847 68.7488 19.8097 70.3074 19.6368C71.9525 19.3775 72.9049 20.3283 72.9049 20.3283C72.9049 20.3283 72.1257 18.4266 70.0476 18.8588C68.2293 19.2046 67.7964 20.847 67.7964 20.847Z" fill="#32191C"/>
<path d="M70.3072 21.1068C70.9289 21.1068 71.4329 20.6037 71.4329 19.9831C71.4329 19.3625 70.9289 18.8594 70.3072 18.8594C69.6856 18.8594 69.1816 19.3625 69.1816 19.9831C69.1816 20.6037 69.6856 21.1068 70.3072 21.1068Z" fill="#32191C"/>
<path d="M63.8136 20.847C63.8136 20.847 62.8612 19.8097 61.3026 19.6368C59.6575 19.3775 58.7051 20.3283 58.7051 20.3283C58.7051 20.3283 59.4843 18.4266 61.5624 18.8588C63.2941 19.2046 63.8136 20.847 63.8136 20.847Z" fill="#32191C"/>
<path d="M61.2159 21.1068C61.8376 21.1068 62.3416 20.6037 62.3416 19.9831C62.3416 19.3625 61.8376 18.8594 61.2159 18.8594C60.5943 18.8594 60.0903 19.3625 60.0903 19.9831C60.0903 20.6037 60.5943 21.1068 61.2159 21.1068Z" fill="#32191C"/>
<path d="M63.5536 19.2051C63.5536 19.2051 62.5146 18.1678 60.1768 18.1678C61.1292 17.6492 62.8609 17.5628 63.5536 19.2051Z" fill="#F37E57"/>
<path d="M64.9393 18.2539C64.9393 18.2539 65.4588 20.4149 65.1125 21.9709C64.8527 23.0946 64.2467 24.2183 63.9869 24.8234C63.9003 24.9963 64.0735 25.1692 64.2467 25.0827C64.2467 25.0827 66.5845 24.9098 66.5845 24.737C66.671 24.5641 65.0259 24.4776 65.0259 24.4776C65.0259 24.4776 65.5454 23.0081 65.7186 21.5387C65.8918 19.8963 64.9393 18.2539 64.9393 18.2539Z" fill="#F37E57"/>
<path d="M57.9258 15.8337C57.9258 15.8337 61.3026 16.093 64.0733 14.8828C63.4672 16.0065 62.3416 16.6981 61.8221 16.7845C61.216 16.9574 59.3977 17.0438 57.9258 15.8337Z" fill="#32191C"/>
<path d="M69.6147 22.922C69.6147 22.922 71.2599 21.7983 73.7708 21.7983C72.8184 21.1932 70.9135 21.0203 69.6147 22.922Z" fill="#EEA77F"/>
<path d="M62.2552 23.1817C62.2552 23.1817 60.6101 22.0579 58.0991 22.0579C59.0516 21.3664 60.9564 21.1935 62.2552 23.1817Z" fill="#EEA77F"/>
<path d="M58.6184 32.1713C58.5318 32.0848 58.6184 32.0848 58.6184 32.1713C58.3586 32.6899 58.0989 33.3814 57.7525 33.9001C57.4062 34.3323 56.8867 34.6781 56.4537 35.0238C55.5013 35.7153 54.3757 36.3204 53.5098 37.1848C51.8647 38.8272 51.0854 40.9882 51.0854 43.2357C51.0854 43.3221 51.2586 43.3221 51.2586 43.2357C51.5184 40.9018 52.9903 38.7408 54.8086 37.3577C55.7611 36.6662 56.9733 36.1475 57.7525 35.2831C58.1854 34.8509 58.5318 34.1594 58.705 33.6408C58.8781 32.9492 58.8781 32.6035 58.6184 32.1713Z" fill="#251115"/>
<path d="M60.0904 37.1848C59.8306 37.4441 59.5709 37.7898 59.2245 38.1356C58.9648 38.3949 58.705 38.5678 58.4453 38.8271C58.0123 39.2593 57.5794 39.778 57.1465 40.2102C56.1075 41.161 55.155 42.3712 54.5489 43.5814C53.9428 44.7915 53.6831 46.0881 53.7697 47.3848C53.8562 48.5085 54.2892 49.3729 55.155 50.2373C54.3758 49.4593 54.116 48.0763 54.116 47.039C54.116 45.8288 54.8087 44.7051 55.4148 43.6678C56.1075 42.5441 56.9733 41.6797 57.666 40.6424C58.0123 40.1237 58.4453 39.6051 58.8782 39.0865C59.1379 38.8271 59.2245 38.4814 59.4843 38.222C59.6575 37.9627 60.0038 37.7034 60.177 37.4441C60.2636 37.1848 60.177 37.0983 60.0904 37.1848Z" fill="#251115"/>
<path d="M53.7697 53.0028C53.1636 52.1384 52.3844 51.6197 51.6917 50.8417C50.9124 49.8909 50.3929 48.5943 50.8258 47.3841C50.8258 47.3841 50.8258 47.2977 50.7392 47.3841C49.96 49.1994 51.3453 50.8418 52.2112 52.3112C53.077 53.6943 54.4624 55.596 53.077 57.1519C52.9905 57.2384 53.077 57.4112 53.2502 57.3248C53.9429 56.979 54.2892 56.2011 54.4624 55.5095C54.6356 54.5587 54.2027 53.6943 53.7697 53.0028Z" fill="#251115"/>
<path d="M75.0694 19.4644C73.3377 18.3407 71.3463 17.6491 69.6146 16.5254C68.056 15.4881 66.9304 14.1051 66.6707 12.2898C66.5841 11.4254 66.4975 10.4746 65.978 9.78305C65.5451 9.09152 64.7658 8.65932 63.9865 8.48644C63.0341 8.31356 62.1682 8.65932 61.5621 9.35085C60.956 9.95593 60.6963 10.4746 60.4365 11.4254C60.4365 11.5119 61.3024 9.78305 62.0816 9.52373C62.7743 9.2644 63.6402 9.2644 64.3329 9.61017C65.978 10.4746 65.4585 12.5492 66.0646 14.0186C67.3634 17.4763 71.1731 18.5136 74.117 20.0695C74.8963 20.5017 75.589 21.0203 76.2816 21.539C76.9743 22.1441 77.4938 22.922 77.8402 23.7864C77.9268 23.8729 78.0133 23.7864 78.0133 23.7C77.9268 21.9712 76.5414 20.4153 75.0694 19.4644Z" fill="#251115"/>
<path d="M73.338 16.698C73.338 16.698 70.0477 15.8336 67.1904 16.5252C67.9697 15.4879 69.2685 15.0557 69.788 15.0557C70.3075 15.0557 72.1258 15.315 73.338 16.698Z" fill="#251115"/>
<path d="M56.8003 112.561C56.8003 112.561 77.321 112.907 76.9747 112.561C76.7149 112.216 65.2857 108.326 56.8003 112.561Z" fill="#111112"/>
<path d="M85.9792 60.178C86.5853 61.9933 95.5902 85.1594 99.8329 86.3695C105.548 88.0119 109.271 84.4678 109.53 77.639C109.79 70.7238 91.7804 40.4695 88.9231 40.0373C86.1524 39.5187 82.6024 49.2865 85.9792 60.178Z" fill="#29666E"/>
<path d="M100.439 62.9443C97.8416 63.9816 95.5904 65.9697 94.0319 68.1307C93.5124 68.9087 92.127 70.7239 93.3392 71.5019C93.8587 71.7612 94.4648 71.5883 94.8977 71.2426C95.4172 70.7239 95.677 69.946 96.3697 69.6867V69.6002C95.8502 69.7731 95.5038 70.2053 95.1575 70.5511C94.8977 70.8104 94.638 70.9833 94.2916 71.0697C94.0319 71.0697 93.6855 70.9833 93.6855 70.7239C93.5989 70.2917 94.1185 69.6002 94.3782 69.2544C94.7246 68.7358 95.0709 68.3036 95.4172 67.8714C96.8892 66.1426 98.7075 64.846 100.786 63.8951C101.392 63.5494 100.959 62.685 100.439 62.9443Z" fill="#1B555A"/>
<path d="M101.045 62.2525C101.045 62.2525 93.7721 72.2796 99.3136 80.7508C102.258 67.6118 101.478 62.166 101.478 62.166" fill="#1B555A"/>
<path d="M100.786 46.6934C99.8332 46.7798 98.8808 52.2256 98.8808 52.2256C98.8808 52.2256 97.0625 58.6222 102.517 58.8815C107.972 59.1408 109.531 52.5713 109.531 52.0527C109.531 51.4476 100.786 46.6934 100.786 46.6934Z" fill="#F37E57"/>
<path d="M99.2271 51.1016C99.2271 51.1016 96.7161 51.1016 96.9759 52.3117C97.2356 53.5219 98.8808 54.3863 99.5734 53.5219C100.353 52.8304 100.266 51.7066 99.2271 51.1016Z" fill="#F37E57"/>
<path d="M100.786 57.7577C100.786 57.7577 99.66 73.1442 99.4869 74.7001C99.0539 78.6764 102.777 82.4798 107.886 80.3187C112.042 78.5035 108.405 66.4018 107.539 57.8442C103.037 56.7204 100.786 57.7577 100.786 57.7577Z" fill="#FBC09A"/>
<path d="M113.427 52.6573V61.1285C113.427 61.3878 113.254 61.6471 112.907 61.6471H99.0537C98.7939 61.6471 98.5342 61.4743 98.5342 61.1285V52.6573C98.5342 52.398 98.7073 52.1387 99.0537 52.1387H112.907C113.254 52.2251 113.427 52.398 113.427 52.6573Z" fill="#231F20"/>
<path d="M113.427 58.9679V60.6103C113.081 60.6967 112.648 60.6967 112.128 60.6103C111.003 60.5238 109.877 59.1408 109.531 57.9306C109.184 56.7204 109.011 55.6832 109.79 54.1272C110.57 52.8306 111.522 52.5713 111.522 52.5713C111.522 52.5713 110.397 54.2137 111.262 56.5476C111.868 57.9306 112.734 58.6221 113.427 58.9679Z" fill="#D6D5D5"/>
<path d="M107.799 54.818C107.799 54.818 108.492 53.7807 109.877 54.2129C111.262 52.9163 111.609 52.657 111.609 52.657C111.609 52.657 110.31 52.3112 109.357 53.2621C108.318 54.1265 107.799 54.818 107.799 54.818Z" fill="#BCBCBD"/>
<path d="M109.357 53.2627C109.444 53.1763 108.838 53.6085 108.924 54.6458C108.924 55.683 109.79 59.4 108.665 60.6102C106.76 59.8322 106.76 58.1898 106.76 58.1898C106.76 58.1898 107.193 57.5847 107.193 57.0661C107.193 56.5475 107.02 55.683 107.452 54.9915C107.626 54.6458 109.184 53.3491 109.357 53.2627Z" fill="#F9F9F8"/>
<path d="M104.941 53.7805C104.941 53.7805 105.894 54.0399 106.327 54.8178C106.759 55.5958 107.366 57.9297 107.539 58.4483C107.712 58.967 108.145 60.2636 108.578 60.6094C108.405 60.8687 108.145 61.128 107.799 61.128C107.452 61.128 106.673 60.7822 106.327 60.4365C105.98 60.0907 105.461 59.3127 105.028 58.1026C104.595 56.8924 103.902 54.1263 103.469 53.6941C103.989 53.4348 104.941 53.7805 104.941 53.7805Z" fill="#D6D5D5"/>
<path d="M99.7461 53.3484C99.7461 53.3484 100.525 52.7433 101.911 52.8297C102.517 52.9162 103.556 53.3484 105.028 53.7806C103.902 53.6077 103.036 53.867 102.17 54.5586C100.525 53.7806 99.7461 53.3484 99.7461 53.3484Z" fill="#BCBCBD"/>
<path d="M103.643 61.6469H99.8328C100.612 61.1283 101.478 60.2639 101.738 58.7944C102.171 56.2876 101.045 54.213 99.6597 53.3486C99.6597 53.3486 101.565 53.7808 102.43 54.2995C102.43 54.2995 102.43 54.2995 102.517 54.2995C103.469 54.991 104.508 56.2012 104.595 58.6215C104.682 59.8317 104.162 60.869 103.643 61.6469Z" fill="#D6D5D5"/>
<path d="M111.349 54.3008L111.262 54.4737L111.175 54.3008H111.089V54.733H111.175V54.4737L111.262 54.5601L111.349 54.4737V54.733H111.435V54.3008H111.349Z" fill="white"/>
<path d="M111.608 54.733V54.3008H111.955V54.3872H111.782V54.4737H111.955V54.5601H111.782V54.6465H111.955V54.733H111.608Z" fill="white"/>
<path d="M112.215 54.6461C112.215 54.6461 112.128 54.7325 112.041 54.7325C111.955 54.7325 111.955 54.7325 111.955 54.6461C111.868 54.5596 111.868 54.5596 111.868 54.4732C111.868 54.3868 111.868 54.3003 111.955 54.3003L112.041 54.2139C112.128 54.2139 112.215 54.3003 112.215 54.3868H112.128C112.128 54.3868 112.128 54.3003 112.041 54.3003C112.041 54.3003 112.041 54.3003 111.955 54.3003C111.955 54.3003 111.955 54.3003 111.955 54.3868C111.955 54.4732 111.955 54.4732 111.955 54.4732C111.955 54.4732 111.955 54.4732 112.041 54.4732C112.128 54.6461 112.128 54.6461 112.215 54.6461C112.128 54.5596 112.128 54.5596 112.128 54.5596H112.041V54.4732H112.215V54.5596C112.301 54.5596 112.301 54.6461 112.215 54.6461Z" fill="white"/>
<path d="M112.561 54.3008L112.301 54.733H112.388V54.6465H112.561V54.733H112.648L112.561 54.3008Z" fill="white"/>
<path d="M109.617 54.733H109.444V54.3008H109.617C109.704 54.3008 109.79 54.3872 109.79 54.3872C109.79 54.4737 109.79 54.4737 109.704 54.4737L109.79 54.5601C109.79 54.6465 109.704 54.733 109.617 54.733ZM109.617 54.3008H109.53V54.4737H109.617C109.704 54.4737 109.704 54.4737 109.704 54.3872C109.704 54.3008 109.704 54.3008 109.617 54.3008ZM109.617 54.4737H109.53V54.6465H109.617C109.704 54.6465 109.704 54.6465 109.704 54.5601C109.704 54.5601 109.704 54.4737 109.617 54.4737Z" fill="white"/>
<path d="M110.137 54.733V54.6465H109.964V54.733H109.877L110.05 54.3008L110.137 54.733ZM109.964 54.3008L109.877 54.5601H110.05L109.964 54.3008Z" fill="white"/>
<path d="M110.483 54.733L110.223 54.3872V54.733H110.137V54.3008H110.223L110.483 54.6465V54.3008H110.57L110.483 54.733Z" fill="white"/>
<path d="M110.916 54.7325L110.743 54.4732L110.656 54.5596V54.6461H110.569V54.2139H110.656V54.4732L110.829 54.2139H110.916L110.743 54.3868L110.916 54.7325Z" fill="white"/>
<path d="M110.916 52.917H110.396L109.877 54.0407H110.396L110.656 53.5221L110.916 52.917Z" fill="#FFC20E"/>
<path d="M111.695 52.917H111.176L111.436 53.4356L111.695 53.9543H112.215L111.695 52.917Z" fill="#505154"/>
<path d="M111.262 53.7818C111.262 53.6954 111.262 53.6954 111.262 53.6954C111.262 53.6089 111.262 53.6089 111.176 53.6089L111.002 53.3496L110.829 53.6089C110.829 53.6954 110.829 53.6954 110.743 53.6954V53.7818V53.8683L111.262 53.7818Z" fill="#E05826"/>
<path d="M110.916 52.917L110.656 53.4356L110.743 53.695L110.829 53.7814V53.695C110.829 53.695 110.829 53.6085 110.916 53.6085L111.089 53.3492L110.916 52.917Z" fill="#F89A59"/>
<path d="M111.176 52.917L111.435 53.4356L111.349 53.695L111.262 53.7814V53.695C111.262 53.695 111.262 53.6085 111.176 53.6085L111.002 53.3492L111.176 52.917Z" fill="#848689"/>
<path d="M102.344 58.7086H99.833V58.1035H102.344V58.7086Z" fill="white"/>
<path d="M103.383 60.7823H99.833V60.2637H103.383V60.7823Z" fill="white"/>
<path d="M101.045 59.2271H99.833V58.9678H101.045V59.2271Z" fill="white"/>
<path d="M100.612 59.5728H99.833V59.3135H100.612V59.5728Z" fill="white"/>
<path d="M100.439 60.0044H99.833V59.7451H100.439V60.0044Z" fill="white"/>
<path d="M105.634 58.7086H103.123V58.1035H105.634V58.7086Z" fill="white"/>
<path d="M109.011 58.1035H106.5V58.7086H109.011V58.1035Z" fill="white"/>
<path d="M112.301 58.1035H109.79V58.7086H112.301V58.1035Z" fill="white"/>
<path d="M111.955 59.8316H112.041C112.041 59.918 112.041 60.0044 112.128 60.0909C112.128 60.2638 112.215 60.4366 112.215 60.5231V60.6095C112.128 60.6095 112.128 60.6095 112.041 60.6095V60.5231C111.955 60.5231 111.868 60.5231 111.782 60.5231V60.6095C111.695 60.6095 111.609 60.6095 111.522 60.6095C111.609 60.4366 111.695 60.2638 111.782 60.0909C111.782 60.0044 111.868 59.918 111.868 59.8316C111.868 59.7451 111.955 59.7451 111.955 59.7451C111.868 59.8316 111.955 59.8316 111.955 59.8316ZM111.868 60.0909C111.868 60.1773 111.782 60.2638 111.782 60.4366C111.868 60.4366 111.868 60.4366 111.955 60.4366C111.955 60.3502 111.955 60.2638 111.868 60.0909Z" fill="white"/>
<path d="M109.963 60.4371C109.963 60.4371 109.963 60.3507 110.05 60.3507C110.137 60.1778 110.137 60.0914 110.223 59.9185C110.31 59.9185 110.396 59.9185 110.483 59.9185C110.483 60.0049 110.396 60.0914 110.396 60.1778C110.31 60.2642 110.31 60.4371 110.223 60.5236C110.223 60.61 110.137 60.6964 110.137 60.7829C110.05 60.7829 109.963 60.7829 109.877 60.7829C109.79 60.61 109.79 60.4371 109.704 60.1778C109.704 60.0914 109.704 60.0914 109.704 60.0049C109.704 60.0049 109.704 59.9185 109.617 59.9185C109.53 59.9185 109.444 59.832 109.444 59.832C109.53 59.832 109.704 59.832 109.79 59.832C109.877 59.832 109.877 59.832 109.877 59.9185C109.877 60.0049 109.877 60.0914 109.963 60.1778C109.963 60.2642 109.963 60.3507 109.963 60.4371Z" fill="white"/>
<path d="M111.002 60.6964C110.916 60.6964 110.829 60.6964 110.743 60.6964V60.61V60.5236C110.743 60.5236 110.829 60.5236 110.916 60.5236C111.002 60.5236 111.002 60.5236 111.089 60.5236C111.089 60.5236 111.089 60.5236 111.176 60.5236C111.176 60.5236 111.262 60.4371 111.176 60.4371C111.176 60.4371 111.176 60.4371 111.089 60.4371C111.089 60.4371 111.002 60.4371 111.002 60.3507L110.916 60.2642C110.829 60.1778 110.829 60.1778 110.916 60.0914C110.916 60.0049 111.002 60.0049 111.002 59.9185C111.089 59.9185 111.089 59.832 111.176 59.832H111.262C111.349 59.832 111.349 59.832 111.435 59.832C111.435 59.9185 111.435 59.9185 111.435 60.0049C111.349 60.0049 111.262 60.0049 111.262 60.0049H111.176V60.0914C111.176 60.0914 111.262 60.0914 111.262 60.1778C111.262 60.1778 111.349 60.1778 111.349 60.2642L111.435 60.3507C111.435 60.4371 111.435 60.4371 111.435 60.5236C111.435 60.61 111.349 60.61 111.262 60.6964C111.176 60.6964 111.089 60.6964 111.002 60.6964Z" fill="white"/>
<path d="M110.483 60.6964H110.396C110.396 60.5236 110.483 60.3507 110.483 60.1778C110.483 60.0914 110.57 60.0049 110.57 59.832C110.656 59.832 110.743 59.832 110.743 59.832C110.656 60.0049 110.656 60.2642 110.57 60.4371C110.57 60.5236 110.57 60.61 110.483 60.6964Z" fill="white"/>
<path d="M104.855 59.5728H104.162V59.3135H104.855V59.5728Z" fill="white"/>
<path d="M106.5 59.3135H105.201V59.7457H106.5V59.3135Z" fill="white"/>
<path d="M104.682 60.0054H104.162V59.7461H104.682V60.0054Z" fill="white"/>
<path fill-rule="evenodd" clip-rule="evenodd" d="M103.469 56.7203C103.469 56.9796 103.383 57.1525 103.296 57.3254C103.296 57.3254 103.296 57.4118 103.21 57.4118C103.123 57.4118 103.123 57.3254 103.123 57.3254C103.21 57.1525 103.296 56.8932 103.296 56.6339C103.296 56.461 103.21 56.3746 103.21 56.2017V56.1152H103.296C103.383 56.2017 103.383 56.2881 103.383 56.3746C103.469 56.461 103.469 56.5474 103.469 56.7203Z" fill="#231F20"/>
<path fill-rule="evenodd" clip-rule="evenodd" d="M103.209 56.7208C103.209 56.8072 103.123 56.9801 103.123 57.153C103.123 57.153 103.123 57.153 103.036 57.2394H102.95V57.153C102.95 57.153 102.95 57.153 102.95 57.0666C103.036 56.9801 103.036 56.8937 103.036 56.8072C103.036 56.6343 103.036 56.4615 102.95 56.2886V56.2021H103.036C103.036 56.2021 103.123 56.2886 103.123 56.375C103.209 56.4615 103.209 56.5479 103.209 56.7208Z" fill="#231F20"/>
<path fill-rule="evenodd" clip-rule="evenodd" d="M102.777 56.2881C102.863 56.3745 102.95 56.461 102.95 56.5474C102.95 56.7203 102.95 56.8932 102.863 57.0661C102.863 57.0661 102.863 57.0661 102.777 57.0661C102.69 57.0661 102.69 57.0661 102.69 56.9796C102.777 56.8067 102.777 56.6338 102.69 56.461C102.69 56.3745 102.69 56.2881 102.777 56.2881Z" fill="#231F20"/>
<path fill-rule="evenodd" clip-rule="evenodd" d="M102.604 56.7203C102.604 56.8067 102.604 56.8931 102.517 56.9796H102.43C102.43 56.9796 102.344 56.9796 102.344 56.8931V56.8067C102.344 56.8067 102.344 56.7203 102.43 56.7203C102.43 56.6338 102.43 56.6338 102.43 56.5474V56.4609H102.517C102.517 56.5474 102.604 56.5474 102.604 56.6338C102.604 56.6338 102.604 56.6338 102.604 56.7203Z" fill="#231F20"/>
<path fill-rule="evenodd" clip-rule="evenodd" d="M101.998 56.1148V57.2385C101.998 57.4114 101.911 57.4978 101.738 57.4978H100.093C99.9196 57.4978 99.833 57.4114 99.833 57.2385V56.1148C99.833 55.9419 99.9196 55.8555 100.093 55.8555H101.738C101.824 55.8555 101.998 55.9419 101.998 56.1148Z" fill="#FBC800"/>
<path fill-rule="evenodd" clip-rule="evenodd" d="M100.612 55.8555V56.1148C100.612 56.2012 100.612 56.2877 100.612 56.3741V56.4606C100.612 56.547 100.612 56.547 100.612 56.6334C100.612 56.7199 100.612 56.8063 100.612 56.8928V56.9792C100.612 57.1521 100.612 57.325 100.612 57.4978H100.526C100.526 57.325 100.526 57.1521 100.526 56.9792V56.8928C100.526 56.8063 100.526 56.7199 100.526 56.6334C100.526 56.547 100.526 56.547 100.526 56.4606V56.3741C100.526 56.2877 100.526 56.2012 100.526 56.1148C100.526 56.0284 100.526 55.9419 100.526 55.8555H100.612Z" fill="#F99900"/>
<path fill-rule="evenodd" clip-rule="evenodd" d="M101.218 57.4978H101.132C101.132 57.325 101.132 57.1521 101.132 56.9792V56.8928C101.132 56.8063 101.132 56.7199 101.132 56.6334C101.132 56.547 101.132 56.547 101.132 56.4606V56.3741C101.132 56.2877 101.132 56.2012 101.132 56.1148C101.132 56.0284 101.132 55.9419 101.132 55.8555H101.218V55.9419C101.218 56.0283 101.218 56.1148 101.218 56.2012C101.218 56.2877 101.218 56.3741 101.218 56.3741V56.4606C101.218 56.547 101.218 56.6334 101.218 56.6334C101.218 56.7199 101.218 56.8063 101.218 56.8928V56.9792C101.218 57.1521 101.218 57.325 101.218 57.4978Z" fill="#F99900"/>
<path d="M100.612 56.374V56.4605H99.833V56.374H100.612Z" fill="#F99900"/>
<path d="M100.612 56.8926V56.979H99.833V56.8926H100.612Z" fill="#F99900"/>
<path d="M101.998 56.374V56.4605H101.132V56.374H101.998Z" fill="#F99900"/>
<path d="M101.998 56.8926V56.979H101.132V56.8926H101.998Z" fill="#F99900"/>
<path d="M109.877 52.2255C109.704 52.4848 109.53 52.6577 109.444 52.8306C108.924 53.2628 107.279 53.7814 107.193 52.5713V52.4848C107.193 52.4848 107.193 52.4848 107.193 52.5713C106.76 53.2628 105.115 53.2628 105.028 52.1391C104.855 52.6577 104.509 52.917 104.162 53.0899C103.729 53.2628 103.21 53.0899 102.863 52.7441C102.517 53.5221 102.777 54.3865 101.391 54.1272C100.699 54.0408 100.266 52.6577 100.006 51.1882C99.7463 49.5458 99.6598 47.817 99.7463 47.6441C100.352 46.2611 102.084 46.5204 103.123 47.9899C103.816 47.4713 104.768 47.3848 105.461 47.9035C105.721 48.0763 105.894 48.2492 106.067 48.595C107.193 48.1628 107.799 48.595 108.145 49.0272C108.405 49.4594 108.491 49.8916 108.491 49.8916C108.491 49.8916 109.704 49.373 110.396 49.978C110.829 50.2374 110.396 51.4475 109.877 52.2255Z" fill="#FBC09A"/>
<path d="M102.864 47.9893C102.864 47.9893 103.383 49.891 102.691 52.6571C102.258 50.0638 102.864 47.9893 102.864 47.9893Z" fill="#F37E57"/>
<path d="M105.981 48.422C105.981 48.422 105.201 51.361 104.942 51.9661C104.768 52.4847 104.422 52.744 104.076 52.9169C104.249 52.6576 104.422 52.2254 104.509 51.6203C104.855 50.1508 105.201 48.5084 105.374 47.7305C105.634 47.9898 105.807 48.1627 105.981 48.422Z" fill="#F37E57"/>
<path d="M108.405 49.7184C108.405 49.7184 107.713 51.793 107.193 52.4845C107.193 52.4845 107.193 52.5709 107.106 52.5709V52.4845C107.366 51.4472 107.799 49.8913 108.059 48.9404C108.319 49.2862 108.405 49.7184 108.405 49.7184Z" fill="#F37E57"/>
<path d="M109.877 52.2253C109.704 52.4846 109.531 52.6575 109.444 52.8304C108.925 53.2626 107.28 53.7812 107.193 52.5711V52.4846C107.193 52.4846 107.193 52.4846 107.193 52.5711C106.76 53.2626 105.115 53.2626 105.028 52.1389C104.855 52.6575 104.509 52.9168 104.162 53.0897C103.73 53.2626 103.21 53.0897 102.864 52.744C102.517 53.5219 102.777 54.3863 101.392 54.127C100.699 54.0406 100.266 52.6575 100.006 51.188C100.872 51.4474 102.084 51.5338 102.864 50.9287C104.422 51.5338 105.288 51.1016 105.288 51.1016C105.288 51.1016 106.24 52.0524 107.626 51.6202C108.578 52.1389 109.358 52.2253 109.877 52.2253Z" fill="#F37E57"/>
<path d="M99.1406 71.3282C99.1406 71.3282 105.721 74.6994 110.137 70.9824C111.522 81.5282 109.531 87.8384 103.643 87.9248C100.18 87.9248 98.3613 85.1587 98.3613 82.3061C98.5345 78.157 99.1406 71.3282 99.1406 71.3282Z" fill="#29666E"/>
<path d="M77.4943 66.8342C78.3601 66.7477 79.7455 68.0443 79.5723 69.946C79.3991 71.8477 78.7065 75.824 76.715 74.9596C74.7235 74.0952 73.4248 67.2664 77.4943 66.8342Z" fill="#F37E57"/>
<path d="M86.239 64.2404C86.1525 65.0184 83.2951 65.7964 82.2561 66.0557C80.5244 66.4014 76.2817 67.4387 76.2817 67.4387C76.2817 67.4387 77.9268 67.8709 78.0134 68.9082C78.0134 69.1675 78.0134 69.3404 77.9268 69.5997C77.8403 70.1184 77.5805 70.4641 77.5805 70.4641C77.5805 70.4641 78.3598 71.0692 78.1 72.1065C78.0134 72.3658 77.9269 72.6252 77.7537 72.8845C78.1866 74.5269 76.8878 76.4286 76.1086 76.6879C75.3293 76.9472 72.9915 77.0336 72.7317 75.4777C70.8268 75.9099 68.1427 76.1692 64.8525 75.5641C63.4671 75.3048 62.1683 75.9963 60.9561 76.6014C54.6354 80.0591 48.3147 84.7269 48.2281 84.7269C48.1415 84.7269 44.2451 77.3794 49.7866 73.4031C49.7866 73.4031 59.8305 68.5624 62.1683 67.698C64.5061 66.8336 84.5939 62.8574 85.9793 63.7218C86.1525 63.9811 86.239 64.0675 86.239 64.2404Z" fill="#FBC09A"/>
<path d="M78.8794 64.3271C77.927 64.3271 76.9745 64.5 75.9355 64.5865C74.9831 64.6729 74.0306 64.8458 73.0782 65.0187C71.1733 65.3644 69.355 65.7966 67.4502 66.2288C65.5453 66.661 63.727 67.1797 61.9087 67.8712C60.0904 68.4763 58.2721 69.2543 56.5404 70.0322C55.5014 70.4644 54.5489 70.9831 53.5965 71.5017C52.6441 72.0204 51.5184 72.4526 50.6526 73.0577C50.4794 73.1441 50.566 73.4034 50.8258 73.317C51.6916 72.9712 52.5575 72.4526 53.4233 72.0204C54.2892 71.5882 55.155 71.2424 56.0209 70.8966C57.7526 70.2051 59.5709 69.5136 61.3892 68.9085C65.1124 67.6119 68.8355 66.4882 72.7319 65.7102C73.7709 65.5373 74.8099 65.278 75.8489 65.1051C76.2819 65.0187 76.8014 64.9322 77.2343 64.8458C77.7538 64.7594 78.3599 64.6729 78.8794 64.5865C78.8794 64.4136 78.8794 64.3271 78.8794 64.3271Z" fill="#F37E57"/>
<path d="M52.9038 83.0844C49.6136 85.3318 36.8856 93.9759 32.1234 94.8403C28.1404 95.5318 26.2356 93.3708 25.3697 89.9996C24.5038 86.542 26.0624 81.7878 30.6514 80.059C36.366 77.8979 51.6917 72.2793 51.6917 72.2793C51.6917 72.2793 50.1331 75.9098 51.1721 80.3183C51.7782 82.4793 52.3843 83.0844 52.9038 83.0844Z" fill="#29666E"/>
<path d="M41.3011 74.8726C40.4353 73.7488 39.0499 72.8844 37.8377 72.1929C36.5389 71.4149 35.2402 70.8099 33.8548 70.2912C32.8158 69.9454 30.9109 69.081 30.1316 70.3777C29.2658 71.7607 31.1707 72.7115 32.2097 73.1438C33.7682 73.8353 35.4999 74.2675 37.145 74.0082C37.3182 74.0082 37.3182 73.7488 37.145 73.7488C35.4999 73.3166 33.9414 73.0573 32.3829 72.3658C31.9499 72.1929 30.478 71.5878 30.8243 70.8099C31.1707 70.1183 32.2963 70.7234 32.8158 70.8963C34.2877 71.4149 35.6731 72.1065 36.9719 72.8844C37.6646 73.3166 38.2707 73.6624 38.9633 74.181C39.3097 74.4404 39.5694 74.6132 39.9158 74.8726C40.1755 75.1319 40.5219 75.2183 40.8682 75.3912C41.128 75.5641 41.4743 75.1319 41.3011 74.8726Z" fill="#1B555A"/>
<path d="M36.1064 75.0461C35.6735 74.7868 35.154 74.8732 34.6344 74.8732C34.1149 74.9596 33.5954 75.0461 33.0759 75.1325C32.0369 75.3919 31.171 75.9969 30.3052 76.6885C30.3052 76.6885 30.3052 76.7749 30.3918 76.7749C31.2576 76.2563 32.2101 75.9105 33.2491 75.6512C33.7686 75.5647 34.2015 75.3918 34.721 75.3918C35.154 75.3918 35.6735 75.3919 36.1064 75.219C36.1064 75.219 36.193 75.1325 36.1064 75.0461Z" fill="#1B555A"/>
<path d="M39.3963 70.4644C38.9634 69.7729 38.1841 69.2543 37.578 68.7356C36.8854 68.1305 36.1061 67.6983 35.2402 67.1797C36.0195 67.6983 36.6256 68.3034 37.4049 68.9085C38.011 69.4271 38.6171 70.1187 39.3097 70.4644C39.3963 70.5509 39.4829 70.4644 39.3963 70.4644Z" fill="#1B555A"/>
<path d="M51.4317 71.8473C51.172 71.7609 50.9122 71.8473 50.5659 71.9338C50.1329 72.0202 49.7866 72.1931 49.3537 72.366C48.661 72.6253 47.9683 72.8846 47.189 73.1439C45.7171 73.749 44.2451 74.2677 42.7732 74.8728C39.9159 75.9965 37.0585 77.2067 34.2012 78.3304C32.5561 79.0219 30.911 79.7134 29.3524 80.4914C29.2659 80.4914 29.3524 80.5778 29.3524 80.5778C30.8244 80.1456 32.2963 79.627 33.7683 79.1083C35.2403 78.5897 36.7122 78.0711 38.1842 77.5524C41.1281 76.5151 43.9854 75.3914 46.8427 74.2677C47.622 73.9219 48.4012 73.6626 49.1805 73.3168C49.6134 73.1439 50.0464 72.9711 50.3927 72.7982C50.739 72.6253 51.172 72.4524 51.4317 72.1067C51.7781 72.1067 51.6049 71.9338 51.4317 71.8473Z" fill="#1B555A"/>
<path d="M69.6148 75.6507C68.4892 75.7371 67.3636 75.5642 66.238 75.3913C65.7185 75.3049 65.1124 75.2185 64.5929 75.2185C64.3331 75.2185 64.0734 75.2185 63.8136 75.2185C63.4673 75.2185 63.2075 75.3913 62.9478 75.4778C63.5539 75.3913 64.3331 75.5642 65.0258 75.6507C65.6319 75.7371 66.238 75.91 66.8441 75.9964C67.8831 76.1693 69.0953 76.3422 70.1343 76.2557C72.2124 76.0829 74.5502 75.5642 76.0221 74.0947C76.0221 74.0947 74.4636 75.2185 69.6148 75.6507Z" fill="#F37E57"/>
<path d="M74.8097 74.7861C74.6366 74.7861 74.6365 74.7861 74.55 74.8726C74.4634 74.8726 74.4634 74.959 74.4634 75.0455C74.6365 75.3048 75.9353 75.5641 76.2817 75.4777C76.3683 75.4777 74.9829 74.8726 74.8097 74.7861Z" fill="#F37E57"/>
<path d="M74.4634 75.0453C74.3768 74.7859 73.9438 74.9588 74.0304 75.2182C74.117 75.391 74.2036 75.6504 74.3768 75.8232C74.4634 75.9961 74.5499 76.169 74.7231 76.2554C74.7231 76.2554 74.5499 75.2182 74.4634 75.0453Z" fill="#F37E57"/>
<path d="M78.1002 72.1069C78.0136 72.3662 77.9271 72.6256 77.7539 72.8849C77.7539 72.8849 77.4076 72.2798 75.7624 71.934C74.2039 71.5883 72.9917 71.5883 72.9917 71.5883C76.1088 70.8967 77.5807 71.4154 78.1002 72.1069Z" fill="#F37E57"/>
<path d="M77.9271 69.6C77.8405 70.1186 77.5807 70.4644 77.5807 70.4644C76.7149 69.8593 73.8576 69.6 73.5112 69.4271C73.5112 69.4271 74.81 68.9949 76.0222 69.1678C76.7149 69.2542 77.4076 69.4271 77.9271 69.6Z" fill="#F37E57"/>
<path d="M86.2394 64.2402C86.1528 65.0182 83.2955 65.7962 82.2565 66.0555C80.5248 66.4013 76.2821 67.4385 76.2821 67.4385C76.0223 67.4385 72.9053 67.2657 72.9053 67.2657C72.9053 67.2657 77.7541 66.4877 80.5248 65.8826C82.8626 65.4504 85.0272 64.9318 86.2394 64.2402Z" fill="#F37E57"/>
<path d="M63.3809 26.5523C63.3809 26.5523 65.026 29.4048 67.9699 26.4658C65.9784 26.7251 63.3809 26.5523 63.3809 26.5523Z" fill="#F37E57"/>
<path d="M132.693 35.8143L129.693 32.8193L113.468 49.0167L116.468 52.0117L132.693 35.8143Z" fill="#F44A56"/>
<path d="M116.466 32.8165L113.466 35.8115L129.691 52.0089L132.691 49.0139L116.466 32.8165Z" fill="#F44A56"/>
</svg>
