<svg width="14" height="14" viewBox="0 0 14 14" fill="none" xmlns="http://www.w3.org/2000/svg">
<path d="M11.5714 9.86166C11.8299 7.37696 11.8299 4.87213 11.5714 2.38742C11.4905 1.61024 10.5944 1.21656 9.96732 1.68271L7.57353 3.46212C6.81895 4.02303 5.90374 4.32593 4.96352 4.32593H2.72982C2.40765 4.32593 2.14648 4.5871 2.14648 4.90926V7.33982C2.14648 7.66198 2.40765 7.92315 2.72982 7.92315L4.96351 7.92315C5.90374 7.92315 6.81895 8.22605 7.57353 8.78697L9.96732 10.5664C10.5944 11.0325 11.4905 10.6388 11.5714 9.86166Z" fill="#2D2D2D"/>
<path d="M5.30431 9.21736C5.33782 9.08644 5.30894 8.94737 5.22606 8.84061C5.14319 8.73386 5.01563 8.6714 4.88048 8.6714L3.71381 8.67139C3.5481 8.67139 3.3966 8.76501 3.32249 8.91323L2.73916 10.0799C2.63954 10.2791 2.70553 10.5214 2.89242 10.6426L4.13723 11.4499C4.25542 11.5266 4.40329 11.5416 4.5345 11.4904C4.66571 11.4391 4.76421 11.3278 4.79913 11.1913L5.30431 9.21736Z" fill="#2D2D2D"/>
</svg>
