<svg width="430.703" height="430.704" xmlns="http://www.w3.org/2000/svg">
 <g>
  <title>background</title>
  <rect x="-1" y="-1" width="432.703" height="432.704" id="canvas_background" fill="none"/>
 </g>

 <g>
  <title>Layer 1</title>
  <g stroke="null" id="svg_1">
   <g stroke="null" id="svg_2">
    <line stroke="null" fill="none" stroke-width="null" stroke-opacity="null" fill-opacity="null" x1="51.851501" y1="55.789501" x2="205.851501" y2="112.789501" id="svg_21" stroke-linejoin="null" stroke-linecap="null"/>
    <line stroke="null" fill="none" stroke-width="null" stroke-opacity="null" fill-opacity="null" x1="195.851501" y1="245.789501" x2="196.851501" y2="245.789501" id="svg_22" stroke-linejoin="null" stroke-linecap="null"/>
    <line stroke="null" fill="none" stroke-width="null" stroke-opacity="null" fill-opacity="null" x1="130.851501" y1="208.789501" x2="247.851501" y2="308.789501" id="svg_23" stroke-linejoin="null" stroke-linecap="null"/>
    <line stroke="null" fill="none" stroke-width="null" stroke-opacity="null" fill-opacity="null" x1="271.851501" y1="364.789501" x2="269.851501" y2="364.789501" id="svg_24" stroke-linejoin="null" stroke-linecap="null"/>
    <polyline stroke="null" fill="none" stroke-width="null" stroke-opacity="null" fill-opacity="null" opacity="0.5" points="12.85150146484375,115.78950500488281 16.85150146484375,121.78950500488281 20.85150146484375,131.7895050048828 28.85150146484375,143.7895050048828 33.85150146484375,147.7895050048828 40.85150146484375,151.7895050048828 51.85150146484375,154.7895050048828 59.85150146484375,154.7895050048828 63.85150146484375,158.7895050048828 72.85150146484375,158.7895050048828 73.85150146484375,158.7895050048828 74.85150146484375,158.7895050048828 76.85150146484375,158.7895050048828 " id="svg_25" stroke-linecap="round"/>
    <polyline stroke="null" fill="none" stroke-width="null" stroke-opacity="null" fill-opacity="null" opacity="0.5" points="353.85150146484375,300.78948974609375 353.85150146484375,301.78948974609375 353.85150146484375,305.78948974609375 353.85150146484375,311.78948974609375 353.85150146484375,323.78948974609375 353.85150146484375,341.78948974609375 353.85150146484375,351.78948974609375 354.85150146484375,356.78948974609375 354.85150146484375,358.78948974609375 354.85150146484375,360.78948974609375 " id="svg_26" stroke-linecap="round"/>
    <path stroke="null" id="svg_27" d="m287.233913,168.501517c0,0 10.805028,-51.993618 0,-69.606271c-10.817754,-17.612653 -15.132129,-29.344546 -38.918462,-37.743515s-15.119403,-6.7251 -32.415083,-5.865947c-17.29568,0.844341 -31.71511,11.731893 -31.71511,17.59784c0,0 -10.805028,0.844341 -15.119403,5.88076c-4.327102,5.036419 -11.530453,28.500205 -11.530453,34.380965s3.601676,45.298143 7.203352,53.6823l-4.288921,1.673869c-3.601676,48.631068 14.406703,54.511827 14.406703,54.511827c6.477926,45.298143 12.968578,26.011622 12.968578,37.743515s-6.490653,7.554628 -6.490653,7.554628s-5.7525,18.442181 -20.159203,25.152468c-14.406703,6.695474 -94.381725,42.750308 -100.885104,50.304936c-6.503379,7.569441 -5.765227,42.779934 -5.765227,42.779934l342.948266,0c0,0 0.750879,-35.210493 -5.7525,-42.779934c-6.516106,-7.569441 -86.491128,-43.609462 -100.897831,-50.304936c-14.406703,-6.710287 -20.159203,-25.152468 -20.159203,-25.152468s-6.490653,4.177265 -6.490653,-7.554628s6.490653,7.554628 12.981305,-37.743515c0,0 17.995653,-5.88076 14.406703,-54.511827l-4.327102,0z" fill-opacity="null" stroke-opacity="null" stroke-width="null" fill="null"/>
    <path stroke="#ffffff" d="m111.72507,307.40333c-24.94653,10.97053 -25.02521,-15.84466 -25.02521,-15.84466s-1.01003,-26.0651 4.57951,-33.57414c5.59144,-7.50959 17.38811,-20.89049 21.41829,-21.3368c15.10405,1.42972 24.10761,-3.02673 24.10761,-3.02673c9.19883,-4.61439 10.45533,-13.3864 6.97069,-15.43027c-1.26266,-0.74017 -1.26266,-0.74017 -11.92986,-3.4978l-14.95474,-3.86541c-4.24631,-1.09733 -10.65345,-0.93829 -28.6345,7.57783c-8.83056,4.18184 -16.58236,8.54584 -16.90751,8.72909c-1.70535,0.96195 -3.0974,2.47202 -4.27333,4.1978c-25.21906,37.04278 -62.07602,128.70043 -62.07602,128.70043l42.75221,25.31833c16.12877,-28.62957 39.85436,-30.19136 58.10794,-40.19278c6.45502,-3.53687 14.75757,-11.19725 30.74652,-22.10339c2.15041,-1.46714 8.57604,-7.4408 7.75939,-10.10267c-0.72944,-2.37791 -10.91509,-15.10119 -32.64099,-5.54883z" id="svg_3"/>
    <rect stroke="#ffffff" id="svg_28" height="57.000001" width="109" y="238.7895" x="132.851501" stroke-width="null" fill="#7f7f7f"/>
    <path stroke="#ffffff" d="m236.59699,229.506l-100.585995,0c-4.467536,0 -8.106993,3.877948 -8.106993,8.64243l0,59.716128c0,4.763796 3.638818,8.64243 8.106993,8.64243l100.585995,0c4.467536,0 8.106993,-3.877948 8.106993,-8.64243l0,-59.716128c-0.000639,-4.763796 -3.639457,-8.64243 -8.106993,-8.64243zm-2.145593,66.067628l-96.29481,0l0,-27.566791l96.29481,0l0,27.566791zm0,-42.145747l-96.29481,0l0,-12.98852l96.29481,0l0,12.98852z" id="svg_4"/>
   </g>
  </g>
  <g id="svg_5"/>
  <g id="svg_6"/>
  <g id="svg_7"/>
  <g id="svg_8"/>
  <g id="svg_9"/>
  <g id="svg_10"/>
  <g id="svg_11"/>
  <g id="svg_12"/>
  <g id="svg_13"/>
  <g id="svg_14"/>
  <g id="svg_15"/>
  <g id="svg_16"/>
  <g id="svg_17"/>
  <g id="svg_18"/>
  <g id="svg_19"/>
 </g>
</svg>