<svg width="511.99999" height="511" xmlns="http://www.w3.org/2000/svg">

 <g>
  <title>background</title>
  <rect fill="none" id="canvas_background" height="402" width="582" y="-1" x="-1"/>
 </g>
 <g>
  <title>Layer 1</title>
  <path id="svg_1" fill="#ff3c3c" d="m512,175.55078l0,38.3125c0,40.98828 -3.60937,81.80078 -3.76953,83.52344l-0.05078,0.51953c-0.51172,4.02734 -5.41016,39.90234 -22.38281,58.35547c-20.38282,22.41406 -43.35547,24.84375 -54.39454,26.01172c-1.05078,0.10937 -2.01171,0.21093 -2.87109,0.33203l-0.89062,0.08984c-67.6875,4.92188 -169.91016,5.58985 -170.92969,5.60156l-0.3125,0c-0.48828,-0.01171 -2.02735,-0.03125 -4.4375,-0.07031c-23.15235,-0.37109 -126.98438,-2.1914 -162.3711,-5.5625l-1.1914,-0.16015c-1.21875,-0.21875 -3.01953,-0.41797 -5.09766,-0.66016c-13.16406,-1.50781 -37.65625,-4.30859 -57.01953,-25.50391c-17.74219,-18.64843 -22.05078,-54.64453 -22.49219,-58.69531l-0.01953,-0.25781c-0.16015,-1.72266 -3.76953,-42.53516 -3.76953,-83.52344l0,-38.3125c0,-40.98437 3.60938,-81.80859 3.76953,-83.53125l0.05078,-0.51953c0.51172,-4.03125 5.41016,-39.90234 22.38282,-58.34766c20.66406,-22.72265 43.7539,-25.39062 54.86718,-26.67187c0.8711,-0.10156 1.66797,-0.19141 2.39063,-0.28906l0.91015,-0.08985c60.65625,-4.37109 148.07422,-5.39062 167.58985,-5.5625c2.45703,-0.02734 3.83984,-0.03906 3.94922,-0.03906l0.17968,0c1.03125,0.01172 103.24219,0.67969 170.92969,5.60156l0.90235,0.08985c0.75781,0.09765 1.60937,0.19921 2.53906,0.30859c11.23047,1.28125 34.58203,3.94141 55.17578,25.875c17.82422,18.63281 22.14453,55.29687 22.57422,59.41406l0.01953,0.23047c0.16016,1.72266 3.76953,42.54688 3.76953,83.53125zm0,0"/>
  <path id="svg_2" fill="#eb1c1c" d="m512,175.55078l0,38.3125c0,40.98828 -3.60937,81.80078 -3.76953,83.52344l-0.05078,0.51953c-0.51172,4.02734 -5.41016,39.90234 -22.38281,58.35547c-20.38282,22.41406 -43.35547,24.84375 -54.39454,26.01172c-1.05078,0.10937 -2.01171,0.21093 -2.87109,0.33203l-0.89062,0.08984c-67.6875,4.92188 -169.91016,5.58985 -170.92969,5.60156l-0.3125,0c-0.48828,-0.01171 -2.02735,-0.03125 -4.4375,-0.07031l0,-387.6875c2.45703,-0.02734 3.83984,-0.03906 3.94922,-0.03906l0.17968,0c1.03125,0.01172 103.24219,0.67969 170.92969,5.60156l0.90235,0.08985c0.75781,0.09765 1.60937,0.19921 2.53906,0.30859c11.23047,1.28125 34.58203,3.94141 55.17578,25.875c17.82422,18.63281 22.14453,55.29687 22.57422,59.41406l0.01953,0.23047c0.16016,1.72266 3.76953,42.54688 3.76953,83.53125zm0,0"/>
  <path id="svg_3" fill="#fff" d="m345.60938,189.79297c-0.01954,7.62891 -4.21875,14.60937 -10.92969,18.22266l-82.71875,44.48437l-30.39453,16.33984c-3.10938,1.67188 -6.48047,2.51172 -9.85157,2.51172c-3.67968,0 -7.33984,-1 -10.65234,-2.96875c-6.33984,-3.79297 -10.12109,-10.46094 -10.12109,-17.84375l0,-122.71484c0,-7.41016 3.8125,-14.08985 10.18359,-17.8711c6.37891,-3.78125 14.07031,-3.91015 20.57031,-0.35937l30.26563,16.5625l82.84765,45.33203c6.69141,3.66406 10.83204,10.68359 10.80079,18.30469zm0,0"/>
  <path id="svg_4" fill="#96fff6" d="m345.60938,189.79297c-0.01954,7.62891 -4.21875,14.60937 -10.92969,18.22266l-82.71875,44.48437l0,-126.34375l82.84765,45.33203c6.69141,3.66406 10.83204,10.6836 10.80079,18.30469zm0,0"/>
 </g>
</svg>