<svg id="7e1a0443-349e-4afa-b956-e1d1c1115fb4" data-name="Layer 1" xmlns="http://www.w3.org/2000/svg" viewBox="0 0 206 206"><defs><style>.ef171db9-06b6-4d11-8a25-1d1aad511ba8{fill:#ffc050;}.\36 1935ecd-531d-4d00-b740-80f6d9413108{font-size:19.89px;font-family:ArialMT, Arial;}.\30 c0a6499-5436-486c-96f0-1274ccfed12d,.\36 1935ecd-531d-4d00-b740-80f6d9413108,.\36 aec5a83-eaeb-4e40-9eb9-3e7655085b12,.\37 a1d4449-4521-46d7-925f-99c913284166{fill:#fff;}.\30 c0a6499-5436-486c-96f0-1274ccfed12d{opacity:0.45;}.\36 aec5a83-eaeb-4e40-9eb9-3e7655085b12{font-size:43px;font-family:Frunch, Frunch;}</style></defs><title>GreetingM-smile-</title><rect class="ef171db9-06b6-4d11-8a25-1d1aad511ba8" width="206" height="206.02"/><text class="61935ecd-531d-4d00-b740-80f6d9413108" transform="matrix(0.9, -0.44, 0.44, 0.9, 19.15, 78.65)">H</text><text class="61935ecd-531d-4d00-b740-80f6d9413108" transform="translate(31.5 72.6) rotate(-16.3)">a</text><text class="61935ecd-531d-4d00-b740-80f6d9413108" transform="matrix(0.99, -0.15, 0.15, 0.99, 41.75, 69.66)">p</text><text class="61935ecd-531d-4d00-b740-80f6d9413108" transform="translate(52.3 68.1) rotate(-2)">p</text><text class="61935ecd-531d-4d00-b740-80f6d9413108" transform="translate(63 67.7) rotate(3.4)">y</text><path class="0c0a6499-5436-486c-96f0-1274ccfed12d" d="M13.1,206h91c-2.7-6.7-9-12.4-17.7-16.4,9.2-5.6,15.1-14,15.1-23.3a23.3,23.3,0,0,0-3.3-11.8,14.9,14.9,0,0,0-10.8-25.1,14.9,14.9,0,0,0-13.3,8.3,59.3,59.3,0,0,0-15.5-2,60,60,0,0,0-15.6,2,14.8,14.8,0,1,0-24.1,16.8,23.3,23.3,0,0,0-3.3,11.8c0,9.3,5.9,17.7,15.1,23.3C22.1,193.6,15.7,199.3,13.1,206Zm60.5-60.1a2.4,2.4,0,0,1,2.4,2.4,2.4,2.4,0,1,1-4.8,0A2.4,2.4,0,0,1,73.6,145.9Zm-15,6.2a2.4,2.4,0,0,1,2.4,2.4,2.4,2.4,0,0,1-2.4,2.4,2.3,2.3,0,0,1-2.4-2.4A2.4,2.4,0,0,1,58.6,152.1Zm-15.1-6.2a2.3,2.3,0,0,1,2.4,2.4,2.4,2.4,0,0,1-2.4,2.4,2.4,2.4,0,0,1-2.4-2.4A2.4,2.4,0,0,1,43.5,145.9Z"/><path class="7a1d4449-4521-46d7-925f-99c913284166" d="M93.2,100.9a3.1,3.1,0,0,0-.9-1.8,3.4,3.4,0,0,0-2.2-.9,2.4,2.4,0,0,0-1.4.2,5.5,5.5,0,0,0-1.4.9l-1.5,1.4-1.3,1.8.8-1.7a2.5,2.5,0,0,0-.2-2.4A3.7,3.7,0,0,0,82.5,97H80.6l-1.5.4-1.4.6.3.5a.7.7,0,0,1,.1.5,2,2,0,0,1-.1.7l-4.6,10.1-1,.5a2.6,2.6,0,0,1-1.5.2.6.6,0,0,1-.6-.3c0-.2-.1-.4,0-.5l3.9-10.5a2.2,2.2,0,0,0-.4-2.3,3.7,3.7,0,0,0-2.7-1.3,5.8,5.8,0,0,0-1.9.2l-1.5.5a5.7,5.7,0,0,0-1.3.8c.1.1.3.2.4.4a1.4,1.4,0,0,1,.1,1.1l-.7,1.7a3.6,3.6,0,0,0-.2-1,7.3,7.3,0,0,0-1.7-2.7,5.9,5.9,0,0,0-2.5-1.7,6.6,6.6,0,0,0-2.7-.6,6.6,6.6,0,0,0,2.4-1.1,12.1,12.1,0,0,0,1.9-2,8.3,8.3,0,0,0,1.2-2.5,9.5,9.5,0,0,0,.4-3,7.7,7.7,0,0,0-.7-3.2,8.1,8.1,0,0,0-2.3-3,10.3,10.3,0,0,0-4.2-1.9,18.7,18.7,0,0,0-6.5-.4,24.1,24.1,0,0,0-8.2,2.4,30.1,30.1,0,0,0-7.3,4.9,28.9,28.9,0,0,0-5.4,6.6,22.6,22.6,0,0,0-2.8,7.6,17.2,17.2,0,0,0-.1,3.9,9.9,9.9,0,0,0,1,3.3,5.2,5.2,0,0,0,1.9,2.2,3.2,3.2,0,0,0,2.5.7,5.7,5.7,0,0,0,2.6-.8,3.6,3.6,0,0,0,1.5-1.5,6.7,6.7,0,0,0,.7-1.8,5.4,5.4,0,0,0,0-1.8,2.5,2.5,0,0,0-.3-1.3c-.2-.4-.4-.5-.5-.5a1.7,1.7,0,0,1-1.6.3,2.1,2.1,0,0,1-1.1-1,6.5,6.5,0,0,1-.4-2.1,12.6,12.6,0,0,1,.1-2.7,15.1,15.1,0,0,1,2-5.1,17.4,17.4,0,0,1,3.4-4.2,22.1,22.1,0,0,1,4.5-3,18.7,18.7,0,0,1,5-1.4,11,11,0,0,1,3.2.2,8.2,8.2,0,0,1,2.5,1.1,5.1,5.1,0,0,1,1.6,2,6,6,0,0,1,.6,2.7A6,6,0,0,1,55,92.3a14.4,14.4,0,0,1-4.3,3.1,2.9,2.9,0,0,0-1,.6,1.6,1.6,0,0,0-.4.7c0,.2,0,.4.2.5l.6.3.8.2h1a4.1,4.1,0,0,1,2.2.3,8.6,8.6,0,0,1,2,1.3,6.7,6.7,0,0,1,1.3,2.2,4.9,4.9,0,0,1,.5,2.7,5.5,5.5,0,0,1-.7,2.8,8.3,8.3,0,0,1-2,2.2,9,9,0,0,1-2.6,1.7,10.4,10.4,0,0,1-2.8.7,3.1,3.1,0,0,1-2.4-.6,3.7,3.7,0,0,1-1.1-1.8,6.9,6.9,0,0,1-.4-2.5,16.6,16.6,0,0,1,.2-2.4l2.8-16.2a2.1,2.1,0,0,0-.8-2.2,3.5,3.5,0,0,0-2.8-.7,5.8,5.8,0,0,0-1.9.4l-1.4.8a5.2,5.2,0,0,0-1.1,1l.4.3a1.1,1.1,0,0,1,.3,1.1l-1.6,9a39.5,39.5,0,0,0-.8,7,25.2,25.2,0,0,0,.7,5.2,11.3,11.3,0,0,0,1.6,3.5,7.9,7.9,0,0,0,2.4,2.1,7.3,7.3,0,0,0,2.8,1,8.8,8.8,0,0,0,2.8.1,13.2,13.2,0,0,0,3.2-.5,16.5,16.5,0,0,0,3.6-1.1,17,17,0,0,0,3.5-1.9,17.6,17.6,0,0,0,3-2.4,1.7,1.7,0,0,0,.1.7,3.7,3.7,0,0,0,.7,1.2,2.8,2.8,0,0,0,1.5.8,9.2,9.2,0,0,0,3.7.1,16.3,16.3,0,0,0,3.7-1.3l.2-.2a3,3,0,0,0,.4,1,3.5,3.5,0,0,0,2.6,1.4,6.1,6.1,0,0,0,1.9,0,7.6,7.6,0,0,0,1.6-.3l1.4-.7-.4-.5c-.1-.1-.1-.3-.2-.5a1.1,1.1,0,0,1,.2-.7l1.6-3.5,1.5-2.5,1.4-2.1a7.9,7.9,0,0,1,1.3-1.3,1.1,1.1,0,0,1,1-.3.5.5,0,0,1,.2.4.8.8,0,0,1,0,.7l-.3.8-.6.7a1.8,1.8,0,0,0-.5.8,2.4,2.4,0,0,0,.2.8,1.3,1.3,0,0,0,.6.7l1.1.5a4.1,4.1,0,0,0,2.9-.7,6,6,0,0,0,2-2.2,4.8,4.8,0,0,0,.6-1.8A6.7,6.7,0,0,0,93.2,100.9Z"/><path class="7a1d4449-4521-46d7-925f-99c913284166" d="M192.7,89.7a1.8,1.8,0,0,0-.1-1.1l-.6-.3a.7.7,0,0,0-.6.2.7.7,0,0,0-.3.6,29.6,29.6,0,0,1-.8,3.7,10,10,0,0,1-1.8,3.1q0-.2-.3-1.5c-.2-.8-.4-1.9-.7-3.1a36.9,36.9,0,0,1-1-3.9c-.4-1.5-.7-2.8-1.1-4.1a2,2,0,0,0-1.6-1.7,3.4,3.4,0,0,0-2.9.4l-1.5,1.2a7.7,7.7,0,0,0-.9,1.3c-.3.5-.5,1-.7,1.4h.6l.4.3.3.6,2.1,8.7a23.3,23.3,0,0,1-.8,3.1,3.7,3.7,0,0,1-1.4,1.9h-.5l-.3-.3-.3-.4c-.1-.1-.1-.2-.1-.4l-2.7-10.5a2.3,2.3,0,0,0-1.6-1.7,3.9,3.9,0,0,0-2.9.5l-1.5,1.2-1,1.3a8.4,8.4,0,0,0-.6,1.4h.5l.5.3a1.4,1.4,0,0,1,.2.6l2.1,8.3c0,.1.1.2.1.3l-1.1,2.2a4.5,4.5,0,0,1-1.9,1.8h-.7a.5.5,0,0,1-.3-.5l-.9-10a4.6,4.6,0,0,0-1.7-1.7,7,7,0,0,0-2.5-.6,9.3,9.3,0,0,0-3.9.8,9.7,9.7,0,0,0-3.2,1.9,10.5,10.5,0,0,0-2.5,3,12.2,12.2,0,0,0-1.5,3.9,15.6,15.6,0,0,0,.1,4.8l.3,1.3a9.2,9.2,0,0,1-1.9,2.8,5.9,5.9,0,0,1-2.1,1.5c-.4,0-.6,0-.7-.2s-.2-.3-.2-.5l.7-10h0l1-12.9a1.5,1.5,0,0,0-.2-1.1,1.8,1.8,0,0,0-.7-.8l-1.1-.4a3.8,3.8,0,0,0-1.5,0,4.4,4.4,0,0,0-1.6.6l-1.2.8-.9,1,.4.3.3.4c.1.1.1.3.1.6l-.7,8.5h-.7l-.9.2a11.4,11.4,0,0,0-3.5,1.3,12.2,12.2,0,0,0-3,2.6,11.8,11.8,0,0,0-2,3.7,11.6,11.6,0,0,0-.7,4.7v.8h-.1c-.2,0-.4.2-.6.4l-1,1.2a4.3,4.3,0,0,1-1.1,1.2,3.1,3.1,0,0,1-1.1.9,1.4,1.4,0,0,1-1,.4c-.4,0-.6-.1-.7-.3s-.1-.3,0-.5l2.7-10.1a2.2,2.2,0,0,0,0-1.6,3.6,3.6,0,0,0-1-1.4,4.6,4.6,0,0,0-1.4-.7,5.9,5.9,0,0,0-2-.2,8.7,8.7,0,0,0-3.7.7,14.1,14.1,0,0,0-2.9,1.8l3.4-12.4a2.4,2.4,0,0,0-.6-2.3,3.3,3.3,0,0,0-2.7-1,6,6,0,0,0-2,.3,3,3,0,0,0-1.4.6l-1.3.9.4.3a1.3,1.3,0,0,1,.3,1.2l-5.7,20.5h-.1c-.1-.2-.3-.2-.6-.2a1.1,1.1,0,0,0-.7.3,4.5,4.5,0,0,1-1.3,1,5.2,5.2,0,0,1-1.5.7l-1.5.6-1.2.3h-.7l-.6-.3a1.3,1.3,0,0,1-.4-.6,2.5,2.5,0,0,1,.1-.8l5.1-10.7.8.3,1.1.3a3.5,3.5,0,0,0,1.8-.2,3.2,3.2,0,0,0,1-1,2,2,0,0,0,.4-1.3,1.3,1.3,0,0,0-.1-.9l-.8.2h-.9l-1.1-.2a1.1,1.1,0,0,1-.8-.3l2.7-5.9A2.1,2.1,0,0,0,107,91a3.3,3.3,0,0,0-2.5-1.4,4.6,4.6,0,0,0-2-.1l-1.5.4-1.4.6.4.5a1.3,1.3,0,0,1,0,1.2l-2.4,5a2.9,2.9,0,0,0-1.9.2,2.4,2.4,0,0,0-1.1.9,2.2,2.2,0,0,0-.5,1.1,2,2,0,0,0,.2.9,6.1,6.1,0,0,1,1.9-.1l-4.6,9.9a7.7,7.7,0,0,0-.7,2.6,7,7,0,0,0,.5,2.5,4.5,4.5,0,0,0,1.5,1.9,4.3,4.3,0,0,0,2.3.9,8.9,8.9,0,0,0,3.6-.4,11.5,11.5,0,0,0,3.4-1.3,12.8,12.8,0,0,0,2.6-1.6l1.2-1-.8,3a2.4,2.4,0,0,0,.6,2.3,3.3,3.3,0,0,0,2.7,1,5.4,5.4,0,0,0,1.9-.3l1.5-.6,1.3-.9-.5-.4a.8.8,0,0,1-.2-.5.8.8,0,0,1,0-.7l2.6-9.1a8.9,8.9,0,0,1,2-1.9,3.4,3.4,0,0,1,1.8-.8c.4,0,.7.2.7.6v.9l-2.6,9.2a6,6,0,0,0,0,1.9,6.4,6.4,0,0,0,.8,1.4,3.8,3.8,0,0,0,1.5.9,5.8,5.8,0,0,0,1.9.3,6.7,6.7,0,0,0,3.1-.7,12,12,0,0,0,2.7-1.6,20.9,20.9,0,0,0,2.2-2l1.1-1.5h0a6.5,6.5,0,0,0,1.2,2.5,4.9,4.9,0,0,0,1.9,1.6,5.5,5.5,0,0,0,2.9.2,4,4,0,0,0,2.1-1.2,12,12,0,0,0,1.7-2.1,3.7,3.7,0,0,0,.5,1.1,2.1,2.1,0,0,0,1,.6,1.9,1.9,0,0,0,1,.3h1a12.1,12.1,0,0,0,3-1.1,24.8,24.8,0,0,0,2.6-1.9,16.4,16.4,0,0,0,2.1-2.5,7.5,7.5,0,0,0,.7-1.2,11.1,11.1,0,0,0,1.2,1.6,4.6,4.6,0,0,0,2.2,1.3,4.2,4.2,0,0,0,2.9-.2,3.8,3.8,0,0,0,1.9-1.6l1.2-2.5a2,2,0,0,0,.8,1,1.9,1.9,0,0,0,1,.5h1.1l.9-.2a7.4,7.4,0,0,0,2.7-1.6,16.7,16.7,0,0,0,2.3-2.3,11.7,11.7,0,0,0,1.7-2.8.3.3,0,0,0,.1-.2,7.3,7.3,0,0,0,1.8,1.4,4.2,4.2,0,0,0,2.1.6,3.7,3.7,0,0,0,1.8-.4,8.3,8.3,0,0,0,2.9-2.6,31.8,31.8,0,0,0,1.6-3.2l.8,3.3a17.5,17.5,0,0,0-2,3.1,5.7,5.7,0,0,0-.9,2.2,2.2,2.2,0,0,0,0,1.6,5.8,5.8,0,0,0,.5,1.4,3.7,3.7,0,0,0,1.4,1.4,3.4,3.4,0,0,0,1.7.5,5.7,5.7,0,0,0,1.8-.3,4.6,4.6,0,0,0,1.6-.7,8.8,8.8,0,0,0,2.5-2,6.2,6.2,0,0,0,.9-2.7,12,12,0,0,0-.2-3.7c-.3-1.5-.6-3.2-1.1-5.2a29.2,29.2,0,0,0,2.5-4A11.5,11.5,0,0,0,192.7,89.7Zm-52.3,14.7-.6,7.2a9.2,9.2,0,0,1-.9,1.3,1.1,1.1,0,0,1-1.1.3c-.4,0-.8-.4-1.1-1a7.3,7.3,0,0,1-.5-3.1,18.4,18.4,0,0,1,.4-2.9,6.4,6.4,0,0,1,.8-2,5,5,0,0,1,1.1-1.3,2.4,2.4,0,0,1,.9-.6q.8-.3.9.3A8.7,8.7,0,0,1,140.4,104.4Zm19.4,2.6a1.1,1.1,0,0,1-.9.6c-.5,0-.9-.3-1.3-.9a6.4,6.4,0,0,1-1-3,14.8,14.8,0,0,1-.1-2.9,8.1,8.1,0,0,1,.5-2.1,3.7,3.7,0,0,1,.8-1.4,2.8,2.8,0,0,1,.9-.7c.5-.4.8-.3,1,.2s.2,1.3.3,2.2l.6,6.7A7.4,7.4,0,0,1,159.8,107Zm24.3,1.6c-.1.4-.2.7-.4.8a.6.6,0,0,1-.8,0l-.3-.4a1.7,1.7,0,0,1-.1-1l.3-1a3.9,3.9,0,0,1,.4-.9c.2-.3.3-.5.5-.6a11.3,11.3,0,0,1,.3,1.8A5.3,5.3,0,0,1,184.1,108.6Z"/><text class="6aec5a83-eaeb-4e40-9eb9-3e7655085b12" transform="translate(-7.1 269.1) rotate(-7.6)">F</text><text class="6aec5a83-eaeb-4e40-9eb9-3e7655085b12" transform="translate(10.4 266.6) rotate(1.2)">o</text><text class="6aec5a83-eaeb-4e40-9eb9-3e7655085b12" transform="translate(29.7 266.9) rotate(7.4)">r</text><text class="6aec5a83-eaeb-4e40-9eb9-3e7655085b12" transform="translate(46.3 269.1) rotate(11)"> </text><text class="6aec5a83-eaeb-4e40-9eb9-3e7655085b12" transform="translate(62.6 273.9) rotate(-2)">Y</text><text class="6aec5a83-eaeb-4e40-9eb9-3e7655085b12" transform="translate(108.1 270.4) rotate(-17.6)">o</text><text class="6aec5a83-eaeb-4e40-9eb9-3e7655085b12" transform="translate(130.2 263.3) rotate(-27.1)">u</text></svg>