<svg id="e14f9499-6f91-43d1-9d2a-a6ca55eac077" data-name="Layer 1" xmlns="http://www.w3.org/2000/svg" xmlns:xlink="http://www.w3.org/1999/xlink" viewBox="0 0 206 206"><defs><style>.\39 1cd708c-8c93-41de-81e6-cc895a826071{fill:#e85d0f;}.e2bf76b5-b6be-4f63-9fd4-e187aa5021ee{fill:url(#27761c95-14a5-4ea1-8b99-c0e7717f2dfd);}</style><linearGradient id="27761c95-14a5-4ea1-8b99-c0e7717f2dfd" x1="28.04" y1="103.21" x2="167.21" y2="103.21" gradientUnits="userSpaceOnUse"><stop offset="0" stop-color="#fff"/><stop offset="0.02" stop-color="#fefefe"/><stop offset="0.63" stop-color="#e5e5e5"/><stop offset="1" stop-color="#dbdbdb"/></linearGradient></defs><title>Icon Kirim 01</title><rect class="91cd708c-8c93-41de-81e6-cc895a826071" width="206" height="206"/><path class="e2bf76b5-b6be-4f63-9fd4-e187aa5021ee" d="M137.7,49.1,35.4,77.4a10.1,10.1,0,0,0-7,12.4l16.8,60.5a10.1,10.1,0,0,0,12.4,7L159.8,129a10.1,10.1,0,0,0,7-12.4L150.1,56.1A10.1,10.1,0,0,0,137.7,49.1Zm25.4,74.3a2.5,2.5,0,0,1-1.5,1.2,2.5,2.5,0,0,1-1.9-.2l-42.1-23.8-.7-.6-7.7,12a11.9,11.9,0,0,1-7.2,5.6,12,12,0,0,1-9.1-1.1l-13.4-6.6a2.5,2.5,0,0,1-.3,1.3L55.3,153.3a2.5,2.5,0,0,1-3.4.9,2.5,2.5,0,0,1-.9-3.4l23.8-42.1a2.5,2.5,0,0,1,.7-.8L33.4,87.1a2.5,2.5,0,0,1,2.2-4.5L95.2,112a7.1,7.1,0,0,0,5.4.7,7,7,0,0,0,4.2-3.4l35.5-55.1h0a2.5,2.5,0,1,1,4.2,2.7L119.4,96l.6.2L162.1,120A2.5,2.5,0,0,1,163.1,123.4Z"/></svg>