<svg id="8f663966-787d-4b6b-8aae-474a93c877bf" data-name="Layer 1" xmlns="http://www.w3.org/2000/svg" viewBox="0 0 48.2 50.8"><defs><style>.f106e650-66a9-43d9-98b0-ad42d3d4480b{fill:none;stroke:#9a58a5;stroke-miterlimit:10;stroke-width:1.8px;}</style></defs><title>GreetingM-smile-</title><rect class="f106e650-66a9-43d9-98b0-ad42d3d4480b" x="0.9" y="13.1" width="18.6" height="9.2"/><rect class="f106e650-66a9-43d9-98b0-ad42d3d4480b" x="28.7" y="13.1" width="18.6" height="9.2"/><rect class="f106e650-66a9-43d9-98b0-ad42d3d4480b" x="4.3" y="22.3" width="15.2" height="27.6"/><rect class="f106e650-66a9-43d9-98b0-ad42d3d4480b" x="28.7" y="22.3" width="15.2" height="27.6"/><rect class="f106e650-66a9-43d9-98b0-ad42d3d4480b" x="5.7" y="26.9" width="36.8" height="9.2" transform="translate(55.6 7.4) rotate(90)"/><path class="f106e650-66a9-43d9-98b0-ad42d3d4480b" d="M23.6,12.9l-.4.2h-1a15.5,15.5,0,0,1-8.6-5.5A6.8,6.8,0,0,1,12.2,5a3.6,3.6,0,0,1,.3-2.7A3.5,3.5,0,0,1,16.2,1c4.2.8,7.1,6.3,7.8,10.1C24.1,11.8,24.2,12.6,23.6,12.9Z"/><path class="f106e650-66a9-43d9-98b0-ad42d3d4480b" d="M24.6,12.9l.4.2h1a15.5,15.5,0,0,0,8.6-5.5A6.8,6.8,0,0,0,36,5a3.6,3.6,0,0,0-.3-2.7A3.5,3.5,0,0,0,32,1c-4.3.8-7.1,6.3-7.8,10.1C24,11.8,24,12.6,24.6,12.9Z"/><path class="f106e650-66a9-43d9-98b0-ad42d3d4480b" d="M23.6,12.9l-.4.2h-1a15.5,15.5,0,0,1-8.6-5.5A6.8,6.8,0,0,1,12.2,5a3.6,3.6,0,0,1,.3-2.7A3.5,3.5,0,0,1,16.2,1c4.2.8,7.1,6.3,7.8,10.1C24.1,11.8,24.2,12.6,23.6,12.9Z"/><path class="f106e650-66a9-43d9-98b0-ad42d3d4480b" d="M24.6,12.9l.4.2h1a15.5,15.5,0,0,0,8.6-5.5A6.8,6.8,0,0,0,36,5a3.6,3.6,0,0,0-.3-2.7A3.5,3.5,0,0,0,32,1c-4.3.8-7.1,6.3-7.8,10.1C24,11.8,24,12.6,24.6,12.9Z"/></svg>