<svg id="b579e360-608e-487e-a8f7-efc81ac84f7d" data-name="Layer 1" xmlns="http://www.w3.org/2000/svg" viewBox="0 0 144.5 144.4"><defs><style>.\33 af2c9c2-0225-46b7-b144-a5b0a7e36c7b{fill:#fff;}.bbd65839-0fd3-413f-bab3-df89966b2636{fill:#eeb82e;}.\34 28356fc-9a5c-4618-894e-2f13cda276b5{fill:#308599;}.acba2d6d-4075-4fc1-966c-7d745dc52363{fill:#51abbf;}.\34 287cc8f-12b2-469a-8f19-61ecb51efd40{fill:#fafcfe;}.\31 470b32c-06de-4dbe-aaca-49d9df50167b{fill:#f8d792;}</style></defs><title>UI msmile</title><path class="3af2c9c2-0225-46b7-b144-a5b0a7e36c7b" d="M144.5,72.2A72.3,72.3,0,1,1,72.2,0a72.3,72.3,0,0,1,72.3,72.2"/><polygon class="bbd65839-0fd3-413f-bab3-df89966b2636" points="15.5 57.8 71.3 16 71.1 16 126.9 57.8 15.5 57.8"/><rect class="bbd65839-0fd3-413f-bab3-df89966b2636" x="15.5" y="57.8" width="111.4" height="60.54"/><polygon class="428356fc-9a5c-4618-894e-2f13cda276b5" points="115.9 41.1 26.6 40.9 26.5 90 115.8 90.2 115.9 41.1"/><path class="acba2d6d-4075-4fc1-966c-7d745dc52363" d="M111.9,86.2V45.1l-81.3-.2V86ZM109,54V77.3h-.7a4.7,4.7,0,0,0-4.8,4.8v.7H38.8a2,2,0,0,0,.1-.7,4.7,4.7,0,0,0-4.8-4.8h-.7V53.8h.7A4.8,4.8,0,0,0,39,49.1c0-.2-.1-.4-.1-.7h64.7c0,.3-.1.5-.1.8a4.8,4.8,0,0,0,4.8,4.7h.7"/><path class="4287cc8f-12b2-469a-8f19-61ecb51efd40" d="M64.6,57.3a8,8,0,0,1,2.3.3,4.9,4.9,0,0,1,1.8.8,3.8,3.8,0,0,1,1.1,1.4,5.9,5.9,0,0,1,.4,2,4.9,4.9,0,0,1-.6,2.5,5,5,0,0,1-1.7,1.5l2.5,4.7v.2a.4.4,0,0,1-.1.3H66.7a.8.8,0,0,1-.2-.4l-2.3-4.2H62.4v4.2a.7.7,0,0,1-.6.6H59.3c-.1,0-.2,0-.3-.2s-.2-.2-.2-.3V57.9a.6.6,0,0,1,.1-.4h5.8Zm-2.2,6h2.2A2.9,2.9,0,0,0,66,63a1.4,1.4,0,0,0,.5-1.2,1.3,1.3,0,0,0-.5-1.1,3.2,3.2,0,0,0-1.4-.3H62.4Z"/><path class="4287cc8f-12b2-469a-8f19-61ecb51efd40" d="M78.5,71.2h-1a1.3,1.3,0,0,1-.8-.3l-.5-.3-.3-.4v4.2a.8.8,0,0,1-.2.4H72.9c-.2.1-.3,0-.4-.1a.5.5,0,0,1-.2-.4v-13l.2-.3a.5.5,0,0,1,.4-.2h2.7l.2.4v.5a.8.8,0,0,1,.4-.4,1,1,0,0,1,.5-.4l.7-.3h1.1a4.7,4.7,0,0,1,1.7.2l1.4.8a7.1,7.1,0,0,1,1,1.4,6.5,6.5,0,0,1,.4,2v1.7a4.5,4.5,0,0,1-.4,2,4.2,4.2,0,0,1-.9,1.4,2.9,2.9,0,0,1-1.4.8,4.7,4.7,0,0,1-1.7.3m.9-4.8V65.3a3.1,3.1,0,0,0-.5-1.2,1.7,1.7,0,0,0-1.3-.5l-.8.2a1,1,0,0,0-.5.4.9.9,0,0,0-.3.5.8.8,0,0,0-.2.5v1.4c.1.2.1.4.2.6l.3.5c.2.1.3.3.6.4h.7a1.6,1.6,0,0,0,1.3-.5,2.9,2.9,0,0,0,.5-1.3"/><polygon class="bbd65839-0fd3-413f-bab3-df89966b2636" points="123 64.1 68.4 101.3 68.5 101.3 19.4 64.6 19.4 116.2 123 116.2 123 64.1"/><polygon class="1470b32c-06de-4dbe-aaca-49d9df50167b" points="15.4 118.3 71.2 76.5 71.2 76.5 127 118.3 15.4 118.3"/></svg>