<svg id="c9cbf5db-69c0-41ee-b6b2-73a200e94440" data-name="Layer 1" xmlns="http://www.w3.org/2000/svg" xmlns:xlink="http://www.w3.org/1999/xlink" viewBox="0 0 206.1 206.1"><defs><style>.\33 e116462-5e0b-41d8-adfb-6cc744f2e071{fill:url(#185a7b09-f380-49ff-8182-849ee5e97d0d);}.bc12c624-bb98-4291-b273-2aef6a7d414c{fill:url(#ca2c25c1-45a4-4d59-94fd-6d7dc3195299);}.\37 e5eb2b8-d85c-45f0-99e5-248f489f891c,.c15011c7-4f57-451d-a00a-45672926f819,.fe4a0ef5-b9fb-447c-a785-afa47de47e99{fill:#fff;}.\37 72d3cb9-2c7e-4789-9608-55ac90f72cc2{fill:url(#fe93d336-e55b-4122-b620-59d8c9b7abbb);}.c15011c7-4f57-451d-a00a-45672926f819{font-size:30.71px;}.\37 e5eb2b8-d85c-45f0-99e5-248f489f891c,.c15011c7-4f57-451d-a00a-45672926f819{font-family:MermaidSwashCaps-Bold, Mermaid Swash Caps;font-weight:700;}.\37 e5eb2b8-d85c-45f0-99e5-248f489f891c{font-size:25.09px;}.bf208419-498d-485d-88b2-1cc63036fbb7{fill:url(#11ca0ed7-997e-482f-b9fa-f239f88114ca);}</style><linearGradient id="185a7b09-f380-49ff-8182-849ee5e97d0d" x1="-0.01" y1="103.03" x2="206.07" y2="103.03" gradientUnits="userSpaceOnUse"><stop offset="0" stop-color="#262262"/><stop offset="0.55" stop-color="#29307e"/><stop offset="1" stop-color="#2b3990"/></linearGradient><linearGradient id="ca2c25c1-45a4-4d59-94fd-6d7dc3195299" x1="-0.01" y1="136.24" x2="175.37" y2="136.24" gradientUnits="userSpaceOnUse"><stop offset="0" stop-color="#008c4f"/><stop offset="0.15" stop-color="#008f55"/><stop offset="0.35" stop-color="#009866"/><stop offset="0.58" stop-color="#00a781"/><stop offset="0.83" stop-color="#00bba7"/><stop offset="1" stop-color="#00cbc5"/></linearGradient><linearGradient id="fe93d336-e55b-4122-b620-59d8c9b7abbb" x1="73.27" y1="218.99" x2="88.13" y2="134.71" xlink:href="#ca2c25c1-45a4-4d59-94fd-6d7dc3195299"/><linearGradient id="11ca0ed7-997e-482f-b9fa-f239f88114ca" x1="-0.01" y1="151.49" x2="206.07" y2="151.49" xlink:href="#185a7b09-f380-49ff-8182-849ee5e97d0d"/></defs><title>lebaran</title><rect class="3e116462-5e0b-41d8-adfb-6cc744f2e071" width="206.1" height="206.08"/><path class="bc12c624-bb98-4291-b273-2aef6a7d414c" d="M159.6,143.8c-15.6-5.4-10.9-38.2-41.4-38.2-9.9,0-21.7,2.5-28.3-5.3-2.4-2.9-3.6-6.7-5.1-10.2A39.6,39.6,0,0,0,58.4,67.4a37.7,37.7,0,0,0-33.1,8.1C15.9,83.7,10.1,96.4,0,103.3V206.1H163.2C181.8,187.6,177.9,150.2,159.6,143.8Z"/><path class="fe4a0ef5-b9fb-447c-a785-afa47de47e99" d="M83.5,45.4c-12.6.8-13.3,1.5-14.2,14.2-.9-12.7-1.6-13.4-14.2-14.2,12.6-.9,13.3-1.6,14.2-14.3C70.2,43.8,70.9,44.5,83.5,45.4Z"/><path class="fe4a0ef5-b9fb-447c-a785-afa47de47e99" d="M206.1,49.1c-12.7.9-13.4,1.6-14.3,14.2-.8-12.6-1.5-13.3-14.2-14.2,12.7-.9,13.4-1.6,14.2-14.3C192.7,47.5,193.4,48.2,206.1,49.1Z"/><path class="fe4a0ef5-b9fb-447c-a785-afa47de47e99" d="M201,124.7c-12.6.9-13.3,1.6-14.2,14.2-.8-12.6-1.6-13.3-14.2-14.2,12.6-.9,13.4-1.6,14.2-14.2C187.7,123.1,188.4,123.8,201,124.7Z"/><path class="772d3cb9-2c7e-4789-9608-55ac90f72cc2" d="M152,148.3c-30.6-6.4-46,15.3-78.6,4.3C48,144,34.8,112.4,0,125.9v80.2H152.5a39.5,39.5,0,0,0,15.6-19.7C174.3,168.6,169,151.9,152,148.3Z"/><text class="c15011c7-4f57-451d-a00a-45672926f819" transform="translate(112.4 68.4)">Eid</text><text class="7e5eb2b8-d85c-45f0-99e5-248f489f891c" transform="translate(88.1 96.1)">Mubarak</text><path class="fe4a0ef5-b9fb-447c-a785-afa47de47e99" d="M103,141c-10.8.8-11.4,1.4-12.1,12.2-.8-10.8-1.4-11.4-12.2-12.2,10.8-.7,11.4-1.3,12.2-12.1C91.6,139.7,92.2,140.3,103,141Z"/><path class="fe4a0ef5-b9fb-447c-a785-afa47de47e99" d="M28.1,109.1c-10.8.8-11.4,1.4-12.2,12.2-.7-10.8-1.3-11.4-12.1-12.2,10.8-.7,11.4-1.3,12.1-12.1C16.7,107.8,17.3,108.4,28.1,109.1Z"/><path class="bf208419-498d-485d-88b2-1cc63036fbb7" d="M125.8,189.5V160h1.5v-1.3h-1.6v-3.9a3.9,3.9,0,0,0-1.9-5l-.8-.6a2.1,2.1,0,0,1-.6-1c-.1,0-.1,0-.1.1h0a4,4,0,0,1-1.4,1.5,4.5,4.5,0,0,0-1.9,2,3.9,3.9,0,0,0-.2,3v3.9h-1.4V160h1.4v29l-4.2-.2v-4.4h.7v-1.3h-.6c.3-1.3.7-6-4.5-8.9,0,0-2.3-1.3-2.7-2.9-.5,1.6-2.8,3-2.8,3-5.5,3.2-4.7,8.1-4.4,9.4h-.5v.7h.7v3.7l-7.7-.4V171.9h-.7V160H90.7v11.9h-7V151.5H82.3v20.4H80.8V161.4H79.3a8.9,8.9,0,0,0-4.3-10s-2.3-1.8-2.7-3.4c-.5,1.6-2.8,3.2-2.8,3.2a9.1,9.1,0,0,0-4.3,10.2H57.7v-9.3h1v-5.2h-1c.1,0,5.7-18.4-13.1-29.1,0,0-5.3-3.1-7.5-7.2l-.6-13.7-.7,13.6c-2.2,4.2-7.6,7.5-7.6,7.5-18.3,10.5-13.5,28.2-13.1,28.9h-1v5.2h1v9.3H7.6a8.8,8.8,0,0,0-4.3-9.9S1,149.6.6,148a6,6,0,0,1-.6,1.1v57H206.1v-17C150.5,188.7,134.1,190,125.8,189.5Zm-23.2-1.3h-.7v-3.7h.7Zm2.2.1h-.7v-3.8h.7Zm2.1.1h-.7v-3.9h.7Zm2.1.1h-.7v-4.1h.7Zm2.1.1h-.7v-4.2h.7Zm2.1.1h-.7v-4.3h.7Zm8.4-30h-1.4v-2.6h1.4Zm2.8,0H123v-2.6h1.4Z"/></svg>