<svg id="ebc1dce2-cdfc-455c-91c8-068c770ac787" data-name="Layer 1" xmlns="http://www.w3.org/2000/svg" viewBox="0 0 206.1 206.1"><defs><style>.cf57ee0c-847d-4fba-919f-063f5674d58b{fill:#60524c;}.\31 a393c00-16d0-4e4c-9635-55940fbe9e23,.\37 33dc093-25aa-4933-9e02-e8b0dda22eb3{fill:#f2c594;}.\37 33dc093-25aa-4933-9e02-e8b0dda22eb3{opacity:0.35;}.\37 1de3a3b-4546-4567-9f36-2afdd1342504{fill:#423028;}.d167ff61-62fb-4557-8001-6cc837f241a0{fill:#c6cdc7;}.\36 07771a8-6b6d-43ec-8386-ef089214e334{fill:#b5bab6;}.cf68c7d5-6cf5-4376-98c2-e9fe9a5ad32e{fill:#594a42;}</style></defs><title>lebaran</title><polygon class="cf57ee0c-847d-4fba-919f-063f5674d58b" points="206.1 183.3 205.7 183.7 160.7 154.6 186.5 206.1 206.1 206.1 206.1 183.3"/><rect class="733dc093-25aa-4933-9e02-e8b0dda22eb3" width="206.1" height="206.08"/><path class="1a393c00-16d0-4e4c-9635-55940fbe9e23" d="M44.7,146s7-8.2,4.4-28.9,2-25.6,13.8-7.3c8.4-17.9,41.6-68.4,32.3-9.1s-39.5,65.8-39.5,65.8Z"/><path class="1a393c00-16d0-4e4c-9635-55940fbe9e23" d="M160.7,150.9s-5.1-13.1-2.5-33.8-1.9-25.6-13.8-7.3c-8.4-17.9-41.6-68.4-32.3-9.1s39.6,65.8,39.6,65.8Z"/><path class="71de3a3b-4546-4567-9f36-2afdd1342504" d="M17.3,62.4a2.9,2.9,0,0,0,1.3,1.4,5.2,5.2,0,0,0,2,.8,10.9,10.9,0,0,0,2.6.3l2.9.2,2.9.3,2.7.7a9.5,9.5,0,0,1,2.4,1.4,6.7,6.7,0,0,1,1.6,2.3,12.9,12.9,0,0,1,.6,2.5,6.9,6.9,0,0,1-.4,2.5,8.8,8.8,0,0,1-1,2.2,11.2,11.2,0,0,1-1.7,2,17.1,17.1,0,0,1-4.6,3,12,12,0,0,1-3.7,1,10.9,10.9,0,0,1-3.6,0,8.1,8.1,0,0,1-3-1.3,7.8,7.8,0,0,1-2.2-2.8,5.7,5.7,0,0,1-.3-1.8,3.2,3.2,0,0,1,.2-1.4,3,3,0,0,1,.7-1.1,1.8,1.8,0,0,1,.8-.7h.9a.9.9,0,0,1,.6.7c.1.2.2.3.2.5s.1.5.1.7a1.9,1.9,0,0,1,.2.7l.3.9A4,4,0,0,0,21,78.9a4.8,4.8,0,0,0,1.8.7,4.6,4.6,0,0,0,2-.1l2.2-.6a10.9,10.9,0,0,0,2.3-1.4,6.6,6.6,0,0,0,1.9-1.8,6.7,6.7,0,0,0,1-2.1,3.7,3.7,0,0,0-.2-2.3,3.2,3.2,0,0,0-1.3-1.5,6.7,6.7,0,0,0-2.1-.9,11,11,0,0,0-2.7-.4l-2.8-.2-3-.3-2.7-.7a7.8,7.8,0,0,1-2.2-1.2A4.1,4.1,0,0,1,13.7,64a5.8,5.8,0,0,1-.5-2.6,7.6,7.6,0,0,1,.9-2.8,9.8,9.8,0,0,1,2.3-2.8,14.3,14.3,0,0,1,3.9-2.3,10.9,10.9,0,0,1,3.1-.8,10.6,10.6,0,0,1,3.1.2,6.8,6.8,0,0,1,2.6,1.2,4.6,4.6,0,0,1,1.7,2.2,6.1,6.1,0,0,1,.5,1.8,8.6,8.6,0,0,1-.2,2.2,4.7,4.7,0,0,1-.7,1.9,3.3,3.3,0,0,1-1.1,1h-.8a.9.9,0,0,1-.6-.6,3,3,0,0,1-.2-1,3.6,3.6,0,0,1,.1-1.4,7.1,7.1,0,0,0,.1-1.4l-.3-1.1a2,2,0,0,0-.9-1.1,2.5,2.5,0,0,0-1.5-.5,6.2,6.2,0,0,0-1.9.1A12.7,12.7,0,0,0,21,57a7.2,7.2,0,0,0-2.1,1.2l-1.3,1.4a4.4,4.4,0,0,0-.5,1.5A2.7,2.7,0,0,0,17.3,62.4Zm38.3,4.2a12.1,12.1,0,0,1-.5,1.4l-.9,1.7a8.6,8.6,0,0,1-1.3,1.4,2.4,2.4,0,0,1-1.5.9,2.2,2.2,0,0,1-1.8-.1,4.7,4.7,0,0,1-1.7-1.5,7.5,7.5,0,0,1-.7,1.2l-.9,1.1a4.8,4.8,0,0,1-1.1.9l-1.3.7a3.8,3.8,0,0,1-1.5.1,3,3,0,0,1-1.5-.5,5.3,5.3,0,0,1-1.2-1,5.6,5.6,0,0,1-.9-1.7,9.9,9.9,0,0,1-.3-2.4,9.9,9.9,0,0,1,.2-2.9,8.2,8.2,0,0,1,.7-2.8,9.1,9.1,0,0,1,1.1-2.2A6.5,6.5,0,0,1,42,59.1a5,5,0,0,1,1.9-1h.6l.4.2.4.3h.4c.1.1.2.1.4,0H48l.3.4a2.4,2.4,0,0,1,.3.7A7.5,7.5,0,0,1,49,61a12.3,12.3,0,0,0,.2,1.9,18,18,0,0,0,.2,2.2,6.2,6.2,0,0,0,.3,2.1,2.3,2.3,0,0,0,.5,1,.4.4,0,0,0,.6.2c.2,0,.4-.2.6-.3l.6-.6a3.5,3.5,0,0,0,.5-.8,4.1,4.1,0,0,0,.5-.9c.3-.7.6-1.4.9-2.3ZM42.5,69.4a1.9,1.9,0,0,0,.2.7l.4.6c.2.1.3.3.5.3h.7a1.3,1.3,0,0,0,.8-.8,2.8,2.8,0,0,0,.4-1.3,4.5,4.5,0,0,0,.1-1.6,4.9,4.9,0,0,0-.1-1.3l-.3-5.2a2.6,2.6,0,0,0-1.1.7,4.8,4.8,0,0,0-.9,1.1l-.6,1.5c-.1.5-.2,1.2-.3,1.9a14.2,14.2,0,0,0-.1,1.9A8,8,0,0,0,42.5,69.4Zm16.2.7a1.6,1.6,0,0,1-1.6-.3,6.4,6.4,0,0,1-1.7-1.6,9.3,9.3,0,0,1-1.5-2.6,12.1,12.1,0,0,1-1.1-3.2,18.9,18.9,0,0,1-.6-4.1c-.1-1.7-.1-2.6-.1-2.6V53.1a23.3,23.3,0,0,1,.4-4.3,25.5,25.5,0,0,1,.7-3.2,16.9,16.9,0,0,1,1.1-2.7A7.2,7.2,0,0,1,55.7,41a3.8,3.8,0,0,1,1.8-1.1,2.4,2.4,0,0,1,1.2,0,2.8,2.8,0,0,1,1.5,1.5,3.6,3.6,0,0,1,.4,1.1,13.6,13.6,0,0,1,.4,3c0,1-.1,2.1-.2,3.2a19.1,19.1,0,0,1-.6,3.3c-.3,1.2-.5,2.3-.8,3.4l-1,3.4c-.3,1-.6,2.1-.8,3.1s-.1.3-.1.5v2.1a1.1,1.1,0,0,0,.3.7,1.6,1.6,0,0,0,.3.6c.2.2.3.4.4.4l.3.2.6-.3.8-.6.7-.6.8-.8,1.7-2L65.6,65l-2.4,2.3-1,.9L61,69l-1.1.7Zm-2.9-12c.3-.9.5-2,.8-3.1s.5-2.3.7-3.5.3-2.4.4-3.5a31.1,31.1,0,0,0-.1-3.2,3.1,3.1,0,0,1-.2-.8c-.1-.2-.2-.3-.3-.2s-.5.3-.7.8a10.7,10.7,0,0,0-.6,1.7,21.2,21.2,0,0,0-.4,3.5,21.7,21.7,0,0,1-.1,2.4,17.6,17.6,0,0,1,.1,2.2A35,35,0,0,0,55.8,58.1Zm22.9,4.1L78,63.6l-1.1,1.5a8.6,8.6,0,0,1-1.4,1.3,3.7,3.7,0,0,1-1.6.7,2.2,2.2,0,0,1-1.8-.3,4.4,4.4,0,0,1-1.6-1.7l-.7,1.1-1.1,1-1.2.8a3.5,3.5,0,0,1-1.3.5H64.7a3.5,3.5,0,0,1-1.4-.6,7.4,7.4,0,0,1-1.2-1.3,4.9,4.9,0,0,1-.6-1.7,6.9,6.9,0,0,1-.1-2.5,11.1,11.1,0,0,1,.5-2.8,16.9,16.9,0,0,1,1-2.7,9.6,9.6,0,0,1,1.4-2.1A12.9,12.9,0,0,1,66,53.2a5,5,0,0,1,2-.8h.6l.4.3.3.3.3.2H72l.3.4a1.5,1.5,0,0,1,.2.8,7,7,0,0,1,.2,1.6v1.9a15.5,15.5,0,0,0-.1,2.2,12.2,12.2,0,0,0,.1,2.1,2.8,2.8,0,0,0,.4,1.1.6.6,0,0,0,.6.3l.6-.3a2,2,0,0,0,.7-.6l.6-.7a2.2,2.2,0,0,0,.5-.8A19.6,19.6,0,0,0,77.3,59ZM65.3,63.5a1.9,1.9,0,0,0,.2.7l.3.7.5.4q.2.2.6,0a1.1,1.1,0,0,0,.9-.7,2.6,2.6,0,0,0,.6-1.3l.3-1.5V60.5l.2-5.2a2.2,2.2,0,0,0-1.1.5,5.2,5.2,0,0,0-1,1.1,6.4,6.4,0,0,0-.8,1.4,7.8,7.8,0,0,0-.5,1.8,8.1,8.1,0,0,0-.3,1.9A7.6,7.6,0,0,0,65.3,63.5Zm18.6-.6V61.4a3.8,3.8,0,0,1,.1-1V59.3c0-.8.1-1.7.2-2.7h-.3a3.4,3.4,0,0,0-.3.8c-.2.3-.3.8-.6,1.4l-.8,2.5c-.4,1-.9,2.2-1.4,3.7a2.2,2.2,0,0,1-.7.9,1.2,1.2,0,0,1-.9.3,1.6,1.6,0,0,1-1-.1,2.3,2.3,0,0,1-.7-.7,3,3,0,0,1-.4-1,5.2,5.2,0,0,0-.2-1.1V59.9a19.3,19.3,0,0,1,.1-2.3,19.9,19.9,0,0,0,.2-2.2c.1-.6.1-1.2.2-1.7a10.5,10.5,0,0,0,.2-1.3,4.5,4.5,0,0,0,.2-.8,1.1,1.1,0,0,1,.3-.5.5.5,0,0,1,.4-.3h1.6l.5.2c.1,0,.2.2.2.4a1.5,1.5,0,0,1,.1.7,1.3,1.3,0,0,1,.1.6v1.6a2.8,2.8,0,0,1-.1.8,22.9,22.9,0,0,1-.2,2.5h.2l.3-.8c.2-.6.5-1.1.7-1.7s.5-1.1.8-1.7l.8-1.6.9-1.1a2.4,2.4,0,0,1,1.1-.6,2.1,2.1,0,0,1,1.2.3,1.7,1.7,0,0,1,.6,1v1.2a3.4,3.4,0,0,1-.1,1.1c0,.3-.1.6-.1,1a13.7,13.7,0,0,1-.2,1.6c-.1.1-.1.2-.1.4h0l.2.2.3-.9.8-1.6.8-1.7.9-1.6a4.4,4.4,0,0,1,.8-1.1,1.3,1.3,0,0,1,1-.6,1.9,1.9,0,0,1,1.3.3,1,1,0,0,1,.6,1,14.8,14.8,0,0,1,.1,2.1,17.7,17.7,0,0,1-.1,2.2,16.2,16.2,0,0,0-.1,2.1,14.8,14.8,0,0,0,.1,2.1,3.3,3.3,0,0,0,.4,1.3c.1.4.3.5.5.5l.7-.2.7-.4.7-.6.6-.7a8.3,8.3,0,0,0,1.3-1.8l.7,3.7-1.3,1.2a7.4,7.4,0,0,1-1.3,1.2,5.1,5.1,0,0,1-1.6.9,5.9,5.9,0,0,1-2,.5,1.2,1.2,0,0,1-1-.2,8.6,8.6,0,0,1-.7-1c-.2-.4-.3-.9-.5-1.4l-.3-1.9c0-.7-.1-1.4-.1-2.1V55.9H90l-2.3,8.3a2.1,2.1,0,0,1-.8,1l-1.1.4-.9-.2a1.8,1.8,0,0,1-.5-.7,4.6,4.6,0,0,1-.3-.9C84,63.5,84,63.2,83.9,62.9Zm23.8-19.4a5.2,5.2,0,0,1,.7-2.2,4.1,4.1,0,0,1,1.6-1.6,8.7,8.7,0,0,1,2.4-1,15.5,15.5,0,0,1,3.1-.6l3.6-.2H123l5.7.5a48.3,48.3,0,0,1,6.1,1,1.7,1.7,0,0,1,1.1.6.8.8,0,0,1,.2.8,1.7,1.7,0,0,1-.1.7l-.4.6-.6.4h-.7l-2.5-.2-2.7-.5-2.9-.5-3-.5c-.3,1.4-.6,2.7-1,4s-.8,2.7-1.3,4.1l-1.2,4.1c-.5,1.4-.9,2.7-1.3,3.9s-.7,2.4-1,3.5-.6,2-.9,2.8a3.6,3.6,0,0,1-.4.9,2.3,2.3,0,0,1-.7.7,1.8,1.8,0,0,1-.7.5h-.6a3.4,3.4,0,0,1-1.6-.4,2,2,0,0,1-.5-1.4c0-.2.1-.4.1-.7a27.6,27.6,0,0,0,.8-2.7l.9-2.9c.3-1,.7-2,1.1-3.1l1.4-3.6c.6-1.3,1.1-2.8,1.8-4.4l2-5.5h-3.4l-1.5.3-1.3.5a2,2,0,0,0-1,.7,1.5,1.5,0,0,0-.4,1.1V44a1.1,1.1,0,0,1-.3.7,1.6,1.6,0,0,1-.7.7,2.6,2.6,0,0,1-1.4.3,3.3,3.3,0,0,1-1.3-.4,2.3,2.3,0,0,1-.7-.7A3.5,3.5,0,0,1,107.7,43.5Zm20.5,22.2a6.1,6.1,0,0,1-2.5-.8,5.5,5.5,0,0,1-1.7-1.7,6.3,6.3,0,0,1-.9-2.2,10.3,10.3,0,0,1-.1-2.5,8.9,8.9,0,0,1,.6-2l.9-2.1a8.6,8.6,0,0,1,1-1.6,6.2,6.2,0,0,1,1.4-1.4,5.3,5.3,0,0,1,1.7-.8,4.3,4.3,0,0,1,2-.2,3.7,3.7,0,0,1,1.5.4l1.3.9a6.1,6.1,0,0,1,.7,1.4,2.9,2.9,0,0,1,.1,1.6,3.7,3.7,0,0,1-.8,2,7.9,7.9,0,0,1-1.7,1.9,10.7,10.7,0,0,1-2.1,1.3,11.1,11.1,0,0,1-2.6.7l.3.8.5.4c.1.2.3.2.4.3h.6a6.9,6.9,0,0,0,2-.1l2.1-.7,2-1.1,1.6-1,1.8,2.2a21.3,21.3,0,0,1-3.2,2.3l-1.5.8-1.7.7a10.8,10.8,0,0,1-1.9.3Zm-1.3-7.6,1.2-.2a3.1,3.1,0,0,0,1.3-.6,4,4,0,0,0,1.2-1.1,1.6,1.6,0,0,0,.7-1.1,2.3,2.3,0,0,0-.1-1.2c-.2-.3-.4-.5-.6-.5h-1.2a2.4,2.4,0,0,0-.8.6,1.6,1.6,0,0,0-.6.8,6.7,6.7,0,0,0-.6,1.2,3.4,3.4,0,0,0-.4,1.2A2.2,2.2,0,0,0,126.9,58.1Zm14.3,6.5a4.3,4.3,0,0,0,.1-.5l.3-.8.3-1,.3-1.1.9-2.5h-.2l-.5.6-1,1.3-1.5,2.1-2.3,3.2a1.8,1.8,0,0,1-.9.7h-.9a1.3,1.3,0,0,1-1-.4,2.2,2.2,0,0,1-.5-.8,3.7,3.7,0,0,1-.1-1.1c.1-.3.1-.7.2-1.1a9.9,9.9,0,0,1,.3-1.5,12.1,12.1,0,0,0,.5-1.8l.8-2.1.8-2.1c.2-.6.5-1.1.7-1.6l.5-1.2.5-.7a.8.8,0,0,1,.4-.4l.4-.2h.7l.9.2c.2.1.4.2.4.3a.5.5,0,0,1,.2.4c-.1.2-.1.5-.2.8a1.3,1.3,0,0,1-.1.6,1.9,1.9,0,0,1-.2.7c-.1.3-.1.5-.2.8l-.3.8c-.3.7-.6,1.4-.9,2.3l.2.2a5.9,5.9,0,0,1,.5-.8l1.1-1.4,1.3-1.4,1.2-1.3,1.1-.9a2.7,2.7,0,0,1,1.3-.2,1.7,1.7,0,0,1,1,.6,1.2,1.2,0,0,1,.3,1.2l-.3,1.1a3.4,3.4,0,0,1-.4,1l-.4,1-.6,1.4-.2.4c0,.1,0,.1-.1.1l.2.3.6-.8,1.1-1.3,1.3-1.5,1.3-1.3,1-.8a1.4,1.4,0,0,1,1.2-.3,2.3,2.3,0,0,1,1.2.6,2.1,2.1,0,0,1,.3,1.2c-.2.7-.3,1.4-.5,2s-.4,1.3-.7,2.1-.5,1.4-.7,2a14.6,14.6,0,0,0-.5,2,3.2,3.2,0,0,0,0,1.4.7.7,0,0,0,.4.7h.7l.8-.3.8-.3.8-.5,1.8-1.4-.4,3.7-1.6.9-1.6.7-1.7.5a7.4,7.4,0,0,1-2.1-.1,1.3,1.3,0,0,1-.9-.5,3.6,3.6,0,0,1-.4-1.1,8.1,8.1,0,0,1-.1-1.6,14.8,14.8,0,0,1,.3-1.9,17.7,17.7,0,0,1,.4-2l.6-2.2H149L144.4,67a2,2,0,0,1-1,.7h-1.2a.8.8,0,0,1-.7-.4,2.5,2.5,0,0,1-.4-.7v-1A3.8,3.8,0,0,1,141.2,64.6Zm19.6,4.3a15.5,15.5,0,0,0,2.9.4,10.1,10.1,0,0,0,2.5-.2,7.3,7.3,0,0,0,2.1-.6,11.8,11.8,0,0,0,1.9-1.1l-.7,3.4a6,6,0,0,1-1.5.9l-1.8.7-1.9.2a5.8,5.8,0,0,1-1.9-.2h-.2l-.5-.3-1.1-.5-1.9-.8v.2a16.6,16.6,0,0,1-1.8,4.9,13.3,13.3,0,0,1-2.3,3.5,7.1,7.1,0,0,1-2.4,2,3.4,3.4,0,0,1-2.4.3,2.4,2.4,0,0,1-1.3-.8,3.5,3.5,0,0,1-.6-1.4,5.4,5.4,0,0,1,0-1.8,7.8,7.8,0,0,1,.4-2.1,12.1,12.1,0,0,1,.5-1.4l1-1.5,1.2-1.5a10,10,0,0,1,1.3-1.5l3.4-3.5c.3-.7.7-1.4,1-2.2a15.1,15.1,0,0,1,1.1-2.2,10.7,10.7,0,0,1,1.5-2.2,6.8,6.8,0,0,1,1.7-1.7,6.6,6.6,0,0,1,1.9-.9,6.5,6.5,0,0,1,2.3.2,4.6,4.6,0,0,1,1.6.7,3.4,3.4,0,0,1,1.2,1.2,4.3,4.3,0,0,1,.6,1.7,6.1,6.1,0,0,1-.3,2.2,4.1,4.1,0,0,1-.9,2.1,5.5,5.5,0,0,1-1.7,1.7,10.3,10.3,0,0,1-2.1,1.1,7.7,7.7,0,0,1-2.7.7ZM151,76.5a1,1,0,0,0-.1.4,1.1,1.1,0,0,0,.1.5,1.4,1.4,0,0,0,.2.6c0,.2.2.3.4.3s.3,0,.5-.1a4.3,4.3,0,0,0,.4-.7l.5-1a5.6,5.6,0,0,1,.4-1.2l.3-1.2.3-1a12.1,12.1,0,0,0,.5-1.4,9.4,9.4,0,0,1,.3-.9,6.4,6.4,0,0,1,.2-.7l-.9,1-.8,1.2-.9,1.3a4.7,4.7,0,0,1-.7,1.2,4.6,4.6,0,0,1-.5,1A2.5,2.5,0,0,0,151,76.5Zm8.3-9.6a4.8,4.8,0,0,0,1.8-.6,7.1,7.1,0,0,0,1.5-.8l1.3-1.1a15.9,15.9,0,0,0,1.1-1.6l.3-.7c0-.3.1-.6.1-.8a1.9,1.9,0,0,0-.2-.8,1.8,1.8,0,0,0-.7-.5,1.4,1.4,0,0,0-1.1.1,1.8,1.8,0,0,0-.9.6,5.3,5.3,0,0,0-.9,1.1c-.2.4-.6.9-.9,1.6a7.6,7.6,0,0,0-.9,1.8C159.6,65.7,159.5,66.3,159.3,66.9Zm12.1,8.3a5.8,5.8,0,0,1-2.3-1.3,4.7,4.7,0,0,1-1.2-1.9,6.4,6.4,0,0,1-.4-2.4,11.8,11.8,0,0,1,.4-2.5,8.5,8.5,0,0,1,1-1.8,14,14,0,0,1,1.3-1.8,9.3,9.3,0,0,1,1.4-1.4,5.7,5.7,0,0,1,1.6-1.1,5.8,5.8,0,0,1,1.8-.4,4.6,4.6,0,0,1,2,.2,5.3,5.3,0,0,1,1.5.8,4,4,0,0,1,1,1.2,3.3,3.3,0,0,1,.4,1.4,3,3,0,0,1-.2,1.6,4.1,4.1,0,0,1-1.3,1.8,9.5,9.5,0,0,1-2,1.5,13.5,13.5,0,0,1-2.4.8,12.3,12.3,0,0,1-2.7.2l.2.8.3.5.4.4.5.2a6.4,6.4,0,0,0,2,.3,7.8,7.8,0,0,0,2.2-.3l2.2-.5,1.8-.7,1.2,2.5a15.8,15.8,0,0,1-3.5,1.6l-1.7.4a5.7,5.7,0,0,1-1.8.3,6,6,0,0,1-1.9,0A5.8,5.8,0,0,1,171.4,75.2Zm.4-7.7a2.3,2.3,0,0,0,1.2.1,3.2,3.2,0,0,0,1.4-.3,6.6,6.6,0,0,0,1.5-.7,2.6,2.6,0,0,0,.9-1,5.7,5.7,0,0,0,.1-1.2,1,1,0,0,0-.5-.6,1.7,1.7,0,0,0-1.2-.1,1.6,1.6,0,0,0-.9.3,2.7,2.7,0,0,0-.8.7l-.8,1-.7,1.1A2.5,2.5,0,0,0,171.8,67.5Zm8.8,11.1a2.2,2.2,0,0,1-1.2-1.3,6.5,6.5,0,0,1-.5-2.2,16.9,16.9,0,0,1,.3-3,13.5,13.5,0,0,1,.9-3.3,18.6,18.6,0,0,1,1.9-3.7l1.3-2.2,1.5-2.1a29.9,29.9,0,0,1,2.8-3.4,22.5,22.5,0,0,1,2.4-2.1,11.1,11.1,0,0,1,2.4-1.6,7.9,7.9,0,0,1,2.3-.8,3.4,3.4,0,0,1,2,.1,1.9,1.9,0,0,1,1.5,1.7v1.1l-.3,1.1c-.4.9-.9,1.8-1.4,2.7l-2,2.5-2.4,2.4-2.6,2.3L186.8,69l-2.5,2.2-.3.3-.3.5a1,1,0,0,0-.4.5l-.4.5v.3a1.9,1.9,0,0,0-.2.7,2.2,2.2,0,0,0-.1.8.7.7,0,0,0,.1.5c0,.1.1.2.2.3h1.6l1-.2,1-.2,2.5-.6.2,3.5a21,21,0,0,1-3.3.6h-4.2ZM185,67a22.5,22.5,0,0,0,2.4-2.1,30.7,30.7,0,0,0,2.6-2.5l2.3-2.7a16.4,16.4,0,0,0,1.7-2.6,4.1,4.1,0,0,0,.3-.8q.1-.3,0-.3a1.2,1.2,0,0,0-1.1.2l-1.5,1.1c-.5.6-1.3,1.4-2.3,2.7L188,61.9l-1.2,1.8Z"/><path class="d167ff61-62fb-4557-8001-6cc837f241a0" d="M0,176.1v25.4c19.1-5.6,39.3-10.2,46.8-60.9C35.6,161.9,16,171.7,0,176.1Z"/><path class="607771a8-6b6d-43ec-8386-ef089214e334" d="M47.3,139.1C36.9,169,19,189.2,0,195.2v10.9H50.4c16.3-26.6,20.8-50,20.8-50S73,148,47.3,139.1Z"/><path class="cf68c7d5-6cf5-4376-98c2-e9fe9a5ad32e" d="M206.1,202.9l-45.4-52-21.4,6.3a499.2,499.2,0,0,0,17,48.9h49.8Z"/></svg>