<svg width="146" height="28" viewBox="0 0 146 28" fill="none" xmlns="http://www.w3.org/2000/svg">
<rect width="146" height="28" rx="12" fill="url(#paint0_linear_544_5096)" fill-opacity="0.15"/>
<path d="M55.816 18V9.6H59.188C60.06 9.6 60.724 9.804 61.18 10.212C61.644 10.612 61.876 11.128 61.876 11.76C61.876 12.288 61.732 12.712 61.444 13.032C61.164 13.344 60.82 13.556 60.412 13.668C60.892 13.764 61.288 14.004 61.6 14.388C61.912 14.764 62.068 15.204 62.068 15.708C62.068 16.372 61.828 16.92 61.348 17.352C60.868 17.784 60.188 18 59.308 18H55.816ZM57.352 13.128H58.96C59.392 13.128 59.724 13.028 59.956 12.828C60.188 12.628 60.304 12.344 60.304 11.976C60.304 11.624 60.188 11.348 59.956 11.148C59.732 10.94 59.392 10.836 58.936 10.836H57.352V13.128ZM57.352 16.752H59.068C59.524 16.752 59.876 16.648 60.124 16.44C60.38 16.224 60.508 15.924 60.508 15.54C60.508 15.148 60.376 14.84 60.112 14.616C59.848 14.392 59.492 14.28 59.044 14.28H57.352V16.752ZM65.4023 18.144C64.8903 18.144 64.4703 18.064 64.1423 17.904C63.8143 17.736 63.5703 17.516 63.4103 17.244C63.2503 16.972 63.1703 16.672 63.1703 16.344C63.1703 15.792 63.3863 15.344 63.8183 15C64.2503 14.656 64.8983 14.484 65.7623 14.484H67.2743V14.34C67.2743 13.932 67.1583 13.632 66.9263 13.44C66.6943 13.248 66.4063 13.152 66.0623 13.152C65.7503 13.152 65.4783 13.228 65.2463 13.38C65.0143 13.524 64.8703 13.74 64.8143 14.028H63.3143C63.3543 13.596 63.4983 13.22 63.7463 12.9C64.0023 12.58 64.3303 12.336 64.7303 12.168C65.1303 11.992 65.5783 11.904 66.0743 11.904C66.9223 11.904 67.5903 12.116 68.0783 12.54C68.5663 12.964 68.8103 13.564 68.8103 14.34V18H67.5023L67.3583 17.04C67.1823 17.36 66.9343 17.624 66.6143 17.832C66.3023 18.04 65.8983 18.144 65.4023 18.144ZM65.7503 16.944C66.1903 16.944 66.5303 16.8 66.7703 16.512C67.0183 16.224 67.1743 15.868 67.2383 15.444H65.9303C65.5223 15.444 65.2303 15.52 65.0543 15.672C64.8783 15.816 64.7903 15.996 64.7903 16.212C64.7903 16.444 64.8783 16.624 65.0543 16.752C65.2303 16.88 65.4623 16.944 65.7503 16.944ZM72.8461 18C72.2221 18 71.7221 17.848 71.3461 17.544C70.9701 17.24 70.7821 16.7 70.7821 15.924V13.332H69.7621V12.048H70.7821L70.9621 10.452H72.3181V12.048H73.9261V13.332H72.3181V15.936C72.3181 16.224 72.3781 16.424 72.4981 16.536C72.6261 16.64 72.8421 16.692 73.1461 16.692H73.8901V18H72.8461ZM77.2968 18.144C76.7848 18.144 76.3648 18.064 76.0368 17.904C75.7088 17.736 75.4648 17.516 75.3048 17.244C75.1448 16.972 75.0648 16.672 75.0648 16.344C75.0648 15.792 75.2808 15.344 75.7128 15C76.1448 14.656 76.7928 14.484 77.6568 14.484H79.1688V14.34C79.1688 13.932 79.0528 13.632 78.8208 13.44C78.5888 13.248 78.3008 13.152 77.9568 13.152C77.6448 13.152 77.3728 13.228 77.1408 13.38C76.9088 13.524 76.7648 13.74 76.7088 14.028H75.2088C75.2488 13.596 75.3928 13.22 75.6408 12.9C75.8968 12.58 76.2248 12.336 76.6248 12.168C77.0248 11.992 77.4728 11.904 77.9688 11.904C78.8168 11.904 79.4848 12.116 79.9728 12.54C80.4608 12.964 80.7048 13.564 80.7048 14.34V18H79.3968L79.2528 17.04C79.0768 17.36 78.8288 17.624 78.5088 17.832C78.1968 18.04 77.7928 18.144 77.2968 18.144ZM77.6448 16.944C78.0848 16.944 78.4248 16.8 78.6648 16.512C78.9128 16.224 79.0688 15.868 79.1328 15.444H77.8248C77.4168 15.444 77.1248 15.52 76.9488 15.672C76.7728 15.816 76.6848 15.996 76.6848 16.212C76.6848 16.444 76.7728 16.624 76.9488 16.752C77.1248 16.88 77.3568 16.944 77.6448 16.944ZM82.1706 18V9.36H83.7066V18H82.1706ZM85.2761 18V9.36H86.8121V14.46L88.9241 12.048H90.7481L88.3121 14.76L91.1441 18H89.2241L86.8121 15.012V18H85.2761ZM93.9492 18.144C93.4372 18.144 93.0172 18.064 92.6892 17.904C92.3612 17.736 92.1172 17.516 91.9572 17.244C91.7972 16.972 91.7172 16.672 91.7172 16.344C91.7172 15.792 91.9332 15.344 92.3652 15C92.7972 14.656 93.4452 14.484 94.3092 14.484H95.8212V14.34C95.8212 13.932 95.7052 13.632 95.4732 13.44C95.2412 13.248 94.9532 13.152 94.6092 13.152C94.2972 13.152 94.0252 13.228 93.7932 13.38C93.5612 13.524 93.4172 13.74 93.3612 14.028H91.8612C91.9012 13.596 92.0452 13.22 92.2932 12.9C92.5492 12.58 92.8772 12.336 93.2772 12.168C93.6772 11.992 94.1252 11.904 94.6212 11.904C95.4692 11.904 96.1372 12.116 96.6252 12.54C97.1132 12.964 97.3572 13.564 97.3572 14.34V18H96.0492L95.9052 17.04C95.7292 17.36 95.4812 17.624 95.1612 17.832C94.8492 18.04 94.4452 18.144 93.9492 18.144ZM94.2972 16.944C94.7372 16.944 95.0772 16.8 95.3172 16.512C95.5652 16.224 95.7212 15.868 95.7852 15.444H94.4772C94.0692 15.444 93.7772 15.52 93.6012 15.672C93.4252 15.816 93.3372 15.996 93.3372 16.212C93.3372 16.444 93.4252 16.624 93.6012 16.752C93.7772 16.88 94.0092 16.944 94.2972 16.944ZM98.823 18V12.048H100.179L100.299 13.056C100.483 12.704 100.747 12.424 101.091 12.216C101.443 12.008 101.855 11.904 102.327 11.904C103.063 11.904 103.635 12.136 104.043 12.6C104.451 13.064 104.655 13.744 104.655 14.64V18H103.119V14.784C103.119 14.272 103.015 13.88 102.807 13.608C102.599 13.336 102.275 13.2 101.835 13.2C101.403 13.2 101.047 13.352 100.767 13.656C100.495 13.96 100.359 14.384 100.359 14.928V18H98.823Z" fill="#FA9D1C"/>
<path d="M39.349 16.651L44.6523 11.3477" stroke="#FA9D1C" stroke-width="1.5" stroke-linecap="round"/>
<path d="M39.349 11.349L44.6523 16.6523" stroke="#FA9D1C" stroke-width="1.5" stroke-linecap="round"/>
<defs>
<linearGradient id="paint0_linear_544_5096" x1="0" y1="14" x2="146" y2="14" gradientUnits="userSpaceOnUse">
<stop stop-color="#FA9D1C"/>
<stop offset="1" stop-color="#FA9D1C"/>
</linearGradient>
</defs>
</svg>
