<svg width="96" height="96" viewBox="0 0 96 96" fill="none" xmlns="http://www.w3.org/2000/svg">
<path d="M62.3006 87.9C62.3006 87.9 70.6006 87.9 75.6006 87.9C80.6006 87.9 87.2006 87 91.1006 75.8C95.0006 64.6 90.8006 52.8 83.5006 49.6C76.2006 46.4 71.6006 47.9 68.5006 41C65.5006 34.2 59.8006 24.7 46.4006 27.2C33.0006 29.7 32.2006 21.3 25.1006 21.2C18.0006 21.2 10.6006 26 10.9006 32.8C11.2006 39.6 12.7006 45.7 11.6006 49.6C9.6006 56.6 1.7006 61 2.1006 72.2C2.2006 76.3 4.1006 87.9 17.3006 87.9C26.8006 87.9 39.4006 89 62.3006 87.9Z" fill="#D3E9FE"/>
<path d="M66.6031 27.2H65.7031V16.7H66.6031C67.2031 16.7 67.8031 17.2 67.8031 17.9V26.1C67.8031 26.7 67.3031 27.2 66.6031 27.2Z" fill="#505154"/>
<path d="M66.6031 39.8H65.7031V29.3H66.6031C67.2031 29.3 67.8031 29.8 67.8031 30.5V38.7C67.8031 39.3 67.3031 39.8 66.6031 39.8Z" fill="#505154"/>
<path d="M25.1023 31.9H26.0023V21.3H25.1023C24.5023 21.3 23.9023 21.8 23.9023 22.5V30.7C24.0023 31.4 24.5023 31.9 25.1023 31.9Z" fill="#505154"/>
<path d="M62.3031 87.9H29.5031C27.1031 87.9 25.2031 86 25.2031 83.6V10C25.2031 7.60001 27.1031 5.70001 29.5031 5.70001H62.3031C64.7031 5.70001 66.6031 7.60001 66.6031 10V83.6C66.6031 86 64.7031 87.9 62.3031 87.9Z" fill="#D3E9FE"/>
<path d="M62.3031 87.9H29.5031C27.1031 87.9 25.2031 86 25.2031 83.6V10C25.2031 7.60001 27.1031 5.70001 29.5031 5.70001H62.3031C64.7031 5.70001 66.6031 7.60001 66.6031 10V83.6C66.6031 86 64.7031 87.9 62.3031 87.9Z" fill="#A1A1A1"/>
<path d="M29.4047 7.70001C28.2047 7.70001 27.3047 8.70001 27.3047 9.90001V83.4C27.3047 84.6 28.3047 85.6 29.4047 85.6H62.3047C63.5047 85.6 64.4047 84.6 64.4047 83.4V9.90001C64.4047 8.70001 63.4047 7.70001 62.3047 7.70001H29.4047Z" fill="white"/>
<path d="M51.5031 13.2H40.3031C39.7031 13.2 39.2031 12.7 39.2031 12C39.2031 11.4 39.7031 10.8 40.3031 10.8H51.4031C52.0031 10.8 52.5031 11.3 52.5031 12C52.6031 12.6 52.1031 13.2 51.5031 13.2Z" fill="#858783"/>
<path d="M45.5031 26.2H42.3031L39.2031 33.4H42.3031L43.9031 29.9L45.5031 26.2Z" fill="#FFC20E"/>
<path d="M50.5008 26.2H47.3008L48.9008 29.9L50.4008 33.4H53.5008L50.5008 26.2Z" fill="#505154"/>
<path d="M47.8023 31.9C47.8023 31.8 47.8023 31.8 47.8023 31.8V31.7C47.8023 31.7 47.8023 31.7 47.8023 31.6C47.8023 31.4 47.7023 31.3 47.6023 31.1C47.5023 30.8 47.3023 30.5 47.2023 30.2L46.4023 28.3L45.5023 30.2C45.4023 30.5 45.2023 30.8 45.1023 31.1C45.0023 31.3 45.0023 31.4 44.9023 31.6C44.9023 31.6 44.9023 31.6 44.9023 31.7V31.8V31.9C44.9023 31.9 44.9023 31.9 44.9023 32V32.1C44.9023 32.1 44.9023 32.1 44.9023 32.2C44.9023 32.3 44.9023 32.3 44.9023 32.4L45.0023 32.7L45.1023 32.8C45.1023 32.8 45.1023 32.8 45.1023 32.9C45.1023 32.9 45.1023 32.9 45.2023 33C45.2023 33 45.2023 33 45.3023 33.1C45.3023 33.1 45.3023 33.1 45.4023 33.2C45.4023 33.2 45.4023 33.2 45.5023 33.3C45.5023 33.3 45.5023 33.3 45.6023 33.3H45.7023H45.8023H45.9023H46.0023H46.1023H46.2023H46.3023H46.4023H46.5023H46.6023H46.7023H46.8023H46.9023H47.0023C47.0023 33.3 47.0023 33.3 47.1023 33.3C47.1023 33.3 47.1023 33.3 47.2023 33.2C47.2023 33.2 47.2023 33.2 47.3023 33.1C47.3023 33.1 47.3023 33.1 47.4023 33C47.4023 33 47.4023 33 47.5023 32.9C47.5023 32.9 47.5023 32.9 47.5023 32.8C47.5023 32.8 47.5023 32.8 47.5023 32.7C47.5023 32.7 47.5023 32.7 47.5023 32.6L47.6023 32.4C47.6023 32.3 47.6023 32.3 47.6023 32.2C47.6023 32.2 47.6023 32.2 47.6023 32.1C47.8023 32 47.8023 32 47.8023 31.9Z" fill="#E05826"/>
<path d="M45.5008 26.2L43.8008 29.9L44.5008 31.6L44.8008 32.3C44.8008 32.2 44.8008 32.2 44.8008 32.1C44.8008 32.1 44.8008 32.1 44.8008 32V31.9C44.8008 31.9 44.8008 31.9 44.8008 31.8V31.7V31.6C44.8008 31.6 44.8008 31.6 44.8008 31.5C44.8008 31.3 44.9008 31.2 45.0008 31C45.1008 30.7 45.3008 30.4 45.4008 30.2L46.3008 28.2L45.5008 26.2Z" fill="#F89A59"/>
<path d="M47.3023 26.2L48.9023 29.9L48.1023 31.6L47.8023 32.3C47.8023 32.2 47.8023 32.2 47.8023 32.1C47.8023 32.1 47.8023 32.1 47.8023 32V31.9C47.8023 31.9 47.8023 31.9 47.8023 31.8V31.7V31.6C47.8023 31.6 47.8023 31.6 47.8023 31.5C47.8023 31.3 47.7023 31.2 47.6023 31C47.5023 30.7 47.3023 30.4 47.2023 30.1L46.4023 28.1L47.3023 26.2Z" fill="#848689"/>
<path d="M42.1031 37.5C41.8031 37.5 41.6031 37.4 41.5031 37.3C41.3031 37.2 41.2031 37 41.2031 36.8H41.6031C41.6031 36.9 41.7031 37 41.8031 37C41.9031 37.1 42.0031 37.1 42.1031 37.1C42.2031 37.1 42.3031 37.1 42.4031 37C42.5031 36.9 42.5031 36.9 42.5031 36.8C42.5031 36.7 42.5031 36.6 42.4031 36.6C42.3031 36.6 42.2031 36.5 42.1031 36.5C42.0031 36.5 41.9031 36.4 41.8031 36.4C41.7031 36.4 41.6031 36.3 41.5031 36.2C41.4031 36.1 41.4031 36 41.4031 35.9C41.4031 35.7 41.5031 35.6 41.6031 35.5C41.7031 35.4 41.9031 35.3 42.2031 35.3C42.4031 35.3 42.6031 35.4 42.7031 35.5C42.8031 35.6 42.9031 35.8 42.9031 36H42.5031C42.5031 35.9 42.4031 35.8 42.4031 35.8C42.3031 35.7 42.2031 35.7 42.1031 35.7C42.0031 35.7 41.9031 35.7 41.8031 35.8C41.7031 35.8 41.7031 35.9 41.7031 36C41.7031 36.1 41.7031 36.1 41.8031 36.2C41.9031 36.2 42.0031 36.3 42.1031 36.3C42.2031 36.3 42.4031 36.4 42.5031 36.4C42.6031 36.4 42.7031 36.5 42.8031 36.6C42.9031 36.7 42.9031 36.8 42.9031 36.9C42.9031 37.1 42.8031 37.2 42.7031 37.4C42.6031 37.5 42.4031 37.5 42.1031 37.5ZM43.5031 37.5V35.4H43.9031V35.7C44.0031 35.6 44.1031 35.5 44.2031 35.5C44.3031 35.4 44.4031 35.4 44.6031 35.4C44.9031 35.4 45.1031 35.5 45.3031 35.8C45.4031 35.7 45.5031 35.6 45.6031 35.5C45.7031 35.4 45.9031 35.4 46.0031 35.4C46.3031 35.4 46.5031 35.5 46.6031 35.6C46.7031 35.8 46.8031 36 46.8031 36.3V37.5H46.4031V36.4C46.4031 36 46.3031 35.8 46.0031 35.8C45.8031 35.8 45.7031 35.9 45.6031 36C45.5031 36.1 45.5031 36.3 45.5031 36.5V37.6H45.1031V36.5C45.1031 36.1 45.0031 35.9 44.7031 35.9C44.6031 35.9 44.4031 36 44.3031 36.1C44.2031 36.2 44.2031 36.4 44.2031 36.6V37.7L43.5031 37.5ZM47.5031 35.1C47.4031 35.1 47.4031 35.1 47.3031 35C47.2031 34.9 47.2031 34.9 47.2031 34.8C47.2031 34.7 47.2031 34.7 47.3031 34.6C47.4031 34.5 47.4031 34.5 47.5031 34.5C47.6031 34.5 47.6031 34.5 47.7031 34.6C47.8031 34.7 47.8031 34.7 47.8031 34.8C47.8031 34.9 47.8031 34.9 47.7031 35C47.7031 35.1 47.6031 35.1 47.5031 35.1ZM47.3031 37.5V35.4H47.7031V37.5H47.3031ZM48.3031 37.6V34.6H48.7031V37.6H48.3031ZM50.3031 37.6C50.1031 37.6 49.9031 37.6 49.8031 37.5C49.6031 37.4 49.5031 37.3 49.4031 37.1C49.3031 36.9 49.3031 36.7 49.3031 36.5C49.3031 36.3 49.3031 36.1 49.4031 35.9C49.5031 35.7 49.6031 35.6 49.8031 35.5C50.0031 35.4 50.1031 35.4 50.3031 35.4C50.5031 35.4 50.7031 35.4 50.8031 35.5C50.9031 35.6 51.1031 35.7 51.1031 35.9C51.2031 36.1 51.2031 36.2 51.2031 36.4V36.5V36.6H49.6031C49.6031 36.8 49.7031 37 49.8031 37.1C49.9031 37.2 50.1031 37.3 50.2031 37.3C50.3031 37.3 50.4031 37.3 50.5031 37.2C50.6031 37.1 50.6031 37.1 50.7031 37H51.1031C51.0031 37.2 50.9031 37.4 50.8031 37.5C50.8031 37.6 50.6031 37.6 50.3031 37.6ZM50.3031 35.8C50.2031 35.8 50.0031 35.8 49.9031 35.9C49.8031 36 49.7031 36.1 49.7031 36.3H50.8031C50.8031 36.1 50.7031 36 50.6031 35.9C50.5031 35.8 50.5031 35.8 50.3031 35.8Z" fill="#636466"/>
<path d="M60.1008 43.1V60.1C60.1008 60.6 59.7008 61.1 59.2008 61.1H32.2008C31.7008 61.1 31.3008 60.7 31.3008 60.1V43.1C31.3008 42.6 31.7008 42.1 32.2008 42.1H59.2008C59.7008 42.2 60.1008 42.6 60.1008 43.1Z" fill="#231F20"/>
<path d="M60.1004 55.6V58.9C59.5004 59 58.6004 59.1 57.6004 59C55.5004 58.8 53.2004 56 52.5004 53.7C51.9004 51.3 51.4004 49.2 53.1004 46.2C54.6004 43.6 56.4004 43.1 56.5004 43.1C56.5004 43.1 54.4004 46.4 56.0004 51C56.9004 53.6 58.7004 54.9 60.1004 55.6Z" fill="#D6D5D5"/>
<path d="M49.1016 47.3C49.1016 47.3 50.4016 45.3 53.1016 46.1C55.7016 43.5 56.5016 43 56.5016 43C56.5016 43 54.0016 42.3 52.0016 44.2C50.0016 46 49.1016 47.3 49.1016 47.3Z" fill="#BCBCBD"/>
<path d="M52 44.2C52.2 44 51.1 45 51.1 47C51.2 49 52.7 56.4 50.6 58.9C47 57.3 47 54.1 47 54.1C47 54.1 47.8 53 47.8 51.9C47.8 50.8 47.5 49.1 48.2 47.8C48.8 47 51.8 44.4 52 44.2Z" fill="#F9F9F8"/>
<path d="M43.6 45.3C43.6 45.3 45.4 45.8 46.3 47.4C47.2 48.9 48.4 53.6 48.7 54.6C49 55.6 49.9 58.2 50.7 58.9C50.4 59.3 49.8 59.9 49.1 60C48.4 60.1 47 59.4 46.2 58.5C45.5 57.6 44.5 56.2 43.6 53.8C42.7 51.4 41.5 45.9 40.5 45.1C41.6 44.6 43.6 45.3 43.6 45.3Z" fill="#D6D5D5"/>
<path d="M33.3008 44.4001C33.3008 44.4001 34.9008 43.2 37.5008 43.3C38.7008 43.4 40.8008 44.3 43.5008 45.2C41.2008 44.9 39.6008 45.4 38.0008 46.7C35.0008 45.3 33.3008 44.4001 33.3008 44.4001Z" fill="#BCBCBD"/>
<path d="M40.9008 61H33.6008C35.0008 60 36.9008 58.2 37.3008 55.3C38.1008 50.3 35.9008 46.1 33.3008 44.4C33.3008 44.4 37.1008 45.3 38.7008 46.3C38.7008 46.3 38.8008 46.3 38.8008 46.4C40.6008 47.8 42.7008 50.2 42.9008 55.1C43.0008 57.4 42.0008 59.5 40.9008 61Z" fill="#D6D5D5"/>
<path d="M56.0023 46.3L55.8023 46.7001L55.6023 46.3H55.4023V47.2001H55.6023V46.8L55.7023 47C55.7023 47 55.7023 47 55.8023 47H55.9023L56.0023 46.8V47.2001H56.2023V46.3H56.0023Z" fill="white"/>
<path d="M56.4023 47.1V46.2H57.0023V46.4H56.6023V46.5H56.9023V46.7H56.6023V46.9H57.0023V47.1H56.4023Z" fill="white"/>
<path d="M57.7016 47C57.6016 47.1 57.5016 47.1 57.4016 47.1C57.3016 47.1 57.2016 47.1 57.2016 47C57.1016 46.9 57.1016 46.8 57.1016 46.6C57.1016 46.5 57.1016 46.3 57.2016 46.2C57.3016 46.1 57.3016 46.1 57.4016 46.1C57.6016 46.1 57.7016 46.2 57.7016 46.4H57.5016C57.5016 46.3 57.4016 46.3 57.4016 46.3H57.3016C57.3016 46.3 57.3016 46.4 57.3016 46.5C57.3016 46.7 57.3016 46.7 57.3016 46.7C57.3016 46.7 57.3016 46.7 57.4016 46.7H57.5016V46.6H57.4016V46.4H57.7016V46.5C57.8016 46.9 57.8016 47 57.7016 47Z" fill="white"/>
<path d="M58.3008 46.3H58.1008L57.8008 47.2001H58.0008V47.1H58.3008V47.2001H58.5008L58.3008 46.3ZM58.2008 46.8L58.3008 46.5L58.4008 46.8H58.2008Z" fill="white"/>
<path d="M52.6008 47.1H52.3008V46.2H52.6008C52.8008 46.2 52.9008 46.3 52.9008 46.4C52.9008 46.5 52.8008 46.6 52.8008 46.6C52.9008 46.6 52.9008 46.7 52.9008 46.8C52.9008 47 52.8008 47.1 52.6008 47.1ZM52.6008 46.3H52.4008V46.6H52.6008C52.7008 46.6 52.8008 46.6 52.8008 46.4C52.8008 46.4 52.7008 46.3 52.6008 46.3ZM52.6008 46.7H52.4008V47H52.6008C52.7008 47 52.8008 46.9 52.8008 46.8C52.8008 46.8 52.7008 46.7 52.6008 46.7Z" fill="white"/>
<path d="M53.6023 47.1L53.5023 46.9H53.1023L53.0023 47.1H52.9023L53.2023 46.2H53.3023L53.6023 47.1ZM53.3023 46.4L53.1023 46.9H53.4023L53.3023 46.4Z" fill="white"/>
<path d="M54.2992 47.1L53.7992 46.4V47.1H53.6992V46.2H53.7992L54.2992 46.9V46.2H54.3992L54.2992 47.1Z" fill="white"/>
<path d="M55.1 47.1L54.8 46.6L54.6 46.8V47H54.5V46.1H54.6V46.6L55 46.1H55.1L54.8 46.4L55.1 46.9V47.1Z" fill="white"/>
<path d="M55.0016 43.5001H54.0016L53.1016 45.7001H54.1016L54.6016 44.6001L55.0016 43.5001Z" fill="#FFC20E"/>
<path d="M56.6016 43.5001H55.6016L56.1016 44.6001L56.6016 45.7001H57.6016L56.6016 43.5001Z" fill="#505154"/>
<path d="M55.8008 45.2C55.8008 45.1 55.8008 45 55.7008 45C55.7008 44.9 55.6008 44.8 55.6008 44.7L55.3008 44.1L55.0008 44.7C55.0008 44.8 54.9008 44.9 54.9008 45C54.9008 45 54.9008 45.1 54.8008 45.1C54.8008 45.1 54.8008 45.1 54.8008 45.2V45.3C55.8008 45.3 55.8008 45.3 55.8008 45.2C55.8008 45.3 55.8008 45.3 55.8008 45.2Z" fill="#E05826"/>
<path d="M55 43.5001L54.5 44.6001L54.7 45.1001L54.8 45.3001C54.8 45.3001 54.8 45.2001 54.9 45.2001C54.9 45.1001 55 45.0001 55 44.9001L55.3 44.3001L55 43.5001Z" fill="#F89A59"/>
<path d="M55.6008 43.5001L56.1008 44.6001L55.9008 45.1001L55.8008 45.3001C55.8008 45.3001 55.8008 45.3001 55.8008 45.2001C55.8008 45.2001 55.8008 45.1001 55.7008 45.1001C55.7008 45.0001 55.6008 44.9001 55.6008 44.8001L55.3008 44.2001L55.6008 43.5001Z" fill="#848689"/>
<path d="M38.4016 55.1H33.6016V53.9H38.4016V55.1Z" fill="white"/>
<path d="M40.5 59.3H33.5V58.2H40.5V59.3Z" fill="white"/>
<path d="M36.0016 56.2H33.6016V55.7H36.0016V56.2Z" fill="white"/>
<path d="M35.1016 56.9H33.6016V56.4H35.1016V56.9Z" fill="white"/>
<path d="M34.7016 57.7H33.6016V57.2H34.7016V57.7Z" fill="white"/>
<path d="M44.8 55.1H40V53.9H44.8V55.1Z" fill="white"/>
<path d="M51.2023 53.9H46.4023V55.1H51.2023V53.9Z" fill="white"/>
<path d="M57.7023 53.9H52.9023V55.1H57.7023V53.9Z" fill="white"/>
<path d="M57.1031 57.4001C57.2031 57.4001 57.2031 57.4001 57.3031 57.4001C57.3031 57.6001 57.4031 57.8001 57.4031 57.9001C57.5031 58.2001 57.5031 58.5 57.6031 58.8C57.6031 58.9 57.6031 58.9 57.6031 59C57.5031 59 57.3031 59 57.2031 59C57.2031 58.9 57.2031 58.9 57.2031 58.8C57.0031 58.8 56.8031 58.8 56.7031 58.8C56.7031 58.9 56.6031 58.9 56.6031 59C56.5031 59 56.3031 59 56.2031 59C56.4031 58.6 56.5031 58.3001 56.7031 57.9001C56.8031 57.7001 56.8031 57.6001 56.9031 57.4001C56.9031 57.3001 57.0031 57.3 57.1031 57.3C57.0031 57.4 57.1031 57.4001 57.1031 57.4001ZM57.0031 57.9001C56.9031 58.1001 56.8031 58.3 56.8031 58.5C56.9031 58.5 57.0031 58.5 57.1031 58.5C57.1031 58.3 57.0031 58.2 57.0031 58V57.9001Z" fill="white"/>
<path d="M53.3016 58.6001C53.3016 58.5001 53.4016 58.4001 53.4016 58.4001C53.5016 58.1001 53.6016 57.8001 53.7016 57.6001C53.7016 57.6001 53.7016 57.6001 53.7016 57.5001C53.8016 57.5001 54.0016 57.5001 54.1016 57.5001C54.0016 57.7001 54.0016 57.8001 53.9016 58.0001C53.8016 58.2001 53.7016 58.5001 53.6016 58.7001C53.5016 58.9001 53.5016 59.0001 53.4016 59.2001C53.3016 59.2001 53.1016 59.2001 53.0016 59.2001C52.9016 58.8001 52.8016 58.4001 52.7016 58.1001C52.7016 58.0001 52.7016 57.9001 52.6016 57.8001C52.6016 57.7001 52.6016 57.7001 52.5016 57.7001C52.4016 57.6001 52.2016 57.6001 52.1016 57.6001C52.1016 57.6001 52.1016 57.6001 52.1016 57.5001C52.3016 57.5001 52.6016 57.5001 52.8016 57.5001C52.9016 57.5001 53.0016 57.6001 53.0016 57.7001C53.0016 57.9001 53.1016 58.1001 53.1016 58.3001C53.2016 58.3001 53.3016 58.4001 53.3016 58.6001Z" fill="white"/>
<path d="M55.3008 59.2001C55.1008 59.2001 55.0008 59.2001 54.8008 59.1001C54.8008 59.0001 54.8008 59.0001 54.8008 58.9001C54.8008 58.8001 54.8008 58.8001 54.8008 58.7001C54.9008 58.7001 55.0008 58.8001 55.1008 58.8001C55.2008 58.8001 55.3008 58.8001 55.4008 58.8001H55.5008C55.6008 58.7001 55.6008 58.6001 55.5008 58.6001C55.5008 58.6001 55.4008 58.6001 55.4008 58.5001C55.3008 58.5001 55.3008 58.4001 55.2008 58.4001C55.1008 58.4001 55.1008 58.3001 55.0008 58.3001C55.0008 58.1001 55.0008 58.0001 55.0008 57.8001C55.0008 57.7001 55.1008 57.6001 55.2008 57.5001C55.3008 57.4001 55.4008 57.4001 55.6008 57.4001C55.7008 57.4001 55.7008 57.4001 55.8008 57.4001C55.9008 57.4001 56.0008 57.4001 56.2008 57.5001C56.2008 57.6001 56.2008 57.7001 56.1008 57.8001C56.0008 57.7001 55.8008 57.7001 55.7008 57.7001C55.6008 57.7001 55.6008 57.7001 55.5008 57.8001C55.4008 57.8001 55.4008 57.9001 55.5008 58.0001C55.5008 58.0001 55.6008 58.1001 55.7008 58.1001C55.8008 58.1001 55.9008 58.2001 55.9008 58.2001C56.0008 58.3001 56.1008 58.3001 56.1008 58.4001C56.1008 58.5001 56.1008 58.6001 56.1008 58.7001C56.0008 58.8001 55.9008 58.9001 55.8008 59.0001C55.6008 59.1001 55.5008 59.2001 55.3008 59.2001Z" fill="white"/>
<path d="M54.3016 59.1001C54.2016 59.1001 54.2016 59.1001 54.1016 59.1001C54.2016 58.8001 54.3016 58.4001 54.3016 58.1001C54.3016 57.9001 54.4016 57.7001 54.4016 57.5001C54.5016 57.5001 54.7016 57.5001 54.8016 57.5001C54.7016 57.9001 54.6016 58.3001 54.5016 58.7001C54.5016 58.9001 54.4016 59.0001 54.4016 59.2001C54.4016 59.1001 54.3016 59.1001 54.3016 59.1001Z" fill="white"/>
<path d="M43.4 56.9001H42V56.4001H43.4V56.9001Z" fill="white"/>
<path d="M46.5023 56.4001H43.9023V57.3001H46.5023V56.4001Z" fill="white"/>
<path d="M43 57.7H42V57.2H43V57.7Z" fill="white"/>
<path fill-rule="evenodd" clip-rule="evenodd" d="M40.7031 51.1C40.7031 51.6 40.6031 52.0001 40.4031 52.4001C40.4031 52.5001 40.3031 52.5 40.3031 52.5C40.2031 52.5 40.2031 52.4 40.2031 52.3C40.2031 52.3 40.2031 52.3001 40.2031 52.2001C40.4031 51.8001 40.5031 51.3001 40.5031 50.9001C40.5031 50.6001 40.4031 50.3 40.3031 50.1V50C40.3031 49.9 40.3031 49.8 40.4031 49.8C40.5031 49.8 40.5031 49.8001 40.6031 49.9001C40.7031 50.1001 40.8031 50.3001 40.8031 50.4001C40.7031 50.6001 40.7031 50.9 40.7031 51.1Z" fill="#231F20"/>
<path fill-rule="evenodd" clip-rule="evenodd" d="M40.1016 51.2C40.1016 51.5 40.0016 51.8 39.8016 52.1L39.7016 52.2C39.6016 52.2 39.6016 52.2 39.6016 52.1C39.6016 52.1 39.6016 52 39.6016 51.9C39.6016 51.9 39.6016 51.8 39.7016 51.8C39.8016 51.6 39.8016 51.4 39.9016 51.2C39.9016 50.9 39.9016 50.5 39.7016 50.2C39.7016 50.2 39.7016 50.2 39.7016 50.1C39.7016 50 39.7016 49.9 39.8016 49.9C39.9016 49.9 39.9016 49.9 40.0016 50C40.0016 50.1 40.1016 50.2 40.1016 50.3C40.1016 50.6 40.1016 50.9 40.1016 51.2Z" fill="#231F20"/>
<path fill-rule="evenodd" clip-rule="evenodd" d="M39.2 50.3C39.3 50.3 39.3 50.3001 39.3 50.4001C39.4 50.5001 39.4 50.7 39.5 50.8C39.6 51.2 39.5 51.5 39.3 51.8C39.3 51.9 39.2 51.9001 39.2 51.9001C39.1 51.9001 39 51.8001 39.1 51.7001C39.1 51.7001 39.1 51.7 39.1 51.6C39.3 51.2 39.3 50.9 39.1 50.5C39.1 50.5 39.1 50.5001 39.1 50.4001C39.1 50.4001 39.1 50.3 39.2 50.3Z" fill="#231F20"/>
<path fill-rule="evenodd" clip-rule="evenodd" d="M39.0016 51.1C39.0016 51.3 38.9016 51.4 38.8016 51.6C38.8016 51.7 38.7016 51.7 38.7016 51.7C38.6016 51.7 38.6016 51.6 38.6016 51.6V51.5C38.6016 51.4 38.7016 51.3 38.7016 51.3C38.7016 51.2 38.7016 51.1 38.6016 50.9C38.6016 50.9 38.6016 50.9 38.6016 50.8C38.6016 50.7 38.6016 50.7 38.6016 50.6C38.7016 50.6 38.7016 50.6 38.8016 50.6C38.9016 50.7 38.9016 50.8 39.0016 50.9C39.0016 51 39.0016 51.1 39.0016 51.1Z" fill="#231F20"/>
<path fill-rule="evenodd" clip-rule="evenodd" d="M37.8031 50V52.2C37.8031 52.5 37.6031 52.7 37.3031 52.7H34.2031C33.9031 52.7 33.7031 52.5 33.7031 52.2V50C33.7031 49.7 33.9031 49.5 34.2031 49.5H37.3031C37.5031 49.4 37.8031 49.7 37.8031 50Z" fill="#FBC800"/>
<path fill-rule="evenodd" clip-rule="evenodd" d="M35.1 49.5V50C35.1 50.2 35.1 50.3 35.1 50.5C35.1 50.6 35.1 50.6 35.1 50.7C35.1 50.8 35.1 50.9 35.1 51C35.1 51.2 35.1 51.3 35.1 51.5C35.1 51.6 35.1 51.6 35.1 51.7C35.1 52 35.1 52.3 35.1 52.7H35C35 52.4 35 52.1 35 51.7C35 51.6 35 51.6 35 51.5C35 51.3 35 51.1 35 51C35 50.9 35 50.8 35 50.7C35 50.6 35 50.6 35 50.5C35 50.3 35 50.1 35 49.9C35 49.7 35 49.6 35 49.4L35.1 49.5Z" fill="#F99900"/>
<path fill-rule="evenodd" clip-rule="evenodd" d="M36.3016 52.7H36.1016C36.1016 52.4 36.1016 52.1 36.1016 51.7C36.1016 51.6 36.1016 51.6 36.1016 51.5C36.1016 51.3 36.1016 51.2 36.1016 51C36.1016 50.9 36.1016 50.8 36.1016 50.6C36.1016 50.5 36.1016 50.5 36.1016 50.4C36.1016 50.2 36.1016 50.1 36.1016 49.9C36.1016 49.7 36.1016 49.6 36.1016 49.4H36.3016V49.5C36.3016 49.7 36.3016 49.8 36.3016 50C36.3016 50.1 36.3016 50.3 36.3016 50.4V50.6C36.3016 50.7 36.3016 50.9 36.3016 51C36.3016 51.1 36.3016 51.3 36.3016 51.4C36.3016 51.5 36.3016 51.5 36.3016 51.6C36.3016 52.1 36.3016 52.4 36.3016 52.7Z" fill="#F99900"/>
<path d="M35.1016 50.5C35.1016 50.6 35.1016 50.6 35.1016 50.7H33.6016V50.5H35.1016Z" fill="#F99900"/>
<path d="M35.1016 51.6C35.1016 51.7 35.1016 51.7 35.1016 51.8H33.6016V51.6H35.1016Z" fill="#F99900"/>
<path d="M37.8016 50.5V50.7H36.1016C36.1016 50.6 36.1016 50.6 36.1016 50.5H37.8016Z" fill="#F99900"/>
<path d="M37.8016 51.5V51.7H36.1016C36.1016 51.6 36.1016 51.6 36.1016 51.5H37.8016Z" fill="#F99900"/>
<path d="M70.8998 52.1L57.6998 56.1C55.6998 64.1 54.4998 73 57.8998 77.9C61.2998 82.7 66.0998 86.5 70.8998 88.3C70.8998 68.4 70.8998 52.1 70.8998 52.1Z" fill="#8BC53F"/>
<path d="M70.8984 52.1L84.0984 56.1C86.0984 64.1 87.2984 73 83.8984 77.9C80.4984 82.7 75.6984 86.5 70.8984 88.3C70.8984 68.4 70.8984 52.1 70.8984 52.1Z" fill="#5E871D"/>
<path d="M60.1995 57.9C60.1995 57.9 57.4995 68.3 59.4995 73.8C61.4995 79.4 66.1995 82.9 70.8995 84.9C70.8995 70.9 70.8995 55.4 70.8995 55.4L60.1995 57.9Z" fill="#B2E069"/>
<path d="M81.5984 57.9C81.5984 57.9 84.2984 68.3 82.2984 73.8C80.2984 79.4 75.5984 82.9 70.8984 84.9C70.8984 70.9 70.8984 55.4 70.8984 55.4L81.5984 57.9Z" fill="#8BC53F"/>
<path d="M77.0984 66.8H64.3984V70.3H77.0984V66.8Z" fill="white"/>
<path d="M72.5195 74.9615V62.2615H69.0195V74.9615H72.5195Z" fill="white"/>
<path d="M65.6023 96H23.9023C22.3023 96 20.9023 94.7 20.9023 93C20.9023 91.4 22.2023 90 23.9023 90H65.6023C67.2023 90 68.6023 91.3 68.6023 93C68.6023 94.7 67.2023 96 65.6023 96Z" fill="#252526"/>
<path d="M49.3016 93C49.3016 93.5 49.1016 93.9 48.8016 94.2C48.5016 94.5 48.1016 94.7 47.6016 94.7H24.3016C23.9016 94.7 23.6016 94.6 23.3016 94.4C22.9016 94.1 22.6016 93.6 22.6016 93C22.6016 92.5 22.8016 92.1 23.1016 91.8C23.4016 91.5 23.8016 91.3 24.3016 91.3H47.7016C48.2016 91.3 48.6016 91.5 48.9016 91.8C49.1016 92.2 49.3016 92.6 49.3016 93Z" fill="#8BC53F"/>
<path d="M29.0008 91.4L26.7008 94.7H24.3008C23.9008 94.7 23.6008 94.6 23.3008 94.4L25.4008 91.4H29.0008Z" fill="#5E871D"/>
<path d="M35.7008 91.4L33.4008 94.7H29.8008L32.1008 91.4H35.7008Z" fill="#5E871D"/>
<path d="M42.4 91.4L40.1 94.7H36.5L38.8 91.4H42.4Z" fill="#5E871D"/>
<path d="M48.7992 91.9L46.7992 94.7H43.1992L45.4992 91.4H47.5992C48.0992 91.4 48.4992 91.6 48.7992 91.9Z" fill="#5E871D"/>
<path d="M20.0682 79.0895C25.8614 78.8315 30.3486 73.9261 30.0906 68.1329C29.8326 62.3397 24.9272 57.8525 19.134 58.1105C13.3408 58.3685 8.85365 63.2739 9.11161 69.0671C9.36957 74.8603 14.275 79.3475 20.0682 79.0895Z" fill="#FAAD18"/>
<path d="M20.1485 77.5883C25.1101 77.2861 28.8873 73.0189 28.5851 68.0573C28.2829 63.0957 24.0157 59.3185 19.0541 59.6207C14.0925 59.9229 10.3153 64.19 10.6175 69.1516C10.9197 74.1133 15.1868 77.8905 20.1485 77.5883Z" fill="#FDCD0D"/>
<path d="M19.6008 76.4C23.9086 76.4 27.4008 72.9078 27.4008 68.6C27.4008 64.2922 23.9086 60.8 19.6008 60.8C15.293 60.8 11.8008 64.2922 11.8008 68.6C11.8008 72.9078 15.293 76.4 19.6008 76.4Z" fill="#FAAD18"/>
<path d="M26.1928 68.7459C26.25 65.1012 23.3417 62.1002 19.697 62.043C16.0523 61.9859 13.0513 64.8942 12.9941 68.5389C12.937 72.1836 15.8452 75.1846 19.49 75.2417C23.1347 75.2989 26.1356 72.3906 26.1928 68.7459Z" fill="#FAAD18"/>
<path d="M17.7039 71.2L16.9039 69.6H16.5039V71.2H14.5039V65.3H17.2039C17.9039 65.3 18.5039 65.5 18.9039 65.9C19.3039 66.3 19.5039 66.8 19.5039 67.5C19.5039 67.8 19.4039 68.1 19.3039 68.4C19.2039 68.7 19.0039 68.9 18.7039 69.1L19.7039 71.2H17.7039ZM16.5039 67V68.1H17.0039C17.2039 68.1 17.3039 68 17.5039 67.9C17.6039 67.8 17.7039 67.7 17.7039 67.5C17.7039 67.3 17.6039 67.2 17.5039 67.1C17.4039 67.1 17.2039 67 17.0039 67H16.5039Z" fill="#FAAD18"/>
<path d="M23.2023 66.5C23.9023 66.5 24.5023 66.7 24.9023 67.2C25.3023 67.6 25.6023 68.2 25.6023 69C25.6023 69.7 25.4023 70.3 24.9023 70.8C24.5023 71.2 23.9023 71.5 23.2023 71.5C22.8023 71.5 22.5023 71.4 22.2023 71.2V72.9H20.4023V66.7H21.7023L21.9023 67C22.2023 66.7 22.7023 66.5 23.2023 66.5ZM22.9023 69.8C23.1023 69.8 23.3023 69.7 23.5023 69.6C23.7023 69.4 23.7023 69.2 23.7023 69C23.7023 68.7 23.6023 68.5 23.5023 68.4C23.3023 68.2 23.1023 68.2 22.9023 68.2C22.7023 68.2 22.5023 68.3 22.3023 68.4C22.1023 68.5 22.0023 68.7 22.0023 69C22.0023 69.3 22.1023 69.5 22.2023 69.6C22.4023 69.7 22.6023 69.8 22.9023 69.8Z" fill="#FAAD18"/>
<path d="M75.7023 41.2C78.9056 41.2 81.5023 38.6032 81.5023 35.4C81.5023 32.1967 78.9056 29.6 75.7023 29.6C72.4991 29.6 69.9023 32.1967 69.9023 35.4C69.9023 38.6032 72.4991 41.2 75.7023 41.2Z" fill="#FAAD18"/>
<path d="M75.7031 40.4C78.4645 40.4 80.7031 38.1614 80.7031 35.4C80.7031 32.6385 78.4645 30.4 75.7031 30.4C72.9417 30.4 70.7031 32.6385 70.7031 35.4C70.7031 38.1614 72.9417 40.4 75.7031 40.4Z" fill="#FDCD0D"/>
<path d="M75.822 39.6972C78.1959 39.6313 80.0669 37.6535 80.001 35.2796C79.9351 32.9057 77.9573 31.0347 75.5834 31.1006C73.2096 31.1665 71.3386 33.1443 71.4045 35.5182C71.4704 37.8921 73.4482 39.7631 75.822 39.6972Z" fill="#FAAD18"/>
<path d="M75.7016 39C77.6898 39 79.3016 37.3882 79.3016 35.4C79.3016 33.4118 77.6898 31.8 75.7016 31.8C73.7133 31.8 72.1016 33.4118 72.1016 35.4C72.1016 37.3882 73.7133 39 75.7016 39Z" fill="#FAAD18"/>
<path d="M74.6023 36.8L74.2023 35.9H74.0023V36.8H72.9023V33.5H74.4023C74.8023 33.5 75.1023 33.6 75.3023 33.8C75.5023 34 75.7023 34.3 75.7023 34.7C75.7023 34.9 75.7023 35.1 75.6023 35.2C75.5023 35.4 75.4023 35.5 75.3023 35.6L75.9023 36.7H74.6023V36.8ZM74.0023 34.5V35.1H74.3023C74.4023 35.1 74.5023 35.1 74.6023 35C74.7023 34.9 74.7023 34.9 74.7023 34.8C74.7023 34.7 74.7023 34.6 74.6023 34.6C74.5023 34.5 74.5023 34.5 74.3023 34.5H74.0023Z" fill="#FAAD18"/>
<path d="M77.7016 34.2C78.1016 34.2 78.4016 34.3 78.6016 34.6C78.8016 34.8 79.0016 35.2 79.0016 35.6C79.0016 36 78.9016 36.3 78.6016 36.6C78.4016 36.8 78.0016 37 77.7016 37C77.5016 37 77.3016 37 77.1016 36.9V37.9H76.1016V34.5H76.8016L76.9016 34.7C77.1016 34.3 77.4016 34.2 77.7016 34.2ZM77.5016 36C77.6016 36 77.7016 36 77.8016 35.9C77.9016 35.8 77.9016 35.7 77.9016 35.6C77.9016 35.5 77.9016 35.3 77.8016 35.3C77.7016 35.2 77.6016 35.2 77.5016 35.2C77.4016 35.2 77.3016 35.2 77.2016 35.3C77.1016 35.4 77.1016 35.5 77.1016 35.6C77.1016 35.7 77.1016 35.9 77.2016 35.9C77.2016 36 77.3016 36 77.5016 36Z" fill="#FAAD18"/>
<path d="M26.0992 17.8C31.0146 17.8 34.9992 13.8153 34.9992 8.9C34.9992 3.98467 31.0146 0 26.0992 0C21.1839 0 17.1992 3.98467 17.1992 8.9C17.1992 13.8153 21.1839 17.8 26.0992 17.8Z" fill="#FAAD18"/>
<path d="M26.0984 16.6C30.351 16.6 33.7984 13.1526 33.7984 8.90001C33.7984 4.64742 30.351 1.20001 26.0984 1.20001C21.8458 1.20001 18.3984 4.64742 18.3984 8.90001C18.3984 13.1526 21.8458 16.6 26.0984 16.6Z" fill="#FDCD0D"/>
<path d="M26.1 15.5C29.7451 15.5 32.7 12.5451 32.7 8.89999C32.7 5.25491 29.7451 2.29999 26.1 2.29999C22.4549 2.29999 19.5 5.25491 19.5 8.89999C19.5 12.5451 22.4549 15.5 26.1 15.5Z" fill="#FAAD18"/>
<path d="M26.1 14.5C29.1928 14.5 31.7 11.9928 31.7 8.89999C31.7 5.80719 29.1928 3.29999 26.1 3.29999C23.0072 3.29999 20.5 5.80719 20.5 8.89999C20.5 11.9928 23.0072 14.5 26.1 14.5Z" fill="#FAAD18"/>
<path d="M24.4008 11.1L23.8008 9.69998H23.5008V11.1H21.8008V6.09998H24.1008C24.7008 6.09998 25.2008 6.29998 25.5008 6.59998C25.9008 6.99998 26.1008 7.39998 26.1008 7.99998C26.1008 8.29998 26.0008 8.49998 25.9008 8.79998C25.8008 8.99998 25.6008 9.19998 25.4008 9.39998L26.3008 11.2H24.4008V11.1ZM23.5008 7.49998V8.39998H23.9008C24.1008 8.39998 24.2008 8.39998 24.3008 8.29998C24.4008 8.19998 24.4008 8.09998 24.4008 7.99998C24.4008 7.89998 24.4008 7.69998 24.3008 7.69998C24.2008 7.59998 24.1008 7.59998 23.9008 7.59998H23.5008V7.49998Z" fill="#FAAD18"/>
<path d="M29.1016 7.09998C29.7016 7.09998 30.2016 7.29998 30.6016 7.69998C31.0016 7.99998 31.2016 8.49998 31.2016 9.19998C31.2016 9.79998 31.0016 10.3 30.6016 10.7C30.2016 11.1 29.7016 11.3 29.1016 11.3C28.8016 11.3 28.5016 11.2 28.2016 11.1V12.6H26.6016V7.19998H27.7016L28.0016 7.49998C28.3016 7.19998 28.7016 7.09998 29.1016 7.09998ZM28.8016 9.89998C29.0016 9.89998 29.2016 9.79998 29.3016 9.69998C29.4016 9.59998 29.5016 9.39998 29.5016 9.19998C29.5016 8.99998 29.4016 8.79998 29.3016 8.69998C29.2016 8.59998 29.0016 8.49998 28.8016 8.49998C28.6016 8.49998 28.4016 8.59998 28.3016 8.69998C28.2016 8.79998 28.1016 8.99998 28.1016 9.19998C28.1016 9.39998 28.2016 9.59998 28.3016 9.69998C28.5016 9.79998 28.6016 9.89998 28.8016 9.89998Z" fill="#FAAD18"/>
<path d="M85 64.9C89.9706 64.9 94 60.8706 94 55.9C94 50.9295 89.9706 46.9 85 46.9C80.0294 46.9 76 50.9295 76 55.9C76 60.8706 80.0294 64.9 85 64.9Z" fill="#29666E"/>
<path d="M85.0008 62.1C88.4249 62.1 91.2008 59.3242 91.2008 55.9C91.2008 52.4758 88.4249 49.7 85.0008 49.7C81.5766 49.7 78.8008 52.4758 78.8008 55.9C78.8008 59.3242 81.5766 62.1 85.0008 62.1Z" fill="white"/>
<path d="M85.0008 50.6V56.3H80.8008" stroke="#252526" stroke-width="1.1277" stroke-miterlimit="10"/>
<path d="M84.8992 57.6C85.562 57.6 86.0992 57.0628 86.0992 56.4C86.0992 55.7373 85.562 55.2 84.8992 55.2C84.2365 55.2 83.6992 55.7373 83.6992 56.4C83.6992 57.0628 84.2365 57.6 84.8992 57.6Z" fill="#252526"/>
</svg>
