<?xml version="1.0" encoding="utf-8"?>
<!-- Generator: Adobe Illustrator 19.0.0, SVG Export Plug-In . SVG Version: 6.00 Build 0)  -->
<svg version="1.1" id="_x30_a91ac82-b459-4267-949a-d91dec06439d"
	 xmlns="http://www.w3.org/2000/svg" xmlns:xlink="http://www.w3.org/1999/xlink" x="0px" y="0px" viewBox="11 -10.1 122.4 122.4"
	 style="enable-background:new 11 -10.1 122.4 122.4;" xml:space="preserve">
<style type="text/css">
	.st0{fill:#308599;}
	.st1{fill:#F29E6E;}
	.st2{fill:#FFFFFF;}
</style>
<g>
	<title>UI msmile</title>
	<path class="st0" d="M28.3,7.8c-1.3,0-2.3,1-2.3,2.3s1,2.3,2.3,2.3h4.4c3.4,0,6.3,2.4,7,5.7l9.5,47.6v14.6C49.2,86.2,54,91,59.8,91
		c0,0,0,0,0,0H120c1.2,0.3,2.5-0.5,2.7-1.8c0.3-1.2-0.5-2.5-1.8-2.7c-0.3-0.1-0.6-0.1-1,0H59.8c-3.3,0-6-2.7-6-6c0,0,0-0.1,0-0.1
		V65.6c0-0.2,0-0.3-0.1-0.5l-9.5-47.8c-1.1-5.5-5.9-9.4-11.5-9.4H28.3z"/>
	<path class="st1" d="M33.4,15.5H15.7c-2.7-0.1-4.8-2.4-4.7-5.1c0,0,0-0.1,0-0.1c-0.2-2.7,1.9-5,4.6-5.2c0,0,0.1,0,0.1,0h17.7
		c2.7,0.1,4.8,2.4,4.7,5.1c0,0,0,0.1,0,0.1c0.2,2.7-1.9,5-4.6,5.2C33.5,15.5,33.5,15.5,33.4,15.5"/>
	<path class="st0" d="M132.9,24.9c-0.4-0.6-1.1-1-1.8-1H44c-1.3,0-2.3,1-2.3,2.3c0,1.3,1,2.3,2.3,2.3h18.5l1,10.1H45.2v2.2h18.5
		L65,53.1H48.1v2.3h17.1l0.9,8.8H51.5c-1.3,0-2.3,1-2.3,2.3c0,1.3,1,2.3,2.3,2.3c0,0,0,0,0,0H118c1,0,1.8-0.7,2.1-1.6l13.2-40.3
		C133.5,26.3,133.4,25.5,132.9,24.9z M119.9,53.1h-16l1.5-12.3h18.5L119.9,53.1z M101.6,53.1H87V40.8h16.1L101.6,53.1z M101.3,55.4
		l-1.1,8.8H87v-8.8H101.3z M87,38.6V28.5h17.6l-1.3,10.1H87z M64.7,28.5h20v10.1H65.8L64.7,28.5z M66,40.8h18.7v12.3H67.3L66,40.8z
		 M67.5,55.5h17.2v8.8H68.4L67.5,55.5z M116.3,64.3h-13.7l1-8.8h15.6L116.3,64.3z M124.6,38.6h-18.9l1.2-10.1h21L124.6,38.6z"/>
	<path class="st1" d="M69.8,81.5c-4.3,0-7.8,3.5-7.8,7.8c0,4.3,3.5,7.8,7.8,7.8c4.3,0,7.8-3.5,7.8-7.8S74.1,81.5,69.8,81.5
		L69.8,81.5z M69.8,92.8c-2-0.3-3.3-2.2-3-4.1c0.3-1.5,1.4-2.7,3-3c2-0.3,3.8,1,4.1,3c0.3,2-1,3.8-3,4.1
		C70.6,92.8,70.2,92.8,69.8,92.8z"/>
	<path class="st1" d="M105.6,81.5c-4.3,0-7.8,3.5-7.8,7.8s3.5,7.8,7.8,7.8c4.3,0,7.8-3.5,7.8-7.8C113.4,84.9,109.9,81.5,105.6,81.5
		C105.6,81.5,105.6,81.5,105.6,81.5z M105.6,92.8c-2-0.3-3.3-2.2-3-4.1c0.3-1.5,1.4-2.7,3-3c2-0.3,3.8,1,4.1,3c0.3,2-1,3.8-3,4.1
		C106.4,92.8,106,92.8,105.6,92.8z"/>
	<path class="st2" d="M69.8,85.7c-2,0-3.6,1.6-3.6,3.6s1.6,3.6,3.6,3.6c2,0,3.6-1.6,3.6-3.6l0,0C73.4,87.3,71.8,85.7,69.8,85.7z"/>
	<path class="st2" d="M105.6,85.7c-2,0-3.6,1.6-3.6,3.6s1.6,3.6,3.6,3.6c2,0,3.6-1.6,3.6-3.6l0,0C109.2,87.3,107.6,85.7,105.6,85.7z
		"/>
</g>
</svg>
