<svg width="52" height="46" viewBox="0 0 52 46" fill="none" xmlns="http://www.w3.org/2000/svg">
<path opacity="0.1" d="M37.4937 0H8.50628C3.80839 0 0 3.80839 0 8.50628V37.4916C0 42.1895 3.80839 45.9979 8.50628 45.9979H37.4937C42.1916 45.9979 46 42.1895 46 37.4916V8.50628C46 3.80839 42.1916 0 37.4937 0Z" fill="#FA9D1C"/>
<mask id="mask0_1_20" style="mask-type:luminance" maskUnits="userSpaceOnUse" x="12" y="11" width="23" height="23">
<path d="M35 11H12V34H35V11Z" fill="white"/>
</mask>
<g mask="url(#mask0_1_20)">
<path d="M30.6874 16.7213H13.5812C12.7767 16.7213 12.1245 17.3734 12.1245 18.1779V29.1508C12.1245 29.9553 12.7767 30.6075 13.5812 30.6075H30.6874C31.4919 30.6075 32.1441 29.9553 32.1441 29.1508V18.1779C32.1441 17.3734 31.4919 16.7213 30.6874 16.7213Z" fill="#FA9D1C"/>
<path d="M30.6875 30.7321H13.5812C13.1619 30.7321 12.7597 30.5655 12.4631 30.269C12.1666 29.9724 12 29.5702 12 29.1508V18.1779C12 17.7586 12.1666 17.3564 12.4631 17.0598C12.7597 16.7633 13.1619 16.5967 13.5812 16.5967H30.6875C31.1069 16.5967 31.5091 16.7633 31.8056 17.0598C32.1022 17.3564 32.2687 17.7586 32.2687 18.1779V29.1508C32.2687 29.5702 32.1022 29.9724 31.8056 30.269C31.5091 30.5655 31.1069 30.7321 30.6875 30.7321ZM13.5812 16.8458C13.4063 16.8458 13.2331 16.8803 13.0715 16.9472C12.9099 17.0142 12.763 17.1123 12.6393 17.236C12.3895 17.4858 12.2492 17.8246 12.2492 18.1779V29.1508C12.2492 29.5041 12.3895 29.843 12.6393 30.0928C12.763 30.2165 12.9099 30.3146 13.0715 30.3815C13.2331 30.4485 13.4063 30.4829 13.5812 30.4829H30.6875C31.0408 30.4829 31.3796 30.3426 31.6294 30.0928C31.8792 29.843 32.0196 29.5041 32.0196 29.1508V18.1779C32.0196 17.8246 31.8792 17.4858 31.6294 17.236C31.3796 16.9862 31.0408 16.8458 30.6875 16.8458H13.5812Z" fill="#FA9D1C"/>
<path d="M32.1441 19.2416H12.1245V22.0975H32.1441V19.2416Z" fill="#FBEBD5"/>
<path d="M32.2783 22.2221H12V19.1075H32.2783V22.2221ZM12.2492 21.9729H32.0196V19.3662H12.2492V21.9729Z" fill="#FA9D1C"/>
<path d="M19.5516 25.4325H13.7441V25.9404H19.5516V25.4325Z" fill="#FBEBD5"/>
<path d="M19.5516 27.33H13.7441V27.8379H19.5516V27.33Z" fill="#FBEBD5"/>
<path d="M33.4585 22.0569C35.1838 20.3316 35.1838 17.5343 33.4585 15.809C31.7332 14.0837 28.9359 14.0837 27.2106 15.809C25.4853 17.5343 25.4853 20.3316 27.2106 22.0569C28.9359 23.7822 31.7332 23.7822 33.4585 22.0569Z" fill="#FBEBD5"/>
<path d="M30.3329 23.6021C29.2529 23.6015 28.2065 23.2263 27.3721 22.5406C26.5378 21.8548 25.9671 20.9009 25.7573 19.8414C25.5476 18.782 25.7118 17.6826 26.2219 16.7306C26.732 15.7787 27.5565 15.0331 28.5548 14.621C29.5531 14.2089 30.6634 14.1558 31.6965 14.4708C32.7295 14.7857 33.6214 15.4492 34.2201 16.3481C34.8187 17.247 35.0871 18.3257 34.9794 19.4004C34.8717 20.475 34.3946 21.479 33.6295 22.2413C33.1964 22.6736 32.6823 23.0162 32.1166 23.2497C31.551 23.4832 30.9448 23.603 30.3329 23.6021ZM30.3329 14.7759C29.3707 14.7764 28.4384 15.1105 27.6949 15.7213C26.9514 16.3321 26.4427 17.1818 26.2554 18.1256C26.0682 19.0694 26.214 20.049 26.668 20.8974C27.122 21.7458 27.8561 22.4105 28.7452 22.7783C29.6343 23.1461 30.6235 23.1943 31.5442 22.9146C32.4648 22.6349 33.26 22.0446 33.7943 21.2443C34.3285 20.444 34.5688 19.4833 34.4741 18.5257C34.3794 17.5682 33.9556 16.6731 33.275 15.9929C32.8896 15.6046 32.4313 15.2964 31.9264 15.0858C31.4215 14.8753 30.8799 14.7667 30.3329 14.7663V14.7759Z" fill="#FA9D1C"/>
<path d="M32.4421 16.2834L27.6851 21.0405L28.2272 21.5826L32.9842 16.8255L32.4421 16.2834Z" fill="#FA9D1C"/>
<path d="M28.2272 16.2834L27.6851 16.8255L32.4421 21.5826L32.9842 21.0404L28.2272 16.2834Z" fill="#FA9D1C"/>
</g>
<path d="M52 38C52 42.4192 48.4184 46 44 46C39.5816 46 36 42.4192 36 38C36 33.5824 39.5816 30 44 30C48.4184 30 52 33.5824 52 38Z" fill="url(#paint0_linear_1_20)"/>
<path d="M46.8591 41.0516C46.7543 41.0516 46.6487 41.0244 46.5519 40.9676L43.4111 39.094C43.2303 38.9852 43.1191 38.7892 43.1191 38.578V34.5404C43.1191 34.2092 43.3879 33.9404 43.7191 33.9404C44.0503 33.9404 44.3191 34.2092 44.3191 34.5404V38.2372L47.1671 39.9356C47.4511 40.106 47.5447 40.474 47.3751 40.7588C47.2623 40.9468 47.0631 41.0516 46.8591 41.0516Z" fill="white"/>
<defs>
<linearGradient id="paint0_linear_1_20" x1="44" y1="30" x2="44.16" y2="51.36" gradientUnits="userSpaceOnUse">
<stop stop-color="#FFE70D"/>
<stop offset="0.55706" stop-color="#FFD605" stop-opacity="0.82"/>
<stop offset="1" stop-color="#FFCA06" stop-opacity="0"/>
</linearGradient>
</defs>
</svg>
