<svg width="52" height="46" viewBox="0 0 52 46" fill="none" xmlns="http://www.w3.org/2000/svg">
<path opacity="0.1" d="M37.4937 0H8.50628C3.80839 0 0 3.80839 0 8.50628V37.4916C0 42.1895 3.80839 45.9979 8.50628 45.9979H37.4937C42.1916 45.9979 46 42.1895 46 37.4916V8.50628C46 3.80839 42.1916 0 37.4937 0Z" fill="#FA9D1C"/>
<rect x="38" y="34" width="11" height="10" fill="white"/>
<path fill-rule="evenodd" clip-rule="evenodd" d="M44 30C39.5818 30 36 33.5818 36 38C36 42.4182 39.5818 46 44 46C48.4182 46 52 42.4182 52 38C52 33.5818 48.4182 30 44 30ZM47.4676 36.6473C47.5315 36.5743 47.5801 36.4893 47.6106 36.3972C47.6411 36.3052 47.6529 36.2079 47.6453 36.1113C47.6377 36.0146 47.6108 35.9204 47.5662 35.8343C47.5217 35.7481 47.4604 35.6718 47.3859 35.6097C47.3114 35.5476 47.2252 35.5011 47.1324 35.4728C47.0397 35.4445 46.9422 35.435 46.8457 35.445C46.7493 35.4549 46.6558 35.484 46.5707 35.5306C46.4857 35.5773 46.4108 35.6404 46.3505 35.7164L43.2233 39.4684L41.6051 37.8495C41.4679 37.717 41.2842 37.6437 41.0935 37.6453C40.9028 37.647 40.7204 37.7235 40.5856 37.8583C40.4507 37.9932 40.3743 38.1756 40.3726 38.3663C40.3709 38.5569 40.4442 38.7407 40.5767 38.8778L42.7585 41.0596C42.83 41.1311 42.9156 41.1868 43.0098 41.2233C43.104 41.2598 43.2047 41.2763 43.3057 41.2717C43.4066 41.2672 43.5054 41.2416 43.5959 41.1967C43.6864 41.1518 43.7666 41.0885 43.8313 41.0109L47.4676 36.6473Z" fill="#50B74A"/>
<path fill-rule="evenodd" clip-rule="evenodd" d="M20.3764 31.0279L29.1628 19.6654C29.6403 19.0527 29.8101 18.3443 29.6509 17.623C29.513 16.9673 29.1097 16.3438 28.5049 15.8708L27.0299 14.6991C25.7459 13.6778 24.1541 13.7853 23.2415 14.9571L22.2546 16.2373C22.1273 16.3975 22.1591 16.634 22.3183 16.763C22.3183 16.763 24.812 18.7625 24.8651 18.8055C25.0349 18.9667 25.1622 19.1817 25.1941 19.4397C25.2471 19.9449 24.8969 20.4179 24.377 20.4824C24.1329 20.5147 23.8994 20.4394 23.7297 20.2997L21.1086 18.2142C20.9813 18.1186 20.7902 18.139 20.6841 18.268L14.4551 26.3303C14.0519 26.8355 13.9139 27.4912 14.0519 28.1255L14.8478 31.5761C14.8902 31.7589 15.0494 31.8879 15.2404 31.8879L18.7422 31.8449C19.3789 31.8341 19.9732 31.5439 20.3764 31.0279ZM25.2797 29.9533H30.9898C31.5469 29.9533 32 30.4123 32 30.9766C32 31.5421 31.5469 32 30.9898 32H25.2797C24.7226 32 24.2695 31.5421 24.2695 30.9766C24.2695 30.4123 24.7226 29.9533 25.2797 29.9533Z" fill="#FA9D1C"/>
</svg>
