<svg width="36" height="36" viewBox="0 0 36 36" fill="none" xmlns="http://www.w3.org/2000/svg">
<rect width="36" height="36" rx="10" fill="#F1F3F9"/>
<path d="M22.821 19.6288C22.821 19.6527 22.8186 19.6693 22.8138 19.6788C22.5082 20.9551 21.8685 21.9897 20.8945 22.7825C19.9206 23.5754 18.7795 23.9719 17.4714 23.9719C16.7743 23.9719 16.0999 23.8409 15.4482 23.579C14.7965 23.3171 14.2153 22.9433 13.7044 22.4575L12.7806 23.379C12.6899 23.4695 12.5825 23.5147 12.4583 23.5147C12.3342 23.5147 12.2268 23.4695 12.1361 23.379C12.0454 23.2885 12 23.1814 12 23.0576V19.8574C12 19.7336 12.0454 19.6265 12.1361 19.536C12.2268 19.4455 12.3342 19.4003 12.4583 19.4003H15.6667C15.7908 19.4003 15.8982 19.4455 15.9889 19.536C16.0796 19.6265 16.125 19.7336 16.125 19.8574C16.125 19.9812 16.0796 20.0884 15.9889 20.1789L15.0078 21.1575C15.3468 21.4718 15.7311 21.7146 16.1608 21.8861C16.5905 22.0575 17.0369 22.1432 17.5 22.1432C18.1398 22.1432 18.7365 21.9885 19.2904 21.6789C19.8442 21.3694 20.2882 20.9432 20.6224 20.4003C20.6749 20.3193 20.8014 20.0408 21.002 19.5646C21.0401 19.455 21.1118 19.4003 21.2168 19.4003H22.5918C22.6539 19.4003 22.7076 19.4229 22.7529 19.4681C22.7983 19.5134 22.821 19.5669 22.821 19.6288ZM23 13.9143V17.1145C23 17.2383 22.9546 17.3454 22.8639 17.4359C22.7732 17.5264 22.6658 17.5716 22.5417 17.5716H19.3333C19.2092 17.5716 19.1018 17.5264 19.0111 17.4359C18.9204 17.3454 18.875 17.2383 18.875 17.1145C18.875 16.9906 18.9204 16.8835 19.0111 16.793L19.9993 15.8073C19.2928 15.1549 18.4596 14.8286 17.5 14.8286C16.8602 14.8286 16.2635 14.9834 15.7096 15.293C15.1558 15.6025 14.7118 16.0287 14.3776 16.5716C14.3251 16.6525 14.1986 16.9311 13.998 17.4073C13.9599 17.5169 13.8882 17.5716 13.7832 17.5716H12.3581C12.296 17.5716 12.2423 17.549 12.1969 17.5038C12.1516 17.4585 12.1289 17.4049 12.1289 17.343V17.293C12.4392 16.0168 13.0838 14.9822 14.0625 14.1893C15.0412 13.3964 16.1871 13 17.5 13C18.197 13 18.875 13.1321 19.5339 13.3964C20.1927 13.6607 20.7776 14.0334 21.2884 14.5143L22.2194 13.5929C22.3101 13.5024 22.4175 13.4572 22.5417 13.4572C22.6658 13.4572 22.7732 13.5024 22.8639 13.5929C22.9546 13.6834 23 13.7905 23 13.9143Z" fill="#797979"/>
</svg>
