<svg width="53" height="46" viewBox="0 0 53 46" fill="none" xmlns="http://www.w3.org/2000/svg">
<path opacity="0.1" d="M37.4937 0H8.50628C3.80839 0 0 3.80839 0 8.50628V37.4916C0 42.1895 3.80839 45.9979 8.50628 45.9979H37.4937C42.1916 45.9979 46 42.1895 46 37.4916V8.50628C46 3.80839 42.1916 0 37.4937 0Z" fill="#FA9D1C"/>
<path d="M17.0912 18.8431C16.858 18.7815 16.6642 18.6196 16.5622 18.4012C16.4602 18.1827 16.4605 17.9301 16.5631 17.7119L18.3622 13.883C18.4963 13.5976 18.7833 13.4156 19.0986 13.416C19.4139 13.4164 19.7004 13.5991 19.8338 13.8848L20.6275 15.5848C20.6559 15.5737 20.6852 15.564 20.7153 15.5559C25.4249 14.294 30.2659 17.0889 31.5278 21.7985C32.7897 26.5081 29.9948 31.349 25.2852 32.611C20.5756 33.8729 15.7347 31.078 14.4727 26.3684C14.0714 24.8707 14.0805 23.3575 14.4319 21.9505C14.5407 21.5151 14.9818 21.2504 15.4171 21.3591C15.8525 21.4679 16.1172 21.909 16.0085 22.3443C15.7222 23.4905 15.7143 24.7234 16.0424 25.9478C17.072 29.7905 21.0219 32.071 24.8646 31.0413C28.7074 30.0117 30.9878 26.0618 29.9582 22.2191C28.9453 18.4392 25.107 16.1709 21.3245 17.0777L22.1253 18.7929C22.2586 19.0786 22.2147 19.4156 22.0126 19.6576C21.8104 19.8995 21.4866 20.0027 21.1818 19.9222L17.0912 18.8431Z" fill="#FA9D1C"/>
<path d="M53 38C53 42.4192 49.4184 46 45 46C40.5816 46 37 42.4192 37 38C37 33.5824 40.5816 30 45 30C49.4184 30 53 33.5824 53 38" fill="url(#paint0_linear_1_119)"/>
<path d="M47.8591 41.0516C47.7543 41.0516 47.6487 41.0244 47.5519 40.9676L44.4111 39.094C44.2303 38.9852 44.1191 38.7892 44.1191 38.578V34.5404C44.1191 34.2092 44.3879 33.9404 44.7191 33.9404C45.0503 33.9404 45.3191 34.2092 45.3191 34.5404V38.2372L48.1671 39.9356C48.4511 40.106 48.5447 40.474 48.3751 40.7588C48.2623 40.9468 48.0631 41.0516 47.8591 41.0516" fill="white"/>
<defs>
<linearGradient id="paint0_linear_1_119" x1="45" y1="30" x2="45.16" y2="51.36" gradientUnits="userSpaceOnUse">
<stop stop-color="#FFE70D"/>
<stop offset="0.55706" stop-color="#FFD605" stop-opacity="0.82"/>
<stop offset="1" stop-color="#FFCA06" stop-opacity="0"/>
</linearGradient>
</defs>
</svg>
