<svg id="d1ee2e1e-abbe-4a40-92ae-ff4a62aa8522" data-name="Layer 1" xmlns="http://www.w3.org/2000/svg" viewBox="0 0 144.5 144.4"><defs><style>.a6c8120a-c141-4953-8bfc-a996b161b54b{fill:#fff;}.\30 2a0893c-5c26-4866-8450-d5e2114fb49f{opacity:0.39;}.b1c8d1d0-aff5-4464-ac3f-9fac6465db3c{fill:#308599;}.\33 04e14a3-e182-4da9-945b-0309ed6a3172{fill:#eeb830;}</style></defs><title>UI msmile</title><path class="a6c8120a-c141-4953-8bfc-a996b161b54b" d="M144.5,72.2A72.3,72.3,0,1,1,72.2,0a72.3,72.3,0,0,1,72.3,72.2"/><path class="b1c8d1d0-aff5-4464-ac3f-9fac6465db3c" d="M90.9,15.6H44a8.1,8.1,0,0,0-8.1,8.1v95.2A8.1,8.1,0,0,0,44,127H90.9a8.1,8.1,0,0,0,8.1-8.1V23.7a8.1,8.1,0,0,0-8.1-8.1M67.5,119a5.2,5.2,0,1,1,5.1-5.2,5.2,5.2,0,0,1-5.1,5.2m25.4-17.8H42V29.3H92.9Z"/><path class="304e14a3-e182-4da9-945b-0309ed6a3172" d="M79.4,60.5l-9.6-8.8a4,4,0,0,0-2.4-1h-.3a4.6,4.6,0,0,0-2.4,1l-9.5,8.8A3.8,3.8,0,0,0,60.3,66l2.2-2V77.2a4.8,4.8,0,0,0,9.6,0V64l2.2,2a3.8,3.8,0,1,0,5.1-5.5"/><path class="304e14a3-e182-4da9-945b-0309ed6a3172" d="M128.3,31.9A24.3,24.3,0,1,1,104,7.6a24.3,24.3,0,0,1,24.3,24.3"/><path class="a6c8120a-c141-4953-8bfc-a996b161b54b" d="M99.8,35.6H92.2a1.3,1.3,0,0,1-1-.4,1.6,1.6,0,0,1-.3-.9V28.9a1.6,1.6,0,0,1,.3-.9,1.3,1.3,0,0,1,1-.4h7.6V20a1.3,1.3,0,0,1,.4-1,1.3,1.3,0,0,1,.9-.4h6a1.8,1.8,0,0,1,.9.4,1.3,1.3,0,0,1,.4,1v7.6h7.5a1.1,1.1,0,0,1,.9.4,1.2,1.2,0,0,1,.4.9v5.4a1.2,1.2,0,0,1-.4.9,1.1,1.1,0,0,1-.9.4h-7.5v7.9a1.4,1.4,0,0,1-1.3,1.3h-6a1,1,0,0,1-.9-.4,1.2,1.2,0,0,1-.4-.9Z"/></svg>