<svg width="159" height="230" viewBox="0 0 159 230" fill="none" xmlns="http://www.w3.org/2000/svg">
<path d="M1.46777 105.924L4.2733 105.717C40.3627 103.071 76.7534 105.824 111.579 113.833V113.833" stroke="#506698" stroke-opacity="0.2" stroke-width="0.225189" stroke-miterlimit="10"/>
<path d="M3.09814 95.7251H5.90367C42.1528 95.6714 78.0964 101.019 111.89 111.494V111.494" stroke="#506698" stroke-opacity="0.2" stroke-width="0.225189" stroke-miterlimit="10"/>
<path d="M5.85156 85.6836L8.65709 85.8828C44.7599 88.4251 79.9526 96.3226 112.43 109.17V109.17" stroke="#506698" stroke-opacity="0.2" stroke-width="0.225189" stroke-miterlimit="10"/>
<path d="M9.73926 75.8818L12.5032 76.2802C48.1921 81.3937 82.3737 91.7793 113.294 106.904V106.904" stroke="#506698" stroke-opacity="0.2" stroke-width="0.225189" stroke-miterlimit="10"/>
<path d="M14.6938 66.3965L17.4059 66.9857C52.3583 74.6402 85.2178 87.432 114.3 104.706V104.706" stroke="#506698" stroke-opacity="0.2" stroke-width="0.225189" stroke-miterlimit="10"/>
<path d="M20.7021 57.2998L23.3414 58.1297C57.2935 68.2542 88.5849 83.3455 115.612 102.63V102.63" stroke="#506698" stroke-opacity="0.2" stroke-width="0.225189" stroke-miterlimit="10"/>
<path d="M27.7036 48.6769L30.239 49.6728C62.9211 62.1872 92.3946 79.4599 117.148 100.605V100.605" stroke="#506698" stroke-opacity="0.2" stroke-width="0.225189" stroke-miterlimit="10"/>
<path d="M35.6533 40.585L38.064 41.7303C69.2081 56.5354 96.6234 75.8485 118.905 98.6794V98.6794" stroke="#506698" stroke-opacity="0.2" stroke-width="0.225189" stroke-miterlimit="10"/>
<path d="M44.4653 33.0742L46.7409 34.3855C76.0999 51.3611 101.239 72.5598 120.869 96.8951V96.8951" stroke="#506698" stroke-opacity="0.2" stroke-width="0.225189" stroke-miterlimit="10"/>
<path d="M54.0869 26.2695L56.1651 27.7468C83.5022 46.7508 106.161 69.6612 122.978 95.3024V95.3024" stroke="#506698" stroke-opacity="0.2" stroke-width="0.225189" stroke-miterlimit="10"/>
<path d="M64.4463 20.1611L66.3686 21.7795C91.4596 42.6667 111.454 67.1079 125.326 93.8498V93.8498" stroke="#506698" stroke-opacity="0.2" stroke-width="0.225189" stroke-miterlimit="10"/>
<path d="M75.4395 14.8164L77.1955 16.5675C99.8405 39.1689 117.012 64.9439 127.83 92.5717V92.5717" stroke="#506698" stroke-opacity="0.2" stroke-width="0.225189" stroke-miterlimit="10"/>
<path d="M86.9946 10.2764L88.5429 12.152C108.56 36.2833 122.769 63.1843 130.439 91.4758V91.4758" stroke="#506698" stroke-opacity="0.2" stroke-width="0.225189" stroke-miterlimit="10"/>
<path d="M99.0059 6.58301L100.336 8.55822C117.566 34.0252 128.698 61.8355 133.161 90.5627" stroke="#506698" stroke-opacity="0.2" stroke-width="0.225189" stroke-miterlimit="10"/>
<path d="M111.382 3.76953L112.494 5.83603C126.793 32.434 134.76 60.9276 135.987 89.8572V89.8572" stroke="#506698" stroke-opacity="0.2" stroke-width="0.225189" stroke-miterlimit="10"/>
<path d="M124.027 1.85352L124.9 4.02791C136.16 31.5422 140.896 60.4924 138.865 89.3936V89.3936" stroke="#506698" stroke-opacity="0.2" stroke-width="0.225189" stroke-miterlimit="10"/>
<path d="M136.84 0.84845L137.463 3.03114C145.592 31.2431 147.061 60.4184 141.796 89.0607V89.0607" stroke="#506698" stroke-opacity="0.2" stroke-width="0.225189" stroke-miterlimit="10"/>
<path d="M149.713 0.765625L150.087 2.98981C155.014 31.6685 153.203 60.8295 144.747 88.9779V88.9779" stroke="#506698" stroke-opacity="0.2" stroke-width="0.225189" stroke-miterlimit="10"/>
<path d="M162.535 1.60352L162.67 3.8443C164.357 32.7598 159.279 61.6731 147.697 89.1021V89.1021" stroke="#506698" stroke-opacity="0.2" stroke-width="0.225189" stroke-miterlimit="10"/>
<path d="M175.223 3.35547L175.098 5.59626C173.536 34.5098 165.234 62.9367 150.618 89.4183V89.4183" stroke="#506698" stroke-opacity="0.2" stroke-width="0.225189" stroke-miterlimit="10"/>
<path d="M187.661 6.01074L187.287 8.23493C182.48 36.9268 171.021 64.6519 153.496 89.9905V89.9905" stroke="#506698" stroke-opacity="0.2" stroke-width="0.225189" stroke-miterlimit="10"/>
<path d="M199.745 9.5459L199.122 11.7286C191.119 39.9626 176.593 66.7568 156.291 90.7371V90.7371" stroke="#506698" stroke-opacity="0.2" stroke-width="0.225189" stroke-miterlimit="10"/>
<path d="M211.384 13.9277L210.522 16.0606C199.379 43.6052 181.909 69.2504 159.004 91.683V91.683" stroke="#506698" stroke-opacity="0.2" stroke-width="0.225189" stroke-miterlimit="10"/>
<path d="M201.896 220.238L200.348 218.371C180.328 194.24 166.12 167.339 158.452 139.047V139.047" stroke="#506698" stroke-opacity="0.2" stroke-width="0.225189" stroke-miterlimit="10"/>
<path d="M189.885 223.957L188.555 221.982C171.318 196.508 160.186 168.688 155.73 139.952V139.952" stroke="#506698" stroke-opacity="0.2" stroke-width="0.225189" stroke-miterlimit="10"/>
<path d="M177.551 226.753L176.439 224.686C162.14 198.088 154.173 169.595 152.945 140.665V140.665" stroke="#506698" stroke-opacity="0.2" stroke-width="0.225189" stroke-miterlimit="10"/>
<path d="M164.865 228.67L163.992 226.537C152.727 199.021 147.991 170.067 150.027 141.163V141.163" stroke="#506698" stroke-opacity="0.2" stroke-width="0.225189" stroke-miterlimit="10"/>
<path d="M152.052 229.674L151.418 227.483C143.293 199.274 141.827 170.101 147.096 141.462V141.462" stroke="#506698" stroke-opacity="0.2" stroke-width="0.225189" stroke-miterlimit="10"/>
<path d="M139.178 229.766L138.793 227.542C133.87 198.863 135.685 169.702 144.145 141.554V141.554" stroke="#506698" stroke-opacity="0.2" stroke-width="0.225189" stroke-miterlimit="10"/>
<path d="M126.354 228.936L126.218 226.695C124.526 197.775 129.6 168.856 141.181 141.421V141.421" stroke="#506698" stroke-opacity="0.2" stroke-width="0.225189" stroke-miterlimit="10"/>
<path d="M113.667 227.168L113.792 224.927C115.355 196.014 123.657 167.587 138.273 141.105V141.105" stroke="#506698" stroke-opacity="0.2" stroke-width="0.225189" stroke-miterlimit="10"/>
<path d="M101.23 224.512L101.605 222.288C106.406 193.595 117.866 165.869 135.396 140.532V140.532" stroke="#506698" stroke-opacity="0.2" stroke-width="0.225189" stroke-miterlimit="10"/>
<path d="M89.1455 220.977L89.769 218.786C97.7717 190.555 112.297 163.763 132.6 139.786V139.786" stroke="#506698" stroke-opacity="0.2" stroke-width="0.225189" stroke-miterlimit="10"/>
<path d="M77.5088 216.595L78.3712 214.454C89.507 186.91 106.978 161.266 129.889 138.84V138.84" stroke="#506698" stroke-opacity="0.2" stroke-width="0.225189" stroke-miterlimit="10"/>
<path d="M66.3691 211.392L67.4706 209.325C81.6571 182.69 101.937 158.401 127.27 137.703V137.703" stroke="#506698" stroke-opacity="0.2" stroke-width="0.225189" stroke-miterlimit="10"/>
<path d="M55.978 205.416L57.3081 203.44C74.4278 177.928 97.3499 155.188 124.9 136.383V136.383" stroke="#506698" stroke-opacity="0.2" stroke-width="0.225189" stroke-miterlimit="10"/>
<path d="M46.1587 198.718L47.6654 196.843C67.5657 172.66 92.9373 151.652 122.479 134.897V134.897" stroke="#506698" stroke-opacity="0.2" stroke-width="0.225189" stroke-miterlimit="10"/>
<path d="M37.1914 191.349L38.9371 189.589C61.4727 166.928 89.0991 147.821 120.401 133.246V133.246" stroke="#506698" stroke-opacity="0.2" stroke-width="0.225189" stroke-miterlimit="10"/>
<path d="M29.0859 183.356L31.0186 181.697C56.0165 160.737 85.6914 143.686 118.52 131.42V131.42" stroke="#506698" stroke-opacity="0.2" stroke-width="0.225189" stroke-miterlimit="10"/>
<path d="M21.9053 174.825L23.9834 173.348C51.2359 154.265 82.7034 139.408 116.774 129.536V129.536" stroke="#506698" stroke-opacity="0.2" stroke-width="0.225189" stroke-miterlimit="10"/>
<path d="M15.7134 165.812L17.989 164.492C47.2708 147.436 80.2788 134.892 115.32 127.503V127.503" stroke="#506698" stroke-opacity="0.2" stroke-width="0.225189" stroke-miterlimit="10"/>
<path d="M10.5586 156.392L12.9693 155.238C44.0469 140.344 78.3309 130.212 114.062 125.361V125.361" stroke="#506698" stroke-opacity="0.2" stroke-width="0.225189" stroke-miterlimit="10"/>
<path d="M6.48535 146.641L9.01032 145.662C41.6393 133.061 76.9229 125.428 113.054 123.154V123.154" stroke="#506698" stroke-opacity="0.2" stroke-width="0.225189" stroke-miterlimit="10"/>
<path d="M3.51416 136.64L6.14304 135.811C40.0571 125.604 76.0565 120.538 112.296 120.872V120.872" stroke="#506698" stroke-opacity="0.2" stroke-width="0.225189" stroke-miterlimit="10"/>
<path d="M1.68555 126.466L4.38716 125.86C39.3083 118.118 75.7297 115.642 111.787 118.556V118.556" stroke="#506698" stroke-opacity="0.2" stroke-width="0.225189" stroke-miterlimit="10"/>
<path d="M1 116.199L3.76396 115.792C39.4111 110.574 75.9642 110.712 111.548 116.199V116.199" stroke="#506698" stroke-opacity="0.2" stroke-width="0.225189" stroke-miterlimit="10"/>
</svg>
