<svg id="c25f53ef-8ead-42c3-8d71-19c0d74c766a" data-name="Layer 1" xmlns="http://www.w3.org/2000/svg" viewBox="0 0 222.8 222.8"><defs><style>.\35 90bb353-b4ea-45b3-8dad-bc6b1b847dfe{fill:#FA9D1C;}.\35 25e29ee-fdcd-418e-bd40-d92832dd2bdc{fill:#fff;}</style></defs><title>new flow icon</title><rect class="590bb353-b4ea-45b3-8dad-bc6b1b847dfe" width="222.8" height="222.79" rx="41.2" ry="41.2"/><path class="525e29ee-fdcd-418e-bd40-d92832dd2bdc" d="M165.7,59.8H57.1A15.3,15.3,0,0,0,42,75.2v64a15.3,15.3,0,0,0,15.1,15.4H165.7a15.3,15.3,0,0,0,15.1-15.4v-64A15.3,15.3,0,0,0,165.7,59.8ZM49.4,102.2h124v37a7.9,7.9,0,0,1-7.7,8H57.1a7.8,7.8,0,0,1-7.7-8Zm124-24.9H49.4V75.2a7.7,7.7,0,0,1,7.7-7.9H165.7a7.8,7.8,0,0,1,7.7,7.9Zm-124,7.4h124v10H49.4Z"/><path class="525e29ee-fdcd-418e-bd40-d92832dd2bdc" d="M62.8,125.5H97.1a3.8,3.8,0,0,0,0-7.5H62.8a3.8,3.8,0,0,0,0,7.5Z"/><path class="525e29ee-fdcd-418e-bd40-d92832dd2bdc" d="M62.8,137.1H97.1a3.7,3.7,0,0,0,3.7-3.7,3.8,3.8,0,0,0-3.7-3.7H62.8a3.7,3.7,0,0,0-3.6,3.7A3.6,3.6,0,0,0,62.8,137.1Z"/><path class="525e29ee-fdcd-418e-bd40-d92832dd2bdc" d="M148.5,137.1h5.7a9.4,9.4,0,0,0,9.4-9.5v-5.8a9.5,9.5,0,0,0-9.4-9.6h-5.7a9.6,9.6,0,0,0-9.4,9.6v5.8A9.5,9.5,0,0,0,148.5,137.1Zm-2-15.3a2,2,0,0,1,2-2.1h5.7a2.1,2.1,0,0,1,2.1,2.1v5.8a2.1,2.1,0,0,1-2.1,2.1h-5.7a2.1,2.1,0,0,1-2-2.1Z"/></svg>