<svg id="681ca7f6-1574-4827-b552-1e03ce1c8629" data-name="Layer 1" xmlns="http://www.w3.org/2000/svg" viewBox="0 0 222.8 222.8"><defs><style>.af4aeec4-2445-4b25-bbc3-6d5324b82c51{fill:#FA9D1C;}.\31 8fdf1ff-ae27-4889-8a0d-277df00ad27c{fill:#fff;}</style></defs><title>new flow icon</title><rect class="af4aeec4-2445-4b25-bbc3-6d5324b82c51" width="222.8" height="222.79" rx="41.2" ry="41.2"/><path id="e24254bf-9982-490a-a6a2-c12299ec8350" data-name="Shape" class="18fdf1ff-ae27-4889-8a0d-277df00ad27c" d="M135.4,86.8a5.4,5.4,0,1,0,5.3-5.3A5.4,5.4,0,0,0,135.4,86.8Zm7.1,0a1.8,1.8,0,1,1-1.8-1.8A1.8,1.8,0,0,1,142.5,86.8Z"/><path id="245bcaec-ba91-42d0-bf2b-f4bb75d8d30f" data-name="Shape" class="18fdf1ff-ae27-4889-8a0d-277df00ad27c" d="M178.4,69.9,121.2,51.6a3.3,3.3,0,0,0-1.4,0L62.6,69.9a2.4,2.4,0,0,0-1.5,2.2v9.2a2.3,2.3,0,0,0,2.2,2.3h6.9V95.3h4.6V83.6h9.1V95.3h4.6V83.6h9.2V95.3h4.5V83.6h9.2V95.3H116V83.6h9.1V95.3h4.6V83.6h9.1V95.3h4.6V83.6h9.2v46.1H148v4.5h27.5v9.2H148V148h29.7a2.3,2.3,0,0,0,2.3-2.3V131.9a2.2,2.2,0,0,0-2.3-2.2h-6.8V83.6h6.8a2.3,2.3,0,0,0,2.3-2.3V72.1A2.3,2.3,0,0,0,178.4,69.9Zm-12.1,59.8h-9.1V83.6h9.1ZM175.5,79H65.6V73.8l54.9-17.6,55,17.6Z"/><path id="fbeb6a9d-fbd5-4116-8852-43c75d0055ba" data-name="Shape" class="18fdf1ff-ae27-4889-8a0d-277df00ad27c" d="M45,182.3h96.1a2.3,2.3,0,0,0,2.3-2.3V102.2a2.3,2.3,0,0,0-2.3-2.3H45a2.2,2.2,0,0,0-2.2,2.3V180A2.2,2.2,0,0,0,45,182.3Zm38.9-44.7a13.8,13.8,0,0,1,0-20.4Zm-9.1-10.2A18.5,18.5,0,0,0,81,141.1H63.1a9.5,9.5,0,0,0-6.6-6.6V120.2a9.2,9.2,0,0,0,6.6-6.6H81A18.6,18.6,0,0,0,74.8,127.4ZM47.3,164H83.9v4.5H47.3Zm36.6-4.6H47.3v-4.6H83.9ZM47.3,173.1H83.9v4.6H47.3Zm41.2,4.6V154.8h9.2v22.9Zm13.7-60.5a13.6,13.6,0,0,1,0,20.4Zm9.2,10.2a18.3,18.3,0,0,0-6.3-13.8h18a9.2,9.2,0,0,0,6.6,6.6v14.3a9.5,9.5,0,0,0-6.6,6.6h-18A18.3,18.3,0,0,0,111.4,127.4Zm27.4,27.4v4.6H102.2v-4.6ZM102.2,164h36.6v4.5H102.2Zm0,13.7v-4.6h36.6v4.6Zm36.6-27.5H102.2v-4.5h22.9a2.3,2.3,0,0,0,2.3-2.3,4.7,4.7,0,0,1,4.6-4.6,2.3,2.3,0,0,0,2.3-2.3V118.2a2.3,2.3,0,0,0-2.3-2.3,4.6,4.6,0,0,1-4.6-4.6,2.2,2.2,0,0,0-2.3-2.2H102.2v-4.6h36.6ZM97.7,104.5v45.7H88.5V104.5Zm-50.4,0H83.9v4.6H61.1a2.2,2.2,0,0,0-2.3,2.2,4.6,4.6,0,0,1-4.6,4.6,2.3,2.3,0,0,0-2.3,2.3v18.3a2.3,2.3,0,0,0,2.3,2.3,4.7,4.7,0,0,1,4.6,4.6,2.3,2.3,0,0,0,2.3,2.3H83.9v4.5H47.3Z"/><polygon id="bb4a9bae-3d9a-425f-b2a6-784fc06b7e40" data-name="Path" class="18fdf1ff-ae27-4889-8a0d-277df00ad27c" points="63.3 125.1 67.9 125.1 67.9 129.7 63.3 129.7 63.3 125.1"/><polygon id="6a96fc94-cc10-4de6-bffb-c8bd19895d52" data-name="Path" class="18fdf1ff-ae27-4889-8a0d-277df00ad27c" points="118.3 125.1 122.8 125.1 122.8 129.7 118.3 129.7 118.3 125.1"/></svg>