<svg id="b0217371-6797-4b99-9bb0-d3848c8c1039" data-name="Layer 1" xmlns="http://www.w3.org/2000/svg" viewBox="0 0 445.1 353.4"><defs><style>.cd89133c-61e2-4ee0-98ef-bac4bf418436{fill:#FA9D1C}</style></defs><title>new flow icon</title><path class="cd89133c-61e2-4ee0-98ef-bac4bf418436" d="M378.1,0H67C25.7.1.1,25.9,0,67.3V286c.1,41.5,25.7,67.3,67,67.3H378c41.4,0,67-25.8,67.1-67.2V67.4C445,25.9,419.4.1,378.1,0Zm3.8,35.1L222.6,154.8,63.2,35.1Zm28.6,247.6c0,26-10.1,36.1-36.2,36.1H70.7c-26,0-36.1-10.1-36.1-36.2V59.1l7.5,5L47,67.4a83.4,83.4,0,0,1,7.6,5.2L206,186.2c13.8,10.4,19.3,10.4,33.2,0l15.9-11.9,134.4-101,7.8-5.6,5.6-3.9,7.6-5.5V153Q410.7,218,410.5,282.7Z"/></svg>