<svg width="52" height="46" viewBox="0 0 52 46" fill="none" xmlns="http://www.w3.org/2000/svg">
<g clip-path="url(#clip0_318_15)">
<path d="M44 43.9912C48.4183 43.9912 52 40.4095 52 35.9912C52 31.5729 48.4183 27.9912 44 27.9912C39.5817 27.9912 36 31.5729 36 35.9912C36 40.4095 39.5817 43.9912 44 43.9912Z" fill="#DD2F30"/>
<path fill-rule="evenodd" clip-rule="evenodd" d="M43.1992 32.5534C43.1992 32.0232 43.6316 31.5908 44.1618 31.5908C44.6921 31.5908 45.1244 32.0232 45.1244 32.5534V35.6646C45.1244 36.1959 44.6921 36.6272 44.1618 36.6272C43.6316 36.6272 43.1992 36.1959 43.1992 35.6646V32.5534ZM43.1992 39.4282C43.1992 38.8947 43.6316 38.4601 44.1618 38.4601C44.6921 38.4601 45.1244 38.8892 45.1244 39.4161C45.1244 39.9585 44.6921 40.3908 44.1618 40.3908C43.6316 40.3908 43.1992 39.9585 43.1992 39.4282Z" fill="white"/>
<path opacity="0.1" d="M37.4937 -0.00878906H8.50628C3.80839 -0.00878906 0 3.7996 0 8.49749V37.4829C0 42.1808 3.80839 45.9891 8.50628 45.9891H37.4937C42.1916 45.9891 46 42.1808 46 37.4829V8.49749C46 3.7996 42.1916 -0.00878906 37.4937 -0.00878906Z" fill="#FA9D1C"/>
<mask id="mask0_318_15" style="mask-type:luminance" maskUnits="userSpaceOnUse" x="11" y="10" width="24" height="25">
<path d="M35 10.9912H11V34.9912H35V10.9912Z" fill="white"/>
</mask>
<g mask="url(#mask0_318_15)">
<mask id="mask1_318_15" style="mask-type:luminance" maskUnits="userSpaceOnUse" x="11" y="10" width="24" height="25">
<path d="M35 10.9912H11V34.9912H35V10.9912Z" fill="white"/>
</mask>
<g mask="url(#mask1_318_15)">
<path d="M17 16.9912C17 16.1956 17.3161 15.4325 17.8787 14.8699C18.4413 14.3073 19.2044 13.9912 20 13.9912H26C26.7957 13.9912 27.5587 14.3073 28.1213 14.8699C28.6839 15.4325 29 16.1956 29 16.9912V28.9912C29 29.7869 28.6839 30.5499 28.1213 31.1125C27.5587 31.6751 26.7957 31.9912 26 31.9912H20C19.2044 31.9912 18.4413 31.6751 17.8787 31.1125C17.3161 30.5499 17 29.7869 17 28.9912V16.9912ZM24.5 27.4912C24.5 27.0934 24.342 26.7119 24.0607 26.4306C23.7794 26.1492 23.3978 25.9912 23 25.9912C22.6022 25.9912 22.2207 26.1492 21.9394 26.4306C21.658 26.7119 21.5 27.0934 21.5 27.4912C21.5 27.889 21.658 28.2706 21.9394 28.5519C22.2207 28.8332 22.6022 28.9912 23 28.9912C23.3978 28.9912 23.7794 28.8332 24.0607 28.5519C24.342 28.2706 24.5 27.889 24.5 27.4912ZM13.7105 18.0922C13.8036 17.9164 13.823 17.7108 13.7645 17.5206C13.706 17.3304 13.5744 17.1713 13.3985 17.0782C13.2227 16.9851 13.0171 16.9657 12.8269 17.0242C12.6367 17.0827 12.4776 17.2144 12.3845 17.3902C11.4725 19.1161 10.9971 21.0392 11 22.9912C11 25.0117 11.501 26.9182 12.3845 28.5922C12.4306 28.6793 12.4934 28.7564 12.5693 28.8192C12.6452 28.882 12.7327 28.9292 12.8269 28.9582C12.9211 28.9872 13.02 28.9973 13.1181 28.9881C13.2162 28.9788 13.3114 28.9503 13.3985 28.9042C13.4856 28.8581 13.5627 28.7953 13.6255 28.7194C13.6883 28.6435 13.7355 28.556 13.7645 28.4618C13.7935 28.3677 13.8036 28.2687 13.7944 28.1706C13.7851 28.0726 13.7566 27.9773 13.7105 27.8902C12.9129 26.3806 12.4973 24.6986 12.5 22.9912C12.5 21.2212 12.938 19.5532 13.7105 18.0922ZM33.6155 17.3902C33.5224 17.2144 33.3633 17.0827 33.1731 17.0242C32.983 16.9657 32.7774 16.9851 32.6015 17.0782C32.4257 17.1713 32.294 17.3304 32.2355 17.5206C32.177 17.7108 32.1964 17.9164 32.2895 18.0922C33.062 19.5532 33.5 21.2197 33.5 22.9912C33.5 24.7612 33.062 26.4292 32.2895 27.8902C32.1964 28.066 32.177 28.2717 32.2355 28.4618C32.294 28.652 32.4257 28.8111 32.6015 28.9042C32.7774 28.9973 32.983 29.0167 33.1731 28.9582C33.3633 28.8997 33.5224 28.7681 33.6155 28.5922C34.5275 26.8663 35.0029 24.9433 35 22.9912C35.0029 21.0392 34.5275 19.1161 33.6155 17.3902ZM16.01 20.2642C16.0519 20.1715 16.0744 20.0713 16.0763 19.9696C16.0782 19.8679 16.0594 19.7668 16.0211 19.6726C15.9827 19.5784 15.9256 19.493 15.8531 19.4216C15.7807 19.3502 15.6945 19.2942 15.5998 19.2572C15.5051 19.2201 15.4038 19.2027 15.3022 19.206C15.2005 19.2093 15.1006 19.2332 15.0085 19.2763C14.9163 19.3195 14.834 19.3809 14.7663 19.4568C14.6987 19.5328 14.6472 19.6217 14.615 19.7182C14.2077 20.7613 13.9991 21.8714 14 22.9912C14 24.1447 14.2175 25.2487 14.615 26.2642C14.6472 26.3607 14.6987 26.4496 14.7663 26.5256C14.834 26.6016 14.9163 26.663 15.0085 26.7061C15.1006 26.7492 15.2005 26.7732 15.3022 26.7765C15.4038 26.7798 15.5051 26.7623 15.5998 26.7253C15.6945 26.6882 15.7807 26.6322 15.8531 26.5608C15.9256 26.4894 15.9827 26.404 16.0211 26.3098C16.0594 26.2156 16.0782 26.1146 16.0763 26.0129C16.0744 25.9112 16.0519 25.8109 16.01 25.7182C15.6714 24.849 15.4985 23.9241 15.5 22.9912C15.5 22.0282 15.68 21.1087 16.01 20.2642ZM31.385 19.7182C31.3059 19.543 31.1625 19.4048 30.9844 19.3323C30.8063 19.2597 30.6072 19.2584 30.4281 19.3284C30.249 19.3985 30.1037 19.5347 30.0222 19.7089C29.9407 19.883 29.9292 20.0818 29.99 20.2642C30.32 21.1087 30.5 22.0282 30.5 22.9912C30.5 23.9542 30.32 24.8737 29.99 25.7182C29.9292 25.9006 29.9407 26.0994 30.0222 26.2736C30.1037 26.4477 30.249 26.5839 30.4281 26.654C30.6072 26.7241 30.8063 26.7227 30.9844 26.6502C31.1625 26.5776 31.3059 26.4395 31.385 26.2642C31.784 25.2487 32 24.1447 32 22.9912C32 21.8377 31.7825 20.7337 31.385 19.7182Z" fill="#FA9D1C"/>
</g>
</g>
</g>
<defs>
<clipPath id="clip0_318_15">
<rect width="52" height="46" fill="white"/>
</clipPath>
</defs>
</svg>
