<svg width="120" height="101" viewBox="0 0 120 101" fill="none" xmlns="http://www.w3.org/2000/svg">
<path opacity="0.15" fill-rule="evenodd" clip-rule="evenodd" d="M58.5217 0.254911C67.3903 1.05205 74.8252 5.92247 83.3156 8.59237C95.5008 12.4242 114.744 7.48295 119.284 19.3624C123.966 31.6153 104.312 40.4509 100.256 52.9224C97.211 62.2825 103.811 73.2286 98.972 81.8091C93.878 90.8423 84.0262 96.5687 74.0209 99.4445C64.0375 102.314 53.4201 100.901 43.5238 97.7467C33.799 94.6475 23.0424 90.6267 18.2367 81.6667C13.548 72.9246 22.0798 62.0761 19.2906 52.5646C15.7284 40.4166 -2.57367 32.8445 0.306009 20.5188C2.97592 9.09101 19.5337 7.73656 30.6695 3.86035C39.6888 0.720879 49.0046 -0.600524 58.5217 0.254911Z" fill="white"/>
</svg>
