<svg width="24" height="24" viewBox="0 0 24 24" fill="none" xmlns="http://www.w3.org/2000/svg">
<path d="M21.6 1H3.19999C3.09445 1.00036 2.98945 1.01518 2.88803 1.04393C2.63356 1.1125 2.40894 1.26286 2.24839 1.47179C2.08786 1.68071 2.00053 1.93661 2 2.20002V11C2 11.3182 2.12643 11.6236 2.35143 11.8486C2.57643 12.0735 2.88181 12.2 3.19998 12.2H14.8V11.4H4.79998C4.57909 11.4 4.39998 11.2209 4.39998 11C4.39998 10.6818 4.27355 10.3764 4.04855 10.1514C3.82355 9.92648 3.51817 9.80001 3.2 9.80001C2.97911 9.80001 2.8 9.62091 2.8 9.40001V3.80002C2.8 3.57912 2.97911 3.40002 3.2 3.40002C3.51821 3.40002 3.82359 3.27359 4.04855 3.04859C4.27351 2.82359 4.39998 2.51821 4.39998 2.20004C4.39998 1.97915 4.57909 1.80004 4.79998 1.80004H20C20.106 1.80004 20.2078 1.84218 20.2828 1.91718C20.3578 1.99218 20.4 2.09397 20.4 2.20004C20.4 2.51825 20.5264 2.82363 20.7514 3.04859C20.9764 3.27355 21.2818 3.40002 21.6 3.40002C21.706 3.40002 21.8078 3.44216 21.8828 3.51716C21.9578 3.59216 22 3.69394 22 3.80002V9.40001C22 9.50609 21.9578 9.60787 21.8828 9.68287C21.8078 9.75787 21.706 9.80001 21.6 9.80001C21.2817 9.80001 20.9764 9.92644 20.7514 10.1514C20.5264 10.3764 20.4 10.6818 20.4 11C20.4 11.1061 20.3578 11.2079 20.2828 11.2828C20.2078 11.3578 20.106 11.4 20 11.4H18.8V12.2H21.6C21.7055 12.1996 21.8105 12.1848 21.9119 12.1561C22.1664 12.0875 22.391 11.9371 22.5516 11.7282C22.7121 11.5193 22.7994 11.2634 22.8 11V2.19998C22.8 1.88176 22.6735 1.57639 22.4485 1.35143C22.2235 1.12647 21.9182 1 21.6 1Z" fill="#FA9D1C"/>
<path d="M16.743 8.20019C16.743 8.20021 16.7429 8.20022 16.7428 8.20023C16.4345 8.21472 16.1435 8.34739 15.9305 8.57094C15.7174 8.79433 15.5987 9.09149 15.599 9.40024V12.6002C15.599 12.7063 15.5569 12.8081 15.4819 12.8831C15.4069 12.9581 15.3051 13.0002 15.199 13.0002C14.2442 13.0002 13.3285 13.3795 12.6535 14.0547C11.9783 14.7297 11.599 15.6454 11.599 16.6002C11.599 16.8211 11.4199 17.0002 11.199 17.0002C10.9781 17.0002 10.799 16.8211 10.799 16.6002C10.7951 15.4324 11.259 14.3117 12.0871 13.4883C12.2533 13.3222 12.1431 13.0002 11.9082 13.0002H8.51611C7.78881 13.0002 7.19922 13.5898 7.19922 14.3171V16.6002C7.19922 17.2369 7.45207 17.8472 7.90208 18.2974C8.35226 18.7474 8.9626 19.0002 9.59922 19.0002H15.5992C16.2358 19.0002 16.8462 18.7474 17.2964 18.2974C17.7464 17.8472 17.9992 17.2369 17.9992 16.6002V9.49213C18.0017 9.12998 17.8574 8.78232 17.5992 8.5282C17.3744 8.30089 17.0625 8.18144 16.7432 8.20015C16.7432 8.20016 16.7431 8.20017 16.743 8.20019Z" fill="#FA9D1C"/>
<path d="M18.8016 10.6001H19.6416C19.72 10.2158 19.9096 9.86295 20.1871 9.58565C20.4644 9.30815 20.8173 9.1185 21.2016 9.0401V4.1601C20.8173 4.08171 20.4644 3.89206 20.1871 3.61454C19.9096 3.33722 19.72 2.98437 19.6416 2.6001H5.16156C5.08317 2.98438 4.89353 3.33724 4.61601 3.61454C4.33869 3.89204 3.98584 4.0817 3.60156 4.1601V9.0401C3.98585 9.11849 4.33871 9.30813 4.61601 9.58565C4.89351 9.86297 5.08316 10.2158 5.16156 10.6001H14.8018V9.4001C14.8013 8.88581 14.9988 8.39118 15.3532 8.01884C15.7078 7.64634 16.1921 7.42474 16.7057 7.4001C17.2382 7.37742 17.7564 7.57581 18.1378 7.94812C18.5612 8.35009 18.8012 8.90812 18.8017 9.49203L18.8016 10.6001ZM12.4016 9.8001C10.8577 9.8001 9.60156 8.36403 9.60156 6.6001C9.60156 4.83617 10.8577 3.4001 12.4016 3.4001C13.9455 3.4001 15.2016 4.83617 15.2016 6.6001C15.2016 8.36403 13.9455 9.8001 12.4016 9.8001Z" fill="#FA9D1C"/>
<path d="M15.2198 6.73909C15.2198 8.7562 13.8573 10.3913 12.1763 10.3913C10.4953 10.3913 9.13281 8.7562 9.13281 6.73909C9.13281 4.72197 10.4953 3.08691 12.1763 3.08691C13.8573 3.08691 15.2198 4.72197 15.2198 6.73909Z" fill="#FA9D1C"/>
<path d="M8.8 19.8003H16.4C16.8418 19.8003 17.2 20.2421 17.2 20.6003V22.2003C17.2 22.6421 16.8418 23.0003 16.4 23.0003H8.8C8.35821 23.0003 8 22.5585 8 22.2003V20.6003C8 20.1585 8.35821 19.8003 8.8 19.8003Z" fill="#FA9D1C"/>
</svg>
